<?xml version="1.0" encoding="UTF-8"?>
<svg width="256px" height="256px" viewBox="0 0 256 256" version="1.1" xmlns="http://www.w3.org/2000/svg" xmlns:xlink="http://www.w3.org/1999/xlink">
    <!-- Generator: Sketch 46.2 (44496) - http://www.bohemiancoding.com/sketch -->
    <title>Consciousness</title>
    <desc>Consciousness Logo.</desc>
    <defs></defs>
    <g id="Page-1" stroke="none" stroke-width="1" fill="none" fill-rule="evenodd">
        <g id="icon">
            <path d="M233,119.25 C233,121.500011 228.125049,122.625 218.375,122.625 C211.624966,122.625 204.500037,122.999996 197,123.75 C192.499977,123.75 182.750075,124.124996 167.75,124.875 C156.499944,126.375007 147.87503,127.125 141.875,127.125 C141.875,136.125045 141.125007,141.749989 139.625,144 C139.625,146.250011 137.750019,148.499989 134,150.75 C133.249996,150.75 132.875,151.124996 132.875,151.875 C130.624989,152.625004 128.750007,152.625004 127.25,151.875 C125.749992,151.124996 125,145.125056 125,133.875 L125,91.125 C125,85.12497 124.250007,74.2500788 122.75,58.5 L122.75,51.75 C122.75,44.2499625 119.750004,36.0000563 119,24.75 C120.500007,25.5000038 125.374985,25.8749887 128.375,28.125 C133.625026,31.125015 138.124981,34.124985 141.875,37.125 C154.625064,35.6249925 175.249857,34.5000038 203.75,33.75 L212.75,21.375 C214.250007,22.1250038 216.124989,23.2499925 218.375,24.75 C221.375015,27.750015 223.624993,29.6249962 225.125,30.375 C230.375026,34.8750225 233,37.8749925 233,39.375 C233,42.375015 230.00003,45.7499813 224,49.5 C223.249996,54.0000225 222.875,63.3749287 222.875,77.625 C222.124996,89.62506 221.75,98.9999662 221.75,105.75 C230.000041,112.500034 233.750004,116.999989 233,119.25 Z M138.5,47.25 C138.5,51.0000187 138.874996,60.7499212 139.625,76.5 C140.375004,96.7501013 140.75,110.249966 140.75,117 C146.000026,117 156.124925,116.625004 171.125,115.875 C185.375071,114.374992 196.249962,113.625 203.75,113.625 L203.75,101.25 C205.250007,77.9998837 205.625004,58.5000788 204.875,42.75 C201.874985,43.5000038 196.625038,43.875 189.125,43.875 C181.624962,44.6250038 176.000019,45 172.25,45 C169.249985,45 162.500052,45.3749963 152,46.125 C145.99997,46.8750038 141.500015,47.25 138.5,47.25 Z" id="Path" fill="#592525"></path>
            <path d="M98,164.25 C100.250011,161.999989 102.874985,160.875 105.875,160.875 C108.875015,163.125011 107.000034,167.24997 100.25,173.25 C90.4999513,183.000049 81.8750375,192.749951 74.375,202.5 C72.8749925,204.750011 71.0000113,207.749981 68.75,211.5 C65.749985,217.50003 63.5000075,220.5 62,220.5 C60.4999925,220.5 57.8750187,219.000015 54.125,216 L50.75,212.625 C49.2499925,211.124993 47.3750113,208.500019 45.125,204.75 C43.6249925,203.249993 42.5000037,201.750008 41.75,200.25 C49.2500375,194.999974 53,187.500049 53,177.75 L53,104.625 C51.4999925,104.625 48.1250262,104.999996 42.875,105.75 C26.3749175,108.000011 16.2500188,109.499996 12.5,110.25 C12.5,109.499996 12.1250038,108.000011 11.375,105.75 C9.8749925,103.499989 8.75000375,101.250011 8,99 C12.5000225,99 20.74994,98.6250038 32.75,97.875 C42.5000487,97.1249962 48.874985,96.75 51.875,96.75 C54.1250113,92.2499775 57.1249813,88.500015 60.875,85.5 L63.125,86.625 C66.8750188,89.625015 70.249985,92.624985 73.25,95.625 C77.7500225,99.3750187 80,102.374989 80,104.625 C80,106.875011 76.6250338,109.499985 69.875,112.5 L69.875,184.5 C71.3750075,183.749996 73.624985,181.875015 76.625,178.875 C80.3750188,176.624989 87.4999475,171.750038 98,164.25 Z" id="Path" fill="#4A6662"></path>
            <path d="M247.625,213.75 C247.625,223.500049 243.875038,228.749996 236.375,229.5 C231.874977,229.5 228.500011,227.250023 226.25,222.75 C223.999989,218.249977 220.625023,210.375056 216.125,199.125 C210.874974,188.624947 204.125041,178.500049 195.875,168.75 C189.87497,162.74997 186.875,159.375004 186.875,158.625 C186.875,157.124993 187.999989,156.375 190.25,156.375 C192.500011,157.125004 195.874977,158.999985 200.375,162 C211.625056,167.250026 220.999963,174.374955 228.5,183.375 C240.50006,195.37506 246.874996,205.499959 247.625,213.75 Z" id="Path" fill="#7B7467"></path>
            <path d="M168.875,180 C168.875,180.750004 164.000049,181.874992 154.25,183.375 C151.249985,188.625026 144.500052,196.874944 134,208.125 C124.999955,215.625038 115.625049,223.499959 105.875,231.75 C99.87497,235.500019 95.7500112,237.749996 93.5,238.5 C91.9999925,238.5 91.25,237.750007 91.25,236.25 C90.4999962,235.499996 93.4999662,231.750034 100.25,225 C104.000019,221.249981 110.374955,214.125053 119.375,203.625 C121.625011,199.874981 123.499993,197.250007 125,195.75 C126.500007,193.499989 129.874974,187.875045 135.125,178.875 C137.375011,175.874985 138.874996,173.625007 139.625,172.125 C141.875011,167.624977 144.124989,162.750026 146.375,157.5 C147.125004,158.250004 148.249992,158.999996 149.75,159.75 C155.000026,163.500019 159.499981,167.249981 163.25,171 C167.000019,174.750019 168.875,177.749989 168.875,180 Z" id="Path" fill="#000000"></path>
            <path d="M81.125,47.25 C81.125,51.7500225 80.0000113,55.499985 77.75,58.5 C75.4999887,62.2500187 72.1250225,64.125 67.625,64.125 C63.8749813,64.125 60.8750113,61.8750225 58.625,57.375 L58.625,55.125 C57.8749962,51.3749812 57.5,48.000015 57.5,45 C56.7499962,38.2499662 54.5000187,32.2500263 50.75,27 L46.25,22.5 C44.7499925,20.9999925 44,19.8750038 44,19.125 C45.5000075,18.3749962 48.4999775,18 53,18 C59.7500338,19.5000075 65.3749775,22.4999775 69.875,27 C75.87503,31.5000225 79.6249925,38.249955 81.125,47.25 Z" id="Path" fill="#4D4D4D"></path>
        </g>
    </g>
</svg>