<?xml version="1.0" encoding="UTF-8" ?>
<!DOCTYPE svg PUBLIC "-//W3C//DTD SVG 1.1//EN" "http://www.w3.org/Graphics/SVG/1.1/DTD/svg11.dtd">
<svg width="1134pt" height="393pt" viewBox="0 0 1134 393" version="1.1" xmlns="http://www.w3.org/2000/svg">
<g id="#000000fc">
<path fill="#000000" opacity="1.00" d=" M 9.17 14.38 C 11.38 13.70 13.68 13.43 15.99 13.46 C 27.31 13.50 38.63 13.50 49.95 13.48 C 57.02 13.33 64.07 14.60 71.12 13.62 C 81.74 13.44 92.38 13.20 102.97 13.99 C 113.25 14.09 123.55 12.96 133.82 13.73 C 145.22 14.60 156.62 13.49 168.01 13.47 C 186.66 14.50 205.37 13.79 224.04 14.00 C 232.39 14.30 240.70 12.91 249.04 13.67 C 260.02 14.72 271.00 13.16 281.98 13.49 C 288.36 13.34 294.72 13.60 301.08 13.98 C 310.36 13.25 319.67 13.47 328.96 13.55 C 586.63 13.39 844.35 13.59 1102.02 13.44 C 1108.66 12.71 1115.31 13.76 1121.97 13.49 C 1121.99 14.00 1122.01 15.00 1122.03 15.50 C 1095.00 15.51 1067.97 15.52 1040.95 15.49 C 1039.69 15.53 1038.44 15.57 1037.29 16.06 C 1036.71 22.04 1036.93 28.08 1037.29 34.07 C 1036.92 40.70 1038.03 47.34 1037.12 53.96 C 1037.55 61.76 1037.54 69.57 1037.55 77.39 C 1065.69 77.63 1093.85 77.42 1122.00 77.49 L 1122.00 79.00 C 1093.89 79.01 1065.77 78.97 1037.66 79.02 C 1037.13 100.35 1037.86 121.70 1037.25 143.03 C 1037.94 160.33 1037.13 177.66 1037.64 194.97 C 1057.11 195.03 1076.58 194.98 1096.05 195.00 C 1104.99 195.20 1113.96 194.54 1122.87 195.39 C 1115.20 198.01 1106.92 195.59 1099.02 196.38 C 1078.52 196.63 1058.01 196.43 1037.51 196.52 C 1037.51 213.33 1037.50 230.15 1037.51 246.96 C 1038.51 259.96 1036.62 273.01 1037.87 286.03 C 1037.23 298.95 1037.39 311.92 1037.92 324.85 C 1038.21 336.61 1037.74 348.38 1038.15 360.14 C 1038.83 366.14 1038.23 372.18 1038.65 378.19 C 1053.73 379.09 1068.90 377.90 1084.00 378.82 C 1096.00 378.13 1108.03 378.70 1120.05 378.51 C 1121.24 378.18 1125.87 379.09 1122.91 380.77 C 1114.29 381.35 1105.61 380.82 1096.98 381.00 C 1039.65 381.01 982.34 380.96 925.02 381.00 C 913.01 380.88 900.98 381.33 888.99 380.62 C 878.69 381.31 868.35 380.93 858.03 380.96 C 851.01 380.08 844.00 381.27 836.96 381.01 C 818.30 380.87 799.66 380.99 780.99 380.99 C 767.98 380.15 754.95 381.48 741.93 380.87 C 736.80 380.86 731.68 380.44 726.56 380.58 C 714.70 381.47 702.83 380.83 690.98 380.49 C 674.68 381.79 658.33 380.15 642.03 381.01 C 632.68 380.91 623.32 381.32 614.00 380.54 C 601.72 381.14 589.37 381.29 577.08 380.64 C 564.40 381.12 551.67 381.32 539.00 380.58 C 521.36 381.46 503.67 380.80 486.00 381.00 C 465.00 380.95 444.00 381.10 423.00 380.93 C 412.33 379.73 401.65 381.57 390.96 380.97 C 384.00 380.40 376.99 380.26 370.03 380.93 C 354.03 381.46 338.02 379.59 322.04 380.99 C 310.05 380.18 298.03 380.57 286.03 380.55 C 211.70 380.45 137.37 380.53 63.04 380.51 C 52.44 380.47 41.83 380.64 31.23 380.27 C 25.81 379.78 20.40 380.95 14.98 380.46 C 13.41 380.54 12.34 379.21 11.13 378.45 C 15.42 377.78 19.77 378.01 24.09 378.00 C 43.06 378.00 62.03 378.00 81.00 378.00 C 81.34 369.32 80.38 360.67 80.49 351.99 C 80.84 345.99 79.60 340.02 80.31 334.04 C 81.00 326.02 79.57 318.03 80.00 310.00 C 80.27 302.66 79.22 295.35 79.48 288.00 C 58.33 288.02 37.18 287.96 16.03 288.04 C 13.96 288.08 11.89 287.81 9.98 286.96 C 12.31 286.60 14.67 286.46 17.03 286.46 C 35.02 286.53 53.02 286.46 71.02 286.51 C 73.85 286.53 76.68 286.43 79.49 286.12 C 79.53 273.39 79.42 260.67 79.53 247.94 C 80.09 240.64 80.28 233.30 79.60 226.01 C 79.27 216.32 79.73 206.61 79.35 196.92 C 76.24 196.57 73.11 196.39 69.98 196.53 C 59.35 197.30 48.64 197.19 38.00 196.51 C 29.23 196.39 20.48 197.32 11.71 197.00 C 11.52 196.52 11.14 195.55 10.96 195.06 C 78.12 194.87 145.28 195.14 212.42 195.00 C 207.30 191.18 201.81 187.89 196.42 184.46 C 188.10 179.65 180.39 173.85 172.09 168.99 C 163.55 163.96 155.50 158.16 147.06 152.98 C 110.45 130.05 74.47 106.13 38.08 82.88 C 29.89 76.92 21.03 71.98 12.61 66.36 C 11.08 65.44 10.02 63.97 8.97 62.56 C 14.83 64.73 19.50 69.05 24.93 72.02 C 76.49 105.52 128.04 139.05 180.05 171.86 C 190.96 179.20 202.26 185.96 213.42 192.91 C 205.90 177.57 197.42 162.71 189.49 147.58 C 166.54 104.73 144.43 61.44 121.34 18.66 C 120.60 16.98 118.99 15.77 117.09 16.02 C 83.04 15.99 48.99 15.99 14.94 16.02 C 12.86 16.20 10.92 15.41 9.17 14.38 M 856.63 15.68 C 831.63 15.36 806.60 15.54 781.59 15.55 C 781.23 36.17 781.60 56.79 781.55 77.41 C 790.51 77.67 799.48 77.27 808.44 77.64 C 823.63 77.44 838.84 77.35 854.03 77.75 C 868.02 77.18 882.04 77.64 896.05 77.50 C 899.89 77.32 903.88 78.04 907.64 76.97 C 908.44 71.34 907.42 65.67 907.96 60.02 C 907.74 46.64 907.14 33.25 907.71 19.86 C 907.53 18.38 908.37 15.69 906.06 15.69 C 900.38 15.18 894.67 15.71 888.98 15.65 C 878.20 15.54 867.41 15.31 856.63 15.68 M 122.41 16.22 C 138.37 46.91 154.68 77.43 170.74 108.07 C 182.59 131.41 195.24 154.34 207.57 177.43 C 210.34 182.15 212.40 187.31 215.75 191.67 C 215.95 183.44 215.08 175.22 216.00 167.01 C 215.13 140.01 215.46 112.96 215.94 85.97 C 215.29 78.66 215.52 71.32 215.49 63.99 C 215.49 48.18 215.49 32.37 215.50 16.56 C 205.04 15.45 194.50 16.23 184.01 16.00 C 163.48 16.32 142.94 15.62 122.41 16.22 M 217.63 16.03 C 217.20 18.36 216.89 20.73 217.09 23.10 C 217.84 31.03 217.58 39.01 217.06 46.94 C 217.18 56.54 217.99 66.14 217.26 75.73 C 217.40 76.26 217.70 77.33 217.85 77.86 C 251.05 78.16 284.26 77.95 317.46 77.97 C 317.83 75.64 318.02 73.28 318.01 70.92 C 318.15 54.98 316.78 39.03 317.89 23.09 C 317.99 20.77 317.62 18.46 317.34 16.16 C 284.11 15.84 250.86 16.05 217.63 16.03 M 319.50 16.60 C 319.60 37.06 319.33 57.52 319.64 77.97 C 353.22 78.02 386.79 78.02 420.37 77.97 C 420.33 63.64 420.65 49.31 420.39 34.97 C 419.60 28.67 420.34 22.36 420.32 16.06 C 389.90 15.92 359.48 16.05 329.06 15.99 C 325.86 15.94 322.68 16.25 319.50 16.60 M 422.11 16.78 C 422.60 25.23 421.49 33.70 422.19 42.15 C 423.29 54.06 421.40 65.98 422.09 77.91 C 464.14 78.11 506.20 77.95 548.25 77.99 C 549.99 65.70 548.15 53.35 548.49 41.02 C 548.26 32.69 549.37 24.35 548.28 16.05 C 507.85 15.90 467.41 16.08 426.98 15.97 C 425.36 16.12 423.47 15.68 422.11 16.78 M 550.64 16.03 C 550.42 36.67 550.42 57.33 550.64 77.97 C 592.81 77.96 634.97 78.20 677.11 77.47 C 676.85 57.05 677.12 36.63 676.95 16.21 C 671.02 15.20 665.03 15.69 659.07 15.94 C 647.37 15.51 635.64 15.57 623.94 16.01 C 599.52 15.83 575.08 15.93 550.64 16.03 M 678.59 15.90 C 679.61 27.26 678.29 38.65 678.98 50.02 C 679.53 59.20 677.67 68.37 678.95 77.52 C 688.29 78.07 697.68 77.83 707.04 77.47 C 712.04 77.28 717.02 78.16 722.03 77.75 C 725.64 77.46 729.26 77.49 732.88 77.76 C 745.91 77.52 758.97 77.30 772.00 77.77 C 774.46 77.56 776.93 77.48 779.41 77.41 C 780.57 69.79 779.33 62.11 779.72 54.46 C 779.22 45.63 779.60 36.79 779.50 27.96 C 779.37 23.99 779.94 19.93 778.98 16.03 C 768.74 14.73 758.30 15.96 747.99 15.55 C 738.34 16.29 728.68 15.12 719.03 15.58 C 705.56 16.48 692.07 14.90 678.59 15.90 M 909.52 15.84 C 909.44 36.36 909.50 56.90 909.57 77.43 C 951.52 77.53 993.48 77.54 1035.43 77.42 C 1035.46 56.85 1035.68 36.26 1035.32 15.68 C 1014.55 15.28 993.77 15.62 973.00 15.51 C 951.84 15.66 930.67 15.16 909.52 15.84 M 781.51 79.51 C 781.51 117.92 781.49 156.33 781.53 194.75 C 792.34 195.28 803.18 194.87 814.00 195.00 C 845.30 194.94 876.61 195.11 907.91 194.91 C 907.97 177.70 908.27 160.46 907.66 143.27 C 908.28 132.26 908.06 121.20 907.68 110.19 C 908.03 100.02 908.32 89.80 907.65 79.63 C 898.80 78.39 889.90 79.68 881.02 79.52 C 847.85 79.36 814.69 79.53 781.51 79.51 M 909.51 79.56 C 909.58 106.37 909.47 133.18 909.51 159.99 C 909.22 169.33 910.49 178.64 909.52 187.98 C 909.83 190.24 908.19 194.98 911.82 194.93 C 951.54 195.12 991.27 194.91 1030.99 195.03 C 1032.62 194.91 1034.49 195.25 1035.93 194.23 C 1035.26 183.84 1036.47 173.42 1035.96 163.00 C 1035.14 153.02 1035.61 143.00 1035.49 133.00 C 1035.83 122.98 1035.22 112.96 1035.58 102.94 C 1035.86 94.97 1036.39 86.94 1035.25 79.01 C 1022.50 79.01 1009.75 78.97 997.00 79.03 C 988.66 79.65 980.29 79.55 971.97 79.03 C 959.98 78.64 947.99 80.31 936.02 79.08 C 927.18 78.87 918.35 79.46 909.51 79.56 M 217.51 79.52 C 217.55 118.04 217.33 156.56 217.65 195.08 C 220.10 195.01 222.54 194.91 224.99 194.72 C 240.64 195.53 256.32 195.35 271.99 194.98 C 287.30 195.08 302.61 195.03 317.91 194.91 C 318.11 170.93 317.94 146.94 318.00 122.96 C 318.02 119.60 318.03 116.24 317.68 112.90 C 318.28 102.58 317.97 92.22 317.92 81.89 C 318.01 79.10 314.74 79.63 312.87 79.53 C 290.22 79.49 267.59 79.59 244.94 79.52 C 235.81 80.41 226.67 79.09 217.51 79.52 M 319.52 79.78 C 319.71 108.19 319.36 136.60 319.54 165.02 C 319.59 175.00 320.40 184.97 319.68 194.95 C 353.25 195.07 386.82 194.96 420.39 195.00 C 420.70 191.61 421.17 188.21 420.85 184.81 C 419.87 172.57 421.07 160.29 420.51 148.04 C 420.45 125.27 420.54 102.49 420.47 79.72 C 399.64 79.25 378.79 79.58 357.97 79.59 C 345.15 79.20 332.33 79.86 319.52 79.78 M 422.50 79.90 C 422.48 97.60 422.57 115.31 422.47 133.01 C 422.02 138.70 421.72 144.42 422.38 150.11 C 422.86 165.06 422.07 180.03 422.78 194.97 C 464.82 194.99 506.87 195.09 548.91 194.91 C 549.02 180.80 549.12 166.68 548.86 152.57 C 549.10 144.70 549.01 136.83 548.95 128.96 C 548.45 121.68 548.23 114.37 548.91 107.10 C 549.05 97.92 549.17 88.72 548.63 79.56 C 520.06 79.63 491.47 79.19 462.92 79.91 C 453.61 79.08 444.25 79.70 434.93 79.58 C 430.78 79.41 426.63 79.50 422.50 79.90 M 550.56 79.59 C 550.69 115.09 550.14 150.62 550.86 186.11 C 550.86 188.92 549.79 192.05 551.11 194.65 C 561.37 195.46 571.72 194.77 582.02 195.00 C 613.71 194.91 645.40 195.17 677.09 194.86 C 678.04 187.60 676.87 180.30 677.46 173.03 C 676.89 162.68 678.15 152.31 677.05 141.97 C 676.91 121.20 677.07 100.42 676.97 79.64 C 634.84 79.39 592.69 79.49 550.56 79.59 M 679.03 79.64 C 678.97 96.76 679.00 113.88 679.01 131.00 C 679.29 139.31 677.82 147.61 678.86 155.90 C 679.24 168.90 678.80 181.91 679.09 194.91 C 711.40 195.12 743.71 194.92 776.03 195.02 C 777.52 195.08 780.01 195.10 779.93 192.99 C 780.12 183.99 779.92 174.99 780.01 166.00 C 780.17 159.68 779.02 153.37 779.88 147.07 C 779.65 140.34 780.15 133.61 779.87 126.88 C 778.95 111.10 780.99 95.27 779.37 79.50 C 745.92 79.61 712.47 79.33 679.03 79.64 M 679.03 196.64 C 678.99 215.77 678.98 234.89 679.03 254.02 C 680.02 264.74 678.56 275.48 679.04 286.22 C 687.36 286.79 695.71 286.31 704.04 286.49 C 729.34 286.32 754.66 286.84 779.95 286.23 C 780.11 279.46 779.89 272.69 780.44 265.94 C 779.67 255.63 780.58 245.30 780.43 234.98 C 779.45 222.20 780.40 209.38 779.83 196.59 C 746.22 196.54 712.62 196.29 679.03 196.64 M 874.08 196.51 C 843.25 196.54 812.42 196.44 781.58 196.56 C 781.52 212.37 781.44 228.19 781.59 244.01 C 783.11 257.99 780.37 272.03 782.06 286.00 C 782.36 292.04 781.18 298.04 781.60 304.09 C 782.61 316.01 781.38 328.01 782.45 339.94 C 782.64 352.80 782.25 365.68 783.11 378.53 C 825.12 378.45 867.13 378.50 909.14 378.50 C 909.87 372.01 908.60 365.52 908.99 359.01 C 909.36 349.32 908.25 339.68 908.49 329.99 C 908.39 315.99 908.85 301.98 907.92 288.00 C 895.96 287.61 884.01 287.86 872.06 287.82 C 866.98 288.09 861.89 288.16 856.84 287.70 C 850.08 287.09 843.32 288.00 836.56 287.91 C 826.16 288.56 815.79 287.13 805.40 287.64 C 799.24 288.06 793.07 288.17 786.91 287.93 C 785.44 288.05 784.33 287.07 783.20 286.35 C 824.75 286.58 866.36 286.57 907.93 286.37 C 908.83 266.94 908.43 247.48 908.46 228.03 C 907.72 217.58 908.10 207.10 907.97 196.64 C 901.98 196.33 895.98 196.77 890.00 196.23 C 884.71 196.70 879.39 196.46 874.08 196.51 M 81.11 196.96 C 80.55 206.65 82.19 216.31 81.00 225.98 C 81.60 240.31 81.62 254.66 81.45 269.01 C 80.91 274.81 81.62 280.61 81.59 286.42 C 126.39 286.50 171.18 286.62 215.97 286.36 C 216.04 277.92 215.82 269.47 216.41 261.03 C 215.61 239.73 216.15 218.39 215.91 197.08 C 204.28 197.18 192.65 196.17 181.04 197.00 C 157.72 196.93 134.40 197.22 111.09 196.70 C 101.10 197.43 91.09 196.69 81.11 196.96 M 217.50 197.04 C 217.54 208.70 217.46 220.36 217.53 232.02 C 218.34 243.51 218.09 255.06 217.57 266.56 C 218.14 273.20 217.19 279.85 217.94 286.49 C 251.28 286.51 284.61 286.47 317.94 286.50 C 317.96 283.33 318.14 280.17 318.21 277.00 C 317.71 268.69 319.11 260.39 318.24 252.08 C 318.37 244.72 318.69 237.36 318.43 229.99 C 317.58 219.01 318.18 207.97 317.99 196.97 C 308.26 196.39 298.55 197.19 288.80 196.97 C 279.56 197.13 270.34 196.50 261.11 196.80 C 250.03 197.50 238.93 196.41 227.86 197.07 C 228.49 198.02 229.13 198.97 229.78 199.92 C 228.79 200.93 227.81 201.95 226.83 202.97 C 225.93 200.73 224.85 198.54 222.99 196.93 C 221.16 196.98 219.33 197.01 217.50 197.04 M 319.51 197.00 C 319.13 204.01 320.21 210.99 319.82 217.99 C 320.05 221.34 319.63 224.67 319.52 228.01 C 320.48 247.43 319.77 266.91 320.03 286.36 C 353.65 286.59 387.28 286.56 420.91 286.38 C 420.41 279.58 421.13 272.80 421.00 266.00 C 420.97 249.34 421.05 232.68 420.96 216.02 C 420.59 209.70 420.37 203.36 420.49 197.02 C 413.34 195.70 406.12 197.47 398.95 196.60 C 389.99 196.35 381.01 196.49 372.05 196.91 C 360.68 197.01 349.32 196.03 337.96 196.69 C 331.82 197.26 325.66 196.92 319.51 197.00 M 422.57 196.57 C 422.48 215.72 422.44 234.88 422.58 254.03 C 423.60 264.82 422.04 275.60 422.56 286.41 C 448.69 286.60 474.83 286.44 500.97 286.49 C 516.96 286.32 532.98 286.84 548.97 286.22 C 549.11 279.49 548.71 272.74 549.40 266.03 C 549.93 259.98 548.53 253.96 549.12 247.91 C 549.76 240.98 549.60 233.99 549.05 227.06 C 548.90 216.92 549.08 206.78 548.97 196.64 C 506.84 196.38 464.70 196.52 422.57 196.57 M 551.05 196.80 C 550.29 199.76 550.50 202.86 550.73 205.87 C 551.74 215.51 549.75 225.16 550.85 234.81 C 551.06 247.53 551.21 260.29 550.75 273.00 C 551.11 277.40 550.98 281.81 551.03 286.22 C 564.00 286.83 577.01 286.33 589.99 286.49 C 618.33 286.49 646.69 286.53 675.02 286.39 C 675.56 286.28 676.64 286.06 677.18 285.96 C 678.03 274.35 677.03 262.66 677.72 251.03 C 676.92 232.87 678.25 214.64 676.98 196.51 C 646.98 196.50 616.97 196.51 586.97 196.51 C 575.00 196.71 562.99 196.10 551.05 196.80 M 909.54 196.72 C 909.23 205.14 910.03 213.55 909.54 221.97 C 909.17 231.99 910.39 241.98 910.00 252.02 C 910.34 263.44 909.33 274.85 910.12 286.25 C 913.41 286.51 916.72 286.52 920.03 286.50 C 958.68 286.41 997.33 286.64 1035.97 286.36 C 1036.06 256.45 1035.94 226.54 1035.97 196.64 C 1011.97 196.33 987.96 196.59 963.96 196.51 C 945.82 196.64 927.67 196.23 909.54 196.72 M 81.52 288.00 C 81.29 297.85 81.42 307.68 81.61 317.53 C 82.04 327.69 81.98 337.86 82.09 348.03 C 83.12 358.00 81.85 368.04 82.96 377.99 C 108.66 378.03 134.36 377.94 160.05 378.04 C 169.37 378.75 178.69 378.04 188.02 378.21 C 197.68 377.75 207.33 379.04 217.00 378.35 C 216.85 363.26 217.42 348.14 216.49 333.06 C 216.62 318.04 216.24 303.02 215.96 288.00 C 171.15 288.00 126.34 288.00 81.52 288.00 M 217.97 288.00 C 217.26 293.60 217.37 299.28 217.86 304.89 C 218.29 311.96 217.70 319.06 218.19 326.14 C 218.64 330.92 218.64 335.75 218.30 340.55 C 218.91 350.33 218.01 360.15 218.89 369.92 C 219.05 372.68 219.01 375.45 219.05 378.22 C 225.40 378.81 231.78 378.34 238.14 378.27 C 248.96 378.52 259.78 378.67 270.59 378.33 C 286.88 378.45 303.18 378.74 319.46 378.28 C 319.50 371.86 319.67 365.43 319.07 359.04 C 318.80 348.00 319.21 336.95 318.88 325.91 C 318.00 316.61 318.87 307.25 318.32 297.94 C 318.02 294.65 317.96 291.36 317.87 288.07 C 284.57 287.91 251.27 288.04 217.97 288.00 M 320.10 288.08 C 319.87 299.40 320.02 310.72 320.04 322.04 C 320.96 331.69 320.16 341.39 320.69 351.05 C 321.60 360.16 320.30 369.36 321.50 378.45 C 354.99 378.46 388.48 378.64 421.97 378.36 C 421.97 372.87 422.10 367.38 421.91 361.90 C 420.99 351.63 421.86 341.30 421.33 331.02 C 421.01 326.69 421.74 322.37 421.42 318.04 C 420.59 308.05 421.16 298.01 421.00 288.00 C 387.37 288.05 353.73 287.90 320.10 288.08 M 422.64 288.03 C 422.41 296.70 422.47 305.38 422.57 314.05 C 423.56 324.35 422.45 334.72 423.43 345.02 C 423.48 356.14 423.78 367.26 423.51 378.39 C 465.85 378.55 508.19 378.58 550.53 378.37 C 550.15 369.25 549.82 360.13 550.00 351.00 C 549.62 345.00 549.25 339.00 549.87 333.00 C 549.13 323.01 549.74 312.98 549.38 302.98 C 548.90 298.00 548.96 292.99 549.00 288.00 C 506.88 288.02 464.76 287.97 422.64 288.03 M 551.09 288.09 C 550.93 301.73 550.99 315.38 551.04 329.03 C 552.02 338.97 550.99 348.98 551.92 358.93 C 552.14 365.35 551.91 371.79 552.03 378.22 C 564.01 378.82 576.02 378.33 588.01 378.49 C 618.17 378.49 648.33 378.50 678.49 378.49 C 678.57 358.62 678.05 338.82 677.94 318.95 C 677.09 308.66 677.65 298.32 677.49 288.01 C 674.29 288.01 671.09 288.06 667.90 287.88 C 659.95 287.21 652.00 288.35 644.03 288.00 C 633.37 288.33 622.74 287.10 612.09 287.93 C 591.75 288.17 571.43 287.69 551.09 288.09 M 679.00 288.03 C 678.99 291.49 678.98 294.95 679.11 298.41 C 679.24 304.29 679.45 310.17 679.10 316.05 C 679.84 324.68 679.35 333.35 679.53 342.00 C 680.44 354.10 679.80 366.24 680.03 378.36 C 713.71 378.57 747.41 378.60 781.09 378.35 C 780.87 368.24 781.34 358.11 780.53 348.03 C 780.20 341.35 781.04 334.68 780.52 328.01 C 780.65 314.65 779.80 301.31 779.99 287.95 C 772.00 287.49 764.02 288.21 756.03 288.01 C 745.32 288.29 734.61 286.83 723.93 287.95 C 716.31 287.99 708.66 288.26 701.06 287.62 C 693.70 287.41 686.35 288.08 679.00 288.03 M 910.08 288.00 C 910.01 293.67 909.18 299.33 909.55 305.01 C 910.65 317.31 909.38 329.69 910.37 342.00 C 910.75 354.15 909.93 366.37 911.06 378.50 C 953.03 378.39 995.00 378.67 1036.97 378.36 C 1037.06 368.57 1036.70 358.79 1036.48 349.00 C 1036.40 341.00 1036.80 332.98 1036.07 325.01 C 1035.86 312.60 1036.10 300.19 1035.97 287.78 C 1018.98 287.14 1001.96 287.59 984.98 287.95 C 976.33 287.27 967.63 287.31 958.98 287.98 C 954.27 287.98 949.57 287.62 944.87 287.78 C 933.27 286.87 921.68 288.28 910.08 288.00 Z" />
<path fill="#000000" opacity="1.00" d=" M 965.15 32.60 C 965.75 32.70 966.94 32.90 967.54 32.99 C 967.50 34.38 967.48 35.76 967.47 37.15 C 969.31 36.94 971.01 37.29 972.57 38.20 C 970.85 38.70 969.12 39.10 967.38 39.42 C 967.48 40.94 967.58 42.46 967.72 43.98 C 972.16 42.86 976.72 43.32 981.24 43.28 C 981.04 40.84 980.75 38.39 979.87 36.09 C 980.98 36.02 982.10 35.96 983.24 35.91 C 983.04 39.02 982.98 42.14 982.97 45.25 C 980.50 44.83 978.03 44.54 975.55 44.38 C 975.48 47.28 975.52 50.18 975.78 53.06 C 977.82 53.00 979.86 52.93 981.92 52.82 C 982.60 51.51 983.31 50.20 984.05 48.91 C 984.39 50.74 984.72 52.61 984.65 54.48 C 981.14 55.47 977.44 55.14 973.95 54.33 C 973.65 53.04 973.36 51.76 973.09 50.47 C 971.15 50.64 969.21 50.77 967.28 50.88 C 967.76 52.86 966.88 55.82 969.23 56.79 C 974.64 58.30 980.36 56.96 985.89 57.78 C 983.44 60.01 980.05 59.52 977.03 59.57 C 974.11 59.50 971.09 59.75 968.34 58.64 C 966.23 57.69 964.55 56.08 962.74 54.70 C 961.62 56.34 960.41 57.94 959.19 59.49 C 959.80 55.66 960.50 51.85 961.31 48.06 C 961.78 47.57 962.72 46.58 963.19 46.09 C 963.16 49.08 962.84 52.24 965.09 54.60 C 965.17 51.54 965.19 48.47 965.19 45.40 C 962.93 45.10 960.65 44.83 958.45 44.28 C 960.66 44.01 962.94 43.94 965.19 43.84 C 965.20 42.29 965.21 40.74 965.20 39.18 C 963.49 39.05 961.79 38.90 960.11 38.72 C 961.72 38.13 963.37 37.62 965.03 37.13 C 965.16 35.64 965.05 34.11 965.15 32.60 M 967.67 45.02 C 967.65 46.41 967.69 47.81 967.78 49.20 C 969.63 49.32 971.50 49.27 973.38 49.32 C 973.24 47.88 973.11 46.44 972.97 45.00 C 971.20 45.00 969.42 45.01 967.67 45.02 Z" />
<path fill="#000000" opacity="1.00" d=" M 1086.27 34.47 C 1087.24 34.05 1088.23 33.63 1089.23 33.21 C 1089.82 33.79 1090.43 34.38 1091.04 34.97 C 1088.67 35.15 1086.30 35.26 1083.96 35.58 C 1083.99 37.97 1083.85 40.38 1084.19 42.76 C 1085.50 45.35 1088.85 43.37 1091.05 43.15 C 1091.30 43.59 1091.80 44.49 1092.05 44.93 C 1089.48 45.33 1086.22 44.13 1084.12 45.92 C 1083.31 50.54 1085.41 55.49 1083.03 59.81 C 1081.23 55.10 1082.24 50.00 1081.93 45.10 C 1079.90 45.04 1077.87 45.00 1075.87 44.97 C 1075.04 50.48 1073.15 56.65 1067.47 58.90 C 1069.29 55.67 1071.94 52.80 1072.84 49.12 C 1072.81 47.82 1073.89 45.54 1071.94 45.27 C 1070.30 44.95 1068.63 44.96 1067.00 44.84 L 1067.00 44.00 C 1068.96 43.99 1070.93 43.95 1072.91 43.90 C 1072.97 41.23 1072.99 38.56 1073.01 35.89 C 1071.47 35.37 1069.95 34.82 1068.46 34.22 C 1074.38 33.99 1080.36 33.67 1086.27 34.47 M 1075.79 34.18 C 1075.50 37.43 1075.47 40.70 1075.60 43.96 C 1077.72 43.99 1079.85 44.00 1081.99 44.01 C 1081.99 41.21 1081.99 38.41 1082.02 35.61 C 1079.98 34.97 1077.89 34.52 1075.79 34.18 Z" />
<path fill="#000000" opacity="1.00" d=" M 264.92 34.20 C 265.65 34.15 267.09 34.05 267.82 34.00 C 267.72 37.35 267.77 40.70 267.84 44.05 C 269.16 44.00 270.49 43.94 271.81 43.88 C 272.84 43.39 273.88 42.94 274.95 42.54 C 275.53 43.09 276.68 44.20 277.26 44.76 C 274.13 45.01 271.00 45.03 267.87 45.04 C 267.90 49.38 267.38 53.75 268.10 58.06 C 272.71 58.78 277.48 56.06 281.81 58.20 C 276.65 59.69 271.24 58.78 265.96 59.00 C 261.78 58.85 257.51 59.55 253.41 58.51 C 257.38 57.79 261.43 58.04 265.44 57.77 C 265.45 49.91 265.82 42.03 264.92 34.20 Z" />
<path fill="#000000" opacity="1.00" d=" M 379.58 34.37 C 380.99 33.82 382.06 35.01 383.19 35.64 C 379.03 36.17 374.83 35.97 370.64 36.06 C 370.62 37.67 370.55 39.29 370.80 40.89 C 374.32 42.84 379.53 44.41 379.05 49.48 C 376.42 47.63 374.28 45.18 371.68 43.29 C 371.44 43.50 370.95 43.93 370.71 44.15 C 370.04 48.94 371.01 53.84 370.26 58.62 C 369.94 59.00 369.32 59.78 369.01 60.16 C 367.90 52.19 368.88 44.06 367.81 36.05 C 364.01 35.99 360.19 36.22 356.41 35.66 C 364.02 33.97 371.93 35.96 379.58 34.37 Z" />
<path fill="#000000" opacity="1.00" d=" M 484.19 33.63 C 484.86 33.63 486.20 33.64 486.87 33.65 C 486.88 35.72 486.36 37.99 487.74 39.79 C 491.67 39.73 490.13 34.93 491.04 32.48 C 492.69 34.17 492.85 36.46 492.94 38.68 C 494.62 38.97 496.30 39.28 497.97 39.68 C 496.23 40.11 494.48 40.49 492.73 40.83 C 492.64 42.50 492.57 44.16 492.53 45.82 C 494.79 45.82 497.04 45.81 499.30 46.02 C 497.25 47.31 494.86 47.55 492.55 47.92 C 492.61 51.16 492.81 54.47 491.77 57.60 C 494.36 57.51 496.97 57.53 499.56 57.83 C 496.46 59.97 492.58 59.58 489.02 59.97 C 484.93 60.34 480.99 58.90 477.42 57.06 C 475.70 57.91 473.94 58.73 472.17 59.46 C 472.40 57.14 474.27 55.88 475.99 54.66 C 476.00 52.08 476.00 49.51 476.00 46.94 C 475.25 46.93 473.76 46.93 473.02 46.93 C 472.82 46.60 472.41 45.94 472.21 45.61 C 474.37 45.39 476.51 45.03 478.70 44.98 C 478.65 48.77 478.39 52.56 478.70 56.34 C 481.54 54.23 483.57 51.27 484.42 47.82 C 482.94 47.67 481.47 47.53 480.00 47.40 C 480.00 47.19 479.99 46.78 479.99 46.57 C 481.32 46.40 482.64 46.16 483.96 45.85 C 484.37 44.23 484.52 42.56 484.73 40.91 C 483.06 40.55 481.38 40.35 479.71 40.00 C 481.28 39.67 482.86 39.34 484.44 39.02 C 484.39 37.22 484.29 35.42 484.19 33.63 M 487.24 40.98 C 486.81 42.59 486.60 44.25 486.42 45.91 C 487.41 45.93 489.37 45.98 490.36 46.00 C 490.41 44.09 490.43 42.17 490.43 40.26 C 489.63 40.44 488.04 40.80 487.24 40.98 M 480.83 56.89 C 484.49 57.11 488.75 58.64 491.89 56.01 L 490.49 55.97 C 490.49 53.22 490.49 50.48 490.48 47.73 C 489.64 47.65 487.98 47.49 487.15 47.40 C 486.04 51.16 483.81 54.37 480.83 56.89 Z" />
<path fill="#000000" opacity="1.00" d=" M 612.53 33.35 C 613.12 33.46 614.30 33.68 614.89 33.79 C 614.46 37.42 614.43 41.07 614.67 44.71 C 616.89 44.84 619.12 44.91 621.36 44.97 C 621.46 42.31 621.49 39.65 621.52 36.99 C 622.10 37.01 623.27 37.06 623.85 37.08 C 623.65 40.47 623.89 43.85 623.96 47.24 C 621.06 46.49 618.13 45.91 615.13 45.84 C 614.96 49.57 614.96 53.32 615.13 57.06 C 617.59 57.00 620.05 56.91 622.52 56.73 C 622.48 54.13 622.40 51.53 622.26 48.93 C 622.94 49.00 624.30 49.14 624.98 49.21 C 625.05 52.82 625.16 56.48 624.32 60.02 C 623.64 59.52 622.26 58.51 621.58 58.01 C 615.15 58.06 608.70 57.76 602.30 58.46 C 602.45 55.02 602.49 51.58 602.86 48.16 C 606.31 49.62 604.20 53.52 604.46 56.28 C 607.08 56.67 609.71 56.97 612.36 57.18 C 612.53 53.61 612.52 50.02 612.27 46.45 C 609.18 46.48 606.09 46.65 603.01 46.90 C 603.29 43.35 603.43 39.80 603.53 36.25 C 606.97 37.58 605.20 41.51 605.57 44.28 C 607.77 44.57 609.97 44.88 612.19 45.15 C 612.57 41.23 612.49 37.28 612.53 33.35 Z" />
<path fill="#000000" opacity="1.00" d=" M 717.59 34.02 C 725.04 35.57 732.97 35.57 740.40 33.86 C 740.80 39.26 739.83 44.63 740.01 50.03 C 740.05 53.24 740.39 56.51 739.46 59.64 C 738.65 58.43 737.85 57.22 737.08 56.00 C 731.66 56.04 726.24 55.91 720.83 56.05 C 719.80 57.15 718.76 58.24 717.71 59.32 C 717.24 50.89 717.58 42.45 717.59 34.02 M 720.08 36.09 C 720.02 42.34 719.96 48.58 719.75 54.81 C 725.43 55.10 731.15 55.24 736.83 54.82 C 737.08 54.57 737.59 54.06 737.84 53.81 C 738.23 47.92 737.94 41.99 737.91 36.09 C 731.97 35.96 726.02 35.96 720.08 36.09 Z" />
<path fill="#000000" opacity="1.00" d=" M 849.77 32.55 C 852.43 34.01 852.00 36.99 852.12 39.54 C 853.48 39.63 854.84 39.76 856.21 39.93 C 855.83 41.89 853.14 41.35 851.78 42.10 C 851.36 46.46 851.63 50.83 851.56 55.20 C 850.89 55.62 849.54 56.46 848.86 56.88 C 847.78 55.95 846.72 55.02 845.66 54.08 C 846.58 54.04 848.42 53.97 849.34 53.93 C 849.38 49.85 849.50 45.77 849.50 41.69 C 846.11 41.05 842.65 40.83 839.25 41.49 C 839.15 41.22 838.93 40.67 838.82 40.40 C 842.36 40.56 845.90 40.45 849.43 40.00 C 849.48 37.51 849.56 35.03 849.77 32.55 Z" />
<path fill="#000000" opacity="1.00" d=" M 473.58 34.45 C 475.72 35.36 478.17 36.36 478.76 38.87 C 475.86 39.66 475.02 36.18 473.58 34.45 Z" />
<path fill="#000000" opacity="1.00" d=" M 833.35 34.48 C 835.79 35.09 839.41 36.22 837.68 39.55 C 835.89 38.18 834.58 36.32 833.35 34.48 Z" />
<path fill="#000000" opacity="1.00" d=" M 184.07 36.91 C 185.68 36.48 187.29 36.07 188.92 35.71 C 188.83 38.19 188.55 40.66 188.59 43.15 C 190.98 43.53 193.94 42.29 195.89 44.21 C 199.06 47.84 198.24 54.60 193.69 56.73 C 191.26 58.21 188.25 57.11 185.92 55.97 C 184.71 49.69 186.54 43.03 184.07 36.91 M 190.16 45.90 C 188.14 48.48 187.19 54.38 191.11 55.60 C 196.18 54.71 195.65 45.24 190.16 45.90 Z" />
<path fill="#000000" opacity="1.00" d=" M 723.80 39.16 C 726.90 41.27 725.14 45.32 725.67 48.42 C 727.64 48.31 729.83 48.86 731.67 47.90 C 732.01 45.96 732.02 43.97 732.14 42.01 C 731.12 41.48 730.12 40.95 729.11 40.44 C 730.89 40.27 732.67 40.08 734.46 39.91 C 734.35 43.67 733.97 47.41 733.95 51.17 C 731.64 50.12 729.21 49.41 726.67 49.29 C 725.56 50.43 724.43 51.53 723.28 52.61 C 723.02 48.12 723.30 43.63 723.80 39.16 Z" />
<path fill="#000000" opacity="1.00" d=" M 841.48 43.87 C 843.05 44.80 844.77 45.60 846.00 47.00 C 845.84 48.22 845.55 49.43 845.28 50.63 C 843.91 48.43 842.61 46.20 841.48 43.87 Z" />
<path fill="#000000" opacity="1.00" d=" M 831.99 45.70 C 833.91 45.38 835.81 45.02 837.75 44.69 C 837.76 46.28 837.90 47.88 837.88 49.48 C 837.97 51.64 838.03 53.80 838.15 55.96 C 844.67 58.51 851.72 56.92 858.49 57.85 C 857.03 58.47 855.69 59.52 854.04 59.48 C 848.76 59.58 843.21 60.15 838.31 57.76 C 836.04 56.57 833.89 58.79 831.67 59.09 C 832.23 57.16 834.00 56.07 835.23 54.60 C 835.74 52.00 835.44 49.31 835.48 46.67 C 834.62 46.61 832.89 46.51 832.03 46.45 C 832.02 46.26 832.00 45.88 831.99 45.70 Z" />
<path fill="#000000" opacity="1.00" d=" M 108.50 84.35 C 109.44 82.22 111.76 81.34 113.60 80.16 C 116.49 80.88 118.90 82.53 119.52 85.59 C 118.75 85.71 117.23 85.95 116.46 86.07 C 115.55 84.75 114.61 83.47 113.63 82.21 C 112.69 83.18 111.76 84.16 110.85 85.15 C 110.98 87.88 110.66 91.69 114.04 92.59 C 116.06 91.79 117.89 90.62 119.82 89.63 C 118.84 92.57 116.68 96.12 113.05 95.55 C 107.90 94.92 106.25 88.37 108.50 84.35 Z" />
<path fill="#000000" opacity="1.00" d=" M 507.49 104.44 C 509.56 104.26 512.10 103.58 513.71 105.34 C 515.21 107.54 514.65 110.59 512.81 112.40 C 511.03 112.91 509.16 112.72 507.35 112.66 C 500.78 117.47 494.62 122.79 488.58 128.25 C 489.51 128.64 491.35 129.44 492.27 129.83 C 491.59 130.39 490.24 131.51 489.57 132.06 C 492.32 139.24 491.78 147.69 486.71 153.71 C 479.56 162.44 465.06 162.72 457.27 154.73 C 450.85 148.54 449.70 138.01 454.33 130.44 C 460.19 121.21 473.55 118.61 482.66 124.51 C 483.58 123.70 484.51 122.88 485.45 122.07 C 485.79 123.07 486.46 125.06 486.79 126.05 C 493.37 121.02 499.49 115.44 506.04 110.38 C 506.02 109.54 506.00 107.85 505.99 107.01 C 506.36 106.37 507.11 105.08 507.49 104.44 M 454.05 138.83 C 452.87 147.20 458.93 155.89 467.16 157.77 C 475.53 160.39 485.24 155.07 487.84 146.73 C 489.74 142.35 488.61 137.53 487.27 133.17 C 481.12 135.86 475.63 139.84 469.35 142.24 C 472.40 136.33 477.48 131.87 481.07 126.32 C 477.71 124.67 474.00 123.31 470.20 123.68 C 462.19 124.05 454.76 130.76 454.05 138.83 Z" />
<path fill="#000000" opacity="1.00" d=" M 365.56 107.00 C 366.87 103.61 372.89 103.40 373.66 107.26 C 375.06 109.84 372.70 111.94 371.03 113.58 C 370.97 120.71 371.02 127.84 371.00 134.97 C 372.30 134.57 373.64 134.31 374.98 134.03 C 373.20 142.25 372.09 150.64 369.79 158.74 C 367.06 150.65 365.91 142.13 364.23 133.79 C 365.63 134.28 367.05 134.77 368.47 135.26 C 368.45 128.86 368.59 122.45 368.47 116.05 C 368.80 112.62 363.60 110.45 365.56 107.00 Z" />
<path fill="#000000" opacity="1.00" d=" M 266.11 107.07 C 266.51 106.75 267.32 106.11 267.72 105.79 C 269.47 113.93 270.87 122.14 272.62 130.28 C 271.23 129.86 269.86 129.44 268.49 129.01 C 268.66 136.02 268.16 143.02 268.59 150.02 C 270.57 151.60 272.81 154.13 270.92 156.68 C 269.85 159.05 266.89 158.29 264.83 158.80 C 263.82 157.10 263.09 155.26 262.62 153.34 C 263.74 152.12 264.86 150.89 266.00 149.68 C 266.00 142.75 266.00 135.83 266.00 128.90 C 264.50 129.39 263.00 129.88 261.50 130.34 C 263.04 122.59 264.76 114.87 266.11 107.07 Z" />
<path fill="#000000" opacity="1.00" d=" M 618.05 118.80 C 626.02 115.44 633.24 110.59 641.12 107.07 C 638.81 111.85 634.77 115.42 631.58 119.57 C 629.41 122.39 627.22 125.21 624.56 127.59 C 624.35 126.60 623.92 124.64 623.71 123.65 C 622.80 124.21 621.90 124.78 621.02 125.35 C 623.39 129.81 625.72 134.84 624.66 140.03 C 623.73 148.98 615.78 156.62 606.80 157.22 C 596.07 158.95 585.78 149.65 584.99 139.09 C 584.29 132.03 588.07 124.84 594.02 121.06 C 598.28 117.79 604.01 117.53 609.13 118.25 C 613.52 118.85 616.61 122.61 620.97 123.24 C 621.29 121.12 619.25 120.12 618.05 118.80 M 590.27 128.32 C 584.79 135.90 587.68 147.59 595.59 152.30 C 600.16 154.87 605.89 156.12 610.88 153.97 C 616.02 152.21 619.99 147.79 621.79 142.74 C 623.57 137.43 621.81 131.82 619.15 127.15 C 614.39 130.60 609.96 134.48 605.25 137.99 C 604.92 140.19 605.01 142.73 603.33 144.45 C 601.26 145.36 598.02 145.60 596.87 143.19 C 595.24 141.39 596.75 139.00 597.05 136.99 C 599.97 136.45 603.38 136.93 605.68 134.68 C 609.60 131.51 613.57 128.39 617.26 124.95 C 614.72 123.13 612.15 121.12 608.98 120.60 C 601.91 118.74 594.10 122.18 590.27 128.32 Z" />
<path fill="#000000" opacity="1.00" d=" M 723.55 110.45 C 732.19 109.18 740.95 109.40 749.67 109.62 C 748.57 111.48 747.44 113.31 746.34 115.16 C 750.11 118.81 754.40 122.57 755.73 127.88 C 758.37 136.13 753.72 145.15 746.81 149.75 C 738.42 155.03 727.62 156.54 718.21 153.26 C 712.12 151.25 706.25 147.55 703.23 141.72 C 700.33 136.86 700.26 130.61 702.52 125.48 C 703.87 122.36 707.13 119.88 706.38 116.14 C 706.57 115.55 706.97 114.36 707.17 113.77 C 709.11 113.51 711.51 112.15 713.20 113.73 C 714.54 114.86 715.70 117.01 714.63 118.69 C 713.03 122.19 707.74 120.46 706.12 123.97 C 701.36 130.72 703.38 140.43 709.45 145.67 C 716.81 152.40 727.72 153.86 737.15 151.46 C 743.95 149.43 750.94 145.17 753.07 137.98 C 755.70 131.08 752.59 121.29 744.88 119.36 C 737.72 116.53 730.35 114.07 723.55 110.45 Z" />
<path fill="#000000" opacity="1.00" d=" M 831.85 112.13 C 839.38 111.85 846.92 112.08 854.46 111.97 C 855.84 116.95 855.43 122.17 855.10 127.25 C 860.97 128.98 867.37 128.93 872.89 131.73 C 867.09 133.36 861.10 134.24 855.23 135.59 C 854.91 140.11 855.06 144.64 854.86 149.17 C 848.90 149.74 842.91 149.44 836.94 149.54 C 835.16 149.37 832.66 150.07 831.86 147.92 C 831.05 143.04 831.63 138.05 831.53 133.13 C 827.78 132.88 824.04 132.50 820.29 132.42 C 819.25 133.45 818.24 134.49 817.22 135.52 C 815.88 135.52 814.54 135.51 813.21 135.51 C 812.47 134.76 811.74 134.02 811.02 133.27 C 810.99 132.31 810.95 130.40 810.93 129.44 C 812.38 128.44 813.88 127.50 815.41 126.60 C 817.13 127.83 818.81 129.13 820.45 130.48 C 824.02 130.44 827.67 130.86 831.19 129.95 C 831.95 124.04 831.07 118.05 831.85 112.13 M 835.73 115.98 C 835.03 120.68 835.21 125.43 835.60 130.15 C 840.34 130.64 845.13 130.62 849.88 130.24 C 849.39 129.39 848.41 127.70 847.92 126.86 C 849.10 126.63 850.29 126.39 851.49 126.16 C 851.49 122.69 851.49 119.22 851.46 115.75 C 846.22 116.11 840.97 115.81 835.73 115.98 M 835.62 132.67 C 835.51 137.10 834.87 141.56 835.65 145.97 C 840.91 145.99 846.19 146.14 851.46 145.75 C 851.49 142.75 851.49 139.76 851.48 136.76 C 850.24 136.62 849.01 136.48 847.79 136.35 C 848.28 135.18 848.78 134.02 849.29 132.85 C 844.73 132.52 840.17 132.82 835.62 132.67 Z" />
<path fill="#000000" opacity="1.00" d=" M 970.79 130.92 C 978.21 126.60 985.24 121.54 993.11 118.03 C 990.66 122.49 987.31 126.35 984.48 130.56 C 982.53 133.27 980.80 136.23 978.17 138.35 C 977.46 137.23 976.81 136.08 976.21 134.91 C 974.44 135.50 972.14 137.15 970.08 138.04 C 964.92 140.75 958.97 140.68 953.31 140.49 C 952.90 140.87 952.08 141.63 951.68 142.01 C 962.71 142.97 973.82 142.39 984.88 142.29 C 993.46 142.71 1002.04 142.38 1010.63 142.52 C 1010.53 143.39 1010.34 145.13 1010.25 146.00 C 985.48 145.99 960.70 146.01 935.93 146.00 C 934.25 146.22 932.78 145.49 931.96 144.02 C 935.92 140.97 941.41 143.13 946.03 142.38 C 944.81 139.94 943.40 136.35 946.51 134.69 C 950.14 132.18 952.64 136.54 955.25 138.35 C 962.08 139.30 968.77 136.62 974.31 132.80 C 973.43 132.33 971.67 131.39 970.79 130.92 Z" />
<path fill="#000000" opacity="1.00" d=" M 1050.47 122.79 C 1057.10 121.17 1063.78 119.79 1070.47 118.38 C 1070.30 119.71 1070.14 121.04 1070.00 122.38 C 1074.51 125.50 1073.51 131.25 1074.31 135.95 C 1075.20 137.78 1076.44 139.42 1077.48 141.19 C 1076.22 142.68 1075.40 145.26 1073.03 145.04 C 1070.14 145.77 1068.76 143.04 1067.47 141.06 C 1068.68 139.22 1070.06 137.51 1071.26 135.66 C 1071.85 133.05 1071.33 130.34 1071.17 127.71 C 1064.08 127.22 1057.11 125.24 1050.47 122.79 Z" />
<path fill="#000000" opacity="1.00" d=" M 1087.13 118.54 C 1094.18 119.36 1101.16 120.99 1107.96 123.03 C 1101.18 125.59 1093.95 126.50 1086.99 128.40 C 1086.99 130.94 1086.86 133.50 1087.16 136.03 C 1087.91 137.22 1088.99 138.16 1089.96 139.19 C 1089.96 140.45 1089.98 141.71 1090.02 142.97 C 1089.29 143.71 1088.58 144.45 1087.88 145.19 C 1085.73 144.87 1082.74 145.46 1081.87 142.86 C 1080.40 140.30 1082.69 138.05 1084.41 136.42 C 1084.39 131.33 1084.04 125.04 1089.03 121.99 C 1088.55 121.13 1087.61 119.40 1087.13 118.54 Z" />
<path fill="#000000" opacity="1.00" d=" M 29.64 129.99 C 31.46 127.27 34.75 125.28 38.07 125.50 C 43.16 127.79 40.76 134.81 41.76 138.72 C 42.66 139.46 43.42 140.35 44.28 141.15 C 43.59 141.50 42.22 142.18 41.54 142.52 C 38.72 141.68 35.85 142.38 32.99 142.40 C 29.99 141.98 29.41 138.63 30.01 136.16 C 32.25 133.98 35.47 133.50 38.13 132.04 C 38.38 130.56 37.62 129.16 37.32 127.74 C 36.24 127.96 35.15 128.18 34.07 128.41 C 33.31 129.53 32.51 130.62 31.68 131.69 C 31.17 131.27 30.15 130.42 29.64 129.99 M 32.30 139.23 C 33.77 139.38 35.28 140.05 36.77 139.68 C 39.15 138.84 38.25 135.93 38.60 134.03 C 36.03 135.14 33.03 136.14 32.30 139.23 Z" />
<path fill="#000000" opacity="1.00" d=" M 163.91 218.10 C 165.30 215.81 168.20 216.76 170.37 216.72 C 171.05 219.41 170.91 222.17 169.51 224.64 C 171.98 224.71 174.52 224.45 176.89 225.31 C 177.66 226.74 177.42 228.42 177.53 229.99 C 177.46 235.50 178.74 241.07 177.37 246.52 C 175.78 246.52 174.20 246.52 172.61 246.53 C 172.41 252.11 172.63 257.69 172.34 263.26 C 170.91 263.00 169.48 262.73 168.06 262.43 C 166.67 262.67 165.27 262.92 163.86 263.02 C 162.87 261.94 163.05 260.40 162.98 259.06 C 162.94 254.96 163.02 250.87 163.00 246.78 C 161.33 246.59 159.66 246.42 158.00 246.24 C 157.99 239.36 158.02 232.47 157.97 225.59 C 160.23 224.85 162.57 224.48 164.94 224.34 C 164.29 222.36 162.69 220.18 163.91 218.10 Z" />
<path fill="#000000" opacity="1.00" d=" M 44.14 227.87 C 44.94 228.28 45.75 228.69 46.55 229.11 C 46.58 229.79 46.62 231.15 46.64 231.83 L 48.60 232.35 C 48.07 232.75 47.00 233.55 46.46 233.96 C 46.51 236.39 46.57 238.84 46.72 241.28 C 48.45 239.03 49.96 236.62 51.24 234.09 C 50.79 233.66 49.89 232.81 49.43 232.39 C 51.36 231.85 53.34 231.56 55.26 231.00 C 55.52 231.56 56.05 232.69 56.31 233.25 C 55.21 233.33 54.11 233.41 53.00 233.49 C 53.19 236.67 50.71 238.83 49.08 241.22 C 52.12 241.09 55.14 240.70 58.17 240.52 C 57.54 241.19 56.90 241.87 56.26 242.54 C 53.38 241.49 50.41 241.65 47.59 242.83 C 50.47 247.13 54.93 249.75 59.41 252.11 C 53.63 253.65 49.45 248.58 46.53 244.40 C 46.53 247.97 46.55 251.55 46.21 255.11 C 45.66 254.83 44.55 254.26 44.00 253.98 C 43.99 250.78 43.99 247.57 44.03 244.37 C 41.00 248.62 37.24 252.96 31.61 253.31 C 35.69 250.12 40.04 247.04 42.33 242.21 C 39.48 242.01 36.62 241.83 33.75 241.84 L 33.65 241.15 C 35.78 241.14 37.90 241.04 40.03 240.92 C 39.18 238.35 38.16 235.83 37.37 233.24 C 40.21 235.39 41.62 238.67 43.03 241.82 C 45.36 239.40 44.52 235.60 43.44 232.63 C 40.32 232.82 37.21 233.10 34.08 233.07 C 37.28 232.09 40.65 232.05 43.96 231.91 C 44.01 230.56 44.07 229.21 44.14 227.87 Z" />
<path fill="#000000" opacity="1.00" d=" M 1079.22 233.37 C 1084.00 231.05 1090.04 233.99 1091.47 239.04 C 1093.84 244.26 1089.31 249.93 1084.15 250.77 C 1078.93 251.67 1073.77 247.27 1073.48 242.04 C 1073.64 238.40 1075.71 234.71 1079.22 233.37 M 1083.33 234.22 C 1083.42 236.51 1083.54 238.79 1083.71 241.07 C 1085.86 240.99 1088.00 240.89 1090.17 240.73 C 1088.83 237.70 1086.40 235.42 1083.33 234.22 M 1075.55 240.87 C 1077.34 240.92 1079.16 241.06 1080.98 240.88 C 1082.91 239.51 1081.49 236.53 1082.09 234.60 C 1078.80 235.33 1076.71 237.86 1075.55 240.87 M 1075.46 242.89 C 1076.86 245.54 1078.74 248.00 1081.78 248.84 C 1081.90 246.81 1081.99 244.80 1082.06 242.78 C 1079.85 242.70 1077.64 242.75 1075.46 242.89 M 1083.71 242.47 C 1083.60 244.71 1083.55 246.94 1083.59 249.18 C 1086.58 247.94 1089.10 245.81 1090.22 242.69 C 1088.03 242.58 1085.87 242.51 1083.71 242.47 Z" />
<path fill="#000000" opacity="1.00" d=" M 267.01 234.74 C 267.50 234.74 268.48 234.74 268.98 234.74 C 269.00 236.74 269.03 238.75 269.07 240.75 C 271.34 240.96 273.62 241.17 275.88 241.58 C 273.84 242.92 271.39 243.06 269.05 243.34 C 269.01 245.16 268.99 246.98 268.95 248.80 C 268.48 248.80 267.52 248.80 267.04 248.80 C 267.01 246.97 266.98 245.15 266.96 243.32 C 264.41 243.05 261.85 242.77 259.39 242.00 C 261.82 241.08 264.41 240.95 266.96 240.70 C 266.98 238.71 266.99 236.73 267.01 234.74 Z" />
<path fill="#000000" opacity="1.00" d=" M 369.25 235.80 C 369.69 235.42 370.58 234.66 371.03 234.28 C 371.30 236.44 371.49 238.60 371.63 240.77 C 373.99 240.98 376.38 241.15 378.63 241.99 C 376.37 242.68 374.04 243.00 371.70 243.25 C 371.51 245.53 371.24 247.80 370.57 250.00 C 369.40 247.95 369.42 245.57 369.21 243.30 C 366.81 243.05 364.41 242.67 362.21 241.65 C 364.38 241.20 366.61 241.06 368.77 240.54 C 370.14 239.41 369.01 237.31 369.25 235.80 Z" />
<path fill="#000000" opacity="1.00" d=" M 484.43 240.42 C 485.07 238.13 485.23 235.73 485.84 233.43 C 486.35 235.78 486.38 238.25 487.06 240.57 C 489.35 241.03 491.68 241.16 493.98 241.61 C 491.60 242.48 489.09 242.90 486.61 243.36 C 486.77 244.88 486.94 246.41 487.10 247.94 C 486.59 248.22 485.56 248.77 485.04 249.05 C 485.00 247.14 484.98 245.23 484.95 243.32 C 482.49 243.07 479.95 242.92 477.75 241.66 C 479.95 241.15 482.28 241.17 484.43 240.42 Z" />
<path fill="#000000" opacity="1.00" d=" M 612.73 240.36 C 612.97 237.92 613.32 235.50 614.13 233.18 C 614.78 235.50 615.02 237.90 615.27 240.30 C 617.50 240.45 619.72 240.60 621.96 240.88 C 620.07 242.52 617.57 242.61 615.22 242.81 C 615.08 244.95 615.00 247.10 614.93 249.25 C 614.44 249.00 613.47 248.48 612.99 248.23 C 612.98 246.44 612.99 244.65 613.00 242.87 C 610.50 242.58 607.94 242.42 605.69 241.19 C 608.00 240.70 610.36 240.49 612.73 240.36 Z" />
<path fill="#000000" opacity="1.00" d=" M 728.27 240.13 C 728.51 237.91 728.27 235.44 729.95 233.69 C 730.35 235.88 730.52 238.12 730.69 240.35 C 733.04 240.49 735.38 240.65 737.73 240.97 C 735.55 242.20 733.08 242.57 730.63 242.79 C 730.51 245.09 730.32 247.38 730.05 249.68 C 728.64 247.63 728.41 245.19 728.21 242.80 C 725.93 242.52 723.65 242.17 721.44 241.62 C 723.64 240.82 725.95 240.46 728.27 240.13 Z" />
<path fill="#000000" opacity="1.00" d=" M 844.00 234.54 L 845.33 234.41 C 845.58 236.32 845.86 238.23 846.14 240.14 C 848.42 240.44 850.72 240.71 852.95 241.36 C 850.55 241.88 848.16 242.27 845.76 242.69 C 845.85 244.54 845.96 246.39 846.07 248.25 C 845.57 248.25 844.57 248.26 844.07 248.27 C 843.98 246.42 843.90 244.57 843.80 242.73 C 841.46 242.30 839.09 241.91 836.78 241.38 C 839.14 240.72 841.57 240.43 844.00 240.13 C 843.99 238.26 843.99 236.40 844.00 234.54 Z" />
<path fill="#000000" opacity="1.00" d=" M 972.66 233.53 C 973.30 235.78 973.79 238.07 974.27 240.37 C 976.52 240.50 978.78 240.66 981.02 241.06 C 978.91 242.45 976.37 242.57 973.94 242.72 C 973.59 244.93 973.28 247.15 972.80 249.33 C 972.23 247.15 971.83 244.94 971.38 242.74 C 969.04 242.51 966.69 242.21 964.41 241.64 C 966.63 240.72 969.00 240.45 971.39 240.23 C 971.80 237.99 972.15 235.74 972.66 233.53 Z" />
<path fill="#000000" opacity="1.00" d=" M 130.68 235.46 C 138.97 237.63 147.59 238.27 155.79 240.75 C 151.01 242.65 145.82 242.81 140.89 244.09 C 137.55 244.92 134.13 245.33 130.72 245.69 C 131.21 244.45 131.71 243.22 132.20 242.00 C 130.01 242.00 127.81 242.01 125.62 242.04 C 123.78 243.66 121.07 246.36 118.55 244.41 C 115.65 242.80 115.89 238.16 119.06 237.03 C 121.49 235.43 123.65 238.21 125.52 239.44 C 127.74 239.48 129.96 239.49 132.18 239.50 C 131.67 238.15 131.17 236.81 130.68 235.46 Z" />
<path fill="#000000" opacity="1.00" d=" M 1038.71 288.41 C 1038.80 287.32 1038.90 286.22 1039.02 285.14 L 1039.11 286.52 C 1053.74 286.42 1068.37 286.59 1083.00 286.43 C 1088.77 286.06 1094.56 285.72 1100.34 286.34 C 1107.95 286.56 1115.61 285.92 1123.19 286.83 C 1119.19 287.79 1115.06 287.49 1111.00 287.52 C 1088.69 287.48 1066.38 287.55 1044.07 287.47 C 1042.21 287.42 1040.42 287.74 1038.71 288.41 Z" />
<path fill="#000000" opacity="1.00" d=" M 165.13 314.85 C 166.00 312.48 167.93 309.30 170.88 311.00 C 174.49 312.38 173.57 316.66 171.07 318.71 C 173.63 318.81 176.21 318.82 178.74 319.31 C 179.60 320.30 180.07 321.57 179.99 322.90 C 180.08 328.55 180.00 334.20 179.94 339.85 C 178.50 339.93 177.07 340.02 175.63 340.10 C 175.28 345.51 174.88 350.93 175.05 356.36 C 171.92 356.28 168.79 356.25 165.67 356.31 C 165.38 351.15 165.61 345.98 165.32 340.83 C 163.76 340.51 162.21 340.20 160.66 339.85 C 159.91 332.96 159.49 325.94 160.64 319.06 C 163.07 318.84 165.51 318.62 167.95 318.45 C 167.00 317.25 166.06 316.05 165.13 314.85 Z" />
<path fill="#000000" opacity="1.00" d=" M 44.23 326.91 C 44.69 324.31 44.97 321.65 45.61 319.07 C 46.90 321.34 47.06 323.94 47.30 326.47 C 50.84 326.50 54.38 326.15 57.91 326.39 C 54.53 328.07 50.67 327.66 47.03 327.65 C 47.01 329.53 47.00 331.41 47.00 333.30 C 51.02 333.87 55.08 333.79 59.06 332.90 C 59.02 333.31 58.95 334.12 58.92 334.53 C 54.70 334.50 50.49 334.51 46.28 334.50 C 44.57 337.23 42.61 339.79 40.64 342.34 C 44.69 342.41 48.74 343.17 52.79 342.78 C 52.47 341.25 51.96 339.77 51.53 338.28 C 54.24 340.26 56.89 342.63 57.52 346.11 C 55.72 345.22 54.18 343.46 52.06 343.48 C 46.58 343.42 41.13 345.43 35.66 344.18 C 38.88 341.64 41.43 338.40 43.50 334.87 C 42.18 334.40 40.86 333.95 39.53 333.52 C 41.45 333.33 43.37 333.08 45.28 332.80 C 45.00 330.82 44.70 328.85 44.23 326.91 Z" />
<path fill="#000000" opacity="1.00" d=" M 1079.29 325.35 C 1085.78 321.96 1094.24 328.90 1092.17 335.94 C 1090.59 342.72 1080.78 344.96 1076.33 339.71 C 1071.97 335.55 1073.86 327.61 1079.29 325.35 M 1084.10 326.38 C 1083.92 328.59 1083.90 330.81 1083.93 333.03 C 1086.11 333.00 1088.30 332.96 1090.51 332.89 C 1089.36 329.88 1086.87 327.84 1084.10 326.38 M 1075.93 332.78 C 1077.99 332.90 1080.10 332.99 1082.19 333.06 C 1081.99 330.91 1081.75 328.76 1081.39 326.64 C 1079.02 328.16 1077.08 330.20 1075.93 332.78 M 1075.80 334.63 C 1076.96 337.46 1079.10 339.64 1081.82 341.01 C 1081.94 338.87 1082.06 336.75 1082.13 334.62 C 1080.02 334.58 1077.89 334.57 1075.80 334.63 M 1084.12 334.60 C 1084.00 336.77 1083.87 338.93 1083.76 341.10 C 1086.94 340.00 1089.29 337.65 1090.60 334.58 C 1088.43 334.54 1086.27 334.55 1084.12 334.60 Z" />
<path fill="#000000" opacity="1.00" d=" M 370.44 325.18 C 371.76 327.33 372.08 329.82 372.24 332.29 C 374.50 332.52 376.75 332.83 378.95 333.44 C 376.72 334.31 374.35 334.57 372.00 334.90 C 371.99 336.68 372.00 338.46 372.00 340.25 C 371.50 340.25 370.50 340.25 370.00 340.25 C 369.99 338.45 369.99 336.66 370.00 334.86 C 367.44 334.57 364.85 334.33 362.42 333.42 C 364.86 332.76 367.36 332.44 369.87 332.17 C 369.98 329.83 370.12 327.49 370.44 325.18 Z" />
<path fill="#000000" opacity="1.00" d=" M 485.25 332.25 C 485.38 329.86 485.47 327.44 486.19 325.13 C 486.84 327.46 487.34 329.84 487.78 332.22 C 490.06 332.46 492.34 332.72 494.60 333.19 C 492.44 333.92 490.19 334.35 488.03 335.05 C 487.34 337.21 486.94 339.46 486.20 341.61 C 485.72 339.34 485.47 337.04 485.24 334.74 C 482.82 334.55 480.39 334.32 478.01 333.84 C 480.22 332.55 482.76 332.41 485.25 332.25 Z" />
<path fill="#000000" opacity="1.00" d=" M 267.97 325.33 C 269.16 327.46 269.54 329.87 269.89 332.25 C 272.14 332.48 274.39 332.73 276.61 333.20 C 274.46 333.95 272.21 334.34 270.05 335.02 C 269.34 337.18 268.97 339.45 268.20 341.60 C 267.72 339.34 267.48 337.05 267.24 334.76 C 264.84 334.54 262.44 334.31 260.09 333.81 C 262.02 333.30 264.00 333.00 265.98 332.76 C 266.33 332.53 267.03 332.07 267.38 331.84 C 267.51 329.67 267.67 327.48 267.97 325.33 Z" />
<path fill="#000000" opacity="1.00" d=" M 613.28 332.02 C 613.47 329.88 613.64 327.74 614.16 325.65 C 615.25 327.73 615.43 330.11 616.12 332.33 C 617.91 332.54 619.71 332.54 621.52 332.62 L 621.56 333.90 C 619.69 334.08 617.83 334.28 615.96 334.45 C 615.55 336.88 615.11 339.32 614.23 341.64 C 613.68 339.25 613.46 336.82 613.26 334.39 C 610.99 334.09 608.69 333.80 606.45 333.38 C 608.68 332.74 610.98 332.40 613.28 332.02 Z" />
<path fill="#000000" opacity="1.00" d=" M 729.11 326.72 C 729.58 326.73 730.53 326.74 731.00 326.75 C 730.99 328.55 731.00 330.35 731.02 332.16 C 733.00 332.36 734.99 332.49 737.00 332.61 L 737.00 333.98 C 735.06 334.00 733.13 334.03 731.21 334.07 C 731.04 336.56 730.87 339.05 730.49 341.53 C 729.01 339.42 729.08 336.82 728.48 334.44 C 726.35 333.91 724.15 333.86 722.04 333.36 C 724.22 332.69 726.48 332.46 728.74 332.19 C 728.88 330.36 728.99 328.54 729.11 326.72 Z" />
<path fill="#000000" opacity="1.00" d=" M 844.57 326.44 L 845.78 326.42 C 845.93 328.22 846.00 330.05 846.35 331.84 C 848.62 332.52 851.02 332.80 853.29 333.55 C 851.13 333.84 848.99 334.01 846.84 334.16 C 846.58 336.71 846.34 339.31 845.15 341.63 C 844.65 339.20 844.45 336.72 844.27 334.25 C 842.08 334.09 839.89 333.98 837.72 333.87 C 838.11 333.52 838.90 332.82 839.29 332.47 C 840.97 332.47 842.64 332.47 844.35 332.47 C 844.44 330.46 844.49 328.45 844.57 326.44 Z" />
<path fill="#000000" opacity="1.00" d=" M 115.86 334.44 C 123.92 331.70 132.51 331.25 140.76 329.28 C 140.37 330.32 139.59 332.40 139.20 333.44 C 140.74 333.45 142.29 333.46 143.83 333.47 C 145.40 332.27 146.73 330.05 149.00 330.44 C 150.50 330.70 151.78 331.59 153.12 332.28 C 153.08 333.19 153.00 335.01 152.96 335.92 C 152.18 336.91 151.39 337.90 150.60 338.89 C 147.98 338.50 145.69 337.24 143.78 335.45 C 142.24 335.55 140.70 335.67 139.17 335.81 C 139.66 336.71 140.64 338.50 141.13 339.40 C 132.61 338.39 124.12 336.80 115.86 334.44 Z" />
<path fill="#000000" opacity="1.00" d=" M 965.14 333.55 C 970.27 331.85 976.18 331.88 981.32 333.53 C 975.96 334.27 970.50 334.25 965.14 333.55 Z" />
</g>
</svg>
