<?xml version="1.0" encoding="UTF-8" ?>
<!DOCTYPE svg PUBLIC "-//W3C//DTD SVG 1.1//EN" "http://www.w3.org/Graphics/SVG/1.1/DTD/svg11.dtd">
<svg width="1246pt" height="558pt" viewBox="0 0 1246 558" version="1.1" xmlns="http://www.w3.org/2000/svg">
<g id="#fefefeff">
</g>
<g id="#0f0f0fff">
<path fill="#0f0f0f" opacity="1.00" d=" M 120.77 64.33 C 123.64 63.33 126.64 62.67 129.70 62.56 C 132.28 63.67 134.77 65.29 136.61 67.42 C 138.49 71.37 137.35 76.04 139.14 80.04 C 145.51 81.32 150.60 78.27 154.35 73.62 C 156.58 75.43 158.78 77.27 160.96 79.14 C 160.89 80.77 160.74 84.03 160.66 85.66 C 152.76 85.88 144.86 85.98 136.97 86.07 C 136.56 90.60 132.86 96.44 137.45 99.73 C 143.20 101.39 148.00 97.62 152.16 94.33 C 154.56 96.05 157.56 97.39 158.97 100.14 C 159.55 102.52 157.61 104.58 155.60 105.49 C 149.26 106.07 142.91 106.07 136.56 106.15 C 135.80 111.22 136.26 116.31 136.83 121.37 C 141.28 120.84 146.04 121.79 150.36 120.36 C 151.81 118.98 152.85 117.26 154.05 115.68 C 158.81 117.76 162.64 121.31 165.92 125.31 C 156.79 129.03 146.60 127.66 137.00 128.17 C 125.01 128.01 113.06 129.87 101.10 129.80 C 96.34 128.76 97.88 123.41 98.17 119.80 C 107.92 119.90 117.66 120.60 127.41 120.45 C 126.82 115.62 126.54 110.75 125.57 105.98 C 117.91 105.96 110.25 105.96 102.59 105.93 C 103.27 103.19 104.02 100.49 104.82 97.78 C 112.20 98.10 119.64 99.87 127.04 98.69 C 127.03 94.40 127.02 90.11 126.99 85.83 C 118.02 85.86 107.47 89.09 99.32 83.75 C 99.41 81.67 99.99 79.66 100.48 77.65 C 109.65 78.03 118.90 78.06 127.94 79.85 C 128.07 73.52 122.70 69.78 120.77 64.33 Z" />
<path fill="#0f0f0f" opacity="1.00" d=" M 196.28 65.92 C 199.20 62.95 203.07 61.98 206.98 63.55 C 207.80 67.13 208.66 70.71 209.73 74.23 C 216.34 73.99 222.94 73.18 229.55 72.93 C 233.05 73.70 234.66 77.16 236.55 79.82 C 231.84 81.51 227.08 83.05 222.24 84.32 C 222.11 82.89 221.98 81.46 221.85 80.03 C 220.59 80.02 219.34 80.01 218.09 80.00 C 218.03 82.56 217.98 85.13 217.94 87.70 C 208.82 87.79 199.83 89.18 190.88 90.73 C 193.05 93.18 195.82 96.15 199.46 95.49 C 206.19 94.21 213.93 94.88 219.55 90.32 C 221.67 91.77 224.06 92.97 225.67 95.03 C 225.49 96.76 224.99 98.43 224.54 100.09 C 219.68 100.06 214.85 100.03 210.00 100.00 C 210.00 102.68 210.01 105.36 210.03 108.05 C 217.16 107.34 224.46 107.13 231.04 103.92 C 232.62 105.55 234.20 107.17 235.79 108.79 C 234.98 110.42 234.20 112.07 233.44 113.72 C 229.62 113.83 225.81 113.93 222.00 114.03 C 227.68 117.86 229.39 125.55 225.15 131.12 C 219.66 126.25 215.97 119.51 209.87 115.32 C 206.03 114.15 201.85 114.23 197.85 113.72 C 198.56 115.09 199.29 116.45 200.02 117.82 C 192.46 123.61 183.31 127.63 173.68 127.87 C 175.20 124.77 177.10 121.64 180.60 120.54 C 184.31 119.25 186.49 115.95 188.48 112.79 C 182.38 112.32 175.42 112.90 170.93 107.95 C 175.84 106.34 180.84 105.02 185.83 103.68 C 185.15 98.79 183.78 93.75 185.07 88.85 C 185.84 84.61 188.71 81.23 190.55 77.44 C 185.37 77.55 183.13 81.98 179.93 85.01 C 177.04 88.17 169.62 83.14 172.83 79.66 C 174.95 76.39 177.31 73.28 179.43 70.01 C 185.69 71.50 191.88 73.27 198.23 74.37 C 197.59 71.53 197.02 68.73 196.28 65.92 M 192.08 79.88 C 191.26 82.04 190.44 84.20 189.67 86.39 C 195.70 85.54 201.81 84.08 206.93 80.62 C 201.99 80.14 197.03 80.06 192.08 79.88 M 194.36 100.14 C 193.47 102.73 192.52 105.31 191.66 107.91 C 194.51 107.97 197.36 108.03 200.21 108.08 C 201.04 105.43 201.68 102.71 202.41 100.04 C 199.73 100.06 197.04 100.10 194.36 100.14 Z" />
<path fill="#0f0f0f" opacity="1.00" d=" M 467.51 62.72 C 470.28 62.37 472.95 63.49 475.70 63.69 C 475.85 66.60 476.64 69.53 476.17 72.44 C 474.77 74.49 473.22 76.42 471.69 78.36 C 468.39 74.63 465.14 70.87 461.50 67.48 C 463.47 65.86 465.38 64.15 467.51 62.72 Z" />
<path fill="#0f0f0f" opacity="1.00" d=" M 773.68 64.45 C 776.37 63.46 779.02 62.63 781.87 62.09 C 786.70 65.40 786.79 71.27 787.58 76.48 C 793.13 76.25 799.21 76.38 803.50 72.29 C 807.90 74.70 811.99 78.11 812.70 83.51 C 809.21 84.44 805.68 85.38 802.20 86.28 C 802.09 88.84 802.00 91.40 801.92 93.96 C 796.24 93.98 790.60 93.99 784.95 94.01 C 785.05 96.77 785.24 102.29 785.34 105.05 C 789.55 103.64 793.56 101.73 797.57 99.82 C 799.42 102.26 801.19 104.75 802.82 107.35 C 796.99 107.84 791.06 107.44 785.32 108.46 C 781.50 110.47 784.06 117.00 782.20 120.22 C 791.75 120.05 801.35 119.79 810.83 118.36 C 812.10 122.67 809.37 126.35 807.44 129.94 C 792.32 131.07 774.61 130.71 764.22 117.85 C 760.66 121.08 757.16 124.39 753.72 127.74 C 751.78 127.75 747.89 127.77 745.95 127.78 C 746.77 121.62 753.07 119.62 755.96 114.83 C 760.36 109.47 761.21 102.34 762.85 95.85 C 766.64 95.96 770.33 97.05 773.50 99.11 C 770.87 102.91 766.98 106.69 767.16 111.64 C 769.67 114.37 772.50 116.82 775.54 118.97 C 775.83 110.59 775.99 102.21 776.03 93.84 C 770.29 92.88 764.45 92.84 758.70 92.03 C 759.57 90.65 760.45 89.29 761.33 87.92 C 768.97 87.91 776.61 89.36 784.25 89.05 C 789.87 89.16 794.06 85.20 798.56 82.49 C 786.92 79.77 774.92 81.61 763.16 80.01 C 761.24 85.07 758.33 89.59 753.77 92.60 C 751.83 89.82 748.93 87.22 749.54 83.39 C 752.03 79.32 755.24 75.73 757.91 71.77 C 763.22 75.74 769.96 75.74 776.33 76.35 C 775.57 72.35 774.60 68.41 773.68 64.45 Z" />
<path fill="#0f0f0f" opacity="1.00" d=" M 245.64 66.03 C 251.20 62.41 257.61 66.94 260.30 72.00 C 258.88 74.73 256.56 76.93 253.91 78.47 C 249.77 75.44 248.23 70.25 245.64 66.03 Z" />
<path fill="#0f0f0f" opacity="1.00" d=" M 265.09 68.36 C 277.24 67.49 290.56 70.34 301.41 63.38 C 303.50 66.46 305.36 69.73 306.48 73.31 C 300.33 73.69 294.15 73.55 288.03 74.20 C 285.25 74.53 284.40 77.80 282.88 79.72 C 287.29 79.41 291.67 78.77 296.04 78.10 C 298.85 81.09 299.99 84.92 298.52 88.86 C 302.98 90.27 306.88 92.85 310.66 95.52 C 309.38 96.98 308.10 98.44 306.83 99.90 C 291.88 100.03 276.94 100.02 262.00 100.00 C 262.00 98.51 262.00 95.53 262.00 94.04 C 266.00 94.01 270.00 93.99 274.00 93.96 C 274.00 91.32 273.99 88.68 273.99 86.05 C 271.32 86.02 268.65 86.00 265.99 85.97 C 266.00 84.59 266.02 83.21 266.05 81.84 C 269.70 80.91 273.37 80.07 277.04 79.21 C 275.47 76.91 273.64 74.28 270.46 74.81 C 266.76 75.35 266.05 71.12 265.09 68.36 M 282.22 84.91 C 282.10 87.96 281.99 91.01 281.91 94.07 C 284.90 93.94 287.90 93.81 290.90 93.67 C 289.90 89.27 287.53 84.85 282.22 84.91 Z" />
<path fill="#0f0f0f" opacity="1.00" d=" M 482.34 66.18 C 494.92 65.11 508.76 71.90 520.15 64.07 C 522.55 73.19 519.69 82.59 519.68 91.82 C 518.70 91.92 517.73 92.03 516.76 92.15 C 517.55 101.10 516.26 110.10 517.14 119.07 C 517.60 123.26 515.54 127.06 513.49 130.55 C 509.71 128.63 505.92 126.73 502.08 124.92 C 502.04 124.11 501.95 122.50 501.91 121.70 C 504.56 120.94 507.20 120.33 509.92 119.71 C 509.94 118.44 509.96 117.18 509.98 115.91 C 505.45 114.61 500.90 113.43 496.39 112.13 C 495.17 118.35 494.17 124.79 490.43 130.12 C 488.54 129.14 486.65 128.18 484.75 127.23 C 485.17 122.60 485.40 117.96 485.68 113.33 C 481.57 117.34 478.01 121.91 473.56 125.57 C 470.91 125.13 468.39 124.49 465.86 123.70 C 468.17 112.68 468.06 101.35 468.05 90.15 C 464.26 88.21 460.33 86.52 456.96 83.88 C 462.78 82.40 468.72 81.38 474.52 79.76 C 475.71 82.35 478.43 84.62 478.07 87.71 C 477.59 95.84 477.11 103.98 476.91 112.12 C 480.06 111.32 483.14 110.43 486.33 109.67 C 485.87 103.74 486.04 97.72 484.91 91.86 C 482.77 83.47 484.01 74.66 482.34 66.18 M 491.25 71.36 C 491.13 72.95 491.01 74.55 490.91 76.15 C 492.87 75.88 496.78 75.35 498.74 75.08 C 496.30 73.76 493.74 72.53 491.25 71.36 M 503.48 75.54 C 506.24 75.54 511.76 75.54 514.52 75.54 C 512.68 74.41 510.83 73.32 509.00 72.19 C 507.16 73.32 505.31 74.41 503.48 75.54 M 491.00 82.00 C 490.99 83.33 490.99 84.66 491.00 86.00 C 492.75 86.00 496.25 86.00 498.00 86.00 C 498.00 84.67 497.99 83.33 498.00 82.00 C 496.25 82.00 492.75 82.00 491.00 82.00 M 503.99 81.96 C 503.99 83.32 504.00 84.69 504.02 86.05 C 506.56 85.95 509.12 85.85 511.68 85.75 C 512.55 84.58 513.44 83.41 514.32 82.23 C 511.73 82.16 506.57 82.03 503.99 81.96 M 490.68 90.29 C 491.47 91.60 492.28 92.91 493.09 94.22 C 500.35 93.66 508.19 94.29 514.81 90.68 C 506.88 88.40 498.72 89.34 490.68 90.29 M 494.85 98.09 C 495.27 99.37 495.70 100.65 496.14 101.94 C 498.75 101.97 501.37 102.00 503.99 102.03 C 503.99 100.68 503.99 99.33 504.00 97.98 C 500.98 98.02 497.82 98.03 494.85 98.09 M 493.00 105.99 C 493.00 106.50 493.00 107.50 493.00 108.01 C 496.75 108.01 504.25 108.01 508.00 108.01 C 508.00 107.50 508.00 106.50 508.00 105.99 C 504.25 105.99 496.75 105.99 493.00 105.99 Z" />
<path fill="#0f0f0f" opacity="1.00" d=" M 535.66 66.13 C 538.14 65.34 540.49 64.64 543.09 64.09 C 546.46 66.99 547.38 71.69 549.15 75.53 C 547.14 76.39 545.18 77.41 543.04 77.88 C 539.01 75.18 537.83 70.20 535.66 66.13 Z" />
<path fill="#0f0f0f" opacity="1.00" d=" M 579.88 69.62 C 583.38 68.38 586.24 65.86 589.36 63.90 C 591.75 66.80 593.94 69.87 596.05 72.99 C 595.23 73.90 594.40 74.81 593.59 75.72 C 587.05 75.86 580.51 76.00 573.98 76.13 C 573.11 78.02 572.27 79.93 571.48 81.85 C 576.79 81.28 582.08 80.61 587.40 80.07 C 588.16 81.80 588.94 83.52 589.76 85.23 C 588.50 86.46 587.25 87.70 586.00 88.94 C 592.63 88.64 598.24 93.17 598.75 99.92 C 595.68 100.52 592.59 101.37 589.43 101.07 C 576.30 99.97 563.12 99.90 549.97 99.93 C 549.99 98.59 550.02 97.26 550.05 95.92 C 555.64 94.94 564.20 96.75 564.95 88.50 C 561.54 88.20 558.13 87.87 554.74 87.52 C 557.08 82.05 564.12 82.05 567.14 77.11 C 562.74 76.15 558.40 75.25 554.04 74.21 C 554.01 72.84 553.99 71.46 553.97 70.09 C 562.60 70.05 571.27 70.41 579.88 69.62 M 569.32 91.98 C 571.07 95.05 574.66 96.21 577.85 97.10 C 577.84 93.76 577.81 90.43 577.76 87.09 C 574.73 88.27 571.15 89.02 569.32 91.98 Z" />
<path fill="#0f0f0f" opacity="1.00" d=" M 865.94 69.69 C 869.78 68.78 872.85 66.10 876.00 63.86 C 877.70 64.72 879.41 65.60 881.13 66.46 C 881.13 69.64 881.41 72.79 881.73 75.95 C 874.47 75.98 867.23 76.00 860.00 76.02 C 860.01 77.54 860.04 80.59 860.05 82.11 C 863.88 81.52 867.71 80.86 871.55 80.24 C 873.04 81.88 874.58 83.49 876.12 85.10 C 875.29 87.39 874.45 89.67 873.71 91.98 C 875.44 91.22 877.16 90.44 878.91 89.70 C 881.46 92.41 884.05 95.08 886.56 97.84 C 885.58 99.22 884.60 100.60 883.63 101.99 C 869.47 100.07 855.15 100.45 840.96 101.90 C 837.84 102.24 836.60 98.79 834.96 96.82 C 840.17 94.90 850.12 97.70 850.71 89.12 C 847.35 87.96 844.25 86.69 841.12 85.12 C 845.42 82.74 851.85 82.76 852.90 76.76 C 848.56 75.94 844.31 75.17 840.04 74.25 C 840.01 72.86 839.98 71.47 839.97 70.08 C 848.61 70.06 857.29 70.37 865.94 69.69 M 858.51 88.39 C 857.23 89.69 854.40 91.68 856.49 93.49 C 858.06 96.83 863.04 97.21 865.06 94.06 C 868.71 91.09 861.64 85.41 858.51 88.39 Z" />
<path fill="#0f0f0f" opacity="1.00" d=" M 1051.14 63.41 C 1054.28 64.05 1057.61 64.70 1060.76 65.57 C 1059.35 72.95 1057.15 80.41 1058.56 87.97 C 1061.42 87.98 1067.13 88.00 1069.99 88.01 C 1070.05 80.01 1069.06 71.92 1070.43 63.99 C 1075.14 65.32 1081.65 65.57 1082.15 71.68 C 1085.31 73.13 1088.53 74.44 1091.74 75.85 C 1091.37 83.05 1097.17 87.30 1099.61 93.33 C 1093.09 93.73 1086.60 93.97 1080.12 94.24 C 1082.08 106.17 1089.53 117.39 1100.82 122.23 C 1100.90 123.01 1101.07 124.55 1101.15 125.32 C 1097.57 126.53 1093.86 127.56 1090.12 127.96 C 1083.10 124.10 1080.43 116.42 1077.70 109.46 C 1072.54 115.01 1068.80 121.90 1062.68 126.49 C 1059.07 128.01 1055.26 128.82 1051.55 129.98 C 1050.71 129.13 1049.88 128.29 1049.07 127.45 C 1049.39 121.75 1050.32 116.11 1050.85 110.43 C 1049.90 109.64 1048.97 108.85 1048.04 108.06 C 1044.62 110.27 1041.26 112.56 1037.84 114.75 C 1035.83 111.48 1034.03 108.09 1032.50 104.57 C 1037.87 102.95 1043.29 101.45 1048.48 99.28 C 1050.41 97.48 1050.63 94.66 1051.71 92.33 C 1048.08 93.00 1044.43 93.64 1040.81 94.24 C 1039.26 87.93 1037.91 81.57 1036.92 75.15 C 1041.57 75.96 1045.18 78.95 1048.51 82.04 C 1048.85 75.76 1049.30 69.45 1051.14 63.41 M 1078.82 75.14 C 1077.84 79.32 1077.23 83.58 1076.95 87.86 C 1079.60 90.28 1083.41 89.86 1086.70 90.60 C 1085.06 85.02 1082.52 79.67 1078.82 75.14 M 1049.17 88.17 C 1048.64 89.80 1049.19 90.35 1050.83 89.83 C 1051.34 88.20 1050.78 87.65 1049.17 88.17 M 1059.11 94.01 C 1057.17 103.26 1057.33 112.71 1059.65 121.85 C 1063.04 118.07 1066.79 114.05 1067.61 108.83 C 1068.42 103.90 1069.22 98.96 1070.09 94.03 C 1067.34 94.03 1061.85 94.02 1059.11 94.01 Z" />
<path fill="#0f0f0f" opacity="1.00" d=" M 1158.98 69.33 C 1160.96 67.18 1163.16 65.27 1165.37 63.35 C 1168.23 67.00 1169.53 71.43 1170.69 75.86 C 1163.11 75.95 1155.55 76.00 1148.00 76.05 C 1148.00 77.43 1148.01 80.21 1148.01 81.60 C 1153.41 81.21 1158.88 80.99 1164.28 81.75 C 1163.52 85.19 1162.75 88.61 1161.92 92.02 C 1163.56 91.23 1165.21 90.43 1166.88 89.66 C 1169.44 92.39 1172.05 95.08 1174.57 97.85 C 1173.60 99.18 1172.64 100.51 1171.69 101.84 C 1156.11 102.05 1140.54 102.16 1124.99 101.76 C 1125.55 93.16 1138.40 98.41 1138.65 89.37 C 1134.56 88.67 1132.03 86.37 1131.05 82.47 C 1134.40 82.20 1137.76 81.92 1141.14 81.63 C 1140.18 74.74 1132.49 75.77 1127.57 73.55 C 1128.50 72.47 1129.46 71.39 1130.41 70.31 C 1139.93 70.06 1149.45 69.89 1158.98 69.33 M 1146.15 86.90 C 1146.14 90.23 1146.17 93.57 1146.24 96.91 C 1149.18 95.72 1152.88 94.98 1154.68 92.02 C 1152.97 88.95 1149.25 87.78 1146.15 86.90 Z" />
<path fill="#0f0f0f" opacity="1.00" d=" M 824.34 66.29 C 826.90 66.18 829.46 66.07 832.04 65.96 C 832.65 69.21 833.25 72.45 833.66 75.74 C 831.52 76.97 829.02 77.61 826.80 78.47 C 825.46 75.17 823.95 71.95 822.30 68.81 C 822.97 67.97 823.65 67.13 824.34 66.29 Z" />
<path fill="#0f0f0f" opacity="1.00" d=" M 1113.80 78.00 C 1113.85 74.26 1110.24 68.26 1115.09 65.93 C 1117.31 66.27 1119.38 67.32 1121.17 68.66 C 1121.58 70.97 1122.40 75.58 1122.81 77.89 C 1119.78 77.93 1116.78 77.97 1113.80 78.00 Z" />
<path fill="#0f0f0f" opacity="1.00" d=" M 243.96 83.98 C 249.29 83.58 254.63 83.08 259.98 83.29 C 258.72 93.60 255.31 105.04 260.37 114.73 C 264.49 112.09 267.97 108.64 270.50 104.45 C 280.88 104.74 291.33 102.04 301.65 103.72 C 301.03 110.14 301.24 116.59 301.65 123.02 C 301.86 125.12 300.17 126.67 298.68 127.86 C 293.84 128.14 290.07 124.93 285.84 123.27 C 279.19 120.34 274.56 127.97 268.33 128.76 C 268.14 124.39 267.96 120.03 267.77 115.66 C 262.68 119.29 258.17 123.61 254.01 128.26 C 252.67 127.10 251.34 125.94 250.01 124.78 C 250.65 113.16 250.99 101.52 252.05 89.93 C 249.42 89.15 246.75 88.43 244.12 87.72 C 244.07 86.47 244.02 85.22 243.96 83.98 M 276.04 110.37 C 276.02 112.91 276.00 115.45 275.99 118.00 C 281.35 117.99 286.71 117.99 292.08 117.98 C 291.92 115.47 291.76 112.95 291.60 110.44 C 290.93 109.71 290.27 108.97 289.62 108.23 C 285.11 109.05 280.59 109.83 276.04 110.37 Z" />
<path fill="#0f0f0f" opacity="1.00" d=" M 530.83 84.70 C 536.23 82.17 542.24 82.82 547.95 83.84 C 547.97 94.30 548.01 104.76 548.30 115.22 C 554.67 114.50 558.06 109.66 560.27 104.28 C 570.71 106.01 581.32 105.04 591.83 105.67 C 590.27 114.01 593.55 124.56 585.93 130.62 C 583.78 128.67 581.81 126.43 579.23 125.03 C 575.29 124.43 571.36 124.11 567.42 123.78 C 565.37 126.60 563.30 130.58 559.19 130.13 C 556.03 125.95 557.08 120.60 557.71 115.82 C 552.00 119.51 546.73 123.80 542.78 129.42 C 541.09 125.61 538.39 121.82 538.88 117.45 C 539.60 108.01 539.95 98.56 539.94 89.10 C 536.74 87.91 533.73 86.45 530.83 84.70 M 566.00 110.00 C 565.99 112.66 565.99 115.33 566.00 118.00 C 570.67 118.00 575.31 118.00 580.00 118.00 C 579.99 115.33 579.99 112.67 580.00 110.00 C 575.34 110.00 570.64 109.99 566.00 110.00 Z" />
<path fill="#0f0f0f" opacity="1.00" d=" M 828.57 82.67 C 831.49 81.07 834.28 84.45 835.07 86.99 C 834.78 96.00 833.98 105.00 833.83 114.02 C 836.51 113.99 839.20 113.96 841.90 113.92 C 843.25 110.68 844.54 107.41 845.96 104.20 C 856.46 106.05 867.16 105.05 877.74 105.66 C 876.27 114.02 879.66 123.81 872.70 130.35 C 868.69 127.28 864.42 123.87 859.04 124.01 C 853.88 125.30 849.62 128.58 844.70 130.42 C 844.30 125.48 844.02 120.53 843.68 115.59 C 839.09 119.78 834.82 124.30 830.25 128.50 C 828.82 127.26 827.41 126.02 826.00 124.77 C 826.73 113.63 827.81 102.37 826.47 91.22 C 823.98 89.84 821.54 88.37 819.18 86.78 C 822.24 85.26 825.33 83.81 828.57 82.67 M 852.00 109.61 C 851.99 112.45 851.99 115.29 852.02 118.14 C 857.28 118.22 864.87 122.64 868.01 116.88 C 869.91 107.21 857.04 110.44 852.00 109.61 Z" />
<path fill="#0f0f0f" opacity="1.00" d=" M 1107.08 86.82 C 1112.53 85.46 1118.38 83.85 1124.00 85.33 C 1122.33 94.80 1122.02 104.43 1121.85 114.03 C 1124.51 114.00 1127.19 113.96 1129.89 113.92 C 1131.20 110.80 1132.47 107.65 1133.87 104.55 C 1144.38 106.70 1155.13 104.03 1165.65 105.71 C 1163.61 114.04 1167.48 122.98 1162.99 130.77 C 1157.73 128.40 1153.14 124.14 1147.05 124.07 C 1141.88 125.20 1137.66 128.54 1132.71 130.22 C 1132.27 125.86 1131.85 121.51 1131.47 117.16 C 1125.69 120.50 1121.37 125.67 1116.68 130.29 C 1112.22 117.57 1115.77 103.96 1115.99 90.92 C 1112.84 89.79 1109.94 88.47 1107.08 86.82 M 1139.99 110.23 C 1139.99 112.67 1140.00 117.55 1140.00 119.99 C 1144.91 120.02 1149.77 120.02 1154.74 120.02 C 1154.85 116.79 1154.69 113.56 1154.56 110.33 C 1149.71 111.29 1144.78 111.37 1139.99 110.23 Z" />
<path fill="#0f0f0f" opacity="1.00" d=" M 523.03 145.17 C 523.30 141.76 525.64 139.02 527.52 136.33 C 528.97 137.61 530.43 138.89 531.90 140.17 C 532.08 165.12 531.97 190.06 532.06 215.00 C 532.35 233.79 529.61 252.44 529.81 271.23 C 527.33 271.80 524.77 272.29 522.32 272.84 C 520.85 250.50 525.01 228.33 524.05 206.00 C 523.25 185.73 522.88 165.45 523.03 145.17 Z" />
<path fill="#0f0f0f" opacity="1.00" d=" M 200.41 138.49 C 204.39 139.35 209.93 141.35 207.91 146.98 C 207.96 187.57 209.13 228.25 205.57 268.72 C 203.38 270.03 200.81 270.48 198.43 271.30 C 197.68 257.85 198.02 244.37 199.62 231.00 C 200.85 200.18 199.19 169.31 200.41 138.49 Z" />
<path fill="#0f0f0f" opacity="1.00" d=" M 810.35 142.26 C 811.87 139.84 814.89 139.33 817.40 138.50 C 818.64 155.03 819.08 171.58 818.79 188.13 C 821.40 215.01 819.62 242.03 817.42 268.86 C 817.04 270.63 816.21 272.26 815.53 273.92 C 812.93 271.96 810.41 269.90 807.87 267.89 C 807.85 251.23 810.23 234.67 810.05 218.00 C 810.39 192.76 809.25 167.48 810.35 142.26 Z" />
<path fill="#0f0f0f" opacity="1.00" d=" M 1100.19 147.00 C 1098.82 142.56 1102.69 140.16 1105.25 137.64 C 1110.47 151.74 1107.15 167.33 1108.03 182.00 C 1108.75 213.40 1107.24 244.73 1105.68 276.08 C 1103.11 274.75 1100.10 274.06 1098.26 271.71 C 1097.79 265.14 1097.80 258.57 1098.29 252.00 C 1102.06 217.13 1098.79 181.98 1100.19 147.00 Z" />
<path fill="#0f0f0f" opacity="1.00" d=" M 165.06 279.53 C 168.64 280.60 172.19 281.82 175.71 283.09 C 174.41 286.42 172.86 289.65 171.24 292.84 C 177.06 292.04 182.39 289.59 187.86 287.60 C 189.35 291.50 190.91 295.37 192.16 299.36 C 191.23 300.16 190.31 300.98 189.40 301.80 C 188.36 301.18 187.33 300.55 186.29 299.94 C 182.33 305.66 177.38 310.58 172.81 315.81 C 180.41 316.11 188.01 317.32 195.62 316.58 C 196.35 317.18 197.08 317.77 197.81 318.37 C 197.97 328.04 197.97 337.71 197.82 347.38 C 196.00 348.24 194.20 349.14 192.42 350.08 C 190.33 347.73 188.38 345.21 186.74 342.53 C 180.49 342.24 174.24 342.00 168.00 341.81 C 166.58 344.18 165.11 346.52 163.65 348.87 C 160.91 347.77 155.77 348.28 154.60 344.60 C 154.33 340.93 153.79 333.61 153.52 329.94 C 148.22 333.08 142.35 335.15 136.35 336.49 C 134.85 327.42 145.17 328.28 150.28 324.96 C 154.16 322.01 157.67 318.51 160.74 314.72 C 162.68 312.38 160.57 309.37 160.09 306.89 C 154.96 308.79 151.51 313.14 147.00 315.95 C 145.16 315.03 143.57 313.70 141.95 312.47 C 151.82 303.13 158.73 291.42 165.06 279.53 M 164.79 298.46 C 166.07 301.72 168.61 304.24 170.69 306.99 C 173.23 303.52 175.42 299.78 176.83 295.70 C 172.78 296.45 168.68 297.07 164.79 298.46 M 166.39 321.96 C 165.41 325.95 165.30 330.12 166.22 334.14 C 173.48 334.07 180.73 334.02 188.00 333.97 C 188.00 329.98 188.00 325.99 188.00 322.01 C 180.79 321.98 173.59 321.96 166.39 321.96 Z" />
<path fill="#0f0f0f" opacity="1.00" d=" M 805.58 282.63 C 808.15 281.55 811.11 279.16 813.90 280.98 C 817.73 282.54 819.10 286.75 820.87 290.12 C 827.11 290.37 833.44 289.98 838.82 286.45 C 841.59 289.20 844.37 291.97 846.88 294.98 C 843.57 297.09 840.12 298.97 836.58 300.65 C 837.28 304.63 839.36 314.65 831.30 311.62 C 826.29 308.46 822.50 303.66 819.17 298.84 C 822.97 298.17 826.77 297.45 830.58 296.68 C 821.76 296.16 812.95 295.90 804.14 295.84 C 805.71 298.26 807.04 300.74 808.40 303.30 C 803.37 306.15 798.86 309.77 794.42 313.44 C 791.66 315.87 787.69 315.29 784.30 315.80 C 789.97 308.91 798.65 304.68 802.39 296.25 C 800.56 296.20 796.90 296.11 795.07 296.06 C 793.97 298.59 792.88 301.13 791.84 303.69 C 789.20 304.50 786.78 305.46 784.21 306.36 C 780.04 299.93 786.03 293.78 788.79 288.14 C 795.23 289.32 801.75 289.73 808.30 290.25 C 807.41 287.70 806.47 285.17 805.58 282.63 Z" />
<path fill="#0f0f0f" opacity="1.00" d=" M 499.29 280.82 C 502.10 281.39 504.85 281.95 507.69 282.55 C 507.19 288.46 506.48 294.34 505.97 300.25 C 511.09 297.96 516.58 296.68 522.23 297.14 C 520.78 312.85 520.95 328.95 515.81 344.04 C 512.60 344.64 509.35 345.35 506.11 345.55 C 503.08 344.58 500.56 342.50 497.80 340.99 C 497.92 340.46 498.17 339.38 498.30 338.85 C 502.67 337.34 508.19 336.29 510.77 331.95 C 514.10 323.05 513.72 313.35 514.38 304.01 C 511.90 304.01 506.94 304.02 504.47 304.02 C 505.18 318.64 499.67 333.12 489.83 343.83 C 486.60 347.35 481.16 345.37 477.01 345.19 C 479.69 341.97 483.09 339.52 486.41 337.02 C 484.63 335.26 482.84 333.53 481.03 331.83 C 474.90 334.25 468.82 336.85 462.49 338.70 C 461.84 335.25 458.33 330.69 461.97 328.01 C 466.62 324.09 469.54 318.60 470.57 312.60 C 466.27 313.37 461.94 312.68 457.79 311.43 C 457.98 309.68 458.18 307.95 458.40 306.21 C 467.36 305.73 476.38 307.35 485.32 306.16 C 487.65 301.27 492.54 299.93 497.56 299.42 C 498.07 293.21 498.16 286.95 499.29 280.82 M 495.38 304.22 C 494.55 306.64 493.89 309.17 493.05 311.59 C 488.43 312.68 482.38 310.95 478.97 314.94 C 475.60 318.72 473.90 323.63 472.44 328.38 C 475.23 327.85 478.10 327.63 480.84 326.77 C 482.23 323.89 482.55 320.61 483.43 317.56 C 488.10 319.94 491.26 324.22 494.58 328.14 C 496.96 320.30 497.52 312.07 498.07 303.95 C 497.40 304.01 496.05 304.15 495.38 304.22 Z" />
<path fill="#0f0f0f" opacity="1.00" d=" M 859.35 280.55 C 863.59 281.88 867.84 283.28 872.02 284.85 C 871.94 288.09 872.09 291.39 872.08 294.64 C 869.24 295.03 866.15 295.99 863.44 294.61 C 859.53 291.01 857.06 285.68 859.35 280.55 Z" />
<path fill="#0f0f0f" opacity="1.00" d=" M 533.54 284.71 C 535.60 283.68 537.64 282.51 539.91 281.99 C 544.41 284.84 547.90 289.12 549.19 294.39 C 546.92 294.98 544.65 295.71 542.29 295.72 C 538.66 292.66 535.95 288.75 533.54 284.71 Z" />
<path fill="#0f0f0f" opacity="1.00" d=" M 767.30 281.63 C 770.39 283.97 773.12 286.72 775.50 289.78 C 768.32 294.97 761.15 300.21 753.53 304.75 C 753.28 306.93 753.03 309.11 752.80 311.30 C 750.48 311.66 745.83 312.38 743.50 312.73 C 739.24 321.35 744.20 331.53 743.31 340.67 C 754.17 336.66 761.33 326.90 767.38 317.53 C 770.92 319.19 774.36 321.10 777.66 323.23 C 776.28 325.29 775.00 327.46 773.26 329.25 C 765.13 336.26 756.84 343.89 746.27 346.90 C 742.45 348.31 738.70 346.94 735.02 346.05 C 735.00 335.36 735.01 324.66 734.98 313.98 C 733.68 314.00 732.38 314.03 731.10 314.07 C 729.55 321.64 729.11 329.55 725.76 336.63 C 723.97 340.40 720.85 343.26 718.06 346.27 C 715.42 344.37 712.54 342.69 710.53 340.08 C 712.99 336.14 717.91 334.32 719.78 329.97 C 721.08 325.45 722.14 320.86 723.17 316.27 C 718.92 313.83 713.66 312.42 710.75 308.21 C 711.81 306.32 713.20 304.66 714.56 302.98 C 716.41 304.62 718.24 306.30 720.05 308.00 C 720.94 307.19 721.83 306.38 722.74 305.58 C 722.72 303.20 722.69 298.45 722.68 296.08 C 718.26 295.11 714.99 291.86 713.92 287.50 C 725.32 287.49 737.69 290.08 748.15 284.28 C 749.94 286.48 751.98 288.56 753.39 291.07 C 750.55 294.87 745.44 294.93 741.31 296.44 C 742.16 300.35 742.82 304.28 743.60 308.24 C 746.75 305.19 749.88 302.11 753.26 299.31 C 759.26 294.61 762.93 287.72 767.30 281.63 M 731.47 293.99 C 731.22 298.89 731.17 303.77 731.11 308.68 C 733.48 307.55 735.81 306.33 738.13 305.09 C 736.58 301.04 734.61 297.05 731.47 293.99 Z" />
<path fill="#0f0f0f" opacity="1.00" d=" M 1062.80 285.57 C 1065.38 284.60 1067.85 283.30 1070.38 282.14 C 1071.40 285.56 1072.19 289.02 1072.92 292.53 C 1069.69 291.89 1066.43 291.24 1063.23 290.62 C 1070.72 294.47 1068.40 303.84 1069.99 310.73 C 1073.13 322.38 1074.68 334.86 1072.33 346.78 C 1065.81 343.91 1059.83 338.23 1052.04 340.04 C 1047.75 341.41 1044.58 344.99 1040.48 346.78 C 1039.35 345.66 1038.24 344.55 1037.12 343.45 C 1038.08 333.09 1039.00 322.71 1039.16 312.30 C 1047.71 313.56 1056.35 313.89 1065.00 314.28 C 1064.98 312.80 1064.98 311.32 1064.98 309.84 C 1058.09 308.05 1051.39 309.99 1044.90 312.15 C 1043.78 305.49 1043.51 298.74 1044.17 292.02 C 1040.32 291.36 1036.76 289.77 1033.84 287.21 C 1043.17 282.73 1053.48 290.43 1062.80 285.57 M 1049.01 291.32 C 1049.01 292.00 1049.02 293.36 1049.02 294.04 C 1053.79 293.93 1058.52 293.76 1063.34 293.61 C 1058.54 292.85 1053.76 292.19 1049.01 291.32 M 1047.91 300.57 C 1050.50 302.46 1053.11 304.53 1056.25 305.45 C 1060.42 306.39 1063.02 302.90 1065.86 300.71 C 1060.05 298.51 1053.67 297.97 1047.91 300.57 M 1047.00 320.00 C 1046.99 321.33 1046.99 322.66 1047.00 324.00 C 1048.50 324.00 1051.50 324.00 1053.00 324.00 C 1052.99 322.66 1052.99 321.33 1053.00 320.00 C 1051.50 320.00 1048.50 320.00 1047.00 320.00 M 1059.02 320.06 C 1059.85 321.96 1060.68 323.86 1061.47 325.79 C 1062.62 325.88 1063.78 325.97 1064.96 326.07 C 1064.97 324.55 1064.99 321.52 1065.00 320.00 C 1063.50 320.02 1060.51 320.05 1059.02 320.06 M 1059.00 328.00 C 1058.98 329.33 1058.99 330.66 1059.00 332.00 C 1060.50 332.00 1063.50 332.00 1065.00 332.00 C 1064.99 330.66 1064.99 329.33 1065.00 328.00 C 1063.50 328.00 1060.50 328.00 1059.00 328.00 M 1047.00 330.00 C 1046.99 331.33 1046.99 332.66 1047.00 334.00 C 1048.32 334.00 1049.65 334.00 1051.00 334.00 C 1050.99 332.66 1050.99 331.33 1051.00 330.00 C 1049.65 329.99 1048.32 329.99 1047.00 330.00 Z" />
<path fill="#0f0f0f" opacity="1.00" d=" M 1088.15 281.81 C 1091.80 282.24 1095.56 282.89 1099.01 284.31 C 1095.31 303.34 1097.10 322.88 1098.06 342.08 C 1096.79 345.44 1093.52 350.00 1089.06 347.90 C 1084.48 346.00 1080.47 342.96 1076.87 339.60 C 1080.08 337.39 1083.84 336.30 1087.81 336.87 C 1088.07 326.66 1087.66 316.37 1089.20 306.25 C 1089.78 298.10 1088.09 289.96 1088.15 281.81 Z" />
<path fill="#0f0f0f" opacity="1.00" d=" M 1110.35 281.89 C 1113.58 282.51 1118.35 281.03 1120.73 284.22 C 1122.44 286.42 1123.75 289.07 1124.01 291.89 C 1122.83 293.69 1121.10 295.22 1119.04 295.90 C 1115.58 294.68 1112.80 292.13 1109.79 290.15 C 1109.96 287.39 1110.14 284.64 1110.35 281.89 Z" />
<path fill="#0f0f0f" opacity="1.00" d=" M 1130.43 286.42 C 1141.49 284.97 1153.93 287.79 1164.00 281.74 C 1165.87 283.52 1167.76 285.32 1169.65 287.13 C 1166.68 306.23 1168.94 325.63 1167.66 344.80 C 1166.31 347.20 1163.72 351.00 1160.59 349.31 C 1155.28 346.92 1150.12 343.55 1146.98 338.53 C 1151.27 336.97 1155.68 335.74 1159.99 334.17 C 1159.99 320.52 1160.01 306.87 1159.99 293.22 C 1149.90 292.85 1139.45 293.67 1129.77 290.36 C 1129.98 289.04 1130.20 287.73 1130.43 286.42 Z" />
<path fill="#0f0f0f" opacity="1.00" d=" M 252.36 287.34 C 256.51 287.52 259.86 284.59 263.76 283.73 C 266.10 284.24 268.16 285.52 270.26 286.62 C 266.65 303.62 269.21 320.92 270.05 338.03 C 271.64 343.65 265.68 349.49 260.10 347.69 C 255.70 346.42 251.10 344.42 248.08 340.86 C 247.01 334.97 256.68 337.05 259.82 335.05 C 259.47 321.06 260.90 307.07 260.49 293.10 C 251.13 293.00 241.76 292.97 232.40 292.75 C 232.41 291.15 232.41 287.96 232.42 286.37 C 239.05 286.96 245.70 287.28 252.36 287.34 Z" />
<path fill="#0f0f0f" opacity="1.00" d=" M 211.83 283.96 C 216.29 284.27 222.29 285.20 223.94 290.09 C 223.94 293.14 220.74 294.86 218.98 296.97 C 215.58 293.25 211.72 289.50 211.83 283.96 Z" />
<path fill="#0f0f0f" opacity="1.00" d=" M 573.61 286.81 C 581.15 286.14 589.17 283.34 596.50 286.68 C 595.57 293.82 592.82 300.69 593.05 307.98 C 593.72 319.56 594.66 331.19 593.71 342.79 C 592.07 346.30 588.23 349.10 584.10 347.81 C 579.70 346.14 576.11 342.80 573.09 339.27 C 575.69 338.72 580.90 337.61 583.51 337.06 C 584.48 334.16 585.58 331.14 585.22 328.02 C 584.21 317.12 583.93 306.18 583.90 295.24 C 574.11 295.36 564.25 295.08 554.93 291.80 C 556.28 289.92 557.52 287.88 559.40 286.48 C 564.12 286.28 568.88 286.89 573.61 286.81 Z" />
<path fill="#0f0f0f" opacity="1.00" d=" M 876.80 288.13 C 883.58 280.24 893.47 288.59 901.94 287.03 C 905.20 287.28 908.01 285.34 911.12 284.75 C 913.58 284.78 915.85 285.96 918.18 286.68 C 914.05 307.88 918.25 329.78 914.27 350.92 C 906.31 350.11 898.50 345.50 894.99 338.16 C 899.26 337.18 903.61 336.86 907.98 337.48 C 908.01 323.39 908.00 309.31 907.98 295.23 C 897.40 294.11 886.46 292.86 876.80 288.13 Z" />
<path fill="#0f0f0f" opacity="1.00" d=" M 461.76 288.45 C 471.27 289.83 480.89 289.36 489.89 285.71 C 491.01 288.34 492.15 290.96 493.23 293.60 C 492.38 294.37 491.53 295.14 490.70 295.92 C 481.87 295.95 473.01 296.51 464.22 295.74 C 462.36 293.82 462.45 290.85 461.76 288.45 Z" />
<path fill="#0f0f0f" opacity="1.00" d=" M 1078.18 291.20 C 1080.23 288.81 1082.86 291.74 1085.03 292.55 C 1082.41 306.61 1085.87 321.16 1081.94 335.09 C 1080.00 333.74 1077.88 332.53 1076.48 330.58 C 1075.45 319.06 1075.61 307.47 1076.01 295.93 C 1075.95 294.10 1076.71 292.32 1078.18 291.20 Z" />
<path fill="#0f0f0f" opacity="1.00" d=" M 1127.92 298.45 C 1137.45 298.16 1146.85 296.16 1156.37 295.65 C 1155.44 298.37 1155.14 301.26 1154.26 303.99 C 1148.04 304.05 1141.88 304.07 1135.70 304.11 C 1136.53 305.27 1137.39 306.42 1138.25 307.58 C 1143.39 307.38 1148.65 306.81 1153.79 307.72 C 1152.85 314.81 1152.00 322.04 1153.94 329.07 C 1152.34 330.69 1150.75 332.31 1149.17 333.95 C 1146.59 331.55 1143.91 329.24 1140.99 327.27 C 1139.60 329.84 1139.41 332.76 1138.28 335.40 C 1129.87 332.06 1124.70 339.69 1119.89 344.88 C 1117.06 348.51 1113.68 342.77 1113.12 339.97 C 1112.18 329.37 1114.41 318.75 1116.04 308.30 C 1112.30 306.56 1108.50 304.98 1105.00 302.80 C 1110.33 300.67 1115.89 299.17 1121.49 297.91 C 1122.26 298.79 1123.04 299.68 1123.84 300.56 C 1123.10 309.55 1122.19 318.52 1121.95 327.54 C 1123.00 328.39 1124.07 329.25 1125.14 330.11 C 1128.18 327.96 1132.08 326.04 1132.84 322.00 C 1133.54 316.82 1133.64 311.53 1133.13 306.32 C 1133.07 303.47 1130.10 302.16 1128.24 300.53 C 1128.16 300.01 1128.00 298.97 1127.92 298.45 M 1139.85 313.93 C 1140.10 317.01 1140.38 320.10 1140.69 323.19 C 1143.81 321.10 1146.57 318.35 1147.04 314.31 C 1145.24 314.22 1141.65 314.03 1139.85 313.93 Z" />
<path fill="#0f0f0f" opacity="1.00" d=" M 229.79 300.51 C 238.61 300.40 247.55 299.91 255.55 295.83 C 256.48 298.53 257.46 301.22 258.37 303.93 C 249.67 303.97 240.99 303.95 232.30 303.85 C 231.46 302.73 230.62 301.62 229.79 300.51 Z" />
<path fill="#0f0f0f" opacity="1.00" d=" M 569.87 299.26 C 573.31 298.57 576.25 296.46 579.57 295.41 C 580.62 298.21 581.46 301.02 582.43 303.88 C 572.61 305.31 562.63 305.35 552.86 303.50 C 553.98 301.86 555.03 300.13 556.52 298.78 C 560.97 298.40 565.40 299.49 569.87 299.26 Z" />
<path fill="#0f0f0f" opacity="1.00" d=" M 898.32 295.40 C 901.21 297.01 906.64 297.33 906.02 301.77 C 901.96 304.08 896.82 305.52 892.29 303.81 C 889.33 302.83 886.19 304.11 883.25 304.48 C 888.28 307.15 893.89 309.67 899.72 308.60 C 900.28 309.19 900.87 309.79 901.46 310.38 C 900.94 317.43 900.94 324.51 901.53 331.56 C 899.98 333.09 898.44 334.64 896.91 336.20 C 894.58 332.70 893.04 328.31 888.54 327.01 C 888.30 329.90 888.08 332.80 887.89 335.70 C 884.71 336.17 880.53 333.15 877.62 335.59 C 873.31 339.09 869.80 343.44 865.63 347.08 C 863.27 343.89 859.72 340.35 860.85 336.01 C 863.25 326.91 862.67 317.42 863.88 308.16 C 860.38 306.24 856.83 304.39 853.32 302.50 C 858.60 300.61 864.05 299.16 869.53 297.92 C 870.23 298.78 870.95 299.64 871.68 300.51 C 871.92 310.03 871.96 319.57 872.22 329.10 C 884.92 327.72 881.29 312.11 881.93 303.51 C 879.19 302.12 876.85 300.51 874.56 298.57 C 882.29 298.31 890.32 297.57 897.85 299.91 C 897.99 298.40 898.15 296.90 898.32 295.40 M 887.72 323.12 C 889.92 321.94 892.25 320.83 894.00 318.99 C 893.32 316.15 891.93 313.56 890.69 310.95 C 888.69 314.68 887.78 318.87 887.72 323.12 Z" />
<path fill="#0f0f0f" opacity="1.00" d=" M 531.43 302.88 C 534.49 301.35 537.56 299.55 540.94 298.87 C 543.43 299.50 545.68 300.77 547.99 301.86 C 547.99 311.92 547.99 321.98 548.07 332.04 C 551.27 330.38 554.51 328.79 557.82 327.37 C 556.76 321.03 556.60 314.62 557.97 308.31 C 563.83 308.84 569.74 309.19 575.62 308.62 C 576.38 309.21 577.15 309.79 577.92 310.37 C 577.81 317.43 578.57 324.61 577.56 331.63 C 574.16 336.67 568.41 329.70 564.29 329.62 C 564.19 331.14 564.01 334.19 563.91 335.71 C 560.62 336.12 555.87 332.89 553.06 335.99 C 549.51 339.28 546.73 343.31 543.04 346.46 C 540.80 343.09 538.25 339.56 538.67 335.23 C 539.41 325.52 540.05 315.79 540.09 306.04 C 537.22 304.94 534.28 303.91 531.43 302.88 M 564.00 314.00 C 564.00 316.50 564.00 321.50 564.00 324.00 C 565.50 324.00 568.50 324.00 570.00 324.00 C 570.00 321.50 570.00 316.50 570.00 314.00 C 568.50 314.00 565.50 314.00 564.00 314.00 Z" />
<path fill="#0f0f0f" opacity="1.00" d=" M 209.22 302.19 C 214.05 301.21 219.07 300.20 223.98 301.24 C 222.54 311.09 222.01 321.05 221.97 331.01 C 232.48 330.37 234.43 318.51 232.91 310.22 C 234.25 308.77 235.59 307.32 236.94 305.88 C 238.23 307.17 239.53 308.45 240.83 309.72 C 245.27 309.07 249.79 308.45 254.25 309.23 C 254.13 316.42 254.36 323.66 253.69 330.84 C 252.88 333.16 250.33 335.36 247.53 333.71 C 245.70 331.80 244.22 329.59 242.58 327.53 C 241.47 330.07 240.44 332.62 239.47 335.22 C 235.46 336.32 230.39 335.01 227.07 338.02 C 223.91 340.67 221.18 343.79 218.17 346.61 C 216.85 345.63 215.54 344.65 214.22 343.68 C 215.13 334.00 215.16 324.27 215.35 314.55 C 215.87 309.54 211.20 306.32 209.22 302.19 M 239.28 323.88 C 241.20 323.86 245.04 323.82 246.96 323.80 C 245.78 319.40 244.86 314.94 242.97 310.79 C 241.14 314.96 240.34 319.46 239.28 323.88 Z" />
<path fill="#0f0f0f" opacity="1.00" d=" M 767.16 299.87 C 769.26 301.91 771.39 303.96 773.47 306.04 C 767.67 313.12 760.11 318.42 752.98 324.04 C 750.28 326.50 746.90 325.11 744.18 323.53 C 753.73 317.67 761.02 309.12 767.16 299.87 Z" />
<path fill="#0f0f0f" opacity="1.00" d=" M 809.21 305.62 C 814.20 305.75 819.81 307.58 821.16 313.16 C 829.99 317.24 839.35 320.08 849.12 320.76 C 847.46 328.53 838.48 329.49 832.03 328.91 C 831.12 334.75 836.88 343.01 831.57 347.76 C 825.29 349.79 821.48 343.58 815.97 342.45 C 809.15 343.40 802.98 347.01 796.20 348.21 C 796.14 342.12 797.14 336.13 798.13 330.16 C 793.05 332.95 787.74 335.38 782.06 336.66 C 782.40 334.22 781.85 331.01 784.41 329.61 C 794.29 323.68 803.36 315.66 809.21 305.62 M 807.02 321.69 C 811.46 321.81 815.90 321.90 820.36 321.96 C 819.41 319.08 818.37 316.22 817.40 313.35 C 812.51 314.03 808.98 317.42 807.02 321.69 M 803.69 327.88 C 804.34 330.55 805.13 333.27 805.87 335.95 C 811.42 336.02 816.99 336.07 822.58 336.12 C 823.26 333.53 824.63 330.14 821.61 328.47 C 815.74 327.25 809.61 328.21 803.69 327.88 Z" />
<path fill="#0f0f0f" opacity="1.00" d=" M 526.33 447.40 C 532.68 447.62 538.69 450.22 545.06 450.54 C 555.34 451.86 565.72 449.33 575.99 450.70 C 576.06 468.78 575.04 487.05 578.46 504.92 C 575.52 505.45 572.45 506.81 569.47 506.05 C 555.69 501.32 540.57 502.11 526.38 504.64 C 525.67 503.94 524.97 503.26 524.27 502.58 C 524.03 485.70 523.56 468.81 524.03 451.95 C 524.00 450.13 524.99 448.55 526.33 447.40 M 533.81 456.93 C 534.06 459.63 534.56 465.04 534.81 467.74 C 537.13 464.47 539.07 460.95 540.67 457.28 C 538.95 457.19 535.52 457.02 533.81 456.93 M 554.15 456.71 C 553.27 458.61 552.40 460.52 551.59 462.45 C 555.30 461.68 559.01 461.17 562.82 460.86 C 561.57 465.48 558.90 469.41 555.77 472.93 C 559.80 473.93 563.85 474.64 567.94 475.47 C 567.95 469.98 567.97 464.50 567.98 459.02 C 563.38 458.24 558.76 457.36 554.15 456.71 M 550.00 465.00 C 549.99 466.33 549.99 467.66 550.00 469.00 C 550.50 469.00 551.50 469.00 552.00 469.00 C 552.00 467.66 552.00 466.33 552.00 465.00 C 551.50 465.00 550.50 465.00 550.00 465.00 M 533.15 479.07 C 536.97 477.59 540.78 476.08 544.53 474.40 C 542.51 473.21 540.50 472.04 538.52 470.81 C 536.10 473.10 533.72 475.55 533.15 479.07 M 551.90 479.27 C 553.62 481.83 555.33 484.41 556.72 487.19 C 549.82 486.46 543.31 483.36 536.32 483.45 C 533.27 486.46 534.71 491.44 533.40 495.14 C 538.53 496.08 543.72 496.71 548.96 496.43 C 546.26 494.66 543.32 493.19 540.32 492.07 C 540.19 490.92 540.06 489.78 539.95 488.65 C 548.97 490.00 559.63 489.81 566.03 497.40 C 567.42 493.02 567.83 488.40 568.60 483.91 C 562.91 482.76 557.19 481.69 551.90 479.27 Z" />
<path fill="#0f0f0f" opacity="1.00" d=" M 691.50 472.32 C 694.23 470.94 696.32 468.55 699.09 467.24 C 704.43 468.59 708.14 472.98 711.73 476.85 C 710.04 478.83 708.31 480.79 706.60 482.77 C 688.03 483.14 669.46 483.02 650.89 482.96 C 650.15 480.41 649.37 477.80 648.71 475.27 C 657.46 475.07 666.22 473.84 674.99 474.35 C 680.53 474.21 686.42 475.24 691.50 472.32 Z" />
</g>
</svg>
