<?xml version="1.0" encoding="UTF-8" ?>
<!DOCTYPE svg PUBLIC "-//W3C//DTD SVG 1.1//EN" "http://www.w3.org/Graphics/SVG/1.1/DTD/svg11.dtd">
<svg width="1568pt" height="792pt" viewBox="0 0 1568 792" version="1.1" xmlns="http://www.w3.org/2000/svg">
<g id="#fefefeff">
</g>
<g id="#141414ff">
<path fill="#141414" opacity="1.00" d=" M 1360.03 29.49 C 1361.10 28.54 1362.17 27.58 1363.27 26.63 C 1366.29 28.14 1369.29 29.70 1372.29 31.28 C 1371.30 36.87 1369.17 42.23 1368.52 47.87 C 1370.25 53.75 1377.86 49.36 1382.46 49.47 C 1382.03 43.27 1380.75 37.20 1379.53 31.12 C 1382.25 30.38 1384.83 29.68 1387.71 29.32 C 1392.01 32.91 1395.63 37.38 1400.69 40.03 C 1400.78 46.77 1406.67 49.73 1410.98 53.56 C 1405.10 57.18 1397.89 56.71 1391.43 58.61 C 1393.02 64.07 1394.53 69.66 1397.57 74.51 C 1401.78 78.93 1406.43 82.94 1410.72 87.29 C 1407.98 89.29 1405.74 92.23 1402.37 93.16 C 1395.78 86.51 1390.97 78.13 1388.37 69.14 C 1385.75 74.33 1383.94 79.95 1380.74 84.83 C 1377.90 88.58 1374.53 91.94 1370.95 94.98 C 1367.96 97.67 1363.51 96.34 1359.99 95.65 C 1361.25 87.29 1361.71 78.83 1361.82 70.38 C 1358.10 74.76 1354.77 79.46 1350.76 83.58 C 1348.64 80.74 1346.14 77.91 1345.94 74.13 C 1349.62 68.26 1359.02 68.25 1360.78 60.98 C 1361.18 59.46 1361.99 56.43 1362.39 54.92 C 1359.74 57.76 1356.81 60.41 1353.09 61.76 C 1351.38 55.24 1348.16 49.31 1345.26 43.28 C 1347.84 42.48 1350.19 41.77 1352.91 41.22 C 1356.56 43.79 1358.46 47.99 1361.08 51.47 C 1360.42 44.16 1360.16 36.82 1360.03 29.49 M 1390.07 40.89 C 1390.06 42.41 1390.05 45.45 1390.04 46.97 L 1395.40 46.65 C 1393.64 44.71 1391.85 42.80 1390.07 40.89 M 1368.30 60.18 C 1367.94 68.27 1369.72 76.39 1368.50 84.51 C 1369.21 85.37 1369.93 86.24 1370.67 87.11 C 1380.51 81.16 1379.47 68.70 1381.74 58.96 C 1377.50 58.21 1370.20 54.48 1368.30 60.18 Z" />
<path fill="#141414" opacity="1.00" d=" M 1418.77 34.25 C 1420.70 33.31 1422.65 32.37 1424.60 31.41 C 1426.84 33.81 1429.15 36.16 1431.47 38.49 C 1436.91 34.86 1443.77 35.62 1450.00 34.74 C 1458.57 34.73 1466.91 30.24 1475.50 32.39 C 1474.61 36.02 1473.69 39.59 1472.78 43.20 C 1467.31 42.98 1461.86 40.72 1456.39 41.42 C 1454.58 42.84 1453.29 44.79 1451.95 46.62 C 1457.08 46.33 1462.17 45.55 1467.28 44.91 C 1468.14 49.53 1467.56 54.19 1467.12 58.83 C 1470.99 57.70 1475.25 57.12 1478.84 59.46 C 1480.76 63.12 1477.93 67.04 1474.25 66.38 C 1459.22 64.70 1443.93 64.12 1429.04 67.10 C 1428.98 70.92 1428.96 74.75 1428.97 78.57 C 1431.79 78.38 1434.65 78.31 1437.44 78.87 C 1433.87 82.90 1431.13 87.58 1427.46 91.49 C 1425.68 94.09 1422.95 91.14 1420.84 90.48 C 1422.86 80.19 1423.43 69.57 1421.28 59.25 C 1419.23 58.96 1415.13 58.38 1413.08 58.09 C 1417.80 54.91 1423.39 53.41 1428.97 52.53 C 1429.87 55.53 1430.57 58.54 1431.48 61.56 C 1436.87 61.07 1442.29 59.72 1446.01 55.55 C 1441.78 54.22 1437.34 53.36 1433.08 52.35 C 1433.05 51.25 1433.03 50.15 1433.04 49.04 C 1438.08 47.39 1443.32 46.18 1448.18 43.93 C 1444.20 42.20 1439.85 40.07 1435.42 41.38 C 1432.22 43.14 1429.83 46.40 1425.87 46.57 C 1423.17 42.66 1420.94 38.46 1418.77 34.25 M 1451.60 53.33 C 1450.69 55.21 1449.74 57.07 1448.79 58.92 C 1452.08 60.21 1455.40 61.05 1458.90 61.78 C 1458.93 58.83 1458.96 55.87 1459.01 52.91 C 1456.52 53.05 1454.05 53.19 1451.60 53.33 Z" />
<path fill="#141414" opacity="1.00" d=" M 973.22 35.30 C 975.80 34.49 978.22 33.77 980.93 33.22 C 985.13 35.84 986.95 40.74 988.81 45.08 C 995.94 45.17 1003.04 44.36 1009.97 42.64 C 1010.54 44.83 1010.81 47.03 1011.16 49.28 C 1009.85 50.94 1008.19 52.28 1006.95 53.98 C 1006.44 57.97 1008.86 61.33 1010.26 64.83 C 1003.64 64.96 997.03 65.12 990.43 65.31 C 989.05 66.82 987.65 68.32 986.26 69.81 C 987.07 71.53 987.84 73.26 988.61 75.01 C 993.27 74.66 997.88 73.56 1002.57 73.45 C 1003.96 74.77 1005.07 76.35 1006.29 77.83 C 1005.35 78.77 1004.44 79.73 1003.54 80.69 C 999.20 80.37 994.84 79.30 990.47 79.77 C 986.40 81.67 986.51 86.61 985.80 90.44 C 993.54 91.82 1001.38 92.00 1009.24 91.75 C 1011.29 91.46 1013.05 92.62 1014.43 94.02 C 1013.19 97.95 1009.59 101.84 1004.98 100.92 C 996.22 101.00 986.73 102.45 978.64 98.24 C 974.40 95.45 971.35 91.25 968.72 86.99 C 968.19 87.04 967.12 87.15 966.58 87.20 C 964.97 92.98 961.47 98.11 957.34 102.38 C 954.00 102.76 950.73 102.75 947.42 102.47 C 951.11 97.52 955.10 92.78 958.44 87.57 C 960.91 83.11 961.09 77.78 963.37 73.27 C 965.33 70.87 968.95 71.33 971.79 70.45 C 971.72 74.56 969.44 79.22 971.95 82.97 C 973.48 85.87 976.97 86.79 979.58 88.34 C 979.83 81.16 979.99 73.99 980.07 66.82 C 974.36 66.05 968.56 65.32 962.85 66.50 C 958.28 67.27 954.73 62.94 952.42 59.51 C 951.58 52.39 956.42 46.17 961.14 41.49 C 966.90 43.08 972.68 44.56 978.66 45.27 C 977.10 41.81 975.07 38.60 973.22 35.30 M 966.19 51.08 C 964.94 54.34 963.64 57.58 962.49 60.87 C 974.32 61.00 986.15 61.02 998.00 61.02 C 998.00 58.51 998.00 53.50 998.00 50.99 C 987.39 51.00 976.78 51.00 966.19 51.08 Z" />
<path fill="#141414" opacity="1.00" d=" M 1025.38 35.00 C 1027.43 34.65 1029.48 34.00 1031.60 33.96 C 1033.97 35.53 1035.46 38.05 1037.05 40.35 C 1050.06 35.40 1064.84 39.28 1077.35 32.46 C 1078.80 34.60 1080.56 36.60 1081.49 39.05 C 1081.08 42.49 1078.91 46.07 1075.07 46.03 C 1070.90 45.25 1066.88 43.28 1062.54 43.64 C 1061.13 45.03 1060.05 46.71 1058.93 48.32 C 1063.38 49.70 1070.01 45.19 1073.63 49.38 C 1076.90 52.55 1074.08 57.39 1074.12 61.33 C 1076.31 60.58 1078.50 59.78 1080.69 58.98 C 1082.50 60.81 1084.33 62.64 1086.19 64.46 C 1085.09 66.04 1083.98 67.60 1082.88 69.16 C 1067.34 66.48 1051.62 69.34 1036.00 69.11 C 1035.98 73.04 1035.98 76.97 1036.00 80.90 C 1038.76 81.00 1041.53 81.10 1044.31 81.21 C 1040.74 85.07 1037.46 89.18 1034.26 93.34 C 1032.80 95.73 1029.96 93.78 1027.87 93.55 C 1028.18 84.09 1031.50 73.93 1027.61 64.77 C 1024.81 63.00 1021.96 61.49 1019.22 59.66 C 1023.97 57.86 1028.75 55.83 1033.82 55.13 C 1035.29 58.33 1035.80 61.86 1036.72 65.25 C 1041.11 64.53 1045.56 63.73 1049.97 62.98 C 1049.96 60.26 1049.96 57.55 1049.97 54.84 C 1046.70 55.59 1043.36 56.35 1040.13 57.08 C 1039.27 55.34 1038.43 53.60 1037.63 51.84 C 1042.71 50.00 1053.36 51.93 1052.23 43.08 C 1044.99 41.56 1038.64 45.12 1033.47 49.64 C 1029.17 45.83 1026.39 40.67 1025.38 35.00 M 1054.66 62.68 C 1057.70 62.71 1063.78 62.75 1066.83 62.78 C 1065.76 60.29 1065.10 57.70 1063.74 55.37 C 1059.75 56.40 1054.76 57.26 1054.66 62.68 Z" />
<path fill="#141414" opacity="1.00" d=" M 59.49 42.46 C 62.44 43.41 66.58 42.42 69.09 44.87 C 73.56 48.38 73.97 54.43 76.07 59.35 C 81.42 57.92 87.09 56.87 91.50 53.29 C 93.50 54.62 95.65 55.80 97.32 57.57 C 97.23 60.06 97.01 62.57 96.68 65.05 C 88.30 65.05 79.91 65.01 71.53 65.02 C 72.13 69.83 72.50 74.70 73.58 79.45 C 80.25 77.82 87.15 74.36 94.14 76.31 C 94.09 79.20 94.04 82.09 93.98 84.99 C 86.62 84.99 79.27 85.01 71.91 85.01 C 72.01 89.61 72.08 94.22 72.25 98.83 C 80.93 98.85 89.73 99.34 98.21 97.15 C 99.00 100.40 99.68 103.68 100.37 106.97 C 79.26 107.30 57.67 104.98 37.19 111.29 C 36.10 108.96 35.02 106.64 33.95 104.30 C 35.73 102.56 37.51 100.81 39.28 99.06 C 47.52 99.36 55.79 100.57 64.05 99.77 C 64.04 94.72 64.05 89.68 63.97 84.64 C 57.38 84.96 50.76 85.24 44.36 86.95 C 42.03 83.69 42.31 79.90 44.51 76.66 C 50.16 77.46 55.82 78.29 61.50 78.96 C 62.21 78.14 62.93 77.33 63.65 76.52 C 63.79 72.57 63.92 68.63 64.05 64.68 C 56.77 65.21 49.48 65.80 42.27 66.99 C 41.29 63.99 40.46 60.94 39.77 57.87 C 48.57 56.43 57.38 58.00 66.08 59.11 C 63.76 53.61 61.20 48.19 59.49 42.46 Z" />
<path fill="#141414" opacity="1.00" d=" M 133.76 46.06 C 135.52 44.09 137.69 41.98 140.82 43.06 C 144.39 45.48 146.30 49.49 148.50 53.05 C 155.27 53.08 161.96 51.14 168.71 51.36 C 170.60 52.92 171.66 55.20 172.84 57.29 C 168.21 59.58 163.83 62.31 159.51 65.13 C 158.17 62.51 156.65 60.02 154.66 57.85 C 155.02 60.95 155.51 64.03 155.97 67.12 C 147.08 68.53 137.99 67.76 129.15 69.71 C 131.71 71.49 134.29 73.77 137.51 74.13 C 145.40 73.59 153.24 72.43 161.10 71.57 C 163.34 71.27 164.89 73.30 166.63 74.35 C 165.62 75.80 164.61 77.26 163.61 78.73 C 159.06 78.84 154.53 78.96 149.99 79.06 C 150.00 81.91 150.02 84.75 150.05 87.59 C 155.88 87.04 161.77 86.25 167.03 83.52 C 168.65 85.09 170.28 86.66 171.91 88.24 C 171.83 88.83 171.65 90.01 171.56 90.60 C 165.13 90.82 158.69 90.98 152.26 91.16 C 151.49 92.28 150.70 93.38 149.92 94.49 C 157.10 97.07 166.81 97.94 169.51 106.36 C 168.43 107.40 167.36 108.45 166.29 109.50 C 157.63 105.12 148.14 100.41 143.57 91.33 C 141.14 91.99 138.69 92.60 136.27 93.24 C 136.86 95.62 137.39 97.99 137.95 100.39 C 128.04 104.06 119.56 110.96 109.15 113.37 C 112.43 102.13 128.44 102.95 131.32 91.20 C 123.28 90.25 113.62 95.85 106.79 89.73 C 111.72 87.88 117.00 87.43 122.15 86.55 C 123.52 79.54 123.64 72.41 122.35 65.37 C 123.03 64.79 123.72 64.21 124.40 63.63 C 132.03 65.35 139.90 63.47 146.67 59.83 C 139.07 59.17 130.64 54.98 123.36 59.36 C 119.57 62.01 118.31 68.33 112.31 66.97 C 108.75 61.31 113.79 55.85 116.17 50.90 C 123.45 51.58 130.69 52.64 137.99 53.20 C 136.43 50.92 134.62 48.73 133.76 46.06 M 129.67 79.08 C 130.53 81.83 131.50 84.54 132.41 87.27 C 135.17 87.05 137.89 86.75 140.65 86.43 C 142.65 84.60 141.43 81.04 142.93 79.09 C 138.51 79.07 134.09 79.07 129.67 79.08 Z" />
<path fill="#141414" opacity="1.00" d=" M 183.24 44.45 C 187.60 46.10 191.60 48.64 196.03 50.07 C 208.72 50.11 221.39 48.74 233.48 44.76 C 233.71 48.32 233.85 51.89 233.71 55.45 C 228.15 54.97 222.72 53.73 217.29 52.55 C 216.45 54.33 215.55 56.10 215.02 58.01 C 217.45 62.75 223.49 59.28 227.25 59.25 C 228.25 63.50 229.07 67.78 229.97 72.05 C 233.04 70.64 235.96 68.92 238.76 67.03 C 240.72 69.73 242.83 72.46 243.16 75.96 C 240.80 78.84 237.00 80.67 233.24 80.14 C 219.53 78.88 205.75 78.86 191.99 78.96 C 192.00 83.02 192.02 87.07 192.04 91.13 C 194.73 90.54 197.48 89.94 200.19 89.32 C 198.78 94.54 195.58 99.10 192.15 103.19 C 189.94 106.40 185.86 103.05 182.87 102.71 C 184.73 93.63 184.92 84.32 185.15 75.09 C 181.96 73.63 178.63 72.43 175.61 70.62 C 178.28 65.40 185.58 65.40 190.56 65.31 C 194.29 69.09 196.06 74.98 202.15 75.83 C 202.95 74.68 203.75 73.53 204.57 72.39 C 204.73 70.04 204.89 67.68 205.04 65.33 C 203.35 64.86 199.95 63.92 198.26 63.45 C 201.34 61.08 204.70 59.11 208.06 57.17 C 205.40 53.58 200.93 52.51 196.71 54.15 C 194.52 56.15 192.68 58.52 190.69 60.71 C 189.99 60.81 188.60 61.02 187.90 61.12 C 185.78 55.75 183.34 50.32 183.24 44.45 M 212.40 73.70 C 217.31 72.91 223.19 70.99 221.60 64.30 C 216.68 65.09 210.81 67.01 212.40 73.70 Z" />
<path fill="#141414" opacity="1.00" d=" M 649.22 49.33 C 661.64 49.82 673.87 47.88 686.08 45.97 C 686.03 48.89 686.01 51.81 685.99 54.74 C 682.23 54.83 674.70 55.00 670.94 55.09 C 667.78 54.85 666.58 58.29 664.92 60.30 C 669.61 61.54 676.56 57.11 680.15 61.87 C 683.22 64.61 680.09 69.26 680.33 72.49 C 686.11 69.86 690.77 73.54 693.31 78.36 C 689.10 79.77 684.67 80.49 680.36 81.38 C 686.96 88.50 682.80 99.79 683.96 108.50 C 682.08 109.28 680.23 110.10 678.40 110.96 C 677.25 108.92 676.17 106.84 675.17 104.73 C 666.83 104.24 659.83 108.23 652.51 111.31 C 652.88 101.98 651.92 92.49 654.19 83.32 C 662.11 83.12 670.05 83.01 678.00 82.95 C 677.99 81.61 677.99 80.26 678.00 78.92 C 666.34 79.19 654.47 78.05 643.02 80.77 C 643.00 84.79 642.99 88.81 643.00 92.83 C 645.83 92.27 648.67 91.75 651.55 91.46 C 648.01 97.48 643.68 103.07 638.48 107.73 C 636.94 106.40 635.42 105.06 633.89 103.74 C 634.03 95.45 634.52 87.17 635.64 78.96 C 635.98 75.10 631.27 73.01 628.93 71.12 C 632.94 68.39 637.67 67.35 642.44 66.83 C 642.66 69.55 642.89 72.27 643.14 74.99 C 647.42 74.99 651.74 74.99 656.05 74.99 C 655.96 72.51 655.90 70.03 655.85 67.55 C 653.34 66.63 651.12 65.70 648.74 64.66 C 654.03 64.05 658.97 61.47 658.83 55.35 C 654.69 55.11 650.56 54.86 646.45 54.61 C 646.35 54.02 646.15 52.83 646.05 52.24 C 647.10 51.27 648.16 50.30 649.22 49.33 M 661.16 74.77 C 664.35 74.89 667.55 74.99 670.75 75.07 C 671.14 71.39 671.07 67.62 669.75 64.11 C 665.83 66.71 662.85 70.39 661.16 74.77 M 660.30 88.50 C 660.65 91.00 661.36 95.99 661.71 98.48 C 665.26 101.26 670.08 101.06 674.28 101.74 C 675.25 98.05 675.99 94.31 676.69 90.57 C 671.33 89.23 665.75 89.05 660.30 88.50 Z" />
<path fill="#141414" opacity="1.00" d=" M 559.98 46.13 C 567.42 48.36 573.31 54.86 574.47 62.59 C 573.74 63.57 572.86 64.44 571.92 65.20 C 565.69 62.79 561.16 57.49 557.15 52.35 C 558.14 50.30 559.06 48.22 559.98 46.13 Z" />
<path fill="#141414" opacity="1.00" d=" M 579.52 49.41 C 590.98 50.57 603.46 53.10 613.85 46.74 C 615.46 48.35 617.07 49.96 618.71 51.54 C 617.55 61.36 617.29 71.34 614.77 80.95 C 613.39 87.23 613.58 93.74 614.22 100.11 C 615.53 104.65 613.87 109.57 610.48 112.67 C 604.40 115.56 602.07 109.37 598.96 105.93 C 601.90 104.33 604.81 102.68 607.60 100.83 C 601.63 99.74 595.51 99.83 589.51 100.62 C 590.49 105.56 591.06 114.13 583.26 113.87 C 582.88 103.00 583.70 92.03 582.28 81.23 C 579.15 71.62 578.01 61.51 577.00 51.49 C 577.83 50.80 578.67 50.10 579.52 49.41 M 587.00 57.00 C 586.99 58.33 586.99 59.67 587.00 61.00 C 588.50 61.00 591.50 61.00 593.00 61.00 C 592.99 59.67 592.99 58.33 593.00 57.00 C 591.50 57.00 588.50 57.00 587.00 57.00 M 600.91 56.69 C 601.01 58.34 601.12 59.98 601.24 61.63 C 604.10 60.44 607.06 59.27 609.79 57.74 C 606.83 57.35 603.87 57.00 600.91 56.69 M 587.00 65.00 C 586.99 66.33 586.99 67.67 587.00 69.00 C 588.50 69.00 591.50 69.00 593.00 69.00 C 592.99 67.67 592.99 66.33 593.00 65.00 C 591.50 65.00 588.50 65.00 587.00 65.00 M 601.00 65.00 C 600.99 66.33 600.99 67.67 601.00 69.00 C 603.66 69.00 606.32 69.00 609.00 69.00 C 608.99 67.67 608.99 66.33 609.00 65.00 C 606.32 65.00 603.66 65.00 601.00 65.00 M 585.96 75.73 C 591.13 80.16 598.43 78.43 604.67 79.23 C 605.51 77.82 606.37 76.42 607.21 75.01 C 600.23 73.13 592.88 74.00 585.96 75.73 M 592.94 81.34 C 592.11 83.13 591.30 84.93 590.54 86.75 C 595.89 85.51 603.10 87.71 605.99 81.65 C 601.64 81.78 597.27 81.80 592.94 81.34 M 590.68 91.09 C 591.56 92.37 592.45 93.64 593.33 94.92 C 597.94 93.55 602.63 92.54 607.32 91.46 C 601.76 91.28 596.22 91.15 590.68 91.09 Z" />
<path fill="#141414" opacity="1.00" d=" M 631.67 47.45 C 636.07 47.17 641.13 46.90 643.84 51.13 C 647.46 54.42 644.05 61.61 639.30 60.89 C 635.77 57.08 634.30 51.87 631.67 47.45 Z" />
<path fill="#141414" opacity="1.00" d=" M 557.02 68.95 C 561.21 68.69 565.44 67.34 569.69 67.68 C 571.81 68.62 573.52 70.26 575.36 71.65 C 571.94 77.80 570.49 84.95 573.17 91.69 C 575.24 90.82 577.31 89.92 579.39 89.03 C 577.15 96.94 574.13 104.83 568.50 110.98 C 566.65 110.04 564.78 109.15 562.91 108.29 C 563.81 103.14 565.55 98.15 566.14 92.95 C 566.18 87.63 565.23 82.36 564.84 77.07 C 562.22 77.03 559.61 76.98 557.01 76.94 C 557.00 74.28 557.00 71.62 557.02 68.95 Z" />
<path fill="#141414" opacity="1.00" d=" M 1457.98 70.77 C 1461.87 70.15 1465.23 67.85 1468.83 66.36 C 1470.74 73.92 1471.59 81.72 1472.17 89.49 C 1471.93 92.55 1470.09 95.31 1467.89 97.35 C 1464.75 96.73 1463.37 93.59 1461.80 91.20 C 1457.89 91.27 1454.03 90.65 1450.23 91.32 C 1448.34 92.53 1447.17 94.52 1445.85 96.26 C 1443.60 96.56 1441.38 96.85 1439.17 97.14 C 1440.39 87.85 1440.89 78.49 1441.21 69.14 C 1446.78 69.92 1452.31 70.77 1457.98 70.77 M 1446.90 74.61 C 1447.08 77.99 1447.12 81.36 1447.40 84.74 C 1452.14 84.95 1456.82 85.03 1461.63 85.17 C 1461.65 81.96 1464.36 77.31 1460.52 75.62 C 1456.15 74.24 1451.33 75.10 1446.90 74.61 Z" />
<path fill="#141414" opacity="1.00" d=" M 1046.00 71.15 C 1054.95 72.23 1064.85 74.59 1073.05 69.66 C 1074.66 70.90 1076.26 72.14 1077.89 73.38 C 1076.54 81.47 1081.39 91.91 1075.64 98.80 C 1070.59 100.63 1069.38 95.66 1067.29 92.73 C 1059.04 91.40 1053.06 96.77 1046.15 99.80 C 1046.93 90.25 1047.48 80.68 1046.00 71.15 M 1053.57 76.91 C 1052.81 80.22 1051.96 83.51 1051.40 86.85 C 1057.51 89.41 1064.16 88.58 1070.24 86.37 C 1069.39 83.25 1068.61 80.17 1067.75 77.07 C 1063.02 76.98 1058.24 76.95 1053.57 76.91 Z" />
<path fill="#141414" opacity="1.00" d=" M 202.64 81.07 C 212.01 82.86 221.63 83.01 231.05 81.48 C 233.42 80.81 234.97 83.72 234.53 85.77 C 233.69 93.85 232.76 101.99 230.70 109.88 C 227.05 107.77 223.75 104.93 219.72 103.55 C 213.91 102.76 208.65 105.96 206.02 111.02 C 205.16 111.02 203.44 111.03 202.58 111.03 C 201.09 101.18 199.49 90.74 202.64 81.07 M 209.20 90.77 C 210.18 93.49 211.09 96.24 212.03 98.98 C 214.88 99.01 220.58 99.06 223.43 99.08 C 224.24 95.73 224.99 92.37 225.63 88.99 C 220.07 86.83 214.38 88.21 209.20 90.77 Z" />
<path fill="#141414" opacity="1.00" d=" M 151.40 122.10 C 162.84 126.19 174.63 129.57 185.26 135.59 C 201.54 142.50 216.96 151.37 233.71 157.14 C 241.07 159.32 247.35 163.87 254.39 166.78 C 278.77 177.30 302.99 188.20 327.06 199.41 C 339.61 206.59 354.04 209.44 366.74 216.34 C 382.44 224.96 399.58 230.35 415.66 238.17 C 434.69 245.33 452.49 255.78 472.25 260.97 C 474.96 258.84 477.64 256.64 480.59 254.84 C 483.28 254.59 486.12 254.56 488.85 254.63 C 485.90 257.94 482.80 261.11 479.42 263.99 C 491.50 273.02 506.52 276.45 519.72 283.37 C 529.21 288.52 539.88 291.15 549.08 296.87 C 555.57 300.77 562.77 303.19 569.75 306.04 C 580.97 310.37 591.64 316.09 603.06 319.86 C 608.76 322.48 613.79 318.45 618.83 316.52 C 619.20 285.01 618.87 253.51 619.06 222.00 C 619.45 198.10 615.99 174.37 616.78 150.45 C 611.53 154.31 607.13 159.18 601.80 162.92 C 595.70 167.38 590.07 172.97 582.42 174.65 C 581.95 166.04 590.87 163.79 595.48 158.49 C 604.53 148.51 617.45 142.96 625.53 131.96 C 638.87 150.05 657.21 163.25 672.48 179.52 C 678.73 186.32 686.67 191.32 692.72 198.31 C 698.50 204.59 704.92 210.23 711.72 215.37 C 721.12 224.27 730.43 233.26 739.49 242.52 C 744.21 247.15 750.02 250.52 754.50 255.44 C 759.15 249.07 766.62 246.10 773.44 242.71 C 787.53 236.30 801.25 229.12 814.95 221.92 C 830.65 215.14 846.01 207.63 861.73 200.87 C 882.65 189.67 904.47 180.22 925.68 169.55 C 939.09 161.25 954.02 155.98 968.16 149.11 C 985.66 140.22 1005.58 135.94 1021.22 123.58 C 1023.07 149.30 1020.99 175.11 1022.63 200.83 C 1024.88 231.16 1023.75 261.61 1024.00 292.00 C 1024.16 360.81 1023.66 429.62 1024.25 498.43 C 1031.75 491.54 1038.77 484.16 1046.02 477.01 C 1049.99 473.32 1052.49 468.28 1056.78 464.91 C 1066.43 457.99 1073.69 448.41 1082.64 440.68 C 1087.25 436.95 1090.43 431.78 1095.09 428.11 C 1107.59 418.32 1117.40 405.57 1130.12 396.03 C 1142.82 382.44 1157.84 371.16 1170.06 357.04 C 1174.93 351.17 1181.86 347.60 1187.03 342.03 C 1196.69 332.68 1205.45 322.29 1216.37 314.33 C 1234.97 293.98 1255.87 275.85 1275.97 256.96 C 1281.90 250.91 1288.03 245.05 1294.48 239.56 C 1298.30 234.32 1303.86 230.91 1308.50 226.51 C 1315.72 219.03 1323.23 211.86 1331.16 205.13 C 1338.06 196.76 1345.51 188.80 1353.85 181.83 C 1362.34 174.63 1368.44 164.91 1377.76 158.66 C 1384.08 153.68 1388.97 147.15 1395.40 142.29 C 1401.41 137.68 1406.11 131.45 1408.43 124.21 C 1409.12 124.15 1410.51 124.03 1411.20 123.97 C 1411.95 141.32 1412.58 158.68 1413.91 175.99 C 1414.15 242.66 1413.92 309.33 1414.00 376.00 C 1414.10 395.24 1413.36 414.53 1414.97 433.73 C 1415.55 441.16 1414.37 448.62 1415.36 456.04 C 1416.41 479.33 1416.32 502.69 1415.73 526.00 C 1415.89 530.77 1414.01 536.60 1409.08 538.33 C 1406.42 536.57 1403.83 533.66 1405.12 530.02 C 1404.80 448.35 1405.11 366.67 1405.00 285.00 C 1404.76 261.67 1406.04 238.23 1403.32 215.00 C 1402.41 191.63 1403.33 168.24 1402.92 144.86 C 1390.69 155.32 1380.42 167.73 1368.48 178.49 C 1362.39 184.36 1356.81 190.80 1350.31 196.24 C 1340.98 202.80 1333.70 211.68 1325.51 219.51 C 1320.48 224.84 1314.69 229.38 1309.85 234.88 C 1305.83 239.24 1300.50 242.11 1296.47 246.47 C 1288.60 254.60 1280.40 262.41 1272.08 270.08 C 1262.18 280.84 1251.29 290.63 1240.56 300.56 C 1231.92 309.28 1223.50 318.35 1213.83 325.95 C 1201.43 337.15 1190.06 349.44 1177.72 360.70 C 1172.64 366.27 1167.62 371.94 1161.85 376.81 C 1150.06 385.20 1141.21 396.89 1130.22 406.22 C 1114.50 419.77 1100.49 435.14 1085.39 449.36 C 1075.13 456.62 1067.03 466.34 1058.01 475.01 C 1051.53 481.87 1044.19 487.85 1037.86 494.85 C 1033.42 498.79 1029.70 503.52 1024.84 506.97 C 1022.50 514.63 1027.75 529.20 1016.28 530.90 C 1016.07 523.51 1015.95 516.12 1015.81 508.74 C 1007.30 505.87 999.41 501.43 990.80 498.80 C 982.57 493.84 973.29 491.05 965.00 486.20 C 957.47 483.21 950.07 479.89 942.48 477.05 C 933.10 473.11 924.56 467.40 914.88 464.13 C 896.87 457.74 880.04 448.57 862.23 441.72 C 836.34 430.53 810.25 419.85 784.48 408.42 C 771.41 401.89 758.01 396.05 744.60 390.28 C 726.20 380.81 706.53 374.19 688.00 365.00 C 668.51 356.13 648.77 347.85 629.12 339.33 C 628.45 339.95 627.79 340.57 627.13 341.20 C 627.10 385.80 626.54 430.42 627.40 475.01 C 629.28 487.79 627.07 500.61 628.08 513.41 C 628.27 521.07 628.23 528.78 626.53 536.31 C 617.86 535.20 612.78 527.69 606.20 522.92 C 599.29 518.18 594.20 511.33 587.25 506.65 C 577.90 498.37 568.44 490.22 559.41 481.58 C 548.93 473.47 540.34 463.19 529.64 455.30 C 513.07 443.55 499.04 428.66 482.87 416.41 C 475.34 413.50 471.69 406.06 466.43 400.53 C 464.38 398.67 461.33 396.91 458.61 398.42 C 438.25 407.05 418.90 417.81 398.54 426.45 C 373.17 436.50 349.20 449.67 324.03 460.20 C 320.17 461.75 316.77 464.23 312.92 465.80 C 290.17 474.08 269.52 487.11 247.03 496.04 C 222.29 508.04 198.12 521.31 172.61 531.62 C 165.92 534.64 160.12 539.86 152.42 540.20 C 151.44 474.81 152.28 409.40 152.00 344.00 C 151.64 314.66 152.98 285.28 150.93 255.99 C 151.41 245.12 152.46 234.21 151.31 223.34 C 149.65 196.61 150.03 169.78 149.89 143.00 C 150.10 136.04 149.56 128.90 151.40 122.10 M 171.75 138.83 C 178.29 144.82 185.71 149.74 192.20 155.79 C 202.85 166.21 215.16 174.75 225.47 185.53 C 230.10 190.75 236.48 193.82 241.78 198.23 C 253.60 210.55 267.25 220.90 280.64 231.42 C 287.76 237.63 293.92 245.05 302.12 249.92 C 310.83 256.08 318.18 263.91 326.55 270.50 C 342.66 285.39 359.69 299.27 375.03 314.98 C 381.29 319.99 387.21 325.57 394.30 329.42 C 396.48 325.78 399.19 321.94 404.21 322.25 C 402.45 326.84 400.50 331.39 399.49 336.24 C 406.40 339.84 411.49 345.84 417.77 350.33 C 422.56 354.11 426.43 358.94 431.38 362.55 C 437.04 366.53 441.49 371.97 447.21 375.91 C 452.76 379.80 456.46 386.37 463.18 388.46 C 469.91 387.66 476.03 384.07 481.95 380.97 C 491.85 375.36 502.49 371.20 512.31 365.43 C 519.20 361.50 527.04 359.61 533.74 355.32 C 544.02 349.08 555.72 345.73 566.41 340.31 C 572.63 337.08 578.90 333.92 585.55 331.65 C 590.21 330.33 594.25 327.63 597.96 324.62 C 588.56 320.38 578.70 317.20 569.60 312.29 C 559.71 306.83 548.61 304.02 538.77 298.45 C 532.18 295.01 525.17 292.51 518.03 290.47 C 503.16 284.19 489.04 276.05 473.89 270.48 C 467.57 272.37 462.96 278.01 457.73 281.90 C 455.25 281.55 453.30 279.85 451.26 278.54 C 456.03 274.48 460.35 269.88 465.40 266.17 C 457.30 262.76 449.38 258.95 441.25 255.62 C 434.64 252.89 427.57 251.17 421.38 247.47 C 413.72 242.80 404.87 240.75 396.88 236.76 C 386.29 231.70 375.17 227.88 364.57 222.84 C 351.33 218.16 339.20 210.72 325.64 206.92 C 320.59 205.13 316.41 201.58 311.54 199.42 C 289.97 191.13 269.12 181.06 248.34 170.98 C 233.89 167.10 221.53 158.23 207.31 153.73 C 194.87 150.17 184.26 142.18 171.75 138.83 M 989.54 150.12 C 974.49 153.75 960.79 161.20 946.98 167.97 C 939.43 171.72 931.36 174.49 924.25 179.07 C 912.38 186.14 899.17 190.51 887.00 196.99 C 865.63 207.83 843.40 216.81 821.61 226.72 C 807.02 235.49 790.75 240.78 775.84 248.90 C 769.89 252.07 763.02 253.48 757.66 257.71 C 763.36 265.52 772.15 270.26 778.57 277.40 C 786.04 285.94 795.01 292.97 802.75 301.25 C 808.55 306.79 813.33 313.62 820.36 317.74 C 828.08 322.47 832.56 330.78 839.76 336.12 C 845.94 340.54 851.27 346.00 856.74 351.24 C 862.44 358.24 870.42 362.84 876.28 369.68 C 882.04 376.26 888.75 381.90 895.10 387.88 C 906.43 397.14 916.74 407.56 927.42 417.54 C 942.35 430.60 956.76 444.20 971.03 457.97 C 978.68 464.98 984.65 473.75 993.39 479.53 C 998.31 482.59 1000.87 488.05 1005.37 491.58 C 1009.33 494.73 1012.09 499.04 1015.70 502.56 C 1016.23 414.06 1016.30 325.51 1015.33 237.04 C 1012.86 204.23 1014.54 171.29 1013.86 138.42 C 1004.84 140.19 997.09 145.20 989.54 150.12 M 158.28 139.99 C 157.68 168.99 158.14 198.00 158.00 227.00 C 158.11 247.27 157.36 267.57 159.02 287.80 C 159.48 299.20 158.75 310.61 159.74 322.00 C 160.62 388.91 159.31 455.85 160.39 522.76 C 168.55 516.86 175.46 509.10 185.04 505.30 C 185.40 507.70 185.72 510.11 186.00 512.53 C 180.69 515.80 175.51 519.35 171.28 523.98 C 179.91 523.93 186.96 518.79 194.51 515.40 C 206.66 508.43 219.81 503.50 232.10 496.80 C 242.19 491.14 252.74 486.38 263.06 481.17 C 271.30 478.49 278.12 473.03 285.77 469.16 C 299.71 464.08 312.81 456.96 326.14 450.51 C 332.18 449.11 337.44 445.86 342.98 443.25 C 348.83 440.88 354.59 438.28 360.07 435.15 C 373.89 429.01 387.95 423.37 401.47 416.55 C 410.66 412.30 420.60 409.62 429.27 404.26 C 438.02 399.69 447.80 397.40 456.11 391.89 C 447.38 383.90 438.67 375.85 429.15 368.81 C 424.15 364.45 419.78 359.37 414.23 355.67 C 407.32 350.77 402.99 342.40 394.76 339.45 C 384.11 339.23 380.24 353.85 368.85 351.21 C 372.35 343.74 380.14 339.92 386.69 335.57 C 385.65 329.56 380.57 326.21 376.01 322.98 C 370.09 318.99 365.87 313.04 360.01 308.99 C 354.30 305.09 349.74 299.83 344.20 295.73 C 335.62 289.10 328.78 280.53 320.47 273.59 C 302.39 258.27 284.49 242.82 266.22 227.75 C 256.39 221.12 248.36 212.29 238.73 205.37 C 231.96 200.85 227.06 194.16 220.39 189.53 C 213.27 184.45 207.79 177.39 200.28 172.84 C 192.55 168.08 187.42 160.31 180.30 154.82 C 172.85 150.02 166.59 143.32 158.28 139.99 M 625.73 161.17 C 625.29 169.47 627.10 177.69 626.93 185.99 C 627.28 227.90 626.67 269.81 627.18 311.71 C 639.26 307.35 650.71 301.36 661.62 294.61 C 671.29 289.27 682.00 286.10 691.59 280.57 C 698.28 276.71 705.77 274.52 712.44 270.63 C 722.83 264.78 734.31 261.35 745.06 256.26 C 744.06 254.52 742.90 252.93 741.59 251.46 C 727.20 239.22 713.91 225.79 699.49 213.57 C 688.75 205.05 680.26 194.11 669.76 185.33 C 655.55 173.97 644.16 159.45 629.78 148.26 C 628.05 152.42 626.35 156.68 625.73 161.17 M 746.08 263.39 C 737.62 267.52 728.98 271.29 720.42 275.22 C 705.83 281.03 692.66 289.99 677.62 294.66 C 668.86 298.38 660.71 303.38 651.85 306.90 C 645.59 310.48 639.29 313.98 632.62 316.77 C 627.25 319.30 626.97 325.75 626.32 330.88 C 645.46 339.06 664.51 347.46 683.41 356.21 C 698.72 361.75 713.56 368.42 728.13 375.66 C 741.70 380.02 754.63 386.10 767.35 392.47 C 773.47 395.49 780.21 396.96 786.32 399.99 C 789.46 402.22 792.64 404.67 796.56 405.27 C 806.40 407.11 815.09 412.17 823.79 416.85 C 837.65 422.58 851.69 427.98 865.04 434.89 C 875.76 440.44 887.37 443.91 898.48 448.55 C 912.36 455.93 927.37 460.92 941.08 468.61 C 953.01 473.72 964.81 479.15 976.59 484.62 C 984.10 488.86 991.77 493.43 1000.59 494.17 C 996.07 489.41 991.24 484.97 986.11 480.87 C 974.89 470.77 963.83 460.55 952.84 450.20 C 945.17 444.97 939.27 437.72 932.09 431.90 C 918.00 417.72 903.77 403.53 888.49 390.58 C 881.13 384.63 874.77 377.60 867.76 371.27 C 863.03 365.24 856.20 361.53 850.98 356.02 C 839.66 344.65 827.16 334.53 815.99 323.01 C 809.93 317.03 804.29 310.52 797.23 305.67 C 781.95 292.69 769.55 276.73 754.60 263.42 C 752.45 260.61 748.66 262.76 746.08 263.39 M 617.16 323.66 C 615.63 324.61 616.97 327.57 618.68 326.50 C 620.20 325.55 618.83 322.65 617.16 323.66 M 590.99 335.99 C 579.60 342.32 567.00 346.08 555.67 352.52 C 550.18 355.70 544.13 357.64 538.44 360.35 C 528.39 365.42 517.35 368.44 508.01 374.89 C 497.03 379.93 486.77 386.53 475.19 390.24 C 472.36 391.13 467.88 393.78 470.99 396.99 C 487.31 410.59 504.21 423.66 519.07 438.92 C 533.59 449.95 547.11 462.19 561.03 473.95 C 566.15 480.50 573.13 485.13 579.27 490.64 C 587.61 496.22 593.39 504.74 601.62 510.47 C 607.53 514.74 611.91 520.77 617.97 524.87 C 621.89 509.60 619.09 493.57 619.08 478.00 C 618.80 429.76 619.20 381.52 618.91 333.27 C 615.20 332.08 611.59 330.40 607.75 329.71 C 601.51 329.58 596.37 333.43 590.99 335.99 Z" />
<path fill="#141414" opacity="1.00" d=" M 544.36 200.44 C 551.02 195.79 556.33 189.57 562.03 183.85 C 564.39 185.52 567.06 186.90 568.91 189.19 C 569.64 191.68 566.58 192.75 565.07 194.07 C 556.28 199.37 548.76 206.39 540.81 212.79 C 538.58 214.93 536.00 211.95 533.80 211.21 C 536.71 207.08 540.21 203.35 544.36 200.44 Z" />
<path fill="#141414" opacity="1.00" d=" M 509.46 228.46 C 512.75 224.92 517.18 222.82 521.66 221.20 C 522.81 222.50 523.97 223.81 525.13 225.10 C 517.63 232.74 508.57 238.54 500.72 245.79 C 498.67 248.13 495.60 247.12 493.04 246.48 C 496.16 238.60 504.04 234.51 509.46 228.46 Z" />
<path fill="#141414" opacity="1.00" d=" M 425.30 301.30 C 431.34 295.44 437.19 288.22 446.06 286.90 C 445.31 289.40 445.31 292.36 443.39 294.32 C 435.54 302.07 425.54 307.20 418.28 315.60 C 417.54 313.83 416.63 312.09 416.27 310.19 C 418.77 306.74 422.44 304.42 425.30 301.30 Z" />
<path fill="#141414" opacity="1.00" d=" M 350.16 364.13 C 353.21 361.51 356.78 359.59 360.53 358.19 C 360.61 365.14 354.98 369.27 350.41 373.39 C 343.81 378.45 338.76 386.10 330.17 387.99 C 330.29 386.11 330.30 384.21 330.76 382.39 C 336.05 375.17 343.37 369.83 350.16 364.13 Z" />
<path fill="#141414" opacity="1.00" d=" M 294.83 410.73 C 302.89 406.36 308.14 398.27 316.67 394.65 C 317.14 396.67 317.62 398.70 318.09 400.73 C 309.22 407.21 301.40 415.02 292.62 421.61 C 291.03 422.44 287.46 424.73 287.42 421.54 C 284.94 415.85 291.30 413.35 294.83 410.73 Z" />
<path fill="#141414" opacity="1.00" d=" M 255.37 443.38 C 261.05 438.95 265.94 431.54 274.00 432.16 C 272.99 439.35 266.35 442.35 261.34 446.29 C 255.10 450.57 250.04 456.80 242.42 458.78 C 241.76 450.24 250.98 448.64 255.37 443.38 Z" />
<path fill="#141414" opacity="1.00" d=" M 211.12 479.18 C 217.28 475.18 222.14 468.84 229.78 467.51 C 226.54 475.42 219.39 480.72 213.03 486.05 C 208.68 488.76 205.18 495.30 199.25 492.59 C 202.31 487.42 205.89 482.36 211.12 479.18 Z" />
<path fill="#141414" opacity="1.00" d=" M 603.25 557.33 C 604.21 556.50 605.16 555.67 606.12 554.84 C 608.49 555.94 610.85 557.07 613.22 558.19 C 612.58 563.28 611.66 568.32 610.87 573.40 C 615.51 572.85 620.12 571.98 624.69 570.92 C 628.63 577.07 623.45 583.56 623.57 590.04 C 622.50 600.93 625.81 614.38 616.37 622.53 C 609.54 624.06 605.95 616.57 602.31 612.15 C 606.20 610.33 613.31 612.23 615.19 607.10 C 618.47 598.08 616.45 588.04 616.62 578.69 C 614.40 579.33 612.00 579.51 610.19 580.97 C 608.07 593.02 607.01 607.35 596.86 615.75 C 590.82 619.26 584.81 623.29 577.92 624.87 C 575.64 625.76 574.10 623.39 572.90 621.88 C 572.58 618.96 575.57 617.72 577.74 616.71 C 582.28 614.83 586.93 613.13 591.18 610.62 C 589.92 608.58 588.69 606.52 587.50 604.45 C 579.75 605.81 572.64 609.32 565.09 611.38 C 564.39 608.06 562.23 604.07 565.16 601.20 C 569.73 595.92 574.38 590.42 575.68 583.29 C 571.29 583.12 566.91 582.97 562.54 582.82 C 563.33 580.83 564.16 578.87 565.02 576.92 C 571.27 577.48 577.49 578.62 583.80 578.47 C 590.31 577.25 596.55 574.86 602.80 572.69 C 602.93 567.56 603.09 562.44 603.25 557.33 M 584.28 583.79 C 588.70 589.91 593.45 595.83 598.44 601.50 C 600.95 594.86 603.06 587.89 602.52 580.70 C 597.19 584.78 590.58 584.46 584.28 583.79 M 574.19 600.94 C 578.27 600.44 582.44 600.06 586.53 599.46 C 585.39 595.37 584.62 591.15 583.84 587.00 C 579.95 591.14 576.75 595.88 574.19 600.94 Z" />
<path fill="#141414" opacity="1.00" d=" M 117.49 556.36 C 120.46 558.23 123.40 560.15 126.34 562.07 C 125.63 563.86 124.90 565.64 124.15 567.43 C 131.00 568.68 137.74 567.16 144.13 564.62 C 146.29 566.93 148.47 569.25 150.57 571.64 C 146.72 574.38 143.14 577.46 140.02 581.02 C 134.89 585.36 129.77 589.75 125.42 594.90 C 132.84 594.70 140.29 594.51 147.66 593.44 C 148.33 594.11 149.00 594.78 149.67 595.46 C 148.27 605.48 149.18 616.01 145.83 625.66 C 138.83 620.19 130.24 618.18 121.37 618.76 C 119.46 620.60 117.65 622.67 115.29 623.97 C 112.84 623.98 110.43 624.02 107.99 623.76 C 108.79 617.33 109.53 610.87 110.10 604.42 C 103.87 606.14 98.16 609.20 93.34 613.51 C 92.33 612.51 91.32 611.51 90.31 610.53 C 90.22 608.23 90.14 605.94 90.06 603.67 C 101.56 601.47 111.83 595.50 120.62 587.95 C 118.82 584.50 116.90 581.11 114.75 577.86 C 109.76 581.53 107.23 587.77 101.58 590.62 C 99.03 592.07 96.11 592.62 93.36 593.58 C 93.44 589.46 95.65 586.14 98.65 583.69 C 107.19 576.38 112.94 566.50 117.49 556.36 M 119.65 572.98 C 122.29 576.16 124.96 579.32 127.07 582.89 C 130.18 579.86 133.24 576.79 136.08 573.51 C 130.65 572.56 125.13 572.63 119.65 572.98 M 117.33 600.85 C 117.64 603.31 118.26 608.23 118.57 610.69 C 126.49 614.87 135.19 610.88 143.05 608.82 C 141.65 606.38 141.23 603.04 138.74 601.35 C 131.63 600.69 124.47 600.91 117.33 600.85 Z" />
<path fill="#141414" opacity="1.00" d=" M 686.86 558.57 C 689.93 557.66 693.12 558.26 696.21 558.76 C 693.11 578.28 694.57 598.09 693.58 617.75 C 691.58 622.63 686.15 624.73 681.27 625.33 C 680.75 619.25 675.38 616.62 671.29 613.30 C 676.11 612.02 681.05 611.35 685.98 610.54 C 685.74 596.43 687.12 582.11 684.47 568.16 C 675.93 567.83 667.09 568.76 658.76 567.14 C 655.27 565.63 655.60 561.72 658.75 560.05 C 668.12 559.80 677.74 561.55 686.86 558.57 Z" />
<path fill="#141414" opacity="1.00" d=" M 1022.35 557.44 C 1024.02 557.32 1027.34 557.08 1029.00 556.96 C 1030.79 559.63 1032.48 562.37 1034.18 565.12 C 1040.34 564.89 1046.52 563.64 1052.71 563.81 C 1054.85 565.24 1056.80 567.03 1058.42 569.07 C 1056.83 573.38 1051.81 574.55 1048.00 575.85 C 1050.82 580.64 1051.95 586.47 1049.45 591.66 C 1043.74 585.75 1037.01 580.47 1033.13 573.07 C 1036.77 573.58 1040.31 574.27 1043.94 574.99 L 1043.97 569.85 C 1035.36 570.92 1026.69 571.26 1018.06 571.93 C 1019.69 573.08 1021.32 574.26 1022.90 575.51 C 1014.30 580.44 1008.28 589.57 998.14 591.63 C 998.14 590.19 998.16 588.76 998.19 587.33 C 1005.16 583.19 1012.80 577.95 1014.36 569.35 C 1008.53 572.57 1004.56 578.64 997.57 579.79 C 997.62 573.88 999.64 567.39 1004.76 563.98 C 1010.40 563.25 1016.14 564.91 1021.84 565.15 C 1021.98 562.56 1022.15 559.99 1022.35 557.44 Z" />
<path fill="#141414" opacity="1.00" d=" M 1070.40 557.11 C 1075.73 559.66 1083.55 562.36 1081.98 569.95 C 1083.15 573.22 1076.98 571.96 1076.48 573.89 C 1073.86 569.13 1071.17 564.40 1068.19 559.86 C 1068.92 558.94 1069.65 558.02 1070.40 557.11 Z" />
<path fill="#141414" opacity="1.00" d=" M 640.29 558.22 C 646.01 559.59 650.40 563.61 653.87 568.12 C 651.07 570.04 648.24 571.89 645.38 573.72 C 643.34 568.68 640.79 563.72 640.29 558.22 Z" />
<path fill="#141414" opacity="1.00" d=" M 950.97 562.47 C 954.70 563.20 957.60 560.85 960.49 559.06 C 962.68 560.62 964.86 562.22 967.03 563.85 C 963.98 566.41 960.88 568.91 957.75 571.35 C 957.49 574.83 957.31 578.35 957.20 581.85 C 964.45 577.16 969.67 570.25 974.27 563.07 C 976.01 559.49 979.98 559.32 983.43 558.56 C 984.23 560.73 985.07 562.90 985.97 565.05 C 981.03 569.95 975.13 573.62 969.49 577.61 C 965.76 580.02 966.10 585.02 964.74 588.83 C 962.11 588.90 959.50 588.98 956.90 589.07 C 957.02 592.04 957.17 595.02 957.35 598.00 C 964.21 594.25 970.20 589.12 975.04 583.01 C 977.13 580.42 981.95 576.74 984.64 580.37 C 986.02 581.39 986.44 583.05 985.62 584.60 C 978.13 593.47 967.66 599.17 956.90 603.11 C 957.73 607.08 958.48 611.04 959.29 615.04 C 968.51 612.02 973.26 603.18 980.79 597.89 C 985.94 593.09 986.85 601.13 988.97 603.34 C 981.13 608.61 974.65 615.91 965.94 619.86 C 959.83 622.50 953.86 625.51 947.46 627.40 C 946.21 625.91 944.98 624.43 943.74 622.95 C 945.74 620.85 947.77 618.78 949.80 616.72 C 948.18 607.50 948.75 598.21 950.10 589.01 C 948.44 589.01 945.12 589.02 943.46 589.03 C 942.53 595.87 943.31 603.38 939.75 609.61 C 936.00 616.45 931.41 623.02 925.59 628.29 C 924.76 625.73 923.95 623.07 923.67 620.40 C 926.49 615.19 930.73 610.75 932.81 605.13 C 934.17 599.72 935.16 594.23 936.15 588.75 C 932.08 589.35 928.11 590.27 924.08 591.02 C 923.28 583.33 931.25 584.20 935.44 580.84 C 935.27 577.26 934.39 573.75 933.88 570.22 C 930.79 569.94 928.06 569.87 925.06 569.60 C 925.48 566.77 926.02 564.03 926.59 561.24 C 934.66 562.44 942.84 562.00 950.97 562.47 M 943.12 570.37 C 943.05 574.58 942.97 578.77 942.94 583.00 C 944.78 583.00 948.46 582.99 950.30 582.99 C 949.70 577.97 949.20 572.96 948.62 567.96 C 946.78 568.77 944.96 569.59 943.12 570.37 Z" />
<path fill="#141414" opacity="1.00" d=" M 1116.55 560.08 C 1120.00 559.37 1123.60 559.62 1127.04 560.30 C 1124.12 577.73 1125.41 595.45 1124.82 613.03 C 1125.07 617.73 1123.34 623.79 1118.42 625.54 C 1115.86 626.67 1112.77 625.35 1110.23 625.60 C 1108.48 620.90 1106.28 616.42 1104.70 611.67 C 1108.05 611.33 1111.58 611.10 1114.99 610.83 C 1115.01 597.27 1115.02 583.73 1114.91 570.18 C 1114.17 569.50 1113.44 568.82 1112.73 568.14 C 1103.40 569.36 1092.46 570.57 1084.43 564.72 C 1085.04 563.54 1085.67 562.36 1086.30 561.19 C 1096.37 560.95 1106.51 561.27 1116.55 560.08 Z" />
<path fill="#141414" opacity="1.00" d=" M 171.54 560.26 C 177.85 561.82 181.88 566.84 184.66 572.45 C 181.94 573.43 179.16 574.22 176.33 574.81 C 172.59 570.98 170.85 565.56 171.54 560.26 Z" />
<path fill="#141414" opacity="1.00" d=" M 187.79 563.12 C 199.37 562.84 211.11 563.68 222.57 561.53 C 223.28 562.14 223.99 562.77 224.70 563.40 C 222.20 580.83 226.72 598.29 224.48 615.73 C 223.19 620.36 219.42 623.63 216.26 627.04 C 211.46 623.31 206.42 619.87 202.27 615.40 C 206.36 614.21 210.49 613.22 214.63 612.22 C 216.82 598.96 216.29 585.56 214.52 572.30 C 214.11 571.47 213.49 570.85 212.67 570.43 C 204.16 569.70 195.62 569.82 187.10 569.55 C 187.30 567.40 187.53 565.26 187.79 563.12 Z" />
<path fill="#141414" opacity="1.00" d=" M 570.25 563.06 C 579.36 563.01 588.50 563.03 597.62 563.50 C 596.22 567.03 594.05 571.55 589.02 569.92 C 580.92 570.04 572.24 572.88 564.60 568.97 C 566.47 566.99 568.36 565.02 570.25 563.06 Z" />
<path fill="#141414" opacity="1.00" d=" M 1403.53 568.07 C 1403.73 565.96 1405.23 562.21 1407.87 563.27 C 1410.94 563.92 1414.40 566.11 1413.44 569.79 C 1411.12 587.77 1412.55 605.92 1411.80 623.98 C 1410.86 628.27 1408.06 634.66 1402.43 632.66 C 1398.99 629.96 1397.15 625.79 1394.69 622.31 C 1397.93 621.07 1401.26 619.90 1404.50 618.57 C 1401.09 601.82 1405.23 584.90 1403.53 568.07 Z" />
<path fill="#141414" opacity="1.00" d=" M 1353.81 566.79 C 1364.45 565.51 1377.39 571.85 1386.85 564.62 C 1387.95 566.59 1389.21 568.54 1389.77 570.76 C 1388.51 572.89 1386.60 574.51 1385.21 576.53 C 1383.32 588.13 1388.40 599.40 1387.99 610.98 C 1387.99 616.23 1387.89 621.49 1387.69 626.76 C 1380.15 624.27 1372.21 623.24 1364.34 622.76 C 1362.82 626.08 1362.00 629.83 1359.59 632.64 C 1355.38 634.39 1353.01 628.38 1352.61 625.03 C 1354.30 614.92 1355.79 604.75 1357.24 594.59 C 1358.23 593.99 1360.19 592.79 1361.17 592.19 C 1360.53 586.62 1359.99 581.05 1359.45 575.49 C 1356.81 575.24 1354.20 575.00 1351.63 574.76 C 1352.12 572.01 1353.12 569.46 1353.81 566.79 M 1368.18 580.07 C 1368.12 581.86 1367.99 585.42 1367.93 587.20 C 1370.72 586.97 1376.29 586.51 1379.08 586.28 C 1376.58 582.66 1372.83 580.03 1368.18 580.07 M 1365.42 594.93 C 1369.99 595.84 1374.57 596.01 1379.27 596.41 C 1376.10 594.09 1372.56 592.37 1369.15 590.50 C 1367.89 591.97 1366.64 593.44 1365.42 594.93 M 1364.35 600.38 C 1364.18 601.94 1364.03 603.50 1363.91 605.07 C 1365.54 604.93 1368.82 604.63 1370.46 604.49 C 1368.44 603.09 1366.42 601.68 1364.35 600.38 M 1373.27 600.65 C 1374.33 603.03 1375.49 605.38 1376.71 607.69 C 1378.72 605.89 1380.86 604.19 1382.64 602.13 C 1379.68 601.44 1376.07 600.97 1373.27 600.65 M 1373.48 614.34 C 1376.49 615.65 1379.35 616.53 1382.60 617.49 C 1381.67 615.23 1380.71 613.02 1379.65 610.84 C 1377.61 612.04 1375.53 613.18 1373.48 614.34 M 1362.00 613.00 C 1361.98 614.33 1361.98 615.66 1362.00 617.00 C 1363.50 617.00 1366.50 617.00 1368.00 617.00 C 1367.98 615.66 1367.98 614.33 1368.00 613.00 C 1366.50 613.00 1363.50 613.00 1362.00 613.00 Z" />
<path fill="#141414" opacity="1.00" d=" M 1427.74 564.69 C 1431.67 565.97 1436.07 567.71 1438.12 571.60 C 1438.42 574.26 1439.03 579.59 1439.33 582.26 C 1431.86 580.38 1426.44 572.33 1427.74 564.69 Z" />
<path fill="#141414" opacity="1.00" d=" M 1461.00 568.26 C 1467.52 568.73 1473.69 566.45 1479.71 564.25 C 1481.54 567.40 1485.41 570.10 1483.96 574.36 C 1482.82 589.56 1483.23 604.81 1482.85 620.04 C 1483.50 624.82 1481.14 628.99 1479.06 633.03 C 1475.36 632.94 1471.68 632.85 1468.05 632.76 C 1466.76 628.20 1463.80 624.57 1460.74 621.12 C 1464.77 620.09 1468.77 619.20 1472.90 618.32 C 1473.02 603.89 1473.00 589.46 1473.00 575.03 C 1463.28 575.00 1453.58 575.05 1443.90 574.78 C 1444.83 565.73 1455.12 568.19 1461.00 568.26 Z" />
<path fill="#141414" opacity="1.00" d=" M 633.25 580.51 C 648.36 575.05 664.19 572.62 680.13 571.15 C 680.89 573.73 681.53 576.25 682.30 578.88 C 675.15 578.95 668.00 579.01 660.87 579.09 C 661.29 580.34 661.72 581.60 662.16 582.87 C 667.44 582.88 676.21 578.50 679.13 585.49 C 679.20 592.95 677.97 600.48 676.51 607.82 C 672.43 606.73 668.49 605.30 664.72 603.44 C 663.00 605.96 661.39 608.56 659.76 611.15 C 657.54 610.37 655.32 609.57 653.11 608.79 C 650.78 612.87 649.14 617.50 645.70 620.81 C 643.55 620.35 641.57 619.35 639.58 618.48 C 640.65 607.47 641.86 596.46 642.11 585.40 C 639.15 583.77 636.15 582.22 633.25 580.51 M 650.61 577.39 C 649.29 586.23 649.15 595.18 649.33 604.11 C 651.53 602.13 654.15 600.41 655.53 597.71 C 657.27 591.70 656.89 585.37 657.85 579.24 C 655.38 578.58 653.03 578.02 650.61 577.39 M 663.12 596.84 C 664.87 596.89 668.37 597.00 670.12 597.05 C 669.89 593.89 669.66 590.74 669.44 587.61 C 664.41 588.15 663.65 592.95 663.12 596.84 Z" />
<path fill="#141414" opacity="1.00" d=" M 1080.82 576.75 C 1088.94 570.84 1099.67 576.18 1108.10 571.11 C 1109.35 572.13 1111.87 574.16 1113.12 575.18 C 1112.70 576.31 1112.29 577.45 1111.89 578.59 C 1104.96 579.44 1096.91 577.27 1091.09 582.07 C 1097.32 582.56 1103.62 582.93 1109.89 583.39 C 1109.86 591.55 1109.72 599.79 1108.28 607.87 C 1104.24 606.95 1100.70 604.99 1096.89 603.57 C 1094.31 605.62 1092.64 608.53 1090.65 611.09 C 1088.44 610.32 1086.23 609.53 1084.03 608.77 C 1081.22 612.90 1080.61 619.89 1075.11 621.25 C 1072.31 618.91 1070.39 615.27 1070.72 611.56 C 1071.40 603.05 1071.81 594.51 1071.70 585.98 C 1068.65 584.69 1065.71 583.50 1062.86 581.90 C 1068.55 579.26 1074.93 578.69 1080.82 576.75 M 1082.20 578.58 C 1081.02 586.96 1075.73 596.41 1080.84 604.31 C 1082.85 602.21 1084.94 600.15 1086.64 597.76 C 1087.44 592.29 1086.90 586.70 1087.16 581.21 C 1085.50 580.32 1083.85 579.43 1082.20 578.58 M 1096.70 587.88 C 1096.31 590.91 1095.99 593.96 1095.72 597.03 L 1101.94 596.60 C 1100.57 593.43 1099.04 590.40 1096.70 587.88 Z" />
<path fill="#141414" opacity="1.00" d=" M 1392.00 580.73 C 1391.46 577.07 1395.29 574.86 1397.10 572.12 C 1402.02 583.56 1400.16 596.79 1399.76 608.89 C 1398.78 613.45 1394.15 613.09 1391.25 610.58 C 1393.14 600.74 1392.99 590.65 1392.00 580.73 Z" />
<path fill="#141414" opacity="1.00" d=" M 183.32 577.54 C 192.36 576.75 201.39 575.28 210.49 575.44 C 211.93 576.99 212.97 578.84 214.10 580.63 C 203.85 580.93 193.59 581.14 183.35 580.78 C 183.33 579.69 183.32 578.61 183.32 577.54 Z" />
<path fill="#141414" opacity="1.00" d=" M 1019.66 582.60 C 1022.00 579.26 1025.71 577.35 1029.53 576.12 C 1029.74 578.99 1029.97 581.87 1030.22 584.77 C 1035.58 588.05 1040.67 591.99 1046.78 593.82 C 1051.09 594.74 1054.98 596.85 1058.41 599.57 C 1056.70 601.35 1055.01 603.14 1053.37 604.97 C 1050.15 604.43 1047.05 603.78 1043.90 603.04 C 1044.23 608.84 1045.06 614.66 1045.10 620.50 C 1043.26 623.54 1040.19 625.55 1037.40 627.63 C 1036.87 626.02 1035.81 622.79 1035.27 621.18 C 1025.79 619.62 1016.76 622.31 1008.04 625.54 C 1008.74 617.28 1009.68 609.03 1010.08 600.75 C 1005.26 603.34 1000.59 606.22 995.96 609.12 C 995.24 606.58 994.45 603.96 993.85 601.45 C 997.85 600.24 1002.14 599.73 1005.86 597.74 C 1011.43 593.69 1015.69 588.16 1019.66 582.60 M 1017.61 596.90 C 1023.86 598.15 1030.27 598.23 1036.53 596.94 C 1033.30 593.26 1030.16 589.29 1025.92 586.74 C 1021.92 588.90 1019.86 593.16 1017.61 596.90 M 1018.01 606.18 C 1015.54 606.85 1015.13 610.37 1017.45 611.55 C 1022.53 616.62 1029.91 613.70 1036.07 613.10 C 1035.90 610.56 1035.73 608.02 1035.57 605.49 C 1034.89 604.64 1034.22 603.80 1033.57 602.96 C 1028.37 603.90 1023.04 604.61 1018.01 606.18 Z" />
<path fill="#141414" opacity="1.00" d=" M 164.96 581.96 C 169.53 581.02 174.10 580.03 178.67 579.06 C 179.72 580.11 180.77 581.17 181.83 582.23 C 180.59 589.87 180.18 597.62 179.88 605.36 C 182.07 604.52 184.23 603.64 186.40 602.76 C 187.20 596.23 187.58 589.61 189.44 583.27 C 195.46 586.98 202.48 586.09 209.20 586.30 C 209.27 593.14 209.11 599.97 208.72 606.81 C 205.66 610.30 200.17 606.95 196.36 607.69 C 195.84 608.90 195.32 610.12 194.81 611.36 C 191.80 610.77 188.83 610.31 185.87 609.55 C 182.80 614.14 179.98 618.91 176.59 623.29 C 174.79 621.44 172.98 619.60 171.18 617.77 C 172.78 608.29 172.97 598.65 173.08 589.07 C 170.41 588.00 167.72 586.95 165.04 585.93 C 165.01 584.59 164.98 583.27 164.96 581.96 M 195.35 599.91 C 197.89 598.66 200.79 598.27 203.23 596.81 C 202.92 593.88 200.77 591.73 198.93 589.64 C 197.41 592.96 196.22 596.33 195.35 599.91 Z" />
<path fill="#141414" opacity="1.00" d=" M 1453.02 581.88 C 1457.51 581.91 1461.79 580.30 1466.06 579.05 C 1467.74 580.70 1469.43 582.35 1471.14 584.00 C 1470.28 584.83 1469.44 585.66 1468.61 586.50 C 1462.53 586.90 1456.50 587.15 1450.49 587.90 C 1454.15 591.75 1459.44 590.03 1463.99 589.10 C 1464.99 589.87 1465.99 590.64 1467.04 591.41 C 1466.75 599.57 1467.35 607.94 1465.34 615.95 C 1461.44 614.75 1457.92 612.93 1454.43 610.92 C 1452.31 614.61 1449.36 617.76 1445.72 619.98 C 1445.20 618.09 1444.70 616.21 1444.22 614.34 C 1440.00 619.52 1437.86 626.41 1431.58 629.65 C 1430.19 627.04 1428.35 624.49 1428.02 621.49 C 1428.44 611.72 1428.95 601.95 1429.00 592.17 C 1425.83 591.22 1423.03 590.47 1420.14 589.07 C 1430.74 585.42 1441.64 581.63 1453.02 581.88 M 1439.76 586.89 C 1435.78 594.70 1437.16 603.66 1437.22 612.10 C 1440.24 610.11 1444.68 608.25 1444.84 604.06 C 1445.44 598.37 1445.88 592.69 1446.60 587.03 C 1444.89 587.00 1441.47 586.93 1439.76 586.89 M 1453.46 602.46 C 1455.04 603.88 1456.91 604.91 1458.74 606.02 C 1458.76 602.59 1458.77 599.16 1458.76 595.74 C 1454.20 596.11 1452.43 598.35 1453.46 602.46 Z" />
<path fill="#141414" opacity="1.00" d=" M 666.45 704.43 C 675.10 706.76 683.98 708.33 692.99 707.98 C 701.21 708.49 709.75 705.68 717.79 708.41 C 715.25 723.30 715.82 738.48 717.01 753.49 C 717.21 757.39 715.08 760.97 713.69 764.53 C 704.36 758.40 692.55 760.29 682.00 759.23 C 676.51 758.50 672.07 762.71 667.25 764.49 C 666.25 763.48 665.27 762.49 664.29 761.50 C 664.67 751.33 665.47 741.17 665.80 731.00 C 666.44 722.19 662.89 712.97 666.45 704.43 M 671.89 727.04 C 677.72 724.86 681.95 719.61 680.66 712.89 C 672.16 712.35 673.57 721.90 671.89 727.04 M 692.46 714.39 C 692.25 715.46 692.05 716.54 691.87 717.63 C 696.26 716.52 700.98 716.19 705.06 718.45 C 702.59 722.27 699.62 725.74 697.10 729.52 C 700.56 731.08 704.18 732.06 707.90 732.85 C 708.01 726.53 708.00 720.19 708.01 713.89 C 702.82 714.02 697.63 714.19 692.46 714.39 M 689.27 721.89 C 687.32 722.83 689.31 725.39 690.91 724.28 C 692.86 723.36 690.84 720.73 689.27 721.89 M 671.83 736.18 C 676.73 735.09 681.46 733.36 686.16 731.61 C 685.38 728.90 684.73 726.34 683.93 723.70 C 679.75 727.72 675.74 731.91 671.83 736.18 M 691.85 736.74 C 693.15 738.20 694.49 739.64 695.85 741.07 C 695.07 742.43 694.30 743.79 693.55 745.18 C 698.02 748.23 702.59 751.25 707.80 752.93 C 707.99 748.04 707.98 743.12 708.07 738.25 C 702.60 740.00 697.12 738.38 691.85 736.74 M 676.84 740.91 C 674.15 743.20 673.19 746.82 671.43 749.80 C 676.72 752.64 682.84 751.75 688.62 751.79 C 684.86 749.45 680.94 747.39 677.35 744.79 C 680.29 744.42 686.16 743.66 689.10 743.29 C 687.81 741.49 686.58 739.60 684.89 738.17 C 682.11 738.62 679.28 739.55 676.84 740.91 Z" />
<path fill="#141414" opacity="1.00" d=" M 820.99 716.75 C 827.14 717.57 832.61 713.55 838.11 711.51 C 841.45 715.11 844.59 719.01 845.73 723.96 C 829.06 727.18 812.08 723.14 795.31 723.77 C 794.34 722.24 793.35 720.71 792.39 719.21 C 800.76 713.63 811.62 716.78 820.99 716.75 Z" />
<path fill="#141414" opacity="1.00" d=" M 831.94 751.58 C 835.61 751.72 838.54 749.54 841.47 747.76 C 845.46 749.92 849.36 752.67 849.91 757.73 C 830.26 758.12 810.59 758.35 790.96 757.52 C 790.95 755.87 790.95 754.22 790.95 752.59 C 804.60 751.79 818.29 752.50 831.94 751.58 Z" />
</g>
</svg>
