<?xml version="1.0" encoding="UTF-8" ?>
<!DOCTYPE svg PUBLIC "-//W3C//DTD SVG 1.1//EN" "http://www.w3.org/Graphics/SVG/1.1/DTD/svg11.dtd">
<svg width="1168pt" height="686pt" viewBox="0 0 1168 686" version="1.1" xmlns="http://www.w3.org/2000/svg">
<g id="#fefefeff">
</g>
<g id="#0d0d0dff">
<path fill="#0d0d0d" opacity="1.00" d=" M 729.90 90.36 C 748.65 90.33 767.31 86.50 786.07 88.20 C 801.00 88.38 814.41 95.73 828.87 98.46 C 838.54 101.81 848.69 103.68 858.28 107.23 C 865.86 112.19 875.04 114.10 882.14 119.88 C 890.29 126.33 900.30 129.97 908.11 136.86 C 914.80 141.97 921.82 146.59 928.87 151.16 C 935.94 157.69 942.85 164.48 949.28 171.65 C 956.72 184.51 969.94 192.82 976.96 206.02 C 981.51 214.61 986.18 223.17 991.66 231.22 C 996.51 240.64 1000.50 250.48 1004.51 260.29 C 1006.68 268.16 1011.38 275.45 1010.71 283.95 C 1014.42 306.08 1021.13 328.13 1019.24 350.83 C 1017.65 363.44 1017.46 376.27 1014.86 388.75 C 1013.26 400.52 1011.93 412.70 1006.62 423.50 C 1004.00 429.14 1002.28 435.15 999.76 440.83 C 991.46 456.96 985.99 474.52 975.58 489.56 C 972.64 495.46 965.79 497.73 962.50 503.35 C 958.31 510.30 954.15 517.70 947.39 522.49 C 944.67 524.44 942.65 527.13 940.66 529.78 C 936.64 535.11 930.35 537.99 925.97 542.97 C 915.79 554.39 903.11 563.55 888.92 569.30 C 883.20 573.06 877.25 576.82 870.30 577.57 C 857.40 582.84 844.88 589.27 831.42 593.12 C 821.65 595.91 811.80 598.45 801.91 600.79 C 778.21 601.64 754.08 605.96 730.53 601.10 C 716.71 596.16 701.80 595.92 687.87 591.40 C 676.00 587.90 663.40 584.46 653.75 576.30 C 648.06 571.99 640.77 570.81 634.78 567.09 C 618.47 553.45 597.87 544.91 584.79 527.50 C 577.77 535.25 569.51 541.72 562.28 549.27 C 556.51 555.19 550.39 561.10 542.91 564.79 C 533.01 568.65 525.19 576.23 515.48 580.47 C 505.16 584.83 495.00 589.66 484.28 593.03 C 468.44 597.22 453.45 606.39 436.51 604.97 C 429.72 603.14 423.67 607.45 416.99 607.37 C 396.90 607.70 376.45 607.80 356.88 602.75 C 345.91 601.43 335.63 597.16 324.79 595.25 C 313.25 593.34 302.09 589.06 292.25 582.75 C 281.03 575.77 268.53 570.94 257.90 563.00 C 246.61 552.27 232.60 544.52 222.43 532.57 C 215.53 522.24 204.72 515.30 198.05 504.80 C 193.84 499.46 188.60 494.85 185.57 488.64 C 177.59 471.30 164.98 456.01 160.54 437.14 C 158.78 431.58 156.02 426.37 154.42 420.75 C 151.39 403.03 148.42 385.29 145.93 367.48 C 143.62 349.71 146.72 331.91 147.68 314.17 C 150.51 300.35 153.15 286.47 156.04 272.67 C 166.07 254.32 171.19 233.46 182.96 215.97 C 188.98 207.73 193.83 198.41 201.85 191.87 C 214.32 176.05 230.25 163.61 243.95 148.94 C 248.65 143.66 255.29 140.96 261.03 137.05 C 265.33 134.40 269.07 130.90 273.60 128.61 C 285.41 123.34 297.86 119.53 309.32 113.47 C 317.66 110.02 326.33 107.36 334.40 103.26 C 338.81 100.79 344.15 102.64 348.67 100.55 C 356.03 97.41 363.84 94.97 371.97 95.72 C 386.74 96.49 400.98 90.43 415.82 91.66 C 425.88 92.54 436.50 91.75 445.95 95.84 C 459.40 100.98 473.99 102.67 487.10 108.75 C 501.59 113.49 515.57 120.04 527.87 129.12 C 546.97 139.47 564.58 152.53 580.28 167.53 C 592.56 155.59 606.30 145.35 619.50 134.48 C 625.28 129.13 632.93 126.67 639.30 122.18 C 646.57 117.11 654.10 112.30 662.25 108.75 C 672.42 106.35 682.58 103.57 692.08 99.16 C 704.42 95.16 717.51 94.24 729.90 90.36 M 687.55 112.65 C 680.67 115.86 674.09 119.93 666.54 121.43 C 643.61 127.21 624.34 141.71 606.05 156.05 C 599.42 161.76 594.60 169.21 587.87 174.82 C 592.55 183.25 600.66 189.00 605.99 196.97 C 615.03 210.75 624.66 224.26 631.65 239.26 C 636.18 249.27 642.47 258.55 645.36 269.24 C 647.89 285.36 653.20 300.87 655.52 317.03 C 657.69 323.11 658.66 329.50 657.73 335.99 C 655.08 361.78 656.52 388.10 650.38 413.45 C 640.71 431.42 638.72 452.57 628.27 470.22 C 624.15 476.86 622.17 484.84 616.36 490.35 C 611.37 494.88 608.52 501.11 604.31 506.28 C 600.75 511.33 595.80 515.49 593.30 521.23 C 592.23 523.29 594.26 525.01 595.61 526.30 C 601.84 531.06 607.89 536.06 614.19 540.72 C 629.21 550.53 644.55 559.88 660.05 568.92 C 665.39 572.02 671.68 572.86 677.05 575.93 C 688.39 581.20 700.61 584.44 713.06 585.75 C 723.52 586.15 732.82 591.43 743.02 593.03 C 764.80 592.24 786.60 590.98 808.28 588.79 C 815.60 586.69 822.80 584.15 830.25 582.47 C 841.28 580.09 851.17 574.50 861.06 569.30 C 867.54 565.50 875.62 566.74 882.09 563.06 C 889.48 558.18 896.88 553.31 904.12 548.21 C 912.72 543.83 918.65 536.03 925.49 529.49 C 931.89 522.86 939.01 516.86 944.49 509.40 C 947.19 505.82 950.77 503.06 953.69 499.67 C 967.96 485.30 976.56 466.64 985.95 448.96 C 989.66 438.65 993.32 428.26 998.51 418.55 C 1003.62 408.93 1002.88 397.68 1004.36 387.24 C 1006.20 379.54 1008.13 371.80 1008.13 363.84 C 1014.06 339.84 1006.79 315.38 1001.75 291.90 C 999.15 284.21 999.05 275.89 996.16 268.32 C 992.80 259.34 989.85 250.12 984.77 241.93 C 978.88 233.08 975.29 222.87 968.38 214.67 C 962.97 206.07 956.93 197.88 951.91 189.04 C 949.13 184.32 944.87 180.76 940.64 177.39 C 936.23 174.16 933.72 169.04 929.24 165.87 C 924.11 162.34 920.05 157.43 914.60 154.34 C 906.40 149.73 899.83 142.66 891.27 138.63 C 884.81 135.49 880.54 129.22 874.14 126.03 C 865.70 122.39 856.96 119.53 848.57 115.79 C 835.96 110.51 821.77 110.55 809.42 104.57 C 796.32 99.84 782.40 103.13 768.94 101.51 C 756.93 101.57 744.93 102.80 732.93 101.63 C 717.36 102.90 702.26 107.58 687.55 112.65 M 366.67 106.29 C 354.37 107.49 342.67 111.60 330.81 114.80 C 319.47 118.33 309.55 125.43 297.92 128.13 C 286.96 130.77 277.43 137.05 268.24 143.30 C 252.61 154.78 238.63 168.24 224.68 181.66 C 220.88 185.84 217.17 190.15 212.79 193.76 C 206.97 198.45 203.90 205.49 198.92 210.94 C 191.37 219.44 187.25 230.18 182.27 240.23 C 177.41 250.00 174.66 260.89 167.99 269.68 C 163.11 285.56 159.41 301.94 157.62 318.50 C 155.69 341.90 152.75 365.95 159.13 388.94 C 162.20 397.68 164.54 406.71 165.58 415.93 C 166.51 424.33 170.18 432.10 173.27 439.86 C 176.71 445.42 179.57 451.28 181.75 457.46 C 185.01 465.65 193.16 470.83 195.63 479.47 C 201.38 494.18 213.93 504.48 222.48 517.42 C 228.74 527.27 240.06 531.81 248.04 539.96 C 255.27 545.93 263.00 551.41 271.30 555.79 C 284.43 564.53 297.34 574.59 313.09 578.00 C 327.14 585.75 343.03 589.16 358.86 590.90 C 374.83 595.23 391.53 595.83 408.01 596.04 C 420.28 596.17 432.16 592.37 444.44 592.76 C 456.59 590.19 469.03 588.04 480.37 582.78 C 490.66 580.32 499.32 574.02 509.13 570.41 C 516.40 568.47 522.88 564.58 529.73 561.61 C 536.00 558.63 540.92 553.57 546.74 549.88 C 559.61 543.42 567.53 530.65 578.06 521.27 C 574.01 516.83 570.79 511.72 566.49 507.51 C 561.35 502.36 556.83 496.43 554.18 489.60 C 550.71 481.84 544.34 475.91 540.41 468.42 C 533.07 457.31 528.36 444.82 523.80 432.40 C 519.87 425.07 520.13 416.59 516.91 409.03 C 512.86 399.03 512.41 388.11 510.02 377.69 C 508.82 371.51 507.06 365.36 507.66 358.99 C 507.87 343.32 508.73 327.62 510.14 312.02 C 513.04 299.68 513.38 286.71 518.47 274.94 C 526.74 257.91 531.00 239.17 540.09 222.49 C 546.63 205.74 561.74 194.67 570.21 179.13 C 571.57 176.83 572.17 174.11 571.74 171.43 C 568.78 167.63 564.44 165.23 560.65 162.38 C 555.97 159.46 552.46 155.01 547.62 152.32 C 537.93 146.69 528.69 140.31 518.81 135.00 C 507.75 127.25 495.13 122.14 482.45 117.72 C 469.36 113.91 455.93 111.38 442.91 107.30 C 417.89 101.88 391.96 104.53 366.67 106.29 M 515.17 125.17 C 514.64 126.80 515.20 127.35 516.83 126.83 C 517.34 125.20 516.79 124.65 515.17 125.17 M 581.86 179.14 C 575.70 188.67 568.31 197.33 560.42 205.44 C 553.55 212.50 551.32 222.34 546.65 230.74 C 540.18 242.71 535.10 255.39 531.31 268.45 C 528.00 276.21 524.97 284.11 523.65 292.50 C 517.97 323.36 515.56 355.11 520.50 386.24 C 522.96 397.22 528.75 407.28 529.78 418.59 C 529.99 421.73 530.86 424.75 532.01 427.67 C 535.65 436.65 537.69 446.44 543.31 454.51 C 550.96 466.41 556.61 479.51 565.13 490.85 C 570.93 500.19 579.23 507.54 585.84 516.27 C 592.06 508.84 596.01 499.78 602.73 492.75 C 612.95 483.52 619.46 470.93 624.32 458.21 C 630.20 447.11 632.56 434.65 637.04 423.03 C 644.33 410.33 645.74 395.34 646.37 381.00 C 647.15 371.19 647.26 361.35 647.07 351.52 C 646.92 348.28 648.78 345.32 648.49 342.07 C 648.36 317.62 640.71 294.23 634.91 270.73 C 633.14 263.74 629.63 257.42 627.08 250.73 C 623.02 240.47 616.40 231.55 611.03 221.97 C 607.52 215.45 601.76 210.45 598.23 203.97 C 595.14 194.37 587.43 187.30 581.86 179.14 Z" />
<path fill="#0d0d0d" opacity="1.00" d=" M 1074.02 303.51 C 1077.81 304.65 1081.47 306.22 1085.05 307.94 C 1084.94 310.38 1084.86 312.83 1084.81 315.28 C 1079.58 317.12 1074.86 320.31 1072.01 325.16 C 1064.48 333.83 1057.37 342.88 1051.17 352.56 C 1051.94 353.28 1052.72 354.00 1053.50 354.73 C 1064.69 353.67 1075.90 353.02 1087.16 352.86 C 1088.15 348.52 1088.49 343.99 1089.97 339.79 C 1090.64 337.62 1093.03 337.83 1094.87 337.98 C 1098.57 344.28 1098.12 352.15 1099.31 359.12 C 1084.77 363.96 1069.13 363.69 1054.04 362.66 C 1049.80 362.36 1045.96 360.62 1042.18 358.90 C 1042.74 349.53 1049.43 342.68 1054.46 335.39 C 1059.01 328.60 1064.89 322.81 1069.32 315.94 C 1060.40 315.52 1051.05 318.77 1042.45 315.24 C 1043.30 313.52 1044.20 311.82 1045.09 310.12 C 1054.12 309.88 1063.26 310.65 1072.27 309.62 C 1072.70 308.09 1073.58 305.04 1074.02 303.51 M 1095.17 351.17 C 1094.64 352.79 1095.19 353.35 1096.83 352.83 C 1097.34 351.20 1096.78 350.64 1095.17 351.17 Z" />
<path fill="#0d0d0d" opacity="1.00" d=" M 567.67 335.98 C 566.64 325.11 573.93 313.19 584.85 310.71 C 592.70 311.69 600.40 313.72 608.31 314.39 C 607.66 319.71 609.72 326.61 604.90 330.54 C 599.99 327.14 597.55 320.55 591.59 318.67 C 588.44 318.31 584.13 318.21 582.69 321.73 C 576.89 329.94 581.66 340.35 579.19 349.47 C 583.26 351.87 587.55 355.92 592.66 354.61 C 598.26 350.30 603.22 344.64 610.56 343.31 C 608.77 351.36 603.41 358.26 596.85 363.04 C 586.46 364.34 576.16 359.18 569.56 351.39 C 565.79 347.14 567.88 341.00 567.67 335.98 Z" />
<path fill="#0d0d0d" opacity="1.00" d=" M 769.23 314.34 C 770.72 312.44 772.90 310.44 775.52 310.88 C 785.14 311.88 795.13 311.49 804.41 314.67 C 808.14 319.17 811.09 324.48 812.22 330.28 C 812.02 334.41 808.04 336.63 805.06 338.79 C 807.60 340.88 810.17 343.00 812.84 344.95 C 811.54 349.94 811.97 356.10 807.63 359.67 C 804.68 362.92 799.82 362.09 795.99 362.72 C 787.94 363.09 779.98 364.36 771.96 364.95 C 769.55 365.24 766.17 362.83 767.17 360.24 C 768.48 358.40 770.44 357.20 772.22 355.88 C 774.81 345.17 775.16 334.09 774.65 323.13 C 772.00 320.85 767.50 318.89 769.23 314.34 M 784.60 321.92 C 785.83 325.95 783.82 331.55 787.15 334.83 C 789.71 337.69 794.05 335.34 796.91 333.93 C 801.07 331.41 801.77 325.21 797.72 322.23 C 793.84 319.35 788.92 321.58 784.60 321.92 M 787.01 341.61 C 785.88 346.93 784.97 352.29 784.55 357.72 C 789.08 356.61 794.16 356.78 798.36 354.47 C 799.72 350.94 800.57 347.23 801.55 343.60 C 796.78 342.48 791.84 342.16 787.01 341.61 Z" />
<path fill="#0d0d0d" opacity="1.00" d=" M 70.23 314.02 C 75.38 311.91 77.42 316.61 79.65 319.79 C 88.09 319.16 96.54 318.99 104.99 319.55 C 109.67 319.44 114.53 314.12 118.79 318.15 C 123.81 322.24 118.76 328.28 118.45 333.14 C 115.56 341.64 118.60 350.62 116.62 359.20 C 109.88 356.77 102.94 354.90 95.83 356.95 C 96.30 365.81 98.16 374.83 96.62 383.69 C 92.95 383.04 89.30 382.44 85.69 381.60 C 86.66 372.46 89.36 362.75 85.36 353.99 C 78.98 355.74 73.91 359.92 68.84 363.91 C 67.36 361.37 65.56 358.89 64.92 355.98 C 65.61 347.06 69.57 338.51 68.67 329.44 C 69.26 324.54 65.94 317.93 70.23 314.02 M 77.83 335.53 C 80.77 335.74 86.64 336.14 89.57 336.35 C 92.43 332.55 91.72 323.83 84.95 326.10 C 78.33 323.43 77.75 331.65 77.83 335.53 M 96.96 335.45 C 101.82 336.46 108.73 337.73 111.77 332.67 C 113.64 328.54 108.86 324.47 104.97 326.01 C 97.98 322.61 98.09 332.01 96.96 335.45 M 78.49 342.19 C 77.09 344.19 76.15 346.35 75.05 348.56 C 79.12 349.74 83.23 350.80 87.43 351.41 C 88.44 348.97 89.50 346.55 90.55 344.13 C 86.61 343.07 82.59 342.17 78.49 342.19 M 96.00 341.98 C 96.01 345.00 95.99 347.93 96.00 350.99 C 100.12 351.01 104.23 351.04 108.35 351.07 C 109.12 348.09 109.85 345.04 110.56 342.07 C 105.71 342.00 100.85 341.98 96.00 341.98 Z" />
<path fill="#0d0d0d" opacity="1.00" d=" M 389.85 313.42 C 393.04 314.20 396.27 315.12 399.46 315.98 C 399.82 323.52 401.54 330.87 404.02 337.97 C 405.49 341.77 404.28 346.10 406.24 349.77 C 409.05 355.61 413.36 360.54 416.60 366.14 C 410.07 368.63 402.82 369.79 396.02 367.81 C 396.55 362.00 399.29 354.73 392.73 351.20 C 388.75 351.24 384.92 352.21 381.11 353.17 C 381.80 358.15 384.18 362.54 386.50 366.88 C 380.85 367.76 375.13 368.87 369.40 368.74 C 367.38 367.18 366.67 364.37 365.38 362.22 C 368.99 359.69 373.51 357.57 374.72 352.92 C 375.82 346.77 381.17 342.98 382.90 337.15 C 385.12 329.21 386.65 321.06 389.85 313.42 M 385.94 346.18 C 388.79 345.77 391.99 345.34 393.82 342.82 C 393.31 340.85 392.40 339.03 391.53 337.22 C 389.59 340.15 387.63 343.09 385.94 346.18 Z" />
<path fill="#0d0d0d" opacity="1.00" d=" M 582.80 393.99 C 588.40 392.97 594.22 394.54 599.85 394.96 C 602.53 401.33 606.78 407.57 605.87 414.85 C 602.84 420.77 597.42 425.12 594.09 430.85 C 592.83 436.20 592.84 441.82 592.19 447.29 C 583.90 447.89 582.72 437.53 585.08 431.95 C 588.17 426.41 592.32 421.26 597.73 417.84 C 597.11 413.19 599.99 406.72 595.54 403.30 C 585.04 399.17 586.05 416.32 576.13 415.27 C 575.99 407.97 577.03 399.09 582.80 393.99 Z" />
<path fill="#0d0d0d" opacity="1.00" d=" M 340.87 408.47 C 344.25 409.09 347.59 410.03 350.76 411.36 C 349.17 414.72 347.49 418.04 345.81 421.35 C 355.28 423.22 363.45 416.16 372.79 418.62 C 371.89 421.72 372.50 426.17 369.47 428.39 C 361.76 434.73 354.19 441.32 347.50 448.76 C 354.68 448.24 361.83 447.25 369.04 447.06 C 372.24 446.99 375.54 450.22 375.10 453.51 C 374.63 460.63 374.19 467.75 373.82 474.88 C 372.33 475.71 370.85 476.54 369.35 477.35 C 362.96 466.05 345.78 467.62 338.54 477.26 C 337.05 476.17 335.59 475.06 334.13 473.96 C 334.46 468.30 335.89 462.30 333.83 456.80 C 328.73 458.51 324.65 462.67 319.02 462.96 C 316.76 462.18 314.93 460.58 313.02 459.22 C 316.74 457.15 320.52 455.13 324.56 453.74 C 331.88 451.87 337.63 446.74 344.56 444.01 C 344.08 438.82 341.83 434.10 338.96 429.86 C 332.05 434.02 329.28 442.18 322.85 446.78 C 320.95 446.32 319.17 445.49 317.39 444.72 C 320.35 440.02 324.10 435.94 327.83 431.85 C 333.40 424.84 337.88 416.91 340.87 408.47 M 343.01 425.40 C 345.22 429.00 348.02 432.18 350.88 435.28 C 354.09 431.94 357.36 428.66 360.44 425.21 C 354.62 425.19 348.82 425.26 343.01 425.40 M 345.89 452.96 C 344.24 455.70 342.50 458.44 342.10 461.72 C 347.07 468.15 356.73 463.91 363.51 465.41 C 365.29 461.52 366.31 457.33 366.97 453.11 C 359.94 453.02 352.91 452.97 345.89 452.96 Z" />
<path fill="#0d0d0d" opacity="1.00" d=" M 758.46 426.56 C 759.88 420.49 761.44 414.44 763.33 408.51 C 766.10 409.52 768.84 410.63 771.60 411.72 C 770.55 417.00 768.51 421.98 766.66 427.01 C 771.39 426.38 776.09 425.57 780.82 424.85 C 779.11 436.84 779.19 448.98 778.93 461.07 C 779.09 465.22 775.50 468.18 772.36 470.26 C 766.76 470.83 763.13 465.69 758.69 463.09 C 763.38 461.42 769.97 461.18 771.67 455.51 C 773.82 447.23 772.82 438.44 772.96 429.95 C 770.69 431.09 767.77 430.89 766.16 433.00 C 762.94 441.28 764.85 451.25 759.96 458.97 C 755.44 466.82 746.07 469.30 738.59 473.36 C 737.34 472.02 736.08 470.69 734.83 469.37 C 739.27 466.19 744.29 463.99 749.22 461.70 C 748.33 459.36 747.40 457.04 746.52 454.70 C 741.38 456.21 736.39 458.45 730.99 458.88 C 727.93 458.61 725.26 456.90 722.55 455.60 C 727.73 450.27 732.55 444.50 735.26 437.49 C 731.10 436.40 726.97 435.22 722.85 434.04 C 723.04 432.41 723.24 430.79 723.47 429.17 C 728.43 429.87 733.28 431.26 738.27 431.84 C 745.36 431.80 752.16 429.66 758.46 426.56 M 742.95 437.97 C 746.86 442.85 751.08 447.52 754.15 453.01 C 754.83 453.00 756.18 452.97 756.85 452.96 C 758.41 445.74 759.17 438.39 759.31 431.00 C 754.34 434.32 748.66 436.35 742.95 437.97 M 735.50 452.96 C 738.74 452.19 741.86 451.27 745.14 450.53 C 743.43 447.76 741.73 444.99 739.88 442.32 C 738.24 445.79 736.72 449.32 735.50 452.96 Z" />
<path fill="#0d0d0d" opacity="1.00" d=" M 794.25 411.31 C 796.03 410.52 797.81 409.68 799.72 409.21 C 803.01 413.19 805.50 417.77 807.79 422.38 C 805.16 423.40 802.42 424.31 799.80 425.29 C 798.28 420.49 796.12 415.95 794.25 411.31 Z" />
<path fill="#0d0d0d" opacity="1.00" d=" M 828.07 414.42 C 834.86 415.81 840.85 411.86 847.21 410.44 C 849.60 416.28 844.98 420.95 843.25 426.13 C 842.79 438.39 846.02 450.58 844.79 462.83 C 842.17 466.71 838.78 472.03 833.18 470.90 C 829.53 468.54 826.59 465.22 824.01 461.77 C 827.49 461.33 831.24 461.01 834.79 460.59 C 838.01 446.82 835.02 432.59 834.83 418.70 C 827.62 418.74 820.53 420.23 813.38 420.55 C 810.34 418.85 811.66 415.59 812.51 413.00 C 817.66 413.84 822.87 414.02 828.07 414.42 Z" />
<path fill="#0d0d0d" opacity="1.00" d=" M 395.09 415.37 C 396.93 414.58 398.75 413.69 400.71 413.21 C 404.09 417.26 406.61 421.94 408.88 426.67 C 406.21 427.52 403.45 428.17 400.69 428.60 C 398.25 424.46 396.70 419.87 395.09 415.37 Z" />
<path fill="#0d0d0d" opacity="1.00" d=" M 440.53 415.46 C 444.56 414.57 448.72 414.42 452.84 414.59 C 446.54 430.35 449.31 447.63 450.45 464.08 C 452.21 470.34 447.95 477.82 441.39 478.65 C 437.33 475.63 433.71 472.03 429.34 469.45 C 429.22 468.88 428.99 467.72 428.87 467.14 C 432.91 467.07 436.97 467.00 441.03 466.95 C 441.05 451.52 441.58 435.99 439.28 420.69 C 431.23 421.00 423.23 421.93 415.20 422.32 C 413.39 421.76 411.87 420.58 410.27 419.62 C 411.58 418.04 412.91 416.48 414.23 414.92 C 422.97 414.93 431.82 417.10 440.53 415.46 Z" />
<path fill="#0d0d0d" opacity="1.00" d=" M 729.91 415.42 C 733.71 417.19 737.65 418.92 741.97 418.83 C 745.81 418.19 749.12 415.89 752.65 414.35 C 753.60 416.47 754.58 418.59 755.08 420.88 C 748.33 423.39 740.93 423.49 733.87 424.58 C 731.22 424.93 728.89 423.40 726.59 422.39 C 727.68 420.06 728.80 417.74 729.91 415.42 Z" />
<path fill="#0d0d0d" opacity="1.00" d=" M 804.92 427.35 C 814.29 426.93 823.68 426.28 832.98 424.95 C 832.98 426.36 832.98 429.19 832.98 430.60 C 826.21 431.47 818.48 429.95 812.63 434.24 C 815.57 435.41 818.55 436.31 821.59 437.22 C 823.55 435.54 825.54 433.90 827.62 432.35 C 828.57 433.38 829.54 434.42 830.52 435.46 C 829.64 442.89 831.02 450.66 828.22 457.78 C 825.16 456.42 822.27 454.95 819.37 453.33 C 817.16 456.12 814.73 458.73 812.03 461.05 C 810.63 459.69 809.23 458.35 807.82 457.02 C 806.10 460.28 804.09 463.37 802.34 466.62 C 799.83 466.77 797.34 466.92 794.85 467.08 C 795.29 456.65 796.57 446.21 794.84 435.81 C 791.75 434.71 788.86 433.47 785.98 431.97 C 790.45 429.97 795.06 428.06 799.90 427.22 C 801.96 428.90 803.23 431.30 804.70 433.47 C 799.34 438.80 802.66 446.50 803.08 453.00 C 804.42 452.99 805.78 452.99 807.15 452.99 C 809.44 447.39 811.45 441.50 810.23 435.35 C 810.31 432.42 807.06 431.21 805.21 429.56 C 805.13 429.01 804.99 427.90 804.92 427.35 M 817.00 441.00 C 816.99 443.66 816.99 446.33 817.00 449.00 C 818.50 449.00 821.50 449.00 823.00 449.00 C 822.99 446.33 822.99 443.66 823.00 441.00 C 821.50 441.00 818.50 441.00 817.00 441.00 Z" />
<path fill="#0d0d0d" opacity="1.00" d=" M 430.53 428.15 C 434.31 426.25 436.66 429.59 439.00 431.65 C 428.73 433.81 417.77 435.63 407.40 432.93 C 408.38 431.74 409.37 430.58 410.36 429.41 C 417.08 429.03 423.82 428.72 430.53 428.15 Z" />
<path fill="#0d0d0d" opacity="1.00" d=" M 386.85 437.94 C 392.90 435.27 399.38 433.77 405.87 432.59 C 405.97 441.21 406.08 449.83 406.28 458.46 C 407.14 458.72 408.86 459.22 409.71 459.47 C 413.05 452.59 412.85 444.80 413.59 437.36 C 419.97 438.33 426.47 439.05 432.83 437.49 C 433.85 438.39 434.87 439.29 435.89 440.20 C 435.96 446.76 435.99 453.32 435.98 459.89 C 434.26 460.70 432.55 461.53 430.85 462.38 C 428.12 460.94 425.31 459.59 422.48 458.42 C 420.66 461.34 418.86 464.27 416.94 467.12 C 415.18 465.59 413.43 464.05 411.68 462.52 C 408.71 467.20 405.36 471.63 401.64 475.74 C 400.50 474.66 399.38 473.60 398.25 472.54 C 398.01 462.33 398.01 452.12 397.87 441.92 C 393.97 441.24 390.22 439.99 386.85 437.94 M 422.08 443.33 C 419.45 445.72 420.16 449.88 419.19 452.92 C 421.14 452.95 425.04 453.00 426.99 453.03 C 427.06 450.08 427.14 447.14 427.23 444.21 C 425.53 443.85 423.82 443.44 422.08 443.33 Z" />
<path fill="#0d0d0d" opacity="1.00" d=" M 587.86 464.63 C 586.15 458.42 589.99 454.89 595.71 454.15 C 595.80 456.91 595.96 462.43 596.05 465.19 C 593.31 465.01 590.58 464.82 587.86 464.63 Z" />
</g>
</svg>
