<?xml version="1.0" encoding="UTF-8" ?>
<!DOCTYPE svg PUBLIC "-//W3C//DTD SVG 1.1//EN" "http://www.w3.org/Graphics/SVG/1.1/DTD/svg11.dtd">
<svg width="677pt" height="617pt" viewBox="0 0 677 617" version="1.1" xmlns="http://www.w3.org/2000/svg">
<g id="#ffffffff">
</g>
<g id="#0a0a0aff">
<path fill="#0a0a0a" opacity="1.00" d=" M 59.99 38.99 C 62.49 38.60 64.92 37.85 67.31 37.02 C 68.44 40.17 67.77 43.53 67.77 46.79 C 70.68 46.46 73.55 45.84 76.46 45.54 C 79.18 48.59 82.45 52.92 80.36 57.12 C 78.95 60.69 76.21 64.56 72.02 64.74 C 68.85 65.13 65.98 63.60 63.15 62.45 C 62.97 55.92 63.23 49.39 63.03 42.86 C 61.75 41.74 60.06 40.94 59.99 38.99 M 68.79 50.07 C 67.33 53.33 68.22 57.11 68.49 60.54 C 70.02 60.59 71.56 60.62 73.10 60.64 C 74.36 58.96 75.09 56.99 75.70 55.00 C 74.73 52.70 73.24 50.72 71.10 49.38 C 70.53 49.56 69.37 49.90 68.79 50.07 Z" />
<path fill="#0a0a0a" opacity="1.00" d=" M 82.40 40.72 C 82.35 39.69 83.37 39.10 83.86 38.31 C 89.56 41.79 94.75 47.88 93.92 54.98 C 93.55 61.54 89.13 66.81 84.18 70.72 C 82.82 70.48 81.55 69.98 80.37 69.20 C 80.62 68.97 81.13 68.50 81.38 68.27 L 81.43 67.44 C 82.78 66.30 84.16 65.21 85.64 64.25 C 88.72 59.63 89.99 53.84 88.26 48.49 C 87.16 45.32 84.56 43.14 82.40 40.72 Z" />
<path fill="#0a0a0a" opacity="1.00" d=" M 249.13 40.79 C 250.80 40.96 251.78 39.37 252.96 38.49 C 254.94 39.80 257.39 40.89 257.18 43.72 C 255.27 43.77 253.38 43.79 251.48 43.76 C 249.45 46.90 249.73 50.69 250.38 54.20 C 251.53 53.33 252.66 52.44 253.80 51.55 C 254.99 52.10 256.22 52.55 257.50 52.88 C 257.82 53.19 258.47 53.81 258.79 54.12 C 258.67 54.71 258.43 55.89 258.31 56.48 C 256.15 56.63 253.98 56.71 251.82 56.79 C 251.59 57.32 251.11 58.38 250.87 58.91 C 252.35 62.91 252.44 67.50 250.85 71.48 C 250.09 71.77 248.58 72.34 247.82 72.63 C 246.59 71.76 245.48 70.75 244.36 69.77 C 243.26 69.55 242.16 69.33 241.07 69.11 C 240.43 68.34 239.80 67.56 239.17 66.78 C 238.29 66.74 236.51 66.65 235.63 66.61 C 235.13 67.53 234.64 68.45 234.16 69.37 C 233.16 69.51 232.17 69.65 231.17 69.78 C 230.48 65.02 231.05 60.20 233.11 55.82 C 230.80 56.25 228.47 56.54 226.14 56.85 C 226.13 56.06 226.09 54.48 226.07 53.69 C 228.01 53.69 229.96 53.67 231.90 53.66 C 231.96 50.35 232.01 47.03 231.64 43.74 C 230.13 43.76 228.62 43.77 227.11 43.79 C 227.16 43.01 227.24 41.47 227.28 40.70 C 234.56 40.88 241.85 40.83 249.13 40.79 M 233.61 44.39 C 235.82 44.70 238.07 44.80 240.30 44.59 C 238.62 42.23 235.80 43.80 233.61 44.39 M 244.62 43.21 C 243.89 46.51 243.34 49.85 242.42 53.10 C 241.59 52.76 239.93 52.08 239.10 51.74 C 238.04 51.74 236.98 51.74 235.93 51.74 C 235.73 52.23 235.34 53.21 235.15 53.70 C 238.74 53.81 242.34 53.57 245.94 53.73 C 247.09 50.27 247.68 45.88 244.62 43.21 M 236.19 47.01 C 236.18 47.66 236.17 48.96 236.16 49.60 C 237.38 49.63 238.61 49.65 239.85 49.67 C 239.75 49.10 239.55 47.96 239.45 47.39 C 238.36 47.26 237.28 47.13 236.19 47.01 M 232.77 56.92 C 233.84 58.45 235.41 59.08 237.48 58.79 C 236.52 60.20 235.79 61.74 235.24 63.35 C 236.80 63.51 238.38 63.62 239.95 63.71 C 239.49 62.23 240.24 59.23 237.13 60.60 C 237.45 60.08 238.08 59.05 238.40 58.53 C 239.87 58.23 241.34 57.88 242.82 57.56 C 243.22 60.79 242.14 64.34 243.66 67.34 C 244.93 67.54 246.23 67.48 247.52 67.49 C 247.56 63.60 249.15 58.86 246.49 55.56 C 242.98 55.79 239.47 55.73 235.96 55.76 C 235.16 56.05 233.57 56.63 232.77 56.92 Z" />
<path fill="#0a0a0a" opacity="1.00" d=" M 411.98 38.74 C 414.40 38.66 417.72 38.42 418.14 41.68 C 422.43 41.89 426.74 41.82 431.04 41.72 C 431.36 39.51 433.43 39.77 435.11 39.65 C 436.11 41.51 437.51 43.26 437.63 45.46 C 434.57 45.95 431.47 45.83 428.40 45.53 C 428.05 46.93 427.74 48.34 427.46 49.75 C 429.38 49.70 431.35 49.65 433.08 48.66 C 434.02 49.26 435.96 49.38 435.56 50.95 C 435.02 53.59 434.33 56.21 434.70 58.92 C 436.10 61.27 435.55 64.06 435.61 66.64 C 433.81 68.61 430.79 69.49 428.88 67.07 C 428.75 68.83 428.60 70.60 428.38 72.36 C 427.27 72.47 426.16 72.57 425.05 72.66 C 424.28 71.80 423.50 70.94 422.73 70.10 C 424.11 69.15 423.57 67.35 423.75 65.96 C 423.64 60.96 424.04 55.93 423.37 50.96 C 422.86 51.66 421.95 52.19 421.85 53.10 C 421.52 57.72 422.10 62.37 421.61 66.98 C 421.79 69.21 417.63 69.08 417.79 66.97 C 417.59 61.22 417.91 55.46 417.59 49.71 C 419.66 49.71 421.74 49.69 423.81 49.65 C 423.76 48.53 423.67 47.42 423.56 46.30 C 421.68 45.76 419.76 45.38 417.90 44.78 C 417.62 44.97 417.04 45.36 416.76 45.55 C 416.83 48.02 416.74 50.49 416.11 52.89 C 415.35 56.23 416.35 59.82 414.96 63.04 C 413.95 66.66 411.01 69.26 408.20 71.54 C 407.53 71.56 406.19 71.58 405.52 71.60 C 405.61 68.19 408.92 66.49 410.84 64.13 C 410.23 63.46 409.63 62.79 409.05 62.11 L 407.62 62.91 C 406.69 56.98 406.03 50.93 405.85 44.91 C 405.36 42.75 408.56 39.75 410.20 43.05 C 411.00 41.70 411.74 40.31 411.98 38.74 M 409.95 60.09 C 410.73 60.64 411.51 61.19 412.29 61.74 C 412.86 55.11 413.35 48.19 411.95 41.66 C 408.78 47.30 410.18 53.94 409.95 60.09 M 428.89 51.77 C 428.61 52.25 428.03 53.19 427.75 53.66 C 427.78 57.00 427.78 60.35 427.77 63.69 C 428.70 63.67 429.64 63.66 430.58 63.64 C 430.57 59.63 430.60 55.63 430.52 51.62 C 430.11 51.66 429.30 51.74 428.89 51.77 Z" />
<path fill="#0a0a0a" opacity="1.00" d=" M 464.56 38.43 C 467.09 37.75 469.40 38.86 470.89 40.93 C 469.87 41.96 468.88 42.98 467.86 44.00 C 467.83 44.41 467.78 45.24 467.76 45.66 C 468.90 45.28 470.03 44.88 471.19 44.48 C 472.11 45.26 473.03 46.04 473.95 46.83 C 473.80 47.55 473.50 49.00 473.36 49.72 C 473.61 49.69 474.13 49.63 474.39 49.60 C 474.39 48.97 474.39 47.72 474.39 47.09 C 476.09 45.16 475.16 42.38 475.53 40.06 C 475.89 39.40 476.59 38.08 476.95 37.42 C 479.30 38.29 482.01 39.11 483.13 41.61 C 481.37 43.35 480.05 45.44 479.05 47.68 C 480.72 47.64 482.38 47.53 484.06 47.39 C 485.31 46.35 487.59 45.23 488.88 46.87 C 491.15 48.21 490.18 50.94 489.85 53.00 C 488.90 57.39 489.33 61.90 489.31 66.34 C 488.94 66.69 488.19 67.38 487.82 67.73 C 486.10 71.97 480.99 70.95 478.47 68.12 C 478.44 67.30 478.41 66.47 478.39 65.64 C 480.62 65.54 483.02 66.04 485.11 65.08 C 485.42 60.40 485.85 55.68 485.60 50.99 C 484.44 50.58 483.31 50.14 482.18 49.69 C 478.66 48.94 476.02 51.04 473.99 53.66 C 477.09 53.02 479.95 54.06 482.44 55.83 C 482.38 57.56 482.32 59.29 482.25 61.02 C 481.48 61.37 480.72 61.72 479.96 62.07 C 479.61 61.94 478.90 61.67 478.54 61.53 C 477.73 58.72 477.61 53.67 473.52 54.32 C 473.31 59.07 473.55 63.82 473.55 68.56 C 472.50 68.58 470.41 68.61 469.37 68.62 C 469.37 67.88 469.37 66.41 469.37 65.67 C 467.74 65.67 466.12 65.67 464.50 65.67 C 464.50 67.30 464.50 68.93 464.51 70.56 C 463.31 70.59 462.11 70.62 460.92 70.66 C 460.48 70.19 460.04 69.72 459.60 69.25 C 460.24 68.29 460.53 67.24 460.46 66.08 C 460.56 58.97 460.35 51.86 460.56 44.76 C 461.85 44.74 463.14 44.72 464.44 44.69 C 464.46 42.61 464.50 40.52 464.56 38.43 M 464.56 47.79 C 464.49 50.15 464.48 52.51 464.50 54.87 C 466.22 54.62 467.90 54.15 469.47 53.40 C 469.41 51.93 469.36 50.46 469.30 48.99 C 468.83 48.68 467.90 48.04 467.43 47.72 C 466.47 47.75 465.51 47.77 464.56 47.79 M 463.51 57.56 C 463.52 58.43 463.54 60.18 463.55 61.06 C 463.88 61.72 464.54 63.05 464.87 63.72 C 466.04 63.65 467.23 63.64 468.42 63.46 C 470.22 61.67 469.07 58.84 469.34 56.59 C 467.35 56.64 465.38 56.88 463.51 57.56 Z" />
<path fill="#0a0a0a" opacity="1.00" d=" M 495.53 38.49 C 497.46 37.83 498.91 39.74 500.43 40.62 C 507.22 45.60 508.58 56.00 503.93 62.85 C 502.30 65.37 500.04 67.35 498.03 69.54 C 496.97 69.53 495.91 69.53 494.86 69.51 C 496.02 66.91 498.43 65.24 500.03 62.96 C 501.95 59.63 503.35 55.75 502.65 51.86 C 501.45 47.97 498.80 44.78 495.94 41.98 C 494.75 41.11 495.32 39.67 495.53 38.49 Z" />
<path fill="#0a0a0a" opacity="1.00" d=" M 562.11 37.77 C 563.68 37.77 565.27 37.75 566.86 37.73 C 566.73 39.50 566.66 41.30 565.92 42.95 C 565.82 44.17 565.75 45.39 565.69 46.61 C 568.53 47.48 571.45 47.11 574.30 46.46 C 572.68 44.63 569.68 43.65 569.80 40.75 C 574.01 40.17 577.95 41.60 581.52 43.72 C 581.91 45.07 582.28 46.43 582.59 47.80 C 582.16 48.52 581.30 49.95 580.87 50.66 C 578.76 50.51 576.79 49.69 574.72 49.35 C 574.60 51.15 574.58 52.96 574.64 54.76 C 576.49 54.50 578.31 54.08 580.15 53.74 C 581.05 54.43 581.93 55.14 582.79 55.90 C 582.19 57.55 581.55 59.19 580.90 60.82 C 581.18 64.02 579.63 66.81 577.26 68.83 C 574.26 68.83 571.73 67.12 569.74 65.02 C 571.72 64.69 573.72 64.26 575.63 63.61 C 576.12 62.00 576.56 60.38 576.92 58.74 C 573.15 58.81 569.31 58.87 565.73 57.51 C 565.20 61.89 567.39 66.08 566.45 70.44 C 565.48 70.47 563.54 70.51 562.57 70.54 C 561.75 68.67 561.98 66.71 562.55 64.81 C 561.98 62.47 561.75 60.08 561.67 57.68 C 557.66 57.75 553.65 57.76 549.65 57.60 C 549.81 56.25 550.00 54.90 550.19 53.55 C 554.46 53.72 558.73 53.73 563.01 53.61 C 562.54 52.10 562.05 50.60 561.58 49.10 C 558.20 49.89 554.70 49.58 551.34 50.45 C 551.31 49.40 551.25 47.30 551.22 46.25 C 554.73 46.70 558.27 46.91 561.81 46.78 C 561.84 43.78 561.84 40.77 562.11 37.77 M 565.17 53.18 C 567.03 53.66 568.87 54.24 570.72 54.81 C 570.70 53.20 570.66 51.59 570.62 49.99 C 569.59 49.62 567.52 48.90 566.49 48.53 C 565.97 50.06 565.53 51.61 565.17 53.18 Z" />
<path fill="#0a0a0a" opacity="1.00" d=" M 48.26 47.08 C 50.57 43.63 53.37 39.66 57.82 39.08 C 57.81 42.79 54.21 44.65 52.60 47.61 C 51.33 50.59 52.12 53.91 51.38 56.99 C 52.33 59.87 53.66 62.59 54.85 65.37 C 55.47 65.48 56.69 65.70 57.30 65.81 C 57.72 67.40 58.10 69.01 58.45 70.62 C 56.68 70.60 54.92 70.55 53.15 70.46 C 51.22 68.34 49.30 66.21 47.65 63.87 C 45.34 58.51 45.06 52.15 48.26 47.08 Z" />
<path fill="#0a0a0a" opacity="1.00" d=" M 133.60 38.72 C 135.01 38.76 136.41 38.81 137.82 38.86 C 139.17 40.33 140.98 40.89 142.94 40.93 C 143.75 41.64 144.56 42.33 145.38 43.02 C 145.45 44.22 145.50 45.41 145.55 46.60 C 147.06 47.96 148.77 49.05 150.57 49.99 C 150.01 50.71 149.45 51.44 148.90 52.17 C 148.35 52.36 147.25 52.74 146.69 52.93 C 146.64 53.52 146.52 54.70 146.46 55.30 C 144.69 57.11 142.94 58.95 141.26 60.85 C 142.09 61.74 142.91 62.65 143.73 63.55 C 144.50 63.57 145.27 63.59 146.04 63.61 C 146.64 62.04 147.90 60.96 149.23 60.00 C 149.40 61.69 149.53 63.39 149.68 65.09 C 151.46 67.11 149.80 69.17 148.37 70.74 C 147.55 70.51 146.73 70.28 145.91 70.05 C 143.17 68.85 139.81 67.67 139.00 64.41 C 137.05 65.82 135.03 67.12 133.07 68.52 C 132.08 68.59 131.09 68.66 130.10 68.74 C 128.95 70.48 127.11 70.82 125.16 70.68 C 124.10 69.52 122.76 68.70 121.38 67.99 C 121.89 67.24 122.41 66.48 122.93 65.73 C 123.59 65.67 124.92 65.55 125.58 65.49 C 125.55 63.41 125.50 61.33 125.47 59.25 C 124.04 61.28 122.06 62.78 119.84 63.88 C 118.84 61.93 117.91 59.94 117.36 57.81 C 120.03 57.73 122.71 57.67 125.37 57.41 C 125.49 55.46 125.55 53.51 125.60 51.56 C 124.33 51.66 123.07 51.76 121.82 51.87 C 119.83 52.90 117.41 52.98 116.03 50.89 C 118.65 48.61 122.41 50.10 125.53 49.72 C 125.55 48.88 125.59 47.19 125.61 46.35 C 123.02 46.90 120.45 47.56 117.81 47.84 C 117.75 47.20 117.64 45.94 117.59 45.30 C 122.00 43.65 126.45 42.12 130.88 40.55 C 131.72 41.43 132.58 42.30 133.44 43.16 C 133.50 41.68 133.56 40.20 133.60 38.72 M 137.55 43.59 C 137.58 45.64 137.59 47.68 137.60 49.73 C 139.75 49.73 141.92 49.59 144.01 49.03 C 142.93 48.33 141.83 47.64 140.73 46.97 C 140.60 45.93 140.48 44.88 140.36 43.84 C 139.98 43.56 139.22 43.00 138.84 42.72 C 138.52 42.93 137.87 43.37 137.55 43.59 M 131.19 44.67 C 130.10 46.11 129.22 47.70 128.36 49.29 C 130.35 49.60 132.37 49.67 134.38 49.51 C 134.50 47.80 134.58 46.08 134.66 44.36 C 133.50 44.47 132.35 44.57 131.19 44.67 M 130.58 51.70 C 130.12 52.00 129.19 52.60 128.73 52.91 C 128.67 53.33 128.54 54.17 128.47 54.59 C 130.11 54.64 131.75 54.68 133.39 54.72 C 133.47 55.12 133.64 55.91 133.72 56.31 C 132.42 56.86 131.13 57.42 129.83 57.96 C 128.04 60.48 129.25 63.25 129.90 65.95 C 132.56 64.73 135.16 63.32 137.48 61.52 C 137.70 59.90 136.45 58.57 135.87 57.15 C 135.49 56.11 135.09 55.08 134.67 54.05 C 134.61 53.46 134.49 52.26 134.43 51.66 C 133.14 51.68 131.86 51.69 130.58 51.70 M 138.64 51.75 C 138.62 53.34 138.60 54.93 138.59 56.52 C 138.97 56.55 139.74 56.61 140.12 56.64 C 140.47 56.04 141.17 54.82 141.52 54.21 C 141.50 53.36 141.49 52.52 141.48 51.67 C 140.53 51.69 139.59 51.72 138.64 51.75 Z" />
<path fill="#0a0a0a" opacity="1.00" d=" M 190.41 39.62 C 198.50 41.33 206.80 40.85 215.02 40.66 C 215.66 39.87 216.31 39.07 216.97 38.28 C 219.14 39.36 221.58 40.86 221.86 43.54 C 219.69 43.74 217.52 43.80 215.35 43.81 C 215.05 47.18 215.08 50.58 215.30 53.96 C 216.55 53.31 217.72 52.49 219.08 52.07 C 220.43 52.46 221.70 53.07 222.98 53.66 C 222.82 54.96 222.64 56.27 222.46 57.57 C 220.39 57.66 218.32 57.70 216.26 57.72 C 216.03 61.90 216.25 66.08 216.08 70.25 C 215.94 72.21 213.16 72.84 211.56 72.43 C 208.11 70.80 204.86 68.75 201.89 66.36 C 200.54 67.26 199.23 68.23 198.03 69.33 C 197.17 69.49 196.31 69.64 195.45 69.79 C 194.40 65.37 195.50 60.84 195.32 56.37 C 193.32 56.56 191.31 56.69 189.30 56.77 C 189.30 55.36 189.31 53.96 189.34 52.56 C 191.65 52.63 193.96 52.69 196.28 52.81 C 196.22 49.66 196.33 46.50 195.87 43.37 C 193.96 43.10 192.04 42.85 190.13 42.64 C 190.22 41.63 190.31 40.63 190.41 39.62 M 199.61 44.42 C 201.80 44.73 204.02 44.75 206.23 44.74 C 206.64 44.98 207.46 45.47 207.87 45.71 C 208.26 48.48 208.33 51.35 207.15 53.96 C 208.08 53.85 209.95 53.64 210.88 53.53 C 211.18 50.28 211.15 47.00 210.69 43.76 C 207.01 43.91 203.18 43.18 199.61 44.42 M 200.47 46.44 C 200.39 47.54 200.32 48.65 200.27 49.76 C 201.76 49.68 203.25 49.57 204.75 49.42 C 203.68 47.95 202.26 46.84 200.47 46.44 M 200.37 51.56 C 200.46 52.60 200.55 53.64 200.65 54.68 C 202.17 54.41 203.66 54.03 205.15 53.60 C 204.40 51.47 202.23 51.63 200.37 51.56 M 197.10 57.26 C 199.52 58.82 202.40 59.03 205.06 57.98 C 206.60 56.88 207.42 59.05 208.50 59.69 C 208.09 60.67 207.69 61.66 207.29 62.64 C 207.75 64.31 208.11 66.00 208.46 67.70 C 209.50 67.58 210.55 67.47 211.60 67.35 C 211.85 63.60 213.13 59.29 211.12 55.87 C 207.03 55.55 202.91 55.78 198.82 55.70 C 198.24 56.22 197.67 56.74 197.10 57.26 M 197.94 63.30 C 199.56 63.92 201.19 64.50 202.87 64.91 C 202.96 63.56 204.58 61.28 202.48 60.83 C 200.36 60.10 198.47 61.19 197.94 63.30 Z" />
<path fill="#0a0a0a" opacity="1.00" d=" M 285.78 38.60 C 288.19 38.53 291.16 39.21 290.85 42.27 C 290.34 42.59 289.32 43.23 288.81 43.55 C 288.35 44.27 287.89 45.00 287.42 45.72 C 289.41 45.64 291.40 45.56 293.40 45.60 C 293.50 46.99 293.61 48.37 293.71 49.76 C 293.86 49.76 294.17 49.77 294.32 49.77 C 295.82 46.49 296.79 43.00 296.67 39.37 C 299.13 38.79 301.53 39.93 302.95 41.97 C 301.15 43.71 299.40 45.50 297.87 47.47 C 301.41 48.21 305.00 47.70 308.38 46.56 C 308.92 46.92 310.00 47.66 310.55 48.03 C 310.95 51.78 309.16 55.29 309.51 59.03 C 309.74 62.21 309.35 65.35 308.38 68.38 C 307.30 69.22 306.54 70.80 304.96 70.67 C 302.35 71.61 300.50 69.15 298.39 68.09 C 298.46 67.80 298.60 67.23 298.67 66.94 C 300.53 66.53 302.36 65.98 304.19 65.44 C 304.50 64.85 305.12 63.68 305.43 63.09 C 305.51 58.63 305.50 54.16 305.40 49.70 C 302.87 49.75 300.35 49.76 297.83 49.72 C 296.78 51.07 295.73 52.42 294.73 53.79 C 295.65 53.74 297.49 53.64 298.41 53.59 C 298.43 53.83 298.49 54.29 298.51 54.52 C 299.16 54.57 300.46 54.66 301.10 54.70 C 301.43 55.30 302.07 56.48 302.39 57.07 C 302.47 57.92 302.63 59.64 302.71 60.50 C 301.56 61.28 300.25 61.72 298.87 61.91 C 298.35 59.18 296.78 56.82 296.04 54.16 C 295.73 54.19 295.12 54.25 294.81 54.28 C 294.50 54.90 293.88 56.15 293.57 56.78 C 293.47 60.67 293.93 64.61 293.49 68.47 C 291.85 71.00 289.67 68.88 289.07 66.84 C 287.58 66.35 286.09 65.88 284.59 65.44 C 284.59 66.78 284.60 68.11 284.61 69.45 C 283.29 69.93 281.97 70.40 280.64 70.85 C 280.39 62.30 280.70 53.74 280.56 45.19 C 281.71 45.25 282.87 45.37 284.03 45.28 C 284.65 43.07 285.15 40.82 285.78 38.60 M 284.57 48.49 C 284.50 50.54 284.53 52.59 284.55 54.64 C 286.24 54.65 287.94 54.66 289.64 54.66 C 289.59 52.72 289.53 50.77 289.44 48.83 C 287.81 48.71 286.19 48.58 284.57 48.49 M 285.10 56.22 C 284.70 56.85 283.89 58.10 283.49 58.73 C 283.74 60.34 283.19 62.28 284.53 63.53 C 286.21 63.76 287.91 63.70 289.60 63.74 C 289.57 61.73 289.54 59.73 289.49 57.73 C 288.18 57.69 286.88 57.65 285.58 57.61 C 285.46 57.27 285.22 56.57 285.10 56.22 Z" />
<path fill="#0a0a0a" opacity="1.00" d=" M 315.30 39.43 C 316.88 39.51 318.45 39.65 320.03 39.79 C 321.76 41.89 323.31 44.13 325.02 46.26 C 325.98 49.16 327.94 51.80 327.45 55.02 C 326.93 56.02 326.43 57.03 325.95 58.05 C 325.70 59.11 325.47 60.18 325.26 61.25 C 322.91 65.28 320.41 70.25 315.18 70.87 C 315.11 67.97 317.49 66.22 318.89 64.00 C 320.41 61.88 321.30 59.41 322.32 57.03 C 322.35 55.28 322.39 53.53 322.43 51.79 C 321.99 50.80 321.56 49.81 321.16 48.81 C 320.45 47.19 319.73 45.57 319.04 43.94 C 317.28 42.84 314.94 41.93 315.30 39.43 Z" />
<path fill="#0a0a0a" opacity="1.00" d=" M 381.11 38.59 C 383.04 38.82 384.98 39.13 386.90 39.52 C 386.79 41.41 386.49 43.27 386.18 45.14 C 387.15 44.67 388.12 44.18 389.09 43.68 C 390.23 44.09 391.38 44.48 392.54 44.88 C 393.18 43.44 393.83 42.00 394.47 40.56 C 394.87 40.63 395.69 40.77 396.10 40.83 C 397.39 41.56 398.69 42.27 400.00 42.99 C 399.23 44.50 398.27 45.89 396.85 46.86 C 395.52 48.49 393.38 49.47 392.77 51.61 C 393.45 51.60 394.82 51.58 395.50 51.57 C 396.33 50.80 397.17 50.04 398.01 49.29 C 399.66 50.82 401.57 52.30 402.15 54.60 C 398.04 54.81 393.93 54.71 389.83 54.72 C 388.04 56.37 386.01 57.71 384.02 59.09 C 383.18 59.39 382.91 61.56 384.13 61.35 C 387.30 60.80 390.23 59.42 392.97 57.78 C 394.25 58.04 395.53 58.37 396.80 58.74 C 396.70 59.60 396.60 60.46 396.51 61.32 C 393.05 61.93 389.65 62.86 386.20 63.48 C 384.71 63.35 383.91 64.63 382.89 65.40 C 385.17 68.10 388.80 68.11 391.89 66.98 C 393.82 66.74 395.76 66.43 397.54 65.61 C 397.91 64.33 398.31 63.06 398.70 61.78 C 399.15 61.71 400.05 61.57 400.49 61.50 C 400.94 63.70 401.67 65.87 401.80 68.13 C 400.90 69.54 399.41 70.35 398.02 71.18 C 392.69 71.98 387.28 71.61 381.92 71.49 C 379.00 69.38 379.03 65.98 379.11 62.72 C 376.06 64.03 373.80 67.36 370.17 66.77 C 370.21 65.49 370.19 64.20 370.37 62.92 C 371.00 62.69 372.25 62.22 372.88 61.98 C 377.01 60.94 379.06 56.87 382.76 55.27 C 382.59 54.89 382.26 54.12 382.09 53.74 C 378.69 53.71 375.28 53.72 371.88 53.71 C 371.15 54.01 370.42 54.31 369.70 54.61 C 369.54 53.95 369.23 52.62 369.08 51.95 C 369.50 51.62 370.34 50.96 370.75 50.63 C 374.73 50.67 378.72 50.84 382.68 50.42 C 382.33 49.10 381.92 47.81 381.50 46.52 C 378.68 47.21 375.56 48.57 372.70 47.42 C 372.50 46.86 372.08 45.74 371.88 45.18 C 372.36 44.84 373.33 44.15 373.81 43.80 C 376.55 43.82 379.29 43.81 382.04 43.76 C 381.74 42.03 381.40 40.31 381.11 38.59 M 386.24 47.67 C 386.21 49.17 386.21 50.66 386.25 52.16 C 388.03 51.23 389.71 50.00 390.04 47.87 C 388.77 47.80 387.50 47.74 386.24 47.67 Z" />
<path fill="#0a0a0a" opacity="1.00" d=" M 448.66 43.25 C 450.65 41.26 453.03 39.74 455.38 38.22 C 455.43 39.80 455.44 41.39 455.41 42.98 C 451.75 43.62 450.82 47.53 449.27 50.31 C 447.41 53.01 450.69 56.13 448.69 58.86 C 449.07 60.00 449.43 61.15 449.78 62.31 C 450.85 63.60 451.92 64.90 452.97 66.22 C 455.20 66.68 454.90 68.95 454.66 70.63 C 454.15 70.60 453.13 70.53 452.62 70.50 C 449.36 67.21 445.91 63.75 444.84 59.06 C 444.50 57.35 443.88 55.69 443.66 53.95 C 444.95 50.22 446.73 46.69 448.66 43.25 Z" />
<path fill="#0a0a0a" opacity="1.00" d=" M 265.12 51.15 C 267.25 46.38 270.13 40.59 275.71 39.44 C 276.56 42.83 273.14 44.24 271.59 46.60 C 270.33 48.52 269.65 50.74 268.75 52.83 C 268.82 56.22 268.20 59.92 270.32 62.86 C 271.55 65.77 275.43 67.22 274.81 70.82 C 272.57 69.58 269.86 68.74 268.48 66.43 C 265.54 61.97 263.66 56.46 265.12 51.15 Z" />
<path fill="#0a0a0a" opacity="1.00" d=" M 122.69 74.95 C 123.45 74.40 124.21 73.86 124.98 73.31 C 125.50 73.88 126.03 74.45 126.57 75.02 C 126.66 93.76 126.60 112.50 126.60 131.25 C 140.39 131.18 154.18 131.26 167.97 131.22 C 169.67 131.23 171.35 130.95 173.02 130.63 C 173.48 130.79 174.41 131.10 174.87 131.26 C 177.79 129.29 181.01 131.46 184.12 130.66 C 188.00 129.60 191.94 131.45 195.84 130.30 C 196.16 130.56 196.81 131.09 197.13 131.35 C 257.74 131.09 318.38 131.29 379.01 131.20 C 380.75 131.13 382.47 131.43 384.09 132.09 C 413.09 132.42 442.10 132.08 471.10 132.26 C 474.25 132.41 477.26 131.28 480.39 131.03 C 480.46 111.78 480.22 92.53 480.51 73.28 C 481.92 73.78 484.70 73.60 484.40 75.87 C 484.43 95.69 484.40 115.52 484.41 135.35 C 483.00 135.87 481.55 136.34 480.03 136.25 C 470.85 136.25 461.68 136.24 452.50 136.27 C 452.22 143.53 453.32 150.94 451.59 158.07 C 451.44 171.93 451.59 185.80 451.47 199.66 C 430.30 199.80 409.13 199.65 387.96 199.74 C 385.60 199.70 383.10 200.03 380.95 198.84 C 373.63 198.59 366.30 198.68 358.98 198.84 C 355.17 199.88 351.16 199.36 347.27 199.74 C 347.15 186.51 347.28 173.29 347.20 160.06 C 346.87 155.90 349.09 151.91 347.87 147.76 C 348.45 143.59 348.38 139.35 347.56 135.23 C 339.84 135.32 332.13 135.21 324.42 135.29 C 324.37 141.54 324.55 147.80 324.29 154.05 C 323.49 155.59 323.35 157.32 323.40 159.03 C 323.41 172.57 323.46 186.11 323.37 199.65 C 312.45 199.78 301.53 199.69 290.62 199.71 C 290.61 219.48 290.58 239.24 290.62 259.01 C 290.69 261.03 290.41 263.06 289.65 264.95 C 286.80 264.91 283.96 264.76 281.14 264.39 C 278.02 263.93 275.04 265.39 271.93 265.31 C 270.72 264.75 269.46 264.18 268.09 264.26 C 263.40 264.21 258.64 264.13 254.04 265.14 C 242.97 265.45 231.89 265.15 220.82 265.29 C 219.95 264.85 219.08 264.41 218.21 263.99 C 217.75 242.55 218.55 221.08 217.79 199.66 C 209.61 199.54 201.37 200.28 193.24 199.15 C 193.27 218.43 193.23 237.71 193.27 256.98 C 193.27 259.45 193.41 261.97 192.73 264.38 C 169.06 264.11 145.39 264.33 121.72 264.26 C 121.84 228.19 121.56 192.12 121.87 156.05 C 122.64 154.49 122.80 152.74 122.76 151.02 C 122.69 125.66 122.80 100.31 122.69 74.95 M 126.58 134.37 C 126.63 140.25 126.64 146.14 126.61 152.02 C 126.68 153.40 126.30 154.73 125.72 155.97 C 125.43 169.11 125.74 182.27 125.57 195.42 C 138.02 195.99 150.50 195.52 162.96 195.69 C 165.68 195.60 168.58 196.11 171.11 194.83 C 173.07 194.72 175.06 194.71 176.99 195.16 C 181.57 193.63 186.26 195.84 190.84 194.87 C 193.61 194.14 196.20 195.93 198.99 195.68 C 239.13 195.61 279.27 195.82 319.41 195.58 C 319.35 183.03 319.40 170.49 319.38 157.94 C 319.30 156.57 319.62 155.23 320.23 154.00 C 320.57 147.80 320.28 141.59 320.41 135.38 C 280.62 135.10 240.82 135.34 201.02 135.27 C 197.97 135.30 195.05 134.08 191.98 134.25 C 170.18 134.37 148.38 134.10 126.58 134.37 M 351.27 135.29 C 351.18 140.21 351.28 145.12 351.27 150.03 C 351.40 153.09 350.13 155.99 350.25 159.04 C 350.34 171.23 350.14 183.43 350.36 195.63 C 360.57 195.77 370.79 195.55 381.00 195.76 C 382.22 196.36 383.52 196.79 384.91 196.69 C 404.97 196.66 425.03 196.71 445.09 196.67 C 446.29 196.54 448.57 196.75 448.47 194.93 C 448.75 182.95 448.46 170.96 448.59 158.97 C 450.16 151.51 449.23 143.83 449.49 136.26 C 427.68 136.14 405.86 136.42 384.05 136.12 C 382.46 135.42 380.73 135.17 379.01 135.24 C 369.76 135.31 360.52 135.20 351.27 135.29 M 125.64 198.69 C 125.57 219.54 125.66 240.40 125.60 261.25 C 132.40 261.14 139.20 261.32 146.00 261.15 C 147.56 260.60 149.21 259.89 150.88 260.49 C 154.84 261.62 158.97 261.15 163.03 261.22 C 171.05 261.22 179.07 261.20 187.09 261.24 C 188.98 261.72 190.59 259.84 190.23 258.04 C 190.24 238.26 190.16 218.48 190.27 198.70 C 168.72 198.71 147.18 198.74 125.64 198.69 M 222.20 199.73 C 221.55 208.80 222.47 217.92 221.93 227.01 C 221.43 232.76 222.94 238.62 221.37 244.28 C 223.40 249.88 220.43 255.84 222.43 261.28 C 243.53 261.21 264.63 261.12 285.72 261.32 C 288.91 258.89 285.92 255.23 286.55 252.01 C 285.94 244.59 287.93 237.36 287.61 229.96 C 287.86 225.58 285.47 221.33 287.35 217.03 C 286.09 214.53 286.75 211.66 286.61 208.99 C 286.44 206.60 288.20 204.27 286.89 201.98 C 286.74 201.41 286.43 200.28 286.28 199.71 C 264.92 199.73 243.56 199.69 222.20 199.73 Z" />
<path fill="#0a0a0a" opacity="1.00" d=" M 519.12 72.62 C 519.88 72.62 521.39 72.63 522.14 72.63 C 522.28 91.85 521.85 111.09 522.35 130.31 C 536.58 130.09 550.82 130.31 565.05 130.19 C 567.06 130.12 569.11 130.27 570.96 131.16 C 587.14 131.33 603.32 131.14 619.50 131.25 C 619.48 112.01 619.44 92.78 619.52 73.54 C 620.24 73.56 621.68 73.59 622.40 73.61 C 622.42 93.84 622.45 114.08 622.38 134.31 C 608.90 133.94 595.45 134.66 581.99 134.94 C 580.29 134.66 578.55 134.61 576.89 135.12 C 574.56 135.27 572.22 135.28 569.89 135.29 C 569.62 134.84 569.07 133.94 568.80 133.49 C 568.11 133.59 566.74 133.80 566.05 133.90 C 564.37 134.25 562.64 134.26 560.94 134.21 C 559.81 133.89 558.65 133.75 557.49 133.64 C 554.72 134.51 551.80 134.25 548.96 134.27 C 539.08 134.20 529.20 134.22 519.33 134.31 C 518.80 113.76 519.20 93.18 519.12 72.62 Z" />
<path fill="#0a0a0a" opacity="1.00" d=" M 287.33 91.27 C 290.46 90.78 293.40 92.43 293.73 95.76 C 295.61 95.25 297.48 94.68 299.39 94.27 C 300.95 96.60 300.48 99.40 300.45 102.03 C 300.04 102.70 299.64 103.38 299.24 104.06 C 300.18 104.32 301.14 104.53 302.05 104.92 C 302.89 105.79 301.84 107.04 301.70 108.01 C 301.35 111.40 301.71 114.81 301.35 118.19 C 300.26 120.29 297.67 120.08 296.01 118.87 C 293.85 118.57 292.21 117.41 292.43 115.01 C 292.93 114.17 293.42 113.32 293.90 112.46 C 293.27 112.48 292.01 112.54 291.38 112.56 C 291.47 114.53 291.56 116.51 291.61 118.48 C 290.86 118.47 289.37 118.44 288.62 118.43 C 288.57 116.31 288.53 114.19 288.46 112.07 C 287.85 112.62 287.24 113.17 286.64 113.73 C 286.71 115.84 286.71 117.95 286.61 120.06 C 285.89 119.89 284.46 119.53 283.75 119.35 C 283.52 116.88 283.54 114.40 283.35 111.93 C 282.47 114.46 281.45 116.95 280.32 119.39 C 279.75 119.67 278.60 120.23 278.03 120.51 C 277.40 120.15 276.13 119.43 275.50 119.07 C 276.42 115.25 277.71 111.03 275.47 107.39 C 274.74 107.39 273.27 107.39 272.54 107.39 C 272.43 103.17 276.23 100.31 276.99 96.27 C 277.41 93.61 279.63 91.95 282.13 91.32 C 283.19 92.63 284.08 94.08 284.94 95.53 C 285.89 95.51 287.79 95.46 288.73 95.44 C 288.25 94.05 287.76 92.67 287.33 91.27 M 280.87 96.67 C 279.44 101.97 279.43 107.44 279.75 112.88 C 280.28 112.31 280.82 111.73 281.36 111.16 C 283.64 106.60 282.19 101.30 282.54 96.40 C 282.12 96.47 281.29 96.60 280.87 96.67 M 286.67 98.57 C 286.63 99.04 286.55 99.99 286.51 100.47 C 289.50 100.46 292.50 100.47 295.49 100.51 C 295.50 100.03 295.52 99.06 295.52 98.57 C 292.57 98.55 289.62 98.52 286.67 98.57 M 285.53 103.48 C 285.58 103.94 285.67 104.86 285.72 105.32 C 289.27 105.35 292.83 105.38 296.38 105.31 C 296.42 104.84 296.49 103.91 296.52 103.44 C 292.86 103.41 289.19 103.37 285.53 103.48 Z" />
<path fill="#0a0a0a" opacity="1.00" d=" M 558.89 91.51 C 562.29 91.74 565.93 90.82 569.14 92.35 C 573.12 92.61 577.21 92.85 581.07 91.55 C 581.67 91.88 582.86 92.55 583.46 92.88 C 583.52 93.75 583.58 94.62 583.66 95.50 C 580.38 95.56 577.10 95.56 573.83 95.55 C 573.44 97.86 573.17 100.19 572.99 102.52 C 576.06 102.24 579.07 101.42 582.17 101.51 C 582.33 102.19 582.64 103.57 582.79 104.26 C 580.19 106.23 576.75 105.17 573.76 105.42 C 573.51 105.98 573.02 107.10 572.77 107.67 C 572.74 108.63 572.68 110.57 572.65 111.53 C 573.59 112.58 574.56 113.59 575.56 114.59 C 578.45 115.00 580.40 112.51 583.11 112.35 C 584.58 113.34 585.68 114.73 585.79 116.59 C 581.18 115.62 576.51 118.48 572.08 116.69 C 571.55 116.88 570.50 117.27 569.97 117.47 C 568.51 116.23 566.61 116.22 564.81 116.14 C 562.30 115.63 559.73 115.43 557.18 115.38 C 556.93 114.76 556.69 114.14 556.45 113.53 C 558.51 113.42 560.57 113.37 562.65 113.38 C 564.18 108.46 561.73 103.14 563.64 98.17 C 564.70 98.58 565.74 99.06 566.77 99.59 C 565.19 103.53 566.38 107.76 566.23 111.87 L 566.80 113.01 C 567.52 113.28 568.95 113.84 569.67 114.11 C 569.35 107.61 570.72 100.81 568.85 94.51 C 565.05 94.58 561.25 94.62 557.47 94.41 C 557.82 93.69 558.53 92.24 558.89 91.51 Z" />
<path fill="#0a0a0a" opacity="1.00" d=" M 213.54 156.09 C 214.48 156.11 216.36 156.17 217.30 156.20 C 217.78 157.35 218.25 158.51 218.72 159.68 C 220.13 159.76 221.54 159.83 222.96 159.89 C 222.72 158.94 222.24 157.04 222.00 156.09 C 223.65 156.13 225.30 156.18 226.96 156.26 C 227.34 157.43 227.73 158.61 228.13 159.79 C 230.30 159.65 232.48 159.49 234.66 159.53 C 235.19 162.72 234.05 165.80 233.52 168.91 C 234.62 169.41 235.71 169.92 236.80 170.44 C 235.49 174.81 236.63 179.44 235.42 183.83 C 232.54 183.59 229.70 183.00 226.86 182.50 C 226.90 180.69 226.93 178.89 226.95 177.08 L 226.07 177.02 C 226.06 178.91 226.07 180.81 226.11 182.71 C 225.28 182.71 223.64 182.72 222.81 182.72 C 222.88 180.51 223.07 178.30 222.81 176.11 C 221.74 178.43 222.32 181.11 221.39 183.45 C 220.72 183.54 219.37 183.71 218.70 183.79 C 218.25 182.03 217.84 180.27 217.42 178.50 C 217.16 178.93 216.64 179.78 216.38 180.20 C 215.00 181.81 213.16 186.56 210.83 183.43 C 208.75 179.63 211.56 175.22 211.23 171.16 C 209.92 171.20 208.61 171.24 207.30 171.29 C 207.33 170.78 207.41 169.74 207.44 169.23 C 210.49 165.40 211.75 160.55 213.54 156.09 M 215.75 161.45 C 213.49 166.43 214.05 171.98 214.35 177.28 C 216.59 176.60 216.98 174.03 217.06 172.02 C 217.15 168.47 217.05 164.92 217.12 161.37 C 216.78 161.39 216.09 161.43 215.75 161.45 M 229.20 162.28 C 226.51 162.15 223.81 162.14 221.12 162.16 C 221.13 163.08 221.17 164.91 221.19 165.82 C 224.44 165.92 227.71 165.98 230.94 165.52 C 230.40 164.42 229.80 163.35 229.20 162.28 M 220.14 168.34 C 222.18 170.25 221.61 172.75 221.00 175.14 C 223.83 174.82 222.33 171.27 223.74 169.58 C 226.18 170.42 226.27 172.85 226.09 175.01 C 226.33 174.78 226.81 174.34 227.05 174.12 C 226.38 172.53 226.63 171.02 227.80 169.58 C 230.30 170.47 230.40 173.05 230.50 175.28 C 231.08 174.44 231.65 173.60 232.22 172.76 C 231.51 171.34 230.22 169.98 230.73 168.23 C 227.20 167.89 223.64 167.59 220.14 168.34 Z" />
<path fill="#0a0a0a" opacity="1.00" d=" M 407.17 156.13 C 409.71 156.44 413.24 158.34 412.58 161.38 C 408.94 162.51 405.13 160.74 401.43 161.61 C 400.79 163.86 400.85 166.18 401.37 168.44 C 404.39 167.78 407.48 166.75 410.59 167.72 C 410.61 168.58 410.66 170.31 410.68 171.18 C 407.39 171.11 404.10 171.10 400.83 171.29 C 400.85 174.07 400.97 176.85 401.37 179.61 C 404.44 180.22 407.33 179.06 410.08 177.80 C 411.26 178.20 412.45 178.58 413.65 178.96 C 413.63 179.86 413.60 181.66 413.58 182.55 C 406.07 182.72 398.49 181.01 391.08 182.67 C 388.43 182.11 382.66 184.12 384.41 179.35 C 386.50 179.06 388.62 179.07 390.74 179.05 C 391.12 174.56 390.82 170.05 390.91 165.55 C 391.60 165.39 392.99 165.05 393.69 164.88 C 394.02 169.30 393.90 173.73 393.90 178.16 C 394.16 178.56 394.68 179.36 394.94 179.75 C 395.61 179.68 396.94 179.52 397.61 179.45 C 397.67 173.40 398.62 167.11 396.92 161.22 C 392.97 161.11 389.02 162.11 385.11 161.13 C 385.22 160.45 385.45 159.09 385.57 158.41 C 390.02 157.75 394.56 158.09 399.03 158.48 C 401.79 158.03 405.30 158.78 407.17 156.13 Z" />
<path fill="#0a0a0a" opacity="1.00" d=" M 149.95 219.51 C 152.66 218.87 153.98 221.62 154.95 223.60 C 156.22 223.55 157.49 223.49 158.75 223.42 C 158.26 222.15 157.73 220.89 157.24 219.63 C 158.87 219.58 160.51 219.55 162.14 219.52 C 162.64 220.92 163.18 222.31 163.70 223.72 C 165.14 223.43 166.94 223.85 168.02 222.60 C 168.84 223.48 169.66 224.33 170.51 225.19 C 170.40 226.47 170.19 227.73 169.87 228.97 C 169.13 231.18 169.99 232.96 171.64 234.44 C 171.68 238.94 171.48 243.58 171.10 248.09 C 169.22 248.97 167.33 248.22 166.01 246.79 C 164.75 246.65 163.49 246.51 162.23 246.36 C 162.32 244.69 162.49 243.04 162.66 241.38 C 162.38 241.40 161.82 241.44 161.54 241.46 C 161.66 243.59 161.69 245.73 161.39 247.86 C 160.65 247.41 159.15 246.51 158.41 246.06 C 158.08 244.31 158.93 242.20 157.50 240.81 C 157.49 243.67 158.74 247.64 155.07 248.76 C 154.67 248.01 153.87 246.53 153.48 245.79 C 153.87 244.68 154.28 243.57 154.67 242.46 C 154.23 242.48 153.33 242.50 152.89 242.52 C 151.41 245.08 150.15 248.83 146.58 248.76 C 146.42 243.93 146.47 239.08 146.48 234.24 C 145.33 235.35 143.81 235.61 142.25 235.63 C 143.62 231.51 146.79 228.25 147.81 223.97 C 148.39 222.43 148.71 220.70 149.95 219.51 M 151.87 224.20 C 151.23 226.20 150.55 228.19 149.66 230.09 C 149.45 233.90 149.51 237.72 149.56 241.54 C 150.06 241.54 151.05 241.53 151.54 241.53 C 152.82 238.90 152.24 235.90 153.06 233.15 C 153.71 230.81 153.47 228.36 153.41 225.97 C 152.89 225.38 152.38 224.79 151.87 224.20 M 156.93 225.89 C 156.77 226.78 156.46 228.57 156.31 229.46 C 159.85 229.51 163.39 229.57 166.93 229.35 C 166.05 227.69 164.58 226.56 163.06 225.54 C 161.02 225.56 158.94 225.42 156.93 225.89 M 156.76 231.56 C 156.31 232.10 155.85 232.63 155.40 233.16 C 158.18 233.96 161.44 235.52 164.10 233.52 C 164.79 233.54 166.19 233.57 166.88 233.59 C 166.80 233.09 166.64 232.08 166.56 231.58 C 163.29 231.57 160.03 231.56 156.76 231.56 M 165.48 236.53 C 165.67 239.18 165.59 241.83 165.47 244.48 C 165.92 244.44 166.84 244.36 167.29 244.32 C 167.34 243.11 167.38 241.90 167.43 240.70 L 165.85 240.47 C 166.44 239.17 167.06 237.90 167.66 236.61 C 167.11 236.59 166.03 236.55 165.48 236.53 Z" />
<path fill="#0a0a0a" opacity="1.00" d=" M 255.69 222.75 C 258.30 222.65 261.07 222.64 263.11 220.72 C 264.28 221.51 265.45 222.31 266.70 222.98 C 266.54 224.25 266.42 225.59 265.53 226.60 C 262.96 224.70 259.53 225.84 256.57 225.63 C 256.12 227.91 255.89 230.22 255.76 232.53 C 257.17 232.49 258.58 232.43 260.00 232.34 C 260.97 231.88 262.02 231.65 263.07 231.42 C 263.72 231.77 265.02 232.46 265.68 232.81 C 265.68 233.71 265.68 234.61 265.69 235.51 C 262.66 235.53 259.62 235.57 256.59 235.63 C 255.78 238.50 255.86 241.48 256.18 244.42 C 258.35 244.36 260.51 244.30 262.69 244.28 C 262.66 243.82 262.61 242.91 262.58 242.45 C 263.92 242.44 265.26 242.42 266.61 242.42 C 268.00 243.70 269.98 246.15 267.34 247.34 C 258.05 247.45 248.74 247.38 239.44 247.34 C 239.48 246.38 239.55 244.48 239.59 243.53 C 241.45 242.99 243.10 243.88 244.68 244.74 C 245.43 239.71 243.89 234.35 245.78 229.54 C 246.39 229.57 247.60 229.62 248.21 229.65 C 249.71 233.98 248.31 238.66 249.18 243.09 C 249.81 243.75 250.58 244.27 251.31 244.83 C 253.01 241.08 253.51 236.73 251.92 232.86 C 252.04 232.42 252.28 231.53 252.41 231.08 C 252.09 229.22 251.84 227.34 251.61 225.47 C 248.71 225.23 245.94 226.38 243.07 226.11 C 241.88 225.79 240.69 225.49 239.50 225.22 C 239.86 224.57 240.59 223.28 240.95 222.63 C 244.00 222.61 247.06 222.44 250.10 222.69 C 251.96 223.10 253.96 224.09 255.69 222.75 Z" />
<path fill="#0a0a0a" opacity="1.00" d=" M 162.49 293.07 C 164.57 293.16 166.61 293.61 168.54 294.38 C 168.51 294.94 168.43 296.05 168.39 296.61 C 167.10 297.90 165.80 299.17 164.49 300.44 C 164.46 301.74 164.44 303.04 164.43 304.35 C 164.15 304.76 163.59 305.59 163.31 306.00 C 163.60 306.44 164.18 307.31 164.48 307.75 C 164.46 308.53 164.43 310.10 164.41 310.88 C 164.85 310.84 165.73 310.75 166.18 310.70 C 166.86 308.80 167.55 306.90 168.32 305.03 C 168.36 303.00 168.39 300.99 168.44 298.97 C 170.56 299.16 172.54 299.92 174.39 300.96 C 174.36 298.44 174.40 295.94 174.57 293.44 C 176.29 293.38 178.52 292.73 179.52 294.64 C 178.70 297.12 178.25 299.69 178.44 302.32 C 179.04 302.44 180.26 302.69 180.87 302.82 C 183.00 300.01 186.29 301.67 188.58 303.33 C 187.82 304.06 187.05 304.78 186.30 305.51 C 183.74 305.09 181.14 305.07 178.59 305.57 C 178.49 307.30 178.41 309.03 178.36 310.78 C 179.62 310.82 180.88 310.81 182.15 310.77 C 183.73 310.27 185.26 308.51 186.97 309.74 C 188.88 310.20 189.35 312.06 189.63 313.74 C 185.87 314.17 182.19 312.54 178.45 313.47 C 178.45 315.31 178.29 317.25 179.38 318.87 C 179.43 320.83 179.43 322.79 179.34 324.75 C 177.94 325.64 176.10 329.26 174.49 326.71 C 174.09 322.01 174.53 317.25 174.57 312.54 C 171.20 312.82 167.86 313.28 164.51 313.58 C 164.18 317.15 164.19 320.74 165.44 324.16 C 165.40 326.54 162.09 325.45 160.55 325.41 C 160.54 323.22 160.16 320.89 161.42 318.93 C 161.86 315.26 159.96 311.83 160.37 308.13 C 159.44 309.72 158.08 310.93 156.51 311.85 C 156.40 309.28 157.96 307.16 159.02 304.96 C 160.41 302.12 161.18 299.05 162.37 296.14 C 162.40 295.37 162.46 293.84 162.49 293.07 M 168.04 310.45 C 169.99 311.52 172.16 311.93 174.38 311.94 C 174.39 309.64 174.38 307.34 174.35 305.05 C 170.85 304.48 169.40 307.98 168.04 310.45 Z" />
<path fill="#0a0a0a" opacity="1.00" d=" M 54.20 294.22 C 55.20 294.25 56.19 294.29 57.19 294.33 C 57.32 294.99 57.57 296.31 57.70 296.97 C 54.47 299.48 52.68 303.23 51.27 306.97 C 50.99 309.97 51.01 313.02 51.23 316.04 C 53.04 319.60 56.13 322.24 58.74 325.19 C 57.56 325.63 56.47 326.49 55.17 326.51 C 53.41 325.88 52.17 324.36 50.77 323.20 C 49.03 320.29 46.39 317.65 46.27 314.06 C 46.35 310.50 45.43 306.56 47.42 303.35 C 48.51 301.16 50.15 299.32 51.49 297.28 C 51.96 297.06 52.90 296.60 53.37 296.37 C 53.58 295.83 53.99 294.76 54.20 294.22 Z" />
<path fill="#0a0a0a" opacity="1.00" d=" M 77.50 294.27 C 78.58 294.23 79.66 294.25 80.74 294.35 C 85.08 297.99 89.76 302.87 88.94 309.05 C 89.27 315.51 85.17 320.67 81.12 325.21 C 79.87 325.43 76.98 326.58 77.90 324.02 C 77.72 322.54 79.19 321.88 80.02 320.98 C 82.72 318.31 83.70 314.49 84.79 310.97 C 85.67 307.45 83.65 304.24 82.41 301.11 C 81.13 299.23 79.00 298.18 77.17 296.95 C 77.25 296.28 77.42 294.94 77.50 294.27 Z" />
<path fill="#0a0a0a" opacity="1.00" d=" M 234.64 294.26 C 235.93 294.20 237.23 294.16 238.53 294.14 C 239.75 296.15 240.63 298.81 243.26 299.31 C 243.46 298.82 243.86 297.83 244.06 297.34 C 248.60 300.30 253.95 298.03 257.86 295.13 C 260.08 295.75 261.08 298.02 260.67 300.19 C 257.75 300.14 254.82 300.15 251.90 300.27 C 251.89 302.38 251.87 304.49 251.80 306.60 C 254.29 307.93 256.69 306.56 259.00 305.56 C 260.69 304.88 260.99 307.33 261.81 308.29 C 260.49 308.69 259.16 309.07 257.84 309.45 C 257.86 315.41 258.20 321.39 257.55 327.33 C 256.30 327.05 255.06 326.79 253.81 326.53 C 253.94 320.69 253.93 314.84 253.77 309.00 L 251.68 309.60 C 250.15 313.07 250.31 316.97 249.23 320.54 C 247.34 323.24 245.03 325.97 241.87 327.19 C 242.43 325.42 243.38 323.80 243.88 322.02 C 243.67 319.59 241.93 317.64 241.20 315.35 C 243.27 316.09 245.30 316.94 247.34 317.77 C 248.37 312.34 247.51 306.78 247.89 301.30 C 247.22 301.31 245.87 301.33 245.20 301.34 C 244.33 303.31 243.29 305.21 242.09 307.00 C 243.77 307.14 247.05 305.11 247.06 307.97 C 246.71 310.45 243.48 308.49 241.98 309.59 C 241.50 310.04 240.54 310.95 240.06 311.40 C 241.81 312.03 243.39 311.13 244.97 310.51 C 246.15 311.03 246.39 312.37 246.78 313.45 C 244.60 313.79 242.41 314.07 240.23 314.38 C 239.31 318.56 241.70 322.63 240.37 326.75 C 237.28 327.46 234.75 325.91 233.01 323.48 C 231.76 324.75 229.19 327.22 229.07 323.85 C 230.59 320.61 232.74 317.71 234.28 314.47 C 232.58 314.05 230.91 313.59 229.25 313.08 C 231.95 311.81 234.96 311.87 237.87 311.77 C 237.86 311.12 237.83 309.82 237.82 309.17 C 234.56 308.88 230.74 310.00 228.01 307.70 C 229.98 307.25 231.99 306.94 233.99 306.66 C 233.89 305.09 233.79 303.52 233.67 301.96 C 231.53 302.16 230.16 301.26 229.58 299.26 C 231.96 299.14 234.35 299.13 236.73 299.17 C 236.71 298.71 236.66 297.80 236.64 297.35 C 235.84 296.41 235.20 295.35 234.64 294.26 M 237.36 302.03 C 237.80 304.01 238.26 305.99 238.86 307.94 C 240.28 306.02 241.07 303.75 240.65 301.36 C 239.55 301.57 238.45 301.80 237.36 302.03 M 233.87 321.81 C 235.11 321.71 236.35 321.60 237.59 321.49 C 237.88 319.67 237.81 317.84 237.41 316.06 C 235.54 317.48 234.57 319.62 233.87 321.81 Z" />
<path fill="#0a0a0a" opacity="1.00" d=" M 349.84 294.75 C 351.71 293.49 353.81 295.35 355.69 295.75 C 354.89 297.69 353.62 299.35 352.02 300.69 C 356.10 301.10 360.27 301.26 364.28 300.26 C 365.48 300.72 366.68 301.20 367.89 301.67 C 367.02 304.05 365.85 306.42 366.09 309.04 C 366.35 314.11 365.29 319.45 367.40 324.25 C 366.82 326.15 365.47 327.10 363.44 326.96 C 363.15 325.87 362.86 324.79 362.57 323.71 C 357.34 323.92 352.12 323.80 346.89 323.81 C 346.37 326.63 343.97 327.13 341.48 326.58 C 341.13 321.74 341.01 316.83 342.17 312.08 C 342.95 308.18 341.07 304.38 341.60 300.56 C 343.46 300.00 345.37 300.83 347.25 300.94 C 348.04 298.85 348.60 296.64 349.84 294.75 M 346.23 304.31 C 346.27 306.65 346.31 308.99 346.42 311.32 C 351.68 310.73 356.97 310.96 362.25 311.12 C 363.90 309.46 363.17 306.52 362.40 304.56 C 357.08 303.28 351.61 304.19 346.23 304.31 M 346.28 320.74 C 351.71 320.78 357.14 320.99 362.57 320.59 C 363.08 318.24 363.10 315.83 362.60 313.49 C 357.22 313.33 351.84 313.88 346.45 313.72 C 346.31 316.05 346.28 318.40 346.28 320.74 Z" />
<path fill="#0a0a0a" opacity="1.00" d=" M 386.05 294.13 C 387.22 294.65 388.39 295.17 389.57 295.70 C 389.88 297.17 390.16 298.64 390.45 300.13 C 393.23 299.68 396.12 298.23 398.82 299.73 C 398.82 300.48 398.82 301.98 398.82 302.73 C 397.33 303.13 395.83 303.53 394.57 304.46 C 396.71 304.84 398.88 305.15 401.04 305.41 C 401.53 305.94 402.03 306.47 402.54 307.00 C 401.57 310.16 401.80 313.46 401.58 316.72 C 395.18 316.15 388.76 315.26 382.33 315.54 C 382.03 318.20 382.02 320.89 382.44 323.55 C 389.05 323.97 395.71 323.96 402.32 323.55 C 402.77 321.28 403.05 318.81 404.88 317.17 C 406.01 320.39 407.41 326.32 403.15 327.67 C 396.55 327.87 389.79 328.40 383.32 326.76 C 380.59 326.24 379.06 323.40 378.14 321.03 C 377.61 317.03 378.14 312.96 377.83 308.94 C 376.82 309.40 375.83 309.89 374.84 310.39 C 374.40 309.94 373.96 309.51 373.52 309.08 C 377.83 304.20 383.54 300.36 386.05 294.13 M 385.95 302.44 C 384.88 303.38 383.80 304.31 382.70 305.23 C 385.05 305.72 387.57 306.28 389.94 305.56 C 391.01 304.69 391.68 303.45 392.49 302.36 C 390.32 301.97 388.05 301.48 385.95 302.44 M 391.35 308.47 C 391.25 309.90 391.16 311.33 391.10 312.77 C 393.34 312.79 395.58 312.78 397.82 312.74 C 397.76 311.05 397.69 309.36 397.60 307.67 C 395.51 307.91 393.43 308.17 391.35 308.47 M 382.11 308.22 C 382.18 309.70 382.28 311.18 382.43 312.67 C 384.22 312.74 386.01 312.78 387.81 312.80 C 387.83 311.25 387.85 309.71 387.86 308.17 C 385.94 308.16 384.02 308.16 382.11 308.22 Z" />
<path fill="#0a0a0a" opacity="1.00" d=" M 484.99 295.61 C 485.92 295.35 486.86 295.09 487.80 294.83 C 488.99 296.14 490.30 297.36 491.29 298.84 C 492.28 301.24 489.41 301.94 487.71 302.10 C 486.93 299.88 485.94 297.76 484.99 295.61 Z" />
<path fill="#0a0a0a" opacity="1.00" d=" M 557.46 294.29 C 558.97 294.24 560.48 294.23 562.01 294.25 C 562.95 295.47 563.93 296.66 564.79 297.95 C 564.35 298.77 563.90 299.57 563.43 300.36 C 566.24 300.79 568.10 302.75 569.77 304.87 C 571.85 305.84 574.27 305.31 576.49 305.34 C 576.84 302.43 577.24 299.22 575.47 296.67 C 576.98 294.65 579.52 295.14 581.70 295.47 C 581.22 298.45 580.72 301.44 580.61 304.47 C 582.46 304.29 584.37 303.99 586.21 304.57 C 586.38 305.36 586.71 306.92 586.88 307.70 C 584.36 307.99 581.83 308.20 579.38 308.87 C 579.67 309.20 580.24 309.85 580.53 310.18 C 581.01 315.93 580.84 321.75 580.53 327.51 C 579.04 327.62 577.56 327.72 576.08 327.77 C 574.69 326.36 573.13 325.12 571.47 324.05 C 572.22 323.62 572.97 323.19 573.72 322.76 C 574.46 322.77 575.95 322.77 576.69 322.78 C 576.76 317.90 576.77 313.03 576.67 308.15 C 572.99 308.15 569.00 308.69 565.88 306.27 C 565.25 307.10 564.62 307.93 563.99 308.77 C 565.66 308.03 567.54 306.38 568.90 308.57 C 567.74 309.65 566.62 310.76 565.47 311.86 C 566.86 313.25 568.00 314.81 567.87 316.92 C 565.38 317.36 563.98 316.13 563.55 313.86 C 562.34 318.11 564.14 322.32 563.52 326.59 C 562.59 326.61 560.72 326.66 559.79 326.68 C 559.90 322.01 559.95 317.35 559.79 312.68 C 557.84 313.98 555.72 315.19 553.28 314.57 C 553.68 313.96 554.09 313.36 554.50 312.76 C 558.31 311.09 560.47 307.42 563.09 304.41 C 560.12 304.24 557.15 304.19 554.24 303.55 C 554.32 302.99 554.47 301.88 554.54 301.33 C 556.33 301.21 558.12 301.12 559.93 301.06 C 559.20 298.76 558.27 296.55 557.46 294.29 Z" />
<path fill="#0a0a0a" opacity="1.00" d=" M 593.31 295.85 C 595.21 295.50 597.53 293.97 599.07 295.93 C 601.40 297.29 600.46 300.22 600.45 302.42 C 602.76 301.89 605.99 301.97 605.86 305.18 C 603.38 306.25 601.67 308.29 600.57 310.70 C 600.55 311.20 600.53 312.19 600.51 312.69 C 600.89 312.58 601.64 312.34 602.01 312.23 C 602.12 309.47 605.15 308.25 606.91 310.85 C 605.10 311.94 603.31 313.14 604.61 315.51 C 609.72 313.21 612.96 308.55 617.18 305.11 C 619.51 302.93 622.26 305.21 623.95 306.96 C 622.53 308.58 620.93 310.15 618.81 310.76 C 614.90 311.96 611.77 314.82 607.74 315.71 C 606.73 316.63 605.23 317.26 605.13 318.86 C 604.41 319.00 603.69 319.14 602.99 319.29 C 602.53 317.90 601.78 316.70 600.75 315.70 C 600.48 319.76 600.66 323.83 600.70 327.89 C 599.30 327.72 597.93 327.53 596.56 327.32 C 596.71 323.30 598.14 319.40 597.47 315.33 C 594.61 315.08 592.80 318.08 589.93 317.70 C 591.19 315.42 593.15 313.70 595.27 312.25 C 596.62 309.77 598.40 307.58 600.16 305.40 C 597.26 305.07 594.34 305.10 591.43 305.22 C 591.35 304.36 591.39 303.52 591.54 302.68 C 592.85 302.50 594.18 302.37 595.51 302.29 C 596.05 299.80 593.96 298.07 593.31 295.85 Z" />
<path fill="#0a0a0a" opacity="1.00" d=" M 607.99 305.15 C 611.85 302.29 613.00 297.29 616.80 294.46 C 619.04 295.68 621.25 297.01 622.91 299.01 C 618.11 303.70 612.02 306.86 605.82 309.36 C 606.10 307.72 606.82 306.31 607.99 305.15 Z" />
<path fill="#0a0a0a" opacity="1.00" d=" M 283.72 295.09 C 285.69 295.25 287.82 295.18 289.55 296.31 C 290.31 299.36 286.29 300.72 286.14 303.66 C 289.11 304.06 292.12 303.87 294.95 302.81 C 295.76 303.15 296.58 303.49 297.40 303.84 C 297.37 308.09 298.08 312.48 296.82 316.63 C 296.28 319.02 296.53 321.50 296.43 323.93 C 294.77 325.15 293.38 327.37 291.00 326.80 C 288.55 327.03 286.87 324.95 284.92 323.86 C 287.32 322.72 289.84 321.90 292.41 321.22 C 292.72 316.24 292.45 311.25 292.75 306.27 C 290.18 306.19 287.58 306.00 285.02 306.30 C 283.44 306.89 283.02 308.77 282.20 310.06 C 284.26 310.37 286.80 309.86 288.43 311.49 C 290.14 313.00 289.40 315.45 289.45 317.44 C 288.26 317.58 287.07 317.70 285.89 317.81 C 285.18 315.11 284.35 312.09 282.12 310.26 L 280.85 310.80 C 280.12 315.35 281.09 320.01 280.48 324.55 C 280.37 325.90 278.56 325.69 277.59 325.70 C 276.91 324.41 276.64 322.97 276.28 321.58 C 274.76 321.81 273.25 322.08 271.75 322.35 C 271.36 323.67 272.49 326.95 269.98 326.62 C 269.38 326.67 268.17 326.77 267.57 326.82 C 267.80 318.25 267.79 309.67 267.68 301.09 C 269.04 301.24 270.40 301.41 271.76 301.60 C 271.74 299.46 271.73 297.32 271.71 295.19 C 273.62 295.19 275.54 295.23 277.45 295.35 C 277.47 296.19 277.48 297.04 277.49 297.88 C 276.20 298.94 275.22 300.22 274.55 301.74 C 276.47 301.46 278.43 301.28 280.38 301.41 C 280.45 302.34 280.59 304.21 280.66 305.14 C 282.72 304.69 282.47 302.48 282.92 300.88 C 283.52 299.01 283.59 297.03 283.72 295.09 M 271.35 304.35 C 271.72 306.34 271.06 308.75 272.46 310.40 C 273.74 311.05 275.28 310.72 276.68 310.89 C 276.73 308.62 276.74 306.36 276.72 304.09 C 274.92 304.14 273.14 304.23 271.35 304.35 M 271.61 313.28 C 271.27 314.96 270.91 316.64 270.57 318.33 C 272.38 319.56 274.52 319.85 276.67 319.89 C 276.73 317.61 276.75 315.32 276.73 313.04 C 275.02 312.91 273.30 313.00 271.61 313.28 Z" />
<path fill="#0a0a0a" opacity="1.00" d=" M 450.77 295.50 C 452.87 295.08 455.08 295.24 456.80 296.67 C 456.80 299.03 454.09 299.76 452.80 301.29 C 455.15 302.02 457.58 302.52 460.07 302.51 C 459.55 301.19 459.02 299.92 458.46 298.64 C 462.88 297.44 467.50 298.09 472.02 297.85 C 473.01 296.98 474.02 296.13 475.04 295.30 C 476.42 296.84 479.28 298.02 478.76 300.51 C 477.32 301.37 475.63 301.17 474.04 301.18 C 469.37 301.09 464.70 301.12 460.03 301.24 C 460.17 301.86 460.45 303.10 460.59 303.72 C 465.06 303.70 469.57 304.30 473.98 303.26 C 478.46 302.77 475.08 307.67 475.46 310.06 C 476.00 313.87 475.05 317.68 472.51 320.63 C 472.49 321.73 472.49 322.84 472.51 323.95 C 473.41 323.38 474.31 322.79 475.22 322.21 C 476.82 322.46 478.21 323.26 479.51 324.21 C 479.48 324.84 479.43 326.11 479.40 326.74 C 471.74 326.99 464.07 326.60 456.41 326.79 C 456.46 325.73 456.53 324.67 456.60 323.62 C 458.93 323.65 461.26 323.72 463.60 323.75 C 463.62 319.71 462.16 315.90 461.22 312.03 C 459.09 312.05 457.05 312.56 455.16 313.52 C 455.35 313.88 455.73 314.61 455.92 314.97 C 457.48 315.87 459.00 316.86 460.50 317.87 C 460.49 319.32 460.48 320.77 460.45 322.23 C 459.80 322.41 458.50 322.78 457.85 322.96 C 456.96 321.14 456.64 318.64 454.41 318.00 C 453.23 321.72 451.50 327.12 446.70 326.90 C 446.65 326.25 446.56 324.96 446.51 324.32 C 447.03 324.09 448.05 323.62 448.56 323.39 C 449.14 322.77 449.72 322.16 450.31 321.55 C 450.56 320.41 450.85 319.28 451.17 318.16 C 451.54 316.44 452.16 314.77 452.34 313.02 C 450.59 312.77 448.82 312.67 447.08 312.45 C 446.54 311.24 445.97 310.06 445.40 308.88 C 446.03 308.13 446.67 307.39 447.32 306.66 C 449.04 303.14 450.58 299.46 450.77 295.50 M 447.92 309.32 C 449.39 309.78 450.89 310.09 452.41 310.38 C 452.42 308.85 452.41 307.33 452.41 305.81 C 450.52 306.41 449.13 307.82 447.92 309.32 M 456.60 305.21 C 456.57 306.23 456.51 308.26 456.47 309.28 C 458.12 309.38 459.76 309.59 461.40 309.86 C 461.43 308.31 461.47 306.77 461.51 305.23 C 459.87 305.22 458.23 305.21 456.60 305.21 M 464.67 306.58 C 464.59 308.32 464.52 310.06 464.46 311.80 C 467.14 311.86 469.82 311.89 472.51 311.82 C 472.43 310.10 472.35 308.39 472.27 306.68 C 469.79 305.66 467.19 305.95 464.67 306.58 M 463.88 315.95 C 465.02 316.73 466.18 317.49 467.38 318.21 C 467.49 320.22 467.57 322.23 467.74 324.24 C 468.64 322.95 469.47 321.61 470.26 320.24 C 470.15 317.83 471.65 315.92 472.67 313.89 C 471.05 313.85 469.43 313.81 467.82 313.77 C 466.49 314.47 465.18 315.20 463.88 315.95 Z" />
<path fill="#0a0a0a" opacity="1.00" d=" M 502.35 295.40 C 504.18 295.25 506.02 295.23 507.87 295.31 C 507.61 298.10 507.01 300.83 506.44 303.57 C 509.08 303.12 511.78 302.94 514.45 303.34 C 512.36 310.94 513.09 318.88 513.77 326.62 C 512.81 326.61 510.90 326.59 509.95 326.57 C 509.50 325.06 508.80 323.60 508.68 322.01 C 508.49 320.47 509.94 319.49 510.15 318.06 C 510.25 316.52 509.95 315.02 509.66 313.52 C 508.72 313.76 506.83 314.23 505.88 314.47 C 505.87 316.33 506.00 318.18 506.10 320.04 C 506.90 320.94 507.70 321.84 508.51 322.74 C 505.85 322.83 503.22 322.86 500.57 322.86 C 500.58 322.39 500.61 321.43 500.62 320.95 C 500.46 322.88 500.14 324.79 499.61 326.66 C 498.49 326.71 497.39 326.76 496.29 326.81 C 496.15 319.08 496.25 311.35 496.27 303.62 C 495.20 304.63 494.18 305.68 493.13 306.70 C 493.75 308.10 494.35 309.51 494.94 310.93 C 494.49 311.41 493.59 312.36 493.13 312.84 C 494.63 314.14 496.31 318.03 492.80 317.98 C 491.99 316.71 491.30 315.40 490.61 314.07 C 490.12 318.23 490.18 322.44 490.40 326.63 C 489.33 327.65 487.93 327.69 486.55 327.60 C 487.16 323.47 487.36 319.32 487.26 315.15 C 485.75 316.28 484.04 316.99 482.11 316.90 C 483.91 313.31 486.92 310.49 489.28 307.25 C 489.32 306.76 489.40 305.76 489.44 305.27 C 487.05 305.16 484.66 305.15 482.28 305.18 C 481.40 302.50 484.61 303.24 486.03 302.83 C 491.79 302.30 497.73 304.90 503.28 302.39 C 503.17 300.03 502.60 297.73 502.35 295.40 M 507.90 305.56 C 507.30 305.89 506.70 306.21 506.10 306.54 C 506.13 308.31 506.16 310.09 506.20 311.87 C 507.54 311.82 508.90 311.77 510.26 311.72 C 510.11 309.65 509.91 307.59 509.60 305.55 C 509.18 305.55 508.33 305.56 507.90 305.56 M 500.33 306.05 C 500.28 307.89 500.16 309.74 500.30 311.58 C 503.71 314.27 503.22 308.39 503.34 306.40 C 502.33 306.27 501.33 306.16 500.33 306.05 M 500.33 313.75 C 500.26 316.07 500.24 318.40 500.25 320.73 C 500.98 320.72 502.44 320.72 503.16 320.71 C 503.17 318.40 503.18 316.09 503.20 313.79 C 502.48 313.78 501.05 313.76 500.33 313.75 Z" />
<path fill="#0a0a0a" opacity="1.00" d=" M 59.27 307.17 C 61.57 303.77 64.73 300.43 69.07 300.11 C 71.28 301.31 75.14 301.81 75.10 304.95 C 75.17 306.89 73.15 307.54 71.93 308.57 C 70.37 307.07 69.02 305.38 67.96 303.49 C 66.36 304.62 64.82 305.84 63.27 307.04 C 63.18 309.14 63.19 311.24 63.37 313.33 C 64.04 313.50 65.39 313.82 66.06 313.99 C 69.56 316.17 71.77 311.61 74.84 310.71 C 75.14 313.06 74.54 315.31 73.41 317.36 C 71.33 318.29 69.32 319.52 67.04 319.89 C 63.73 319.78 61.70 316.79 59.29 314.94 C 59.07 312.35 59.07 309.76 59.27 307.17 Z" />
<path fill="#0a0a0a" opacity="1.00" d=" M 146.71 305.50 C 148.62 306.17 150.48 306.96 152.32 307.82 C 152.45 308.81 152.58 309.82 152.70 310.82 C 145.41 311.50 138.05 310.90 130.75 311.39 C 127.18 310.34 123.42 313.09 120.08 311.18 C 119.88 310.49 119.48 309.11 119.29 308.42 C 128.26 307.29 137.34 308.28 146.36 307.84 C 146.45 307.26 146.62 306.08 146.71 305.50 Z" />
<path fill="#0a0a0a" opacity="1.00" d=" M 570.25 309.94 C 572.80 311.30 575.70 313.16 574.49 316.52 C 573.57 316.60 571.72 316.76 570.80 316.84 C 570.73 314.53 570.49 312.23 570.25 309.94 Z" />
<path fill="#0a0a0a" opacity="1.00" d=" M 615.41 316.47 C 617.04 314.74 619.05 313.48 621.12 312.34 C 623.56 313.89 625.14 316.16 624.39 319.18 C 620.79 320.09 616.99 320.77 613.91 322.97 C 610.45 325.58 606.02 326.07 602.23 328.02 C 602.37 327.27 602.64 325.75 602.78 324.99 C 606.78 321.85 611.80 320.14 615.41 316.47 Z" />
<path fill="#0a0a0a" opacity="1.00" d=" M 122.74 327.72 C 123.65 327.73 124.56 327.74 125.48 327.76 C 125.28 332.79 126.54 338.16 124.73 342.98 C 124.52 357.31 124.56 371.66 124.71 385.99 C 125.07 386.30 125.78 386.93 126.14 387.24 C 147.51 387.52 168.89 387.29 190.26 387.35 C 190.12 374.22 190.33 361.08 190.17 347.95 C 189.68 345.03 189.37 342.07 190.01 339.15 C 190.84 335.26 189.06 330.80 191.60 327.37 C 191.97 327.50 192.71 327.76 193.07 327.89 C 193.39 328.35 194.01 329.28 194.32 329.75 C 194.24 332.89 194.30 336.03 194.23 339.18 C 193.47 341.01 193.17 342.98 193.23 344.96 C 193.28 360.09 193.22 375.22 193.26 390.35 C 169.41 390.46 145.55 390.36 121.70 390.41 C 121.88 374.94 121.52 359.47 121.85 344.01 C 123.28 338.69 122.56 333.15 122.74 327.72 Z" />
<path fill="#0a0a0a" opacity="1.00" d=" M 619.63 328.33 C 620.32 328.74 621.70 329.55 622.39 329.95 C 622.45 334.95 622.73 340.00 621.48 344.89 C 621.28 382.75 621.56 420.62 621.35 458.48 C 615.94 459.18 610.47 458.72 605.03 458.84 C 593.67 458.69 582.31 458.93 570.94 458.82 C 568.23 458.76 565.62 457.77 562.91 457.81 C 519.82 457.87 476.74 457.83 433.66 457.82 C 433.57 477.71 433.62 497.60 433.62 517.49 C 478.40 517.60 523.19 517.37 567.97 517.61 C 569.05 518.69 570.59 518.49 571.98 518.54 C 590.78 518.49 609.59 518.52 628.39 518.52 C 628.46 498.48 628.18 478.44 628.54 458.41 C 629.46 458.43 630.39 458.46 631.32 458.50 C 631.61 468.36 631.15 478.24 631.60 488.09 C 632.99 490.82 632.32 493.99 632.24 496.92 C 631.74 497.88 631.48 498.90 631.45 499.98 C 631.31 509.02 631.54 518.07 631.36 527.12 C 629.86 531.98 630.55 537.07 631.06 542.04 C 631.28 546.30 629.41 550.82 631.25 554.94 C 631.22 559.74 632.03 564.68 630.60 569.36 C 630.11 574.46 630.51 579.62 630.46 584.75 C 628.64 585.03 626.80 585.21 624.97 585.17 C 606.96 585.05 588.94 585.24 570.93 585.08 C 561.16 583.29 551.16 584.43 541.29 584.21 C 540.73 579.83 540.97 575.41 540.94 571.01 C 540.95 558.00 540.89 544.99 540.97 531.98 C 541.37 528.50 542.26 525.06 541.85 521.53 C 534.35 521.56 526.85 521.58 519.36 521.52 C 519.20 526.07 517.73 530.51 518.26 535.09 C 518.07 549.06 518.14 563.03 518.17 577.00 C 518.23 579.23 517.99 581.45 517.66 583.66 C 516.09 583.84 514.54 584.06 512.98 584.12 C 488.33 584.22 463.69 584.03 439.05 584.22 C 435.53 584.16 431.98 584.30 428.50 583.67 C 429.20 581.47 430.03 579.05 428.75 576.89 C 430.16 567.68 429.91 558.22 428.79 549.01 C 430.42 540.44 428.71 531.65 430.45 523.12 C 430.47 517.76 431.00 512.28 429.62 507.05 C 429.10 503.63 430.85 500.41 430.64 497.01 C 430.88 493.59 428.59 490.22 430.18 486.89 C 428.85 477.27 430.17 467.47 429.48 457.77 C 422.42 457.87 415.36 457.89 408.30 457.76 C 407.27 462.17 409.09 466.56 408.41 470.99 C 408.61 473.96 408.32 476.93 407.99 479.89 C 407.29 486.23 409.46 492.59 408.09 498.90 C 407.58 506.10 408.12 513.34 407.82 520.55 C 398.24 520.12 388.47 521.54 379.05 519.55 C 364.15 519.53 349.24 519.54 334.34 519.56 C 334.15 498.81 334.12 478.05 334.36 457.30 C 330.74 456.61 327.05 456.89 323.40 456.77 C 323.36 435.33 323.39 413.89 323.38 392.46 C 316.10 392.33 308.82 392.42 301.54 392.40 C 301.43 410.98 301.65 429.57 301.40 448.15 C 300.82 450.64 300.31 453.15 300.45 455.73 C 278.30 456.12 256.11 455.44 233.97 456.15 C 231.93 455.97 229.90 455.75 227.86 455.55 C 228.05 419.03 227.88 382.50 227.94 345.97 C 228.12 342.62 229.14 339.36 229.02 335.97 C 228.77 334.35 229.85 333.22 230.87 332.16 C 232.73 335.62 232.03 339.56 231.28 343.22 C 232.52 349.08 231.94 355.09 232.08 361.04 C 232.00 370.25 232.20 379.47 231.94 388.68 C 236.93 388.36 242.03 388.13 246.95 389.25 C 250.12 389.48 253.38 389.62 256.48 388.77 C 262.90 387.91 269.40 388.50 275.85 388.57 C 280.89 387.85 285.93 389.27 290.96 388.42 C 319.98 388.26 349.00 388.42 378.02 388.34 C 379.42 388.24 380.78 388.59 382.02 389.24 C 443.04 389.53 504.07 389.24 565.09 389.39 C 568.05 389.74 570.94 390.70 573.98 390.38 C 588.81 390.31 603.63 390.40 618.45 390.34 C 618.50 375.88 618.50 361.43 618.45 346.97 C 618.46 345.30 618.33 343.53 619.37 342.10 C 619.59 337.51 619.34 332.92 619.63 328.33 M 232.11 392.42 C 231.83 403.33 232.47 414.27 231.68 425.17 C 230.72 431.42 231.06 437.76 231.15 444.05 C 231.72 446.93 232.20 449.83 232.20 452.79 C 253.91 452.68 275.64 453.22 297.33 452.51 C 297.68 432.48 297.37 412.43 297.49 392.39 C 275.70 392.41 253.90 392.38 232.11 392.42 M 327.43 392.40 C 327.79 400.59 325.33 408.75 327.09 416.92 C 327.67 418.95 326.28 420.92 326.45 422.99 C 326.37 432.92 326.43 442.85 326.43 452.78 C 343.95 452.98 361.48 452.64 379.00 452.96 C 383.88 454.23 388.94 453.72 393.93 453.81 C 450.64 453.81 507.35 453.82 564.05 453.80 C 566.72 453.92 569.28 455.01 571.99 454.82 C 587.03 454.75 602.06 454.89 617.10 454.75 C 617.53 453.88 617.98 453.02 618.45 452.17 C 618.45 450.33 618.45 448.49 618.48 446.67 C 618.23 446.28 617.73 445.51 617.48 445.13 C 618.27 443.79 618.50 442.33 617.92 440.85 C 617.14 438.50 619.17 436.19 618.22 433.86 C 616.55 428.96 619.12 423.89 618.12 418.87 C 617.37 416.32 617.37 413.67 617.65 411.06 C 619.42 405.79 618.02 400.03 618.43 394.56 C 616.92 394.40 615.41 394.23 613.93 393.95 C 611.36 394.64 608.68 394.41 606.07 394.21 C 605.02 393.61 603.78 393.46 602.84 394.40 C 601.90 394.18 600.98 393.96 600.06 393.74 C 593.17 395.11 586.01 394.12 579.01 394.32 C 576.97 394.62 574.75 392.80 572.95 394.33 C 569.88 394.89 567.06 393.28 564.03 393.38 C 503.34 393.33 442.64 393.55 381.95 393.29 C 380.72 392.69 379.41 392.30 378.04 392.40 C 361.17 392.39 344.30 392.39 327.43 392.40 M 338.33 515.52 C 351.87 515.53 365.42 515.46 378.97 515.55 C 387.42 517.43 396.18 516.12 404.77 516.53 C 404.88 496.95 405.11 477.35 404.67 457.78 C 395.78 457.57 386.76 458.65 377.98 456.90 C 364.80 456.72 351.61 456.98 338.43 456.77 C 338.08 476.35 338.29 495.94 338.33 515.52 M 546.20 521.53 C 545.98 526.38 544.60 531.13 544.88 536.02 C 545.03 550.92 544.64 565.84 545.11 580.73 C 551.03 581.50 557.03 580.93 562.99 581.06 C 566.72 580.80 570.27 582.43 574.02 582.11 C 591.82 581.70 609.67 582.57 627.45 581.68 C 626.99 568.81 628.04 555.86 626.89 543.05 C 628.01 538.14 626.64 533.02 628.08 528.17 C 628.53 526.29 628.33 524.34 628.43 522.43 C 608.66 522.26 588.89 522.58 569.13 522.27 C 567.83 521.70 566.43 521.44 565.04 521.52 C 558.76 521.56 552.48 521.56 546.20 521.53 M 432.76 530.09 C 432.41 546.96 432.76 563.85 432.57 580.72 C 435.71 581.06 438.88 581.21 442.05 581.08 C 453.68 580.53 465.31 581.33 476.95 581.10 C 489.69 580.93 502.45 581.50 515.17 580.68 C 514.98 565.15 515.16 549.61 515.07 534.07 C 514.88 529.86 516.36 525.81 516.24 521.60 C 488.71 521.49 461.18 521.58 433.66 521.56 C 433.48 524.41 434.19 527.46 432.76 530.09 Z" />
<path fill="#0a0a0a" opacity="1.00" d=" M 157.27 346.64 C 158.57 346.66 159.89 346.58 161.18 346.77 C 162.60 347.53 162.38 349.41 162.82 350.71 C 164.25 350.47 165.97 350.81 167.03 349.58 C 168.16 350.35 169.30 351.12 170.34 352.04 C 169.66 354.11 169.32 356.25 169.35 358.44 C 169.11 358.59 168.63 358.90 168.39 359.05 C 170.13 359.62 172.43 360.79 171.08 362.99 C 169.33 366.65 171.48 370.46 171.16 374.14 C 168.28 375.31 165.36 373.47 162.46 373.32 C 162.43 371.35 162.40 369.38 162.37 367.42 C 162.17 367.41 161.76 367.40 161.55 367.40 C 161.52 369.52 161.49 371.64 161.46 373.76 C 158.97 374.29 155.70 372.06 158.59 369.77 C 158.00 368.82 157.38 367.90 156.77 366.99 C 156.54 369.47 156.50 371.98 156.48 374.48 C 155.75 374.50 154.29 374.53 153.55 374.54 C 153.47 372.71 153.40 370.88 153.29 369.05 C 151.46 371.21 149.95 373.62 147.99 375.66 C 147.01 375.59 146.27 374.92 145.46 374.47 C 145.52 370.10 145.44 365.74 145.46 361.38 C 144.46 361.91 143.46 362.43 142.44 362.95 C 142.41 360.09 143.94 357.66 145.17 355.20 C 145.88 353.84 146.60 352.49 147.37 351.16 C 147.43 349.93 147.48 348.71 147.53 347.49 C 149.48 346.51 151.50 347.02 153.46 347.65 C 153.49 348.37 153.56 349.81 153.59 350.53 C 155.30 350.55 157.02 350.55 158.74 350.55 C 158.25 349.23 157.75 347.95 157.27 346.64 M 150.75 351.65 C 150.61 352.24 150.33 353.43 150.18 354.02 C 148.81 358.38 149.81 363.06 149.55 367.55 L 151.37 367.62 C 151.48 365.43 151.61 363.25 151.87 361.08 C 152.92 358.03 152.36 354.75 152.44 351.60 C 152.02 351.62 151.18 351.64 150.75 351.65 M 155.97 352.92 C 155.79 353.81 155.44 355.60 155.26 356.50 C 158.73 356.59 162.20 356.61 165.67 356.49 C 165.55 355.86 165.31 354.59 165.19 353.96 C 162.26 352.86 159.07 352.12 155.97 352.92 M 155.65 358.61 C 155.60 359.11 155.49 360.09 155.44 360.58 C 156.24 360.60 157.83 360.63 158.63 360.64 C 157.95 361.57 157.26 362.49 156.56 363.41 C 156.54 363.93 156.49 364.98 156.47 365.50 C 156.98 365.49 158.00 365.48 158.51 365.47 C 158.56 363.91 158.61 362.35 158.58 360.80 C 161.33 360.62 164.09 360.59 166.84 360.39 C 166.06 359.79 165.28 359.20 164.51 358.61 C 161.55 358.65 158.60 358.64 155.65 358.61 Z" />
<path fill="#0a0a0a" opacity="1.00" d=" M 430.02 350.61 C 432.39 351.12 433.79 348.06 436.08 348.65 C 437.43 349.67 439.42 351.12 438.23 353.06 C 435.13 354.42 431.66 353.03 428.42 353.34 C 426.92 355.50 426.19 358.14 427.57 360.57 C 428.55 360.55 430.50 360.52 431.48 360.50 C 431.87 359.93 432.65 358.80 433.04 358.23 C 434.87 359.27 436.41 360.73 437.83 362.29 C 435.12 364.72 431.16 363.26 427.88 363.65 C 427.56 364.17 426.92 365.22 426.60 365.75 C 426.73 367.69 427.00 369.64 427.50 371.54 C 429.02 371.55 430.54 371.52 432.07 371.44 C 433.94 371.28 435.11 369.05 437.15 369.52 C 438.93 370.53 439.75 372.46 439.80 374.46 C 431.55 374.71 423.29 374.41 415.04 374.56 C 413.34 374.79 411.75 374.24 410.44 373.18 C 410.82 372.39 411.58 370.83 411.96 370.05 C 412.18 370.45 412.64 371.27 412.87 371.68 C 414.14 371.45 416.37 371.66 416.61 369.94 C 416.95 365.76 416.68 361.56 416.77 357.37 C 418.10 357.39 419.43 357.45 420.77 357.51 C 420.79 362.14 420.79 366.77 420.71 371.40 C 421.44 371.44 422.89 371.52 423.62 371.56 C 423.81 365.68 423.76 359.79 423.68 353.91 C 422.42 353.55 421.19 353.13 419.98 352.66 C 417.10 352.90 414.19 354.02 411.41 352.60 C 411.82 350.51 413.76 348.54 415.85 350.01 C 420.45 351.19 425.30 350.35 430.02 350.61 Z" />
<path fill="#0a0a0a" opacity="1.00" d=" M 250.92 421.97 C 252.71 419.01 253.58 415.62 254.71 412.37 C 255.93 412.30 257.14 412.23 258.36 412.18 C 258.56 415.70 262.00 416.76 265.02 416.30 C 264.62 414.62 263.46 413.46 262.26 412.36 C 264.28 412.29 266.31 412.29 268.33 412.41 C 268.44 413.29 268.65 415.03 268.76 415.91 C 270.86 415.69 272.96 415.42 275.08 415.43 C 275.50 416.19 275.94 416.95 276.38 417.72 C 275.55 419.87 275.41 422.18 275.07 424.44 C 276.13 425.28 278.27 426.12 277.27 427.93 C 276.39 431.79 277.02 435.77 276.44 439.66 C 275.25 439.68 272.85 439.71 271.66 439.72 C 271.64 438.51 271.63 437.31 271.63 436.10 L 272.60 436.30 C 272.63 435.51 272.68 433.91 272.71 433.12 C 272.22 433.18 271.24 433.29 270.75 433.35 C 270.84 435.34 270.94 437.32 270.97 439.32 C 266.85 439.57 268.88 435.37 268.70 433.16 C 268.22 433.19 267.24 433.26 266.76 433.29 C 266.77 435.20 266.76 437.10 266.73 439.02 C 266.00 438.93 264.52 438.74 263.78 438.64 C 263.67 436.84 263.69 435.06 263.69 433.27 C 263.28 433.23 262.47 433.17 262.06 433.14 C 262.50 435.27 262.77 437.44 262.61 439.63 C 260.23 440.32 258.62 439.42 258.39 436.84 C 258.68 436.58 259.27 436.05 259.56 435.79 C 258.85 434.44 258.21 433.09 257.56 431.72 C 258.21 426.86 259.20 422.02 258.68 417.10 C 258.23 417.24 257.32 417.52 256.87 417.66 C 254.87 422.30 254.67 427.30 254.85 432.27 C 255.91 433.18 256.96 434.09 258.04 434.99 C 256.61 437.57 255.68 441.89 251.81 440.89 C 251.91 436.43 251.86 431.97 251.82 427.51 C 250.92 427.58 249.10 427.73 248.19 427.80 C 248.45 425.58 249.85 423.84 250.92 421.97 M 261.76 418.29 C 261.75 419.20 261.74 420.11 261.73 421.03 C 262.24 421.33 263.25 421.93 263.76 422.23 C 266.64 421.57 271.69 423.89 272.16 419.66 C 268.97 417.86 265.28 418.07 261.76 418.29 M 261.65 423.66 C 261.54 424.14 261.32 425.09 261.21 425.57 C 265.39 426.64 269.74 426.02 274.00 426.07 C 270.93 422.94 265.76 422.89 261.65 423.66 M 261.72 428.33 C 261.70 428.92 261.66 430.10 261.65 430.69 C 262.61 430.91 263.56 431.12 264.53 431.35 C 264.61 430.30 264.69 429.26 264.78 428.22 C 263.75 428.25 262.73 428.29 261.72 428.33 Z" />
<path fill="#0a0a0a" opacity="1.00" d=" M 479.44 414.43 C 480.75 412.99 482.67 413.30 484.42 413.38 C 485.06 414.14 485.71 414.91 486.37 415.68 C 486.39 416.05 486.42 416.79 486.44 417.16 C 485.87 417.41 484.73 417.90 484.16 418.14 C 480.93 417.57 477.68 418.36 474.44 418.31 C 474.44 420.30 474.45 422.29 474.50 424.29 C 475.69 424.23 476.88 424.18 478.08 424.12 C 480.94 422.11 485.73 423.67 484.59 427.82 C 481.25 428.05 477.91 427.93 474.59 427.55 C 474.45 430.15 474.44 432.76 474.50 435.37 C 476.03 435.71 477.56 436.00 479.10 436.28 C 481.41 434.61 484.39 433.33 487.06 435.07 C 487.30 436.53 487.39 438.01 487.35 439.51 C 482.58 440.51 477.83 439.07 473.06 439.01 C 468.21 438.86 463.36 438.98 458.52 438.88 L 458.45 436.19 C 459.82 436.19 461.20 436.22 462.58 436.26 C 463.43 435.36 464.92 434.60 464.48 433.09 C 464.54 429.03 464.38 424.97 464.57 420.92 C 466.03 421.48 467.46 422.11 468.89 422.78 C 468.55 423.25 467.86 424.18 467.52 424.65 C 467.49 428.50 467.34 432.43 468.58 436.14 C 469.25 435.87 470.59 435.34 471.26 435.08 C 471.54 429.25 471.38 423.41 471.32 417.59 C 467.37 417.13 463.36 416.95 459.43 417.65 C 459.46 416.48 459.50 415.31 459.54 414.15 C 463.04 414.46 466.48 415.44 470.03 415.27 C 473.21 415.44 476.25 414.10 479.44 414.43 Z" />
<path fill="#0a0a0a" opacity="1.00" d=" M 357.04 488.13 C 359.59 484.64 360.39 480.32 362.33 476.53 C 363.31 476.59 365.28 476.72 366.26 476.79 C 366.81 478.03 367.37 479.27 367.91 480.53 C 369.34 480.59 370.77 480.61 372.21 480.63 C 371.59 479.28 370.88 477.97 370.16 476.69 C 371.99 476.67 373.81 476.64 375.65 476.62 C 375.88 477.99 376.12 479.36 376.36 480.74 C 378.40 480.41 380.46 480.19 382.53 480.43 C 384.51 483.45 382.89 486.94 382.53 490.20 C 383.44 490.72 384.30 491.37 384.99 492.19 C 383.39 495.72 383.85 499.67 384.90 503.29 C 383.99 504.10 383.08 504.91 382.18 505.73 C 380.95 504.79 379.75 503.85 378.76 502.68 C 378.26 502.97 377.26 503.54 376.76 503.83 C 376.19 501.50 375.95 499.11 375.49 496.77 C 375.15 499.07 374.95 501.41 374.44 503.70 C 373.49 503.55 372.54 503.37 371.61 503.15 C 370.84 501.11 371.73 498.95 371.64 496.86 C 369.27 498.57 370.50 502.01 369.46 504.45 C 368.97 504.45 367.99 504.44 367.50 504.44 C 367.15 502.33 366.86 500.21 366.55 498.10 C 365.05 500.22 363.75 502.48 362.29 504.63 C 361.51 504.62 359.96 504.59 359.18 504.58 C 359.04 500.46 359.07 496.34 359.19 492.23 C 358.44 492.37 356.93 492.64 356.18 492.78 C 356.14 491.17 355.93 489.44 357.04 488.13 M 363.44 498.27 C 366.47 492.86 367.12 485.83 364.86 480.03 C 362.12 485.71 363.17 492.21 363.44 498.27 M 369.32 483.37 C 369.26 483.92 369.14 485.01 369.07 485.56 C 372.50 487.03 376.11 485.34 379.68 485.45 C 379.24 484.90 378.80 484.37 378.37 483.84 C 377.79 483.56 376.62 483.02 376.04 482.75 C 373.77 482.65 371.50 482.70 369.32 483.37 M 369.23 487.58 C 369.21 488.30 369.17 489.75 369.15 490.47 C 373.16 490.62 377.19 490.71 381.20 490.39 C 379.79 488.36 377.14 488.63 375.10 487.74 C 373.14 487.64 371.18 487.60 369.23 487.58 M 370.46 491.98 C 370.37 493.35 370.32 494.72 370.32 496.11 C 372.44 495.70 372.35 492.68 370.46 491.98 M 375.14 492.59 C 374.25 493.80 374.49 494.47 375.88 494.60 C 376.75 493.39 376.50 492.72 375.14 492.59 M 378.53 495.81 C 380.26 496.56 381.07 493.53 380.03 492.50 C 378.49 492.08 377.81 494.76 378.53 495.81 M 379.31 497.56 C 378.41 498.19 378.30 500.74 379.79 500.52 C 380.61 499.86 380.72 497.37 379.31 497.56 Z" />
<path fill="#0a0a0a" opacity="1.00" d=" M 518.16 478.86 C 518.65 478.46 519.15 478.07 519.65 477.68 C 520.90 478.91 522.55 478.01 524.00 477.73 C 527.38 479.31 531.40 478.88 534.92 478.00 C 537.81 477.60 540.81 476.37 543.64 477.70 C 543.71 479.10 543.78 480.51 543.84 481.93 C 540.26 481.50 536.66 479.94 533.20 481.74 C 533.15 483.59 533.12 485.45 533.11 487.31 C 533.65 487.58 534.72 488.12 535.26 488.39 C 536.89 487.66 538.46 486.63 540.29 486.51 C 542.17 487.56 543.29 489.41 542.55 491.57 C 540.67 491.65 538.71 491.78 537.05 490.73 C 536.18 490.70 534.44 490.63 533.57 490.60 C 533.07 493.25 533.04 495.96 533.12 498.66 C 536.54 498.81 539.93 498.35 543.21 497.38 C 545.64 498.16 546.14 500.15 545.50 502.44 C 536.08 502.87 526.64 502.54 517.22 502.63 C 517.20 501.98 517.16 500.68 517.14 500.03 C 517.45 499.69 518.07 499.00 518.39 498.66 C 519.86 498.67 521.34 498.66 522.82 498.62 C 523.26 494.67 523.23 490.68 522.45 486.77 C 522.12 485.72 523.31 485.10 523.74 484.29 C 524.94 485.07 526.17 485.84 527.39 486.61 C 526.94 487.67 526.50 488.74 526.08 489.82 C 526.29 492.85 526.21 495.91 527.42 498.78 C 527.97 498.64 529.06 498.35 529.60 498.21 C 530.06 494.16 529.96 490.04 529.24 486.03 C 529.53 484.58 529.75 483.12 529.89 481.66 C 529.18 481.41 527.78 480.93 527.07 480.68 C 524.26 481.90 521.17 481.72 518.19 481.72 C 518.18 481.01 518.16 479.58 518.16 478.86 Z" />
<path fill="#0a0a0a" opacity="1.00" d=" M 463.75 540.53 C 466.17 539.83 468.61 540.46 468.90 543.34 C 470.43 544.27 472.14 544.78 473.92 545.11 C 473.59 543.36 472.78 541.86 472.11 540.26 C 474.30 540.10 476.47 540.45 478.43 541.46 C 478.45 542.38 478.49 543.31 478.52 544.25 C 480.97 544.21 483.41 544.24 485.86 544.38 C 485.69 547.11 485.39 549.83 485.36 552.57 L 484.11 552.69 C 485.02 553.03 485.94 553.37 486.87 553.71 C 486.40 558.62 486.49 563.53 486.48 568.46 C 483.81 567.90 481.14 567.27 478.42 567.03 C 478.39 565.12 478.40 563.22 478.42 561.33 C 478.17 561.30 477.66 561.23 477.41 561.20 C 477.41 563.19 477.42 565.19 477.42 567.20 C 476.38 567.20 474.31 567.20 473.27 567.20 C 473.41 565.39 473.23 563.43 474.36 561.89 C 473.71 561.68 473.07 561.47 472.44 561.28 C 472.44 563.59 472.45 565.90 472.44 568.22 C 471.71 568.23 470.24 568.25 469.51 568.25 C 469.42 565.90 469.33 563.56 469.20 561.22 C 467.85 563.57 466.51 565.94 464.94 568.16 C 464.24 569.32 462.63 568.48 461.58 568.61 C 461.42 564.12 461.52 559.63 461.43 555.14 C 460.47 555.68 459.51 556.22 458.56 556.77 C 457.73 554.45 458.69 552.28 460.21 550.56 C 461.92 547.42 463.92 544.26 463.75 540.53 M 465.69 546.44 C 465.29 551.23 465.66 556.07 465.47 560.88 C 465.95 560.75 466.89 560.48 467.36 560.35 C 466.95 555.45 469.17 550.72 468.18 545.85 C 467.25 545.42 466.03 545.19 465.69 546.44 M 472.48 546.62 C 471.10 547.22 471.64 549.05 471.34 550.25 C 474.73 550.24 478.14 550.32 481.52 549.86 C 481.50 549.28 481.45 548.13 481.43 547.55 C 478.55 546.72 475.47 545.62 472.48 546.62 M 470.29 552.47 C 470.80 553.06 471.33 553.66 471.85 554.26 C 474.99 554.21 478.14 554.19 481.28 554.28 C 481.65 553.93 482.37 553.25 482.73 552.90 C 478.66 551.87 474.43 552.24 470.29 552.47 Z" />
<path fill="#0a0a0a" opacity="1.00" d=" M 580.90 542.94 C 586.71 542.95 592.54 540.87 598.39 541.54 C 598.49 543.18 598.57 544.83 598.62 546.48 C 596.46 545.84 594.22 545.23 592.03 546.09 C 591.22 545.89 589.61 545.50 588.80 545.31 C 586.69 547.03 587.87 550.02 587.63 552.36 C 588.45 552.28 589.29 552.21 590.13 552.14 C 592.42 551.08 594.94 550.95 597.37 551.57 C 597.42 552.52 597.52 554.40 597.57 555.34 C 594.24 555.27 590.92 555.24 587.60 555.29 C 587.59 557.88 587.62 560.47 587.66 563.07 C 589.75 563.17 591.85 563.18 593.95 563.13 C 595.13 561.70 596.82 560.61 598.72 561.43 C 599.62 562.87 600.21 564.49 600.83 566.08 C 600.20 566.37 598.95 566.95 598.32 567.24 C 595.23 567.15 592.15 567.22 589.07 567.14 C 583.51 565.29 577.44 566.34 571.71 566.72 C 571.71 565.87 571.70 564.16 571.70 563.31 C 573.69 563.19 575.69 563.11 577.69 563.00 C 577.82 558.41 577.73 553.82 577.75 549.23 C 578.68 549.32 580.54 549.50 581.48 549.59 C 580.49 554.02 580.84 558.57 580.72 563.07 C 581.95 562.89 583.19 562.71 584.43 562.54 C 584.59 556.88 584.75 551.20 584.37 545.55 C 580.50 545.12 576.60 545.25 572.72 545.33 C 572.70 544.57 572.67 543.04 572.65 542.28 C 575.41 542.23 578.17 542.48 580.90 542.94 Z" />
</g>
</svg>
