<?xml version="1.0" encoding="UTF-8" ?>
<!DOCTYPE svg PUBLIC "-//W3C//DTD SVG 1.1//EN" "http://www.w3.org/Graphics/SVG/1.1/DTD/svg11.dtd">
<svg width="1384pt" height="934pt" viewBox="0 0 1384 934" version="1.1" xmlns="http://www.w3.org/2000/svg">
<g id="#ffffffff">
</g>
<g id="#131313ff">
<path fill="#131313" opacity="1.00" d=" M 212.35 39.37 C 216.15 39.48 219.87 40.18 223.59 40.87 C 224.39 44.35 225.37 47.79 226.29 51.24 C 233.14 51.18 239.92 49.56 246.73 49.44 C 249.62 51.06 251.78 53.66 254.19 55.89 C 251.46 58.01 248.75 60.14 245.94 62.16 C 246.72 64.80 247.45 67.43 248.21 70.09 C 241.87 74.81 234.09 76.49 226.98 79.57 C 228.60 80.55 231.85 82.51 233.47 83.49 C 238.61 85.23 241.69 80.17 245.41 77.70 C 248.33 79.35 251.56 80.74 253.77 83.37 C 255.45 86.57 253.08 89.24 250.59 90.51 C 243.82 91.17 237.02 91.08 230.23 91.18 C 230.74 95.69 232.22 100.24 231.72 104.80 C 230.73 106.94 228.87 108.60 226.89 109.82 C 220.98 107.43 215.26 104.39 209.92 100.87 C 203.49 104.14 196.63 106.50 190.31 110.00 C 189.40 107.85 188.51 105.63 187.72 103.45 C 195.54 99.43 202.96 94.66 210.15 89.61 C 204.61 89.09 198.70 89.43 193.77 86.44 C 194.67 82.97 195.51 79.48 196.32 75.98 C 194.19 73.95 192.06 71.94 189.92 69.93 C 191.26 68.71 192.61 67.48 193.96 66.26 C 191.01 64.16 186.44 62.42 186.04 58.34 C 189.81 54.89 194.05 51.84 196.56 47.24 C 201.68 48.00 206.81 48.61 211.96 49.20 C 211.43 46.00 208.92 41.80 212.35 39.37 M 208.30 65.47 C 208.17 66.56 208.04 67.65 207.92 68.74 C 215.79 69.28 223.63 70.29 231.49 70.94 C 232.41 69.86 233.35 68.79 234.28 67.72 C 231.78 66.21 229.18 64.87 226.76 63.22 C 223.74 61.32 222.97 57.48 221.08 54.64 C 216.91 58.36 213.10 62.52 208.30 65.47 M 202.17 57.17 C 201.65 58.80 202.20 59.35 203.83 58.83 C 204.35 57.20 203.79 56.65 202.17 57.17 M 207.43 74.36 C 206.00 76.77 205.12 79.45 203.96 81.99 C 209.97 82.01 215.99 82.00 222.01 82.02 C 222.01 80.15 222.00 76.42 221.99 74.55 C 217.23 73.78 212.10 72.71 207.43 74.36 M 215.14 96.87 C 216.60 97.46 218.07 98.05 219.54 98.63 C 220.52 95.99 221.23 93.25 221.95 90.52 C 219.64 92.60 217.37 94.72 215.14 96.87 Z" />
<path fill="#131313" opacity="1.00" d=" M 416.75 40.42 C 421.07 41.85 425.16 44.03 428.36 47.30 C 420.27 55.35 418.02 67.70 421.30 78.43 C 424.70 71.47 425.41 63.75 426.56 56.21 C 427.71 50.70 434.63 55.05 437.95 54.76 C 437.95 50.63 437.95 46.50 437.96 42.36 C 442.09 41.35 446.32 42.00 450.43 42.86 C 447.67 48.76 446.19 54.97 448.00 61.43 C 452.95 59.96 457.68 57.64 462.84 56.98 C 465.03 58.94 466.47 61.56 468.12 63.96 C 467.26 64.84 466.41 65.73 465.60 66.65 C 460.51 66.86 455.42 67.07 450.35 67.29 C 449.68 68.01 449.02 68.73 448.37 69.45 C 448.16 72.29 448.08 75.16 447.91 78.01 C 450.60 78.00 453.31 77.99 456.02 77.99 C 457.24 75.79 458.41 73.57 459.59 71.36 C 463.14 72.90 467.34 74.07 469.77 77.35 C 471.35 80.63 468.99 83.20 466.61 84.72 C 460.32 85.28 453.98 84.72 447.82 83.50 C 448.04 91.84 450.49 100.41 448.49 108.71 C 444.82 108.04 441.21 107.37 437.65 106.31 C 438.25 99.93 438.94 93.56 439.96 87.24 C 439.21 86.53 438.47 85.82 437.73 85.12 C 434.13 85.12 426.92 85.12 423.32 85.12 C 422.48 85.85 421.64 86.58 420.81 87.32 C 421.09 94.42 423.80 101.73 421.42 108.73 C 417.51 108.14 413.63 107.51 409.85 106.38 C 411.40 95.96 412.02 85.44 412.11 74.91 C 409.16 75.66 406.17 76.42 403.21 77.12 C 402.85 76.56 402.11 75.44 401.74 74.88 C 408.24 64.05 411.94 52.01 416.75 40.42 M 429.32 77.90 C 432.12 77.90 434.92 77.89 437.73 77.87 C 438.49 77.13 439.25 76.40 440.02 75.66 C 439.18 72.44 438.28 69.25 437.37 66.04 C 432.61 68.19 430.60 73.18 429.32 77.90 Z" />
<path fill="#131313" opacity="1.00" d=" M 560.39 40.09 C 563.61 40.97 567.66 41.05 570.36 43.43 C 571.71 45.59 572.74 48.02 573.94 50.29 C 580.19 44.75 588.55 50.11 595.73 50.69 C 598.59 48.56 601.46 46.12 605.01 45.26 C 609.24 46.22 612.44 49.44 615.67 52.13 C 610.45 57.68 602.37 56.74 595.44 57.62 C 594.43 58.26 593.43 58.90 592.43 59.53 C 592.98 62.63 592.83 66.46 595.38 68.82 C 600.86 69.93 605.35 66.32 610.10 64.47 C 612.02 66.92 613.93 69.38 615.67 71.97 C 611.95 72.78 608.34 73.62 604.74 74.74 C 605.03 85.45 606.68 96.11 606.61 106.83 C 605.95 110.09 602.01 110.25 599.28 109.96 C 595.94 99.31 600.69 87.88 598.99 76.97 C 599.01 73.18 593.81 73.36 591.43 72.22 C 590.66 80.44 592.48 89.49 587.84 96.90 C 585.69 99.87 583.11 102.67 579.94 104.56 C 574.74 105.91 569.41 106.99 564.03 107.34 C 560.50 107.09 557.11 105.90 553.60 105.50 C 551.40 104.95 548.30 105.43 546.92 103.14 C 549.13 97.36 553.16 92.48 555.44 86.72 C 552.65 84.88 546.54 83.83 546.88 79.20 C 552.20 75.21 559.03 77.79 564.99 77.93 L 564.96 72.79 C 560.05 73.16 555.22 74.39 550.30 74.32 C 547.67 73.22 547.25 69.56 545.68 67.66 C 548.85 67.35 555.18 66.73 558.35 66.43 C 557.71 59.27 550.15 58.48 545.66 54.70 C 549.80 51.01 555.59 51.44 560.75 50.61 C 560.12 47.14 559.81 43.60 560.39 40.09 M 565.44 68.98 C 566.29 68.97 568.00 68.94 568.85 68.93 C 569.54 64.63 570.37 60.34 570.85 56.01 C 565.47 58.13 565.86 64.07 565.44 68.98 M 575.33 69.04 C 576.73 67.88 578.13 66.70 579.53 65.51 C 581.35 66.13 583.18 66.73 585.03 67.31 C 584.85 64.11 584.65 60.91 584.44 57.71 C 579.62 59.91 575.49 63.24 575.33 69.04 M 572.95 74.05 C 572.54 75.14 572.13 76.22 571.74 77.31 C 575.90 76.84 580.13 76.81 584.23 77.73 C 585.13 76.20 586.01 74.66 586.89 73.12 C 586.20 72.56 585.51 72.01 584.84 71.46 C 580.94 72.60 576.92 73.29 572.95 74.05 M 576.22 85.17 C 578.49 86.77 580.67 88.49 582.81 90.27 C 583.79 88.02 584.52 85.72 585.45 83.44 C 582.41 84.12 579.27 84.69 576.22 85.17 M 561.50 97.84 C 562.40 97.89 564.22 98.00 565.13 98.05 C 564.91 96.16 564.47 92.37 564.25 90.48 C 563.29 92.91 562.28 95.35 561.50 97.84 M 571.89 90.79 C 572.51 94.54 573.19 98.29 574.00 102.01 C 575.18 101.05 577.54 99.14 578.72 98.18 C 576.30 95.85 574.13 93.28 571.89 90.79 Z" />
<path fill="#131313" opacity="1.00" d=" M 52.89 45.92 C 56.71 40.45 63.63 45.06 67.75 47.81 C 64.13 53.40 59.44 58.95 59.48 66.01 C 59.29 68.81 58.92 74.39 58.73 77.18 C 62.26 76.17 66.37 74.91 68.39 71.54 C 68.28 65.73 65.78 60.21 64.84 54.52 C 68.32 55.07 71.80 55.69 75.20 56.63 C 74.47 61.42 73.55 66.17 72.78 70.96 C 74.40 70.97 77.64 70.99 79.25 71.00 C 78.84 62.67 79.22 54.18 77.34 45.99 C 78.08 44.78 78.81 43.56 79.55 42.34 C 83.68 42.52 87.39 44.28 90.56 46.78 C 88.22 52.89 87.23 59.34 87.03 65.86 C 89.92 63.80 92.59 61.45 95.06 58.90 C 98.31 60.05 101.99 60.82 104.53 63.34 C 104.35 67.51 102.95 71.51 102.22 75.61 C 100.93 80.37 101.19 85.86 98.16 90.01 C 94.87 90.77 91.55 91.43 88.22 92.00 C 86.59 94.71 84.40 96.85 81.66 98.42 C 81.24 91.41 80.90 84.39 80.64 77.37 C 79.78 76.62 78.93 75.85 78.09 75.09 C 76.36 75.92 74.62 76.74 72.87 77.53 C 73.01 84.43 73.65 91.30 75.10 98.06 C 82.60 97.84 90.24 98.76 97.69 97.65 C 101.14 94.34 101.88 89.27 103.76 85.09 C 110.03 88.62 109.39 96.79 111.63 102.71 C 98.11 108.49 83.02 107.51 68.76 105.92 C 67.48 98.35 67.06 90.67 66.55 83.02 C 63.96 83.01 61.37 83.00 58.79 83.00 C 58.45 92.13 60.92 101.35 59.13 110.43 C 56.34 109.80 53.59 109.10 50.90 108.14 C 52.75 98.31 51.62 88.35 50.63 78.50 C 47.95 80.80 45.00 87.51 40.96 83.80 C 40.41 77.09 45.48 72.06 47.60 66.10 C 50.78 59.78 49.20 51.87 52.89 45.92 M 86.65 70.68 C 85.89 75.56 86.62 80.47 87.38 85.29 C 92.28 83.07 93.15 77.31 94.81 72.89 C 92.12 72.10 89.37 71.34 86.65 70.68 Z" />
<path fill="#131313" opacity="1.00" d=" M 648.77 42.35 C 653.34 43.40 658.16 44.04 662.38 46.27 C 664.43 45.98 666.49 45.49 668.58 45.61 C 671.26 47.61 672.54 50.85 674.10 53.68 C 679.08 54.75 684.23 57.38 686.57 62.14 C 686.42 63.90 685.91 65.59 685.50 67.30 C 676.66 66.77 667.80 65.78 658.94 66.44 C 660.45 77.50 666.13 87.28 673.95 95.09 C 680.74 98.22 679.60 86.58 686.56 87.68 C 686.58 94.03 687.75 100.51 686.73 106.82 C 685.29 111.55 679.12 110.35 675.68 108.50 C 668.48 104.56 662.59 98.42 658.15 91.59 C 648.62 99.68 636.56 103.64 626.32 110.60 C 623.01 107.57 621.18 103.51 620.38 99.12 C 624.53 97.91 628.70 96.69 632.89 95.58 C 632.91 92.13 632.95 85.21 632.97 81.75 C 628.13 80.83 621.72 82.09 618.75 77.16 C 626.77 70.92 638.61 76.17 647.36 71.02 C 649.20 72.08 651.04 73.15 652.88 74.23 C 652.90 72.38 652.96 68.68 652.99 66.83 C 641.57 64.59 629.59 68.48 618.47 64.90 C 618.64 63.89 618.97 61.87 619.14 60.86 C 629.63 58.99 640.31 58.88 650.95 58.90 C 649.99 53.42 649.38 47.88 648.77 42.35 M 656.27 58.96 C 659.49 58.85 662.71 58.72 665.95 58.57 C 664.09 55.59 661.94 52.81 659.65 50.16 C 658.36 53.02 657.20 55.97 656.27 58.96 M 641.06 81.57 C 641.07 84.29 641.10 89.73 641.12 92.45 C 646.60 91.18 651.97 89.45 657.32 87.70 C 656.42 84.71 655.50 81.76 654.47 78.83 C 650.10 80.17 645.60 81.10 641.06 81.57 Z" />
<path fill="#131313" opacity="1.00" d=" M 851.68 58.78 C 855.33 53.70 856.70 46.86 862.07 43.13 C 867.63 44.38 871.75 49.03 872.96 54.58 C 876.59 54.01 880.21 53.52 883.86 52.95 C 885.14 55.94 886.38 58.92 887.58 61.96 C 884.98 63.24 882.41 64.57 879.82 65.85 C 879.91 66.71 880.09 68.42 880.18 69.28 C 882.43 67.95 884.53 66.26 887.05 65.43 C 890.01 66.10 892.60 67.79 895.30 69.13 C 894.28 73.79 891.93 78.27 892.13 83.14 C 892.19 86.51 891.68 89.85 891.07 93.15 C 879.34 88.22 866.63 86.57 853.98 86.84 C 853.97 91.09 854.03 95.35 854.04 99.61 C 866.72 101.24 880.06 106.74 892.60 101.51 C 895.68 98.54 896.18 93.76 898.09 90.01 C 898.65 90.03 899.76 90.08 900.32 90.10 C 901.32 95.39 902.25 100.81 904.72 105.67 C 901.15 108.85 897.08 112.07 891.97 111.84 C 876.55 112.30 860.66 111.40 846.06 105.98 C 846.02 95.73 845.99 85.49 845.98 75.25 C 843.07 75.81 839.83 76.25 837.02 76.68 C 841.96 70.76 847.08 64.98 851.68 58.78 M 856.97 63.88 C 860.67 65.54 864.46 67.32 868.69 66.89 C 870.61 64.50 870.75 61.31 871.78 58.52 C 866.48 59.19 861.21 60.51 856.97 63.88 M 855.84 72.67 C 853.07 73.68 854.78 78.34 853.18 79.88 C 856.14 79.91 862.06 79.99 865.02 80.03 C 865.01 78.22 864.99 74.62 864.98 72.82 C 862.01 72.22 858.61 70.60 855.84 72.67 M 871.90 77.19 C 871.26 82.90 879.03 81.98 882.43 82.42 C 883.25 80.46 884.11 78.51 885.00 76.57 C 880.51 74.81 875.26 71.83 871.90 77.19 Z" />
<path fill="#131313" opacity="1.00" d=" M 790.00 44.43 C 794.02 45.05 798.02 46.01 801.94 47.11 C 801.96 48.80 802.00 52.18 802.01 53.87 C 799.62 55.31 797.29 56.86 795.04 58.52 C 799.67 61.22 805.01 59.53 810.00 59.04 C 813.66 59.35 816.63 57.27 819.46 55.36 C 822.31 57.21 825.08 59.18 827.70 61.35 C 825.90 64.99 824.43 68.85 824.50 73.00 C 824.51 83.69 825.19 94.38 825.87 105.05 C 826.19 106.97 824.93 108.55 823.56 109.69 C 819.53 111.49 817.30 107.94 814.91 105.73 C 805.08 105.48 795.26 105.32 785.43 105.42 C 783.94 106.85 782.55 108.44 780.76 109.50 C 778.45 109.34 776.26 108.54 774.04 107.99 C 774.00 90.17 773.88 72.35 774.10 54.52 C 777.84 56.00 781.50 57.69 785.21 59.28 C 786.49 54.24 788.17 49.30 790.00 44.43 M 783.40 67.32 C 783.00 71.61 783.07 75.93 783.53 80.21 C 794.37 79.77 805.15 78.35 815.99 77.73 C 815.99 75.03 815.98 69.62 815.98 66.92 C 805.33 63.99 794.19 67.56 783.40 67.32 M 782.03 87.18 C 782.04 90.39 781.67 93.56 781.78 96.78 C 793.07 98.70 804.60 97.97 816.01 98.05 C 815.98 93.64 815.95 89.23 815.96 84.82 C 804.77 86.88 793.37 87.09 782.03 87.18 Z" />
<path fill="#131313" opacity="1.00" d=" M 991.47 46.79 C 995.47 47.36 999.56 47.95 1003.53 48.87 C 1001.96 53.19 999.94 57.33 998.52 61.70 C 1003.59 61.33 1006.10 57.15 1008.47 53.43 C 1017.27 52.74 1026.70 54.32 1034.99 50.54 C 1039.91 47.14 1047.38 49.97 1048.12 55.86 C 1045.94 59.13 1042.02 60.52 1038.52 61.77 C 1042.22 66.54 1041.30 72.87 1041.56 78.58 C 1042.37 85.66 1040.13 92.59 1037.10 98.89 C 1043.99 99.10 1050.21 105.15 1048.89 112.17 C 1037.23 112.20 1025.62 111.25 1013.97 111.49 C 1009.03 111.90 1004.16 110.98 999.38 109.95 C 1000.47 106.90 1001.90 103.95 1003.42 101.09 C 1002.52 99.51 1001.61 97.92 1000.71 96.35 C 997.89 100.88 995.33 105.74 991.06 109.11 C 988.13 111.83 983.83 111.60 980.17 112.50 C 979.88 104.81 988.12 102.80 990.75 96.79 C 992.45 93.03 992.70 88.84 993.44 84.83 C 989.10 83.92 984.69 83.11 980.37 82.37 C 981.22 78.29 980.78 73.73 983.02 70.04 C 987.18 62.86 989.36 54.76 991.47 46.79 M 1011.07 59.31 C 1011.03 60.11 1011.00 60.92 1011.00 61.73 C 1015.75 62.37 1020.16 64.47 1024.99 64.73 C 1028.41 64.50 1031.63 63.22 1034.70 61.78 C 1026.80 60.95 1018.92 60.34 1011.07 59.31 M 1003.00 68.87 C 1003.02 70.67 1003.04 74.27 1003.05 76.07 C 1006.53 74.05 1010.26 72.40 1013.06 69.38 C 1009.74 69.13 1006.28 68.98 1003.00 68.87 M 991.00 71.00 C 990.98 72.66 990.98 74.33 991.00 76.00 C 992.32 76.00 993.66 76.00 995.00 76.00 C 994.99 74.33 994.99 72.66 995.00 71.00 C 993.66 71.00 992.32 71.00 991.00 71.00 M 1018.99 71.05 C 1019.71 74.68 1020.28 78.33 1021.02 81.95 C 1024.64 81.01 1028.22 80.15 1031.94 79.54 C 1032.04 76.69 1031.76 73.82 1032.04 70.99 C 1027.69 71.02 1023.30 71.03 1018.99 71.05 M 1000.50 84.98 C 1004.47 88.25 1008.35 91.63 1012.13 95.13 C 1011.98 98.38 1012.16 101.68 1013.10 104.80 C 1017.70 97.32 1011.04 90.26 1011.22 82.68 C 1007.62 83.36 1004.01 83.95 1000.50 84.98 M 1021.13 87.16 C 1020.65 87.74 1020.21 88.32 1019.75 88.90 C 1022.74 91.89 1024.60 95.74 1025.92 99.72 C 1026.44 99.79 1027.47 99.93 1027.99 100.00 C 1029.28 95.76 1030.11 91.40 1030.61 86.99 C 1027.49 87.04 1024.20 87.08 1021.13 87.16 Z" />
<path fill="#131313" opacity="1.00" d=" M 1058.73 46.51 C 1063.10 47.74 1069.03 48.82 1070.66 53.84 C 1071.64 59.98 1076.98 63.16 1081.08 67.06 C 1082.05 65.13 1083.06 63.22 1084.09 61.32 C 1087.35 62.02 1090.62 62.65 1093.92 63.28 C 1093.95 57.85 1093.99 52.42 1094.04 47.00 C 1096.63 47.01 1101.82 47.04 1104.42 47.06 C 1103.77 52.33 1102.74 57.53 1101.83 62.75 C 1107.20 62.23 1112.73 61.11 1118.10 62.33 C 1117.96 77.71 1117.99 93.08 1118.07 108.46 C 1113.79 108.77 1107.34 112.55 1106.59 105.48 C 1101.06 105.28 1095.58 105.06 1090.09 104.93 C 1090.04 106.69 1089.95 110.22 1089.90 111.99 C 1087.26 112.00 1084.64 112.00 1082.04 112.00 C 1082.02 101.47 1081.97 90.94 1081.83 80.41 C 1079.71 81.29 1077.64 82.25 1075.63 83.31 C 1079.55 86.46 1080.23 91.92 1076.68 95.62 C 1074.54 93.92 1072.42 92.21 1070.26 90.55 C 1070.07 98.48 1069.99 106.41 1069.90 114.34 C 1067.21 113.44 1064.54 112.47 1061.85 111.57 C 1062.12 103.89 1065.09 95.67 1061.95 88.27 C 1060.38 89.70 1058.85 91.15 1057.31 92.61 C 1055.19 91.46 1053.07 90.31 1050.96 89.17 C 1053.17 86.37 1056.55 85.21 1059.46 83.40 C 1062.66 79.23 1064.46 74.21 1066.37 69.36 C 1063.18 69.58 1060.36 70.48 1057.23 70.41 C 1054.20 68.13 1052.68 64.39 1051.33 61.00 C 1054.98 61.57 1058.53 62.27 1062.18 62.93 C 1060.25 58.59 1058.25 54.30 1055.78 50.24 C 1056.76 49.00 1057.73 47.76 1058.73 46.51 M 1075.10 72.63 C 1077.37 73.86 1079.66 75.09 1081.94 76.32 C 1081.86 74.26 1081.68 70.15 1081.59 68.10 C 1079.33 69.48 1077.17 70.99 1075.10 72.63 M 1090.00 69.00 C 1090.00 71.75 1090.00 77.25 1090.00 80.00 C 1091.32 80.00 1092.65 80.00 1094.00 80.00 C 1094.00 77.25 1094.00 71.75 1094.00 69.00 C 1092.65 69.00 1091.32 69.00 1090.00 69.00 M 1101.23 79.93 C 1103.07 79.92 1106.76 79.91 1108.61 79.91 C 1107.62 75.83 1106.73 71.70 1105.14 67.81 C 1102.64 71.36 1101.54 75.62 1101.23 79.93 M 1090.08 86.95 C 1087.35 90.49 1090.87 95.30 1090.29 99.05 C 1092.25 97.61 1096.15 97.04 1096.00 94.01 C 1098.16 89.63 1093.86 86.17 1090.08 86.95 M 1102.01 87.00 C 1102.06 90.10 1101.75 93.17 1101.91 96.28 C 1103.87 97.03 1105.86 97.75 1107.87 98.44 C 1107.91 95.58 1107.99 89.85 1108.03 86.99 C 1106.52 86.99 1103.51 87.00 1102.01 87.00 Z" />
<path fill="#131313" opacity="1.00" d=" M 1204.81 46.40 C 1208.71 47.00 1212.64 47.91 1216.43 49.10 C 1218.05 53.37 1218.90 58.31 1222.52 61.43 C 1225.31 63.84 1227.97 66.72 1231.56 67.94 C 1235.31 68.58 1239.11 68.30 1242.91 68.79 C 1242.97 61.94 1243.05 55.08 1243.15 48.23 C 1246.51 48.93 1250.01 49.72 1253.34 50.73 C 1252.71 56.67 1251.65 62.56 1250.82 68.47 C 1253.81 68.01 1256.75 67.26 1259.82 67.31 C 1262.00 68.36 1263.69 70.23 1265.07 72.20 C 1264.68 74.08 1263.36 75.68 1261.71 76.60 C 1258.80 76.67 1256.03 75.68 1253.24 75.06 C 1252.52 75.79 1251.82 76.53 1251.13 77.26 C 1250.96 89.00 1251.00 100.75 1251.04 112.49 C 1247.85 112.73 1244.17 114.78 1241.42 112.57 C 1237.81 109.86 1233.44 107.36 1232.74 102.36 C 1236.11 102.66 1239.66 102.96 1243.06 103.55 C 1243.07 95.05 1243.35 86.54 1242.84 78.06 C 1242.90 76.80 1241.50 76.16 1240.50 75.91 C 1235.99 74.91 1231.51 73.91 1227.02 72.89 C 1227.07 73.42 1227.17 74.49 1227.22 75.02 C 1232.43 75.04 1237.55 78.17 1238.36 83.53 C 1240.82 87.93 1237.23 91.23 1234.77 94.18 C 1231.69 89.26 1230.41 83.52 1228.10 78.25 C 1226.34 79.35 1224.62 80.47 1222.90 81.60 C 1224.72 84.86 1226.29 88.21 1227.58 91.73 C 1226.20 93.04 1224.83 94.34 1223.46 95.63 C 1221.28 93.47 1219.29 91.12 1217.34 88.76 C 1217.03 95.66 1217.37 102.66 1216.35 109.50 C 1214.57 113.47 1210.38 114.35 1206.71 112.48 C 1207.39 103.95 1208.27 95.44 1209.11 86.93 C 1208.42 87.02 1207.04 87.19 1206.34 87.28 C 1204.34 89.48 1202.13 91.46 1199.88 93.40 C 1198.62 90.81 1197.36 88.16 1196.41 85.46 C 1202.64 80.79 1208.79 75.92 1213.74 69.85 C 1208.98 69.19 1204.09 69.76 1199.49 68.40 C 1197.96 66.94 1197.05 65.00 1196.01 63.21 C 1199.63 62.20 1203.29 61.35 1206.99 60.51 C 1206.27 55.81 1205.47 51.11 1204.81 46.40 Z" />
<path fill="#131313" opacity="1.00" d=" M 1279.73 46.49 C 1284.40 47.53 1289.63 49.21 1291.95 53.83 C 1293.87 59.90 1302.32 61.04 1302.97 67.70 C 1299.29 71.83 1293.02 74.07 1292.62 80.48 C 1300.32 74.60 1307.32 67.73 1312.61 59.56 C 1316.12 55.52 1317.54 49.16 1323.12 47.34 C 1329.05 48.25 1333.33 53.49 1333.49 59.52 C 1321.76 62.69 1313.47 72.73 1301.59 75.50 C 1302.62 76.99 1303.76 78.44 1304.53 80.10 C 1303.61 82.43 1302.04 84.43 1300.86 86.62 C 1310.74 81.68 1319.33 73.87 1324.98 64.36 C 1328.71 66.44 1334.38 68.76 1334.83 73.65 C 1329.12 79.08 1321.20 81.34 1314.89 85.94 C 1308.40 89.62 1303.32 95.80 1295.80 97.42 C 1294.99 95.67 1294.16 93.94 1293.26 92.25 C 1292.02 96.94 1291.79 101.81 1292.63 106.60 C 1306.46 103.43 1317.26 93.73 1327.36 84.36 C 1329.06 84.24 1332.48 84.02 1334.19 83.90 C 1335.12 87.83 1336.12 91.76 1336.83 95.75 C 1329.73 95.99 1324.13 100.89 1318.12 104.01 C 1311.17 107.45 1303.82 110.41 1296.03 111.15 C 1291.64 111.81 1287.42 113.37 1283.13 114.38 C 1283.01 105.80 1282.92 97.22 1282.79 88.64 C 1278.79 91.30 1274.89 94.20 1270.36 95.93 C 1269.54 90.04 1273.40 85.81 1277.75 82.85 C 1282.87 79.49 1285.79 73.95 1289.32 69.13 C 1284.64 69.23 1280.08 70.15 1275.45 69.92 C 1273.29 68.18 1272.05 65.60 1270.45 63.40 C 1274.14 62.15 1277.93 61.22 1281.72 60.22 C 1280.40 56.72 1278.63 53.45 1276.81 50.21 C 1277.79 48.97 1278.74 47.73 1279.73 46.49 Z" />
<path fill="#131313" opacity="1.00" d=" M 380.85 70.72 C 384.64 69.07 387.28 65.20 391.80 65.13 C 395.84 67.45 398.41 71.70 399.27 76.24 C 377.81 79.94 355.92 78.99 334.31 81.13 C 333.28 79.98 332.26 78.84 331.24 77.70 C 331.17 76.07 331.04 72.81 330.97 71.18 C 338.79 70.63 346.61 69.56 354.48 69.81 C 363.23 70.46 372.08 71.74 380.85 70.72 Z" />
<path fill="#131313" opacity="1.00" d=" M 116.52 111.89 C 118.28 112.77 120.04 113.64 121.81 114.48 C 119.41 154.87 124.21 195.32 120.67 235.69 C 95.45 236.39 70.20 235.65 44.97 236.26 C 40.38 236.48 35.78 236.30 31.20 235.84 C 30.91 226.55 31.50 217.29 32.33 208.06 C 30.24 185.77 31.05 163.35 30.97 140.99 C 30.93 131.77 31.57 122.56 33.28 113.48 C 35.24 114.32 37.18 115.19 39.12 116.07 C 36.29 137.61 36.06 159.48 38.31 181.08 C 39.92 197.06 39.00 213.16 36.76 229.02 C 62.51 230.03 88.12 226.48 113.86 226.93 C 114.10 219.95 115.21 212.98 114.50 205.99 C 113.09 180.70 115.10 155.35 113.24 130.08 C 112.44 123.88 113.50 117.38 116.52 111.89 Z" />
<path fill="#131313" opacity="1.00" d=" M 180.30 111.59 C 182.94 112.26 185.63 113.01 188.23 113.87 C 185.22 143.80 184.80 174.05 187.64 204.01 C 188.35 212.41 186.92 220.72 185.82 229.01 C 197.81 228.46 209.81 227.57 221.81 228.05 C 251.88 230.53 282.11 227.42 312.18 229.98 C 324.90 231.22 337.75 231.47 350.49 230.33 C 370.93 227.96 391.59 228.63 412.05 230.44 C 441.34 232.13 470.74 229.61 500.00 232.18 C 525.95 230.23 552.00 231.04 578.01 231.06 C 589.05 230.93 599.94 233.38 611.00 232.91 C 621.13 232.56 631.22 231.40 641.38 231.85 C 653.89 231.29 666.43 230.40 678.95 231.53 C 706.21 233.98 733.66 233.12 760.99 232.62 C 774.30 231.01 787.65 233.26 801.00 233.04 C 823.73 233.41 846.51 232.05 869.21 233.77 C 882.91 235.99 896.70 234.25 910.46 233.81 C 942.32 230.77 974.10 236.46 1006.00 235.09 C 1023.72 236.20 1041.43 231.55 1059.10 234.20 C 1087.95 236.56 1116.97 233.38 1145.83 235.96 C 1168.22 238.85 1190.56 233.64 1213.00 234.87 C 1245.98 236.08 1279.10 239.07 1312.08 235.63 C 1322.14 234.48 1332.24 235.67 1342.19 237.20 C 1345.06 217.77 1344.41 197.96 1343.30 178.41 C 1340.16 158.45 1343.53 138.39 1344.27 118.41 C 1346.33 117.61 1348.38 116.75 1350.44 115.90 C 1351.73 123.16 1352.13 130.57 1351.44 137.93 C 1347.90 170.88 1351.90 204.11 1348.82 237.09 C 1347.85 247.76 1350.06 258.33 1349.99 268.99 C 1350.20 291.00 1350.51 313.07 1348.31 335.00 C 1346.70 353.54 1349.37 372.02 1349.30 390.56 C 1350.83 407.41 1347.76 424.16 1347.93 441.00 C 1347.72 463.31 1348.66 485.64 1347.48 507.93 C 1345.82 523.61 1348.57 539.29 1348.08 555.00 C 1349.32 593.05 1342.94 631.11 1347.30 669.10 C 1348.96 682.40 1346.39 695.69 1346.09 708.99 C 1345.37 734.25 1346.99 759.56 1345.28 784.79 C 1344.42 793.19 1343.90 801.71 1345.19 810.11 C 1346.76 830.02 1345.96 850.04 1345.95 870.01 C 1346.14 875.83 1344.84 881.49 1343.80 887.18 C 1327.12 887.16 1310.54 883.99 1293.87 885.79 C 1263.01 889.06 1232.11 885.57 1201.24 884.70 C 1204.51 852.74 1202.66 820.57 1202.48 788.54 C 1204.53 779.15 1203.76 769.54 1202.93 760.07 C 1166.85 765.75 1130.41 758.35 1094.19 760.02 C 1094.33 773.05 1092.86 786.00 1092.09 798.99 C 1091.81 821.66 1091.33 844.41 1093.56 867.02 C 1094.14 873.08 1092.63 878.98 1091.87 884.95 C 1066.61 886.33 1041.47 882.52 1016.26 883.93 C 992.48 882.02 968.59 887.75 944.99 882.85 C 948.83 851.05 946.78 818.95 945.77 787.06 C 947.93 758.41 946.60 729.68 947.05 700.99 C 947.04 688.29 949.85 675.71 948.82 663.00 C 948.03 651.67 946.96 640.35 946.84 629.00 C 932.25 629.35 917.36 627.56 903.01 630.88 C 903.11 651.53 903.19 672.20 902.16 692.83 C 902.63 714.54 904.76 736.54 901.59 758.13 C 885.36 758.27 869.14 757.93 853.00 756.32 C 827.01 755.65 800.92 755.30 775.00 757.64 C 768.57 757.24 762.16 756.14 755.96 754.41 C 756.26 732.30 755.33 710.16 756.55 688.06 C 758.83 666.85 758.54 645.42 757.01 624.17 C 757.89 609.45 756.66 594.71 757.83 580.00 C 759.04 553.34 756.29 526.50 759.13 499.94 C 746.07 500.01 733.02 499.66 719.98 500.07 C 715.75 498.22 711.17 502.72 713.06 506.98 C 712.33 546.66 714.01 586.35 712.86 626.02 C 712.83 629.65 708.33 632.10 705.01 630.99 C 688.60 632.16 672.39 628.54 656.00 628.91 C 629.67 628.67 603.25 630.12 577.00 627.52 C 573.81 627.45 570.60 628.33 567.50 628.78 C 564.12 613.79 564.98 598.17 566.69 583.00 C 567.96 555.49 565.84 527.90 567.68 500.41 C 571.13 474.31 567.57 448.13 567.17 421.99 C 567.62 406.39 569.61 390.85 569.00 375.21 C 568.22 374.49 567.44 373.77 566.68 373.06 C 530.48 378.33 494.07 372.07 457.77 372.97 C 457.72 387.32 460.41 401.68 458.42 416.01 C 457.35 442.56 458.34 469.15 457.97 495.72 C 443.55 494.85 429.42 499.24 415.00 497.84 C 381.20 494.36 347.20 496.89 313.32 495.68 C 313.27 460.80 311.47 425.78 314.90 391.01 C 316.44 360.00 311.78 328.98 314.84 298.01 C 314.37 277.42 317.24 256.37 312.86 236.06 C 297.95 237.82 282.89 236.34 267.98 237.87 C 266.66 265.59 271.52 293.35 268.33 321.00 C 267.50 337.51 268.30 354.05 267.80 370.57 C 252.84 370.57 237.96 372.41 223.03 372.58 C 212.04 371.47 201.02 370.88 189.97 371.02 C 185.70 371.54 181.52 370.54 177.82 368.50 C 178.20 345.99 177.20 323.42 179.63 301.00 C 180.35 281.95 180.54 262.82 179.17 243.80 C 176.69 226.54 180.61 209.29 180.12 192.00 C 181.17 165.17 175.73 138.28 180.30 111.59 M 186.03 235.93 C 185.52 257.64 186.15 279.33 187.44 300.99 C 186.05 321.27 185.59 341.60 186.02 361.93 C 210.26 361.17 234.37 366.11 258.63 363.61 C 262.55 362.13 260.39 356.91 260.47 354.10 C 258.69 342.52 258.53 330.72 259.61 319.07 C 261.64 301.46 261.02 283.68 261.05 266.00 C 260.79 256.68 260.94 247.26 259.11 238.08 C 234.70 238.82 210.45 235.04 186.03 235.93 M 320.99 238.00 C 319.49 263.04 325.10 287.98 321.91 312.96 C 320.40 329.84 320.98 346.81 321.14 363.73 C 321.85 364.48 322.57 365.23 323.29 365.99 C 339.07 363.54 355.08 363.95 371.00 363.90 C 398.45 363.23 425.78 367.94 453.23 365.25 C 464.54 366.18 475.68 363.29 487.00 364.22 C 521.93 368.35 557.22 363.93 592.21 367.21 C 623.14 366.25 654.18 364.45 685.06 367.40 C 710.07 369.96 735.01 365.60 760.01 366.01 C 795.24 369.59 830.74 367.74 866.09 367.51 C 868.41 367.82 870.69 368.61 873.07 368.46 C 893.70 367.86 914.35 367.92 935.00 367.93 C 952.64 367.69 970.18 371.01 987.84 369.30 C 1010.25 367.61 1032.82 367.08 1055.24 369.22 C 1078.43 370.75 1101.73 370.35 1124.91 368.75 C 1135.41 367.86 1145.90 369.33 1156.28 370.84 C 1181.79 369.85 1207.41 369.22 1232.93 370.67 C 1249.57 372.56 1266.41 372.10 1283.06 370.46 C 1302.56 369.21 1322.17 369.85 1341.58 372.18 C 1340.06 350.44 1344.77 328.60 1342.70 306.84 C 1341.34 286.63 1342.19 266.38 1341.98 246.15 C 1319.10 243.32 1295.99 243.85 1273.00 243.16 C 1239.01 244.49 1205.00 243.85 1171.00 244.07 C 1154.15 244.57 1137.35 240.52 1120.54 243.10 C 1078.67 247.37 1036.67 238.55 994.83 243.44 C 983.43 244.52 971.94 244.02 960.59 242.83 C 930.59 240.53 900.46 243.51 870.47 241.06 C 866.74 240.74 863.00 240.89 859.27 241.05 C 838.54 242.51 817.75 242.03 796.99 242.04 C 783.61 242.11 770.40 239.26 757.00 240.07 C 736.34 241.16 715.66 240.93 695.01 241.49 C 665.75 238.67 636.32 240.69 606.99 239.86 C 598.79 239.78 590.66 238.13 582.47 239.05 C 563.01 240.46 543.48 239.99 524.00 240.08 C 505.95 240.30 488.05 236.73 469.98 238.21 C 457.34 239.44 444.65 238.66 432.01 239.73 C 416.62 240.77 401.37 237.91 386.01 237.98 C 364.33 237.87 342.66 238.07 320.99 238.00 M 323.27 373.13 C 322.52 373.83 321.77 374.53 321.03 375.24 C 322.48 382.05 323.27 389.00 322.68 395.99 C 319.23 427.20 321.74 458.70 321.00 490.04 C 349.03 490.91 377.01 485.95 405.00 488.99 C 420.04 490.45 435.17 490.04 450.26 489.99 C 451.13 483.68 450.17 477.32 450.17 471.00 C 449.84 456.00 449.83 440.99 449.99 425.99 C 450.12 410.63 452.83 395.37 452.04 379.98 C 453.37 376.99 451.22 373.03 448.02 372.97 C 437.64 372.31 427.38 374.50 417.02 374.43 C 385.84 371.92 354.52 373.23 323.27 373.13 M 578.34 372.91 C 577.52 373.69 576.71 374.47 575.90 375.25 C 575.80 385.91 578.45 396.58 576.61 407.21 C 575.19 434.74 576.35 462.33 576.01 489.89 C 609.93 492.28 643.97 490.38 677.94 490.92 C 680.67 491.14 683.37 491.82 686.13 491.71 C 714.92 492.14 743.73 489.39 772.49 491.92 C 798.96 494.54 825.52 491.75 852.01 491.09 C 884.31 493.99 916.88 493.54 949.27 492.17 C 954.46 491.09 959.48 492.93 964.55 493.68 C 990.34 492.82 1016.19 492.50 1042.00 493.37 C 1057.60 494.99 1073.29 494.98 1088.96 495.51 C 1107.51 496.82 1125.92 491.81 1144.49 493.91 C 1173.24 496.58 1202.15 493.62 1230.93 495.64 C 1240.36 496.30 1250.02 499.04 1259.36 496.44 C 1264.44 494.97 1269.72 495.11 1274.99 494.95 C 1297.32 494.78 1319.75 494.44 1341.97 497.17 C 1342.00 481.62 1342.61 466.01 1340.90 450.53 C 1338.23 427.41 1343.33 404.33 1342.05 381.16 C 1307.47 376.50 1272.49 381.07 1237.83 377.77 C 1212.29 379.87 1186.59 378.98 1160.99 378.87 C 1138.16 377.03 1115.18 375.93 1092.32 377.74 C 1079.26 379.90 1065.91 379.13 1052.83 377.68 C 1021.86 375.60 990.74 378.67 959.81 375.78 C 929.41 376.37 898.90 378.63 868.53 375.92 C 855.45 374.59 842.25 374.66 829.18 375.84 C 810.51 377.91 791.61 377.52 772.98 375.40 C 744.09 374.49 715.15 374.89 686.26 375.61 C 682.61 375.07 679.10 373.45 675.33 373.79 C 643.04 376.05 610.59 375.57 578.34 372.91 M 576.32 497.89 C 575.55 498.67 574.78 499.45 574.01 500.24 C 573.26 520.88 576.59 541.37 576.16 562.00 C 576.57 581.63 573.12 601.09 573.90 620.75 C 590.80 623.43 607.99 623.60 625.03 622.12 C 632.03 621.58 639.06 622.48 646.05 621.60 C 665.35 619.38 684.52 623.61 703.84 623.18 C 703.53 607.73 706.16 592.44 706.03 577.00 C 706.57 551.41 704.67 525.73 707.21 500.22 C 677.16 498.15 646.92 496.52 616.86 499.47 C 603.29 500.95 589.84 498.43 576.32 497.89 M 768.14 497.85 C 766.10 500.91 763.21 503.83 764.05 507.99 C 763.22 524.70 766.54 541.27 766.14 558.00 C 766.91 579.00 763.16 599.82 763.91 620.83 C 774.09 623.26 784.59 623.11 795.00 623.14 C 820.67 623.41 846.37 620.23 872.01 622.52 C 900.49 624.04 929.06 621.75 957.53 623.93 C 964.70 624.42 971.88 624.06 979.05 623.53 C 999.36 625.40 1019.65 621.26 1040.00 623.31 C 1068.93 626.20 1098.06 625.34 1127.01 623.24 C 1154.59 625.73 1182.32 624.98 1210.00 624.92 C 1225.68 624.58 1241.29 628.15 1256.96 625.83 C 1283.77 624.30 1310.76 624.21 1337.50 626.98 C 1338.20 626.18 1338.92 625.39 1339.67 624.61 C 1339.71 613.06 1341.61 601.53 1340.48 590.00 C 1339.62 573.34 1340.06 556.66 1339.91 540.00 C 1339.93 528.45 1339.66 516.77 1341.93 505.40 C 1329.34 501.04 1315.92 504.37 1303.00 504.00 C 1281.07 503.72 1259.05 505.12 1237.22 502.72 C 1210.13 499.51 1183.11 506.10 1156.00 503.67 C 1120.45 499.57 1084.53 504.35 1048.98 500.49 C 1023.34 501.63 997.66 502.97 972.00 501.68 C 945.74 499.19 919.24 499.17 892.99 501.61 C 877.61 502.91 862.36 499.85 847.01 499.97 C 820.72 499.45 794.26 501.61 768.14 497.85 M 764.00 628.68 C 763.95 642.79 764.31 656.90 763.86 671.01 C 763.58 680.31 761.62 689.56 762.81 698.89 C 764.62 715.13 763.93 731.51 764.04 747.82 C 787.04 752.56 810.78 749.65 834.00 748.16 C 854.37 747.13 874.60 750.96 895.00 750.12 C 895.17 727.72 894.13 705.26 896.43 682.94 C 897.95 665.65 896.80 648.30 894.79 631.11 C 884.15 631.11 873.51 630.71 862.94 629.53 C 834.33 627.98 805.64 630.02 777.03 628.39 C 772.68 627.94 768.32 628.16 764.00 628.68 M 954.99 629.50 C 954.88 645.66 955.48 661.84 954.61 677.99 C 951.87 702.13 955.45 726.39 955.05 750.58 C 973.12 753.86 991.73 751.27 1010.00 751.94 C 1037.04 750.73 1063.94 755.88 1090.96 753.49 C 1108.34 751.91 1125.85 751.00 1143.21 753.38 C 1174.17 755.16 1205.23 752.77 1236.19 754.88 C 1269.94 754.38 1303.79 752.39 1337.48 755.87 C 1338.26 755.06 1339.06 754.28 1339.88 753.50 C 1341.18 735.62 1336.63 717.92 1338.61 700.08 C 1341.32 678.57 1339.56 656.80 1339.95 635.19 C 1305.47 630.05 1270.43 635.36 1235.83 631.88 C 1226.72 630.91 1217.55 631.12 1208.49 632.22 C 1191.35 633.47 1174.14 633.24 1156.99 632.89 C 1127.44 629.97 1097.65 630.73 1068.01 631.47 C 1060.90 632.63 1053.80 632.15 1046.84 630.58 C 1016.25 630.54 985.47 632.65 954.99 629.50 M 955.13 758.52 C 953.10 791.31 952.28 824.16 953.15 857.03 C 953.20 863.86 954.85 870.51 956.83 877.01 C 967.87 873.24 979.62 876.52 991.01 875.44 C 1021.90 872.76 1052.63 878.46 1083.52 876.75 C 1084.27 876.03 1085.03 875.32 1085.81 874.63 C 1085.91 851.09 1086.54 827.53 1085.62 804.01 C 1083.21 789.29 1086.82 774.58 1086.21 759.81 C 1075.95 759.90 1065.71 760.33 1055.49 761.09 C 1053.00 761.28 1050.58 760.52 1048.52 759.16 C 1031.37 760.47 1014.17 759.94 997.00 760.05 C 983.03 760.01 968.98 760.55 955.13 758.52 M 1211.17 759.85 C 1210.70 777.25 1208.28 794.55 1208.89 812.00 C 1208.18 833.59 1210.89 855.05 1211.24 876.61 C 1250.01 881.62 1289.20 876.65 1328.04 880.52 C 1331.72 880.47 1337.85 880.13 1339.42 875.96 C 1336.21 838.52 1337.99 800.75 1340.38 763.28 C 1335.36 762.07 1330.10 762.07 1325.01 761.94 C 1298.34 761.61 1271.65 762.69 1245.00 761.63 C 1233.77 760.35 1222.46 759.83 1211.17 759.85 Z" />
</g>
</svg>
