<?xml version="1.0" encoding="UTF-8" ?>
<!DOCTYPE svg PUBLIC "-//W3C//DTD SVG 1.1//EN" "http://www.w3.org/Graphics/SVG/1.1/DTD/svg11.dtd">
<svg width="1702pt" height="822pt" viewBox="0 0 1702 822" version="1.1" xmlns="http://www.w3.org/2000/svg">
<g id="#0a0a0aff">
<path fill="#0a0a0a" opacity="1.00" d=" M 197.42 66.75 C 202.59 63.80 207.80 66.58 212.69 68.54 C 213.00 73.37 210.87 77.67 205.92 78.87 C 203.19 74.76 200.23 70.81 197.42 66.75 Z" />
<path fill="#0a0a0a" opacity="1.00" d=" M 252.33 67.07 C 254.43 66.31 256.41 67.81 258.35 68.41 C 256.17 84.20 256.94 100.17 257.65 116.03 C 258.76 120.53 256.00 124.29 254.48 128.20 C 248.30 127.44 242.56 124.97 237.37 121.64 C 238.37 120.56 239.39 119.48 240.40 118.40 C 242.78 118.91 245.14 119.37 247.55 119.86 C 248.29 119.08 249.02 118.30 249.77 117.53 C 249.76 104.55 250.63 91.44 249.07 78.53 C 247.54 74.09 242.63 74.50 238.86 74.76 C 232.48 75.13 226.14 74.07 219.82 73.37 C 219.99 72.64 220.33 71.16 220.50 70.42 C 231.12 69.91 242.18 70.91 252.33 67.07 Z" />
<path fill="#0a0a0a" opacity="1.00" d=" M 659.10 71.24 C 663.34 68.51 667.91 66.40 672.88 65.33 C 673.09 78.88 672.52 92.45 673.24 106.00 C 673.62 109.98 676.05 113.37 677.27 117.09 C 669.12 118.76 660.64 119.82 652.40 118.49 C 646.15 115.82 640.00 110.35 640.07 102.99 C 640.59 95.16 644.65 86.10 652.76 83.67 C 656.25 82.52 659.95 82.03 663.55 81.29 C 662.16 77.90 660.68 74.55 659.10 71.24 M 648.36 93.08 C 649.17 98.27 649.59 103.58 651.49 108.53 C 654.20 111.90 659.10 111.97 662.93 112.82 C 662.98 105.13 662.99 97.44 663.02 89.76 C 657.67 87.17 652.79 90.24 648.36 93.08 Z" />
<path fill="#0a0a0a" opacity="1.00" d=" M 503.72 73.73 C 506.43 70.18 510.47 67.98 514.85 67.14 C 514.55 73.26 509.62 76.80 506.55 81.41 C 501.76 89.96 498.13 100.02 500.96 109.89 C 502.64 118.28 510.40 123.41 512.62 131.57 C 503.88 129.84 496.63 122.79 494.51 114.16 C 492.45 108.52 490.31 102.52 491.55 96.43 C 493.84 88.07 497.71 80.05 503.72 73.73 Z" />
<path fill="#0a0a0a" opacity="1.00" d=" M 683.06 69.17 C 693.68 71.15 699.83 81.07 703.79 90.20 C 706.19 100.60 705.03 112.63 698.57 121.48 C 695.30 127.00 689.19 129.71 684.31 133.54 C 683.18 132.37 682.06 131.19 680.93 130.03 C 691.05 121.41 696.53 108.31 695.12 94.98 C 696.63 84.09 682.54 79.72 683.06 69.17 Z" />
<path fill="#0a0a0a" opacity="1.00" d=" M 1167.37 72.54 C 1171.41 72.51 1176.33 70.95 1179.33 74.64 C 1184.09 77.51 1181.53 83.64 1178.77 87.04 C 1183.92 96.92 1178.98 108.61 1180.04 119.11 C 1183.63 117.77 1187.07 115.93 1190.36 113.95 C 1190.27 105.29 1189.42 96.60 1185.87 88.65 C 1191.57 88.39 1197.30 88.34 1203.04 87.86 C 1206.32 87.51 1208.36 84.52 1210.71 82.52 C 1202.80 82.17 1194.92 82.00 1187.04 81.74 C 1187.54 80.50 1188.53 78.02 1189.03 76.78 C 1201.69 76.27 1214.50 74.25 1227.19 75.09 C 1225.73 93.05 1226.15 111.07 1226.01 129.07 C 1226.29 132.29 1223.92 134.86 1221.39 136.46 C 1215.71 138.09 1210.94 134.32 1205.98 132.41 C 1206.15 130.35 1207.35 128.41 1207.84 126.39 C 1210.54 127.05 1213.13 127.61 1215.93 128.21 C 1216.00 116.80 1215.99 105.39 1216.00 93.98 C 1209.36 94.00 1202.72 94.02 1196.11 94.04 C 1195.28 95.19 1194.48 96.34 1193.69 97.49 C 1199.19 97.26 1204.91 96.64 1210.25 98.50 C 1208.73 106.36 1212.92 116.20 1207.88 123.10 C 1203.81 122.80 1200.74 120.19 1197.22 118.55 C 1196.76 119.89 1195.85 122.57 1195.40 123.90 C 1186.63 124.46 1180.17 130.32 1172.76 134.12 C 1171.55 131.67 1169.52 129.35 1169.39 126.53 C 1171.88 116.65 1171.53 106.35 1172.24 96.25 C 1168.82 96.06 1165.72 95.90 1162.39 95.68 C 1162.21 94.18 1162.04 92.67 1161.90 91.17 C 1165.93 90.16 1170.02 89.12 1173.95 87.69 C 1170.22 83.43 1168.30 78.07 1167.37 72.54 M 1211.27 82.05 C 1212.40 84.40 1213.71 86.66 1215.21 88.81 C 1215.50 87.22 1215.80 85.63 1216.10 84.04 C 1214.49 83.36 1212.88 82.69 1211.27 82.05 M 1197.76 103.93 C 1198.08 106.67 1198.71 112.15 1199.02 114.89 C 1201.09 111.64 1202.21 107.94 1202.96 104.18 C 1201.21 104.09 1199.48 104.01 1197.76 103.93 Z" />
<path fill="#0a0a0a" opacity="1.00" d=" M 218.48 82.48 C 226.21 81.78 234.73 83.43 241.73 79.25 C 243.43 81.39 245.13 83.53 246.76 85.73 C 237.12 85.92 227.46 86.06 217.84 85.49 C 218.00 84.74 218.32 83.23 218.48 82.48 Z" />
<path fill="#0a0a0a" opacity="1.00" d=" M 586.70 80.96 C 595.12 77.46 603.14 83.73 607.97 90.06 C 613.03 100.32 607.23 116.39 594.86 118.02 C 589.24 119.74 583.47 117.39 578.95 114.13 C 573.19 110.19 573.23 102.22 572.38 96.00 C 572.95 88.27 579.57 82.67 586.70 80.96 M 588.50 88.53 C 580.30 90.80 580.04 102.82 584.36 108.54 C 586.43 114.22 593.65 111.15 598.06 112.49 C 599.38 105.79 599.76 98.96 600.30 92.17 C 596.81 89.87 593.16 86.23 588.50 88.53 Z" />
<path fill="#0a0a0a" opacity="1.00" d=" M 195.05 84.44 C 200.29 83.95 205.48 83.04 210.64 82.05 C 211.88 92.85 209.85 103.87 212.04 114.56 C 214.37 113.15 217.06 112.12 218.90 110.06 C 221.23 103.77 221.65 97.01 222.60 90.43 C 229.12 91.06 235.87 90.07 242.16 92.23 C 242.11 99.46 242.10 106.68 242.14 113.91 C 237.52 115.67 233.67 112.65 230.20 109.86 C 229.15 112.25 228.09 114.63 227.18 117.09 C 224.55 116.58 221.98 116.04 219.39 115.44 C 214.81 119.98 209.15 126.50 201.88 123.91 C 203.85 112.07 204.11 100.04 204.09 88.06 C 201.02 88.01 198.04 87.99 194.99 87.94 C 195.01 86.77 195.03 85.61 195.05 84.44 M 228.49 98.31 C 228.35 100.94 228.07 106.18 227.93 108.81 C 229.68 107.64 231.51 106.55 233.05 105.10 C 233.33 102.55 233.88 97.45 234.16 94.90 C 232.21 95.91 230.04 96.69 228.49 98.31 Z" />
<path fill="#0a0a0a" opacity="1.00" d=" M 517.68 82.10 C 522.28 82.10 526.91 82.53 531.32 83.90 C 529.76 91.54 533.24 98.66 537.09 105.01 C 540.09 98.83 540.83 91.20 536.24 85.64 C 537.26 84.29 538.27 82.94 539.29 81.59 C 544.08 82.20 549.37 81.71 553.61 84.46 C 548.19 90.61 551.81 98.46 555.27 104.60 C 558.15 97.53 560.11 89.95 558.58 82.29 C 562.42 82.03 568.26 81.19 569.84 85.92 C 568.72 89.10 566.64 91.81 565.14 94.80 C 560.73 102.94 558.76 112.26 553.21 119.79 C 550.46 114.69 548.21 109.35 546.08 103.97 C 544.72 103.99 543.37 104.01 542.02 104.03 C 539.82 108.95 537.33 113.73 534.41 118.27 C 530.23 114.75 528.80 109.28 526.70 104.46 C 524.26 96.77 519.27 90.08 517.68 82.10 Z" />
<path fill="#0a0a0a" opacity="1.00" d=" M 613.74 84.18 C 621.66 83.16 629.67 83.38 637.57 82.11 C 637.20 84.32 636.45 88.74 636.07 90.95 C 632.29 92.05 628.52 92.99 624.75 94.02 C 624.75 99.27 625.01 104.50 625.52 109.71 C 627.17 113.08 630.05 115.66 631.89 118.93 C 625.65 117.73 617.67 121.44 612.29 117.08 C 614.36 111.47 617.82 106.20 617.69 99.99 C 617.54 94.46 615.15 89.42 613.74 84.18 Z" />
<path fill="#0a0a0a" opacity="1.00" d=" M 443.09 139.57 C 445.69 140.21 448.45 140.96 451.04 141.81 C 450.98 151.06 451.04 160.31 450.92 169.56 C 454.91 167.78 459.11 166.58 463.41 165.77 C 459.24 172.87 454.80 179.92 452.21 187.79 C 451.12 192.08 449.28 196.16 446.48 199.59 C 442.68 191.26 441.47 181.70 435.93 174.22 C 434.29 171.76 432.50 169.42 430.72 167.08 C 431.58 166.00 432.45 164.92 433.33 163.84 C 436.45 165.72 439.54 167.68 442.55 169.76 C 442.91 159.69 443.03 149.63 443.09 139.57 Z" />
<path fill="#0a0a0a" opacity="1.00" d=" M 1193.43 145.40 C 1195.15 143.25 1197.92 145.14 1200.09 145.47 C 1199.84 168.50 1200.26 191.53 1199.78 214.56 C 1197.16 214.73 1194.57 214.90 1192.01 215.08 C 1192.06 195.04 1191.90 175.01 1191.86 154.98 C 1192.67 152.19 1190.81 147.73 1193.43 145.40 Z" />
<path fill="#0a0a0a" opacity="1.00" d=" M 199.21 214.39 C 200.84 213.35 202.41 212.19 204.21 211.46 C 207.25 211.92 210.03 213.71 212.12 215.92 C 215.28 218.67 211.99 222.84 211.56 226.07 C 205.54 224.53 202.58 218.96 199.21 214.39 Z" />
<path fill="#0a0a0a" opacity="1.00" d=" M 60.30 212.02 C 65.80 211.74 68.73 216.02 71.23 219.99 C 65.30 223.26 61.08 228.63 58.29 234.71 C 59.83 234.80 61.37 234.89 62.92 234.98 C 64.55 232.31 66.19 229.65 67.93 227.06 C 70.43 228.66 72.95 230.21 75.42 231.84 C 70.24 237.40 64.44 242.43 60.40 248.97 C 65.53 248.55 71.04 249.94 75.98 248.05 C 77.56 237.17 76.58 226.14 75.12 215.31 C 82.18 217.67 89.70 219.21 97.12 217.63 C 101.86 215.36 105.94 218.57 108.49 222.13 C 102.86 237.08 105.36 253.41 105.05 269.05 C 106.65 268.23 108.25 267.42 109.87 266.64 C 111.84 268.80 113.87 270.90 115.92 272.98 C 114.20 273.81 112.50 274.97 110.52 275.00 C 95.33 275.87 80.13 274.69 64.97 273.78 C 65.01 273.32 65.11 272.39 65.15 271.93 C 71.02 272.41 75.75 269.14 75.58 262.81 C 67.20 265.21 59.45 269.22 51.39 272.43 C 50.53 269.54 49.64 266.66 48.95 263.73 C 58.60 262.29 69.38 262.61 77.62 256.53 C 76.31 254.95 74.99 253.37 73.67 251.79 C 65.58 253.63 57.58 255.91 49.22 256.27 C 48.81 254.52 48.40 252.78 47.97 251.03 C 50.95 248.94 53.96 246.87 56.97 244.82 C 56.92 243.88 56.87 242.94 56.82 242.01 C 53.19 241.14 49.70 239.80 46.53 237.83 C 53.70 230.76 56.94 221.22 60.30 212.02 M 87.62 225.67 C 84.27 226.85 82.31 229.97 80.17 232.59 C 85.29 235.46 91.31 235.03 96.97 235.48 C 97.02 232.44 97.08 229.41 97.13 226.38 C 94.03 225.63 90.83 225.06 87.62 225.67 M 83.28 241.14 C 82.50 241.85 81.72 242.56 80.94 243.28 C 81.70 246.70 82.54 250.12 83.33 253.54 C 86.93 252.76 90.71 252.58 94.23 251.41 C 99.13 250.88 95.66 243.72 97.57 240.98 C 92.80 241.07 88.04 241.09 83.28 241.14 M 81.28 256.29 C 81.10 260.70 80.98 265.10 80.86 269.53 C 85.69 270.57 90.64 270.90 95.55 271.52 C 96.52 266.47 96.60 261.30 96.96 256.19 C 91.73 256.08 86.50 256.20 81.28 256.29 Z" />
<path fill="#0a0a0a" opacity="1.00" d=" M 150.93 214.46 C 153.94 214.33 156.97 214.34 159.99 214.44 C 160.16 236.56 160.27 258.70 158.99 280.79 C 159.82 301.21 156.25 321.70 159.67 342.00 C 158.01 342.00 154.68 342.00 153.02 341.99 C 152.97 310.33 152.98 278.66 153.07 247.00 C 153.11 236.11 152.65 225.22 150.93 214.46 Z" />
<path fill="#0a0a0a" opacity="1.00" d=" M 243.71 216.45 C 247.11 216.65 249.91 214.37 253.10 213.64 C 255.56 213.80 257.82 214.94 260.13 215.70 C 257.18 234.38 257.99 253.34 258.00 272.18 C 254.88 272.56 251.71 273.17 248.56 272.98 C 244.48 271.90 240.97 269.42 237.53 267.07 C 241.61 266.03 245.75 265.23 249.88 264.38 C 249.88 249.96 251.03 235.37 248.66 221.08 C 240.24 221.06 231.80 221.27 223.41 220.49 C 220.53 219.61 221.88 216.63 222.23 214.52 C 229.40 214.90 236.53 216.11 243.71 216.45 Z" />
<path fill="#0a0a0a" opacity="1.00" d=" M 353.82 212.75 C 356.10 214.31 358.56 215.67 360.51 217.66 C 362.25 220.86 359.76 222.98 358.01 224.98 C 355.12 227.96 352.18 230.94 350.11 234.57 C 351.71 234.72 353.32 234.87 354.93 235.01 C 356.51 232.40 358.10 229.79 359.79 227.25 C 361.95 228.85 364.18 230.38 366.49 231.77 C 366.76 227.03 367.02 222.31 367.33 217.58 C 376.14 218.52 385.17 219.13 393.88 217.14 C 395.42 218.83 396.97 220.52 398.53 222.20 C 396.47 237.65 396.94 253.28 397.01 268.82 C 399.50 268.19 401.95 267.57 404.48 267.00 C 405.27 268.99 406.11 270.97 406.97 272.94 C 406.17 273.94 405.38 274.92 404.60 275.92 C 396.55 275.90 388.51 275.84 380.48 275.31 C 372.07 274.98 363.39 276.25 355.28 273.26 C 359.06 271.97 362.97 271.18 366.86 270.25 C 366.89 267.73 366.90 265.21 366.92 262.69 C 359.08 265.95 351.65 270.19 343.49 272.65 C 343.01 270.10 342.46 267.45 342.20 264.90 C 350.26 262.17 358.91 261.59 367.02 258.97 C 366.90 257.22 366.67 253.71 366.55 251.96 C 358.95 253.27 351.53 255.46 344.10 257.50 C 343.44 256.92 342.78 256.35 342.13 255.78 C 342.15 254.31 342.21 251.38 342.23 249.91 C 344.57 248.85 347.13 248.02 349.35 246.66 C 347.30 243.21 343.39 241.06 342.18 237.10 C 343.78 233.37 346.70 230.32 347.91 226.39 C 349.25 221.60 351.14 216.96 353.82 212.75 M 374.71 224.54 C 374.30 228.02 374.24 231.53 374.68 235.01 C 379.45 234.96 384.20 234.99 388.99 235.02 C 389.01 232.16 389.04 229.31 389.08 226.45 C 384.34 225.47 379.49 225.11 374.71 224.54 M 352.02 248.66 C 357.07 248.89 362.10 248.98 367.17 249.12 C 368.90 244.26 368.48 239.11 367.39 234.15 C 361.27 237.77 356.32 243.07 352.02 248.66 M 372.79 241.05 C 373.49 244.24 373.47 247.75 375.28 250.59 C 379.78 251.50 384.42 251.07 388.99 251.41 C 389.00 248.80 389.00 243.59 389.00 240.98 C 383.59 241.01 378.19 241.03 372.79 241.05 M 375.39 256.32 C 374.64 260.40 373.30 264.46 373.41 268.65 C 377.25 273.04 384.12 270.27 389.09 271.38 C 388.91 266.32 388.78 261.25 388.64 256.21 C 384.22 256.20 379.79 256.24 375.39 256.32 Z" />
<path fill="#0a0a0a" opacity="1.00" d=" M 565.25 213.11 C 567.93 213.10 570.88 213.19 573.63 213.25 C 573.80 219.11 573.95 224.98 574.10 230.85 C 578.02 230.36 581.92 229.58 585.89 229.44 C 590.08 231.66 594.74 235.52 593.64 241.01 C 594.15 248.93 593.96 257.23 598.03 264.32 C 592.68 263.94 587.31 263.96 582.07 262.82 C 584.30 259.44 587.76 255.95 587.12 251.56 C 585.92 246.12 587.18 239.67 583.91 234.87 C 580.20 235.34 576.90 237.20 573.60 238.82 C 574.43 247.33 572.51 257.36 578.81 264.21 C 572.26 264.01 565.73 263.98 559.21 263.59 C 561.31 261.74 563.56 260.09 565.84 258.47 C 565.12 245.15 568.90 229.47 560.60 217.81 C 562.15 216.24 563.69 214.67 565.25 213.11 Z" />
<path fill="#0a0a0a" opacity="1.00" d=" M 495.40 236.20 C 498.30 227.12 505.72 220.57 512.57 214.37 C 513.73 215.58 514.91 216.78 516.10 217.98 C 511.44 222.42 506.37 226.81 503.82 232.88 C 500.25 242.02 499.81 252.76 504.45 261.64 C 507.04 265.99 510.23 269.99 512.50 274.54 C 504.23 272.89 499.32 265.21 495.94 258.17 C 494.48 250.99 494.40 243.44 495.40 236.20 Z" />
<path fill="#0a0a0a" opacity="1.00" d=" M 726.50 219.68 C 727.90 217.92 729.38 216.22 730.85 214.51 C 739.66 220.40 748.47 227.96 750.00 239.16 C 753.41 250.33 747.72 261.38 740.58 269.58 C 737.42 273.24 732.91 275.26 728.37 276.63 C 729.64 270.01 735.91 266.40 738.10 260.30 C 740.54 252.87 744.34 244.82 740.97 237.00 C 738.61 229.57 731.67 225.07 726.50 219.68 Z" />
<path fill="#0a0a0a" opacity="1.00" d=" M 952.49 227.48 C 953.90 224.11 954.85 219.70 958.47 217.92 C 960.75 218.67 962.87 219.84 965.02 220.92 C 964.99 222.61 964.95 225.99 964.92 227.68 C 960.50 230.01 957.26 233.88 955.01 238.28 C 956.31 238.57 957.63 238.86 958.96 239.15 C 960.06 237.14 961.15 235.11 962.24 233.09 C 965.27 233.79 968.37 234.54 971.43 235.22 C 970.91 231.47 970.34 227.76 969.38 224.10 C 970.28 223.25 971.19 222.41 972.11 221.58 C 982.45 223.54 993.34 219.80 1003.35 223.64 C 1001.22 238.96 1000.45 254.43 1001.12 269.90 C 1006.48 270.59 1010.26 274.66 1012.30 279.35 C 995.18 279.96 978.10 282.24 961.00 279.87 C 961.01 279.19 961.03 277.82 961.04 277.14 C 963.52 277.02 966.01 276.91 968.53 276.81 C 969.32 274.85 970.17 272.90 971.05 270.97 C 970.08 270.01 969.13 269.06 968.18 268.10 C 961.95 272.24 955.17 275.44 948.29 278.34 C 947.47 275.40 946.55 272.46 945.74 269.53 C 953.82 268.05 962.28 267.46 969.74 263.70 C 971.63 263.04 971.03 260.79 970.86 259.26 C 969.16 256.31 965.21 258.56 962.56 258.87 C 957.22 260.72 951.61 261.69 946.05 262.51 C 946.08 260.71 946.13 257.10 946.16 255.29 C 949.37 253.16 952.47 250.81 955.01 247.87 C 951.68 247.45 948.36 247.04 945.05 246.63 C 946.59 239.90 950.28 233.98 952.49 227.48 M 978.98 230.23 C 979.07 233.02 979.19 235.82 979.33 238.61 C 980.01 239.26 980.70 239.92 981.39 240.58 C 984.88 239.65 988.23 238.89 991.85 238.25 C 991.24 231.51 984.12 230.66 978.98 230.23 M 956.59 254.44 C 960.73 254.39 965.02 254.89 969.07 253.81 C 973.81 252.53 968.84 244.92 971.24 242.21 C 963.62 242.20 960.14 249.00 956.59 254.44 M 979.03 246.41 C 979.02 249.05 979.01 254.34 979.00 256.99 C 983.24 257.05 987.51 257.11 991.80 257.17 C 992.32 254.54 992.36 251.81 992.73 249.17 C 989.42 245.29 983.31 247.61 979.03 246.41 M 977.33 262.70 C 977.82 267.59 977.87 272.52 979.00 277.32 C 983.62 276.58 988.33 275.87 992.95 274.95 C 992.99 270.86 993.04 266.77 993.11 262.69 C 988.10 260.07 982.42 260.13 977.33 262.70 Z" />
<path fill="#0a0a0a" opacity="1.00" d=" M 1047.02 220.92 C 1049.59 220.18 1051.52 219.32 1054.35 218.67 C 1055.74 261.11 1054.72 303.60 1055.01 346.06 C 1055.47 350.38 1050.22 351.80 1047.38 353.32 C 1046.53 309.20 1047.19 265.06 1047.02 220.92 Z" />
<path fill="#0a0a0a" opacity="1.00" d=" M 1192.21 217.98 C 1195.54 219.56 1202.62 221.17 1199.63 226.97 C 1197.59 263.79 1197.67 300.71 1198.24 337.59 C 1203.53 332.94 1209.09 328.34 1216.63 328.73 C 1211.51 337.86 1204.04 345.38 1197.12 353.13 C 1195.17 354.96 1193.39 352.19 1191.95 351.07 C 1187.35 346.30 1182.43 341.84 1177.99 336.93 C 1175.99 335.25 1176.96 332.64 1177.28 330.48 C 1181.94 332.84 1186.49 335.36 1191.19 337.66 C 1193.14 297.81 1191.24 257.87 1192.21 217.98 Z" />
<path fill="#0a0a0a" opacity="1.00" d=" M 242.61 225.54 C 244.56 227.42 246.51 229.31 248.42 231.24 C 239.38 232.59 230.21 232.39 221.11 233.03 C 220.30 231.84 219.48 230.65 218.68 229.47 C 226.74 228.92 235.50 230.34 242.61 225.54 Z" />
<path fill="#0a0a0a" opacity="1.00" d=" M 601.94 231.33 C 609.46 229.54 617.19 228.93 624.73 227.22 C 625.53 230.16 626.35 233.05 627.23 235.97 C 626.35 236.80 625.49 237.62 624.63 238.45 C 620.99 238.33 617.35 238.37 613.74 238.69 C 613.73 244.09 613.96 249.47 614.42 254.85 C 615.73 258.02 617.74 260.87 619.40 263.87 C 613.34 263.87 607.30 263.87 601.26 263.81 C 602.40 261.74 603.90 259.83 605.30 257.92 C 605.75 248.96 607.59 239.12 601.94 231.33 Z" />
<path fill="#0a0a0a" opacity="1.00" d=" M 631.92 228.91 C 638.94 227.75 646.03 227.24 653.14 226.74 C 656.87 235.46 657.59 245.20 655.32 254.38 C 657.96 255.23 660.74 256.22 663.36 257.28 C 662.02 258.53 659.35 261.02 658.02 262.27 C 650.71 261.50 642.69 258.91 636.08 263.48 C 633.07 261.52 630.00 259.62 626.98 257.71 C 627.98 251.37 630.94 243.88 637.87 242.20 C 643.09 241.57 648.24 239.14 649.35 233.43 C 645.80 233.18 643.16 233.25 639.88 233.14 C 638.28 236.75 636.20 240.26 632.78 242.45 C 632.44 237.94 632.15 233.42 631.92 228.91 M 633.92 250.38 C 637.30 253.31 640.87 255.98 644.80 258.15 C 646.59 253.73 647.96 249.14 648.48 244.38 C 643.31 245.59 638.49 247.74 633.92 250.38 Z" />
<path fill="#0a0a0a" opacity="1.00" d=" M 667.19 230.21 C 672.24 226.39 679.04 227.52 684.99 226.68 C 684.98 229.52 684.97 235.19 684.97 238.03 C 680.46 235.30 675.53 233.31 670.25 232.71 C 671.32 235.08 672.03 237.88 674.14 239.58 C 679.36 242.69 684.51 245.92 689.47 249.43 C 688.97 254.02 689.20 260.91 683.90 262.95 C 677.63 265.00 670.82 264.02 664.67 262.01 C 664.95 259.29 665.49 253.87 665.77 251.16 C 667.86 253.34 669.37 256.09 671.80 257.96 C 674.06 258.43 678.60 259.38 680.87 259.85 C 680.90 256.95 680.94 254.05 681.00 251.16 C 675.59 249.36 669.01 248.41 665.26 243.61 C 665.36 239.33 663.02 233.28 667.19 230.21 Z" />
<path fill="#0a0a0a" opacity="1.00" d=" M 196.59 229.34 C 201.66 230.67 206.89 230.01 211.98 229.12 C 211.97 239.81 212.02 250.50 212.08 261.19 C 215.22 259.64 218.35 258.09 221.52 256.59 C 223.03 250.89 219.39 242.78 224.16 238.31 C 230.11 237.52 236.17 238.17 242.14 237.31 C 241.41 245.69 243.79 254.94 239.81 262.76 C 237.27 260.52 234.77 258.26 232.26 256.02 C 230.48 257.38 228.83 258.98 226.78 259.95 C 218.94 262.23 213.14 268.23 206.37 272.47 C 205.10 270.00 203.43 267.50 203.46 264.62 C 203.57 254.78 204.10 244.89 205.94 235.20 C 202.66 235.02 199.41 234.88 196.14 234.67 C 196.26 232.89 196.42 231.11 196.59 229.34 M 228.00 243.00 C 228.00 245.50 228.00 250.50 228.00 253.00 C 229.50 253.00 232.50 253.00 234.00 253.00 C 234.00 250.50 234.00 245.50 234.00 243.00 C 232.50 243.00 229.50 243.00 228.00 243.00 Z" />
<path fill="#0a0a0a" opacity="1.00" d=" M 520.13 231.47 C 529.27 228.63 539.02 230.40 548.36 228.75 C 557.62 234.43 559.23 247.63 554.67 256.73 C 550.45 263.78 541.60 263.89 534.42 264.67 C 534.40 266.07 534.36 268.88 534.33 270.28 C 536.46 271.45 538.52 272.74 540.53 274.11 C 533.06 275.58 523.28 278.78 518.30 271.27 C 520.10 270.23 521.92 269.23 523.77 268.29 C 523.19 256.09 526.84 242.53 520.13 231.47 M 535.41 236.04 C 533.69 243.07 534.12 250.39 533.59 257.56 C 537.70 258.38 543.28 260.24 546.11 256.10 C 551.27 251.20 548.85 242.99 544.92 238.20 C 541.83 237.12 538.66 236.40 535.41 236.04 Z" />
<path fill="#0a0a0a" opacity="1.00" d=" M 694.14 236.31 C 697.06 229.13 706.45 228.46 713.01 228.96 C 716.96 230.11 720.04 233.20 723.49 235.37 C 722.53 238.48 724.20 244.99 719.67 246.14 C 713.22 246.38 706.77 245.11 700.34 245.05 C 702.04 250.39 705.37 256.73 711.80 256.73 C 716.65 254.73 719.12 249.70 722.75 246.20 C 723.50 249.68 725.39 253.68 722.89 256.85 C 718.20 265.62 706.13 265.40 698.82 260.20 C 690.47 255.57 690.64 244.00 694.14 236.31 M 703.00 236.99 C 703.00 237.50 703.00 238.50 703.00 239.01 C 704.99 239.00 706.99 239.00 709.00 239.01 C 709.00 238.50 709.00 237.50 709.00 236.99 C 706.99 236.99 704.99 236.99 703.00 236.99 Z" />
<path fill="#0a0a0a" opacity="1.00" d=" M 81.27 284.47 C 88.15 285.36 94.86 287.16 101.54 288.97 C 102.88 295.48 109.05 298.17 113.42 302.25 C 105.19 303.74 96.80 303.92 88.47 304.27 C 88.99 309.87 89.30 315.62 91.71 320.79 C 94.43 316.15 96.90 311.38 99.26 306.55 C 102.16 308.29 105.03 310.08 107.66 312.20 C 101.86 317.45 97.09 324.15 95.02 331.74 C 97.79 334.69 100.99 337.26 104.68 338.96 C 106.18 335.54 107.56 332.07 109.06 328.65 C 110.38 329.44 111.71 330.23 113.03 331.02 C 113.02 334.78 112.99 342.31 112.98 346.07 C 110.15 346.59 107.20 347.99 104.30 347.06 C 97.81 346.47 95.20 340.16 91.98 335.54 C 84.97 338.99 77.95 342.42 71.07 346.13 C 70.53 345.80 69.45 345.13 68.91 344.79 C 69.71 343.10 70.52 341.41 71.32 339.73 C 67.81 337.88 64.04 336.62 60.28 335.42 C 57.78 340.01 54.85 344.35 51.93 348.69 C 50.16 347.25 48.41 345.79 46.69 344.30 C 48.98 341.78 51.56 339.51 53.55 336.74 C 58.12 323.29 54.97 308.51 58.83 294.97 C 64.80 298.82 73.01 302.71 79.91 299.14 C 81.55 294.76 80.86 289.33 81.27 284.47 M 86.21 299.18 C 89.77 300.24 93.40 301.03 97.06 301.66 C 96.24 297.97 95.38 294.33 94.57 290.64 C 92.72 289.70 90.89 288.73 89.07 287.74 C 87.57 291.40 86.80 295.28 86.21 299.18 M 64.91 303.99 C 65.08 306.79 65.25 309.53 65.43 312.35 C 69.79 313.43 75.07 312.25 78.84 315.08 C 78.50 322.52 77.55 329.94 77.62 337.41 C 80.62 336.04 84.33 334.87 85.70 331.53 C 87.30 328.80 85.72 325.69 85.16 322.84 C 83.39 316.73 83.23 310.29 82.50 304.01 C 76.64 304.02 70.77 304.02 64.91 303.99 M 64.45 317.91 C 63.52 322.48 63.16 327.12 62.63 331.75 C 64.82 332.79 67.01 333.84 69.18 334.93 C 72.12 329.78 73.02 323.88 73.63 318.06 C 70.57 318.00 67.51 317.95 64.45 317.91 Z" />
<path fill="#0a0a0a" opacity="1.00" d=" M 441.14 284.61 C 443.78 285.22 446.56 286.01 449.19 286.84 C 448.32 296.07 447.39 305.29 446.69 314.54 C 450.60 312.19 455.13 311.46 459.55 310.63 C 456.92 316.71 452.52 321.85 450.24 328.09 C 448.06 334.02 445.94 339.97 443.43 345.77 C 440.60 338.45 438.76 330.80 436.27 323.36 C 434.55 318.92 432.02 314.80 430.84 310.13 C 434.37 311.89 437.49 314.30 440.51 316.80 C 440.95 306.07 441.05 295.34 441.14 284.61 Z" />
<path fill="#0a0a0a" opacity="1.00" d=" M 975.31 291.00 C 977.67 291.01 982.38 291.02 984.74 291.02 C 984.09 295.52 983.46 300.02 983.03 304.55 C 985.87 304.69 988.73 304.83 991.61 304.97 C 990.41 299.81 988.33 294.94 986.95 289.85 C 992.91 290.39 995.55 295.72 999.52 299.15 C 1003.52 301.20 1006.89 304.21 1009.48 307.87 C 1001.28 309.64 992.70 310.60 984.55 308.09 C 984.08 310.98 983.15 313.87 983.40 316.82 C 984.23 319.99 986.33 322.61 988.19 325.25 C 989.98 321.06 992.02 316.99 993.70 312.75 C 997.04 313.44 1000.37 314.40 1003.66 315.36 C 998.82 321.41 994.92 328.08 990.41 334.35 C 992.73 338.33 995.87 341.73 999.66 344.35 C 1002.09 340.41 1004.36 336.08 1008.82 334.03 C 1009.04 339.64 1009.02 345.26 1008.74 350.87 C 1008.31 352.78 1006.21 354.00 1004.35 353.24 C 996.29 353.35 991.78 346.15 985.78 342.13 C 980.74 343.15 977.21 347.50 972.27 348.80 C 969.47 349.40 966.93 350.01 964.16 350.47 C 964.43 348.44 964.70 346.41 964.96 344.39 C 964.14 343.35 963.33 342.31 962.54 341.27 C 953.83 340.38 950.77 348.96 946.15 354.28 C 945.42 352.00 944.43 349.61 943.86 347.34 C 952.71 340.45 953.23 328.26 953.85 318.01 C 954.19 312.53 953.12 307.14 952.11 301.80 C 960.54 303.00 968.76 305.39 977.39 305.34 C 976.97 300.51 976.28 295.74 975.31 291.00 M 958.29 309.99 C 959.24 312.95 959.49 316.71 962.21 318.73 C 966.03 318.54 969.83 317.64 973.60 316.98 C 974.47 325.51 973.70 334.05 973.13 342.57 C 976.89 340.45 981.28 338.27 982.69 333.83 C 981.19 325.77 977.85 318.09 978.52 309.65 C 971.79 308.72 964.96 308.79 958.29 309.99 M 959.40 324.30 C 958.51 328.85 958.97 333.52 958.74 338.14 C 961.53 337.73 964.47 337.37 967.32 337.02 C 968.25 332.04 968.18 326.96 967.28 321.98 C 964.63 322.65 961.79 322.86 959.40 324.30 Z" />
<path fill="#0a0a0a" opacity="1.00" d=" M 153.00 350.00 L 158.00 350.00 C 158.30 391.94 157.38 433.90 158.49 475.83 C 163.09 472.35 168.30 466.71 174.67 469.42 C 168.58 477.38 160.55 483.87 155.84 492.87 C 149.07 485.29 139.85 480.16 134.52 471.27 C 140.39 469.27 145.58 473.28 150.57 475.74 C 151.19 459.80 150.67 443.84 151.64 427.93 C 153.39 401.99 153.04 375.98 153.00 350.00 Z" />
<path fill="#0a0a0a" opacity="1.00" d=" M 557.54 361.53 C 562.13 357.48 568.12 354.23 574.36 356.34 C 572.84 369.82 570.83 383.37 572.20 396.96 C 573.12 400.39 575.77 403.04 576.92 406.39 C 571.27 406.86 565.61 406.99 559.97 407.19 C 565.74 393.77 563.86 378.78 563.84 364.57 C 561.71 363.61 559.61 362.58 557.54 361.53 Z" />
<path fill="#0a0a0a" opacity="1.00" d=" M 362.15 355.50 C 366.15 356.27 370.09 357.38 374.00 358.50 C 372.69 362.94 369.72 366.47 366.79 369.91 C 375.42 369.81 384.13 370.51 392.75 369.64 C 396.36 369.39 399.36 367.10 402.84 366.34 C 405.00 367.65 406.98 369.27 409.02 370.78 C 405.40 384.91 410.51 400.73 402.66 413.73 C 400.15 417.62 396.43 422.08 391.11 420.80 C 386.98 419.15 383.60 416.06 380.29 413.17 C 385.29 411.76 392.96 413.70 395.81 407.99 C 398.37 397.66 398.73 386.90 399.33 376.31 C 390.17 376.01 381.05 375.28 371.92 374.63 C 367.66 373.46 363.73 375.27 360.01 376.95 C 368.30 384.39 379.84 378.85 389.45 381.96 C 383.52 389.27 387.79 399.11 383.44 407.11 C 379.09 405.79 374.68 404.69 370.36 403.28 C 367.27 407.31 362.91 412.30 357.30 409.69 C 358.96 400.22 359.12 390.55 358.83 380.97 C 353.24 384.02 349.60 389.78 343.33 391.73 C 346.06 384.79 350.91 379.08 354.68 372.73 C 358.01 367.39 359.78 361.29 362.15 355.50 M 367.02 385.69 C 367.02 389.77 367.02 393.85 367.05 397.95 C 369.62 398.65 372.17 399.58 374.86 399.79 C 378.66 396.98 379.21 391.99 380.00 387.72 C 375.75 386.64 371.34 386.24 367.02 385.69 Z" />
<path fill="#0a0a0a" opacity="1.00" d=" M 66.11 357.11 C 75.32 356.79 80.50 366.72 77.59 374.74 C 80.45 374.36 83.24 373.72 85.97 372.82 C 88.68 368.24 88.09 361.87 92.27 358.17 C 95.02 357.20 97.35 359.35 98.97 361.28 C 97.03 365.77 93.35 369.22 90.85 373.38 C 92.86 374.18 94.87 375.02 96.87 375.87 C 101.05 373.33 107.33 369.92 111.02 374.88 C 110.32 376.71 109.33 378.41 108.38 380.12 C 100.90 379.83 91.14 374.81 85.16 381.21 C 81.89 384.47 85.34 388.40 86.84 391.60 C 94.07 391.47 101.79 391.18 107.24 385.72 C 110.16 388.01 113.14 390.22 115.94 392.67 C 106.77 395.66 96.97 392.04 88.00 396.04 C 90.18 400.28 93.18 404.48 97.72 406.38 C 103.48 408.83 109.70 409.84 115.75 411.26 C 112.36 414.26 108.52 417.15 104.01 418.11 C 93.98 415.96 88.03 406.80 83.14 398.61 C 79.29 405.29 74.77 412.23 67.68 415.84 C 62.33 418.91 55.93 418.51 49.99 419.18 C 50.54 413.24 56.79 413.08 60.90 411.62 C 68.20 409.48 75.22 403.79 75.22 395.54 C 66.12 394.01 55.08 398.02 47.33 391.63 C 48.29 390.36 49.27 389.09 50.24 387.83 C 59.20 388.13 68.08 389.34 76.99 390.23 C 76.99 386.15 76.99 382.07 76.99 377.99 C 68.61 379.87 60.04 379.77 51.89 376.94 C 52.72 375.50 53.46 373.99 54.51 372.70 C 60.02 372.81 65.48 373.58 70.97 374.04 C 69.55 368.34 68.39 362.55 66.11 357.11 Z" />
<path fill="#0a0a0a" opacity="1.00" d=" M 206.05 359.96 C 219.34 360.36 232.62 359.60 245.84 358.41 C 248.54 360.21 250.82 362.55 253.09 364.87 C 246.15 368.01 239.12 371.11 233.22 376.05 C 233.90 379.57 234.73 383.12 235.82 386.55 C 242.23 385.23 249.08 384.18 254.25 379.82 C 257.25 381.58 260.23 383.37 263.11 385.33 C 261.62 386.74 260.21 388.29 258.41 389.32 C 249.61 390.43 240.72 390.03 231.88 390.09 C 232.55 398.22 233.79 406.42 233.51 414.57 C 231.56 416.73 228.83 418.15 226.01 418.78 C 221.53 416.89 218.17 412.90 215.43 408.99 C 218.93 408.53 222.48 408.14 226.01 407.76 C 225.97 402.55 225.94 397.36 225.91 392.17 C 225.19 391.52 224.47 390.88 223.76 390.25 C 214.17 389.99 204.56 390.13 195.01 389.26 C 195.78 387.54 196.46 385.77 197.49 384.19 C 206.33 383.97 215.07 385.76 223.88 385.86 C 226.67 382.36 225.58 377.27 226.82 373.22 C 230.53 372.22 233.43 369.84 235.21 366.54 C 225.92 366.03 216.55 366.56 207.30 365.57 C 204.90 364.58 205.82 361.91 206.05 359.96 Z" />
<path fill="#0a0a0a" opacity="1.00" d=" M 506.35 370.29 C 510.28 364.45 515.67 359.12 522.74 357.43 C 521.09 365.58 512.87 369.55 510.10 377.12 C 505.83 386.49 506.00 397.63 511.56 406.43 C 514.59 410.94 519.39 414.14 520.98 419.63 C 509.38 418.35 501.51 407.28 499.85 396.47 C 496.87 387.04 501.29 377.93 506.35 370.29 Z" />
<path fill="#0a0a0a" opacity="1.00" d=" M 722.14 359.61 C 729.25 361.59 733.86 368.13 738.39 373.53 C 745.91 384.66 743.06 399.78 734.71 409.62 C 730.34 414.83 725.90 421.02 718.36 421.52 C 719.75 414.07 727.06 410.53 730.14 404.08 C 732.59 399.59 731.86 394.32 732.25 389.41 C 733.76 380.41 729.46 370.24 720.70 366.72 C 721.04 364.30 721.48 361.95 722.14 359.61 Z" />
<path fill="#0a0a0a" opacity="1.00" d=" M 1046.95 370.97 C 1046.56 366.93 1047.51 363.00 1049.24 359.41 C 1050.12 359.70 1051.87 360.27 1052.75 360.56 C 1053.35 400.07 1052.77 439.59 1053.06 479.11 C 1058.00 475.44 1063.26 471.96 1069.65 471.54 C 1066.43 482.59 1056.78 489.79 1051.15 499.47 C 1042.73 493.43 1037.89 483.77 1028.98 478.33 C 1029.76 477.55 1030.55 476.77 1031.36 476.00 C 1036.50 477.21 1041.77 479.06 1047.11 477.94 C 1046.14 469.51 1045.22 461.00 1045.93 452.51 C 1048.12 425.38 1046.47 398.14 1046.95 370.97 Z" />
<path fill="#0a0a0a" opacity="1.00" d=" M 962.10 361.97 C 965.02 363.93 968.25 365.68 970.37 368.59 C 972.59 371.97 971.79 376.16 971.71 379.99 C 974.07 379.97 976.45 379.95 978.84 379.94 C 980.46 373.86 982.08 367.78 983.99 361.78 C 987.19 362.70 990.46 363.68 993.69 364.57 C 990.35 369.78 985.88 374.34 984.13 380.45 C 989.58 380.06 994.45 377.32 999.75 376.39 C 1002.00 377.69 1003.80 379.62 1005.71 381.36 C 997.51 384.45 988.43 383.48 979.94 385.10 C 977.45 388.32 977.28 392.48 976.39 396.30 C 983.36 395.65 990.86 396.75 997.41 393.62 C 1002.10 390.58 1006.52 394.98 1010.21 397.45 C 1002.00 402.67 991.58 400.39 982.43 401.65 C 984.03 409.53 992.49 411.73 998.99 414.13 C 1001.72 415.38 1004.76 415.16 1007.65 414.67 C 1008.01 416.05 1008.38 417.43 1008.61 418.86 C 1005.03 420.79 1000.99 421.86 996.99 422.41 C 992.68 421.71 989.17 418.64 985.65 416.25 C 980.82 412.83 979.27 406.82 976.59 401.87 C 972.88 414.96 959.86 423.36 946.93 425.35 C 946.90 416.81 956.41 419.38 960.40 414.49 C 963.51 411.01 966.70 407.61 969.99 404.30 C 968.88 403.05 967.87 401.71 966.52 400.73 C 959.83 399.92 952.96 401.87 946.34 400.55 C 943.20 399.43 944.85 396.06 945.22 393.71 C 953.28 394.89 961.35 395.69 969.48 396.44 C 970.00 392.29 970.54 388.08 969.95 383.91 C 962.47 383.91 955.00 383.92 947.55 383.89 C 948.22 381.93 948.94 379.99 949.72 378.08 C 954.79 379.04 959.87 379.59 965.03 380.21 C 963.64 375.22 963.46 369.50 959.29 365.87 C 960.22 364.57 961.16 363.27 962.10 361.97 Z" />
<path fill="#0a0a0a" opacity="1.00" d=" M 1092.91 363.94 C 1096.52 363.16 1101.01 360.55 1103.65 364.34 C 1108.28 368.50 1106.29 376.27 1099.77 376.84 C 1097.65 372.45 1095.71 367.95 1092.91 363.94 Z" />
<path fill="#0a0a0a" opacity="1.00" d=" M 1111.03 367.09 C 1123.12 364.87 1136.82 369.25 1147.62 361.87 C 1149.61 364.84 1152.31 367.85 1151.15 371.85 C 1149.80 388.88 1149.80 405.98 1149.99 423.06 C 1145.92 423.40 1141.29 426.04 1137.57 423.50 C 1134.79 421.81 1132.14 419.93 1129.51 418.05 C 1130.41 416.81 1131.34 415.59 1132.25 414.36 C 1135.46 415.05 1138.70 415.66 1141.96 416.29 C 1142.02 402.24 1142.03 388.20 1141.93 374.17 C 1141.19 373.54 1140.47 372.91 1139.76 372.28 C 1131.67 372.12 1123.56 372.28 1115.54 371.38 C 1113.75 370.27 1112.42 368.60 1111.03 367.09 Z" />
<path fill="#0a0a0a" opacity="1.00" d=" M 1472.89 361.51 C 1476.13 363.28 1479.34 365.13 1482.46 367.13 C 1480.90 370.68 1479.07 374.10 1477.47 377.63 C 1486.02 376.25 1494.67 377.08 1503.28 376.94 C 1506.54 376.94 1509.47 375.24 1512.37 373.94 C 1514.79 375.68 1518.82 377.12 1518.01 380.85 C 1515.57 393.48 1517.41 406.78 1513.08 419.04 C 1511.51 422.49 1510.04 426.81 1506.02 428.04 C 1499.08 431.31 1493.73 424.82 1489.08 420.78 C 1493.42 420.45 1497.78 420.15 1502.17 419.88 C 1507.81 408.94 1508.82 396.24 1506.40 384.29 C 1494.09 384.78 1481.68 381.01 1469.52 383.93 C 1471.17 385.98 1472.85 388.02 1474.46 390.13 C 1480.43 390.31 1487.15 390.77 1491.65 386.09 C 1493.33 387.89 1496.20 389.36 1496.00 392.20 C 1495.69 396.87 1494.74 401.53 1495.16 406.23 C 1495.65 409.95 1492.52 412.56 1490.08 414.81 C 1486.99 413.02 1483.68 411.30 1480.08 410.97 C 1476.49 412.79 1474.27 416.44 1470.78 418.40 C 1469.09 418.41 1467.47 417.94 1465.86 417.62 C 1467.09 408.66 1468.09 399.59 1467.50 390.55 C 1462.78 393.62 1457.97 396.58 1452.92 399.05 C 1453.97 393.81 1456.86 389.24 1460.15 385.12 C 1466.04 378.22 1467.75 368.91 1472.89 361.51 M 1477.09 392.85 C 1472.70 398.44 1475.51 404.45 1478.98 409.32 C 1481.04 407.87 1484.16 407.02 1486.06 405.06 C 1489.54 402.57 1486.98 397.23 1488.25 393.87 C 1484.53 393.19 1480.81 392.85 1477.09 392.85 Z" />
<path fill="#0a0a0a" opacity="1.00" d=" M 1235.16 390.54 C 1239.31 381.63 1242.62 372.39 1246.56 363.40 C 1249.52 365.16 1252.50 366.90 1255.40 368.77 C 1252.08 374.14 1246.12 377.79 1245.01 384.41 C 1248.75 383.58 1251.48 380.89 1253.64 377.87 C 1255.62 379.36 1257.58 380.88 1259.57 382.37 C 1262.10 377.86 1260.78 372.78 1260.06 367.98 C 1269.32 369.15 1278.83 370.81 1287.99 368.07 C 1288.94 368.85 1289.89 369.64 1290.87 370.43 C 1288.97 385.18 1288.62 400.06 1289.14 414.91 C 1294.32 416.04 1298.10 419.77 1301.52 423.52 C 1300.50 424.65 1299.50 425.78 1298.53 426.92 C 1284.64 427.13 1270.81 425.23 1256.95 426.73 C 1253.14 427.27 1250.52 423.65 1248.52 421.07 C 1252.03 420.47 1256.05 420.07 1259.70 419.54 C 1259.45 417.18 1259.23 414.83 1259.02 412.49 C 1251.97 415.91 1245.00 419.48 1237.93 422.87 C 1236.34 420.75 1234.77 418.63 1233.23 416.51 C 1240.16 411.63 1249.02 411.72 1256.99 409.87 C 1260.29 409.88 1260.26 406.62 1260.28 403.73 C 1252.57 402.34 1245.44 405.99 1237.93 406.73 C 1234.78 407.97 1234.90 402.43 1233.35 401.30 C 1238.11 398.91 1242.34 395.66 1246.25 392.07 C 1242.48 391.51 1238.88 391.02 1235.16 390.54 M 1267.03 375.41 C 1267.02 378.05 1267.01 383.34 1267.00 385.99 C 1271.24 386.04 1275.51 386.10 1279.80 386.17 C 1280.34 383.55 1280.31 380.78 1280.73 378.17 C 1277.42 374.29 1271.30 376.60 1267.03 375.41 M 1246.27 399.15 C 1250.61 399.63 1254.91 399.93 1259.33 400.34 C 1261.39 395.56 1261.75 390.32 1260.15 385.31 C 1253.67 387.68 1248.23 392.35 1246.27 399.15 M 1266.92 391.36 C 1266.94 394.35 1266.96 397.34 1267.01 400.33 C 1271.67 400.95 1276.39 400.88 1281.08 400.39 C 1280.94 397.29 1280.65 394.16 1280.60 391.09 C 1276.01 390.82 1271.45 390.54 1266.92 391.36 M 1270.33 405.17 C 1265.25 408.26 1267.44 415.18 1266.51 420.00 C 1271.34 419.97 1276.11 419.98 1280.99 420.01 C 1281.00 415.88 1281.04 411.76 1281.11 407.65 C 1277.63 406.42 1274.06 405.20 1270.33 405.17 Z" />
<path fill="#0a0a0a" opacity="1.00" d=" M 1642.00 366.17 C 1646.17 365.14 1650.00 367.73 1653.79 369.04 C 1651.76 370.91 1654.60 376.58 1651.02 377.55 C 1643.90 380.04 1634.76 383.24 1634.16 392.18 C 1642.39 393.02 1650.24 390.95 1657.46 387.19 C 1660.12 390.67 1662.65 394.28 1663.86 398.58 C 1658.65 399.33 1653.47 400.77 1648.18 400.25 C 1643.95 399.87 1639.26 399.84 1635.92 402.93 C 1634.57 410.41 1635.06 418.07 1634.82 425.63 C 1627.23 427.22 1617.83 426.60 1613.88 418.81 C 1617.57 417.69 1621.20 416.62 1624.97 415.65 C 1624.85 410.20 1624.80 404.76 1624.73 399.32 C 1615.48 399.07 1606.24 398.99 1597.02 398.97 C 1596.96 397.48 1596.91 395.99 1596.89 394.50 C 1606.12 391.77 1615.80 393.99 1625.24 394.08 C 1626.01 389.78 1625.92 385.39 1625.51 381.05 C 1627.70 379.85 1630.24 378.58 1632.25 376.94 C 1623.13 375.02 1612.00 379.02 1604.26 372.55 C 1605.52 371.10 1606.83 369.66 1608.14 368.22 C 1619.41 368.03 1630.87 368.43 1642.00 366.17 Z" />
<path fill="#0a0a0a" opacity="1.00" d=" M 531.50 374.55 C 534.93 372.39 538.90 370.73 542.97 370.46 C 547.77 371.09 552.17 373.39 556.83 374.64 C 556.24 377.80 555.22 384.99 550.26 383.82 C 547.02 381.81 545.09 378.19 541.60 376.54 C 538.97 376.09 536.41 377.37 533.88 377.90 C 531.75 384.98 534.03 391.84 536.32 398.48 C 538.89 398.17 544.04 397.55 546.61 397.24 C 550.02 395.51 552.82 392.79 556.25 391.06 C 556.21 395.90 555.55 402.20 550.53 404.61 C 541.02 412.32 521.31 402.44 525.13 389.67 C 525.79 384.22 527.26 378.35 531.50 374.55 Z" />
<path fill="#0a0a0a" opacity="1.00" d=" M 583.97 373.00 C 591.21 368.28 601.69 368.77 608.13 374.70 C 608.05 382.38 608.01 390.06 608.02 397.75 C 609.77 398.14 613.27 398.93 615.02 399.33 C 613.52 402.82 610.82 406.08 606.86 406.66 C 603.68 406.56 600.90 404.73 598.05 403.51 C 593.21 405.26 585.04 410.34 582.01 403.95 C 580.10 399.99 578.37 394.38 581.84 390.88 C 585.80 386.09 592.47 385.73 597.94 383.64 C 597.89 380.72 597.83 377.81 597.76 374.90 C 592.32 376.01 589.47 380.85 585.96 384.54 C 582.93 381.83 579.46 375.72 583.97 373.00 M 591.04 389.80 C 590.94 393.41 591.14 397.02 591.45 400.62 C 595.77 398.40 600.77 395.95 601.11 390.24 C 597.75 390.07 594.39 389.93 591.04 389.80 Z" />
<path fill="#0a0a0a" opacity="1.00" d=" M 660.49 372.49 C 665.87 368.56 673.20 370.69 679.12 371.86 C 678.90 375.94 678.66 380.02 678.39 384.11 C 674.01 379.94 668.47 377.72 662.35 377.77 C 665.39 384.51 672.90 386.44 678.11 390.95 C 681.19 394.38 681.94 399.82 680.09 404.02 C 673.17 408.40 664.42 408.65 656.58 407.07 C 657.02 402.70 657.06 398.28 657.98 393.98 C 659.94 396.32 661.39 399.11 663.70 401.15 C 666.30 401.36 671.49 401.79 674.09 402.00 C 670.59 394.39 663.00 390.72 656.09 386.89 C 656.24 381.92 656.68 376.16 660.49 372.49 Z" />
<path fill="#0a0a0a" opacity="1.00" d=" M 615.29 372.28 C 618.13 372.26 623.82 372.22 626.66 372.20 C 627.34 372.96 628.03 373.73 628.73 374.50 C 629.35 382.70 624.82 392.46 630.24 399.77 C 633.25 404.66 639.10 399.09 642.44 397.25 C 642.32 391.91 642.01 386.58 641.51 381.28 C 640.21 378.80 638.03 376.94 636.16 374.92 C 636.94 373.83 637.72 372.74 638.52 371.67 C 642.07 372.02 645.64 372.66 649.12 373.53 C 649.25 381.24 646.50 389.30 649.55 396.78 C 650.67 400.21 652.19 403.52 653.47 406.91 C 643.73 405.21 633.96 406.47 624.22 406.75 C 618.29 399.01 620.81 387.94 619.05 378.89 C 617.69 376.76 616.46 374.47 615.29 372.28 Z" />
<path fill="#0a0a0a" opacity="1.00" d=" M 685.63 380.69 C 688.77 373.66 698.02 371.97 704.89 372.82 C 713.03 373.00 719.11 383.26 714.63 390.18 C 707.66 389.30 700.62 388.20 693.66 389.88 C 694.18 395.02 698.54 399.77 703.79 399.67 C 707.48 398.46 709.84 395.23 712.62 392.74 C 714.44 392.75 716.20 393.28 717.99 393.61 C 717.05 401.23 710.80 406.56 703.82 408.60 C 697.47 408.57 691.13 405.73 686.33 401.68 C 682.54 395.49 682.12 387.14 685.63 380.69 M 694.26 381.11 C 697.47 381.27 700.44 380.94 703.74 380.89 C 700.63 380.78 697.27 380.90 694.26 381.11 Z" />
<path fill="#0a0a0a" opacity="1.00" d=" M 1112.51 378.61 C 1120.27 377.98 1128.57 378.54 1135.39 374.06 C 1137.30 376.30 1139.15 378.59 1140.83 381.02 C 1131.57 384.41 1121.15 384.09 1111.79 381.26 C 1111.97 380.60 1112.33 379.27 1112.51 378.61 Z" />
<path fill="#0a0a0a" opacity="1.00" d=" M 1089.02 380.40 C 1093.95 379.97 1098.87 379.18 1103.74 378.24 C 1104.44 378.90 1105.16 379.57 1105.90 380.24 C 1104.96 389.32 1104.22 398.42 1104.08 407.56 C 1106.86 407.74 1109.66 407.94 1112.49 408.14 C 1113.88 400.82 1113.18 392.97 1116.34 386.10 C 1122.04 387.16 1127.88 387.76 1133.66 386.78 C 1134.28 387.28 1134.92 387.78 1135.57 388.28 C 1134.46 396.05 1134.96 403.92 1134.31 411.72 C 1130.31 410.64 1126.62 408.91 1123.00 407.00 C 1122.62 408.22 1121.86 410.66 1121.48 411.88 C 1112.13 412.63 1105.02 418.74 1097.51 423.56 C 1093.59 411.50 1098.02 398.79 1097.06 386.46 C 1094.15 385.68 1091.76 385.03 1089.02 384.18 C 1089.01 382.91 1089.01 381.65 1089.02 380.40 M 1121.77 393.84 C 1122.46 396.96 1123.50 400.08 1124.75 403.05 C 1126.23 400.12 1127.74 397.14 1128.28 393.87 C 1126.18 393.03 1123.86 393.04 1121.77 393.84 Z" />
<path fill="#0a0a0a" opacity="1.00" d=" M 1417.38 378.57 C 1420.56 378.73 1424.35 377.56 1426.90 380.05 C 1432.71 385.04 1438.94 389.55 1444.30 395.06 C 1439.84 399.38 1436.40 404.86 1430.97 408.07 C 1427.89 410.07 1424.59 411.69 1421.26 413.21 C 1422.12 409.06 1424.04 405.26 1425.72 401.40 C 1406.53 400.56 1387.32 401.65 1368.16 400.39 C 1348.52 398.09 1328.71 399.16 1309.00 399.01 L 1309.00 394.00 C 1337.88 393.57 1366.85 395.10 1395.69 392.84 C 1405.94 391.78 1416.43 395.04 1426.54 392.14 C 1423.12 387.86 1419.81 383.49 1417.38 378.57 Z" />
<path fill="#0a0a0a" opacity="1.00" d=" M 52.66 430.23 C 69.89 430.17 87.17 429.67 104.11 426.31 C 108.59 425.63 110.06 431.67 112.19 434.29 C 98.83 431.52 84.96 437.04 76.16 447.12 C 79.01 447.28 81.88 447.87 84.73 447.51 C 88.00 445.92 90.43 443.03 93.52 441.16 C 94.87 442.40 97.58 444.89 98.93 446.14 C 98.94 446.81 98.95 448.17 98.96 448.85 C 97.65 448.94 96.35 449.04 95.04 449.15 C 95.05 450.32 95.06 451.50 95.08 452.69 C 102.58 454.18 108.37 459.37 111.79 466.00 C 109.84 467.50 108.03 469.25 105.80 470.33 C 101.86 469.70 98.14 468.00 94.19 467.34 C 97.81 471.30 103.29 472.47 107.44 475.71 C 110.15 478.06 112.03 481.16 113.90 484.17 C 110.69 486.39 107.26 488.25 103.57 489.55 C 101.50 483.13 97.85 477.18 91.70 474.01 C 91.40 471.69 91.11 469.37 90.83 467.06 C 89.57 467.03 88.31 467.00 87.05 466.97 C 87.01 474.24 86.98 481.52 86.94 488.80 C 84.08 489.48 81.23 490.20 78.38 490.94 C 75.05 487.57 71.69 484.24 68.29 480.95 C 63.17 485.08 57.95 489.22 51.93 491.98 C 50.61 488.86 49.55 485.60 48.60 482.36 C 53.93 479.59 60.06 477.33 63.48 472.05 C 60.32 469.79 56.61 468.52 53.16 466.81 C 53.12 465.21 53.03 462.01 52.99 460.40 C 60.86 460.09 69.95 460.93 75.69 454.46 C 69.62 453.54 63.43 451.91 59.72 446.68 C 62.60 445.21 65.80 444.49 69.03 444.89 C 72.08 442.00 75.02 438.99 77.60 435.67 C 70.09 436.47 62.56 436.89 55.02 437.22 C 54.22 434.93 53.41 432.48 52.66 430.23 M 78.03 461.12 C 83.61 462.02 89.28 461.57 94.90 461.47 C 93.98 458.48 93.09 455.34 92.32 452.37 C 86.98 454.18 81.98 457.06 78.03 461.12 M 70.80 467.14 C 74.16 470.23 76.99 474.30 75.50 479.10 C 76.64 478.68 77.77 478.25 78.91 477.84 C 78.94 475.13 79.00 469.70 79.03 466.99 C 76.28 467.03 73.54 467.08 70.80 467.14 Z" />
<path fill="#0a0a0a" opacity="1.00" d=" M 441.55 430.43 C 443.10 427.27 446.51 428.70 449.08 429.47 C 448.96 440.36 449.03 451.26 449.08 462.17 C 451.51 459.58 453.69 456.72 456.37 454.38 C 458.27 454.69 459.98 455.63 461.74 456.38 C 455.97 465.92 449.52 475.03 443.85 484.63 C 438.74 475.54 436.62 465.09 430.67 456.40 C 431.73 455.56 432.81 454.73 433.89 453.91 C 436.01 455.98 438.16 458.02 440.38 460.00 C 441.25 450.19 439.91 440.13 441.55 430.43 Z" />
<path fill="#0a0a0a" opacity="1.00" d=" M 949.82 434.22 C 966.67 436.87 983.73 433.68 1000.56 432.14 C 1002.13 434.03 1003.76 435.89 1005.38 437.76 C 1004.42 438.72 1003.47 439.69 1002.53 440.67 C 996.53 440.30 990.32 438.28 984.38 439.43 C 980.07 443.25 976.16 447.65 970.88 450.22 C 971.09 451.55 971.32 452.90 971.56 454.24 C 978.48 455.02 982.34 448.01 988.96 448.00 C 991.10 448.57 992.59 450.39 994.29 451.74 C 986.95 456.96 976.16 458.01 971.94 466.90 C 977.62 467.10 983.38 467.40 988.97 466.11 C 988.40 463.11 987.55 459.97 987.16 457.00 C 992.98 458.64 999.31 461.02 1003.24 465.84 C 1006.21 469.66 1003.13 474.25 1000.48 477.27 C 995.31 471.98 987.98 469.97 980.91 472.39 C 980.96 479.43 981.01 486.47 981.07 493.52 C 978.46 493.88 975.73 494.52 973.16 494.49 C 969.53 492.72 966.22 490.40 963.25 487.69 C 966.25 485.93 969.88 485.09 972.42 482.64 C 972.74 480.26 973.40 475.49 973.72 473.10 C 972.08 473.08 968.80 473.04 967.16 473.03 C 967.71 475.32 968.10 477.56 968.63 479.90 C 960.88 484.29 956.51 493.02 947.87 496.10 C 947.24 493.42 945.31 490.16 947.65 487.76 C 951.26 483.48 956.21 480.50 959.65 476.02 C 957.40 475.10 952.90 473.25 950.64 472.32 C 950.33 470.41 950.14 468.55 949.88 466.65 C 958.00 466.48 966.36 464.02 971.97 457.90 C 967.75 457.47 963.54 457.07 959.35 456.69 C 958.23 455.11 957.09 453.56 955.96 452.00 C 959.42 450.43 963.11 449.25 966.32 447.17 C 968.86 445.16 970.05 442.01 971.66 439.30 C 963.61 439.09 955.59 438.99 947.56 438.86 C 948.29 437.30 949.05 435.76 949.82 434.22 Z" />
<path fill="#0a0a0a" opacity="1.00" d=" M 984.94 476.89 C 985.91 475.96 986.90 475.03 987.90 474.11 C 992.38 475.95 997.20 477.17 1001.35 479.76 C 1004.29 482.65 1005.61 486.75 1007.57 490.31 C 1005.09 491.85 1002.62 493.49 999.86 494.48 C 993.20 490.44 990.72 482.00 984.94 476.89 Z" />
<path fill="#0a0a0a" opacity="1.00" d=" M 215.18 497.92 C 218.51 499.41 221.92 501.20 224.20 504.14 C 222.90 507.62 220.00 510.12 217.68 512.92 C 228.97 513.10 240.27 513.00 251.53 512.08 C 255.84 510.29 259.17 513.30 262.32 515.53 C 253.39 528.37 261.97 545.83 254.56 559.38 C 252.60 564.58 246.05 564.33 241.67 566.08 C 238.18 563.12 234.17 560.87 230.84 557.74 C 236.57 555.00 246.01 557.41 248.43 550.29 C 251.08 540.08 252.03 529.42 249.95 519.00 C 237.82 518.98 225.69 518.98 213.56 519.12 C 214.34 521.17 215.18 523.20 216.03 525.23 C 222.56 524.96 229.13 524.73 235.58 523.49 C 236.81 524.74 238.05 525.99 239.31 527.23 C 235.68 534.54 237.28 542.49 238.05 550.22 C 231.64 549.56 225.27 548.59 218.87 547.93 C 220.34 556.73 212.59 553.36 208.00 552.54 C 209.96 542.57 211.48 532.51 211.89 522.35 C 207.75 525.79 204.03 529.67 200.80 533.96 C 199.35 536.20 196.36 535.43 194.12 535.76 C 195.30 529.93 199.29 525.43 203.09 521.10 C 209.08 514.53 211.22 505.68 215.18 497.92 M 219.45 530.35 C 219.06 530.53 218.27 530.90 217.88 531.08 L 217.98 535.99 C 215.46 543.12 226.81 546.04 229.82 540.65 C 229.77 536.57 232.25 526.71 224.01 529.95 L 219.45 530.35 Z" />
<path fill="#0a0a0a" opacity="1.00" d=" M 383.00 504.93 C 385.87 504.50 388.69 503.38 391.63 503.60 C 395.30 504.51 397.29 507.94 399.33 510.80 C 393.98 514.14 387.69 515.76 382.77 519.81 C 378.67 522.17 379.41 527.36 378.44 531.37 C 383.25 530.48 389.00 532.28 393.33 529.34 C 396.18 527.47 398.96 525.50 402.00 523.94 C 404.08 526.94 406.05 530.00 407.64 533.30 C 406.62 534.20 405.61 535.12 404.61 536.04 C 396.07 536.39 387.23 533.68 378.89 536.49 C 378.97 545.18 379.04 553.89 379.06 562.60 C 372.87 563.86 366.58 563.02 361.25 559.61 C 361.18 558.02 361.03 554.85 360.95 553.26 C 364.28 553.83 367.67 554.23 371.05 553.83 C 371.02 548.11 371.02 542.39 371.07 536.68 C 361.82 532.09 351.45 538.00 342.22 534.01 C 342.41 532.19 342.88 530.43 343.34 528.67 C 352.37 529.61 361.40 530.52 370.46 531.21 C 370.72 528.49 371.26 523.05 371.53 520.32 C 374.78 516.96 380.00 515.98 382.27 511.56 C 371.72 510.99 361.17 511.11 350.62 510.68 C 351.00 508.96 351.29 507.21 351.87 505.55 C 362.21 504.84 372.79 507.55 383.00 504.93 Z" />
<path fill="#0a0a0a" opacity="1.00" d=" M 495.91 539.50 C 494.06 523.51 505.82 510.27 518.20 502.05 C 519.15 508.92 512.45 511.53 509.52 516.43 C 503.33 523.70 502.89 534.15 504.69 543.12 C 506.34 551.43 512.88 556.97 518.47 562.71 C 517.32 563.79 516.19 564.89 515.07 565.99 C 504.33 561.46 498.42 550.32 495.91 539.50 Z" />
<path fill="#0a0a0a" opacity="1.00" d=" M 791.11 505.15 C 801.12 509.88 808.77 519.51 810.80 530.45 C 813.83 541.36 807.83 551.99 801.15 560.19 C 798.25 564.49 792.71 565.43 788.05 566.42 C 791.40 558.99 797.64 553.22 800.39 545.49 C 805.88 532.88 801.89 515.52 788.67 509.55 C 789.48 508.08 790.30 506.62 791.11 505.15 Z" />
<path fill="#0a0a0a" opacity="1.00" d=" M 625.23 522.49 C 628.68 516.78 632.60 511.31 637.34 506.60 C 637.85 509.56 637.99 512.53 637.97 515.54 C 639.81 517.57 641.65 519.60 643.49 521.70 C 641.95 522.21 638.87 523.24 637.33 523.75 C 636.84 530.71 637.05 537.70 637.22 544.69 C 640.11 544.34 643.10 544.07 646.01 543.72 C 645.22 545.05 643.65 547.71 642.86 549.04 C 640.43 554.39 634.28 550.65 630.03 550.17 C 630.00 541.17 629.97 532.18 629.99 523.20 C 628.40 522.96 626.81 522.72 625.23 522.49 Z" />
<path fill="#0a0a0a" opacity="1.00" d=" M 526.64 517.64 C 531.03 512.87 538.38 513.23 544.09 514.74 C 544.71 519.30 546.16 524.14 544.10 528.53 C 539.75 524.85 535.44 520.73 529.35 520.38 C 528.80 528.52 537.76 528.68 542.44 532.60 C 546.89 535.22 549.29 540.64 547.67 545.66 C 543.97 550.78 536.62 550.57 530.98 551.54 C 527.27 553.09 523.91 550.09 522.64 547.02 C 523.06 544.24 524.14 541.62 524.98 538.96 C 527.91 544.67 533.66 547.23 539.93 547.56 C 539.90 544.99 539.87 542.43 539.85 539.89 C 533.73 538.81 528.45 535.34 523.26 532.14 C 524.48 527.45 522.66 521.25 526.64 517.64 Z" />
<path fill="#0a0a0a" opacity="1.00" d=" M 560.64 517.80 C 565.90 517.71 573.86 514.04 577.58 519.48 C 581.57 522.55 581.69 527.60 582.55 532.13 C 574.65 530.50 566.59 530.28 558.87 532.94 C 559.48 539.36 565.12 544.38 571.51 544.16 C 575.54 542.83 578.48 539.60 581.53 536.81 C 582.98 539.69 585.07 543.36 582.19 546.12 C 575.89 552.83 565.34 552.38 557.21 549.69 C 545.68 542.62 547.73 522.13 560.64 517.80 M 561.25 525.81 C 563.64 526.83 565.97 528.41 568.64 528.51 C 570.17 527.78 571.52 526.72 572.92 525.76 C 570.00 525.77 564.17 525.80 561.25 525.81 Z" />
<path fill="#0a0a0a" opacity="1.00" d=" M 588.27 518.84 C 596.85 518.24 605.48 517.59 614.08 517.84 C 620.44 528.17 617.51 540.83 620.85 552.09 C 609.20 552.51 597.57 550.88 585.95 551.65 C 590.10 541.26 590.93 529.72 588.27 518.84 M 597.88 526.20 C 597.90 533.33 597.90 540.46 597.90 547.60 C 601.29 548.50 604.68 549.01 608.16 549.55 C 610.89 542.30 612.24 534.61 612.45 526.87 C 607.72 525.33 602.75 525.48 597.88 526.20 Z" />
<path fill="#0a0a0a" opacity="1.00" d=" M 653.42 522.36 C 657.10 517.31 663.87 516.28 669.68 517.29 C 675.00 520.23 678.63 525.65 679.70 531.63 C 672.92 533.52 661.46 528.08 657.27 535.83 C 658.62 541.65 664.47 544.13 669.58 545.81 C 672.80 542.65 676.02 539.46 679.44 536.51 C 682.03 542.29 677.72 547.98 672.92 550.87 C 664.72 554.43 654.70 551.52 650.36 543.60 C 649.95 536.57 648.09 528.08 653.42 522.36 M 661.21 522.97 C 660.28 524.16 659.35 525.35 658.45 526.55 C 661.21 527.79 663.96 528.70 666.90 529.58 C 666.88 528.15 666.87 526.73 666.86 525.31 C 664.96 524.54 663.09 523.75 661.21 522.97 Z" />
<path fill="#0a0a0a" opacity="1.00" d=" M 684.49 521.60 C 688.00 520.19 691.34 518.42 694.71 516.71 C 694.89 518.22 695.07 519.74 695.26 521.27 C 700.52 518.24 706.73 517.04 712.68 518.75 C 717.82 529.82 716.56 542.29 718.58 554.08 C 706.01 553.84 693.22 554.88 680.86 552.08 C 685.86 543.10 689.84 531.24 684.49 521.60 M 694.96 526.55 C 695.00 533.85 695.06 541.16 695.18 548.47 C 696.82 549.17 698.47 549.89 700.10 550.64 C 702.34 549.33 704.61 548.08 706.87 546.83 C 706.96 539.90 707.06 532.97 707.17 526.06 C 703.11 525.47 698.98 525.94 694.96 526.55 Z" />
<path fill="#0a0a0a" opacity="1.00" d=" M 733.01 518.04 C 738.82 517.00 746.80 517.09 750.71 522.30 C 750.47 525.11 750.12 528.01 749.46 530.78 C 745.12 528.54 741.56 524.86 736.96 523.21 C 732.86 523.96 727.00 526.58 728.92 532.03 C 728.09 536.67 729.87 542.66 734.78 544.23 C 741.88 547.27 746.92 540.06 752.72 537.61 C 755.36 533.42 755.58 527.85 758.95 523.96 C 763.32 518.13 772.80 514.95 778.69 520.36 C 785.64 524.19 783.73 532.90 785.12 539.54 C 787.97 546.58 780.50 552.59 774.19 553.14 C 769.32 553.22 762.99 553.65 759.49 549.54 C 757.32 547.10 755.93 544.11 754.15 541.40 C 751.08 545.45 748.93 550.52 744.34 553.14 C 740.73 553.50 733.52 554.21 729.92 554.56 C 726.73 550.84 723.59 547.03 721.30 542.68 C 719.64 533.52 723.62 521.49 733.01 518.04 M 764.98 526.78 C 765.02 527.46 765.10 528.83 765.14 529.51 C 767.24 528.90 769.34 528.27 771.42 527.57 C 769.26 527.28 767.12 527.03 764.98 526.78 M 765.37 534.07 C 765.23 535.87 764.96 539.47 764.82 541.27 C 768.44 542.96 772.14 544.42 775.95 545.65 C 777.69 543.10 779.68 540.71 781.16 537.99 C 778.30 531.92 770.57 534.57 765.37 534.07 Z" />
<path fill="#0a0a0a" opacity="1.00" d=" M 1344.51 522.29 C 1354.49 527.02 1363.09 534.25 1371.75 541.02 C 1364.17 546.88 1355.82 551.71 1348.90 558.40 C 1349.88 554.36 1351.29 550.44 1352.92 546.62 C 1313.88 545.24 1274.79 546.32 1235.73 546.04 C 1235.13 543.81 1233.85 541.24 1233.59 539.10 C 1271.52 539.32 1309.49 538.05 1347.40 539.90 C 1349.57 539.86 1351.60 538.92 1353.59 538.07 C 1350.50 532.81 1345.36 528.71 1344.51 522.29 Z" />
<path fill="#0a0a0a" opacity="1.00" d=" M 1185.56 578.91 C 1188.33 578.51 1191.35 577.38 1194.04 578.82 C 1198.20 580.39 1199.56 585.16 1200.93 588.91 C 1207.07 588.84 1213.31 587.14 1219.46 587.79 C 1222.92 589.87 1225.00 593.52 1227.03 596.88 C 1221.61 598.52 1216.37 600.62 1210.92 602.14 C 1209.58 599.50 1209.00 597.27 1207.68 594.82 C 1201.59 602.47 1202.40 612.65 1199.87 621.64 C 1206.50 617.75 1214.39 616.91 1221.59 614.44 C 1222.65 616.70 1223.53 619.03 1224.24 621.43 C 1217.28 621.80 1210.38 621.98 1203.46 622.40 C 1209.76 626.99 1218.87 629.32 1221.56 637.42 C 1223.26 640.44 1218.84 645.73 1215.91 643.13 C 1210.15 639.30 1207.23 632.37 1201.23 628.78 C 1196.69 625.97 1193.31 629.60 1190.40 632.40 C 1183.44 639.49 1173.53 642.71 1164.01 644.52 C 1164.07 641.95 1164.17 639.39 1164.32 636.85 C 1173.78 635.85 1185.93 632.72 1188.90 622.28 C 1179.92 622.06 1170.96 621.98 1162.00 621.95 L 1162.15 617.89 C 1166.79 616.87 1171.89 616.76 1176.08 614.20 C 1174.27 611.06 1172.61 607.72 1171.55 604.27 C 1178.99 605.45 1182.92 611.77 1186.55 617.71 C 1191.73 620.07 1193.17 614.83 1194.55 611.44 C 1195.88 606.42 1195.82 601.15 1196.29 596.01 C 1193.55 596.00 1190.84 596.00 1188.15 596.02 C 1188.93 598.99 1189.49 601.91 1190.25 604.93 C 1189.11 606.02 1187.99 607.12 1186.90 608.23 C 1183.95 603.68 1180.65 599.39 1176.85 595.52 C 1174.96 598.43 1173.20 601.42 1171.47 604.43 C 1167.93 603.87 1164.53 603.11 1161.14 602.06 C 1163.66 596.82 1166.96 592.02 1170.02 587.08 C 1176.35 590.75 1184.03 591.19 1190.73 588.04 C 1189.16 584.91 1187.31 581.94 1185.56 578.91 Z" />
<path fill="#0a0a0a" opacity="1.00" d=" M 1416.88 582.44 C 1422.24 581.78 1427.33 579.56 1432.75 579.32 C 1435.83 581.12 1438.17 583.92 1440.61 586.50 C 1439.54 587.60 1438.52 588.71 1437.51 589.83 C 1432.98 589.53 1428.50 589.18 1423.98 588.97 C 1415.23 586.69 1409.42 595.06 1403.44 599.92 C 1406.06 601.35 1408.65 602.54 1411.50 603.57 C 1413.96 600.68 1416.52 597.85 1418.97 594.95 C 1419.73 594.96 1421.24 594.99 1421.99 595.00 C 1423.50 597.05 1425.02 599.11 1426.56 601.18 C 1419.80 605.85 1411.55 608.25 1405.62 614.09 C 1411.71 614.53 1417.85 614.85 1424.00 615.13 C 1422.97 612.30 1421.98 609.46 1421.37 606.51 C 1428.83 607.84 1435.27 612.06 1440.26 617.68 C 1439.20 619.87 1438.20 622.09 1437.27 624.34 C 1429.73 621.91 1421.97 620.06 1414.06 619.51 C 1413.99 627.23 1413.97 634.97 1413.93 642.71 C 1407.85 642.61 1401.36 640.66 1398.04 635.21 C 1401.61 634.30 1405.48 633.50 1409.05 632.29 C 1408.98 627.94 1408.93 623.61 1408.88 619.28 C 1405.57 620.06 1402.51 621.07 1399.41 622.34 C 1400.98 623.93 1402.58 625.53 1404.18 627.12 C 1396.00 632.03 1390.01 640.67 1380.04 642.26 C 1383.20 634.58 1391.87 630.83 1393.88 622.45 C 1390.89 622.24 1387.92 622.04 1384.98 621.86 C 1385.00 620.31 1385.04 617.22 1385.06 615.68 C 1392.71 615.63 1399.88 612.46 1405.55 607.40 C 1400.00 605.98 1392.45 607.55 1389.85 601.09 C 1396.04 599.60 1401.25 595.77 1405.24 590.93 C 1397.57 589.56 1388.56 592.19 1381.98 587.05 C 1393.43 584.41 1405.39 585.06 1416.88 582.44 Z" />
<path fill="#0a0a0a" opacity="1.00" d=" M 1272.95 584.45 C 1278.05 583.91 1283.00 582.26 1287.98 580.99 C 1289.52 582.38 1291.09 583.76 1292.66 585.15 C 1291.00 595.88 1290.91 606.76 1290.59 617.60 C 1289.67 618.48 1288.76 619.37 1287.87 620.27 C 1286.28 619.42 1284.71 618.57 1283.14 617.74 C 1283.02 609.10 1282.98 600.46 1282.99 591.84 C 1278.20 588.70 1272.64 588.41 1267.18 589.92 C 1267.50 599.50 1263.42 609.79 1268.38 618.80 C 1270.33 611.15 1270.03 603.23 1269.73 595.44 C 1271.29 591.55 1275.99 594.18 1279.17 594.26 C 1277.54 600.79 1276.16 607.39 1274.78 613.98 C 1276.30 614.32 1279.33 615.00 1280.85 615.34 C 1280.24 621.53 1278.98 627.93 1280.87 634.04 C 1283.45 633.97 1286.04 633.91 1288.66 633.86 C 1290.85 630.58 1293.24 627.41 1296.36 624.94 C 1296.62 630.62 1296.87 636.31 1297.12 642.00 C 1290.68 641.98 1284.30 641.99 1277.90 642.02 C 1276.08 637.24 1274.90 632.23 1272.82 627.56 C 1265.10 634.33 1256.73 641.55 1246.03 642.52 C 1246.06 641.18 1246.11 639.84 1246.18 638.51 C 1251.90 636.54 1257.82 634.48 1262.41 630.36 C 1265.05 627.72 1266.17 624.01 1267.57 620.64 C 1264.50 619.62 1262.48 619.10 1259.73 618.15 C 1260.47 615.87 1261.29 613.63 1262.06 611.36 C 1260.92 610.27 1259.81 609.18 1258.71 608.09 C 1255.50 608.07 1252.55 608.17 1249.41 608.22 C 1249.14 611.44 1249.09 614.77 1248.91 618.02 C 1251.62 617.80 1254.89 617.84 1257.74 617.67 C 1253.04 625.01 1244.46 627.92 1236.70 630.79 C 1235.51 628.19 1234.47 625.42 1233.64 622.73 C 1237.30 622.04 1241.09 621.30 1244.69 620.21 C 1243.59 617.04 1244.82 613.08 1242.77 610.20 C 1240.07 607.96 1236.26 607.86 1233.09 606.67 C 1236.17 603.87 1240.33 603.11 1244.15 601.75 C 1243.20 598.74 1242.20 595.67 1241.38 592.67 C 1238.45 592.14 1235.76 591.76 1232.93 591.23 C 1232.52 589.96 1232.13 588.69 1231.77 587.44 C 1238.99 586.89 1246.52 587.45 1253.49 584.98 C 1259.80 583.01 1266.50 584.35 1272.95 584.45 M 1248.89 592.84 C 1249.07 596.18 1249.14 599.45 1249.41 602.83 C 1252.90 602.84 1256.26 602.71 1259.81 602.68 C 1259.65 598.28 1259.45 593.89 1259.27 589.52 C 1255.73 590.48 1252.33 591.64 1248.89 592.84 M 1273.17 622.17 C 1272.63 623.79 1273.19 624.34 1274.83 623.83 C 1275.34 622.20 1274.78 621.64 1273.17 622.17 Z" />
<path fill="#0a0a0a" opacity="1.00" d=" M 1321.21 580.31 C 1324.96 582.23 1328.97 583.97 1332.02 586.95 C 1334.39 591.15 1334.02 596.09 1334.74 600.71 C 1337.17 599.37 1340.36 598.65 1341.90 596.14 C 1343.63 590.89 1344.56 585.42 1345.65 580.02 C 1349.13 581.08 1352.80 582.77 1354.84 585.96 C 1352.46 590.63 1349.02 594.65 1346.39 599.17 C 1351.89 599.28 1357.74 593.53 1363.08 596.80 C 1365.85 598.06 1366.62 601.29 1368.35 603.52 C 1359.22 603.89 1350.10 604.01 1340.99 604.07 C 1341.00 606.93 1341.03 612.66 1341.04 615.53 C 1347.03 614.74 1353.28 614.44 1359.02 612.26 C 1363.38 610.21 1367.06 614.58 1370.34 616.85 C 1369.49 617.85 1368.66 618.85 1367.84 619.86 C 1359.86 619.96 1351.93 619.99 1343.99 620.27 C 1348.84 630.83 1362.07 632.45 1371.95 635.48 C 1367.61 640.30 1360.58 642.71 1354.24 641.72 C 1347.92 638.00 1345.19 630.66 1341.88 624.52 C 1337.98 622.70 1337.02 626.23 1335.60 628.57 C 1332.79 633.75 1328.74 638.86 1322.96 640.79 C 1318.10 642.28 1313.08 643.21 1308.08 643.98 C 1308.84 638.78 1314.00 637.87 1317.59 635.42 C 1322.54 632.05 1329.16 629.22 1330.79 622.82 C 1331.92 620.91 1329.92 619.62 1328.54 618.70 C 1320.18 617.96 1310.61 622.92 1303.52 616.76 C 1305.24 615.64 1306.85 613.69 1309.12 613.90 C 1316.92 614.28 1324.75 614.79 1332.61 614.90 C 1332.73 610.62 1332.90 606.39 1333.05 602.14 C 1324.64 602.40 1315.21 605.60 1307.47 600.96 C 1311.98 595.49 1319.32 599.02 1325.28 598.06 C 1324.58 591.98 1322.93 586.14 1321.21 580.31 Z" />
<path fill="#0a0a0a" opacity="1.00" d=" M 1418.45 623.78 C 1427.03 623.41 1439.80 626.45 1439.99 637.07 C 1440.78 640.76 1435.60 641.41 1433.75 643.12 C 1428.74 636.60 1423.58 630.20 1418.45 623.78 Z" />
<path fill="#0a0a0a" opacity="1.00" d=" M 275.27 714.12 C 287.01 715.61 298.85 716.02 310.66 716.83 C 315.15 717.48 319.65 716.85 324.10 716.20 C 327.89 723.35 324.85 731.39 325.18 739.00 C 324.24 749.69 326.65 760.45 325.23 771.10 C 309.53 765.78 291.37 764.10 276.12 771.46 C 276.50 752.33 275.48 733.21 275.27 714.12 M 285.86 722.99 C 285.45 727.04 285.01 731.07 284.77 735.15 C 288.11 731.98 290.05 727.68 290.94 723.20 C 289.24 723.12 287.55 723.05 285.86 722.99 M 304.18 723.32 C 302.80 724.18 304.25 726.55 305.61 725.47 C 307.01 724.59 305.54 722.24 304.18 723.32 M 312.00 734.25 C 310.38 735.93 308.81 737.65 307.30 739.43 C 310.79 740.28 314.30 741.29 317.84 742.02 C 317.40 735.31 318.81 727.75 314.67 721.92 C 311.86 725.44 311.85 729.97 312.00 734.25 M 299.99 730.97 C 300.00 731.73 300.01 733.25 300.01 734.02 C 301.66 734.00 303.32 734.00 304.99 734.00 C 305.39 733.02 305.79 732.04 306.20 731.08 C 304.13 731.03 302.06 731.00 299.99 730.97 M 284.12 739.39 C 284.18 741.19 284.29 744.78 284.35 746.58 C 289.37 743.67 295.57 740.99 296.81 734.64 C 292.44 735.83 288.33 737.74 284.12 739.39 M 301.90 742.65 C 303.56 746.02 305.36 749.50 305.03 753.39 C 309.08 756.30 312.78 759.72 317.35 761.84 C 318.16 757.20 318.97 752.57 319.99 747.98 C 313.91 746.35 307.98 744.28 301.90 742.65 M 285.00 751.92 C 284.58 754.19 283.76 758.72 283.35 760.99 C 286.14 760.91 288.93 760.84 291.73 760.77 C 292.30 759.88 292.90 759.02 293.49 758.16 C 291.97 756.40 290.55 754.31 289.22 752.49 C 292.03 752.12 294.84 751.78 297.66 751.47 C 297.73 749.83 297.88 746.57 297.96 744.93 C 293.63 747.24 288.93 748.94 285.00 751.92 Z" />
<path fill="#0a0a0a" opacity="1.00" d=" M 1189.69 738.00 C 1189.83 732.03 1187.27 725.78 1189.81 720.04 C 1197.71 724.61 1207.16 724.16 1216.00 724.20 C 1222.64 723.97 1229.47 724.08 1236.00 722.50 C 1236.97 725.08 1238.72 727.63 1238.31 730.53 C 1237.49 739.32 1236.59 748.15 1237.42 756.99 C 1237.60 764.35 1239.81 771.93 1237.56 779.15 C 1221.72 772.46 1204.13 774.48 1187.78 777.90 C 1188.16 764.58 1190.98 751.35 1189.69 738.00 M 1197.86 730.95 C 1198.07 733.84 1198.49 739.61 1198.70 742.50 C 1200.35 738.85 1201.69 735.06 1202.72 731.19 C 1201.09 731.10 1199.47 731.02 1197.86 730.95 M 1216.18 731.32 C 1214.79 732.18 1216.24 734.55 1217.61 733.47 C 1218.99 732.59 1217.52 730.24 1216.18 731.32 M 1227.80 730.27 C 1227.50 736.53 1224.48 741.95 1221.74 747.38 C 1224.22 748.29 1226.68 749.29 1229.14 750.32 C 1232.78 743.95 1231.83 736.26 1227.80 730.27 M 1213.73 736.85 C 1214.04 738.88 1214.36 740.91 1214.74 742.95 C 1216.24 741.21 1217.62 739.37 1218.94 737.48 C 1217.18 737.25 1215.45 737.05 1213.73 736.85 M 1194.93 752.48 C 1200.90 751.91 1207.80 749.40 1208.83 742.65 C 1203.24 744.30 1195.45 744.85 1194.93 752.48 M 1213.65 748.72 C 1217.45 756.26 1221.59 763.64 1227.65 769.66 C 1229.96 764.82 1230.82 759.47 1231.87 754.26 C 1225.48 753.68 1219.69 750.62 1213.65 748.72 M 1197.97 758.25 C 1194.74 759.50 1196.77 764.38 1195.41 766.58 C 1196.40 767.39 1197.40 768.22 1198.41 769.06 C 1201.73 768.19 1204.89 767.17 1208.28 766.39 C 1205.83 764.23 1203.30 762.17 1201.04 759.83 C 1203.95 759.51 1209.75 758.87 1212.65 758.55 C 1211.66 756.69 1210.65 754.88 1209.60 753.08 C 1205.81 755.00 1201.84 756.54 1197.97 758.25 M 1210.17 767.17 C 1209.63 768.79 1210.19 769.34 1211.83 768.83 C 1212.34 767.19 1211.78 766.64 1210.17 767.17 Z" />
<path fill="#0a0a0a" opacity="1.00" d=" M 1413.98 733.81 C 1417.21 733.06 1419.06 729.87 1421.36 727.72 C 1425.02 729.29 1428.61 731.01 1432.29 732.57 C 1431.69 735.40 1431.21 738.35 1430.27 741.13 C 1416.74 741.15 1403.25 740.61 1389.76 739.85 C 1386.49 739.29 1382.76 738.08 1381.67 734.50 C 1392.42 733.99 1403.21 734.37 1413.98 733.81 Z" />
<path fill="#0a0a0a" opacity="1.00" d=" M 506.80 741.86 C 510.48 737.61 517.84 732.81 522.34 738.65 C 527.06 741.28 525.36 746.73 524.67 751.06 C 509.42 750.89 494.18 751.32 478.95 750.97 C 473.94 751.19 469.04 750.00 464.87 747.27 C 465.76 745.58 466.65 743.90 467.51 742.20 C 480.60 741.99 493.70 741.99 506.80 741.86 Z" />
<path fill="#0a0a0a" opacity="1.00" d=" M 1415.01 766.53 C 1420.72 767.05 1424.66 761.88 1430.02 760.92 C 1433.01 762.28 1435.53 764.75 1437.08 767.64 C 1436.91 770.03 1437.04 772.66 1436.76 775.10 C 1417.58 775.86 1398.44 773.11 1379.33 774.68 C 1377.89 772.45 1377.06 769.76 1376.19 767.37 C 1389.12 767.44 1402.07 765.54 1415.01 766.53 Z" />
</g>
</svg>
