<?xml version="1.0" encoding="UTF-8" ?>
<!DOCTYPE svg PUBLIC "-//W3C//DTD SVG 1.1//EN" "http://www.w3.org/Graphics/SVG/1.1/DTD/svg11.dtd">
<svg width="1960pt" height="812pt" viewBox="0 0 1960 812" version="1.1" xmlns="http://www.w3.org/2000/svg">
<g id="#080808ff">
<path fill="#080808" opacity="1.00" d=" M 497.88 50.65 C 497.91 45.15 504.08 42.37 508.52 43.48 C 513.01 45.78 512.23 50.87 511.28 55.04 C 514.91 55.00 522.18 54.93 525.81 54.89 C 527.72 53.12 529.54 51.19 531.81 49.85 C 536.01 48.45 539.45 51.35 542.97 53.00 C 542.98 54.69 543.00 58.08 543.01 59.77 C 537.58 59.55 532.15 58.87 526.76 59.79 C 527.19 66.80 526.38 74.05 528.41 80.87 C 531.53 79.07 534.72 77.43 538.06 76.05 C 539.33 77.94 540.85 79.69 541.91 81.71 C 541.73 84.00 541.64 86.32 541.60 88.62 C 537.95 88.04 534.40 87.41 530.87 86.38 C 525.33 92.56 526.58 101.58 528.49 109.07 C 530.92 107.80 533.40 106.59 535.84 105.31 C 538.93 106.96 542.10 108.44 545.33 109.79 C 544.69 112.63 544.04 115.48 543.28 118.29 C 529.60 116.92 515.89 116.09 502.21 118.10 C 500.90 116.10 499.51 114.17 498.05 112.28 C 494.28 116.28 489.13 118.26 484.19 120.40 C 482.90 119.08 481.60 117.78 480.31 116.48 C 484.52 111.47 492.20 108.93 493.31 101.80 C 486.05 106.57 478.90 111.50 471.60 116.21 C 468.69 113.05 465.85 108.81 467.26 104.30 C 469.13 101.04 473.40 101.32 476.61 100.16 C 476.77 94.33 476.93 88.51 477.00 82.68 C 472.78 81.56 467.73 82.17 464.34 78.95 C 466.81 74.42 472.63 75.34 476.88 74.14 C 476.93 68.78 477.00 63.42 477.01 58.06 C 473.00 58.02 469.00 57.98 465.01 57.94 L 465.00 53.22 C 471.89 53.08 478.84 53.33 485.71 52.54 C 488.14 51.24 489.99 49.12 492.01 47.27 C 493.96 48.39 495.92 49.52 497.88 50.65 M 485.00 59.86 C 484.98 63.43 484.94 70.56 484.92 74.13 C 488.27 73.81 491.63 74.12 494.93 74.76 C 495.02 72.04 495.13 69.32 495.25 66.61 C 497.19 67.34 499.11 68.12 501.02 68.91 C 500.95 64.52 500.93 60.13 500.95 55.74 C 495.62 57.05 490.30 58.45 485.00 59.86 M 508.96 59.60 C 508.93 66.90 508.90 74.19 508.90 81.49 C 512.13 81.63 516.33 84.04 518.22 80.26 C 520.57 74.37 518.75 67.55 518.64 61.40 C 516.96 57.15 512.39 58.99 508.96 59.60 M 485.39 82.28 C 484.90 86.27 484.58 90.28 484.41 94.30 C 488.88 97.73 494.34 96.29 499.09 94.17 C 499.02 92.89 498.94 91.62 498.85 90.34 C 496.18 89.58 493.59 88.81 490.96 88.01 C 491.45 85.11 492.23 82.26 492.80 79.38 C 490.27 80.27 487.62 80.80 485.39 82.28 M 499.17 86.17 C 498.64 87.80 499.20 88.35 500.83 87.83 C 501.34 86.20 500.79 85.65 499.17 86.17 M 509.20 86.27 C 506.54 94.13 507.44 104.98 499.16 109.42 C 499.10 110.00 498.97 111.15 498.90 111.73 C 504.32 109.19 510.34 108.90 516.16 107.91 C 520.71 102.54 518.20 94.71 519.24 88.35 C 515.87 87.74 512.52 87.07 509.20 86.27 Z" />
<path fill="#080808" opacity="1.00" d=" M 664.81 57.58 C 665.55 52.03 667.68 46.83 670.82 42.23 C 674.51 44.60 678.13 47.07 681.90 49.32 C 681.26 51.96 680.45 54.59 679.99 57.25 C 686.71 56.28 695.49 59.55 700.47 53.45 C 702.95 49.81 707.06 52.30 709.92 54.06 C 712.73 55.65 714.07 58.70 715.59 61.39 C 714.57 62.30 713.56 63.21 712.57 64.13 C 699.51 62.87 686.40 60.83 673.27 62.31 C 669.79 64.25 667.47 67.64 665.14 70.76 C 675.65 73.90 686.28 69.63 696.86 69.32 C 701.64 70.87 700.68 77.25 700.51 81.03 C 699.59 93.09 701.41 105.30 699.48 117.28 C 696.90 119.02 694.05 120.51 690.99 121.16 C 685.46 119.21 680.68 115.12 677.43 110.24 C 681.35 109.62 685.30 109.08 689.24 108.50 C 689.94 104.96 690.77 101.45 691.79 97.99 C 683.21 97.98 674.64 98.00 666.07 98.01 C 666.00 104.59 665.92 111.17 665.84 117.75 C 663.34 119.24 660.85 120.71 658.40 122.27 C 657.13 119.87 655.36 117.54 655.03 114.78 C 655.44 106.13 656.47 97.51 658.12 89.01 C 657.07 87.96 656.01 86.91 655.00 85.83 C 651.87 89.10 648.92 92.56 645.45 95.49 C 642.67 97.97 638.61 97.58 635.18 98.41 C 639.70 83.63 658.55 78.25 660.54 62.15 C 653.06 63.20 645.52 63.77 638.00 64.23 C 638.00 62.37 638.01 58.64 638.02 56.77 C 646.97 53.90 655.80 58.48 664.81 57.58 M 667.74 73.70 C 666.89 76.79 666.06 79.91 665.46 83.06 C 672.51 83.05 679.60 83.20 686.66 82.64 C 688.76 81.15 689.72 78.65 690.87 76.44 C 683.14 75.64 675.45 74.61 667.74 73.70 M 667.97 86.00 C 667.25 88.29 666.22 90.54 665.67 92.87 C 672.69 93.56 679.76 94.10 686.82 93.95 C 690.33 93.47 689.50 88.00 690.89 86.10 C 683.24 86.00 675.60 86.02 667.97 86.00 Z" />
<path fill="#080808" opacity="1.00" d=" M 808.37 44.57 C 810.85 44.35 813.15 44.05 815.68 43.81 C 819.13 45.30 822.18 47.56 825.38 49.51 C 825.58 54.09 824.76 62.80 817.39 59.77 C 813.61 55.23 811.31 49.65 808.37 44.57 Z" />
<path fill="#080808" opacity="1.00" d=" M 839.43 42.60 C 843.85 44.13 848.25 45.77 852.53 47.70 C 850.26 51.46 847.82 55.15 846.14 59.23 C 853.09 59.87 859.71 58.80 865.12 54.26 C 871.33 50.22 876.57 56.17 878.56 61.41 C 877.55 62.31 876.56 63.20 875.58 64.11 C 869.77 63.78 864.03 62.98 858.27 62.23 C 858.20 69.21 857.95 76.22 858.48 83.20 C 864.11 80.29 869.59 77.07 875.33 74.34 C 877.59 76.83 879.91 79.32 882.16 81.84 C 880.85 82.93 878.24 85.11 876.94 86.20 C 870.73 85.51 864.56 84.74 858.36 84.14 C 858.01 95.35 857.94 106.56 857.93 117.77 C 854.92 118.55 851.83 119.37 848.85 120.13 C 848.11 116.45 847.74 112.65 848.93 108.97 C 850.27 101.97 850.79 94.85 851.30 87.75 C 842.42 86.22 833.49 85.01 824.58 83.74 C 823.27 90.26 823.36 96.94 822.99 103.55 C 827.04 101.54 830.90 99.16 835.05 97.33 C 836.83 97.93 838.41 98.97 840.06 99.88 C 832.16 105.97 825.10 113.47 815.60 117.13 C 814.31 113.19 811.14 109.15 812.84 104.92 C 816.13 93.73 814.94 81.91 814.76 70.43 C 810.83 70.23 806.92 70.04 803.03 69.86 L 803.06 65.37 C 810.71 65.87 819.31 61.11 826.53 65.32 C 824.24 71.12 823.16 77.29 822.78 83.50 C 825.77 81.44 829.09 79.28 829.40 75.14 C 831.14 70.46 833.73 66.16 835.48 61.49 C 837.33 55.32 838.42 48.96 839.43 42.60 M 841.97 63.95 C 837.60 68.92 835.06 75.23 832.48 81.24 C 837.50 80.22 843.81 81.68 848.07 78.12 C 850.34 74.05 850.31 69.01 851.67 64.63 C 848.72 63.77 844.29 60.67 841.97 63.95 Z" />
<path fill="#080808" opacity="1.00" d=" M 926.62 43.50 C 931.17 42.47 934.87 45.48 938.46 47.66 C 936.69 50.13 934.93 52.60 933.37 55.20 C 939.92 54.30 946.30 52.37 952.80 51.20 C 956.01 53.24 958.31 56.34 960.56 59.34 C 952.46 62.84 944.60 67.62 939.04 74.61 C 940.50 75.70 941.99 76.77 943.48 77.83 C 942.94 80.12 942.42 82.42 942.33 84.77 C 947.35 85.27 950.86 81.55 955.10 79.71 C 959.36 80.73 963.03 83.32 966.83 85.42 C 964.05 90.80 958.03 92.79 954.02 97.01 C 940.31 111.28 920.30 118.04 900.88 118.98 C 898.20 119.23 894.88 119.30 893.58 116.39 C 891.81 115.00 893.84 113.00 895.46 112.80 C 905.91 111.57 916.49 110.48 926.53 107.14 C 925.79 103.20 924.80 99.34 923.71 95.49 C 915.25 97.33 909.42 104.18 901.31 106.76 C 900.23 105.54 899.16 104.32 898.07 103.12 C 907.69 97.37 921.06 93.92 924.73 81.99 C 915.78 86.08 906.53 89.69 896.90 91.79 C 894.50 92.50 892.93 90.04 891.33 88.74 C 898.33 83.46 908.18 85.00 915.63 80.69 C 919.50 78.50 920.57 73.88 922.72 70.28 C 919.55 69.59 916.08 67.42 912.92 69.00 C 908.07 71.15 903.22 73.32 898.05 74.54 C 898.09 73.71 898.18 72.04 898.22 71.20 C 905.09 67.06 912.50 63.06 917.16 56.29 C 920.31 52.03 922.41 46.88 926.62 43.50 M 921.83 60.69 C 921.92 61.42 922.10 62.89 922.18 63.63 C 925.28 65.70 927.81 68.47 929.90 71.55 C 933.92 67.74 938.61 63.77 938.77 57.67 C 933.04 58.32 927.28 58.75 921.83 60.69 M 928.11 89.03 C 928.53 92.73 929.98 96.18 931.07 99.72 C 937.89 98.50 942.44 93.22 946.93 88.47 C 942.23 86.26 936.96 86.72 931.93 86.67 C 930.26 86.48 928.90 87.70 928.11 89.03 Z" />
<path fill="#080808" opacity="1.00" d=" M 1103.82 44.27 C 1108.12 44.02 1112.46 44.22 1116.80 44.34 C 1115.72 51.81 1115.21 59.35 1114.84 66.89 C 1119.23 68.25 1124.29 68.84 1127.57 72.40 C 1131.10 75.85 1133.59 80.21 1135.66 84.67 C 1134.59 85.67 1133.55 86.67 1132.51 87.66 C 1130.22 87.75 1127.97 87.85 1125.73 87.96 C 1124.23 83.47 1123.84 78.15 1120.55 74.49 C 1118.30 71.92 1115.69 69.70 1113.13 67.46 C 1113.39 84.24 1115.10 100.96 1115.04 117.74 C 1112.08 118.52 1109.05 119.34 1106.12 120.13 C 1105.06 119.25 1104.01 118.37 1102.98 117.50 C 1105.46 93.20 1106.22 68.60 1103.82 44.27 Z" />
<path fill="#080808" opacity="1.00" d=" M 1334.43 47.52 C 1337.00 46.15 1339.44 44.52 1341.97 43.00 C 1352.03 51.53 1365.97 49.26 1378.14 47.55 C 1380.74 47.11 1382.49 49.62 1384.53 50.84 C 1380.61 60.59 1380.38 71.55 1374.74 80.68 C 1369.29 79.88 1364.30 77.53 1359.20 75.64 C 1359.15 74.96 1359.04 73.58 1358.98 72.90 C 1362.90 73.70 1366.78 74.45 1370.74 75.17 C 1371.60 67.86 1372.61 60.56 1373.23 53.22 C 1370.45 54.39 1366.26 53.37 1364.27 56.22 C 1361.15 60.81 1361.43 66.83 1358.39 71.47 C 1354.63 76.79 1347.60 79.42 1346.01 86.31 C 1355.62 86.00 1365.19 84.88 1374.84 84.87 C 1373.23 95.70 1375.10 106.60 1374.99 117.48 C 1373.18 118.26 1371.40 119.04 1369.64 119.87 C 1367.61 118.24 1365.67 116.52 1363.89 114.64 C 1354.01 114.06 1344.07 113.37 1334.22 114.25 C 1331.95 115.35 1331.09 118.10 1329.75 120.07 C 1326.98 119.54 1324.38 118.95 1321.68 118.33 C 1321.42 107.98 1324.75 97.39 1321.68 87.19 C 1319.92 83.11 1315.06 80.23 1316.67 75.05 C 1317.15 65.80 1318.13 56.58 1318.31 47.32 C 1323.57 47.63 1329.45 50.39 1334.43 47.52 M 1329.81 55.00 C 1324.60 58.27 1322.17 69.80 1329.99 71.04 C 1337.37 73.76 1338.06 64.74 1337.07 60.35 C 1341.71 64.41 1345.75 69.09 1349.84 73.69 C 1353.31 67.68 1355.41 61.06 1355.52 54.04 C 1347.00 51.97 1338.22 53.21 1329.81 55.00 M 1327.24 79.35 C 1326.37 81.65 1328.59 83.60 1330.34 84.71 C 1335.49 86.29 1339.98 82.58 1343.80 79.65 C 1343.50 76.53 1340.41 74.67 1338.74 72.25 C 1334.81 74.40 1330.22 75.84 1327.24 79.35 M 1331.22 88.05 C 1331.28 91.02 1331.20 93.97 1331.31 96.94 C 1336.32 96.30 1343.58 98.68 1346.26 92.92 C 1344.67 86.05 1336.25 88.41 1331.22 88.05 M 1353.01 87.56 C 1352.97 90.40 1352.94 93.25 1352.94 96.10 C 1357.06 97.25 1361.19 98.44 1365.38 99.43 C 1366.29 96.53 1366.70 93.51 1366.72 90.46 C 1363.57 86.25 1357.33 88.69 1353.01 87.56 M 1330.63 105.99 C 1335.89 108.37 1342.13 106.77 1346.91 103.88 C 1342.73 98.56 1331.48 97.69 1330.63 105.99 M 1352.28 100.16 C 1353.06 102.71 1353.33 105.73 1355.16 107.83 C 1358.07 109.68 1361.77 108.76 1364.98 109.62 C 1365.04 106.41 1364.83 103.17 1365.03 99.97 C 1360.75 100.05 1356.50 100.11 1352.28 100.16 Z" />
<path fill="#080808" opacity="1.00" d=" M 87.95 54.17 C 92.67 44.87 105.42 42.40 113.70 48.31 C 116.45 51.40 117.27 55.92 116.97 59.93 C 115.18 64.23 111.11 67.17 109.12 71.38 C 112.90 75.77 120.12 79.00 118.98 86.03 C 118.85 90.41 118.39 96.63 113.92 98.96 C 107.53 102.93 99.10 102.73 92.44 99.47 C 87.84 96.41 85.77 90.45 86.06 85.12 C 88.98 80.34 92.96 76.30 95.91 71.53 C 90.59 67.23 85.91 61.70 87.95 54.17 M 100.40 50.22 C 97.83 52.74 93.06 55.05 95.21 59.65 C 98.10 62.67 101.64 64.95 105.04 67.34 C 108.23 63.08 111.03 58.43 110.90 52.86 C 107.64 51.24 104.30 49.08 100.40 50.22 M 98.12 75.21 C 96.17 79.74 93.98 84.51 95.23 89.61 C 97.83 93.41 102.83 94.21 106.81 95.72 C 108.66 93.19 110.47 90.63 112.00 87.90 C 111.02 80.91 104.75 76.33 98.12 75.21 Z" />
<path fill="#080808" opacity="1.00" d=" M 308.71 58.29 C 310.17 53.96 308.87 48.01 312.98 44.94 C 317.15 46.07 320.85 48.40 324.67 50.35 C 330.68 45.66 340.32 47.27 343.17 54.71 C 352.64 54.85 362.09 54.13 371.52 53.26 C 372.71 54.56 373.92 55.85 375.15 57.13 C 369.58 70.50 372.18 85.64 372.89 99.67 C 372.40 105.48 377.72 115.34 370.08 118.18 C 361.29 123.17 352.46 115.35 348.85 107.69 C 353.12 107.32 357.39 106.95 361.67 106.58 C 361.96 94.71 362.51 82.83 361.89 70.97 C 362.22 67.57 360.80 64.55 359.41 61.62 C 349.33 61.36 338.04 60.88 330.01 68.09 C 329.93 83.87 329.43 99.80 332.44 115.38 C 329.60 117.41 326.62 119.25 323.50 120.81 C 322.32 119.68 321.15 118.55 320.00 117.41 C 320.48 108.47 321.28 99.29 324.84 90.98 C 320.59 82.19 322.48 72.17 322.77 62.77 C 324.38 63.37 325.97 64.03 327.58 64.66 C 329.09 63.02 330.65 61.41 332.24 59.84 C 330.49 56.85 328.72 53.86 326.79 50.97 C 322.36 53.94 318.73 58.27 317.64 63.60 C 316.41 70.24 314.22 76.77 314.71 83.61 C 315.15 94.67 317.22 105.78 315.74 116.82 C 314.06 121.98 307.71 119.48 303.85 118.42 C 307.11 105.68 307.26 92.51 307.76 79.45 C 305.54 83.02 303.96 87.07 300.90 90.04 C 298.98 89.44 297.21 88.47 295.44 87.55 C 300.55 78.14 306.49 68.92 308.71 58.29 Z" />
<path fill="#080808" opacity="1.00" d=" M 1074.96 44.54 C 1079.83 45.10 1084.62 46.11 1089.39 47.21 C 1087.19 50.78 1084.86 54.27 1082.73 57.88 C 1083.86 58.99 1084.98 60.12 1086.09 61.28 C 1089.23 59.90 1092.21 57.76 1095.70 57.43 C 1097.64 58.46 1099.31 59.94 1101.08 61.26 C 1098.17 70.00 1096.51 79.16 1092.61 87.55 C 1089.61 96.69 1081.64 102.83 1074.09 108.16 C 1068.83 112.13 1060.68 113.56 1055.83 108.31 C 1062.19 102.93 1071.10 101.02 1076.42 94.38 C 1077.01 89.14 1075.47 84.07 1074.53 78.98 C 1070.52 81.15 1068.16 85.08 1065.68 88.71 C 1063.47 87.10 1061.36 85.37 1059.27 83.61 C 1063.27 77.71 1067.45 71.76 1069.66 64.90 C 1071.66 58.18 1073.17 51.32 1074.96 44.54 M 1082.55 64.49 C 1079.44 66.41 1077.17 69.39 1074.53 71.84 C 1078.15 74.11 1080.96 79.64 1085.68 78.77 C 1089.82 75.86 1089.76 69.96 1091.70 65.73 C 1088.76 64.80 1085.64 64.06 1082.55 64.49 Z" />
<path fill="#080808" opacity="1.00" d=" M 1148.94 44.97 C 1159.92 46.32 1170.95 48.84 1182.07 47.72 C 1191.80 47.13 1201.98 49.25 1211.15 44.81 C 1213.35 46.66 1216.79 48.29 1216.76 51.61 C 1215.46 56.91 1214.03 62.27 1214.58 67.80 C 1215.47 81.05 1215.59 94.35 1216.74 107.57 C 1216.81 110.77 1218.94 114.72 1216.16 117.14 C 1213.57 119.89 1209.45 119.58 1206.05 120.46 C 1205.32 117.73 1204.37 115.00 1203.66 112.29 C 1189.93 114.41 1175.78 111.01 1162.14 114.20 C 1159.73 115.28 1158.03 117.42 1155.84 118.83 C 1152.72 120.77 1149.64 119.12 1146.61 118.37 C 1149.54 94.05 1150.49 69.42 1148.94 44.97 M 1161.33 52.28 C 1159.16 53.73 1158.37 56.33 1157.43 58.61 C 1170.84 59.31 1184.37 59.48 1197.72 57.61 C 1199.16 59.17 1200.65 60.68 1202.17 62.17 C 1196.00 63.74 1189.51 62.34 1183.42 64.30 C 1180.65 66.35 1182.88 70.97 1181.72 73.58 C 1182.98 74.76 1184.25 75.95 1185.52 77.15 C 1189.75 75.67 1193.92 74.03 1198.15 72.55 C 1199.03 74.93 1199.41 77.30 1200.31 79.73 C 1196.89 80.03 1193.36 80.38 1190.01 80.75 C 1194.01 86.94 1198.45 93.35 1205.86 95.62 C 1206.28 81.05 1206.41 66.39 1204.08 51.96 C 1189.85 53.99 1175.58 51.06 1161.33 52.28 M 1157.01 62.16 C 1156.97 73.79 1156.98 85.43 1157.00 97.06 C 1162.89 96.95 1168.80 96.83 1174.73 96.67 C 1175.95 91.10 1176.64 85.39 1174.36 79.95 C 1170.52 79.95 1162.85 79.96 1159.01 79.96 C 1159.01 79.25 1159.02 77.83 1159.02 77.12 C 1164.25 76.97 1169.49 76.80 1174.76 76.61 C 1174.72 72.56 1174.62 68.52 1174.69 64.47 C 1168.77 63.79 1162.86 63.21 1157.01 62.16 M 1182.16 83.45 C 1182.00 86.84 1182.16 90.22 1182.52 93.59 C 1183.52 96.14 1186.60 96.58 1188.84 97.55 C 1189.04 94.16 1188.73 90.77 1188.48 87.41 C 1187.47 84.86 1184.38 84.41 1182.16 83.45 M 1158.29 102.34 C 1158.24 103.81 1158.24 105.28 1158.28 106.76 C 1174.57 107.14 1190.87 107.23 1207.17 106.65 C 1204.92 105.79 1205.51 99.47 1202.05 100.42 C 1187.55 102.32 1172.87 102.06 1158.29 102.34 Z" />
<path fill="#080808" opacity="1.00" d=" M 1410.74 44.14 C 1416.53 44.83 1422.11 48.04 1424.02 53.77 C 1426.53 58.17 1422.42 61.46 1420.60 64.94 C 1427.89 64.85 1435.31 65.56 1442.60 64.60 C 1447.54 59.14 1447.86 51.15 1449.60 44.32 C 1455.10 44.32 1460.26 46.89 1463.07 51.64 C 1457.17 55.86 1450.06 59.50 1447.88 67.06 C 1453.99 66.68 1460.27 66.57 1466.33 65.31 C 1467.81 67.72 1469.32 70.15 1470.65 72.67 C 1465.44 74.23 1460.54 76.54 1455.45 78.37 C 1456.11 76.03 1456.15 73.66 1456.96 71.31 C 1455.86 70.30 1454.80 69.28 1453.75 68.25 C 1439.91 69.32 1426.00 69.16 1412.19 68.07 C 1411.61 73.83 1408.29 80.75 1402.14 82.04 C 1398.99 80.05 1397.41 76.44 1396.09 73.15 C 1399.67 72.17 1403.29 71.37 1406.94 70.59 C 1406.35 68.02 1405.34 65.44 1404.97 62.87 C 1409.05 63.49 1413.07 64.27 1417.16 64.96 C 1415.29 57.93 1412.71 51.13 1410.74 44.14 Z" />
<path fill="#080808" opacity="1.00" d=" M 1425.31 46.33 C 1427.71 46.20 1429.94 45.30 1432.46 45.82 C 1437.94 49.02 1441.78 55.57 1439.38 62.03 C 1436.85 61.98 1434.35 61.93 1431.89 61.88 C 1431.12 56.16 1428.24 51.16 1425.31 46.33 Z" />
<path fill="#080808" opacity="1.00" d=" M 1510.36 46.81 C 1515.71 44.98 1521.19 46.98 1526.29 48.78 C 1523.08 55.98 1522.12 63.82 1521.71 71.63 C 1529.55 71.74 1535.84 67.15 1543.03 65.08 C 1547.54 66.15 1550.96 69.77 1554.60 72.49 C 1552.90 74.20 1551.20 75.90 1549.50 77.59 C 1540.22 76.61 1530.89 76.04 1521.59 75.84 C 1522.53 80.63 1520.04 87.87 1525.39 90.78 C 1530.53 92.84 1533.71 88.15 1536.98 85.32 C 1540.84 87.13 1544.75 88.66 1548.85 89.95 C 1549.37 94.13 1546.04 97.71 1542.02 97.02 C 1536.25 95.52 1530.39 94.67 1524.46 94.26 C 1523.09 95.80 1521.63 97.24 1520.10 98.61 C 1520.69 103.16 1521.45 107.68 1522.16 112.21 C 1528.42 111.48 1535.45 113.35 1541.33 110.35 C 1543.80 109.18 1546.12 108.00 1548.86 107.34 C 1553.95 108.71 1556.89 113.36 1558.76 117.96 C 1554.17 118.73 1549.58 119.22 1544.96 118.63 C 1527.86 117.67 1510.71 117.56 1493.64 118.77 C 1488.80 118.93 1483.68 119.81 1479.11 117.68 C 1479.49 115.72 1479.97 113.78 1480.61 111.88 C 1491.27 111.98 1501.93 112.05 1512.62 112.16 C 1513.26 107.54 1514.09 102.89 1513.91 98.21 C 1507.16 95.10 1499.31 95.81 1492.28 93.52 C 1493.14 92.06 1494.05 90.62 1494.97 89.18 C 1501.09 90.29 1507.59 91.77 1513.64 89.57 C 1513.06 84.39 1512.58 79.12 1513.50 73.95 C 1509.83 73.94 1502.49 73.91 1498.82 73.90 C 1494.66 80.44 1492.19 87.85 1488.58 94.67 C 1486.91 97.78 1483.85 100.02 1480.45 100.92 C 1481.39 94.93 1484.96 90.03 1487.49 84.69 C 1491.11 74.92 1492.63 64.55 1493.49 54.21 C 1497.93 55.56 1501.93 57.95 1505.52 60.84 C 1503.82 64.01 1502.45 67.38 1501.36 70.79 C 1504.09 70.85 1509.53 70.97 1512.25 71.03 C 1511.90 62.94 1512.25 54.74 1510.36 46.81 Z" />
<path fill="#080808" opacity="1.00" d=" M 44.30 67.41 C 48.00 54.83 61.73 49.82 73.00 46.44 C 74.15 48.07 75.38 49.65 76.65 51.20 C 68.24 54.36 59.68 58.78 54.97 66.80 C 49.73 77.34 51.72 90.78 59.16 99.77 C 63.65 105.39 69.95 109.27 76.75 111.48 C 75.91 114.66 74.85 117.78 73.54 120.79 C 59.49 115.26 47.58 103.85 43.04 89.27 C 41.39 82.12 41.02 74.18 44.30 67.41 Z" />
<path fill="#080808" opacity="1.00" d=" M 129.90 47.17 C 132.62 47.49 138.05 48.13 140.76 48.45 C 146.65 52.30 152.47 56.55 156.89 62.09 C 162.12 71.02 164.55 81.89 162.29 92.12 C 160.03 102.53 151.19 109.22 143.06 115.10 C 139.08 118.37 133.47 117.41 128.70 118.37 C 128.85 115.64 127.36 111.40 130.93 110.27 C 138.77 107.98 146.13 103.17 149.79 95.66 C 152.82 89.01 156.07 81.33 152.79 74.10 C 150.77 68.33 147.56 62.96 143.67 58.26 C 139.37 54.21 133.54 51.98 129.90 47.17 Z" />
<path fill="#080808" opacity="1.00" d=" M 251.05 48.13 C 254.68 48.18 258.32 47.51 261.95 48.06 C 257.90 54.98 258.14 63.16 258.09 70.93 C 265.44 71.88 272.16 69.70 278.85 67.13 C 281.34 68.83 283.12 71.31 284.84 73.74 C 280.43 75.06 275.93 75.98 271.51 77.24 C 273.93 78.23 276.37 79.18 278.83 80.11 C 274.71 86.35 269.33 91.94 267.28 99.33 C 269.40 101.33 271.52 103.34 273.63 105.36 C 277.00 104.00 280.23 102.36 283.44 100.67 C 284.25 105.76 285.41 110.77 286.53 115.80 C 282.97 116.61 279.11 118.68 275.67 116.56 C 269.63 114.38 265.58 109.23 261.86 104.27 C 256.16 108.56 249.67 112.06 242.55 113.22 C 240.03 113.51 239.01 116.18 237.61 117.91 C 230.74 118.48 224.26 115.73 220.36 110.13 C 223.11 108.25 229.00 110.62 230.84 106.88 C 232.35 104.26 233.08 101.26 234.18 98.48 C 228.82 94.49 223.02 98.91 217.76 100.57 C 215.96 97.60 214.21 94.60 212.61 91.52 C 218.45 90.37 224.62 90.21 230.22 88.08 C 234.52 85.83 231.98 79.49 233.53 75.85 C 225.80 73.68 216.85 78.65 210.20 73.08 C 217.69 71.16 225.49 71.06 233.17 70.52 C 232.94 67.73 232.81 64.97 232.70 62.18 C 226.41 62.66 220.12 63.32 213.82 63.69 C 216.12 59.23 221.52 59.32 225.48 57.35 C 231.25 55.28 236.39 51.43 242.72 51.07 C 244.79 52.62 246.66 54.43 248.57 56.18 C 245.61 57.94 241.21 58.92 239.96 62.62 C 239.38 65.40 238.96 68.23 238.53 71.05 C 243.31 70.96 248.12 70.94 252.91 70.74 C 252.64 63.18 252.33 55.60 251.05 48.13 M 240.60 73.27 C 240.31 75.78 239.84 78.26 239.46 80.76 C 241.89 82.99 245.43 83.24 248.34 84.46 C 245.30 86.48 242.20 88.41 239.09 90.31 C 239.08 97.13 239.11 103.94 239.19 110.76 C 246.52 107.57 253.08 102.88 259.32 97.95 C 255.96 91.24 254.56 83.84 252.00 76.84 C 250.09 72.60 243.90 74.50 240.60 73.27 M 260.83 73.48 C 257.28 78.95 260.06 84.81 263.11 89.77 C 266.38 85.87 268.69 81.33 271.07 76.86 C 267.69 75.64 264.29 74.45 260.83 73.48 Z" />
<path fill="#080808" opacity="1.00" d=" M 263.17 53.08 C 264.13 52.32 265.08 51.54 266.03 50.76 C 269.26 52.38 272.52 53.96 275.80 55.49 C 275.82 58.62 275.96 61.75 275.98 64.88 C 268.46 65.54 266.72 57.67 263.17 53.08 Z" />
<path fill="#080808" opacity="1.00" d=" M 1443.60 74.31 C 1448.53 72.83 1452.34 77.35 1455.56 80.34 C 1452.72 81.04 1449.79 81.16 1446.90 80.84 C 1443.95 83.84 1441.37 87.24 1439.89 91.23 C 1445.65 90.84 1451.52 90.50 1457.18 89.07 C 1460.15 88.57 1463.36 86.90 1466.23 88.63 C 1469.18 89.59 1469.65 93.22 1471.25 95.38 C 1460.51 97.22 1449.67 96.98 1438.88 95.96 C 1438.03 102.72 1443.20 111.20 1438.31 117.24 C 1435.94 118.82 1432.98 119.57 1430.43 120.63 C 1427.13 115.11 1421.46 112.12 1416.34 108.64 C 1420.62 108.09 1425.10 108.32 1429.30 107.21 C 1432.11 104.71 1429.94 99.19 1431.53 96.02 C 1419.90 92.97 1407.83 97.12 1396.04 95.81 C 1397.09 94.31 1398.07 92.70 1399.43 91.43 C 1409.41 90.63 1419.44 90.91 1429.47 90.79 C 1431.39 86.04 1435.56 83.21 1439.59 80.45 C 1431.37 80.12 1423.19 80.06 1415.01 79.92 L 1415.03 74.85 C 1424.53 75.41 1434.25 77.01 1443.60 74.31 Z" />
<path fill="#080808" opacity="1.00" d=" M 1568.29 125.39 C 1569.77 124.38 1571.47 123.77 1573.14 123.05 C 1574.61 140.33 1573.89 157.68 1573.99 175.00 C 1574.07 278.33 1573.87 381.67 1574.09 485.01 C 1575.08 499.00 1574.61 512.99 1574.05 527.00 C 1573.91 606.99 1574.06 686.99 1573.99 766.99 C 1485.65 767.09 1397.31 766.85 1308.98 767.11 C 1305.07 765.95 1298.71 769.20 1296.38 764.65 C 1295.37 722.46 1296.35 680.22 1295.99 638.01 C 1280.77 637.95 1265.56 637.90 1250.37 638.19 C 1249.66 638.95 1248.96 639.72 1248.28 640.48 C 1247.62 682.65 1248.20 724.82 1247.99 766.99 C 1179.66 767.02 1111.33 766.98 1043.00 767.01 C 1022.81 767.06 1002.59 766.42 982.45 767.96 C 979.35 768.23 976.61 766.47 973.87 765.35 C 973.26 743.02 975.37 720.78 974.95 698.47 C 975.25 679.97 974.69 661.47 975.27 642.98 C 972.51 597.73 974.69 552.33 973.99 507.01 C 957.99 506.96 942.00 506.98 926.01 507.01 C 925.97 550.00 926.03 593.00 926.00 635.99 C 878.33 636.01 830.67 636.01 783.01 635.99 C 782.98 550.67 783.03 465.34 782.99 380.02 C 768.18 379.96 753.38 380.00 738.59 379.97 C 736.14 394.18 737.01 408.65 736.99 423.00 C 737.02 451.00 737.00 478.99 737.00 506.99 C 688.00 507.01 639.00 507.01 590.01 506.99 C 589.96 451.99 590.06 397.00 589.95 342.00 C 589.79 332.44 590.59 322.91 590.90 313.37 C 589.49 291.94 590.07 270.46 590.00 249.01 C 575.03 248.97 560.06 248.98 545.09 249.03 C 545.05 324.01 544.91 399.01 545.04 474.00 C 545.36 484.37 543.49 494.70 543.82 505.06 C 535.13 506.80 526.28 505.64 517.51 505.90 C 490.48 506.67 463.45 505.02 436.43 505.80 C 423.65 503.71 410.71 507.65 398.01 505.23 C 397.81 463.59 398.33 421.95 397.78 380.33 C 383.14 379.85 368.49 379.95 353.84 380.02 C 353.41 383.39 352.98 386.76 353.02 390.17 C 356.15 428.44 350.69 466.69 352.01 504.99 C 317.01 505.33 282.00 504.36 247.02 505.46 C 233.02 506.65 219.01 504.98 205.01 504.84 C 205.00 391.55 204.98 278.27 205.01 164.99 C 204.83 156.31 206.20 147.75 207.39 139.19 C 215.31 138.40 211.99 146.66 213.01 150.97 C 213.13 181.31 212.89 211.65 213.01 241.99 C 272.52 242.40 332.06 241.22 391.55 242.58 C 439.01 241.40 486.52 242.23 534.00 242.01 C 556.02 243.22 578.06 242.26 600.09 243.01 C 616.86 241.66 633.59 244.44 650.38 243.09 C 666.26 244.35 682.10 241.52 698.00 242.98 C 713.00 242.34 728.02 243.62 743.01 242.93 C 762.36 243.91 781.79 240.98 801.09 243.34 C 811.42 244.09 821.76 241.93 832.08 243.29 C 849.12 243.42 866.18 243.72 883.23 243.18 C 910.78 244.41 938.40 244.38 965.97 243.58 C 977.93 242.09 990.00 242.46 1002.02 243.00 C 1012.88 243.66 1023.77 242.50 1034.64 243.19 C 1046.35 243.77 1058.07 242.42 1069.78 243.19 C 1084.33 244.31 1098.98 244.36 1113.54 243.20 C 1127.05 241.67 1140.47 244.43 1154.00 244.06 C 1289.01 243.91 1424.03 244.05 1559.04 244.00 C 1563.95 245.75 1569.64 241.36 1567.90 236.01 C 1568.55 199.14 1567.31 162.24 1568.29 125.39 M 213.00 249.01 C 212.99 290.34 212.99 331.66 213.01 372.99 C 320.93 372.80 428.86 373.42 536.78 372.68 C 537.29 331.46 536.87 290.23 536.99 249.00 C 429.00 249.00 321.00 248.99 213.00 249.01 M 598.01 249.01 C 598.17 290.24 597.60 331.48 598.32 372.71 C 611.66 372.46 625.03 375.19 638.33 373.50 C 655.23 372.20 672.16 375.46 689.05 373.53 C 708.64 371.76 728.22 374.55 747.83 373.83 C 787.87 372.25 827.95 373.24 868.00 373.03 C 894.66 374.09 921.34 374.19 948.00 373.02 C 969.26 372.21 990.51 373.95 1011.77 373.81 C 1046.15 372.12 1080.59 373.41 1115.00 372.95 C 1129.33 372.36 1143.69 374.76 1158.01 373.42 C 1175.49 371.74 1192.95 374.40 1210.44 373.99 C 1224.65 375.75 1238.83 372.30 1253.06 373.67 C 1258.99 374.71 1264.94 373.86 1270.90 373.70 C 1286.70 374.81 1302.57 373.47 1318.39 374.24 C 1332.25 375.95 1346.14 372.67 1360.00 374.64 C 1428.43 375.54 1496.89 374.66 1565.34 375.07 C 1568.75 364.64 1565.92 353.65 1566.09 343.00 C 1565.76 333.49 1567.34 324.04 1566.91 314.53 C 1566.72 293.19 1568.93 271.90 1568.10 250.53 C 1563.24 249.00 1558.01 249.00 1553.01 248.90 C 1234.68 249.13 916.34 248.93 598.01 249.01 M 213.01 380.01 C 212.99 420.00 212.99 459.99 213.01 499.99 C 254.68 499.89 296.35 500.23 338.01 499.90 C 341.29 501.01 345.88 498.67 345.89 495.01 C 346.28 456.68 345.84 418.34 345.99 380.01 C 301.67 379.99 257.34 379.98 213.01 380.01 M 405.27 380.32 C 404.80 417.54 404.90 454.78 405.10 492.01 C 403.36 497.36 409.04 501.75 413.96 500.00 C 452.31 499.96 490.66 500.18 529.01 499.90 C 532.29 501.01 536.88 498.67 536.89 495.01 C 537.28 456.69 536.85 418.34 536.99 380.01 C 493.08 380.17 449.17 379.60 405.27 380.32 M 598.01 380.01 C 598.17 419.89 597.60 459.78 598.32 499.65 C 616.20 500.14 634.10 500.36 651.99 500.46 C 662.25 501.33 672.56 501.09 682.84 500.73 C 694.70 500.93 706.57 501.41 718.42 500.92 C 721.52 500.87 724.41 501.47 727.52 501.85 C 734.01 489.89 729.15 475.82 730.13 462.99 C 732.62 435.47 732.32 407.81 731.68 380.22 C 687.12 379.70 642.56 380.13 598.01 380.01 M 789.00 380.01 C 789.00 416.35 789.00 452.69 788.94 489.03 C 790.26 492.14 786.83 498.85 791.37 500.30 C 804.13 503.26 817.11 498.74 830.00 500.09 C 848.03 501.78 866.10 500.07 884.18 501.00 C 899.01 501.88 913.83 500.00 928.67 501.01 C 962.83 499.35 997.03 503.81 1031.23 501.25 C 1040.81 500.66 1050.36 502.10 1059.95 501.37 C 1071.29 500.62 1082.65 501.44 1094.00 501.84 C 1112.32 501.91 1130.70 499.62 1149.00 501.72 C 1160.65 502.60 1172.34 500.57 1184.00 501.64 C 1208.99 502.38 1234.00 501.93 1259.01 502.00 C 1269.07 502.23 1279.15 499.82 1289.21 501.36 C 1313.11 502.56 1337.08 502.16 1361.00 501.65 C 1374.00 500.24 1386.97 502.41 1400.00 502.05 C 1455.22 501.75 1510.46 502.44 1565.68 501.68 C 1566.68 473.80 1564.93 445.86 1567.04 418.02 C 1566.68 405.35 1568.12 392.63 1566.13 380.03 C 1307.09 379.97 1048.05 380.01 789.00 380.01 M 791.48 507.25 C 790.72 507.99 789.98 508.73 789.25 509.48 C 788.70 549.34 789.11 589.21 789.03 629.08 C 796.85 631.17 804.96 631.00 813.00 631.10 C 848.17 630.98 883.35 630.89 918.53 631.12 C 920.37 623.23 920.05 615.03 920.13 607.00 C 919.84 573.67 920.09 540.33 919.99 507.00 C 877.15 507.14 834.31 506.69 791.48 507.25 M 982.00 507.01 C 981.91 548.51 982.14 590.02 981.88 631.53 C 994.71 634.25 1007.98 632.73 1021.00 633.02 C 1202.66 632.96 1384.32 633.03 1565.99 632.99 C 1566.01 590.99 1566.00 549.00 1565.99 507.00 C 1371.33 507.00 1176.67 506.99 982.00 507.01 M 982.01 638.01 C 981.91 678.16 982.14 718.32 981.89 758.47 C 986.77 760.01 991.89 759.96 996.99 760.10 C 1078.65 759.88 1160.32 760.06 1241.99 759.99 C 1242.01 719.33 1242.01 678.67 1241.99 638.01 C 1155.33 637.99 1068.67 637.99 982.01 638.01 M 1304.01 638.01 C 1303.99 678.63 1303.99 719.25 1304.01 759.87 C 1311.31 760.04 1318.66 760.97 1326.00 760.81 C 1357.47 759.76 1388.99 761.53 1420.48 760.68 C 1438.65 758.50 1456.85 762.01 1475.04 760.61 C 1491.65 760.57 1508.25 761.22 1524.87 761.03 C 1538.53 759.56 1552.33 761.95 1565.97 760.24 C 1566.03 719.49 1565.99 678.75 1565.99 638.01 C 1478.66 637.99 1391.34 638.00 1304.01 638.01 Z" />
<path fill="#080808" opacity="1.00" d=" M 887.68 160.83 C 894.20 157.95 901.05 162.49 903.73 168.36 C 908.55 178.64 909.77 192.09 902.55 201.62 C 898.43 207.37 890.51 207.67 884.17 206.87 C 875.39 201.27 874.26 189.43 874.82 179.99 C 873.78 171.58 879.87 163.37 887.68 160.83 M 887.03 167.99 C 882.14 174.19 884.11 182.73 884.00 189.99 C 882.94 196.41 889.49 199.26 893.20 203.04 C 899.32 192.76 899.74 179.52 895.47 168.48 C 894.55 164.74 888.77 164.87 887.03 167.99 Z" />
<path fill="#080808" opacity="1.00" d=" M 1599.25 264.21 C 1600.09 256.29 1609.06 255.32 1614.02 250.83 C 1614.99 251.63 1616.00 252.42 1617.04 253.20 C 1616.71 266.65 1615.93 280.09 1616.09 293.55 C 1617.67 295.00 1619.41 296.37 1620.62 298.19 C 1620.43 299.73 1619.93 301.22 1619.50 302.71 C 1613.71 301.99 1607.85 301.88 1602.09 302.62 C 1601.23 301.13 1600.31 299.67 1599.46 298.20 C 1601.61 297.08 1603.76 295.93 1605.90 294.77 C 1608.11 285.62 1606.45 276.29 1607.28 267.06 C 1604.60 266.10 1601.83 265.13 1599.25 264.21 Z" />
<path fill="#080808" opacity="1.00" d=" M 1661.12 261.13 C 1668.35 253.26 1685.27 251.90 1689.77 263.14 C 1692.86 269.49 1689.29 276.31 1684.57 280.57 C 1679.75 285.31 1674.75 289.89 1670.40 295.08 C 1677.81 295.60 1684.68 293.15 1691.43 290.51 C 1690.66 295.47 1690.49 300.81 1687.09 304.81 C 1676.89 303.04 1666.49 302.98 1656.24 301.91 C 1663.13 294.19 1672.29 288.79 1678.61 280.54 C 1678.15 276.87 1681.26 271.17 1677.43 268.62 C 1675.75 267.24 1673.88 266.15 1672.10 264.96 C 1668.83 268.29 1665.48 271.56 1661.63 274.22 C 1660.07 270.03 1657.57 264.98 1661.12 261.13 Z" />
<path fill="#080808" opacity="1.00" d=" M 1808.17 258.28 C 1810.56 254.04 1816.49 254.15 1820.02 256.92 C 1824.63 260.39 1825.48 266.52 1826.83 271.75 C 1831.24 270.88 1835.33 268.97 1839.37 267.02 C 1842.99 269.31 1845.34 272.93 1846.83 276.89 C 1837.49 276.30 1827.90 274.53 1819.19 278.94 C 1819.80 282.17 1819.65 286.37 1822.41 288.80 C 1828.57 289.52 1834.32 286.69 1839.98 284.75 C 1840.90 287.42 1841.44 290.12 1842.32 292.86 C 1835.45 292.94 1828.62 293.02 1821.80 293.07 C 1820.63 297.77 1821.42 302.55 1821.98 307.28 C 1829.00 307.10 1836.11 306.65 1843.00 305.00 C 1844.71 306.65 1846.40 308.32 1848.13 309.98 C 1847.24 310.90 1846.37 311.82 1845.54 312.76 C 1826.53 310.92 1807.50 313.93 1788.47 312.95 C 1789.03 310.23 1790.22 307.61 1790.77 304.87 C 1798.43 305.91 1806.08 306.64 1813.83 307.25 C 1814.07 302.60 1815.17 298.03 1815.18 293.38 C 1809.75 288.91 1802.88 293.31 1797.22 295.15 C 1796.53 292.35 1795.30 289.63 1794.51 286.91 C 1801.35 286.88 1808.23 289.10 1815.06 287.93 C 1815.74 284.22 1814.37 280.52 1813.96 276.86 C 1806.08 277.03 1794.95 280.94 1788.69 273.92 C 1789.66 271.53 1791.31 269.53 1792.88 267.51 C 1799.11 268.70 1805.47 269.62 1811.72 270.90 C 1812.50 270.15 1813.29 269.40 1814.10 268.64 C 1812.08 265.22 1809.38 262.11 1808.17 258.28 Z" />
<path fill="#080808" opacity="1.00" d=" M 1860.62 254.55 C 1864.56 256.53 1868.51 258.50 1872.56 260.30 C 1872.05 264.01 1872.59 268.89 1868.92 271.25 C 1865.20 269.88 1862.90 266.42 1860.17 263.76 C 1857.26 261.39 1859.50 257.32 1860.62 254.55 Z" />
<path fill="#080808" opacity="1.00" d=" M 1900.67 260.38 C 1904.26 259.33 1907.59 257.69 1911.17 256.52 C 1912.75 259.44 1915.05 262.57 1914.13 266.09 C 1911.32 281.27 1906.78 296.23 1907.83 311.87 C 1905.81 312.91 1903.81 313.96 1901.84 315.05 C 1899.26 313.25 1896.64 311.51 1893.93 309.94 C 1896.75 307.71 1900.73 305.96 1899.87 301.43 C 1895.85 298.83 1891.00 299.53 1886.65 300.68 C 1885.03 305.43 1888.52 314.60 1879.98 314.05 C 1879.76 303.18 1881.90 292.22 1879.77 281.43 C 1879.73 273.88 1878.38 266.43 1875.90 259.31 C 1884.22 258.25 1892.35 262.38 1900.67 260.38 M 1882.96 265.96 C 1885.75 267.70 1888.56 269.02 1891.79 269.96 C 1891.86 268.24 1891.95 266.53 1892.06 264.82 C 1888.99 265.19 1885.96 265.57 1882.96 265.96 M 1897.16 268.71 C 1900.38 268.64 1903.63 268.53 1906.91 268.39 C 1905.13 267.24 1903.57 265.20 1901.31 265.22 C 1899.77 266.20 1898.46 267.48 1897.16 268.71 M 1884.90 273.84 C 1888.36 274.64 1891.36 274.46 1895.10 274.16 C 1891.89 273.40 1887.93 273.43 1884.90 273.84 M 1898.90 273.84 C 1902.36 274.64 1905.36 274.46 1909.10 274.16 C 1905.89 273.40 1901.93 273.43 1898.90 273.84 M 1884.03 279.44 C 1883.98 280.65 1883.97 281.87 1884.01 283.09 C 1889.57 282.85 1895.17 282.54 1900.79 282.17 C 1895.67 279.19 1889.70 279.60 1884.03 279.44 M 1892.00 286.99 C 1891.97 288.33 1891.97 289.66 1892.00 291.00 C 1894.64 291.00 1897.30 291.00 1900.00 291.01 C 1899.98 289.67 1899.98 288.33 1900.00 287.00 C 1897.30 286.99 1894.63 286.99 1892.00 286.99 M 1888.17 289.17 C 1887.63 290.79 1888.18 291.35 1889.83 290.83 C 1890.33 289.20 1889.77 288.65 1888.17 289.17 M 1886.00 292.99 C 1886.00 293.50 1886.00 294.50 1886.00 295.01 C 1887.31 295.00 1888.64 295.00 1890.00 295.01 C 1890.00 294.50 1890.00 293.50 1890.00 292.99 C 1888.64 292.99 1887.31 292.99 1886.00 292.99 M 1891.95 292.81 C 1891.98 294.21 1892.03 295.62 1892.10 297.04 C 1895.20 296.37 1898.28 295.48 1900.93 293.65 C 1897.92 293.35 1894.92 293.07 1891.95 292.81 Z" />
<path fill="#080808" opacity="1.00" d=" M 1857.10 273.07 C 1861.08 273.68 1865.24 273.48 1869.23 274.22 C 1871.21 274.57 1871.50 276.77 1871.34 278.44 C 1870.67 286.00 1870.15 293.57 1869.84 301.15 C 1872.80 300.36 1875.78 299.57 1878.80 298.93 C 1876.26 305.21 1870.87 310.00 1864.57 312.35 C 1860.42 305.81 1864.63 298.45 1864.89 291.45 C 1864.64 286.63 1864.23 281.84 1863.89 277.04 C 1862.30 277.79 1860.72 278.54 1859.16 279.28 C 1857.99 278.17 1856.85 277.05 1855.72 275.96 C 1856.12 274.98 1856.58 274.01 1857.10 273.07 Z" />
<path fill="#080808" opacity="1.00" d=" M 1627.38 281.08 C 1637.52 281.00 1647.70 280.93 1657.88 281.08 C 1657.69 284.25 1656.82 287.23 1653.58 287.73 C 1646.10 289.30 1638.42 287.38 1630.95 286.96 C 1627.56 287.40 1627.84 283.61 1627.38 281.08 Z" />
<path fill="#080808" opacity="1.00" d=" M 379.28 297.99 C 379.37 289.54 389.36 290.58 394.91 288.57 C 395.02 302.38 395.02 316.19 394.98 330.01 C 396.60 330.36 399.84 331.07 401.46 331.42 C 400.71 332.87 399.92 334.31 399.12 335.74 C 392.51 334.51 385.78 335.35 379.12 335.44 C 380.92 332.70 383.21 330.34 385.64 328.16 C 385.98 318.82 386.43 309.46 385.57 300.14 C 384.00 299.60 380.85 298.53 379.28 297.99 Z" />
<path fill="#080808" opacity="1.00" d=" M 1085.10 290.98 C 1091.93 289.87 1098.81 288.78 1105.77 289.13 C 1109.36 291.40 1112.49 295.43 1112.60 299.79 C 1110.34 311.41 1100.42 318.96 1092.18 326.49 C 1098.85 331.29 1106.72 326.00 1112.56 322.22 C 1116.04 326.63 1113.06 331.48 1111.19 335.92 C 1100.92 334.31 1090.38 333.52 1080.12 335.59 C 1081.33 331.97 1083.76 328.94 1086.97 326.96 C 1092.85 323.18 1097.12 317.27 1099.87 310.93 C 1102.02 306.35 1101.83 296.81 1094.10 299.16 C 1089.76 297.98 1088.53 302.19 1086.51 304.68 C 1085.23 304.82 1083.96 304.96 1082.70 305.09 C 1083.36 300.35 1084.12 295.65 1085.10 290.98 Z" />
<path fill="#080808" opacity="1.00" d=" M 1605.40 352.19 C 1611.23 350.01 1618.49 353.67 1620.49 359.47 C 1620.88 363.56 1618.89 367.19 1618.02 371.04 C 1618.69 375.31 1621.20 379.07 1622.11 383.30 C 1622.39 391.49 1615.47 400.63 1606.60 399.53 C 1601.68 400.52 1596.25 398.49 1595.78 393.07 C 1598.93 387.80 1604.55 392.82 1608.96 393.08 C 1611.72 392.53 1614.14 390.91 1616.70 389.77 C 1615.42 386.65 1615.31 382.71 1612.88 380.14 C 1609.22 378.05 1604.99 377.34 1601.28 375.38 C 1604.52 373.06 1608.36 371.32 1611.00 368.21 C 1611.54 365.27 1612.04 362.32 1612.44 359.36 C 1606.54 360.11 1601.09 362.53 1595.43 364.15 C 1597.46 359.37 1599.93 353.69 1605.40 352.19 Z" />
<path fill="#080808" opacity="1.00" d=" M 1677.29 353.23 C 1679.91 353.13 1682.55 353.04 1685.22 352.95 C 1684.68 361.23 1683.84 369.50 1683.04 377.77 C 1686.73 380.36 1691.02 382.76 1691.97 387.69 C 1689.07 388.63 1685.99 389.48 1683.14 390.38 C 1683.82 393.48 1685.95 397.45 1682.58 399.76 C 1679.01 400.34 1675.75 399.31 1672.46 398.30 C 1672.97 394.68 1673.87 391.13 1674.76 387.59 C 1669.06 387.94 1663.37 388.07 1657.93 389.83 C 1656.88 387.95 1655.84 386.09 1654.81 384.22 C 1645.14 383.98 1635.36 384.57 1625.85 382.72 C 1626.71 380.85 1627.60 378.99 1628.47 377.12 C 1636.78 377.05 1645.20 376.46 1653.51 377.46 C 1654.68 378.36 1655.69 379.46 1656.78 380.50 C 1662.81 370.81 1670.68 362.50 1677.29 353.23 M 1671.36 368.27 C 1668.89 372.39 1665.95 376.20 1662.65 379.69 C 1666.29 380.39 1671.68 385.10 1674.51 380.60 C 1675.54 376.46 1674.81 372.06 1675.32 367.87 C 1673.98 368.00 1672.66 368.13 1671.36 368.27 Z" />
<path fill="#080808" opacity="1.00" d=" M 1801.19 353.10 C 1802.86 353.08 1806.19 353.05 1807.86 353.03 C 1809.54 355.95 1809.99 360.20 1813.51 361.49 C 1815.70 362.38 1817.98 363.15 1820.33 363.82 C 1819.64 360.14 1819.14 356.56 1818.17 352.98 C 1820.78 352.97 1823.41 352.98 1826.07 353.00 C 1827.76 356.31 1829.61 359.55 1831.21 362.93 C 1833.94 362.24 1836.92 361.57 1839.72 360.93 C 1840.41 361.71 1841.11 362.50 1841.84 363.28 C 1841.90 366.92 1842.00 374.20 1842.05 377.84 C 1832.46 376.48 1822.76 375.98 1813.12 376.01 C 1814.69 379.57 1816.56 385.15 1822.00 382.93 C 1829.90 383.34 1837.88 381.48 1845.77 382.63 C 1844.33 391.21 1844.03 399.94 1843.91 408.64 C 1838.53 410.31 1833.58 406.16 1828.14 407.51 C 1827.93 403.51 1827.72 399.51 1827.53 395.53 C 1826.33 399.66 1825.32 403.84 1824.04 407.95 C 1822.69 407.97 1821.37 408.01 1820.06 408.05 C 1819.95 403.36 1820.00 398.69 1819.96 394.01 C 1818.64 394.00 1817.34 393.99 1816.06 394.00 C 1815.95 398.65 1816.00 403.33 1815.95 408.00 C 1814.44 407.99 1811.40 407.98 1809.88 407.97 C 1810.44 403.14 1811.14 398.32 1811.48 393.47 C 1807.37 398.36 1803.85 403.77 1801.29 409.63 C 1799.75 409.74 1796.66 409.95 1795.12 410.05 C 1796.48 400.85 1795.23 391.57 1796.51 382.37 C 1793.88 382.98 1790.04 383.24 1787.85 383.83 C 1789.26 378.44 1793.13 374.35 1795.57 369.48 C 1798.30 364.35 1799.32 358.56 1801.19 353.10 M 1802.46 397.13 C 1813.01 388.42 1808.38 372.33 1807.03 360.82 C 1798.97 370.80 1803.07 385.39 1802.46 397.13 M 1815.78 365.85 C 1815.19 368.06 1814.44 370.23 1813.76 372.42 C 1819.81 373.25 1825.94 373.73 1831.99 374.85 C 1833.79 372.08 1835.42 369.24 1836.89 366.27 C 1829.83 366.11 1822.80 365.97 1815.78 365.85 M 1815.24 389.71 C 1816.84 389.84 1818.46 389.97 1820.11 390.10 C 1819.90 388.38 1819.48 384.94 1819.27 383.23 C 1817.83 385.33 1816.45 387.48 1815.24 389.71 M 1834.29 383.15 C 1834.34 386.44 1834.46 389.74 1834.64 393.03 C 1835.75 391.42 1837.54 390.03 1837.90 388.03 C 1837.39 386.01 1835.52 384.72 1834.29 383.15 M 1825.99 386.00 C 1825.97 388.00 1825.97 389.99 1825.99 392.00 C 1826.49 392.00 1827.51 392.00 1828.01 392.00 C 1827.99 389.99 1827.99 388.00 1828.01 386.00 C 1827.51 386.00 1826.49 386.00 1825.99 386.00 M 1834.16 393.73 C 1834.12 395.30 1834.02 398.44 1833.97 400.01 C 1835.32 400.00 1836.69 399.98 1838.09 399.97 C 1837.97 398.73 1837.87 397.49 1837.79 396.25 C 1836.55 395.42 1835.35 394.57 1834.16 393.73 Z" />
<path fill="#080808" opacity="1.00" d=" M 1898.69 356.72 C 1901.07 356.26 1903.70 354.44 1906.08 355.85 C 1908.97 357.12 1910.58 359.94 1912.42 362.34 C 1903.58 364.15 1894.56 363.29 1885.76 361.86 C 1886.54 367.72 1887.51 373.53 1888.42 379.38 C 1894.11 377.19 1900.19 374.17 1906.26 377.07 C 1904.95 379.25 1905.03 381.70 1904.05 383.93 C 1898.92 383.28 1893.70 382.65 1888.60 382.15 C 1887.66 382.95 1886.75 383.76 1885.86 384.58 C 1886.32 389.95 1887.25 395.24 1888.23 400.54 C 1896.64 400.38 1906.30 392.60 1913.78 399.27 C 1917.16 401.19 1914.40 404.96 1913.93 407.75 C 1897.23 407.00 1880.68 404.38 1863.97 404.01 C 1860.20 404.33 1856.70 403.60 1853.51 401.75 C 1858.06 400.13 1865.65 400.97 1866.89 394.84 C 1868.06 387.64 1866.03 380.23 1865.92 373.02 C 1868.69 373.01 1871.48 373.00 1874.30 373.01 C 1874.09 381.27 1872.93 389.49 1872.36 397.72 C 1874.19 401.68 1878.95 398.84 1882.30 398.72 C 1880.01 386.64 1881.75 374.32 1880.30 362.19 C 1872.03 361.06 1862.12 364.56 1855.04 358.93 C 1869.23 353.94 1884.58 361.90 1898.69 356.72 Z" />
<path fill="#080808" opacity="1.00" d=" M 494.64 415.84 C 496.12 416.97 497.63 418.06 499.16 419.15 C 498.40 427.86 497.02 436.54 497.13 445.31 C 498.81 445.73 502.16 446.58 503.84 447.00 C 503.16 450.58 500.69 453.19 497.86 455.20 C 497.36 458.07 496.97 461.01 496.53 463.91 C 488.86 464.47 489.37 456.80 488.43 451.68 C 482.35 451.91 476.28 452.40 470.39 453.99 C 470.78 437.32 487.22 429.01 494.64 415.84 M 478.58 443.83 C 481.94 445.23 485.44 446.10 489.03 446.79 C 488.93 441.64 488.72 436.47 488.55 431.34 C 484.79 435.14 481.86 439.63 478.58 443.83 Z" />
<path fill="#080808" opacity="1.00" d=" M 281.16 427.29 C 284.71 422.53 289.82 418.21 296.04 418.02 C 300.24 416.33 303.44 419.61 305.43 422.64 C 306.86 428.41 304.07 433.87 301.80 438.97 C 303.97 440.07 306.14 441.20 308.30 442.32 C 307.94 448.08 308.63 455.44 303.35 459.35 C 296.61 464.52 286.66 464.22 279.25 460.57 C 280.55 459.11 281.87 457.67 283.17 456.22 C 288.32 457.06 293.46 457.76 298.64 458.45 C 299.09 454.36 300.00 450.31 300.01 446.19 C 296.80 443.66 293.10 441.91 289.44 440.16 C 292.18 437.62 295.27 435.50 298.40 433.47 C 297.90 430.09 297.38 426.76 296.48 423.48 C 291.50 425.22 286.43 426.70 281.16 427.29 Z" />
<path fill="#080808" opacity="1.00" d=" M 1196.86 419.78 C 1201.94 416.91 1208.53 416.87 1210.86 422.88 C 1202.72 423.26 1193.98 427.14 1191.28 435.41 C 1195.74 435.37 1200.84 434.20 1204.53 437.43 C 1214.43 443.82 1210.53 461.59 1199.48 464.40 C 1191.29 467.72 1183.72 461.54 1180.25 454.62 C 1174.89 440.60 1184.06 425.49 1196.86 419.78 M 1189.55 441.83 C 1187.05 449.00 1188.47 460.26 1197.93 460.94 C 1199.53 454.75 1199.61 448.27 1198.21 442.04 C 1195.31 441.97 1192.42 441.90 1189.55 441.83 Z" />
<path fill="#080808" opacity="1.00" d=" M 674.95 424.64 C 677.90 419.62 685.11 420.23 690.03 419.87 C 693.91 419.43 698.15 424.64 694.86 427.85 C 690.36 431.89 683.02 429.08 677.66 430.65 C 684.15 434.44 690.57 438.80 695.15 444.85 C 698.21 451.41 693.35 457.62 688.64 461.68 C 683.76 466.72 675.68 464.07 669.54 465.45 C 668.78 463.20 667.09 460.05 670.32 459.04 C 675.55 458.89 680.80 459.81 686.04 460.09 C 687.26 454.11 688.22 447.92 686.11 441.97 C 679.92 440.97 673.64 440.82 667.45 439.87 C 670.06 434.85 672.85 429.91 674.95 424.64 Z" />
<path fill="#080808" opacity="1.00" d=" M 1669.34 453.38 C 1675.05 448.72 1682.57 448.02 1689.68 447.64 C 1691.29 454.12 1685.46 455.26 1681.10 456.34 C 1676.53 457.55 1672.97 460.84 1670.03 464.39 C 1678.08 465.73 1687.17 469.64 1689.95 478.03 C 1692.29 490.82 1675.77 502.88 1664.69 494.47 C 1656.31 490.51 1656.22 479.96 1656.96 472.00 C 1656.29 463.56 1663.58 458.12 1669.34 453.38 M 1670.30 471.14 C 1664.75 474.92 1667.56 482.79 1666.58 488.26 C 1670.72 488.96 1674.73 489.78 1678.94 490.50 C 1678.95 486.63 1678.97 478.89 1678.98 475.02 C 1676.31 473.31 1673.69 471.09 1670.30 471.14 Z" />
<path fill="#080808" opacity="1.00" d=" M 1821.28 448.26 C 1826.41 448.65 1831.93 450.74 1834.65 455.38 C 1837.36 459.80 1842.19 462.20 1845.29 466.31 C 1841.28 466.54 1833.24 467.02 1829.23 467.25 C 1828.84 467.71 1828.05 468.62 1827.66 469.08 C 1834.24 472.71 1840.05 477.90 1842.67 485.14 C 1840.08 485.84 1837.23 486.40 1834.73 487.06 C 1832.84 482.00 1830.42 476.06 1824.49 474.85 C 1825.30 482.71 1825.27 490.64 1824.80 498.52 C 1832.33 498.24 1839.48 495.96 1846.61 493.77 C 1845.26 496.97 1843.78 500.08 1842.03 503.08 C 1833.68 503.08 1825.33 503.31 1817.04 502.68 C 1810.92 502.38 1805.69 498.94 1800.05 497.01 C 1797.73 499.54 1795.01 501.64 1792.29 503.70 C 1790.55 501.01 1788.72 498.36 1786.93 495.75 C 1790.74 493.98 1794.54 492.25 1798.54 490.86 C 1797.99 487.38 1797.58 483.86 1796.97 480.40 C 1792.59 478.79 1787.28 477.59 1785.72 472.40 C 1791.72 472.17 1797.79 472.05 1803.86 471.95 C 1803.91 476.43 1804.09 480.95 1804.27 485.46 C 1805.02 485.69 1806.51 486.14 1807.26 486.37 C 1811.07 480.37 1814.82 474.21 1816.60 467.25 C 1813.70 467.17 1807.90 467.00 1805.00 466.92 C 1805.00 466.21 1805.00 464.79 1805.00 464.08 C 1809.11 464.00 1813.37 463.96 1817.58 463.95 C 1818.52 458.93 1815.97 451.53 1821.28 448.26 M 1826.64 454.96 C 1826.28 457.98 1825.98 461.02 1825.74 464.06 C 1827.37 463.98 1829.01 463.90 1830.68 463.83 C 1829.58 460.69 1828.63 457.61 1826.64 454.96 M 1805.52 492.89 C 1809.30 495.38 1813.69 496.46 1817.97 497.86 C 1820.44 492.36 1819.28 486.43 1817.91 480.80 C 1814.05 485.10 1809.87 489.10 1805.52 492.89 Z" />
<path fill="#080808" opacity="1.00" d=" M 1873.73 450.13 C 1879.56 445.59 1886.26 451.83 1887.32 457.85 C 1892.80 457.56 1898.35 456.92 1903.86 456.74 C 1907.09 457.36 1909.95 459.17 1912.93 460.53 C 1911.33 463.42 1909.96 468.70 1905.00 466.94 C 1894.40 468.61 1883.54 468.70 1873.24 471.90 L 1870.89 476.12 C 1878.70 476.10 1886.75 476.08 1894.23 473.41 C 1897.49 472.09 1900.29 475.90 1901.32 478.44 C 1896.11 478.68 1891.09 478.94 1885.96 479.12 C 1885.86 482.26 1886.09 485.50 1886.07 488.67 C 1893.28 487.88 1899.85 483.34 1907.30 484.60 C 1909.51 486.12 1911.12 488.32 1912.85 490.35 C 1907.82 491.20 1902.82 492.56 1897.70 492.04 C 1900.09 495.20 1904.08 497.89 1903.47 502.45 C 1901.93 504.69 1899.75 506.55 1897.15 507.40 C 1893.67 500.49 1889.44 494.08 1883.20 489.29 C 1880.79 489.99 1878.22 490.61 1875.95 491.31 C 1876.56 492.97 1877.23 494.62 1877.88 496.29 C 1870.57 499.87 1863.50 504.46 1855.13 505.03 C 1858.66 498.81 1865.52 495.84 1870.91 491.51 C 1866.07 490.15 1861.10 489.70 1856.15 490.51 C 1855.25 489.20 1854.36 487.90 1853.53 486.59 C 1856.23 485.67 1861.35 488.99 1863.45 485.52 C 1866.52 480.53 1863.80 474.36 1866.19 469.15 C 1866.69 467.59 1868.42 466.88 1869.96 466.95 C 1875.65 467.19 1881.65 466.51 1886.64 463.52 C 1886.18 463.02 1885.25 462.03 1884.79 461.53 C 1879.70 462.33 1874.57 461.74 1869.47 461.73 C 1864.43 461.16 1862.43 467.32 1858.12 468.58 C 1856.32 468.36 1854.63 467.56 1852.97 466.99 C 1854.96 462.91 1857.68 455.84 1863.45 456.62 C 1868.31 457.06 1873.27 457.72 1878.20 458.14 C 1876.73 455.45 1875.25 452.77 1873.73 450.13 M 1872.45 476.79 C 1871.43 479.77 1870.71 482.82 1869.67 485.79 C 1872.87 487.15 1876.07 488.12 1879.56 488.73 C 1880.38 485.56 1881.17 482.39 1882.05 479.24 C 1878.87 478.42 1875.62 477.43 1872.45 476.79 Z" />
<path fill="#080808" opacity="1.00" d=" M 1603.99 452.45 C 1609.86 452.04 1615.89 451.77 1621.63 450.20 C 1620.38 453.18 1622.24 458.45 1618.79 460.49 C 1614.13 460.49 1609.04 458.94 1604.84 461.77 C 1610.61 465.32 1617.09 468.25 1620.61 474.45 C 1621.41 480.07 1621.83 486.43 1618.19 491.21 C 1614.50 497.28 1606.25 497.42 1600.02 497.02 C 1596.58 497.08 1596.75 491.51 1594.90 490.05 C 1600.55 490.49 1606.33 491.03 1611.99 491.88 C 1615.72 487.68 1617.59 481.04 1613.51 476.45 C 1608.63 471.77 1601.32 471.55 1595.41 468.74 C 1599.21 463.85 1601.68 458.16 1603.99 452.45 Z" />
<path fill="#080808" opacity="1.00" d=" M 1790.81 453.96 C 1793.52 453.35 1795.99 452.59 1798.83 452.11 C 1801.85 453.98 1804.79 457.00 1803.93 461.03 C 1805.15 464.66 1798.53 463.95 1797.51 465.88 C 1795.38 461.84 1793.32 457.77 1790.81 453.96 Z" />
<path fill="#080808" opacity="1.00" d=" M 1624.92 476.75 C 1633.27 471.98 1643.57 474.67 1652.73 474.00 C 1653.42 474.75 1654.15 475.50 1654.89 476.25 C 1654.89 476.87 1654.89 478.12 1654.89 478.74 C 1654.13 479.51 1653.40 480.29 1652.70 481.08 C 1643.46 480.02 1633.57 480.61 1624.92 476.75 Z" />
<path fill="#080808" opacity="1.00" d=" M 861.04 546.36 C 869.50 545.32 878.08 545.48 886.62 544.98 C 885.27 558.55 879.09 570.86 876.10 584.03 C 875.09 587.59 874.53 591.80 871.66 594.48 C 869.10 594.03 866.77 593.69 864.26 593.33 C 868.72 580.46 875.11 568.23 877.26 554.63 C 872.87 555.44 867.94 554.49 863.99 556.92 C 861.24 558.64 859.42 561.41 857.21 563.72 C 857.89 558.31 854.25 549.26 861.04 546.36 Z" />
<path fill="#080808" opacity="1.00" d=" M 1595.84 544.89 C 1604.02 544.99 1612.23 545.06 1620.45 545.29 C 1621.38 546.08 1622.33 546.87 1623.30 547.68 C 1621.15 556.21 1616.79 564.03 1615.50 572.80 C 1613.52 580.35 1611.84 588.63 1606.82 594.84 C 1604.11 594.20 1601.79 593.54 1599.26 592.65 C 1605.50 580.51 1610.14 567.63 1614.44 554.70 C 1607.56 554.55 1597.44 554.05 1596.63 563.59 C 1595.18 561.95 1593.64 560.33 1592.69 558.35 C 1591.57 553.52 1594.29 549.25 1595.84 544.89 Z" />
<path fill="#080808" opacity="1.00" d=" M 1663.54 547.60 C 1669.72 544.48 1678.56 542.83 1684.12 547.86 C 1686.47 550.57 1688.94 553.72 1688.43 557.62 C 1686.59 561.52 1683.77 564.87 1681.07 568.19 C 1683.00 570.00 1684.91 571.83 1686.91 573.59 C 1686.38 578.67 1688.78 585.33 1684.18 589.17 C 1680.05 594.46 1672.29 593.23 1666.50 592.44 C 1661.86 591.28 1659.58 586.66 1656.84 583.24 C 1659.62 578.34 1662.38 573.42 1665.16 568.51 C 1658.09 563.68 1656.99 553.19 1663.54 547.60 M 1666.64 558.34 C 1669.65 560.83 1672.92 562.95 1676.80 563.95 C 1678.32 559.80 1679.38 555.08 1676.53 551.20 C 1670.89 549.30 1669.18 554.96 1666.64 558.34 M 1667.07 580.00 C 1664.34 587.12 1673.77 587.33 1677.67 588.00 C 1678.17 585.20 1678.26 582.29 1678.42 579.47 C 1677.59 575.67 1673.86 573.17 1670.13 572.93 C 1668.00 574.50 1665.32 576.63 1667.07 580.00 Z" />
<path fill="#080808" opacity="1.00" d=" M 1799.67 544.17 C 1806.27 544.06 1809.64 549.81 1812.38 554.77 C 1815.07 554.84 1817.79 554.90 1820.54 554.96 C 1819.54 551.52 1818.36 548.23 1817.04 544.93 C 1819.60 544.90 1822.97 545.14 1825.75 545.05 C 1826.62 548.41 1827.40 551.72 1828.32 555.11 C 1832.13 554.25 1835.80 553.27 1839.67 552.44 C 1843.43 558.64 1839.87 565.77 1838.62 572.26 C 1840.29 573.20 1841.95 574.20 1843.63 575.20 C 1841.86 584.16 1844.43 593.36 1842.21 602.24 C 1834.48 599.28 1826.23 598.89 1818.09 599.85 C 1817.97 595.55 1817.96 591.29 1817.96 587.01 C 1816.65 587.00 1815.36 586.99 1814.09 586.99 C 1814.92 590.82 1815.71 594.78 1815.16 598.71 C 1813.19 600.71 1810.39 599.05 1808.11 598.74 C 1808.92 594.68 1809.43 590.56 1809.93 586.46 C 1806.39 590.90 1803.89 596.03 1800.56 600.59 C 1798.83 602.99 1795.51 600.49 1793.09 600.77 C 1794.49 592.26 1794.86 583.63 1795.27 575.04 C 1792.28 575.67 1788.80 576.17 1785.95 576.76 C 1787.52 571.83 1790.55 567.64 1793.42 563.41 C 1797.27 557.74 1798.24 550.73 1799.67 544.17 M 1801.08 564.33 C 1800.92 572.88 1801.43 581.46 1800.65 590.01 C 1811.21 581.41 1808.33 565.46 1806.32 553.69 C 1803.25 556.41 1800.72 559.92 1801.08 564.33 M 1814.48 557.61 C 1813.59 559.40 1812.65 561.18 1811.73 562.96 C 1817.96 564.97 1824.54 565.82 1831.09 566.36 C 1834.71 566.59 1832.96 560.63 1834.90 559.36 C 1828.07 558.87 1821.24 558.42 1814.48 557.61 M 1814.00 569.00 C 1814.00 570.50 1814.00 573.52 1814.00 575.02 C 1821.49 574.97 1828.99 574.95 1836.53 574.87 C 1835.81 572.85 1835.05 570.86 1834.21 568.91 C 1827.45 568.96 1820.71 568.99 1814.00 569.00 M 1813.22 579.32 C 1814.43 581.58 1815.77 583.78 1817.20 585.93 C 1818.43 583.72 1819.63 581.49 1820.71 579.20 C 1818.83 579.23 1815.09 579.29 1813.22 579.32 M 1823.91 579.03 C 1823.99 580.26 1824.09 581.50 1824.21 582.75 C 1825.41 583.57 1826.61 584.42 1827.84 585.27 C 1827.88 583.70 1827.98 580.56 1828.03 578.99 C 1826.63 578.99 1825.26 579.01 1823.91 579.03 M 1831.91 579.03 C 1831.99 580.26 1832.09 581.50 1832.21 582.75 C 1833.41 583.57 1834.61 584.42 1835.84 585.27 C 1835.88 583.70 1835.98 580.56 1836.03 578.99 C 1834.63 578.99 1833.26 579.01 1831.91 579.03 M 1832.22 591.69 C 1833.18 593.22 1834.46 594.51 1835.71 595.84 C 1835.61 592.58 1835.51 589.33 1835.39 586.09 C 1834.23 587.85 1832.19 589.42 1832.22 591.69 M 1823.99 589.00 C 1823.97 590.99 1823.97 592.99 1823.99 595.00 C 1824.49 595.00 1825.51 595.00 1826.01 595.00 C 1825.99 592.99 1825.99 590.99 1826.01 589.00 C 1825.51 589.00 1824.49 589.00 1823.99 589.00 Z" />
<path fill="#080808" opacity="1.00" d=" M 1274.03 557.06 C 1277.75 548.46 1289.73 544.05 1297.95 549.02 C 1302.37 551.44 1304.15 556.93 1303.83 561.71 C 1302.04 564.08 1299.79 566.06 1297.82 568.25 C 1301.15 574.07 1305.67 580.30 1303.46 587.50 C 1302.19 592.26 1297.40 594.58 1293.98 597.57 C 1289.53 596.45 1284.83 596.00 1280.57 594.26 C 1276.02 591.68 1274.08 586.04 1274.04 581.08 C 1275.63 577.35 1279.15 574.93 1281.92 572.11 C 1277.78 568.11 1273.54 563.30 1274.03 557.06 M 1285.38 555.17 C 1286.73 559.56 1286.99 566.65 1293.76 566.13 C 1293.83 563.33 1293.97 557.75 1294.05 554.96 C 1291.14 555.02 1288.25 555.09 1285.38 555.17 M 1285.73 577.69 C 1280.67 582.19 1286.76 589.01 1291.02 591.64 C 1292.68 589.12 1294.26 586.56 1295.87 584.01 C 1293.00 581.07 1291.11 574.50 1285.73 577.69 Z" />
<path fill="#080808" opacity="1.00" d=" M 1888.03 550.77 C 1893.52 551.82 1898.06 548.24 1903.11 547.00 C 1907.62 547.99 1909.60 553.03 1911.16 556.81 C 1902.20 556.25 1893.25 555.32 1884.32 554.82 C 1885.27 560.42 1885.77 566.09 1886.40 571.76 C 1891.38 570.92 1896.00 568.82 1900.62 566.86 C 1902.35 568.66 1904.10 570.46 1905.89 572.26 C 1905.81 572.85 1905.65 574.03 1905.57 574.61 C 1898.99 574.72 1892.50 575.03 1885.99 575.07 C 1885.95 581.19 1886.00 587.34 1886.04 593.48 C 1893.62 592.49 1901.08 590.65 1908.42 588.51 C 1911.08 591.42 1913.83 594.51 1914.44 598.57 C 1895.64 599.08 1876.81 599.48 1858.03 598.82 C 1855.46 598.70 1854.64 595.69 1853.13 594.07 C 1855.83 593.50 1861.23 592.37 1863.93 591.80 C 1867.18 583.34 1865.63 573.88 1866.09 565.00 C 1867.56 565.00 1870.50 565.00 1871.97 565.00 C 1871.97 574.33 1871.99 583.66 1872.02 593.00 C 1874.66 592.99 1877.33 592.99 1880.03 593.00 C 1880.01 581.11 1880.01 569.23 1879.83 557.36 C 1879.03 556.68 1878.26 556.02 1877.52 555.35 C 1870.13 555.13 1862.78 554.94 1855.45 554.77 C 1856.57 552.75 1857.75 550.76 1858.96 548.79 C 1868.64 549.48 1878.32 550.41 1888.03 550.77 Z" />
<path fill="#080808" opacity="1.00" d=" M 1627.98 571.02 C 1636.97 570.96 1645.98 571.00 1655.01 570.99 C 1654.98 573.72 1654.97 576.46 1654.98 579.21 C 1645.23 577.51 1635.31 578.11 1625.51 577.03 C 1626.26 574.99 1627.10 573.00 1627.98 571.02 Z" />
<path fill="#080808" opacity="1.00" d=" M 1660.54 651.89 C 1665.24 646.55 1672.01 643.58 1678.94 642.44 C 1678.19 653.61 1677.60 664.82 1677.64 676.02 C 1677.36 681.03 1681.40 684.72 1683.56 688.84 C 1682.56 689.63 1681.61 690.45 1680.65 691.27 C 1674.86 690.97 1669.09 691.01 1663.34 691.48 C 1662.41 690.57 1661.47 689.66 1660.59 688.77 C 1670.47 680.35 1669.12 666.22 1669.02 654.53 C 1665.95 653.65 1663.42 652.92 1660.54 651.89 Z" />
<path fill="#080808" opacity="1.00" d=" M 1701.50 643.59 C 1704.10 643.45 1709.28 643.16 1711.87 643.02 C 1720.80 648.18 1723.22 659.47 1723.04 668.99 C 1723.27 675.01 1721.20 680.99 1717.91 685.97 C 1713.91 691.73 1705.32 693.52 1699.47 689.53 C 1691.21 686.16 1688.74 676.02 1688.88 668.01 C 1688.13 658.82 1692.05 646.91 1701.50 643.59 M 1699.69 654.63 C 1698.40 662.86 1698.26 671.72 1701.47 679.58 C 1702.97 683.22 1708.47 681.34 1711.10 682.88 C 1712.28 675.67 1713.21 668.35 1712.93 661.04 C 1713.07 655.56 1709.43 651.37 1706.10 647.53 C 1703.62 649.53 1700.69 651.41 1699.69 654.63 Z" />
<path fill="#080808" opacity="1.00" d=" M 1799.02 647.97 C 1799.23 644.55 1802.07 642.55 1805.37 641.94 C 1807.86 645.64 1810.44 649.36 1813.08 653.00 C 1815.92 652.88 1819.30 652.98 1822.28 652.94 C 1820.68 649.45 1819.02 645.98 1817.61 642.42 C 1824.60 641.91 1829.14 647.02 1831.39 652.88 C 1834.44 652.10 1837.59 651.35 1840.69 650.62 C 1841.54 657.03 1841.60 663.50 1840.60 669.92 C 1842.30 670.96 1844.04 671.95 1845.79 672.97 C 1844.28 681.41 1844.04 690.01 1843.88 698.58 C 1836.04 700.73 1828.62 695.34 1820.87 697.62 C 1819.96 696.96 1819.05 696.31 1818.18 695.68 C 1818.82 692.60 1819.26 689.45 1819.91 686.38 C 1818.75 685.50 1817.62 684.62 1816.50 683.75 C 1815.92 688.26 1816.76 693.07 1815.41 697.50 C 1813.99 698.94 1812.19 699.93 1810.54 701.05 C 1810.14 695.85 1810.00 690.71 1809.66 685.53 C 1806.33 690.24 1803.10 695.08 1801.05 700.51 C 1799.65 700.22 1796.86 699.65 1795.47 699.36 C 1791.31 691.79 1795.88 682.78 1796.82 674.83 C 1793.28 674.06 1789.96 673.20 1786.67 671.83 C 1793.19 665.41 1797.99 657.18 1799.02 647.97 M 1804.87 651.99 C 1800.83 662.06 1801.12 673.05 1800.65 683.68 C 1801.67 684.75 1802.65 685.80 1803.72 686.88 C 1805.77 684.16 1807.17 681.05 1807.91 677.71 C 1811.33 669.39 1807.66 660.50 1807.75 651.97 C 1807.03 651.98 1805.59 651.98 1804.87 651.99 M 1815.64 655.68 C 1815.11 657.64 1814.13 659.60 1814.34 661.68 C 1818.45 668.36 1828.24 663.66 1834.50 665.36 C 1834.31 662.34 1837.09 658.24 1833.55 656.54 C 1827.72 655.08 1821.50 656.20 1815.64 655.68 M 1816.02 665.83 C 1815.16 667.86 1814.30 669.89 1813.51 671.95 C 1821.90 672.02 1830.27 671.87 1838.70 671.62 C 1836.80 669.78 1835.06 667.68 1832.75 666.38 C 1827.23 665.37 1821.53 666.12 1816.02 665.83 M 1815.98 675.98 C 1816.05 677.59 1816.18 680.80 1816.25 682.41 C 1817.45 681.56 1818.69 680.74 1819.95 679.94 C 1819.96 678.63 1819.99 677.32 1820.04 676.02 C 1818.66 676.00 1817.31 675.99 1815.98 675.98 M 1825.99 676.00 C 1825.97 677.99 1825.97 679.99 1825.99 682.00 C 1826.49 682.00 1827.51 682.00 1828.01 682.00 C 1827.99 679.99 1827.99 677.99 1828.01 676.00 C 1827.51 676.00 1826.49 676.00 1825.99 676.00 M 1831.85 679.00 C 1832.94 680.07 1834.02 681.17 1835.12 682.28 C 1836.14 681.21 1837.20 680.15 1838.28 679.12 C 1837.15 678.04 1836.06 676.95 1835.00 675.85 C 1833.93 676.90 1832.88 677.95 1831.85 679.00 M 1825.99 686.00 C 1825.97 687.99 1825.97 689.99 1825.99 692.00 C 1826.49 692.00 1827.51 692.00 1828.01 692.00 C 1827.99 689.99 1827.99 687.99 1828.01 686.00 C 1827.51 686.00 1826.49 686.00 1825.99 686.00 M 1834.00 686.00 C 1834.00 687.50 1834.00 690.50 1834.00 692.00 C 1835.31 692.00 1836.64 691.99 1838.00 692.00 C 1838.00 690.50 1838.00 687.50 1838.00 686.00 C 1836.64 685.99 1835.31 685.99 1834.00 686.00 Z" />
<path fill="#080808" opacity="1.00" d=" M 1898.85 644.35 C 1902.82 642.14 1906.90 644.34 1910.79 645.29 C 1909.79 647.79 1910.31 651.66 1907.65 653.41 C 1900.35 653.32 1893.02 651.77 1885.81 653.42 C 1885.80 658.00 1885.99 662.65 1886.03 667.27 C 1893.51 667.45 1902.88 662.61 1909.11 668.55 C 1907.03 670.14 1905.26 672.34 1902.75 673.22 C 1896.96 673.62 1891.10 671.88 1885.44 673.51 C 1886.57 678.06 1884.16 684.43 1888.25 687.97 C 1895.86 689.08 1904.96 681.42 1911.79 687.25 C 1915.05 689.31 1912.38 693.26 1912.48 696.35 C 1892.72 695.97 1872.76 691.51 1853.16 695.73 C 1853.28 688.12 1860.32 688.07 1865.93 687.52 C 1865.91 678.50 1866.03 669.49 1866.08 660.49 C 1868.27 661.09 1871.41 662.01 1873.92 662.47 C 1872.39 670.15 1871.54 677.99 1872.02 685.85 C 1874.35 687.49 1877.08 687.78 1879.86 688.74 C 1880.03 676.55 1880.01 664.36 1879.99 652.18 C 1872.81 651.86 1865.72 651.36 1858.57 650.92 C 1857.14 650.02 1856.04 648.71 1854.87 647.57 C 1869.34 645.47 1885.03 650.18 1898.85 644.35 Z" />
<path fill="#080808" opacity="1.00" d=" M 1602.43 645.38 C 1606.67 645.09 1611.37 644.00 1615.56 645.46 C 1619.57 649.26 1623.18 654.17 1622.95 660.02 C 1622.96 666.39 1624.27 673.81 1620.26 679.34 C 1617.70 682.96 1615.00 686.64 1611.33 689.21 C 1606.81 691.91 1601.52 692.91 1596.64 694.70 C 1595.60 692.56 1594.49 690.46 1593.42 688.35 C 1600.21 684.75 1611.37 684.17 1612.69 674.65 C 1608.38 674.97 1603.57 676.09 1599.99 672.98 C 1590.94 666.20 1592.59 650.83 1602.43 645.38 M 1603.76 669.29 C 1608.44 669.38 1613.13 669.14 1617.80 668.65 C 1615.32 662.02 1615.34 651.96 1607.11 649.76 C 1600.91 654.06 1605.21 663.14 1603.76 669.29 Z" />
<path fill="#080808" opacity="1.00" d=" M 1625.98 669.73 C 1636.45 668.98 1647.05 668.60 1657.54 669.79 C 1656.70 671.90 1655.88 674.02 1655.01 676.13 C 1645.35 675.51 1635.67 675.22 1626.06 674.11 C 1626.02 672.64 1625.99 671.18 1625.98 669.73 Z" />
<path fill="#080808" opacity="1.00" d=" M 1406.63 685.19 C 1408.77 677.51 1417.32 675.55 1424.10 673.81 C 1425.07 687.19 1421.24 700.53 1423.25 713.90 C 1424.52 717.42 1427.23 720.16 1429.21 723.32 C 1421.54 723.70 1413.88 723.87 1406.24 723.85 C 1408.46 719.54 1412.66 716.13 1412.76 710.93 C 1413.27 703.78 1413.67 696.49 1412.72 689.38 C 1410.88 687.72 1408.68 686.53 1406.63 685.19 Z" />
<path fill="#080808" opacity="1.00" d=" M 1447.77 674.79 C 1456.53 670.50 1465.00 678.63 1466.14 686.99 C 1467.83 693.80 1470.40 700.82 1468.78 707.90 C 1466.81 713.89 1463.13 719.12 1460.04 724.56 C 1454.99 723.66 1448.66 725.49 1444.85 721.17 C 1435.69 713.58 1436.14 699.90 1437.91 689.27 C 1438.13 682.93 1442.72 677.99 1447.77 674.79 M 1448.26 712.84 C 1451.43 719.57 1457.99 713.59 1460.05 709.43 C 1461.38 698.87 1460.06 686.99 1451.92 679.36 C 1443.19 688.17 1446.32 702.11 1448.26 712.84 Z" />
<path fill="#080808" opacity="1.00" d=" M 1114.38 687.49 C 1117.64 682.24 1122.33 675.51 1129.53 676.78 C 1138.68 676.70 1147.10 684.80 1146.98 694.04 C 1147.58 702.31 1144.81 710.96 1138.82 716.82 C 1132.96 723.67 1123.79 725.51 1115.62 728.13 C 1114.60 726.91 1113.56 725.72 1112.52 724.55 C 1116.40 720.89 1121.85 719.92 1126.28 717.13 C 1128.96 715.36 1131.18 713.00 1133.47 710.78 C 1128.23 708.80 1121.60 708.92 1118.09 703.97 C 1114.67 699.47 1110.94 692.92 1114.38 687.49 M 1124.83 683.97 C 1124.97 687.03 1124.83 689.91 1125.12 693.04 C 1122.98 699.56 1130.62 701.65 1135.01 702.87 C 1137.05 696.50 1134.37 690.22 1132.81 684.08 C 1130.13 684.03 1127.47 683.99 1124.83 683.97 Z" />
</g>
</svg>
