<?xml version="1.0" encoding="UTF-8" ?>
<!DOCTYPE svg PUBLIC "-//W3C//DTD SVG 1.1//EN" "http://www.w3.org/Graphics/SVG/1.1/DTD/svg11.dtd">
<svg width="2068pt" height="750pt" viewBox="0 0 2068 750" version="1.1" xmlns="http://www.w3.org/2000/svg">
<g id="#111111ff">
<path fill="#111111" opacity="1.00" d=" M 75.18 43.70 C 76.03 41.37 76.84 33.91 81.03 35.85 C 86.13 37.91 91.33 39.74 96.39 41.87 C 101.50 44.32 100.21 51.24 102.68 55.48 C 104.64 57.62 107.33 58.85 109.75 60.38 C 109.86 61.49 109.97 62.60 110.08 63.71 C 107.35 63.92 104.72 64.18 102.03 64.41 C 100.87 72.42 95.76 78.81 92.47 85.97 C 94.61 87.66 96.61 89.56 98.96 90.97 C 102.05 89.13 104.34 86.25 107.24 84.16 C 108.16 89.89 109.10 95.62 110.08 101.33 C 105.33 100.66 100.07 101.84 95.67 99.51 C 91.73 97.59 88.94 94.08 85.79 91.16 C 81.26 94.10 77.30 97.95 72.27 100.06 C 67.89 101.82 63.83 104.22 59.56 106.21 C 56.69 103.10 52.38 101.32 50.22 97.62 C 53.65 95.30 58.55 94.31 59.75 89.79 C 60.94 87.63 58.35 86.20 56.93 85.05 C 53.58 85.78 50.65 87.67 47.65 89.22 C 45.12 86.12 42.94 82.75 40.97 79.27 C 42.03 78.35 43.08 77.42 44.14 76.49 C 47.97 77.21 51.94 77.29 55.60 75.61 C 58.08 73.43 57.48 69.83 58.08 66.85 C 52.57 65.11 42.41 67.03 42.21 58.37 C 48.13 59.04 54.05 59.64 59.98 60.20 C 59.97 58.58 59.96 55.36 59.95 53.74 C 55.66 54.39 51.37 55.03 47.11 55.81 C 45.36 53.40 43.68 50.95 42.23 48.35 C 49.96 47.07 57.41 44.67 64.81 42.20 C 68.49 39.73 71.89 42.41 75.18 43.70 M 85.42 42.88 C 85.04 48.04 84.95 53.20 84.80 58.37 C 89.13 59.00 93.47 59.53 97.83 59.97 C 94.02 54.08 90.62 47.68 85.42 42.88 M 67.01 59.89 C 69.90 59.90 75.68 59.92 78.57 59.93 C 77.74 56.63 77.45 53.11 75.81 50.08 C 68.74 47.21 67.49 55.37 67.01 59.89 M 66.47 66.40 C 66.25 67.58 66.03 68.77 65.82 69.95 C 68.37 69.97 73.46 70.00 76.01 70.02 C 76.00 68.65 76.00 67.28 75.99 65.90 C 72.82 66.07 69.64 66.22 66.47 66.40 M 84.38 66.18 C 85.50 69.17 86.67 72.15 88.06 75.03 C 89.23 72.28 90.20 69.46 91.11 66.61 C 89.43 66.51 86.06 66.29 84.38 66.18 M 66.33 80.39 C 65.57 84.41 66.08 88.55 65.87 92.62 C 67.31 93.57 68.73 94.56 70.16 95.54 C 74.58 91.50 78.89 87.34 83.19 83.18 C 80.91 79.23 78.65 75.18 77.80 70.63 C 75.38 75.34 70.17 77.15 66.33 80.39 Z" />
<path fill="#111111" opacity="1.00" d=" M 128.49 34.21 C 133.36 35.16 137.82 37.44 141.61 40.58 C 139.60 43.72 136.76 46.65 136.28 50.50 C 136.27 56.15 134.98 61.64 133.59 67.07 C 130.68 78.05 133.21 89.57 131.53 100.63 C 130.39 104.32 126.44 102.17 123.82 101.66 C 123.94 91.41 124.03 81.16 124.04 70.92 C 121.49 73.46 118.69 75.72 115.67 77.68 C 114.75 71.59 118.96 67.47 122.11 63.09 C 126.60 54.18 127.33 43.95 128.49 34.21 Z" />
<path fill="#111111" opacity="1.00" d=" M 143.75 40.40 C 142.80 38.31 144.69 36.35 145.35 34.44 C 151.15 36.42 155.12 40.94 157.70 46.31 C 165.47 45.77 173.34 45.89 180.81 43.30 C 182.42 44.07 184.05 44.82 185.70 45.54 C 184.55 63.84 185.08 82.27 183.49 100.54 C 181.65 102.55 179.24 103.89 177.10 105.54 C 173.26 103.07 169.16 101.03 165.15 98.85 C 165.07 97.61 165.00 96.37 164.92 95.13 C 167.87 95.04 170.88 94.99 173.84 94.92 C 173.75 80.59 174.70 66.30 176.22 52.06 C 169.10 52.26 161.78 50.36 154.77 52.19 C 152.89 52.59 150.95 52.51 149.03 52.60 C 143.87 69.05 146.71 86.40 145.22 103.30 C 142.75 102.55 140.40 101.85 137.99 101.06 C 138.06 84.85 137.50 68.50 140.10 52.44 C 143.25 52.04 146.44 51.65 149.58 51.10 C 147.77 47.46 145.43 44.10 143.75 40.40 Z" />
<path fill="#111111" opacity="1.00" d=" M 527.16 34.73 C 531.10 35.83 535.02 37.00 538.93 38.21 C 537.30 42.14 534.87 45.62 532.54 49.15 C 536.72 48.58 541.30 49.63 545.39 48.22 C 548.90 46.63 551.80 44.01 555.15 42.12 C 557.25 45.19 559.22 48.34 560.82 51.71 C 555.15 52.93 549.37 53.65 543.62 54.40 C 543.96 59.81 543.91 65.36 545.70 70.56 C 551.85 69.18 559.01 63.59 564.87 68.63 C 562.93 70.43 561.37 73.13 558.84 74.06 C 553.28 73.75 547.71 73.39 542.29 75.05 C 543.41 85.35 547.14 97.99 538.87 106.12 C 537.67 104.93 536.49 103.74 535.29 102.57 C 535.06 93.42 535.00 84.28 534.94 75.13 C 528.49 74.98 522.04 74.79 515.60 74.56 C 514.14 72.92 512.65 71.31 511.15 69.71 C 511.05 76.08 511.01 82.46 510.99 88.84 C 515.16 88.24 519.33 87.74 523.54 87.31 C 517.66 92.79 511.49 98.21 504.28 101.88 C 503.62 98.96 502.58 96.04 502.79 93.01 C 503.61 82.04 504.58 71.07 506.19 60.19 C 503.64 60.11 498.53 59.96 495.98 59.88 C 496.01 58.68 496.04 57.48 496.07 56.27 C 502.34 55.76 508.88 53.24 515.08 55.51 C 514.15 60.67 513.46 65.87 512.89 71.08 C 514.12 70.55 516.58 69.50 517.82 68.97 C 522.52 58.01 524.58 46.30 527.16 34.73 M 530.01 54.92 C 526.17 59.12 523.55 64.35 522.21 69.88 C 527.13 69.99 532.03 70.00 536.97 70.05 C 537.06 65.15 537.07 60.25 537.14 55.35 C 534.80 55.05 532.35 54.87 530.01 54.92 Z" />
<path fill="#111111" opacity="1.00" d=" M 602.66 34.38 C 607.43 34.85 611.86 36.69 616.00 38.99 C 615.25 40.95 614.49 42.91 613.77 44.88 C 618.14 44.36 622.49 43.54 626.90 43.37 C 629.90 44.89 631.83 47.82 633.91 50.37 C 627.86 53.37 622.15 57.48 618.43 63.19 C 618.46 66.33 619.39 69.36 619.96 72.44 C 623.94 71.93 627.93 71.17 631.83 70.16 C 633.48 72.93 635.16 75.69 636.86 78.45 C 626.68 84.08 619.47 93.92 608.75 98.67 C 597.79 103.32 585.93 105.70 574.07 106.19 C 575.60 105.44 575.23 100.60 577.59 100.01 C 585.75 98.88 593.85 97.22 601.67 94.60 C 600.93 91.35 600.19 88.13 599.12 84.99 C 592.94 89.40 586.10 93.13 578.26 93.09 C 580.81 89.97 584.00 87.47 587.60 85.67 C 592.50 83.30 595.78 78.82 599.29 74.83 C 591.20 76.81 583.36 79.96 575.03 80.80 C 572.96 81.04 572.20 78.66 570.96 77.47 C 580.01 73.81 590.79 73.75 598.76 67.76 C 598.70 64.29 597.50 60.96 596.87 57.59 C 591.73 60.76 586.32 63.75 580.09 63.95 C 583.35 59.31 588.25 56.22 591.95 51.96 C 596.43 46.73 600.20 40.84 602.66 34.38 M 603.43 49.83 C 601.06 54.83 605.19 58.93 607.57 62.94 C 611.57 59.05 614.66 54.36 618.28 50.13 C 613.33 49.99 608.36 49.91 603.43 49.83 M 605.85 81.05 C 607.15 83.74 609.51 86.89 612.77 86.92 C 615.78 84.82 617.89 81.73 620.16 78.90 C 615.97 77.89 608.07 75.77 605.85 81.05 Z" />
<path fill="#111111" opacity="1.00" d=" M 781.18 35.03 C 785.37 36.27 789.64 37.28 793.78 38.71 C 792.91 44.77 792.32 50.86 791.76 56.95 C 797.64 60.85 804.77 63.22 809.52 68.61 C 812.79 74.97 805.49 78.38 800.86 79.69 C 801.14 72.73 798.38 66.88 792.75 63.03 C 790.92 73.57 789.80 84.27 790.56 94.97 C 791.05 98.76 790.93 102.62 789.60 106.22 C 786.68 106.14 783.78 106.05 780.89 105.97 C 779.30 82.34 786.24 58.44 781.18 35.03 Z" />
<path fill="#111111" opacity="1.00" d=" M 858.46 38.00 C 864.73 37.53 870.99 36.49 877.13 35.13 C 879.60 37.16 882.09 39.22 884.55 41.29 C 882.65 59.81 881.53 78.42 880.85 97.03 C 882.51 101.96 878.48 104.66 875.32 107.10 C 873.92 104.52 872.55 101.92 871.30 99.27 C 859.85 99.00 848.40 98.64 836.95 98.98 C 830.64 97.27 827.68 103.43 822.98 105.85 C 821.10 105.13 819.43 104.00 817.72 103.00 C 819.48 87.37 822.93 71.84 821.89 56.06 C 821.44 55.95 820.54 55.74 820.09 55.63 C 820.88 54.51 821.69 53.40 822.50 52.27 C 820.77 47.38 820.67 42.11 820.24 36.99 C 832.91 38.88 845.72 37.75 858.46 38.00 M 828.21 46.12 C 837.20 52.46 849.24 47.71 859.40 48.82 C 860.11 47.22 860.87 45.63 861.65 44.05 C 850.55 46.14 839.06 42.51 828.21 46.12 M 865.90 46.69 C 867.81 47.70 869.74 48.67 871.71 49.60 L 871.96 44.00 C 869.95 44.92 867.92 45.82 865.90 46.69 M 829.49 53.54 C 829.95 57.18 829.12 61.04 830.47 64.50 C 831.25 67.86 836.31 64.35 837.95 66.03 C 844.75 68.51 845.31 60.10 845.74 56.12 C 840.41 54.78 834.92 54.13 829.49 53.54 M 853.40 53.90 C 854.18 57.97 855.00 62.06 856.03 66.09 C 857.77 64.86 859.44 63.46 861.40 62.53 C 865.53 61.55 868.02 65.13 870.82 67.29 C 868.06 68.74 865.16 69.96 862.33 71.23 C 862.86 76.89 867.16 80.99 871.74 83.83 C 872.13 74.13 872.00 64.42 871.98 54.72 C 865.78 54.72 859.57 53.97 853.40 53.90 M 827.06 75.26 C 827.71 78.50 828.37 81.73 829.05 84.96 C 833.11 85.00 837.19 85.03 841.28 85.07 C 842.91 80.06 844.09 74.91 845.34 69.80 C 838.73 70.00 831.35 69.37 827.06 75.26 M 852.94 74.29 C 852.68 77.02 852.15 82.49 851.88 85.23 C 853.27 84.95 854.66 84.67 856.07 84.38 C 855.14 80.97 854.16 77.60 852.94 74.29 M 828.98 89.00 C 828.99 90.36 829.01 91.73 829.04 93.10 C 842.65 95.17 856.33 92.82 870.00 92.81 C 869.99 91.54 869.99 90.28 870.00 89.02 C 856.32 88.97 842.65 88.98 828.98 89.00 Z" />
<path fill="#111111" opacity="1.00" d=" M 259.65 39.54 C 263.70 37.29 268.45 37.92 272.79 38.82 C 272.12 41.67 271.48 44.53 270.88 47.39 C 278.80 47.30 286.42 45.30 293.97 43.19 C 297.21 44.89 299.06 48.26 300.98 51.23 C 295.82 52.09 290.68 52.96 285.55 53.94 C 285.13 60.05 284.85 66.23 283.14 72.15 C 286.56 71.32 289.96 70.49 293.40 69.69 C 294.42 72.57 295.27 75.49 296.08 78.44 C 291.62 78.69 287.17 78.93 282.72 79.15 C 283.33 85.76 281.98 92.91 284.97 99.09 C 287.71 97.42 290.47 95.79 293.42 94.52 C 295.25 97.04 297.07 99.57 298.69 102.23 C 286.84 103.02 275.28 106.24 263.35 106.20 C 262.15 104.58 260.92 102.97 259.70 101.37 C 265.27 99.50 271.20 99.22 277.01 98.64 C 276.99 91.85 276.96 85.07 276.91 78.28 C 274.72 78.71 270.34 79.57 268.15 80.00 C 265.03 86.01 264.74 94.35 258.30 98.06 C 254.17 100.30 249.95 102.50 246.59 105.86 C 245.70 104.58 244.80 103.30 243.90 102.03 C 248.01 98.16 252.37 94.31 254.81 89.10 C 246.62 91.75 240.24 98.28 231.49 99.49 C 230.74 96.81 230.23 94.24 229.47 91.62 C 232.22 90.38 235.16 89.37 237.52 87.44 C 239.13 83.01 240.82 78.03 239.71 73.30 C 237.40 69.63 232.40 70.38 228.68 69.28 C 231.80 66.27 235.65 64.38 239.81 63.19 C 239.85 58.95 239.91 54.71 239.92 50.46 C 236.89 49.34 233.91 48.11 230.91 46.91 C 231.07 45.78 231.24 44.66 231.41 43.53 C 237.93 41.84 248.24 46.59 251.68 38.67 C 256.61 39.36 259.23 43.65 262.03 47.18 C 261.27 44.62 260.44 42.09 259.65 39.54 M 248.00 49.82 C 248.03 53.78 248.06 57.73 248.11 61.69 C 250.66 62.39 253.27 63.10 255.82 63.87 C 256.17 60.94 256.52 58.01 256.89 55.09 C 258.85 57.20 260.61 59.50 262.22 61.90 C 262.12 57.82 262.03 53.75 261.95 49.67 C 257.34 48.67 252.62 49.17 248.00 49.82 M 271.50 52.39 C 268.64 57.80 268.57 64.09 267.22 69.96 C 269.36 71.51 271.42 73.26 273.89 74.28 C 279.94 69.24 279.31 60.56 279.45 53.52 C 276.83 53.02 274.15 52.62 271.50 52.39 M 257.14 66.11 C 255.82 66.80 255.81 67.47 257.11 68.14 C 258.43 67.46 258.44 66.78 257.14 66.11 M 245.71 84.60 C 250.05 85.19 254.41 85.76 258.75 86.45 C 258.24 81.45 254.21 78.84 250.38 76.56 C 251.08 74.16 251.71 71.74 252.28 69.31 C 242.51 68.24 247.09 79.42 245.71 84.60 Z" />
<path fill="#111111" opacity="1.00" d=" M 391.49 36.47 C 395.35 37.12 399.15 38.08 402.93 39.11 C 402.93 40.74 402.94 44.01 402.95 45.65 C 401.49 46.10 400.04 46.56 398.59 47.04 C 403.54 48.45 408.74 48.09 413.84 48.40 C 417.88 48.82 420.60 45.28 423.38 42.95 C 426.33 44.33 429.28 45.73 432.19 47.20 C 431.39 49.45 430.84 51.72 430.06 53.96 C 418.36 53.97 406.67 54.02 394.98 54.04 C 394.12 55.99 393.29 57.96 392.51 59.95 C 399.62 61.47 406.98 61.74 414.17 60.49 C 417.40 59.59 419.50 62.63 421.76 64.35 C 415.44 75.39 418.79 88.72 419.89 100.69 C 416.81 103.31 413.87 107.05 409.16 105.89 C 405.84 103.92 403.19 101.01 400.40 98.37 C 403.78 97.29 407.93 97.21 410.79 94.75 C 410.51 92.11 409.63 89.59 408.91 87.06 C 402.41 87.03 395.92 87.01 389.43 86.99 C 389.29 92.20 388.96 97.40 388.43 102.58 C 386.78 105.51 383.04 105.76 380.20 106.76 C 380.02 95.99 380.00 85.23 379.73 74.47 C 375.67 77.16 372.51 80.88 369.55 84.70 C 366.88 84.79 364.22 84.87 361.56 84.93 C 364.10 76.82 372.50 73.70 377.52 67.52 C 380.85 63.74 383.01 59.09 384.58 54.34 C 378.66 55.36 372.60 54.75 366.76 53.59 L 364.83 49.32 C 372.83 49.07 380.84 48.98 388.85 48.92 C 389.77 44.78 390.66 40.63 391.49 36.47 M 391.52 66.19 C 390.69 68.21 389.82 70.21 388.95 72.21 C 396.29 71.79 403.66 71.36 410.93 70.10 C 410.96 68.71 411.01 67.33 411.06 65.94 C 404.54 66.00 398.03 66.09 391.52 66.19 M 386.70 78.76 C 390.76 79.97 394.88 81.09 398.90 82.48 C 402.06 81.02 405.36 79.97 408.76 79.17 C 408.84 78.56 408.99 77.34 409.07 76.73 C 401.59 77.06 394.07 77.37 386.70 78.76 Z" />
<path fill="#111111" opacity="1.00" d=" M 499.80 36.47 C 503.54 36.97 507.58 37.10 511.00 38.94 C 516.81 41.96 515.41 54.47 507.26 52.01 C 504.16 47.16 502.18 41.69 499.80 36.47 Z" />
<path fill="#111111" opacity="1.00" d=" M 756.69 36.43 C 760.23 37.30 763.80 38.34 767.32 39.37 C 766.20 42.62 764.99 45.82 763.61 48.96 C 764.31 49.98 765.03 50.99 765.79 51.99 C 769.32 50.72 772.90 49.17 776.72 49.05 C 779.10 52.02 778.82 56.05 778.05 59.58 C 777.10 66.57 772.87 72.34 769.08 78.05 C 764.89 84.35 759.95 90.62 753.07 94.12 C 748.72 96.42 743.70 96.60 738.91 97.08 C 742.82 89.94 752.72 89.92 756.97 82.97 C 759.14 80.98 756.18 79.04 755.14 77.30 C 755.05 74.17 754.96 71.05 754.52 67.95 C 750.75 71.26 746.84 74.70 741.60 75.36 C 744.77 69.38 749.00 63.85 750.85 57.26 C 752.97 50.36 753.36 42.92 756.69 36.43 M 759.47 56.17 C 758.63 58.35 757.73 60.51 756.85 62.67 C 760.41 64.85 763.62 67.53 766.71 70.32 C 768.29 65.59 769.50 60.75 770.95 55.99 C 767.11 56.06 763.28 56.12 759.47 56.17 Z" />
<path fill="#111111" opacity="1.00" d=" M 1020.87 40.26 C 1024.64 39.58 1028.13 37.81 1032.00 37.43 C 1035.85 37.91 1039.22 40.14 1043.10 40.63 C 1052.46 41.24 1061.89 39.58 1071.24 40.83 C 1069.99 49.20 1069.43 57.78 1066.61 65.82 C 1065.52 68.71 1062.83 70.75 1061.97 73.72 C 1061.31 82.81 1062.30 91.90 1062.74 100.97 C 1062.89 102.25 1061.91 103.24 1061.23 104.19 C 1058.66 108.15 1053.89 103.58 1050.85 102.33 C 1041.69 99.88 1032.02 101.14 1022.65 101.12 C 1021.07 104.02 1019.11 106.83 1015.14 105.99 C 1011.63 96.51 1014.98 85.79 1013.76 75.96 C 1010.98 73.16 1008.82 69.39 1009.86 65.21 C 1010.26 56.49 1009.86 47.75 1010.32 39.03 C 1013.83 39.53 1017.28 40.28 1020.87 40.26 M 1018.99 47.99 C 1019.01 52.76 1019.01 57.54 1019.10 62.31 C 1021.60 61.59 1024.29 60.89 1026.85 60.12 C 1026.09 58.08 1025.35 56.03 1024.68 53.97 C 1027.66 54.08 1030.46 54.22 1033.50 54.38 C 1036.17 57.21 1038.92 59.96 1041.71 62.66 C 1043.94 58.12 1043.87 52.94 1044.66 48.04 C 1036.09 48.00 1027.53 47.99 1018.99 47.99 M 1053.18 50.03 C 1051.66 54.57 1050.85 59.31 1049.77 63.97 C 1052.52 63.97 1055.28 63.97 1058.06 63.97 C 1058.94 58.43 1059.50 52.86 1060.12 47.30 C 1057.71 48.14 1054.89 48.09 1053.18 50.03 M 1018.43 71.64 C 1023.21 74.99 1029.26 73.56 1033.72 70.21 C 1032.48 68.70 1031.24 67.19 1030.02 65.68 C 1026.14 67.63 1022.25 69.58 1018.43 71.64 M 1047.33 68.85 C 1044.14 69.40 1041.58 71.56 1039.19 73.58 C 1044.14 73.92 1049.06 73.98 1054.06 74.13 C 1054.00 72.74 1053.95 71.34 1053.92 69.95 C 1051.72 69.56 1049.56 68.84 1047.33 68.85 M 1021.12 81.16 C 1021.06 81.98 1020.93 83.61 1020.86 84.43 C 1024.98 85.80 1029.29 86.23 1033.61 85.29 C 1032.83 83.09 1032.03 80.90 1031.17 78.74 C 1027.76 79.52 1024.49 80.36 1021.12 81.16 M 1041.98 82.11 C 1041.39 84.98 1044.49 85.61 1046.55 86.41 C 1050.11 87.62 1052.28 83.33 1054.83 81.61 C 1051.11 79.09 1044.44 77.04 1041.98 82.11 M 1020.45 92.08 C 1021.19 93.69 1022.06 95.29 1023.31 96.59 C 1026.60 96.62 1029.68 95.52 1032.94 95.09 C 1032.95 93.62 1032.97 92.15 1033.00 90.68 C 1028.78 91.12 1024.59 91.37 1020.45 92.08 M 1042.08 90.33 C 1042.04 91.90 1042.02 93.48 1042.01 95.06 C 1046.51 95.66 1051.41 97.20 1055.28 93.93 C 1051.12 92.01 1046.47 91.35 1042.08 90.33 Z" />
<path fill="#111111" opacity="1.00" d=" M 1095.67 37.03 C 1099.86 38.49 1104.08 40.85 1106.05 45.04 C 1108.31 48.96 1107.05 53.73 1106.16 57.87 C 1108.74 57.11 1111.23 56.40 1113.90 55.70 C 1112.39 50.30 1110.75 44.93 1108.26 39.89 C 1109.01 38.88 1109.75 37.88 1110.52 36.87 C 1114.87 39.26 1119.20 42.17 1121.42 46.79 C 1124.20 50.11 1117.98 54.79 1123.22 56.90 C 1125.24 51.76 1126.97 46.51 1128.50 41.20 C 1129.27 38.96 1131.84 35.91 1134.41 37.60 C 1137.35 39.33 1139.64 41.96 1141.65 44.68 C 1137.48 47.22 1134.07 50.78 1132.21 55.34 C 1137.89 56.25 1151.69 53.14 1149.08 63.99 C 1147.30 64.80 1145.36 65.08 1143.44 65.29 C 1141.15 67.04 1138.90 68.83 1136.62 70.56 C 1136.28 67.82 1136.28 65.08 1136.38 62.33 C 1123.20 61.90 1110.00 62.40 1096.87 61.31 C 1095.19 65.33 1092.74 71.47 1086.98 70.00 C 1085.14 70.11 1084.00 68.14 1082.93 66.91 C 1084.20 62.11 1087.61 58.30 1089.88 53.98 C 1092.98 54.46 1096.13 55.13 1099.19 55.87 C 1097.45 49.71 1095.26 43.52 1095.67 37.03 Z" />
<path fill="#111111" opacity="1.00" d=" M 1184.14 37.06 C 1189.04 37.44 1194.31 36.87 1198.98 38.88 C 1195.14 44.47 1195.33 51.42 1194.69 57.91 C 1198.81 57.94 1203.27 59.95 1207.37 58.37 C 1210.18 57.76 1213.14 55.53 1215.99 56.95 C 1218.43 58.01 1220.63 59.53 1222.84 61.01 C 1221.03 62.26 1219.36 63.78 1217.29 64.58 C 1209.87 65.39 1202.37 65.08 1195.00 64.03 C 1194.98 68.12 1194.99 72.21 1195.01 76.29 C 1201.32 78.60 1207.38 76.01 1213.10 73.57 C 1214.39 76.71 1215.45 79.89 1216.60 83.11 C 1209.22 82.70 1201.89 82.19 1194.59 81.14 C 1193.35 86.33 1193.56 91.75 1194.83 96.93 C 1200.15 97.72 1205.42 98.44 1210.77 99.16 C 1211.83 97.05 1212.87 94.93 1213.89 92.78 C 1217.23 94.21 1220.44 95.95 1223.72 97.52 C 1223.71 100.42 1224.01 103.33 1224.08 106.23 C 1216.02 105.91 1207.87 106.23 1199.95 104.63 C 1184.98 101.76 1169.66 103.28 1154.55 102.87 C 1155.40 100.95 1156.29 99.03 1157.17 97.11 C 1166.12 97.02 1175.10 96.96 1184.08 96.95 C 1185.44 92.53 1185.56 87.88 1184.27 83.40 C 1178.42 83.10 1171.75 84.21 1167.17 79.76 C 1168.24 78.61 1169.35 77.47 1170.44 76.32 C 1175.61 76.16 1180.79 76.02 1186.00 75.89 C 1185.97 71.78 1185.97 67.67 1185.99 63.57 C 1182.22 64.93 1176.52 62.07 1173.74 65.69 C 1168.09 73.06 1164.02 81.77 1157.16 88.15 C 1157.05 84.60 1156.41 80.09 1159.41 77.44 C 1167.25 69.65 1166.21 57.43 1168.75 47.54 C 1170.12 43.17 1176.10 44.77 1178.15 47.88 C 1181.96 50.70 1176.46 54.10 1175.20 56.89 C 1178.33 59.64 1182.34 59.55 1186.25 58.31 C 1185.82 51.20 1185.07 44.12 1184.14 37.06 Z" />
<path fill="#111111" opacity="1.00" d=" M 1098.95 66.50 C 1109.47 66.20 1120.04 65.66 1130.52 64.67 C 1132.61 66.01 1134.23 67.98 1135.52 70.09 C 1131.38 74.14 1125.57 75.60 1120.25 77.47 C 1120.17 78.21 1119.99 79.70 1119.91 80.44 C 1127.56 79.82 1135.40 79.05 1142.41 75.61 C 1144.46 78.50 1146.31 81.49 1148.03 84.60 C 1138.75 84.94 1129.45 84.55 1120.23 85.34 C 1118.03 87.73 1119.68 91.37 1119.38 94.08 C 1120.13 98.43 1119.47 102.78 1118.12 106.91 C 1111.21 106.74 1106.38 101.75 1101.26 97.91 C 1104.68 96.44 1108.26 95.42 1111.83 94.31 C 1111.87 91.88 1111.94 89.45 1112.02 87.02 C 1102.01 86.43 1091.85 86.46 1082.35 82.69 C 1083.63 81.08 1084.94 79.47 1086.24 77.86 C 1094.74 78.57 1103.15 79.75 1111.69 80.13 C 1112.41 77.69 1113.20 75.28 1113.93 72.85 C 1110.02 72.49 1106.16 72.02 1102.34 71.46 C 1100.80 70.12 1099.96 68.21 1098.95 66.50 Z" />
<path fill="#111111" opacity="1.00" d=" M 1402.87 149.86 C 1405.82 147.46 1408.71 144.35 1413.03 145.00 C 1416.49 144.71 1421.39 144.00 1423.71 147.47 C 1423.25 149.63 1425.35 153.92 1422.52 155.49 C 1417.25 159.31 1410.52 160.36 1405.21 164.07 C 1401.53 166.38 1399.00 170.04 1396.81 173.69 C 1389.51 190.59 1392.52 209.26 1392.90 227.00 C 1392.96 247.32 1396.77 267.52 1394.47 287.86 C 1393.25 297.56 1395.07 307.27 1394.97 317.00 C 1395.23 338.80 1394.61 360.62 1395.45 382.43 C 1395.67 410.27 1393.33 438.26 1396.70 466.00 C 1398.52 485.38 1394.71 504.64 1394.92 524.00 C 1395.04 543.17 1394.45 562.38 1395.92 581.52 C 1397.58 599.04 1394.33 616.48 1394.86 634.00 C 1394.67 648.19 1395.73 662.36 1398.02 676.37 C 1400.14 682.23 1405.42 686.00 1409.19 690.74 C 1411.84 693.71 1414.06 697.21 1417.36 699.53 C 1423.40 702.77 1430.31 704.10 1436.34 707.43 C 1436.64 708.96 1437.23 712.03 1437.53 713.56 C 1429.80 712.72 1423.23 708.35 1415.91 706.18 C 1407.30 703.84 1400.22 698.15 1393.92 692.08 C 1389.21 687.61 1385.59 681.61 1385.48 674.95 C 1383.08 649.35 1381.67 623.54 1384.23 597.89 C 1385.46 586.89 1382.80 576.00 1382.99 565.01 C 1382.86 548.33 1382.91 531.66 1383.00 514.99 C 1382.85 500.79 1385.83 486.63 1384.35 472.44 C 1383.01 447.03 1383.17 421.57 1382.53 396.14 C 1383.03 372.63 1383.68 349.07 1382.16 325.59 C 1381.79 311.70 1380.58 297.78 1382.42 283.93 C 1383.63 258.26 1380.25 232.64 1380.09 206.97 C 1380.16 199.56 1379.06 192.07 1380.29 184.71 C 1382.61 177.03 1384.19 169.04 1388.11 161.96 C 1392.07 156.85 1398.09 154.07 1402.87 149.86 Z" />
<path fill="#111111" opacity="1.00" d=" M 1981.06 157.37 C 1983.21 155.24 1984.92 151.64 1988.91 153.43 C 1994.15 154.84 1998.62 158.21 2003.77 159.94 C 2014.67 163.48 2026.20 170.81 2028.95 182.70 C 2031.15 197.36 2029.52 212.25 2030.00 227.01 C 2029.87 241.05 2032.44 254.95 2032.15 269.00 C 2032.42 288.96 2028.26 308.84 2030.73 328.80 C 2032.85 349.34 2031.68 370.01 2032.42 390.62 C 2032.68 394.67 2031.90 398.64 2031.40 402.62 C 2032.01 435.41 2032.93 468.20 2033.56 500.97 C 2031.64 518.12 2031.18 535.45 2032.86 552.65 C 2034.52 567.37 2033.64 582.21 2034.39 596.99 C 2034.57 601.54 2035.64 606.06 2035.18 610.63 C 2032.39 637.29 2035.24 664.13 2033.55 690.83 C 2031.78 697.31 2029.60 705.16 2022.67 707.82 C 2009.05 713.75 1994.15 716.53 1979.34 716.84 C 1983.11 714.13 1987.14 711.82 1991.57 710.31 C 1990.89 708.57 1990.24 706.81 1989.65 705.06 C 1999.63 701.67 2009.85 698.72 2019.01 693.37 C 2022.94 662.02 2016.72 630.36 2020.72 598.99 C 2021.02 592.59 2020.63 586.22 2019.78 579.89 C 2017.51 554.72 2020.64 529.30 2017.62 504.18 C 2018.66 504.04 2019.72 503.91 2020.81 503.78 C 2016.98 477.70 2020.04 451.23 2018.87 424.99 C 2018.88 414.62 2016.45 404.23 2018.19 393.89 C 2020.32 370.61 2018.62 347.25 2017.04 324.01 C 2015.87 307.14 2019.07 290.38 2018.14 273.53 C 2015.91 250.06 2017.99 226.45 2015.86 202.98 C 2014.24 196.21 2018.50 188.10 2013.96 182.02 C 2009.31 175.67 2000.85 174.16 1995.73 168.32 C 1991.75 163.58 1986.38 160.38 1981.06 157.37 Z" />
<path fill="#111111" opacity="1.00" d=" M 1440.37 187.36 C 1446.03 184.64 1451.27 181.15 1456.65 177.91 C 1457.37 178.69 1458.10 179.47 1458.86 180.25 C 1456.31 194.30 1456.92 208.66 1457.05 222.87 C 1459.29 224.01 1461.56 225.11 1463.84 226.20 C 1463.91 226.90 1464.04 228.28 1464.10 228.97 C 1457.72 228.98 1451.41 229.00 1445.08 229.00 C 1447.11 217.54 1447.79 205.78 1446.74 194.19 C 1445.26 191.40 1442.50 189.61 1440.37 187.36 Z" />
<path fill="#111111" opacity="1.00" d=" M 1729.40 180.54 C 1734.62 177.58 1740.56 179.61 1744.90 183.14 C 1748.38 185.87 1745.92 191.61 1748.10 195.00 C 1752.22 194.02 1755.82 191.54 1759.89 190.44 C 1764.73 191.23 1767.55 196.43 1765.64 200.93 C 1758.84 200.82 1752.07 200.97 1745.32 201.36 C 1741.37 203.77 1743.91 209.79 1742.39 213.32 C 1749.15 213.09 1755.93 211.50 1762.71 211.36 C 1766.05 212.70 1764.27 216.34 1763.74 218.91 C 1756.74 217.37 1749.61 218.56 1742.60 219.06 C 1743.63 223.45 1741.17 229.66 1745.28 232.93 C 1752.12 234.20 1758.44 231.42 1764.32 228.37 C 1766.22 231.20 1768.01 234.08 1769.58 237.13 C 1768.50 237.99 1767.44 238.85 1766.42 239.72 C 1750.05 239.98 1733.60 240.58 1717.32 238.92 C 1711.84 239.93 1709.74 235.49 1708.53 231.38 C 1717.35 230.80 1726.15 231.57 1734.81 233.32 C 1735.90 228.60 1734.71 223.87 1733.90 219.22 C 1726.78 218.40 1719.67 217.45 1712.58 216.65 C 1713.37 214.68 1714.22 212.73 1715.08 210.79 C 1722.32 211.37 1729.46 212.47 1736.72 213.12 C 1735.64 208.99 1734.08 205.04 1732.15 201.25 C 1724.11 200.98 1715.66 201.89 1708.36 197.93 C 1709.53 195.84 1710.70 193.75 1711.99 191.72 C 1719.68 192.23 1727.33 193.15 1735.00 193.99 C 1734.44 189.00 1732.00 184.69 1729.40 180.54 Z" />
<path fill="#111111" opacity="1.00" d=" M 1546.83 180.98 C 1553.45 178.82 1560.60 180.24 1567.17 182.06 C 1565.97 190.31 1569.46 200.51 1563.43 207.42 C 1559.50 211.95 1554.72 215.70 1551.16 220.55 C 1557.92 220.14 1564.64 219.37 1571.42 218.87 C 1570.63 222.26 1569.89 225.64 1568.94 228.99 C 1558.34 229.03 1547.75 229.01 1537.18 228.71 C 1542.51 219.43 1551.47 212.67 1556.01 202.91 C 1559.14 197.33 1554.61 191.23 1550.88 187.17 C 1547.30 189.45 1544.39 192.54 1541.28 195.37 C 1539.51 196.87 1537.29 195.31 1536.16 193.82 C 1536.93 187.75 1541.80 183.71 1546.83 180.98 Z" />
<path fill="#111111" opacity="1.00" d=" M 1784.24 180.06 C 1788.71 180.63 1792.54 183.27 1796.59 185.07 C 1795.18 188.09 1793.67 191.07 1792.11 194.02 C 1790.63 194.04 1789.17 194.09 1787.74 194.14 C 1785.79 190.24 1778.80 184.11 1784.24 180.06 Z" />
<path fill="#111111" opacity="1.00" d=" M 1827.81 181.19 C 1832.45 180.09 1836.79 184.26 1837.96 188.46 C 1836.92 189.46 1835.78 190.33 1834.70 191.23 C 1834.73 195.11 1835.39 198.99 1835.20 202.88 C 1834.47 209.85 1830.53 216.43 1832.03 223.61 C 1832.79 229.99 1836.72 237.74 1830.42 242.33 C 1826.10 239.61 1821.87 236.72 1818.23 233.13 C 1822.64 232.16 1825.14 229.50 1825.75 225.18 C 1820.76 225.08 1815.95 225.01 1811.05 224.98 C 1811.02 228.74 1810.96 236.26 1810.93 240.02 C 1809.13 240.02 1805.53 240.01 1803.73 240.00 C 1802.84 235.63 1802.15 231.20 1801.50 226.81 C 1797.26 230.75 1794.93 237.76 1788.33 238.00 C 1785.10 231.02 1788.30 223.26 1787.85 215.97 C 1789.20 209.62 1785.18 202.63 1778.25 202.24 C 1778.17 201.65 1778.02 200.48 1777.95 199.89 C 1783.49 197.28 1789.64 196.24 1795.64 197.77 C 1794.34 206.85 1794.05 216.04 1793.93 225.20 C 1796.66 223.72 1799.38 222.23 1802.12 220.75 C 1801.21 207.81 1800.61 194.88 1800.33 181.92 C 1809.48 183.67 1818.64 182.21 1827.81 181.19 M 1809.16 188.66 C 1807.61 189.61 1808.96 192.57 1810.68 191.50 C 1812.18 190.55 1810.82 187.65 1809.16 188.66 M 1820.60 188.28 C 1821.72 189.62 1822.87 190.96 1824.03 192.31 C 1825.11 190.94 1826.22 189.58 1827.33 188.20 C 1825.65 188.22 1822.29 188.26 1820.60 188.28 M 1830.14 188.11 C 1828.80 188.79 1828.79 189.47 1830.11 190.14 C 1831.41 189.46 1831.42 188.78 1830.14 188.11 M 1809.50 196.32 C 1808.41 198.02 1811.37 199.36 1812.34 197.84 C 1813.33 196.16 1810.43 194.79 1809.50 196.32 M 1820.55 197.46 C 1822.68 197.72 1824.85 197.97 1827.02 198.21 C 1826.98 197.52 1826.90 196.16 1826.86 195.48 C 1824.72 196.09 1822.62 196.73 1820.55 197.46 M 1808.41 206.63 C 1813.10 206.84 1817.71 206.86 1822.46 206.87 C 1823.23 205.45 1824.05 204.04 1824.90 202.64 C 1819.33 203.70 1813.78 204.83 1808.41 206.63 M 1821.17 217.17 C 1820.63 218.79 1821.18 219.35 1822.83 218.83 C 1823.33 217.20 1822.77 216.65 1821.17 217.17 Z" />
<path fill="#111111" opacity="1.00" d=" M 1860.50 180.32 C 1864.29 180.72 1866.45 184.78 1869.27 187.03 C 1865.63 189.48 1861.92 191.92 1859.01 195.25 C 1865.60 195.36 1872.26 195.60 1878.75 194.12 C 1879.54 189.43 1880.45 184.75 1881.29 180.07 C 1883.93 180.04 1886.59 180.02 1889.28 180.01 C 1888.78 184.95 1888.02 189.86 1887.30 194.77 C 1891.58 193.40 1895.68 191.51 1899.85 189.80 C 1901.70 192.77 1903.36 195.78 1904.92 198.94 C 1899.09 199.84 1893.17 200.15 1887.32 199.47 C 1886.43 200.37 1885.53 201.26 1884.68 202.16 C 1885.85 203.76 1887.05 205.36 1888.25 206.97 C 1891.83 205.93 1895.34 204.80 1898.95 203.80 C 1900.21 206.05 1901.47 208.31 1902.65 210.61 C 1891.14 211.25 1879.47 210.82 1868.28 214.00 C 1878.11 214.81 1888.12 214.63 1897.88 216.41 C 1896.25 224.40 1897.90 232.54 1897.97 240.59 C 1891.48 239.02 1885.28 235.60 1878.43 236.07 C 1877.28 237.41 1876.36 238.93 1875.43 240.40 C 1873.11 239.56 1870.77 239.08 1868.91 237.44 C 1868.14 234.44 1867.83 231.47 1867.29 228.45 C 1861.13 231.84 1855.22 235.69 1848.83 238.64 C 1847.79 235.60 1846.72 232.54 1845.82 229.47 C 1854.42 227.16 1862.76 223.98 1871.49 222.12 C 1864.14 217.56 1855.33 220.03 1848.18 223.52 C 1847.47 220.90 1846.59 218.23 1846.37 215.53 C 1848.22 213.84 1850.45 212.65 1852.60 211.35 C 1850.53 208.75 1848.30 206.31 1845.99 203.94 C 1851.03 196.19 1855.40 188.01 1860.50 180.32 M 1864.35 203.29 C 1860.93 206.50 1858.92 210.89 1857.46 215.27 C 1861.59 213.30 1865.93 211.35 1868.68 207.50 C 1871.25 207.33 1876.39 207.01 1878.97 206.84 C 1878.97 205.30 1878.97 202.21 1878.97 200.67 C 1874.13 201.59 1868.46 200.17 1864.35 203.29 M 1879.08 220.30 C 1874.89 221.77 1878.33 228.17 1876.50 230.98 C 1880.87 230.97 1885.27 230.95 1889.71 230.93 C 1888.18 227.39 1890.04 222.16 1886.61 219.53 C 1884.09 219.30 1881.45 219.41 1879.08 220.30 Z" />
<path fill="#111111" opacity="1.00" d=" M 1922.28 180.03 C 1925.16 180.07 1930.93 180.17 1933.81 180.21 C 1932.64 183.42 1931.25 186.47 1929.48 189.37 C 1931.91 191.39 1934.29 193.47 1936.40 195.86 C 1940.17 191.07 1942.20 185.26 1945.46 180.17 C 1949.44 180.24 1952.75 182.83 1956.21 184.50 C 1952.97 187.66 1949.76 190.82 1946.63 194.06 C 1951.88 193.86 1957.28 193.62 1962.57 193.12 C 1966.23 191.39 1969.02 194.14 1971.73 195.93 C 1969.39 208.19 1971.25 220.93 1968.11 233.06 C 1967.16 237.44 1962.96 240.34 1958.86 241.43 C 1954.03 240.49 1949.95 237.37 1945.99 234.61 C 1950.88 231.63 1958.16 231.64 1960.11 225.27 C 1952.36 223.30 1944.24 222.80 1936.99 226.73 C 1935.22 223.25 1933.62 219.71 1931.55 216.41 C 1931.22 223.77 1931.04 231.14 1930.91 238.51 C 1927.92 238.55 1924.95 238.69 1922.00 238.57 C 1921.91 232.00 1921.96 225.45 1921.94 218.89 C 1919.59 221.00 1917.32 223.13 1915.02 225.25 C 1914.00 224.43 1913.02 223.61 1912.06 222.80 C 1915.37 216.82 1917.83 210.45 1920.19 204.04 C 1915.77 203.76 1911.76 202.10 1908.71 198.98 C 1912.19 197.46 1915.82 196.44 1919.49 195.38 C 1920.26 190.23 1921.33 185.14 1922.28 180.03 M 1928.48 201.47 C 1930.52 202.62 1932.60 203.67 1934.74 204.68 C 1934.82 203.71 1934.98 201.77 1935.06 200.80 C 1932.85 201.02 1930.65 201.23 1928.48 201.47 M 1943.05 201.03 C 1942.17 202.91 1941.29 204.79 1940.48 206.68 C 1943.47 205.45 1946.13 204.29 1949.35 203.34 C 1949.89 206.31 1950.24 209.33 1950.10 212.35 C 1953.63 214.11 1957.23 215.75 1960.86 217.36 C 1960.91 211.90 1960.96 206.44 1961.04 200.99 C 1955.02 201.00 1949.00 201.01 1943.05 201.03 M 1939.54 206.55 C 1939.25 208.70 1939.01 210.86 1938.79 213.02 C 1939.48 212.98 1940.84 212.90 1941.52 212.86 C 1940.89 210.74 1940.25 208.63 1939.54 206.55 M 1945.17 217.17 C 1944.62 218.79 1945.18 219.35 1946.83 218.83 C 1947.33 217.20 1946.77 216.65 1945.17 217.17 Z" />
<path fill="#111111" opacity="1.00" d=" M 30.94 187.92 C 33.51 187.16 36.09 186.40 38.67 185.69 C 38.72 195.33 39.73 204.92 40.37 214.53 C 38.96 227.80 38.79 241.16 38.88 254.50 C 36.96 253.71 35.05 252.89 33.16 252.03 C 33.78 230.60 30.01 209.36 30.94 187.92 Z" />
<path fill="#111111" opacity="1.00" d=" M 1228.11 186.99 C 1229.43 187.42 1232.08 188.29 1233.40 188.73 C 1237.05 209.61 1235.94 230.90 1235.98 252.00 C 1234.51 252.00 1231.57 252.00 1230.10 252.00 C 1230.10 230.30 1228.25 208.68 1228.11 186.99 Z" />
<path fill="#111111" opacity="1.00" d=" M 624.67 192.81 C 630.66 191.19 639.10 192.65 642.10 198.82 C 645.80 207.72 648.02 217.63 646.33 227.26 C 644.84 234.47 639.87 241.54 632.30 243.06 C 624.20 245.75 616.55 239.59 613.61 232.40 C 610.82 224.01 611.70 214.79 612.29 206.12 C 614.75 200.60 618.47 194.55 624.67 192.81 M 623.54 198.87 C 620.26 212.09 620.69 226.91 627.22 239.11 C 634.05 236.64 638.35 229.17 637.21 222.01 C 637.80 213.95 635.54 206.18 632.24 198.95 C 629.33 198.95 626.43 198.92 623.54 198.87 Z" />
<path fill="#111111" opacity="1.00" d=" M 1476.02 204.04 C 1494.60 203.49 1513.32 203.58 1531.53 207.77 C 1533.05 209.19 1534.00 211.07 1535.14 212.80 C 1514.57 213.28 1494.15 209.76 1473.56 210.87 C 1474.33 208.58 1475.15 206.30 1476.02 204.04 Z" />
<path fill="#111111" opacity="1.00" d=" M 43.13 256.59 C 65.06 259.47 87.24 256.95 109.24 258.67 C 116.50 259.31 123.74 258.15 131.00 258.14 C 144.37 257.72 157.63 260.11 170.99 260.01 C 187.66 260.07 204.34 260.21 221.01 259.87 C 230.33 259.80 239.77 257.89 249.05 259.76 C 260.52 261.91 272.21 261.11 283.81 261.03 C 310.19 261.70 336.55 258.91 362.93 260.73 C 372.42 257.76 382.29 260.20 392.00 260.00 C 404.93 260.46 417.80 258.87 430.69 258.10 C 428.24 261.28 425.99 265.95 420.96 264.93 C 410.05 266.89 398.96 265.66 387.97 266.52 C 371.81 267.79 355.68 264.79 339.52 265.88 C 331.99 266.69 324.46 265.38 316.92 266.08 C 300.93 265.86 284.98 267.71 268.99 266.98 C 257.06 266.80 245.12 264.55 233.21 266.09 C 200.86 267.70 168.32 267.81 136.01 265.11 C 117.68 264.66 99.34 265.19 81.00 264.93 C 69.12 265.04 56.99 264.30 45.35 267.12 C 44.29 263.69 43.71 260.13 43.13 256.59 Z" />
<path fill="#111111" opacity="1.00" d=" M 431.10 258.44 C 454.14 256.27 476.98 261.08 500.00 260.09 C 521.99 259.31 543.97 257.32 565.98 258.35 C 582.89 259.75 599.85 258.73 616.79 258.85 C 630.55 260.20 644.23 257.38 658.00 257.90 C 672.39 257.65 686.60 260.47 701.00 260.14 C 727.00 260.65 752.93 256.63 778.93 258.47 C 799.37 260.94 820.07 260.49 840.58 258.94 C 876.41 256.52 912.30 262.85 948.08 258.60 C 978.72 257.21 1009.33 261.23 1040.01 259.98 C 1049.19 260.13 1058.33 258.47 1067.52 258.88 C 1074.37 259.64 1081.24 258.24 1088.08 259.20 C 1092.97 259.24 1097.64 261.08 1102.55 260.93 C 1129.00 259.24 1155.51 260.24 1182.00 259.95 C 1197.91 259.70 1213.64 262.38 1229.56 262.31 C 1229.68 264.00 1229.94 267.38 1230.07 269.07 C 1208.63 270.14 1187.42 265.97 1166.00 266.88 C 1150.39 267.20 1134.82 269.16 1119.19 268.39 C 1111.81 267.70 1104.40 267.70 1097.01 268.04 C 1095.59 267.35 1094.29 266.19 1092.64 266.28 C 1079.74 265.58 1066.88 267.19 1054.00 267.02 C 1031.33 266.86 1008.63 267.69 986.01 266.06 C 957.03 267.73 927.99 266.84 898.99 266.99 C 887.70 267.23 876.51 264.58 865.23 265.70 C 856.81 266.39 848.32 266.61 839.92 265.61 C 822.58 263.98 805.35 268.50 788.00 266.75 C 751.11 262.68 714.06 267.37 677.08 265.90 C 669.44 264.62 661.68 262.85 653.91 264.26 C 623.47 265.61 592.91 265.50 562.48 263.95 C 531.98 264.24 501.46 264.44 471.00 266.17 C 460.41 265.60 449.81 265.22 439.24 264.42 C 435.79 263.70 433.35 260.94 431.10 258.44 Z" />
<path fill="#111111" opacity="1.00" d=" M 1541.91 312.94 C 1548.46 304.51 1552.39 293.03 1562.84 288.52 C 1565.14 298.49 1564.69 308.82 1565.16 318.98 C 1564.41 322.69 1568.79 322.01 1571.52 322.86 C 1571.93 327.15 1570.13 330.72 1566.13 332.49 C 1565.45 335.96 1564.93 339.46 1564.55 342.98 C 1561.46 342.94 1558.77 343.00 1555.78 343.01 C 1554.88 339.09 1554.12 335.11 1553.41 331.18 C 1548.12 331.08 1542.85 330.99 1537.60 330.90 C 1537.61 324.66 1537.67 317.95 1541.91 312.94 M 1545.28 321.77 C 1548.19 321.89 1551.12 321.99 1554.07 322.08 C 1553.88 317.88 1553.71 313.68 1553.57 309.49 C 1550.52 313.39 1547.53 317.36 1545.28 321.77 Z" />
<path fill="#111111" opacity="1.00" d=" M 1441.91 294.90 C 1447.23 291.33 1455.11 290.00 1460.17 294.80 C 1466.39 298.57 1463.33 306.75 1462.52 312.76 C 1465.31 316.43 1467.38 320.79 1467.41 325.49 C 1469.75 333.54 1462.29 339.97 1455.72 342.71 C 1450.18 343.30 1443.98 344.00 1439.26 340.45 C 1438.12 337.65 1438.79 334.67 1441.28 333.24 C 1445.01 333.48 1448.36 335.38 1452.06 335.92 C 1454.77 335.47 1457.17 333.93 1459.68 332.83 C 1457.67 329.49 1458.94 322.60 1454.25 321.24 C 1450.85 320.13 1447.53 319.11 1444.23 317.81 C 1447.54 314.89 1451.65 312.85 1454.42 309.33 C 1455.75 306.36 1455.09 303.73 1452.42 302.45 C 1447.12 300.61 1443.12 304.79 1438.71 306.70 C 1439.21 302.91 1437.99 297.42 1441.91 294.90 Z" />
<path fill="#111111" opacity="1.00" d=" M 1722.00 290.60 C 1727.99 293.64 1732.79 298.38 1737.02 303.52 C 1738.71 302.81 1740.41 302.13 1742.16 301.48 C 1741.38 298.86 1740.52 296.26 1739.71 293.66 C 1741.94 292.73 1744.41 290.36 1746.90 291.96 C 1751.20 293.61 1752.34 298.52 1754.02 302.32 C 1755.66 301.47 1758.13 300.72 1759.96 299.82 C 1762.11 301.22 1764.32 302.55 1766.52 303.94 C 1765.99 308.74 1764.35 313.77 1765.82 318.53 C 1770.17 329.49 1770.59 342.13 1767.47 353.49 C 1757.30 348.68 1745.04 347.44 1734.95 353.07 C 1733.25 349.58 1732.69 345.71 1731.29 342.11 C 1728.68 345.32 1726.41 348.82 1724.93 352.70 C 1722.67 352.29 1720.19 352.26 1718.27 350.86 C 1717.70 341.47 1717.96 332.06 1717.64 322.67 C 1714.75 323.55 1711.62 324.13 1708.78 324.81 C 1710.44 318.20 1714.44 312.57 1716.99 306.33 C 1719.15 301.24 1720.10 295.77 1722.00 290.60 M 1726.98 337.67 C 1732.51 326.36 1729.45 313.05 1729.18 301.01 C 1721.65 312.10 1726.43 325.59 1726.98 337.67 M 1738.89 308.55 C 1738.47 309.92 1737.63 312.67 1737.21 314.05 C 1743.98 313.73 1750.82 312.17 1757.61 313.31 C 1757.27 312.04 1756.61 309.51 1756.27 308.24 C 1750.51 307.41 1744.59 307.92 1738.89 308.55 M 1738.44 318.23 C 1738.23 319.50 1738.04 320.77 1737.87 322.05 C 1745.80 321.98 1753.73 321.84 1761.70 321.49 C 1755.45 315.48 1746.11 318.59 1738.44 318.23 M 1741.17 329.80 C 1739.87 330.25 1740.39 332.65 1741.83 332.20 C 1743.07 331.74 1742.57 329.34 1741.17 329.80 M 1758.99 329.00 C 1758.97 330.33 1758.97 331.66 1758.99 333.00 C 1759.50 333.00 1760.50 333.00 1761.01 333.00 C 1760.98 331.66 1760.98 330.33 1761.01 329.00 C 1760.50 329.00 1759.50 329.00 1758.99 329.00 M 1759.45 336.53 C 1759.33 338.15 1759.08 341.39 1758.96 343.02 C 1760.36 342.97 1761.78 342.93 1763.22 342.90 C 1761.96 340.77 1760.72 338.64 1759.45 336.53 M 1741.17 339.80 C 1739.87 340.25 1740.39 342.65 1741.83 342.20 C 1743.07 341.74 1742.57 339.34 1741.17 339.80 Z" />
<path fill="#111111" opacity="1.00" d=" M 1879.07 292.90 C 1882.41 291.94 1885.91 291.50 1889.33 292.40 C 1888.73 296.77 1888.10 301.13 1887.41 305.49 C 1892.14 305.10 1896.90 303.87 1901.70 304.26 C 1903.10 306.51 1903.61 309.03 1904.74 311.49 C 1898.85 313.77 1886.52 307.69 1885.90 317.60 C 1892.06 317.50 1898.29 317.21 1904.45 317.88 C 1903.58 320.21 1902.73 322.55 1901.81 324.86 C 1891.40 324.97 1881.01 324.99 1870.63 325.33 C 1880.30 327.79 1890.75 325.07 1900.13 328.67 C 1900.02 335.97 1899.94 343.27 1899.88 350.58 C 1897.97 351.29 1896.11 352.04 1894.25 352.81 C 1891.78 350.86 1889.53 347.89 1886.11 347.86 C 1881.36 346.91 1877.21 349.99 1873.69 352.73 C 1873.26 352.55 1872.39 352.19 1871.95 352.01 C 1871.36 348.27 1870.94 344.55 1870.36 340.83 C 1863.20 343.03 1856.95 347.32 1849.86 349.69 C 1849.10 346.94 1848.30 344.11 1847.81 341.35 C 1855.97 338.24 1866.21 338.46 1872.25 331.33 C 1864.03 330.80 1856.13 333.28 1848.23 335.06 C 1847.62 332.37 1846.90 329.66 1846.37 326.96 C 1848.98 325.34 1851.47 323.51 1853.91 321.63 C 1851.01 319.73 1848.21 317.84 1845.57 315.65 C 1852.27 309.91 1855.75 301.59 1856.76 292.95 C 1860.21 292.93 1864.86 292.76 1866.82 296.34 C 1867.62 300.38 1864.76 303.26 1862.83 306.31 C 1868.17 306.97 1873.52 306.09 1878.92 306.01 C 1878.89 301.63 1879.03 297.27 1879.07 292.90 M 1869.32 312.25 C 1865.45 316.31 1862.08 320.83 1859.43 325.78 C 1860.89 325.83 1862.37 325.89 1863.87 325.95 C 1865.52 323.28 1867.22 320.65 1868.99 318.06 C 1872.95 318.01 1876.95 317.96 1880.99 317.91 C 1880.99 316.42 1880.99 313.44 1880.98 311.95 C 1877.06 312.04 1873.17 312.15 1869.32 312.25 M 1878.36 332.95 C 1877.92 336.48 1877.96 340.05 1878.45 343.58 C 1880.96 343.25 1885.99 342.61 1888.51 342.28 C 1891.99 340.68 1890.49 335.76 1891.73 333.05 C 1887.24 333.00 1882.78 332.97 1878.36 332.95 Z" />
<path fill="#111111" opacity="1.00" d=" M 1919.92 293.73 C 1923.31 292.68 1926.66 291.76 1930.18 291.03 C 1930.91 297.05 1931.65 303.12 1933.33 308.98 C 1942.08 308.24 1938.86 298.28 1943.36 293.55 C 1946.03 293.31 1951.38 292.84 1954.05 292.60 C 1953.84 297.94 1950.49 301.89 1946.97 305.40 C 1951.68 307.62 1957.00 307.47 1961.82 305.68 C 1965.28 303.98 1971.16 305.68 1971.40 309.93 C 1970.02 323.08 1973.77 338.81 1965.16 350.23 C 1960.56 354.64 1954.04 349.66 1949.09 348.82 C 1949.03 347.49 1949.00 346.17 1948.99 344.85 C 1952.27 344.05 1955.58 343.34 1958.93 342.63 C 1958.92 341.39 1958.94 340.16 1958.98 338.93 C 1951.76 337.56 1944.29 336.90 1937.10 338.68 C 1935.32 334.53 1933.69 330.35 1931.64 326.35 C 1931.13 334.84 1931.05 343.36 1930.83 351.87 C 1927.98 350.93 1924.45 351.29 1922.56 348.63 C 1922.28 344.19 1923.35 339.79 1923.72 335.39 C 1922.87 334.69 1922.08 333.99 1921.29 333.29 C 1918.88 334.99 1916.36 336.53 1913.75 337.84 C 1914.60 329.89 1918.24 322.68 1920.17 314.99 C 1916.85 313.86 1913.95 312.54 1910.96 310.89 C 1914.56 309.36 1918.34 308.37 1922.14 307.31 C 1921.40 302.76 1920.77 298.25 1919.92 293.73 M 1934.36 318.83 C 1933.44 317.07 1931.61 313.55 1930.69 311.78 C 1931.63 314.27 1932.89 316.61 1934.36 318.83 M 1945.42 312.26 C 1943.97 313.98 1942.52 315.70 1941.06 317.39 C 1943.42 317.74 1948.15 318.43 1950.51 318.78 C 1952.49 319.82 1952.06 322.22 1952.17 324.08 C 1955.15 325.98 1958.15 327.86 1961.04 329.92 C 1961.01 323.93 1960.95 317.93 1960.98 311.94 C 1955.77 312.03 1950.58 312.14 1945.42 312.26 M 1939.54 319.55 C 1939.25 321.70 1939.01 323.86 1938.79 326.02 C 1939.48 325.98 1940.84 325.90 1941.52 325.86 C 1940.89 323.74 1940.25 321.63 1939.54 319.55 M 1947.18 327.32 C 1945.67 328.31 1947.33 330.84 1948.82 329.68 C 1950.27 328.68 1948.62 326.15 1947.18 327.32 Z" />
<path fill="#111111" opacity="1.00" d=" M 1819.58 296.27 C 1821.72 295.41 1823.51 293.91 1825.45 292.66 C 1829.28 295.95 1833.09 299.50 1835.12 304.24 C 1831.77 304.53 1829.02 305.29 1826.03 303.97 C 1821.08 301.80 1815.78 304.95 1810.82 305.76 C 1811.71 309.92 1812.54 314.07 1813.37 318.25 C 1818.55 317.75 1823.65 316.68 1828.81 315.92 C 1829.64 319.46 1830.39 322.99 1831.22 326.55 C 1825.17 325.68 1819.06 325.20 1813.04 324.72 C 1812.95 330.30 1812.91 335.89 1812.91 341.47 C 1820.58 343.60 1827.94 338.62 1835.64 340.88 C 1836.51 343.61 1837.48 346.31 1838.39 349.04 C 1819.69 347.55 1800.98 349.38 1782.30 348.73 C 1780.90 347.18 1779.99 345.28 1779.00 343.47 C 1781.74 343.30 1787.23 342.97 1789.97 342.80 C 1789.90 334.18 1789.61 325.55 1790.03 316.95 C 1789.99 315.24 1790.82 313.69 1792.20 312.70 C 1794.15 312.92 1796.02 313.53 1797.95 313.98 C 1797.96 323.65 1797.96 333.32 1798.03 343.00 C 1799.52 343.00 1802.49 343.00 1803.98 343.00 C 1803.83 330.00 1805.14 316.78 1802.56 303.94 C 1794.69 303.96 1786.86 303.98 1779.03 303.79 C 1779.87 299.00 1784.91 298.97 1788.55 298.02 C 1798.88 297.36 1809.25 297.55 1819.58 296.27 Z" />
<path fill="#111111" opacity="1.00" d=" M 313.96 301.55 C 316.15 302.24 318.31 303.01 320.47 303.80 C 317.44 312.32 317.12 321.69 319.22 330.48 C 321.95 342.11 320.95 354.15 321.05 365.99 L 316.25 365.98 C 314.79 344.52 314.99 323.03 313.96 301.55 Z" />
<path fill="#111111" opacity="1.00" d=" M 35.03 305.99 C 37.21 305.21 39.37 304.32 41.57 303.65 C 43.31 316.06 42.50 328.56 43.78 341.00 C 43.55 350.36 46.95 361.76 39.56 369.28 C 44.92 370.73 50.42 371.67 55.97 371.87 C 90.97 372.88 126.09 370.30 161.00 373.78 C 178.39 375.15 195.63 371.70 213.00 371.89 C 228.37 371.77 243.77 371.80 259.08 373.32 C 280.35 374.77 301.69 373.70 322.99 374.00 C 322.99 375.33 323.00 376.67 323.00 378.01 C 302.78 378.16 282.51 377.19 262.34 379.15 C 258.33 380.35 254.65 378.68 250.95 377.54 C 238.98 376.58 226.99 378.30 215.00 378.02 C 181.79 378.52 148.62 377.04 115.43 377.29 C 92.14 378.83 68.72 376.88 45.49 379.24 C 41.33 378.34 36.59 378.37 33.06 375.72 C 32.53 373.26 34.91 372.11 36.50 370.82 C 33.81 349.32 35.30 327.60 35.03 305.99 Z" />
<path fill="#111111" opacity="1.00" d=" M 1231.26 305.93 C 1233.08 304.42 1235.48 304.14 1237.76 303.34 C 1235.05 325.68 1239.19 348.09 1237.92 370.49 C 1235.93 369.69 1233.98 368.87 1232.04 368.02 C 1232.04 351.59 1232.26 335.14 1231.02 318.76 C 1230.99 314.49 1230.72 310.17 1231.26 305.93 Z" />
<path fill="#111111" opacity="1.00" d=" M 164.36 313.35 C 169.77 309.87 175.34 306.42 181.84 305.42 C 182.25 310.53 183.59 315.65 183.08 320.81 C 181.67 330.61 184.20 340.33 184.80 350.08 C 186.32 351.98 187.59 353.82 188.94 355.92 C 181.54 355.36 172.53 358.41 166.60 352.51 C 169.08 351.20 171.56 349.91 174.05 348.62 C 174.12 336.50 175.45 321.53 164.36 313.35 Z" />
<path fill="#111111" opacity="1.00" d=" M 361.93 306.00 C 363.23 306.00 364.53 306.00 365.84 306.00 C 365.41 326.57 369.01 346.98 367.86 367.56 C 366.63 368.57 365.40 369.58 364.18 370.61 C 363.41 368.44 362.57 366.20 362.80 363.86 C 364.92 344.56 360.81 325.33 361.93 306.00 Z" />
<path fill="#111111" opacity="1.00" d=" M 782.62 322.98 C 780.94 314.14 788.18 305.83 797.00 306.12 C 800.53 306.96 805.82 306.35 808.12 309.90 C 812.76 315.32 813.38 323.67 809.84 329.83 C 806.82 336.44 800.32 340.48 796.97 346.87 C 803.76 346.76 810.59 346.38 817.29 345.09 C 816.28 348.69 815.19 352.26 814.14 355.85 C 804.78 356.15 795.35 355.87 786.14 357.73 C 784.90 356.39 783.64 355.07 782.39 353.77 C 789.00 345.23 798.21 338.15 801.22 327.34 C 803.42 323.00 801.07 318.82 799.16 315.07 C 792.34 314.60 787.70 319.50 782.62 322.98 Z" />
<path fill="#111111" opacity="1.00" d=" M 1473.08 318.67 C 1493.20 316.26 1513.44 316.64 1533.60 318.43 C 1534.36 319.25 1535.16 320.06 1535.96 320.88 C 1535.10 322.15 1534.25 323.42 1533.44 324.71 C 1523.38 326.53 1513.09 326.60 1502.99 325.14 C 1494.88 324.74 1486.58 321.33 1478.67 324.83 C 1476.74 322.83 1474.81 320.83 1473.08 318.67 Z" />
<path fill="#111111" opacity="1.00" d=" M 369.35 373.61 C 370.43 372.53 371.53 371.47 372.62 370.40 C 379.69 375.46 388.43 371.84 396.32 372.96 C 402.64 374.56 408.63 377.19 414.71 379.51 C 407.75 379.79 400.76 379.76 393.97 378.03 C 385.81 376.26 376.90 377.60 369.35 373.61 Z" />
<path fill="#111111" opacity="1.00" d=" M 428.52 374.32 C 452.19 370.54 476.20 374.78 500.00 374.14 C 517.74 374.67 535.27 371.17 553.01 371.86 C 567.70 371.58 582.24 374.96 596.95 373.58 C 627.57 370.97 658.39 371.46 689.00 373.91 C 718.54 372.20 748.18 370.86 777.78 372.58 C 798.10 375.89 818.57 371.42 838.98 373.18 C 854.32 371.84 869.65 373.55 885.01 373.01 C 924.96 376.61 965.09 369.36 1004.98 373.80 C 1035.63 372.40 1066.36 370.58 1097.01 372.97 C 1107.36 373.64 1117.63 372.02 1127.99 372.02 C 1146.32 371.90 1164.66 371.87 1183.01 372.07 C 1197.36 372.18 1211.83 374.53 1226.15 372.50 C 1226.96 374.28 1227.73 376.07 1228.49 377.88 C 1210.22 382.47 1191.49 377.04 1173.00 377.88 C 1146.74 376.91 1120.57 381.46 1094.34 379.22 C 1077.23 378.45 1060.06 377.89 1043.01 379.93 C 1023.32 378.36 1003.52 381.37 983.91 378.63 C 951.97 377.66 919.99 381.71 888.02 379.53 C 858.45 376.63 828.65 378.29 798.99 378.15 C 792.64 377.53 786.00 380.84 779.87 378.25 C 776.78 377.29 773.61 376.30 770.36 376.76 C 746.38 379.49 722.22 376.85 698.20 378.56 C 690.58 379.56 682.85 379.81 675.18 379.14 C 640.34 376.38 605.34 379.27 570.46 377.43 C 563.30 377.00 556.14 377.81 549.00 377.86 C 528.93 378.49 508.78 376.98 488.78 379.08 C 480.15 379.23 471.62 377.18 463.01 377.08 C 455.52 377.32 448.03 377.48 440.57 376.84 C 435.48 376.51 430.82 379.07 425.99 380.26 C 426.85 378.29 427.70 376.31 428.52 374.32 Z" />
<path fill="#111111" opacity="1.00" d=" M 1552.13 408.17 C 1557.19 405.05 1563.37 404.67 1568.95 402.84 C 1569.79 404.79 1570.62 406.75 1571.43 408.74 C 1563.64 410.08 1556.55 414.00 1552.17 420.67 C 1559.20 422.66 1568.69 423.60 1571.79 431.37 C 1575.45 439.75 1571.32 448.55 1565.54 454.58 C 1558.74 459.37 1548.83 456.27 1543.27 450.88 C 1539.76 442.55 1537.37 433.19 1540.43 424.25 C 1541.51 417.27 1546.86 412.29 1552.13 408.17 M 1550.09 429.29 C 1549.97 434.99 1549.91 440.70 1549.90 446.42 C 1553.12 447.23 1556.24 447.83 1559.55 448.46 C 1561.01 445.03 1564.03 441.68 1562.11 437.64 C 1560.62 432.32 1555.99 428.39 1550.09 429.29 Z" />
<path fill="#111111" opacity="1.00" d=" M 1801.85 412.79 C 1800.64 409.23 1800.33 405.40 1802.45 402.09 C 1807.13 404.48 1811.02 408.05 1813.52 412.70 C 1817.75 412.66 1822.17 411.87 1826.47 412.29 C 1830.14 413.16 1833.48 415.01 1836.97 416.45 C 1836.02 424.62 1827.28 425.41 1820.98 426.48 C 1824.91 429.26 1828.88 432.35 1829.70 437.54 C 1824.51 436.85 1819.29 436.32 1814.13 435.86 C 1814.61 438.45 1815.61 441.62 1817.34 443.84 C 1821.82 443.82 1825.98 442.13 1830.17 440.66 C 1832.98 442.46 1835.86 444.13 1838.79 445.79 C 1836.33 450.08 1831.57 450.98 1827.03 451.57 C 1830.18 456.38 1832.17 462.43 1829.25 467.84 C 1822.42 464.52 1820.60 456.59 1815.09 451.90 C 1813.24 450.13 1811.06 448.65 1808.95 447.26 C 1806.72 449.57 1807.31 453.54 1804.57 455.43 C 1798.03 460.31 1791.37 465.37 1783.39 467.62 C 1783.34 459.92 1791.22 457.23 1794.83 451.60 C 1789.47 451.25 1784.27 451.04 1778.98 450.67 C 1779.51 444.38 1785.45 444.41 1790.06 443.41 C 1792.43 437.02 1790.40 430.25 1789.78 423.73 C 1787.75 425.38 1785.74 427.07 1783.73 428.72 C 1781.77 426.85 1779.72 425.03 1778.18 422.79 C 1779.23 419.14 1782.01 416.28 1785.00 414.07 C 1790.52 413.07 1796.20 413.04 1801.85 412.79 M 1789.99 419.98 C 1790.00 420.74 1790.01 422.27 1790.01 423.03 C 1793.90 422.97 1797.82 422.92 1801.77 422.88 C 1802.55 421.94 1803.36 421.00 1804.18 420.06 C 1799.45 420.01 1794.65 419.98 1789.99 419.98 M 1799.48 431.10 C 1805.94 432.01 1812.45 431.92 1819.01 432.28 C 1818.97 430.74 1818.96 429.21 1818.97 427.68 C 1812.38 428.47 1805.85 429.25 1799.48 431.10 M 1797.35 444.49 C 1800.18 443.71 1803.55 443.62 1806.12 441.86 C 1806.22 438.80 1803.72 436.74 1801.93 434.63 C 1799.99 437.70 1798.27 440.95 1797.35 444.49 M 1826.14 448.11 C 1824.80 448.79 1824.79 449.47 1826.11 450.14 C 1827.41 449.45 1827.42 448.78 1826.14 448.11 Z" />
<path fill="#111111" opacity="1.00" d=" M 1447.84 407.78 C 1453.59 403.41 1461.68 405.84 1468.39 404.83 C 1467.54 408.06 1466.81 411.33 1465.86 414.53 C 1460.77 415.01 1455.50 414.32 1450.70 416.28 C 1455.76 419.92 1462.46 421.50 1466.03 426.98 C 1472.63 435.36 1469.00 449.15 1459.58 453.68 C 1454.74 456.49 1446.83 459.36 1442.87 454.07 C 1440.68 451.84 1442.47 448.52 1442.49 445.81 C 1447.33 446.53 1452.16 447.41 1457.01 448.17 C 1458.41 443.62 1462.41 438.53 1459.21 433.89 C 1455.49 427.51 1446.76 428.28 1440.62 425.93 C 1442.48 419.72 1443.86 413.07 1447.84 407.78 Z" />
<path fill="#111111" opacity="1.00" d=" M 1742.58 404.61 C 1748.21 405.61 1753.81 407.39 1758.75 410.31 C 1762.36 414.38 1765.54 418.86 1769.35 422.79 C 1768.40 423.71 1767.48 424.63 1766.58 425.56 C 1761.15 425.91 1755.75 426.28 1750.38 426.68 C 1754.92 429.48 1760.08 431.35 1764.14 434.92 C 1767.68 438.62 1767.12 444.40 1765.29 448.82 C 1758.59 445.68 1756.54 438.14 1751.33 433.43 C 1751.09 440.95 1751.00 448.49 1750.97 456.03 C 1758.00 455.31 1765.05 454.62 1772.14 454.27 C 1772.73 458.75 1770.22 462.52 1766.31 464.20 C 1758.26 465.57 1750.06 465.37 1741.99 464.87 C 1734.54 465.00 1728.92 458.87 1721.44 459.04 C 1720.22 460.43 1719.23 462.01 1718.22 463.53 C 1714.40 461.98 1712.53 458.33 1710.73 454.93 C 1713.60 452.91 1716.50 450.86 1719.56 449.09 C 1719.64 445.19 1719.86 441.32 1720.00 437.43 C 1715.44 436.22 1711.41 433.90 1708.21 430.47 C 1712.32 429.77 1716.56 428.49 1720.80 428.57 C 1723.99 429.22 1727.04 430.67 1730.11 431.86 C 1729.28 435.90 1728.46 439.93 1727.77 443.99 C 1729.19 443.98 1730.63 443.97 1732.09 443.97 C 1734.89 438.36 1736.76 432.35 1738.44 426.33 C 1735.50 426.04 1729.62 425.47 1726.68 425.19 C 1730.71 420.77 1737.07 420.03 1742.49 418.42 C 1741.85 414.91 1741.12 411.47 1740.14 408.05 C 1740.94 406.90 1741.73 405.75 1742.58 404.61 M 1749.04 414.86 C 1749.00 416.24 1748.98 417.63 1748.98 419.02 C 1750.35 418.99 1751.73 418.97 1753.14 418.96 C 1752.92 417.79 1752.72 416.62 1752.55 415.45 C 1751.36 415.25 1750.19 415.05 1749.04 414.86 M 1729.77 453.49 C 1733.64 455.19 1737.74 456.05 1741.93 456.70 C 1742.00 451.78 1741.95 446.85 1742.03 441.96 C 1737.94 445.79 1733.45 449.24 1729.77 453.49 Z" />
<path fill="#111111" opacity="1.00" d=" M 1858.80 404.59 C 1862.42 405.92 1866.39 407.11 1869.22 409.93 C 1867.33 413.11 1864.83 415.86 1862.76 418.92 C 1868.73 418.95 1874.78 418.98 1880.82 419.01 C 1881.22 414.59 1877.96 409.16 1881.21 405.28 C 1883.50 405.46 1886.52 405.98 1888.96 406.49 C 1887.71 410.87 1887.65 415.45 1889.54 419.67 C 1893.45 418.00 1897.27 416.13 1901.18 414.44 C 1903.04 417.48 1904.93 420.54 1906.72 423.66 C 1900.67 423.82 1894.70 423.98 1888.73 424.11 C 1888.67 426.82 1889.56 429.72 1889.82 432.47 C 1893.00 430.98 1896.15 429.39 1899.28 427.74 C 1901.30 430.26 1903.23 432.87 1904.93 435.64 C 1891.62 436.04 1878.28 436.50 1865.03 435.38 C 1870.40 431.63 1879.25 433.75 1881.92 426.63 C 1878.61 425.67 1875.22 424.64 1871.94 423.70 C 1867.64 428.14 1864.20 433.29 1860.12 437.91 C 1873.37 439.35 1886.67 440.19 1900.03 440.09 C 1899.99 448.65 1899.93 457.22 1899.85 465.79 C 1895.12 464.47 1890.71 462.27 1885.88 461.36 C 1881.17 460.76 1877.26 463.64 1873.06 465.04 C 1871.52 461.21 1871.10 456.99 1870.22 453.03 C 1863.42 456.29 1856.86 459.99 1850.27 463.63 C 1850.21 460.76 1850.09 455.02 1850.03 452.15 C 1856.99 450.58 1863.96 449.05 1870.99 447.71 C 1870.80 446.32 1870.41 443.55 1870.21 442.16 C 1863.42 443.99 1856.94 446.72 1850.11 448.39 C 1848.67 445.75 1847.28 443.10 1845.91 440.44 C 1848.01 439.13 1850.14 437.84 1852.26 436.52 C 1850.27 432.98 1846.02 428.02 1849.17 424.10 C 1853.65 418.32 1856.30 411.39 1858.80 404.59 M 1878.96 446.82 C 1878.97 448.62 1878.98 452.21 1878.99 454.01 C 1882.99 453.98 1887.02 453.98 1891.09 453.98 C 1890.90 451.49 1890.73 449.00 1890.59 446.53 C 1889.84 445.63 1889.11 444.74 1888.41 443.84 C 1885.17 444.69 1882.09 445.73 1878.96 446.82 Z" />
<path fill="#111111" opacity="1.00" d=" M 1922.34 404.20 C 1925.80 404.80 1929.40 405.63 1932.83 406.58 C 1932.05 410.06 1931.33 413.55 1930.72 417.07 C 1933.80 418.64 1936.93 420.14 1940.15 421.47 C 1941.06 416.61 1941.54 411.34 1944.02 406.95 C 1946.22 403.35 1950.42 406.92 1953.45 407.34 C 1952.00 411.35 1950.44 415.31 1948.87 419.27 C 1955.48 418.78 1962.29 418.82 1968.85 417.42 C 1970.41 418.71 1971.99 420.00 1973.60 421.28 C 1970.93 434.57 1974.38 449.41 1967.71 461.72 C 1962.24 467.48 1954.11 463.06 1948.44 459.98 C 1953.20 456.57 1958.84 454.76 1963.96 451.95 C 1963.98 442.48 1964.00 433.03 1963.99 423.57 C 1957.35 424.70 1949.31 423.01 1943.91 427.90 C 1940.15 430.97 1939.75 436.26 1939.20 440.70 C 1941.92 437.69 1943.71 434.01 1946.12 430.77 C 1948.46 430.71 1951.13 430.97 1953.52 431.30 C 1952.89 433.39 1952.30 435.49 1951.63 437.56 C 1955.32 438.33 1959.03 439.37 1962.69 440.36 C 1962.54 443.81 1961.44 452.17 1955.89 449.98 C 1949.93 447.97 1943.92 449.76 1938.08 451.09 C 1936.98 447.18 1937.67 440.55 1931.20 441.10 C 1932.03 448.46 1932.72 455.81 1933.22 463.21 C 1930.15 463.71 1927.05 464.10 1923.96 463.79 C 1923.91 456.43 1923.88 449.08 1923.83 441.74 C 1921.56 444.93 1919.32 448.13 1917.09 451.32 C 1916.07 450.08 1915.08 448.85 1914.09 447.62 C 1917.87 440.94 1921.35 434.00 1922.50 426.30 C 1919.29 426.09 1916.11 425.86 1912.95 425.58 C 1914.47 421.59 1918.94 421.63 1922.28 420.30 C 1923.61 415.01 1922.41 409.54 1922.34 404.20 M 1931.16 426.16 C 1930.23 430.16 1935.15 425.24 1931.16 426.16 M 1932.99 427.99 C 1933.01 429.40 1933.06 430.81 1933.13 432.23 C 1934.48 430.86 1935.85 429.50 1937.23 428.13 C 1935.79 428.08 1934.38 428.03 1932.99 427.99 M 1950.14 440.11 C 1948.80 440.79 1948.79 441.47 1950.11 442.14 C 1951.41 441.45 1951.42 440.78 1950.14 440.11 Z" />
<path fill="#111111" opacity="1.00" d=" M 1712.90 409.23 C 1715.49 408.27 1717.95 407.46 1720.71 406.69 C 1722.60 409.81 1725.10 412.56 1726.79 415.81 C 1726.89 418.91 1726.37 421.96 1725.88 425.01 C 1718.69 422.50 1717.71 414.21 1712.90 409.23 Z" />
<path fill="#111111" opacity="1.00" d=" M 41.81 413.93 C 43.85 415.23 46.12 416.37 47.59 418.36 C 48.46 432.10 47.60 445.92 48.98 459.65 C 49.96 467.42 49.55 475.30 48.12 482.99 C 85.08 483.36 122.09 481.93 159.00 484.45 C 171.92 483.87 185.15 486.72 197.81 483.27 C 199.02 484.46 200.24 485.63 201.47 486.81 C 198.89 488.43 196.26 490.03 193.41 491.12 C 178.11 490.64 162.81 491.38 147.51 491.11 C 113.69 487.70 79.82 492.93 45.97 491.98 C 42.20 491.92 42.48 487.08 42.13 484.37 C 40.89 460.93 39.97 437.35 41.81 413.93 Z" />
<path fill="#111111" opacity="1.00" d=" M 229.64 414.26 C 231.78 415.39 233.91 416.56 235.98 417.83 C 233.65 437.44 237.44 457.15 235.92 476.83 C 234.41 477.68 232.92 478.56 231.43 479.44 C 230.06 457.74 228.58 435.98 229.64 414.26 Z" />
<path fill="#111111" opacity="1.00" d=" M 446.09 417.99 C 446.01 415.51 449.11 415.16 450.69 413.95 C 451.30 435.62 450.92 457.31 450.99 478.99 L 446.01 479.00 C 446.22 458.66 445.54 438.32 446.09 417.99 Z" />
<path fill="#111111" opacity="1.00" d=" M 1230.01 417.04 C 1231.93 416.15 1233.87 415.27 1235.83 414.43 C 1235.96 437.23 1235.69 460.08 1238.11 482.79 C 1236.72 482.40 1233.94 481.64 1232.55 481.26 C 1230.14 473.75 1231.51 465.91 1231.36 458.22 C 1229.81 444.54 1229.74 430.77 1230.01 417.04 Z" />
<path fill="#111111" opacity="1.00" d=" M 94.44 432.43 C 94.81 425.03 101.00 417.81 108.68 417.91 C 112.61 418.73 116.35 420.31 120.21 421.40 C 120.75 424.89 121.58 428.34 121.68 431.89 C 120.95 434.30 119.13 436.17 117.76 438.23 C 121.16 442.30 126.28 446.41 125.14 452.40 C 124.03 458.99 120.44 466.48 113.34 468.18 C 108.50 468.45 100.91 471.38 97.46 466.56 C 97.65 463.86 98.00 461.29 98.50 458.67 C 103.20 460.03 107.83 461.63 112.53 462.99 C 113.81 461.83 115.10 460.69 116.41 459.56 C 115.38 456.69 117.07 452.13 114.04 450.03 C 110.04 447.09 105.13 445.40 101.85 441.51 C 105.73 439.63 109.66 437.85 113.56 436.00 C 112.90 433.13 112.30 430.20 111.72 427.34 C 105.31 425.71 100.20 430.84 94.44 432.43 Z" />
<path fill="#111111" opacity="1.00" d=" M 362.28 416.22 C 365.36 430.63 365.06 445.41 365.73 460.04 C 365.75 462.37 363.86 464.06 362.70 465.91 C 362.84 449.40 359.79 432.63 362.28 416.22 Z" />
<path fill="#111111" opacity="1.00" d=" M 486.43 416.17 C 487.46 422.06 487.80 428.03 488.34 434.00 C 486.71 433.98 485.09 433.98 483.47 433.97 C 484.16 428.00 484.44 421.88 486.43 416.17 Z" />
<path fill="#111111" opacity="1.00" d=" M 855.48 432.63 C 860.29 423.65 869.79 418.49 879.53 416.61 C 880.78 418.11 882.06 419.61 883.34 421.11 C 879.60 422.47 875.71 423.55 872.15 425.32 C 867.64 428.34 864.17 432.68 861.19 437.17 C 864.97 437.60 872.53 438.48 876.31 438.91 C 883.42 442.89 887.15 452.42 882.72 459.79 C 880.57 466.59 872.34 468.64 866.08 468.81 C 861.62 467.73 857.70 464.69 855.22 460.88 C 851.08 452.16 850.13 441.02 855.48 432.63 M 865.35 442.21 C 862.97 443.93 861.35 446.61 860.78 449.48 C 860.95 455.30 861.95 462.68 867.98 465.31 C 873.43 462.92 875.72 456.53 875.02 450.92 C 873.95 446.66 870.73 441.00 865.35 442.21 Z" />
<path fill="#111111" opacity="1.00" d=" M 177.55 418.81 C 178.95 419.64 180.34 420.48 181.75 421.31 C 181.95 434.09 181.60 447.00 183.87 459.64 C 181.23 460.25 178.52 460.22 175.89 459.63 C 176.55 446.09 174.30 432.11 177.55 418.81 Z" />
<path fill="#111111" opacity="1.00" d=" M 268.73 423.77 C 270.03 420.39 273.33 418.86 276.76 418.21 C 277.00 428.54 277.03 438.88 277.21 449.22 C 280.23 450.22 283.21 451.49 286.05 452.91 C 284.03 454.72 281.90 456.42 279.66 457.96 C 279.36 461.62 279.08 465.29 278.83 468.97 C 276.24 468.97 273.65 468.98 271.07 469.00 C 271.02 465.03 270.97 461.06 270.93 457.10 C 265.44 456.99 259.95 456.89 254.47 456.75 C 253.51 455.95 252.54 455.16 251.57 454.38 C 251.75 441.76 263.57 434.28 268.73 423.77 M 258.39 449.82 C 262.70 449.89 267.02 449.97 271.35 450.03 C 270.65 444.40 270.87 438.43 268.16 433.30 C 264.56 438.59 261.41 444.18 258.39 449.82 Z" />
<path fill="#111111" opacity="1.00" d=" M 311.88 430.99 C 312.68 426.22 309.42 417.45 317.77 417.91 C 318.22 439.27 317.95 460.63 317.99 481.99 C 316.70 481.99 315.41 481.99 314.13 482.00 C 314.64 464.94 312.48 448.00 311.88 430.99 Z" />
<path fill="#111111" opacity="1.00" d=" M 405.76 419.80 C 411.08 418.68 416.69 419.38 422.12 419.23 C 421.49 422.12 420.63 424.94 419.82 427.79 C 415.80 427.97 407.74 428.32 403.71 428.50 C 406.57 436.40 417.72 435.14 421.33 442.66 C 421.54 448.32 424.51 456.14 419.66 460.65 C 417.37 463.08 414.23 464.47 411.25 465.83 C 414.60 459.86 414.78 452.87 415.40 446.23 C 409.60 442.85 403.32 440.42 396.68 439.31 C 399.37 432.86 399.02 423.62 405.76 419.80 Z" />
<path fill="#111111" opacity="1.00" d=" M 1473.50 432.42 C 1492.52 429.82 1511.82 429.48 1530.83 432.40 C 1533.01 433.33 1533.77 436.02 1535.11 437.85 C 1515.34 437.64 1495.50 435.39 1475.80 438.09 C 1474.99 436.21 1474.22 434.32 1473.50 432.42 Z" />
<path fill="#111111" opacity="1.00" d=" M 484.21 440.30 C 485.39 439.42 486.58 438.54 487.77 437.67 C 488.19 449.36 487.22 461.24 489.26 472.82 C 488.32 473.66 487.39 474.50 486.46 475.34 C 484.55 463.75 484.60 452.00 484.21 440.30 Z" />
<path fill="#111111" opacity="1.00" d=" M 396.44 460.40 C 401.42 461.06 405.60 463.84 409.57 466.66 C 406.40 467.65 403.15 468.50 399.87 469.07 C 397.49 466.84 397.30 463.34 396.44 460.40 Z" />
<path fill="#111111" opacity="1.00" d=" M 176.46 469.36 C 177.30 468.53 178.13 467.70 178.97 466.87 C 179.87 467.72 180.78 468.58 181.70 469.43 C 181.81 473.61 181.93 477.82 182.05 482.02 C 180.80 481.98 179.54 481.95 178.30 481.93 C 177.71 477.71 177.17 473.54 176.46 469.36 Z" />
<path fill="#111111" opacity="1.00" d=" M 361.99 467.00 C 363.33 466.99 364.66 466.99 366.01 467.00 C 366.01 470.75 366.01 478.25 366.01 482.00 C 364.66 481.99 363.33 481.99 361.99 482.00 C 361.99 478.25 361.99 470.75 361.99 467.00 Z" />
<path fill="#111111" opacity="1.00" d=" M 236.76 483.09 C 266.74 484.16 296.83 487.08 326.79 483.63 C 326.32 485.78 325.74 487.90 325.14 490.02 C 301.77 490.26 278.35 489.21 255.01 490.92 C 247.62 490.98 240.26 490.06 232.88 489.83 C 234.22 487.61 235.54 485.38 236.76 483.09 Z" />
<path fill="#111111" opacity="1.00" d=" M 453.58 483.87 C 455.89 483.69 457.86 485.11 459.84 486.09 C 458.74 487.31 457.64 488.55 456.56 489.78 C 428.38 490.24 400.19 489.92 372.01 489.99 L 372.01 485.01 C 399.19 484.55 426.44 486.10 453.58 483.87 Z" />
<path fill="#111111" opacity="1.00" d=" M 485.01 491.85 C 485.53 488.35 488.60 485.71 492.00 485.66 C 517.19 486.57 542.40 483.28 567.58 485.75 C 587.92 488.35 608.37 485.66 628.79 486.18 C 643.41 486.66 657.98 483.60 672.59 485.63 C 687.55 487.83 702.71 487.15 717.74 486.14 C 737.17 486.53 756.56 484.04 775.99 485.40 C 786.05 486.19 796.16 485.54 806.23 486.25 C 836.11 484.70 866.13 483.93 895.96 486.53 C 920.55 483.92 945.32 485.24 970.01 484.97 C 984.40 484.56 998.60 487.64 1013.01 487.10 C 1023.05 487.43 1032.91 484.83 1042.95 485.47 C 1059.48 487.24 1076.04 483.28 1092.59 485.66 C 1119.17 489.38 1146.25 484.47 1172.75 488.35 C 1190.06 489.80 1207.31 491.87 1224.65 493.12 C 1229.20 495.34 1231.68 490.63 1233.11 487.49 C 1234.01 487.27 1234.93 487.05 1235.87 486.85 C 1236.66 490.58 1237.38 494.29 1238.14 498.05 C 1225.31 500.39 1212.24 498.44 1199.41 497.32 C 1183.49 495.83 1167.52 494.34 1151.52 494.98 C 1138.01 493.81 1124.45 493.72 1110.96 494.76 C 1096.63 494.00 1082.39 491.46 1068.00 491.84 C 1049.60 491.18 1031.30 495.27 1012.92 493.36 C 1004.81 492.27 996.64 493.90 988.52 493.30 C 965.08 490.86 941.50 492.33 918.00 492.06 C 895.53 492.47 873.09 490.22 850.64 490.95 C 831.43 492.71 812.08 491.23 792.89 493.25 C 781.55 494.71 770.33 491.76 759.01 491.97 C 741.70 491.94 724.36 491.57 707.07 492.49 C 695.43 493.97 683.68 494.22 671.97 494.06 C 672.60 492.87 673.25 491.69 673.90 490.52 C 646.65 492.37 619.30 491.99 592.00 492.07 C 570.52 492.88 549.17 487.79 527.73 490.94 C 513.49 490.66 499.23 491.00 485.01 491.85 Z" />
<path fill="#111111" opacity="1.00" d=" M 1440.72 535.79 C 1437.89 529.52 1440.42 522.02 1445.73 517.89 C 1446.60 518.85 1447.50 519.83 1448.42 520.80 C 1455.85 517.51 1464.13 518.10 1472.10 518.21 C 1471.84 527.51 1466.73 535.60 1464.98 544.59 C 1463.22 553.84 1460.15 562.77 1455.76 571.11 C 1452.60 569.14 1449.16 566.62 1451.36 562.11 C 1454.78 551.04 1457.50 539.75 1460.77 528.63 C 1457.24 528.87 1450.17 529.36 1446.63 529.60 C 1444.46 531.46 1442.74 533.78 1440.72 535.79 Z" />
<path fill="#111111" opacity="1.00" d=" M 1549.81 519.60 C 1556.57 515.48 1564.32 520.03 1568.24 525.71 C 1573.11 531.88 1566.84 537.58 1564.76 543.18 C 1573.42 548.76 1573.38 563.10 1564.95 568.81 C 1561.02 570.26 1556.83 571.20 1552.62 570.98 C 1548.40 570.05 1544.73 567.08 1542.67 563.33 C 1540.78 556.47 1542.71 549.40 1545.62 543.17 C 1543.41 539.37 1541.12 535.38 1540.44 531.01 C 1541.39 525.99 1544.43 520.84 1549.81 519.60 M 1552.19 524.08 C 1551.42 526.90 1550.51 529.68 1549.90 532.56 C 1552.43 534.27 1554.95 536.01 1557.49 537.73 C 1559.19 534.57 1560.95 531.15 1559.82 527.37 C 1557.79 525.55 1554.48 524.89 1552.19 524.08 M 1552.06 564.32 C 1555.92 563.51 1559.83 562.75 1563.68 561.80 C 1562.33 556.13 1557.80 552.46 1553.60 548.93 C 1548.37 552.79 1551.04 559.05 1552.06 564.32 Z" />
<path fill="#111111" opacity="1.00" d=" M 1858.84 518.01 C 1862.46 518.99 1866.07 520.27 1869.64 521.50 C 1868.24 525.51 1866.24 529.24 1864.48 533.09 C 1869.12 532.84 1874.02 533.52 1878.70 532.63 C 1881.68 528.66 1880.15 523.07 1881.60 518.51 C 1883.82 518.23 1888.26 517.68 1890.49 517.41 C 1890.16 522.52 1888.36 528.07 1890.90 532.91 C 1895.75 529.74 1901.57 529.92 1907.04 531.10 C 1905.30 533.97 1903.63 538.36 1898.98 536.59 C 1894.89 537.50 1887.51 535.58 1887.89 542.72 C 1891.29 542.72 1895.22 542.05 1898.79 542.19 C 1901.79 542.68 1904.18 544.78 1906.59 546.51 C 1905.55 547.52 1904.57 548.54 1903.59 549.58 C 1896.49 549.95 1889.41 550.20 1882.37 550.70 C 1887.58 551.41 1892.82 551.86 1898.13 552.31 C 1903.66 558.49 1900.22 567.36 1901.74 574.79 C 1900.03 575.89 1898.36 577.01 1896.72 578.14 C 1891.96 575.37 1885.93 573.70 1880.67 575.87 C 1877.52 577.22 1874.13 578.16 1870.70 577.79 C 1870.89 574.29 1871.77 570.98 1872.18 567.54 C 1865.19 569.39 1858.85 572.88 1852.89 576.88 C 1852.00 576.11 1851.12 575.35 1850.28 574.60 C 1849.76 571.82 1850.24 569.35 1850.01 566.66 C 1857.86 565.15 1865.47 562.64 1873.06 560.14 C 1872.25 558.84 1871.46 557.55 1870.70 556.26 C 1864.23 558.23 1857.81 560.67 1851.10 561.56 C 1847.17 560.64 1846.63 554.91 1849.50 552.56 C 1851.03 550.96 1852.64 549.44 1854.04 547.71 C 1852.00 545.87 1849.58 544.51 1847.32 543.00 C 1848.36 537.58 1852.96 534.23 1855.55 529.66 C 1857.45 526.06 1857.82 521.91 1858.84 518.01 M 1871.38 536.74 C 1867.60 541.51 1864.61 546.87 1862.25 552.47 C 1866.43 552.22 1868.72 549.93 1869.13 545.61 C 1873.01 544.67 1876.95 543.73 1880.88 542.80 C 1880.93 542.06 1881.03 540.58 1881.08 539.84 C 1877.89 538.73 1874.61 537.62 1871.38 536.74 M 1878.99 550.00 C 1878.97 551.33 1878.97 552.66 1878.99 554.00 C 1879.50 554.00 1880.50 554.00 1881.01 554.00 C 1880.98 552.66 1880.98 551.33 1881.01 550.00 C 1880.50 550.00 1879.50 550.00 1878.99 550.00 M 1879.00 558.00 C 1879.00 560.50 1879.00 565.50 1879.00 568.00 C 1882.96 567.99 1886.96 567.99 1891.00 568.00 C 1891.00 565.50 1891.00 560.50 1891.00 558.00 C 1886.96 557.99 1882.96 557.99 1879.00 558.00 Z" />
<path fill="#111111" opacity="1.00" d=" M 1924.07 534.85 C 1923.67 528.62 1919.56 517.43 1930.06 516.91 C 1932.06 522.89 1932.55 529.29 1931.47 535.52 C 1934.66 534.11 1940.26 536.34 1942.26 532.47 C 1942.71 528.50 1943.11 524.53 1943.44 520.55 C 1947.59 521.29 1951.95 521.96 1956.12 523.02 C 1953.20 526.13 1950.80 529.65 1948.67 533.33 C 1955.74 535.98 1962.80 533.63 1969.32 530.71 C 1971.04 533.06 1973.88 535.27 1973.33 538.53 C 1972.19 548.84 1973.51 559.37 1971.44 569.58 C 1970.09 574.49 1966.36 579.54 1960.90 579.88 C 1957.23 579.03 1953.68 577.26 1950.16 576.19 C 1951.46 567.51 1964.57 572.66 1964.96 563.04 C 1956.10 562.09 1947.37 563.58 1938.91 566.14 C 1937.85 563.47 1936.79 560.76 1935.85 558.09 C 1935.17 558.05 1933.80 557.97 1933.12 557.92 C 1932.99 565.21 1932.86 572.49 1932.69 579.79 C 1929.75 578.09 1926.93 576.14 1924.17 574.22 C 1925.99 568.80 1924.95 563.16 1923.79 557.72 C 1922.47 559.78 1921.20 561.87 1919.92 563.94 C 1918.37 563.92 1916.85 563.90 1915.35 563.89 C 1917.83 555.68 1922.25 548.10 1922.71 539.32 C 1919.78 539.17 1916.88 539.02 1914.01 538.89 C 1913.99 537.62 1913.98 536.36 1914.00 535.10 C 1916.52 535.04 1921.55 534.91 1924.07 534.85 M 1945.24 540.35 C 1941.15 543.86 1940.99 550.08 1941.40 554.99 C 1944.55 550.82 1945.69 545.21 1950.16 542.11 C 1951.70 544.92 1952.91 547.79 1954.62 550.55 C 1957.28 553.33 1960.50 555.52 1963.38 558.07 C 1966.61 551.10 1964.13 543.65 1961.36 537.03 C 1956.07 538.49 1950.40 538.68 1945.24 540.35 M 1933.04 540.86 C 1933.00 542.24 1932.98 543.62 1932.98 545.02 C 1934.35 544.99 1935.73 544.97 1937.14 544.96 C 1936.92 543.78 1936.72 542.61 1936.55 541.45 C 1935.35 541.25 1934.18 541.05 1933.04 540.86 M 1949.32 554.50 C 1947.77 555.44 1949.14 558.34 1950.84 557.34 C 1952.34 556.38 1951.00 553.42 1949.32 554.50 Z" />
<path fill="#111111" opacity="1.00" d=" M 1718.51 536.86 C 1720.19 531.15 1722.51 525.68 1725.04 520.32 C 1730.55 522.23 1734.68 526.28 1736.83 531.71 C 1738.85 530.78 1741.76 530.32 1743.66 528.77 C 1743.47 525.90 1742.56 523.14 1741.98 520.35 C 1744.69 521.41 1749.04 520.17 1751.49 522.49 C 1753.99 524.74 1755.52 527.79 1757.32 530.59 C 1760.46 529.92 1763.63 529.34 1766.84 528.76 C 1766.98 535.22 1767.16 541.69 1767.40 548.16 C 1769.59 549.38 1771.73 550.71 1773.84 552.09 C 1772.26 561.65 1772.09 571.36 1771.63 581.03 C 1763.57 581.62 1756.01 576.26 1748.02 578.89 C 1744.08 579.53 1740.13 580.32 1736.24 581.10 C 1736.01 578.08 1735.53 572.06 1735.29 569.05 C 1731.52 572.79 1729.19 577.65 1726.93 582.38 C 1724.42 582.16 1722.31 582.00 1719.94 581.56 C 1719.92 571.68 1720.02 561.81 1719.98 551.94 C 1716.72 552.56 1713.19 553.10 1710.01 553.68 C 1712.31 547.81 1716.13 542.68 1718.51 536.86 M 1728.85 564.68 C 1734.71 554.22 1732.80 541.40 1731.06 530.13 C 1724.27 540.32 1728.72 553.53 1728.85 564.68 M 1741.00 534.78 C 1741.00 536.34 1741.00 539.47 1741.00 541.04 C 1747.35 540.98 1753.68 540.89 1760.09 540.77 C 1759.61 530.50 1747.04 536.67 1741.00 534.78 M 1741.03 547.97 C 1740.98 549.26 1740.96 550.56 1740.97 551.86 C 1748.72 548.69 1757.13 548.89 1765.36 548.18 C 1757.24 547.98 1749.10 548.00 1741.03 547.97 M 1761.17 558.17 C 1760.63 559.79 1761.18 560.34 1762.83 559.83 C 1763.33 558.20 1762.77 557.64 1761.17 558.17 M 1760.48 571.86 C 1761.16 571.90 1762.52 571.98 1763.21 572.02 C 1762.95 569.86 1762.70 567.70 1762.46 565.55 C 1761.72 567.63 1761.07 569.74 1760.48 571.86 M 1743.27 569.11 C 1742.16 569.96 1742.16 572.03 1743.27 572.89 C 1744.98 572.92 1744.98 569.07 1743.27 569.11 Z" />
<path fill="#111111" opacity="1.00" d=" M 1782.05 527.05 C 1797.26 525.13 1812.62 524.99 1827.91 523.80 C 1833.03 523.73 1836.63 527.92 1836.75 533.09 C 1829.84 532.84 1822.99 531.40 1816.12 531.13 C 1809.86 534.12 1815.07 542.98 1815.17 547.79 C 1818.67 546.63 1822.04 544.96 1825.19 543.01 C 1827.94 544.90 1830.76 546.69 1833.73 548.26 C 1833.91 549.10 1834.28 550.78 1834.46 551.62 C 1829.13 554.31 1823.06 552.99 1817.45 552.39 C 1816.70 553.07 1815.98 553.75 1815.27 554.44 C 1815.11 559.61 1815.01 564.79 1814.95 569.98 C 1821.02 570.32 1828.02 572.58 1833.19 568.09 C 1835.38 568.90 1837.58 569.71 1839.83 570.46 C 1839.70 573.33 1840.04 576.34 1840.04 579.24 C 1820.30 577.31 1800.49 576.84 1780.69 576.41 C 1783.93 573.51 1788.04 571.80 1791.88 569.79 C 1792.00 560.19 1792.00 550.59 1792.02 541.00 C 1794.64 540.99 1797.29 540.99 1799.98 541.00 C 1799.98 550.66 1799.97 560.33 1800.02 570.00 C 1801.51 570.00 1804.49 570.00 1805.98 570.00 C 1805.84 556.99 1807.14 543.76 1804.56 530.91 C 1797.01 530.95 1789.49 530.97 1781.99 530.99 C 1781.98 529.67 1782.00 528.36 1782.05 527.05 Z" />
<path fill="#111111" opacity="1.00" d=" M 727.08 533.97 C 726.76 530.32 731.29 529.74 733.67 528.16 C 733.61 543.95 735.00 559.70 734.98 575.48 C 734.85 581.31 735.42 587.10 735.90 592.92 C 734.14 593.79 732.37 594.66 730.60 595.50 C 730.18 588.60 728.17 581.84 728.34 574.94 C 730.55 561.31 727.74 547.61 727.08 533.97 Z" />
<path fill="#111111" opacity="1.00" d=" M 486.51 533.43 C 488.05 532.00 489.97 531.10 491.80 530.10 C 490.30 540.03 489.90 550.08 491.03 560.08 C 491.43 571.07 489.54 582.08 492.17 592.98 C 490.66 592.99 487.65 593.00 486.14 593.00 C 485.78 573.14 483.92 553.24 486.51 533.43 Z" />
<path fill="#111111" opacity="1.00" d=" M 626.61 538.91 C 625.04 535.47 626.66 532.58 629.10 530.57 C 632.29 532.40 632.24 536.93 632.68 540.04 C 633.47 558.34 633.33 576.72 632.31 595.03 C 632.22 599.06 630.13 602.62 628.18 606.02 C 607.51 605.28 586.89 607.98 566.23 606.88 C 547.14 605.34 527.97 605.72 508.89 606.98 C 500.39 606.54 491.92 607.62 483.44 607.92 C 483.32 606.14 483.07 602.57 482.95 600.79 C 498.79 597.87 514.99 599.18 531.00 598.94 C 563.27 598.02 596.14 605.24 627.95 596.96 C 628.32 577.59 628.01 558.23 626.61 538.91 Z" />
<path fill="#111111" opacity="1.00" d=" M 972.09 535.04 C 975.54 532.23 980.64 532.49 984.66 530.92 C 989.28 534.77 994.93 537.59 998.44 542.62 C 1000.89 549.00 993.44 552.29 992.15 557.87 C 995.15 562.62 1002.03 565.26 1000.94 571.97 C 999.77 577.64 994.70 581.20 990.95 585.19 C 983.56 582.61 972.44 582.30 969.55 573.49 C 966.61 566.66 971.57 561.78 976.32 558.14 C 969.35 552.94 966.32 542.17 972.09 535.04 M 979.89 537.86 C 974.60 542.48 981.27 548.65 985.05 551.85 C 986.69 549.75 988.40 547.70 990.16 545.69 C 987.79 541.95 985.90 534.22 979.89 537.86 M 978.03 573.72 C 981.09 576.58 985.54 577.75 989.66 577.18 C 990.93 577.19 991.56 576.02 991.94 574.97 C 990.72 568.87 986.74 563.45 980.90 561.06 C 979.21 565.07 977.42 569.21 978.03 573.72 Z" />
<path fill="#111111" opacity="1.00" d=" M 1232.25 529.98 C 1234.04 531.39 1237.64 532.22 1237.18 535.15 C 1236.59 547.10 1237.47 559.07 1237.21 571.03 C 1237.06 579.87 1239.51 589.26 1235.75 597.62 C 1234.55 596.59 1233.40 595.58 1232.23 594.57 C 1231.96 573.04 1231.67 551.50 1232.25 529.98 Z" />
<path fill="#111111" opacity="1.00" d=" M 549.98 532.91 C 558.16 533.08 566.37 534.07 574.56 533.38 C 575.42 534.12 576.29 534.87 577.17 535.61 C 573.72 547.56 569.76 559.35 565.63 571.08 C 564.38 574.30 563.91 578.04 561.66 580.81 C 559.52 581.63 557.67 580.27 556.45 578.63 C 558.69 566.02 564.12 554.08 565.76 541.34 C 559.15 535.45 550.99 542.38 545.79 546.82 C 545.73 541.79 547.63 537.20 549.98 532.91 Z" />
<path fill="#111111" opacity="1.00" d=" M 1476.01 545.16 C 1495.85 543.76 1515.73 543.56 1535.56 545.32 C 1535.68 547.02 1535.92 550.44 1536.04 552.15 C 1516.11 554.60 1495.98 551.05 1476.00 551.87 C 1476.00 550.19 1476.01 546.84 1476.01 545.16 Z" />
<path fill="#111111" opacity="1.00" d=" M 725.39 599.33 C 743.61 599.02 761.96 598.05 780.10 600.24 C 799.69 601.76 819.47 601.56 839.01 599.31 C 848.35 598.52 857.69 600.27 867.04 599.62 C 881.74 598.83 896.28 602.00 911.00 601.14 C 937.67 600.22 964.47 596.85 991.10 600.27 C 1013.21 602.89 1035.34 598.68 1057.48 600.12 C 1081.46 597.26 1105.39 602.93 1129.37 600.18 C 1151.79 601.97 1174.09 596.90 1196.50 599.65 C 1206.86 601.14 1217.54 600.18 1227.83 602.36 C 1228.04 601.03 1228.27 599.71 1228.52 598.40 C 1231.36 599.30 1234.27 600.52 1236.99 601.84 C 1235.09 602.75 1233.30 603.91 1231.26 604.42 C 1219.28 604.59 1207.53 607.71 1195.52 607.23 C 1174.07 605.33 1152.40 605.16 1131.00 607.67 C 1104.26 610.07 1077.73 604.59 1051.00 605.93 C 1031.06 606.75 1011.13 607.15 991.17 607.18 C 955.50 605.26 919.68 605.25 884.03 607.50 C 853.77 604.88 823.25 605.34 793.01 607.95 C 780.28 608.56 767.71 605.94 755.01 606.09 C 744.94 605.96 734.54 606.50 725.00 602.82 C 725.12 601.65 725.25 600.49 725.39 599.33 M 1195.15 601.40 C 1194.29 605.38 1199.13 600.58 1195.15 601.40 Z" />
<path fill="#111111" opacity="1.00" d=" M 1590.28 630.84 C 1599.37 630.78 1605.41 639.49 1606.74 647.64 C 1606.78 656.89 1609.16 666.70 1604.50 675.34 C 1601.40 682.58 1592.14 685.69 1584.95 683.10 C 1578.57 680.36 1573.15 674.23 1573.19 666.97 C 1572.63 660.06 1572.47 653.06 1573.35 646.19 C 1576.01 638.80 1581.96 631.70 1590.28 630.84 M 1582.94 640.56 C 1582.89 648.35 1582.71 656.16 1583.32 663.95 C 1583.37 670.29 1587.54 675.72 1592.80 678.88 C 1597.24 671.44 1599.10 662.67 1597.83 654.05 C 1596.96 649.43 1596.75 643.39 1592.43 640.51 C 1589.62 638.49 1586.04 640.43 1582.94 640.56 Z" />
<path fill="#111111" opacity="1.00" d=" M 1442.48 639.49 C 1446.30 634.43 1453.69 630.60 1459.74 634.25 C 1466.05 637.97 1471.82 644.27 1471.90 652.04 C 1472.20 658.72 1471.71 666.10 1467.94 671.89 C 1462.95 680.99 1452.00 683.47 1442.94 686.49 C 1442.14 684.54 1441.39 682.58 1440.69 680.62 C 1448.57 678.22 1456.92 674.18 1459.78 665.83 C 1451.50 667.96 1442.23 663.99 1439.11 655.77 C 1438.54 650.19 1438.85 644.04 1442.48 639.49 M 1451.44 641.27 C 1446.89 645.21 1449.67 652.28 1448.56 657.39 C 1451.79 658.40 1455.04 659.15 1458.51 658.70 C 1465.01 653.76 1460.73 638.58 1451.44 641.27 Z" />
<path fill="#111111" opacity="1.00" d=" M 1543.11 644.24 C 1545.95 638.39 1551.83 635.22 1556.84 631.52 C 1558.17 632.75 1559.54 634.00 1560.92 635.22 C 1561.04 647.12 1560.47 659.06 1561.27 670.95 C 1562.33 675.66 1565.71 679.41 1567.61 683.78 C 1560.36 683.89 1553.14 683.96 1545.94 684.02 C 1545.99 682.71 1546.05 681.40 1546.13 680.10 C 1548.03 679.13 1549.94 678.20 1551.90 677.31 C 1552.01 666.81 1551.60 656.32 1550.31 645.91 C 1548.51 645.49 1544.91 644.65 1543.11 644.24 Z" />
<path fill="#111111" opacity="1.00" d=" M 1742.47 631.83 C 1746.64 633.07 1750.64 634.81 1754.69 636.39 C 1754.61 639.20 1755.08 642.20 1755.13 645.05 C 1758.97 643.79 1762.80 642.38 1766.87 641.95 C 1769.24 647.08 1767.24 652.89 1768.70 658.26 C 1767.47 659.79 1766.23 661.31 1765.01 662.83 C 1766.68 662.98 1770.01 663.29 1771.68 663.44 C 1771.91 673.15 1772.02 682.89 1772.06 692.63 C 1764.84 693.75 1758.09 690.23 1750.93 690.71 C 1745.79 690.74 1741.08 692.95 1736.25 694.32 C 1736.04 691.52 1735.63 685.90 1735.43 683.10 C 1731.02 685.51 1727.93 689.49 1725.76 693.93 C 1724.56 693.92 1723.38 693.92 1722.22 693.92 C 1721.52 693.18 1720.84 692.45 1720.18 691.74 C 1719.99 682.34 1720.03 672.95 1719.74 663.57 C 1716.66 664.06 1713.57 664.52 1710.54 664.98 C 1715.81 654.64 1721.67 644.54 1724.69 633.23 C 1727.07 634.16 1730.19 634.74 1732.32 636.47 C 1734.00 639.16 1735.47 642.16 1737.06 644.96 C 1738.79 644.97 1742.26 644.99 1743.99 645.00 C 1743.44 640.62 1742.87 636.22 1742.47 631.83 M 1726.90 656.13 C 1727.44 664.33 1728.25 672.48 1728.98 680.68 C 1733.84 669.08 1731.78 656.24 1731.36 644.08 C 1728.45 647.40 1726.80 651.67 1726.90 656.13 M 1741.00 649.00 C 1741.00 650.50 1741.00 653.50 1741.00 655.00 C 1746.99 655.00 1752.96 654.99 1759.00 655.00 C 1759.00 653.50 1759.00 650.50 1759.00 649.00 C 1752.98 648.98 1746.96 648.98 1741.00 649.00 M 1741.03 660.95 C 1741.01 662.36 1741.00 663.78 1741.02 665.20 C 1748.59 664.20 1756.11 663.01 1763.68 661.90 C 1756.48 658.53 1748.54 660.26 1741.03 660.95 M 1743.12 670.53 C 1740.81 673.96 1747.04 671.31 1743.12 670.53 M 1761.18 670.32 C 1759.68 671.31 1761.33 673.84 1762.82 672.68 C 1764.28 671.67 1762.62 669.14 1761.18 670.32 M 1743.27 681.11 C 1742.16 681.96 1742.16 684.03 1743.27 684.89 C 1744.98 684.92 1744.98 681.07 1743.27 681.11 M 1760.99 680.00 C 1760.97 681.32 1760.97 682.66 1760.99 684.00 C 1761.50 684.00 1762.50 684.00 1763.01 684.00 C 1762.98 682.66 1762.98 681.32 1763.01 680.00 C 1762.50 680.00 1761.50 680.00 1760.99 680.00 Z" />
<path fill="#111111" opacity="1.00" d=" M 1926.53 631.74 C 1928.68 633.30 1930.85 634.85 1933.05 636.41 C 1932.58 640.52 1931.87 644.59 1931.19 648.68 C 1934.43 649.42 1937.81 650.35 1941.08 651.19 C 1942.52 645.31 1943.75 639.38 1945.34 633.54 C 1949.13 634.52 1952.91 635.78 1956.62 637.13 C 1954.01 640.93 1951.22 644.61 1949.00 648.66 C 1956.67 648.59 1964.46 648.38 1972.09 647.16 C 1974.83 657.93 1971.50 669.10 1971.77 680.02 C 1972.11 685.20 1969.81 690.65 1965.36 693.45 C 1959.72 695.94 1955.33 691.49 1950.91 688.97 C 1950.96 688.42 1951.05 687.33 1951.10 686.78 C 1956.27 685.83 1963.68 685.33 1965.02 678.78 C 1956.32 679.39 1947.55 678.04 1938.96 679.98 C 1938.19 677.39 1937.26 674.71 1936.67 672.16 C 1935.34 672.07 1934.04 672.00 1932.76 671.93 C 1933.09 678.49 1933.04 685.16 1934.18 691.67 C 1933.62 692.44 1933.09 693.22 1932.59 694.01 C 1929.93 693.23 1928.39 692.82 1926.04 692.09 C 1926.00 685.38 1925.98 678.69 1925.98 672.00 C 1922.76 674.58 1919.48 677.15 1915.65 678.76 C 1917.86 671.01 1921.43 663.73 1923.53 655.93 C 1919.99 655.08 1916.65 654.05 1913.42 652.47 C 1916.66 651.42 1920.35 650.53 1923.64 649.30 C 1923.85 643.36 1923.32 637.02 1926.53 631.74 M 1947.78 653.88 C 1941.36 657.05 1940.46 665.53 1941.37 671.81 C 1943.77 667.61 1945.48 663.08 1947.35 658.63 C 1950.11 659.58 1953.13 660.64 1955.90 661.82 C 1952.96 664.37 1950.23 667.17 1948.16 670.48 C 1949.63 670.74 1951.13 671.01 1952.65 671.28 C 1952.00 669.70 1951.35 668.11 1950.78 666.54 C 1956.46 666.91 1961.11 670.06 1965.32 673.55 C 1964.69 666.53 1965.62 659.37 1963.32 652.55 C 1958.07 652.66 1952.88 653.11 1947.78 653.88 M 1933.25 654.41 C 1933.26 656.24 1933.28 659.90 1933.29 661.73 C 1935.36 660.63 1937.42 659.49 1939.44 658.27 C 1937.40 656.93 1935.34 655.62 1933.25 654.41 Z" />
<path fill="#111111" opacity="1.00" d=" M 1859.26 636.06 C 1861.32 631.60 1866.37 636.43 1869.63 637.10 C 1868.18 641.12 1866.32 644.96 1864.55 648.84 C 1870.15 648.93 1875.78 649.01 1881.43 649.06 C 1882.07 644.05 1882.07 639.00 1882.44 633.98 C 1885.31 633.97 1888.21 633.99 1891.15 634.01 C 1890.52 638.96 1889.76 643.89 1889.19 648.85 C 1893.84 647.60 1898.37 645.94 1903.10 644.94 C 1905.11 646.99 1905.54 649.81 1906.78 652.39 C 1900.59 652.83 1893.65 651.81 1888.62 656.18 C 1889.54 656.85 1890.49 657.54 1891.46 658.24 C 1896.82 656.83 1902.10 658.39 1906.47 661.53 C 1905.47 662.59 1904.51 663.67 1903.56 664.75 C 1893.35 664.96 1883.17 664.99 1873.00 665.03 C 1872.98 666.42 1872.98 667.80 1873.01 669.20 C 1881.29 668.99 1889.64 668.02 1897.96 668.17 C 1899.30 669.67 1901.30 671.22 1901.23 673.50 C 1901.29 680.41 1901.80 687.42 1900.58 694.26 C 1894.78 692.56 1888.76 688.80 1882.52 690.87 C 1879.42 691.95 1876.32 693.37 1873.29 694.49 C 1873.08 690.10 1872.90 685.72 1872.75 681.35 C 1865.62 684.44 1859.41 689.26 1852.39 692.57 C 1851.57 689.16 1850.62 685.71 1849.89 682.31 C 1858.40 680.38 1867.62 678.92 1873.99 672.37 C 1866.00 672.62 1858.44 675.74 1850.44 675.81 C 1849.25 673.95 1847.81 671.49 1847.23 669.55 C 1849.41 668.43 1851.61 667.32 1853.84 666.28 C 1853.23 661.97 1848.03 656.72 1851.66 652.68 C 1855.52 647.83 1856.77 641.60 1859.26 636.06 M 1871.24 653.15 C 1867.92 657.42 1864.80 661.87 1862.31 666.69 C 1865.00 666.94 1867.71 667.19 1870.44 667.43 C 1869.54 665.60 1868.73 663.74 1868.24 661.77 C 1874.14 660.05 1884.64 662.74 1883.89 653.08 C 1879.65 653.07 1875.43 653.10 1871.24 653.15 M 1880.45 673.86 C 1880.42 676.85 1877.55 681.13 1880.90 683.05 C 1884.47 685.00 1889.03 683.58 1892.97 684.55 C 1892.98 681.91 1892.99 676.64 1893.00 674.01 C 1888.78 673.94 1884.60 673.89 1880.45 673.86 Z" />
<path fill="#111111" opacity="1.00" d=" M 1819.65 638.78 C 1823.75 638.82 1829.14 634.41 1832.77 638.20 C 1835.49 640.31 1835.59 643.96 1836.72 647.01 C 1829.63 646.59 1822.61 645.93 1815.56 645.25 C 1814.66 646.00 1813.77 646.75 1812.90 647.51 C 1812.85 651.25 1813.00 654.99 1813.36 658.73 C 1815.96 660.88 1819.59 660.58 1822.76 661.44 C 1822.91 659.94 1823.07 658.45 1823.25 656.97 C 1827.84 659.51 1834.08 660.86 1835.23 667.02 C 1828.43 667.01 1821.71 665.81 1815.02 664.84 C 1814.97 671.27 1815.01 677.74 1815.00 684.19 C 1822.21 686.00 1829.33 684.66 1836.02 681.89 C 1837.78 684.96 1839.26 688.10 1840.72 691.36 C 1821.15 690.41 1801.54 689.81 1781.95 689.97 C 1781.99 688.72 1782.05 687.49 1782.14 686.26 C 1785.41 685.41 1788.54 684.49 1791.88 683.68 C 1791.87 675.09 1791.62 666.51 1792.03 657.95 C 1791.99 656.24 1792.82 654.69 1794.20 653.70 C 1796.14 653.92 1798.00 654.52 1799.93 654.98 C 1799.90 663.65 1799.60 672.34 1800.14 681.02 C 1800.15 684.10 1803.11 684.02 1805.79 685.12 C 1806.22 671.76 1806.64 658.26 1804.06 645.08 C 1796.38 645.03 1788.73 644.98 1781.10 644.81 L 1783.24 640.64 C 1795.14 636.54 1807.60 642.00 1819.65 638.78 Z" />
<path fill="#111111" opacity="1.00" d=" M 1227.73 640.00 C 1229.10 639.98 1230.48 639.97 1231.88 639.97 C 1231.31 662.29 1234.94 684.45 1233.97 706.77 C 1232.76 706.91 1231.57 707.05 1230.39 707.20 C 1231.14 711.12 1231.62 715.03 1232.31 719.00 C 1209.51 719.56 1186.79 717.42 1164.01 717.26 C 1137.33 718.24 1110.52 720.75 1083.89 717.77 C 1060.72 716.31 1037.59 718.76 1014.44 719.15 C 1012.74 695.83 1012.77 672.40 1013.07 649.02 C 1014.98 648.13 1016.89 647.26 1018.84 646.43 C 1019.29 664.71 1018.16 683.09 1020.15 701.32 C 1020.43 704.84 1018.51 707.98 1017.18 711.11 C 1024.10 712.11 1031.14 713.00 1038.11 711.81 C 1061.66 709.06 1085.26 712.82 1108.84 711.87 C 1116.25 711.84 1123.67 712.46 1131.07 711.68 C 1151.63 710.24 1172.28 711.76 1192.84 710.12 C 1204.24 710.21 1215.71 713.14 1227.08 710.87 C 1226.85 702.39 1228.20 693.89 1227.20 685.43 C 1226.34 680.31 1227.19 675.17 1227.31 670.05 C 1226.97 660.08 1224.09 649.63 1227.73 640.00 Z" />
<path fill="#111111" opacity="1.00" d=" M 732.29 641.24 C 737.64 647.87 735.48 657.14 736.15 665.00 C 735.74 680.29 737.24 695.87 733.88 710.95 C 752.53 710.62 771.20 711.38 789.82 712.33 C 818.80 708.94 848.13 713.26 877.08 709.35 C 879.30 712.96 882.03 717.27 878.84 721.21 C 871.60 716.85 862.96 718.35 854.96 717.51 C 835.93 716.23 817.04 720.14 798.00 719.15 C 783.35 719.83 768.83 716.60 754.22 717.66 C 745.06 718.48 735.45 720.37 726.55 717.25 C 726.29 709.70 727.76 702.42 730.69 695.53 C 730.56 679.71 729.04 663.82 730.21 648.00 C 730.48 645.63 731.46 643.44 732.29 641.24 Z" />
<path fill="#111111" opacity="1.00" d=" M 876.10 651.96 C 874.63 647.56 877.59 644.26 879.95 641.16 C 885.51 653.26 881.93 667.18 883.13 680.01 C 882.86 686.67 884.43 693.23 884.68 699.84 C 883.15 703.98 877.70 704.51 874.15 705.57 C 875.59 699.79 877.61 694.02 877.11 687.98 C 876.89 675.97 876.76 663.96 876.10 651.96 Z" />
<path fill="#111111" opacity="1.00" d=" M 1141.51 645.83 C 1146.75 645.77 1151.72 649.02 1154.98 652.98 C 1158.78 658.71 1157.73 666.14 1158.93 672.63 C 1159.19 681.54 1156.86 692.01 1147.79 695.89 C 1141.95 695.82 1134.62 697.60 1130.01 693.02 C 1120.65 685.43 1124.63 671.32 1123.97 660.96 C 1124.33 651.93 1133.62 647.08 1141.51 645.83 M 1135.11 653.51 C 1134.99 664.34 1135.01 675.18 1134.96 686.02 C 1138.02 687.95 1141.11 689.72 1144.57 690.90 C 1148.14 681.73 1147.29 671.63 1146.85 662.02 C 1147.51 657.11 1144.14 653.46 1140.40 651.09 C 1138.65 651.93 1136.87 652.73 1135.11 653.51 Z" />
<path fill="#111111" opacity="1.00" d=" M 795.06 653.03 C 797.44 649.86 800.58 646.41 805.07 646.99 C 813.34 644.85 819.95 651.09 823.42 657.72 C 827.02 667.45 825.83 679.00 819.00 687.00 C 813.51 694.27 803.91 695.33 795.80 698.00 C 795.07 696.29 794.36 694.58 793.68 692.87 C 798.39 691.48 803.26 690.05 807.37 687.24 C 810.10 685.09 811.15 681.59 812.59 678.57 C 807.31 679.61 800.90 680.80 797.09 675.96 C 793.05 669.30 790.40 660.10 795.06 653.03 M 803.49 652.83 C 802.46 657.24 801.29 661.85 802.66 666.37 C 803.74 669.56 806.65 671.48 809.11 673.55 C 811.43 671.53 814.36 669.77 815.36 666.69 C 815.11 662.01 813.32 657.53 812.23 653.01 C 809.30 652.95 806.39 652.89 803.49 652.83 Z" />
<path fill="#111111" opacity="1.00" d=" M 1094.15 656.17 C 1098.55 652.44 1103.02 647.92 1108.96 646.90 C 1110.15 647.91 1111.62 649.17 1111.33 650.94 C 1110.67 661.96 1111.78 672.98 1112.35 683.99 C 1111.85 688.50 1114.69 692.04 1116.49 695.83 C 1109.93 695.89 1103.41 695.97 1096.88 695.99 C 1097.01 695.40 1097.27 694.21 1097.40 693.62 C 1099.87 692.02 1102.93 690.13 1102.95 686.81 C 1102.50 677.07 1102.03 667.34 1101.71 657.61 C 1099.82 657.25 1096.04 656.53 1094.15 656.17 Z" />
<path fill="#111111" opacity="1.00" d=" M 1475.20 664.58 C 1478.50 661.69 1482.33 658.88 1487.02 659.18 C 1501.71 658.14 1516.35 660.12 1530.93 661.57 C 1533.79 661.64 1536.66 662.76 1539.27 663.92 C 1530.93 668.95 1520.65 666.59 1511.51 666.13 C 1499.43 664.84 1487.29 665.15 1475.20 664.58 Z" />
<path fill="#111111" opacity="1.00" d=" M 796.00 679.99 C 797.32 679.99 798.66 679.99 800.00 679.99 C 800.00 680.50 800.00 681.50 800.00 682.01 C 798.66 682.00 797.32 682.00 796.00 682.01 C 796.00 681.50 796.00 680.50 796.00 679.99 Z" />
</g>
</svg>
