<?xml version="1.0" encoding="UTF-8" ?>
<!DOCTYPE svg PUBLIC "-//W3C//DTD SVG 1.1//EN" "http://www.w3.org/Graphics/SVG/1.1/DTD/svg11.dtd">
<svg width="1032pt" height="592pt" viewBox="0 0 1032 592" version="1.1" xmlns="http://www.w3.org/2000/svg">
<g id="#303030ff">
<path fill="#303030" opacity="1.00" d=" M 820.27 36.06 C 825.30 35.84 829.64 38.46 833.98 40.55 C 832.26 45.06 829.19 48.77 826.55 52.73 C 837.58 52.92 848.63 53.38 859.68 53.31 C 863.36 53.28 866.30 50.82 869.19 48.85 C 871.32 50.96 873.49 53.05 875.64 55.16 C 873.38 71.41 874.66 88.02 871.21 104.11 C 870.07 110.26 865.18 115.50 859.17 117.10 C 851.91 118.81 846.92 111.63 841.23 108.20 C 844.59 104.76 849.38 104.34 853.94 105.04 C 858.99 105.08 860.81 99.31 861.92 95.32 C 862.68 83.67 865.48 71.72 863.11 60.09 C 850.24 60.20 837.38 59.94 824.56 58.98 C 821.98 58.69 820.01 60.70 818.55 62.54 C 814.55 67.53 810.01 72.05 805.88 76.93 C 803.57 79.82 799.49 80.47 796.32 81.77 C 797.78 76.09 800.71 70.93 804.42 66.45 C 809.60 60.11 812.92 52.50 815.70 44.87 C 816.84 41.82 817.71 38.32 820.27 36.06 Z" />
<path fill="#303030" opacity="1.00" d=" M 898.64 41.89 C 914.70 42.47 930.78 41.79 946.79 40.60 C 950.76 42.46 956.06 45.17 954.89 50.58 C 948.15 54.54 939.99 56.38 934.92 62.83 C 932.75 66.48 932.42 70.83 931.51 74.90 C 937.86 73.99 944.28 73.68 950.60 72.49 C 952.39 70.73 953.58 68.46 955.00 66.40 C 962.70 66.53 967.36 73.78 967.63 80.85 C 955.65 81.04 943.66 80.73 931.71 81.46 C 932.03 93.15 933.40 104.78 934.02 116.46 C 931.95 115.09 929.92 113.67 927.94 112.21 C 927.86 113.88 927.71 117.23 927.63 118.90 C 920.28 116.28 913.37 112.44 907.00 107.96 C 912.00 105.34 917.49 104.14 923.01 103.06 C 922.99 96.08 923.34 89.08 922.85 82.12 C 911.17 79.70 898.89 81.42 886.97 80.85 C 886.58 74.17 893.39 75.35 897.64 74.36 C 906.13 73.76 914.74 75.02 923.18 73.41 C 922.48 68.91 921.67 64.44 920.95 59.95 C 927.23 60.75 930.93 56.24 933.38 51.39 C 920.81 48.74 907.98 52.24 895.42 50.03 C 896.31 47.27 897.49 44.56 898.64 41.89 Z" />
<path fill="#303030" opacity="1.00" d=" M 770.05 64.14 C 777.44 61.98 785.20 60.91 792.90 61.65 C 790.65 64.36 788.25 67.68 784.05 67.11 C 763.98 70.36 744.44 76.13 724.43 79.64 C 712.02 82.03 699.98 86.03 687.44 87.77 C 672.69 90.26 658.62 95.42 644.13 98.95 C 636.30 100.89 628.93 104.37 621.00 105.96 C 602.74 110.06 584.97 115.99 567.35 122.24 C 553.48 125.65 541.01 132.99 527.05 136.16 C 512.50 143.79 496.12 146.56 481.17 153.23 C 473.82 156.71 465.71 158.10 458.26 161.32 C 446.53 166.99 433.61 169.43 421.14 172.93 C 362.00 185.95 301.10 184.04 241.01 188.05 L 241.03 183.35 C 265.29 180.88 289.70 181.21 313.99 179.17 C 337.08 179.26 359.99 176.11 383.00 174.57 C 390.25 174.33 396.94 171.27 403.99 169.88 C 420.61 166.28 437.62 163.39 453.26 156.42 C 471.07 150.96 488.12 143.36 505.82 137.56 C 525.82 127.94 547.82 124.04 568.50 116.25 C 578.59 112.29 588.33 107.31 598.98 104.92 C 615.09 101.04 630.82 95.89 646.84 91.66 C 653.16 89.95 659.95 90.53 666.12 88.19 C 678.97 83.03 692.93 81.86 706.18 78.05 C 714.10 75.50 722.49 75.01 730.43 72.50 C 743.46 68.92 756.99 67.64 770.05 64.14 Z" />
<path fill="#303030" opacity="1.00" d=" M 815.47 67.45 C 817.79 66.53 820.21 65.62 822.77 65.85 C 831.13 66.42 839.55 66.07 847.93 66.25 C 849.40 67.85 851.85 69.41 851.51 71.94 C 851.15 79.60 850.22 87.23 849.56 94.87 C 849.35 96.80 848.26 98.51 846.85 99.78 C 839.73 98.36 832.70 96.34 825.51 95.30 C 824.92 98.45 824.73 101.65 824.18 104.81 C 821.19 103.10 811.28 105.67 814.95 98.03 C 814.45 87.85 817.14 77.59 815.47 67.45 M 827.34 72.78 C 826.60 73.62 825.87 74.46 825.16 75.31 C 825.11 78.98 825.01 86.32 824.96 89.98 C 829.49 90.02 833.99 90.06 838.57 90.10 C 839.74 85.17 839.83 80.07 840.39 75.05 C 836.03 74.22 831.72 73.37 827.34 72.78 Z" />
<path fill="#303030" opacity="1.00" d=" M 84.93 134.55 C 90.02 136.93 96.82 137.93 99.17 143.66 C 96.41 146.42 93.03 148.45 90.18 151.11 C 104.92 153.08 120.33 154.79 134.83 150.58 C 137.81 151.25 140.79 152.72 142.63 155.24 C 137.41 170.28 140.99 186.85 136.34 202.08 C 135.02 207.18 133.75 214.05 128.03 216.04 C 124.89 216.71 120.82 220.08 117.71 217.35 C 113.72 214.44 109.78 211.46 105.49 208.99 C 110.81 205.97 117.16 206.34 123.08 205.66 C 129.97 191.60 130.09 175.05 127.81 159.86 C 113.21 159.99 98.60 159.88 84.01 160.24 C 85.53 163.60 87.86 167.42 92.10 167.37 C 96.67 167.22 101.05 165.63 105.57 165.06 C 110.50 162.91 114.33 166.87 117.94 169.41 C 113.08 177.54 113.19 187.64 115.77 196.54 C 114.01 197.83 112.21 199.04 110.36 200.19 C 104.18 199.80 98.27 197.74 92.17 196.79 C 92.35 205.88 82.46 206.61 76.86 202.48 C 78.83 191.65 79.04 180.60 78.96 169.62 C 74.05 175.59 68.34 181.48 60.33 182.84 C 59.59 170.69 70.74 163.51 75.28 153.35 C 77.90 146.79 80.84 140.35 84.93 134.55 M 91.01 173.96 C 91.01 177.72 91.00 185.24 90.99 189.00 C 95.34 189.00 99.68 188.99 104.03 189.00 C 103.97 184.75 103.90 180.49 103.84 176.25 C 103.16 175.53 102.49 174.82 101.82 174.11 C 99.12 174.07 93.71 174.00 91.01 173.96 Z" />
<path fill="#303030" opacity="1.00" d=" M 165.94 134.54 C 170.19 137.37 175.07 139.56 178.40 143.57 C 181.87 147.85 183.81 153.06 186.17 157.98 C 189.15 157.23 192.12 156.50 195.12 155.80 C 196.99 149.13 195.36 142.23 194.99 135.48 C 199.91 135.54 204.78 136.27 209.38 138.04 C 206.20 143.69 205.45 150.12 206.69 156.49 C 213.29 154.68 220.73 151.28 227.04 155.81 C 227.02 158.53 227.01 161.25 227.00 163.97 C 220.33 163.99 213.66 164.01 206.99 164.03 C 207.00 168.38 207.00 172.74 207.02 177.10 C 209.50 176.95 214.47 176.66 216.96 176.52 C 218.33 174.21 219.89 171.24 223.00 171.27 C 226.43 172.39 229.29 174.73 232.43 176.45 C 231.50 179.01 230.49 181.56 229.36 184.04 C 221.99 184.36 214.11 182.08 207.08 185.13 C 201.26 189.65 195.08 194.17 190.97 200.42 C 198.53 199.91 206.07 199.28 213.64 198.90 C 211.50 195.01 210.50 190.68 209.45 186.41 C 218.04 188.97 226.32 194.75 229.13 203.61 C 230.99 207.12 228.85 210.28 227.46 213.30 C 224.39 213.08 221.47 213.04 218.44 212.85 C 217.71 210.31 217.08 207.91 216.30 205.43 C 204.11 208.69 191.57 210.26 179.26 212.91 C 177.57 211.19 175.88 209.47 174.20 207.75 C 174.16 206.10 174.07 202.80 174.03 201.14 C 182.82 198.64 187.78 190.97 192.77 184.03 C 185.67 183.87 178.58 183.70 171.50 183.33 C 170.07 193.24 170.45 203.32 169.10 213.23 C 165.42 213.05 161.79 212.46 158.26 211.45 C 158.44 202.29 158.02 193.07 154.33 184.59 C 160.24 183.13 163.73 178.17 166.39 173.17 C 163.75 173.43 160.36 174.17 158.73 171.42 C 156.27 167.08 155.21 162.13 153.65 157.43 C 159.89 157.37 165.69 159.75 170.78 163.15 C 171.95 160.39 173.05 157.60 174.02 154.77 C 167.77 152.21 164.82 145.80 162.37 140.03 C 162.42 137.85 164.80 136.33 165.94 134.54 M 180.27 162.76 C 178.01 167.45 175.65 172.08 173.59 176.85 C 180.72 176.95 187.86 177.00 195.00 177.03 C 195.00 172.77 194.98 168.50 194.99 164.24 C 190.08 163.80 185.16 163.33 180.27 162.76 Z" />
<path fill="#303030" opacity="1.00" d=" M 243.92 188.65 C 248.31 189.12 252.47 190.74 256.79 191.53 C 282.32 191.78 307.69 195.74 333.05 198.60 C 358.52 201.32 383.61 206.63 408.93 210.40 C 429.23 214.29 449.74 217.23 469.77 222.42 C 479.52 224.83 489.56 225.95 499.18 228.92 C 508.56 232.07 518.60 232.33 528.07 235.15 C 533.22 237.03 538.45 238.77 543.85 239.86 C 564.67 242.98 584.99 248.80 605.87 251.62 C 615.64 254.28 625.67 255.76 635.57 257.89 C 649.66 259.56 662.98 264.95 677.05 266.73 C 686.13 267.77 694.81 270.80 703.77 272.47 C 718.53 275.28 733.51 276.85 748.09 280.59 C 768.17 283.35 788.30 285.80 808.41 288.36 C 807.61 290.34 806.77 292.30 805.93 294.26 C 784.54 293.13 763.61 288.08 742.42 285.32 C 726.97 282.41 711.48 279.75 696.06 276.70 C 670.63 272.78 645.77 265.83 620.27 262.24 C 593.35 255.35 566.00 250.40 539.02 243.77 C 509.25 238.97 480.22 230.52 450.54 225.19 C 407.91 214.48 364.21 208.26 320.49 203.88 C 297.01 201.27 273.59 197.91 249.98 196.77 C 245.79 196.97 245.24 191.13 243.92 188.65 Z" />
<path fill="#303030" opacity="1.00" d=" M 820.08 270.63 C 827.05 268.84 833.36 271.86 839.47 274.63 C 838.48 277.67 839.96 282.48 836.83 284.70 C 834.29 285.67 831.55 285.73 828.92 286.23 C 826.88 280.53 822.63 276.06 820.08 270.63 Z" />
<path fill="#303030" opacity="1.00" d=" M 877.00 273.68 C 881.15 273.26 884.75 270.81 888.94 270.44 C 892.19 271.10 895.01 272.99 897.97 274.41 C 896.91 277.15 895.88 279.90 894.26 282.36 C 894.85 302.17 895.79 322.04 894.71 341.85 C 893.12 347.04 885.95 344.51 882.10 344.78 C 876.62 342.52 869.83 340.93 867.60 334.64 C 872.69 334.33 877.87 334.09 883.00 333.87 C 883.00 320.56 883.00 307.25 882.99 293.95 C 869.71 294.53 855.91 296.96 842.93 293.01 C 843.74 291.49 844.46 289.89 845.54 288.52 C 852.32 287.97 859.14 288.13 865.94 287.55 C 868.81 287.03 871.22 285.18 874.07 284.55 C 877.40 285.04 880.25 287.12 883.15 288.73 C 883.07 286.15 883.01 283.57 882.96 281.00 C 872.30 280.95 861.62 281.52 850.98 280.90 C 847.83 280.63 846.59 277.17 844.97 274.97 C 855.61 274.05 866.32 274.30 877.00 273.68 Z" />
<path fill="#303030" opacity="1.00" d=" M 820.69 290.68 C 825.15 289.73 829.73 288.44 834.37 288.90 C 837.02 289.75 839.19 291.57 841.34 293.28 C 834.23 302.55 840.48 314.74 837.76 325.23 C 841.09 324.42 844.44 323.53 847.78 322.70 C 848.25 315.20 849.32 307.70 848.25 300.20 C 848.90 299.49 849.57 298.79 850.25 298.10 C 855.63 298.99 861.17 300.37 866.66 299.41 C 869.94 298.00 873.24 299.06 876.24 300.38 C 875.05 307.86 874.31 315.48 875.40 323.03 C 875.47 327.53 870.96 329.68 867.57 331.51 C 865.96 328.73 864.39 325.94 862.80 323.16 C 862.12 323.12 860.74 323.03 860.06 322.99 C 859.50 326.20 860.33 330.84 856.69 332.42 C 853.22 332.69 849.84 331.97 846.40 332.24 C 840.39 336.35 835.80 343.02 827.87 343.65 C 825.90 328.63 826.98 313.35 828.04 298.28 C 824.04 297.84 820.06 297.36 816.09 296.85 C 817.43 294.67 818.74 292.39 820.69 290.68 M 860.00 306.00 C 860.00 308.75 860.00 314.25 860.00 317.00 L 865.00 317.00 C 865.00 314.25 865.00 308.75 865.00 306.00 L 860.00 306.00 Z" />
<path fill="#303030" opacity="1.00" d=" M 751.07 304.26 C 763.45 301.91 775.52 297.95 788.06 296.45 C 791.64 296.22 793.31 300.32 795.06 302.78 C 773.76 305.79 752.21 307.54 731.26 312.61 C 708.43 316.23 686.19 322.91 663.24 325.81 C 628.38 333.92 593.04 339.95 558.42 349.09 C 526.82 356.20 495.41 364.10 464.00 371.97 C 450.71 374.70 437.35 377.16 424.45 381.43 C 403.01 385.52 381.63 389.96 360.08 393.47 C 328.61 400.88 296.13 402.49 264.38 408.43 C 259.81 409.37 255.38 411.22 250.68 411.40 C 248.69 403.43 257.91 404.42 262.44 403.09 C 285.53 399.53 309.09 398.87 331.73 392.60 C 351.41 389.22 370.91 384.71 390.76 382.40 C 401.81 379.99 412.85 377.53 423.80 374.70 C 442.40 370.72 461.32 367.84 479.39 361.74 C 485.47 360.14 491.71 359.15 497.80 357.55 C 517.11 351.84 536.86 347.85 556.44 343.23 C 571.39 338.62 586.88 336.20 602.14 332.95 C 617.25 327.78 633.06 325.21 648.72 322.32 C 673.76 317.00 698.92 312.19 724.16 307.98 C 732.84 304.98 742.14 305.95 751.07 304.26 Z" />
<path fill="#303030" opacity="1.00" d=" M 175.31 383.10 C 181.92 383.59 189.33 387.46 191.11 394.39 C 192.59 397.42 193.55 400.65 194.68 403.82 C 199.16 403.87 203.65 403.96 208.14 404.00 C 205.62 397.04 204.90 389.55 205.33 382.19 C 210.11 382.65 214.78 383.83 219.18 385.75 C 217.80 392.16 216.34 398.56 215.01 404.98 C 219.11 404.73 223.48 403.88 225.58 400.00 C 231.34 400.17 237.80 402.60 239.22 408.99 C 231.57 412.61 223.13 409.77 215.12 411.13 C 216.05 415.97 216.70 420.83 217.46 425.72 C 223.52 425.58 228.45 421.91 234.06 420.35 C 239.19 420.31 243.14 424.59 245.03 429.03 C 236.81 429.86 228.43 429.21 220.28 430.50 C 213.46 435.13 208.84 442.44 201.90 447.01 C 209.41 446.99 216.93 446.97 224.44 446.89 C 222.78 442.79 220.82 438.79 219.49 434.56 C 227.04 436.53 236.46 439.58 239.17 447.80 C 240.04 452.05 241.55 458.43 236.59 460.72 C 230.93 463.57 227.92 458.81 225.48 454.92 C 213.05 455.53 200.83 457.94 188.85 461.18 C 186.95 457.03 185.70 452.61 184.76 448.15 C 192.98 445.86 198.78 439.36 203.11 432.40 C 196.00 431.87 188.75 432.11 181.81 430.29 C 179.48 440.71 182.59 451.68 179.31 461.91 C 176.46 460.54 170.66 462.03 169.02 458.24 C 167.49 448.79 167.44 439.02 163.91 429.99 C 169.52 431.34 173.36 427.62 175.67 423.21 C 167.21 421.53 166.73 412.05 163.58 405.68 C 167.47 407.18 174.05 403.95 176.68 408.23 C 177.97 410.03 179.08 411.96 180.25 413.84 C 182.51 409.68 185.13 405.73 187.38 401.56 C 185.07 401.08 182.77 400.59 180.48 400.10 C 179.26 395.12 175.17 392.35 172.03 388.78 C 172.57 386.63 173.79 384.70 175.31 383.10 M 190.46 409.79 C 188.39 414.93 186.22 420.03 184.18 425.19 C 191.00 425.09 197.83 425.17 204.63 424.55 C 209.43 422.38 207.08 415.57 208.64 411.68 C 202.62 410.71 196.53 410.26 190.46 409.79 Z" />
<path fill="#303030" opacity="1.00" d=" M 81.55 386.56 C 86.99 387.44 92.18 389.36 97.21 391.56 C 97.14 394.41 96.99 400.10 96.91 402.95 C 94.98 403.87 93.04 404.77 91.08 405.63 C 93.62 407.19 96.19 408.69 98.74 410.24 C 97.19 421.80 96.87 433.47 96.97 445.13 C 100.48 442.94 103.86 440.55 107.35 438.33 C 106.74 431.28 106.49 423.81 109.08 417.11 C 116.58 416.22 124.24 418.03 131.69 416.20 C 132.98 418.67 135.64 420.89 135.23 423.95 C 134.67 431.79 134.17 439.66 133.86 447.53 C 131.48 447.88 129.07 448.17 126.67 448.29 C 124.31 446.34 122.42 443.86 119.95 442.03 C 118.47 445.54 118.11 450.33 114.74 452.85 C 111.30 452.83 108.29 450.94 105.25 449.57 C 100.98 453.83 97.22 458.74 92.21 462.19 C 85.36 466.29 80.85 456.92 82.28 451.53 C 83.89 440.48 85.83 429.45 86.24 418.25 C 81.48 417.93 76.71 417.74 71.97 417.26 C 73.43 415.06 72.68 410.31 75.78 409.03 C 79.49 408.14 83.22 407.38 86.99 406.75 C 85.32 400.73 81.23 395.90 77.25 391.25 C 78.69 389.70 80.12 388.13 81.55 386.56 M 118.06 425.73 C 118.03 428.85 117.99 431.86 117.97 435.00 C 119.74 435.00 123.26 435.00 125.02 435.00 C 125.00 433.24 124.97 429.71 124.95 427.95 C 122.68 427.21 120.33 426.30 118.06 425.73 Z" />
<path fill="#303030" opacity="1.00" d=" M 143.51 390.04 C 147.49 389.37 151.36 390.46 155.11 391.59 C 153.18 397.00 151.08 402.70 151.77 408.55 C 153.14 426.04 153.23 443.59 152.99 461.13 C 149.03 462.33 145.13 464.82 140.85 463.62 C 136.60 461.52 132.41 459.28 128.12 457.26 C 130.15 451.83 135.69 450.76 140.92 450.44 C 141.01 437.13 141.00 423.83 141.11 410.54 C 128.67 415.17 114.86 414.96 101.91 413.14 C 102.27 410.64 103.00 408.23 103.73 405.83 C 111.73 405.55 120.09 408.22 127.90 405.58 C 132.35 403.12 136.88 405.25 141.10 406.75 C 141.06 404.16 141.02 401.57 140.97 399.00 C 130.31 398.95 119.63 399.50 108.98 398.91 C 105.42 398.71 104.42 394.61 103.05 392.01 C 116.51 390.91 130.04 390.94 143.51 390.04 Z" />
<path fill="#303030" opacity="1.00" d=" M 246.02 414.14 C 253.74 415.73 261.10 419.04 269.04 419.50 C 295.05 421.80 320.91 425.53 346.96 427.47 C 367.07 429.23 386.76 434.43 406.99 434.95 C 427.03 435.77 445.88 443.46 465.66 445.92 C 479.48 447.57 492.82 451.64 506.50 453.98 C 521.71 458.47 537.49 460.55 552.73 464.89 C 572.57 469.92 592.60 474.14 612.53 478.77 C 630.75 484.61 649.40 489.01 667.84 494.07 C 680.33 498.49 693.67 499.41 706.27 503.48 C 715.84 504.70 725.33 506.57 734.57 509.39 C 754.63 513.20 775.29 515.01 794.49 522.41 C 794.06 523.12 793.20 524.53 792.77 525.24 C 780.98 526.24 769.65 523.44 758.40 520.49 C 733.22 517.30 708.92 509.50 683.94 505.22 C 677.23 504.42 671.07 501.58 664.74 499.47 C 646.74 494.16 628.43 490.02 610.27 485.35 C 597.41 483.80 584.83 480.65 572.40 477.09 C 551.96 473.51 532.86 464.54 512.10 462.47 C 498.35 458.74 484.10 457.57 470.22 454.46 C 451.46 449.61 432.14 447.39 413.41 442.41 C 400.17 440.40 386.47 441.74 373.64 437.27 C 357.79 435.28 341.62 435.49 325.95 432.07 C 303.71 427.63 280.81 429.18 258.53 425.13 C 252.74 423.97 248.54 419.22 246.02 414.14 Z" />
<path fill="#303030" opacity="1.00" d=" M 931.48 467.56 C 936.21 467.85 940.84 469.01 945.21 470.80 C 944.32 473.97 943.40 477.13 942.62 480.33 C 945.23 480.22 950.45 479.99 953.05 479.87 C 956.62 480.18 957.66 476.09 959.29 473.76 C 966.14 472.83 972.69 478.24 973.95 484.75 C 970.99 488.79 965.16 487.43 961.00 488.70 C 966.47 492.87 973.80 495.21 977.84 501.01 C 977.35 503.15 976.35 505.12 975.47 507.12 C 968.22 507.05 960.98 507.09 953.75 507.12 C 958.24 513.99 966.46 516.33 972.30 521.67 C 975.75 524.61 974.51 530.82 970.62 532.77 C 966.77 534.22 964.11 531.49 961.34 529.65 C 958.29 527.03 954.03 528.17 950.39 527.82 C 957.08 532.27 966.60 532.69 971.56 539.53 C 975.24 546.77 965.86 547.61 961.38 548.48 C 958.43 542.22 953.31 536.76 946.28 535.26 C 945.37 532.98 944.50 530.71 943.67 528.45 C 941.58 532.73 941.64 537.53 942.50 542.13 C 943.56 546.06 938.69 549.65 934.99 547.98 C 928.42 548.64 924.67 542.45 919.07 540.44 C 914.54 541.55 910.90 544.69 907.76 547.99 C 904.20 547.12 900.57 546.20 897.04 545.37 C 897.61 543.16 898.70 540.87 900.76 539.76 C 905.69 536.70 911.05 534.41 916.26 531.87 C 911.75 530.56 905.77 532.51 902.30 528.63 C 902.34 525.63 902.82 522.76 903.37 519.85 C 908.88 519.95 914.40 520.08 919.94 520.24 C 914.22 518.25 909.38 514.31 910.04 507.65 C 906.01 506.64 901.02 508.16 897.66 505.32 C 895.47 503.74 897.15 501.02 897.40 498.92 C 907.90 498.97 918.41 499.00 928.93 498.92 C 928.98 498.39 929.07 497.32 929.11 496.79 C 920.89 497.43 909.59 501.02 904.54 492.01 C 913.46 490.82 922.59 490.66 931.40 488.59 C 922.68 488.20 913.95 488.36 905.28 487.58 C 903.06 486.03 902.18 483.32 901.05 481.00 C 910.59 480.09 920.19 480.02 929.79 479.89 C 930.20 476.74 930.02 473.56 929.62 470.42 C 930.24 469.46 930.86 468.51 931.48 467.56 M 942.95 487.72 C 943.00 488.67 943.11 490.56 943.16 491.50 C 945.92 490.56 948.84 489.72 951.58 488.59 C 948.69 488.30 945.81 488.01 942.95 487.72 M 945.21 496.11 C 944.41 497.09 943.61 498.07 942.83 499.05 C 948.73 498.80 954.63 498.51 960.56 498.10 C 955.55 496.73 950.31 496.83 945.21 496.11 M 934.49 509.25 C 933.41 511.01 936.47 512.18 937.32 510.57 C 938.41 508.81 935.33 507.67 934.49 509.25 M 942.31 519.85 C 945.98 521.75 950.08 521.72 954.14 521.61 C 953.26 519.98 952.37 518.36 951.50 516.74 C 948.36 517.61 945.34 518.69 942.31 519.85 M 930.29 532.00 C 929.13 532.57 928.73 534.56 929.74 535.45 C 931.59 536.00 932.15 532.08 930.29 532.00 Z" />
<path fill="#303030" opacity="1.00" d=" M 810.39 469.52 C 817.22 469.44 824.01 470.80 829.54 474.91 C 828.94 479.28 829.31 483.87 828.07 488.16 C 825.67 488.06 820.86 487.85 818.46 487.75 C 814.65 482.26 812.77 475.69 810.39 469.52 Z" />
<path fill="#303030" opacity="1.00" d=" M 871.78 469.52 C 874.71 469.95 877.98 470.00 880.77 471.28 C 883.76 473.98 885.71 477.54 887.56 481.07 C 878.50 483.38 869.21 482.90 860.01 483.76 C 860.00 485.47 859.99 488.91 859.98 490.63 C 866.59 489.27 873.61 488.45 879.67 492.07 C 878.33 494.36 876.88 496.58 875.40 498.78 C 875.69 499.89 875.99 501.01 876.29 502.14 C 881.36 503.38 891.78 503.57 889.17 512.00 C 869.57 516.14 849.75 512.38 830.00 512.83 C 830.01 511.49 830.04 508.82 830.05 507.48 C 835.35 506.88 840.77 506.50 845.98 505.16 C 845.82 502.08 846.07 499.25 846.00 496.23 C 843.03 495.99 840.08 495.75 837.13 495.50 C 841.46 492.37 847.03 490.37 849.40 485.13 C 844.14 484.00 838.93 482.77 833.67 481.67 C 834.14 479.11 835.05 476.79 835.73 474.32 C 846.77 476.38 857.95 473.82 869.03 475.61 C 869.99 473.60 870.90 471.56 871.78 469.52 M 858.32 496.14 C 857.51 499.24 856.80 502.40 855.95 505.51 C 858.95 506.31 861.82 506.89 864.93 507.50 C 864.94 504.62 864.98 498.85 865.00 495.97 C 863.33 496.01 859.99 496.09 858.32 496.14 Z" />
<path fill="#303030" opacity="1.00" d=" M 805.65 494.47 C 812.36 492.98 818.82 490.24 825.69 489.45 C 827.48 490.40 829.03 491.75 830.64 492.99 C 828.81 505.25 828.89 517.68 828.95 530.06 C 832.09 528.40 836.70 527.88 837.77 523.95 C 838.85 520.48 839.97 516.96 842.43 514.17 C 844.41 516.12 846.40 518.08 848.38 520.06 C 856.51 519.71 864.63 518.61 872.11 515.22 C 874.85 517.24 877.62 519.28 880.43 521.23 C 879.68 528.36 879.40 535.63 880.71 542.72 C 879.65 543.98 878.60 545.25 877.57 546.54 C 872.56 547.04 867.91 545.21 865.84 540.55 C 860.60 540.28 855.38 540.12 850.17 539.95 C 849.90 541.47 849.35 544.51 849.07 546.04 C 846.33 546.02 840.84 545.99 838.09 545.98 C 838.10 541.72 838.28 537.51 838.25 533.27 C 832.89 537.19 828.31 542.15 822.77 545.77 C 818.36 546.56 815.81 540.76 815.62 537.03 C 816.58 524.80 817.35 512.55 816.99 500.27 C 812.71 499.32 807.53 499.39 805.65 494.47 M 850.00 524.98 C 850.05 528.03 849.86 530.94 850.00 534.05 C 855.54 533.95 861.08 533.86 866.66 533.74 C 867.17 533.07 867.70 532.40 868.24 531.74 C 867.95 529.66 866.39 526.77 866.74 525.06 C 861.15 525.02 855.56 524.99 850.00 524.98 Z" />
</g>
</svg>
