<?xml version="1.0" encoding="UTF-8" ?>
<!DOCTYPE svg PUBLIC "-//W3C//DTD SVG 1.1//EN" "http://www.w3.org/Graphics/SVG/1.1/DTD/svg11.dtd">
<svg width="1020pt" height="396pt" viewBox="0 0 1020 396" version="1.1" xmlns="http://www.w3.org/2000/svg">
<g id="#010101fe">
<path fill="#010101" opacity="1.00" d=" M 135.61 26.55 C 136.17 25.31 136.77 24.09 137.42 22.89 C 139.03 23.46 140.71 24.07 142.42 23.50 C 146.90 22.37 151.73 23.03 155.67 25.46 C 157.00 27.05 157.64 29.09 158.73 30.84 C 158.44 32.79 157.52 34.53 156.37 36.10 C 157.48 37.91 159.08 39.57 159.50 41.71 C 159.21 44.40 157.70 46.74 155.84 48.63 C 154.09 48.54 152.33 48.47 150.58 48.38 C 150.25 48.80 149.57 49.63 149.23 50.04 C 145.19 49.99 141.16 50.03 137.13 49.93 C 137.06 48.62 137.01 47.31 136.95 46.00 C 137.71 46.00 139.24 46.00 140.00 46.00 C 139.88 40.05 140.23 34.09 139.86 28.16 C 138.87 26.86 136.99 27.08 135.61 26.55 M 145.99 27.01 C 145.99 29.61 146.01 32.21 146.07 34.81 C 147.88 34.36 149.68 33.87 151.49 33.39 C 151.51 32.44 151.57 30.55 151.60 29.61 C 150.72 28.73 149.84 27.86 148.97 26.99 C 148.22 26.99 146.74 27.00 145.99 27.01 M 145.94 38.53 C 146.29 41.05 145.08 44.30 147.43 46.10 C 149.31 45.68 151.03 44.77 152.79 44.03 C 152.36 42.16 151.86 40.31 151.39 38.46 C 149.57 38.48 147.76 38.51 145.94 38.53 Z" />
<path fill="#010101" opacity="1.00" d=" M 422.32 24.92 C 423.52 24.19 425.02 21.60 426.05 23.84 C 430.85 31.39 432.32 40.76 437.90 47.84 C 437.66 48.40 437.19 49.51 436.95 50.06 C 434.37 50.01 431.79 50.00 429.21 49.99 C 428.53 49.25 427.86 48.52 427.19 47.78 C 430.41 47.24 429.36 44.52 428.81 42.30 C 425.66 42.46 422.52 42.52 419.38 42.50 C 418.00 44.93 418.93 47.56 419.54 50.06 C 417.06 50.02 414.59 49.98 412.12 49.92 C 412.07 48.80 412.03 47.67 412.01 46.55 C 416.66 39.98 418.56 31.98 422.32 24.92 M 423.35 35.76 C 423.11 36.09 422.62 36.75 422.38 37.08 C 423.33 40.50 427.09 35.16 423.35 35.76 Z" />
<path fill="#010101" opacity="1.00" d=" M 489.89 24.12 C 492.08 23.97 494.28 23.81 496.47 23.61 C 499.23 25.64 502.76 23.56 505.81 25.04 C 508.86 26.94 511.12 30.10 511.30 33.75 C 510.76 35.23 510.01 36.61 509.33 38.01 C 510.46 39.17 511.60 40.33 512.73 41.50 C 512.26 43.56 511.72 45.61 511.30 47.69 C 508.84 49.81 505.33 51.97 502.10 50.21 C 501.42 50.48 500.75 50.76 500.09 51.03 C 497.13 50.43 494.14 49.99 491.12 49.86 C 490.43 49.09 489.74 48.32 489.06 47.55 C 490.54 46.92 492.02 46.29 493.52 45.67 C 493.46 39.74 493.49 33.80 493.51 27.86 C 492.07 27.40 490.64 26.96 489.20 26.54 C 489.43 25.73 489.66 24.93 489.89 24.12 M 499.20 28.42 C 497.46 30.50 499.47 33.22 499.70 35.54 C 500.47 35.51 502.01 35.46 502.79 35.44 C 503.51 34.59 504.25 33.74 504.99 32.89 C 504.99 32.29 505.00 31.09 505.00 30.49 C 504.13 29.58 503.26 28.67 502.41 27.76 C 501.33 27.94 500.26 28.16 499.20 28.42 M 498.67 39.05 C 499.33 41.50 499.63 44.05 498.89 46.53 C 500.08 46.76 501.27 46.97 502.48 47.19 C 504.24 45.95 506.27 44.70 506.32 42.28 C 505.45 41.41 504.60 40.55 503.76 39.67 C 502.06 39.49 500.36 39.29 498.67 39.05 Z" />
<path fill="#010101" opacity="1.00" d=" M 793.78 23.64 C 794.61 23.26 795.47 22.91 796.36 22.60 C 800.37 31.14 803.72 40.01 808.60 48.10 C 808.41 48.58 808.03 49.53 807.84 50.00 C 804.56 50.00 801.28 50.00 798.01 50.01 C 797.81 49.56 797.39 48.68 797.19 48.24 C 798.28 47.71 799.38 47.19 800.50 46.68 C 800.05 45.27 799.56 43.88 799.11 42.48 C 796.03 42.41 792.95 42.42 789.88 42.51 C 789.27 43.80 788.67 45.08 788.07 46.36 C 788.75 46.64 790.10 47.19 790.77 47.47 C 790.54 48.34 790.31 49.21 790.09 50.08 C 787.15 49.93 783.69 50.71 781.68 48.00 C 782.55 46.88 783.46 45.75 784.32 44.59 C 785.80 41.50 787.22 38.38 788.35 35.14 C 788.64 34.76 789.23 33.99 789.53 33.60 C 790.73 30.20 792.14 26.86 793.78 23.64 M 792.40 38.19 C 793.47 38.28 795.62 38.45 796.69 38.54 C 796.07 36.44 795.37 34.36 794.58 32.33 C 793.46 34.12 792.84 36.14 792.40 38.19 Z" />
<path fill="#010101" opacity="1.00" d=" M 878.36 23.24 C 880.27 22.58 882.28 23.25 884.18 23.68 C 887.86 23.71 891.47 24.46 894.86 25.94 C 897.34 27.56 898.35 30.33 899.54 32.90 C 898.58 34.24 897.48 35.52 896.88 37.06 C 898.45 39.68 900.01 42.30 899.74 45.51 C 897.13 50.08 891.73 51.29 886.85 51.17 C 886.50 50.76 885.81 49.94 885.46 49.52 C 882.29 50.04 878.34 50.97 876.54 47.51 C 878.01 47.03 879.83 47.01 880.87 45.66 C 881.06 41.17 881.47 36.54 880.30 32.15 C 880.56 31.43 880.84 30.72 881.13 30.01 C 880.64 29.01 880.16 28.01 879.69 27.01 C 878.91 26.99 877.33 26.94 876.55 26.92 C 877.10 25.69 877.27 24.16 878.36 23.24 M 886.08 29.21 C 885.84 31.06 885.89 32.96 886.25 34.80 C 887.54 35.25 888.87 35.62 890.23 35.90 C 891.06 34.29 892.87 32.84 892.52 30.84 C 891.73 29.71 890.82 28.68 889.96 27.62 C 888.65 28.10 886.97 28.00 886.08 29.21 M 886.94 39.52 C 887.28 42.04 886.08 45.26 888.41 47.08 C 890.55 46.92 892.25 45.41 894.05 44.37 C 893.13 42.73 892.21 41.10 891.28 39.48 C 889.82 39.50 888.38 39.51 886.94 39.52 Z" />
<path fill="#010101" opacity="1.00" d=" M 52.67 25.71 C 53.41 24.98 54.05 23.52 55.31 24.09 C 58.01 29.57 61.58 34.63 63.30 40.56 C 63.92 44.14 68.46 46.09 67.26 50.02 C 64.17 50.01 61.07 50.00 57.97 50.00 C 57.84 49.68 57.58 49.04 57.45 48.72 C 59.29 47.24 60.79 44.13 58.14 42.61 C 55.01 42.35 51.89 42.05 48.82 41.35 C 48.45 42.52 48.08 43.69 47.71 44.86 C 48.19 45.25 49.14 46.03 49.61 46.42 C 49.58 46.94 49.50 47.98 49.47 48.51 C 46.58 48.52 43.69 48.58 40.80 48.42 C 42.85 45.16 45.24 42.06 46.45 38.35 C 48.71 34.22 49.69 29.43 52.67 25.71 M 50.30 38.14 C 52.17 38.30 54.05 38.44 55.92 38.55 C 55.32 36.92 54.68 35.31 54.01 33.71 C 52.71 35.14 51.46 36.60 50.30 38.14 Z" />
<path fill="#010101" opacity="1.00" d=" M 760.82 66.70 C 765.84 66.69 771.10 65.64 775.94 67.37 C 777.63 67.42 779.34 67.42 781.05 67.38 C 784.21 66.04 787.69 66.53 791.02 66.47 C 802.69 66.51 814.37 66.50 826.04 66.46 C 827.72 66.42 829.38 66.78 830.96 67.35 C 840.28 67.40 849.70 68.15 858.94 66.55 C 860.46 66.22 861.87 67.01 863.26 67.51 C 863.45 67.14 863.82 66.40 864.01 66.03 C 864.42 66.42 865.23 67.22 865.64 67.62 C 869.23 66.13 873.15 66.49 876.96 66.45 C 880.28 66.48 883.72 66.21 886.92 67.38 C 890.21 67.60 893.59 67.73 896.78 66.66 C 896.99 66.91 897.42 67.40 897.63 67.64 C 900.46 66.38 903.55 66.37 906.59 66.63 C 910.75 66.88 915.74 65.09 919.16 68.21 C 919.73 65.89 922.19 66.62 923.94 66.46 C 930.62 66.64 937.37 65.96 943.96 67.35 C 952.10 67.76 960.27 67.30 968.42 67.55 C 968.69 67.29 969.22 66.78 969.49 66.52 C 972.71 68.46 976.30 66.07 979.74 66.96 C 983.75 66.09 987.83 66.53 991.84 67.17 C 996.02 66.20 1000.15 67.68 1004.35 67.67 C 1004.75 67.36 1005.55 66.73 1005.95 66.42 C 1006.68 67.03 1007.42 67.64 1008.18 68.25 C 1008.33 71.64 1006.19 74.56 1006.46 77.94 C 1006.57 89.95 1006.46 101.96 1006.52 113.97 C 1006.50 117.33 1006.72 120.77 1005.75 124.03 C 1006.96 128.67 1006.55 133.51 1006.26 138.23 C 1006.30 139.49 1006.34 140.75 1006.38 142.01 C 1005.67 142.21 1004.24 142.61 1003.53 142.81 C 1003.52 144.58 1003.53 146.35 1003.57 148.12 C 1001.20 149.06 998.56 149.45 996.23 148.18 C 987.80 147.84 979.36 148.01 970.93 148.04 C 962.03 149.54 952.95 149.00 943.97 148.89 C 936.40 147.45 928.65 148.06 921.00 148.07 C 913.69 149.13 906.20 149.63 898.92 148.09 C 890.67 151.11 882.02 146.42 873.61 148.45 C 871.34 148.23 869.06 148.41 866.80 148.30 C 863.95 149.29 860.96 147.98 858.06 148.76 C 849.38 149.00 840.66 149.18 831.97 148.87 C 825.38 147.50 818.64 148.11 811.97 148.01 C 807.75 148.03 803.48 147.70 799.31 148.51 C 796.63 147.96 793.87 147.81 791.22 148.54 C 785.76 147.92 780.33 149.86 774.90 148.70 C 769.82 147.59 764.59 148.08 759.44 148.00 C 758.93 146.26 758.38 144.52 757.85 142.79 C 761.22 143.61 766.74 145.87 768.00 140.99 C 770.24 140.97 772.53 141.00 774.73 141.59 C 779.54 140.03 784.34 142.19 789.20 141.91 C 790.74 141.09 792.48 141.06 794.19 141.04 C 796.52 142.59 799.18 141.03 801.71 141.46 C 808.09 140.57 814.54 141.17 820.96 140.98 C 824.22 141.04 827.64 140.58 830.77 141.81 C 838.87 142.11 847.01 142.13 855.12 141.85 C 863.01 140.30 871.07 141.27 879.05 140.96 C 883.74 140.75 888.29 142.34 893.00 142.03 C 900.32 141.79 907.68 142.45 914.98 141.57 C 916.42 141.64 917.87 141.63 919.33 141.55 C 923.54 142.66 927.69 140.59 931.94 140.94 C 938.78 140.35 945.50 143.12 952.30 141.50 C 957.28 142.46 962.30 139.86 967.32 141.52 C 974.52 140.10 981.96 141.94 989.15 140.36 C 992.99 139.27 996.63 141.41 1000.28 142.33 C 1000.19 139.97 999.87 137.61 999.16 135.36 C 999.42 135.01 999.94 134.31 1000.19 133.96 C 999.43 127.86 997.30 121.00 1000.90 115.39 C 1000.67 115.06 1000.22 114.40 999.99 114.06 C 1000.07 100.59 999.85 87.11 1000.13 73.64 C 991.74 73.58 983.24 72.89 974.93 74.29 C 973.88 74.16 972.87 73.88 971.91 73.47 C 962.06 75.47 951.96 74.16 942.00 74.36 C 941.58 74.14 940.72 73.69 940.29 73.47 C 927.51 73.55 914.72 73.50 901.94 73.50 C 901.46 73.83 900.49 74.50 900.00 74.84 C 899.52 74.51 898.56 73.85 898.08 73.52 C 896.23 73.50 894.39 73.48 892.57 73.44 C 892.31 73.70 891.78 74.22 891.52 74.47 C 889.67 73.41 887.66 73.59 885.73 74.23 C 885.37 74.04 884.67 73.66 884.31 73.47 C 867.51 73.65 850.72 73.19 833.93 73.63 C 832.66 74.00 831.40 74.33 830.12 74.60 C 829.57 74.15 828.45 73.24 827.89 72.78 C 818.33 74.06 808.64 73.30 799.03 73.51 C 793.61 73.72 788.10 72.90 782.79 74.18 C 781.85 74.24 780.92 74.30 780.01 74.35 C 778.45 73.94 776.84 73.72 775.29 74.29 C 774.98 74.09 774.35 73.70 774.03 73.50 C 770.20 73.43 766.33 73.82 762.54 73.25 C 760.24 71.93 761.22 68.86 760.82 66.70 Z" />
<path fill="#010101" opacity="1.00" d=" M 759.05 73.58 C 761.06 74.31 763.04 75.15 765.00 76.05 C 765.24 88.72 766.76 101.37 765.78 114.05 C 764.10 122.62 765.57 131.40 764.84 140.05 C 763.76 141.96 761.18 141.29 759.39 141.73 C 759.05 141.27 758.36 140.37 758.01 139.92 C 758.24 130.61 757.26 121.22 758.93 112.00 C 759.14 99.20 758.87 86.38 759.05 73.58 Z" />
<path fill="#010101" opacity="1.00" d=" M 20.06 85.05 C 25.57 83.61 31.30 84.09 36.93 84.00 C 41.76 84.05 46.66 83.63 51.43 84.66 C 55.87 85.50 60.38 84.91 64.79 84.22 C 65.30 84.39 66.31 84.73 66.82 84.90 C 68.38 84.94 69.95 84.82 71.50 84.62 C 78.85 83.87 86.39 83.43 93.71 84.58 C 96.47 84.06 99.28 83.95 102.08 83.91 C 102.24 84.49 102.56 85.66 102.73 86.24 C 106.13 85.67 109.52 84.94 112.99 84.99 C 116.83 85.11 120.59 83.62 124.42 84.43 C 127.93 85.49 131.55 83.94 135.11 84.84 C 138.55 83.45 142.32 84.10 145.92 83.99 C 150.83 84.20 155.84 83.41 160.66 84.63 C 166.32 86.79 172.13 84.16 177.90 85.16 C 179.69 85.41 180.80 86.91 181.87 88.20 C 183.01 87.14 184.15 86.08 185.29 85.03 C 190.63 85.00 196.00 84.72 201.30 85.56 C 205.01 85.40 208.72 84.89 212.41 84.40 C 214.92 84.92 217.40 85.54 219.93 85.95 C 223.69 86.46 227.29 84.93 231.03 84.94 C 234.56 84.78 238.02 86.47 241.52 85.37 C 249.15 84.50 256.87 85.25 264.54 84.98 C 261.76 93.76 265.11 103.13 262.62 111.93 C 262.45 115.31 262.45 118.69 262.64 122.08 C 263.84 126.95 263.34 132.03 263.51 137.01 C 263.36 144.06 263.91 151.15 262.98 158.17 C 262.85 160.67 263.82 163.17 263.20 165.67 C 262.11 170.40 262.47 175.28 262.64 180.09 C 264.20 184.92 263.31 190.08 263.48 195.07 C 263.80 195.50 264.42 196.37 264.74 196.80 C 264.37 197.28 263.63 198.25 263.26 198.74 C 263.56 199.19 264.14 200.09 264.44 200.55 C 262.78 203.26 265.17 206.22 263.78 209.01 C 264.79 213.15 264.81 217.48 264.16 221.68 C 262.94 227.53 263.74 233.53 263.44 239.45 C 263.83 239.83 264.60 240.61 264.99 241.00 C 264.60 241.39 263.83 242.15 263.44 242.54 C 263.53 248.16 263.66 253.79 263.23 259.40 C 265.05 261.57 264.39 264.20 263.36 266.55 C 257.56 266.48 251.71 266.16 245.99 267.38 C 236.96 267.56 227.92 267.48 218.88 267.49 C 218.44 267.89 217.56 268.69 217.12 269.08 C 212.03 265.49 205.41 269.18 200.02 266.52 C 194.53 266.88 189.07 267.85 183.54 267.44 C 183.18 267.91 182.45 268.87 182.09 269.35 C 179.66 268.95 177.35 268.08 174.96 267.56 C 170.11 269.27 164.66 269.83 159.76 267.98 C 155.45 266.94 150.95 267.74 146.56 267.45 C 146.17 267.84 145.39 268.60 144.99 268.99 C 144.50 268.50 143.52 267.53 143.03 267.05 C 142.45 267.54 141.28 268.51 140.69 269.00 C 129.78 268.93 118.87 269.12 107.97 268.94 C 103.98 267.92 99.94 267.06 95.78 267.14 C 85.83 267.84 75.85 267.39 65.88 267.50 C 65.45 267.88 64.58 268.64 64.15 269.02 C 59.34 268.99 54.54 268.99 49.74 269.03 C 49.42 268.63 48.78 267.84 48.45 267.44 C 37.65 267.60 26.84 267.45 16.03 267.53 C 16.02 266.32 16.01 265.12 16.00 263.92 C 15.66 263.45 14.99 262.50 14.65 262.03 C 16.32 261.26 18.09 260.65 19.96 260.83 C 29.20 261.20 38.45 260.91 47.70 261.00 C 48.00 260.55 48.59 259.65 48.89 259.20 C 49.28 260.18 49.67 261.17 50.05 262.17 C 55.58 260.66 61.39 260.67 67.05 261.34 C 71.05 262.40 75.11 260.54 79.09 261.89 C 80.63 260.74 82.35 261.34 83.98 261.77 C 85.84 261.19 87.78 260.91 89.69 261.50 C 101.11 259.38 112.62 264.00 123.99 261.20 C 127.93 262.88 131.98 260.81 136.02 260.97 C 144.05 261.07 152.08 260.85 160.10 261.13 C 164.26 262.49 168.72 262.06 173.02 261.92 C 175.28 261.87 177.58 260.78 179.78 261.79 C 184.48 262.14 189.28 262.32 193.91 261.26 C 196.03 260.77 198.20 261.16 200.31 261.51 C 207.18 260.54 214.23 260.77 221.08 261.76 C 232.04 260.28 243.17 261.28 254.21 261.01 C 254.79 260.44 255.38 259.87 255.97 259.30 C 257.25 259.52 259.82 259.97 261.10 260.19 C 257.91 257.53 259.32 253.32 258.80 249.78 C 257.11 244.37 258.37 238.58 258.03 233.02 C 258.27 229.62 256.73 226.35 257.22 222.97 C 258.72 215.74 257.72 208.32 258.00 201.00 C 258.26 186.29 257.28 171.52 258.90 156.87 C 257.12 152.79 258.49 148.24 257.84 143.97 C 256.10 135.00 257.54 125.82 256.82 116.77 C 255.76 114.78 255.86 112.52 256.62 110.45 C 259.37 104.58 256.24 98.18 257.09 92.00 C 246.40 92.16 235.68 91.69 225.00 92.22 C 222.35 92.29 217.85 94.79 216.91 90.97 C 216.37 91.04 215.28 91.20 214.74 91.28 C 212.47 92.33 210.01 91.94 207.67 91.47 C 204.34 92.22 201.03 90.56 197.70 91.48 C 194.76 90.71 191.88 92.03 188.94 92.00 C 180.03 92.14 171.11 91.75 162.20 92.01 C 161.77 91.57 160.90 90.70 160.47 90.26 C 154.70 92.51 148.79 89.15 143.00 90.78 C 134.03 91.34 125.01 90.82 116.02 91.01 C 112.42 90.86 108.62 91.62 105.22 90.11 C 101.76 89.76 98.43 90.86 95.01 91.00 C 83.26 91.15 71.50 90.74 59.77 91.19 C 54.97 93.33 49.90 90.87 44.96 90.98 C 37.62 90.96 30.27 91.10 22.93 90.91 C 20.53 90.75 18.17 91.24 15.85 91.81 C 14.53 89.47 15.46 87.04 16.35 84.74 C 17.11 85.48 17.86 86.23 18.61 86.98 C 18.97 86.50 19.70 85.53 20.06 85.05 Z" />
<path fill="#010101" opacity="1.00" d=" M 425.49 90.55 C 426.63 90.49 427.78 90.44 428.93 90.39 C 429.00 93.75 429.00 97.12 429.01 100.49 C 431.03 100.49 433.05 100.49 435.08 100.50 C 435.59 100.14 436.60 99.42 437.11 99.06 C 437.99 100.11 438.88 101.15 439.78 102.19 C 439.52 102.52 438.99 103.20 438.73 103.54 C 435.56 103.51 432.40 103.51 429.24 103.48 C 428.92 104.41 428.60 105.35 428.30 106.28 C 428.97 108.60 429.98 111.96 427.69 113.69 C 426.43 113.86 425.17 113.95 423.91 113.96 C 424.40 113.06 424.91 112.17 425.42 111.28 C 425.54 109.92 425.68 108.58 425.83 107.23 C 425.65 105.92 425.47 104.60 425.30 103.29 C 421.92 104.12 418.47 104.59 414.99 104.73 C 414.68 103.65 414.05 102.60 414.08 101.46 C 414.82 100.72 415.61 100.02 416.45 99.37 C 419.45 99.49 422.46 99.58 425.46 99.70 C 425.50 96.65 425.50 93.60 425.49 90.55 Z" />
<path fill="#010101" opacity="1.00" d=" M 509.04 90.43 C 510.19 90.46 511.35 90.50 512.51 90.53 C 512.97 93.71 511.20 97.95 513.85 100.31 C 516.92 100.65 520.01 100.51 523.10 100.66 C 523.02 101.96 522.96 103.25 522.89 104.55 C 519.42 104.51 515.96 104.50 512.49 104.50 C 512.50 107.61 512.50 110.72 512.58 113.83 C 511.05 114.20 509.45 115.25 507.91 114.33 C 509.27 111.31 509.04 107.94 509.54 104.75 C 506.14 104.47 502.72 104.64 499.33 104.39 C 498.05 103.61 498.75 101.91 498.54 100.70 C 502.02 100.49 505.50 100.47 508.99 100.47 C 508.99 97.12 508.99 93.77 509.04 90.43 Z" />
<path fill="#010101" opacity="1.00" d=" M 596.07 100.09 C 598.28 96.76 600.98 93.81 603.89 91.09 C 605.05 92.33 606.22 93.58 607.37 94.84 C 604.50 97.78 601.75 100.89 598.27 103.13 C 600.68 105.61 603.27 107.91 605.54 110.51 C 606.73 111.65 605.95 114.47 604.05 114.02 C 601.00 111.47 598.50 108.33 595.62 105.58 C 592.75 108.28 590.28 112.01 586.31 113.06 C 585.86 112.32 585.44 111.56 585.05 110.79 C 587.64 108.34 590.26 105.91 592.80 103.40 C 590.19 100.29 587.88 96.94 585.11 93.98 C 586.18 93.45 587.17 92.79 588.11 92.03 C 590.90 94.58 593.55 97.28 596.07 100.09 Z" />
<path fill="#010101" opacity="1.00" d=" M 978.46 91.55 C 979.05 91.49 980.22 91.38 980.81 91.32 C 980.86 91.85 980.94 92.89 980.99 93.41 C 975.98 101.65 969.04 108.63 965.01 117.46 C 962.36 118.86 960.78 121.42 959.49 124.01 C 958.08 123.98 956.69 123.94 955.31 123.89 C 955.42 121.25 955.51 118.57 956.42 116.06 C 956.81 112.70 956.45 109.30 954.42 106.50 C 953.55 106.46 951.80 106.37 950.92 106.33 C 951.68 105.33 952.45 104.34 953.25 103.35 C 955.96 103.70 959.72 102.59 961.26 105.60 C 961.78 109.24 961.40 112.94 961.66 116.60 C 963.52 114.40 965.07 111.96 966.64 109.54 C 970.17 103.30 974.05 97.21 978.46 91.55 Z" />
<path fill="#010101" opacity="1.00" d=" M 16.44 93.11 C 18.29 93.66 20.13 94.25 21.96 94.84 C 21.65 99.56 23.12 104.22 22.31 108.92 C 21.76 116.54 21.76 124.23 22.62 131.82 C 21.74 136.87 23.34 141.90 23.02 146.97 C 22.76 153.38 23.64 159.88 22.31 166.21 C 21.97 168.00 22.13 169.82 22.24 171.62 C 22.13 173.51 22.22 175.40 22.63 177.26 C 21.98 179.77 22.81 182.28 22.63 184.80 C 21.92 189.19 23.37 193.56 23.04 197.97 C 22.70 205.98 23.74 214.08 22.16 221.99 C 21.60 227.00 22.04 232.05 22.89 237.00 C 23.21 244.29 22.88 251.59 23.02 258.89 C 22.60 259.18 21.76 259.76 21.34 260.05 C 19.95 259.93 18.56 259.85 17.17 259.82 C 16.94 259.28 16.48 258.20 16.25 257.65 C 16.19 256.96 16.08 255.58 16.02 254.89 C 16.27 254.22 16.52 253.55 16.77 252.89 C 15.61 249.69 16.03 246.25 15.98 242.93 C 15.91 235.24 16.51 227.49 15.05 219.90 C 15.50 219.71 16.41 219.33 16.87 219.14 C 16.29 217.48 15.92 215.75 15.97 214.00 C 15.98 205.98 16.03 197.97 16.01 189.96 C 16.10 187.05 15.01 184.16 15.69 181.27 C 15.52 180.96 15.18 180.35 15.01 180.04 C 15.21 175.65 14.78 171.26 15.17 166.89 C 16.71 158.35 15.78 149.62 15.96 141.00 C 14.41 132.41 15.18 123.66 14.96 114.98 C 14.97 112.67 14.83 110.24 15.95 108.13 C 14.55 103.78 16.66 99.29 15.23 95.06 C 15.63 94.41 16.04 93.76 16.44 93.11 Z" />
<path fill="#010101" opacity="1.00" d=" M 796.25 95.55 C 797.39 95.51 798.53 95.48 799.69 95.44 C 800.01 95.85 800.67 96.66 800.99 97.06 C 801.00 100.04 801.00 103.01 801.00 105.99 C 804.58 105.99 808.17 105.98 811.76 106.12 C 811.54 107.18 811.33 108.25 811.12 109.31 C 807.77 109.51 804.41 109.53 801.06 109.53 C 801.03 112.27 801.17 115.08 800.31 117.73 C 800.20 118.31 799.98 119.48 799.87 120.06 C 798.26 119.99 796.66 119.91 795.06 119.82 C 795.95 116.42 797.47 113.18 797.71 109.63 C 793.83 109.46 789.94 109.50 786.06 109.53 C 786.02 108.35 785.99 107.17 785.97 105.99 C 789.36 105.99 792.75 105.98 796.15 106.08 C 798.58 102.89 796.83 99.03 796.25 95.55 Z" />
<path fill="#010101" opacity="1.00" d=" M 881.53 95.32 C 882.68 95.48 883.85 95.65 885.02 95.81 C 885.00 99.19 885.00 102.57 884.96 105.95 C 887.74 107.38 890.73 106.72 893.62 106.12 C 895.88 107.03 894.54 109.09 894.06 110.72 C 891.13 109.83 888.11 109.36 885.08 109.13 C 885.13 112.47 885.08 115.89 883.74 119.02 C 882.46 118.96 881.18 118.90 879.92 118.84 C 880.75 115.86 881.09 112.78 881.12 109.68 C 879.13 109.50 877.16 109.32 875.18 109.11 C 873.94 109.32 872.70 109.51 871.48 109.70 C 870.71 108.93 869.94 108.17 869.18 107.40 C 869.82 106.56 870.45 105.72 871.10 104.89 C 873.57 105.07 876.07 105.23 878.52 105.71 C 879.14 105.45 880.39 104.92 881.01 104.66 C 880.99 102.75 880.99 100.84 881.01 98.93 C 880.73 98.56 880.19 97.82 879.92 97.44 C 880.32 96.91 881.12 95.85 881.53 95.32 Z" />
<path fill="#010101" opacity="1.00" d=" M 236.40 109.39 C 237.66 108.15 238.96 109.81 239.59 110.82 C 238.98 111.03 237.76 111.45 237.15 111.66 C 233.18 117.63 229.01 123.47 225.29 129.61 C 222.77 133.82 219.45 137.50 217.22 141.89 C 216.95 141.54 216.39 140.86 216.12 140.51 C 215.46 140.50 214.13 140.49 213.47 140.48 C 213.43 135.10 214.02 129.59 212.46 124.35 C 211.07 123.93 209.69 123.47 208.34 122.96 C 208.39 122.34 208.50 121.10 208.55 120.48 C 211.26 120.67 214.25 119.88 216.75 121.18 C 217.42 125.66 216.26 130.38 218.13 134.67 C 218.62 134.22 219.60 133.31 220.09 132.86 C 221.52 128.98 224.51 126.04 226.57 122.53 C 229.36 117.84 232.06 112.85 236.40 109.39 Z" />
<path fill="#010101" opacity="1.00" d=" M 138.03 111.66 C 139.21 112.10 140.40 112.55 141.58 113.02 C 141.53 116.13 141.47 119.25 141.35 122.36 C 144.58 122.75 147.82 122.35 150.88 121.28 C 151.39 122.50 151.88 123.73 152.36 124.97 C 149.18 125.02 146.00 125.01 142.82 124.92 C 142.11 126.39 141.63 127.95 141.40 129.57 C 142.89 131.09 143.04 133.19 143.32 135.17 C 141.60 135.81 139.86 136.41 138.11 136.95 C 137.93 133.43 138.20 129.90 137.86 126.40 C 135.06 122.33 129.25 128.46 126.24 124.35 C 126.88 123.68 127.53 123.03 128.21 122.40 C 131.47 122.51 134.73 122.50 138.00 122.50 C 138.00 118.89 137.98 115.27 138.03 111.66 Z" />
<path fill="#010101" opacity="1.00" d=" M 52.85 113.17 C 55.25 112.32 57.03 113.60 58.35 115.51 C 57.94 116.61 57.47 117.69 56.95 118.74 C 57.13 120.36 57.38 121.96 57.66 123.56 C 60.51 122.42 63.60 122.39 66.63 122.41 C 67.32 123.09 68.02 123.78 68.72 124.47 C 68.54 124.85 68.19 125.63 68.02 126.01 C 64.47 126.54 59.91 124.63 57.10 127.32 C 57.53 130.20 58.47 133.10 57.87 136.04 C 57.11 137.00 55.83 137.24 54.78 137.77 C 54.42 134.27 54.80 130.71 54.13 127.25 C 52.05 125.57 49.16 124.75 46.55 125.54 C 45.16 126.06 43.86 125.37 42.57 124.92 C 43.14 124.06 43.71 123.21 44.28 122.36 C 47.00 122.41 49.76 122.51 52.31 123.55 C 52.87 123.14 53.98 122.34 54.54 121.94 C 54.50 120.26 54.46 118.58 54.40 116.90 C 53.79 115.70 53.18 114.49 52.85 113.17 Z" />
<path fill="#010101" opacity="1.00" d=" M 489.44 134.36 C 492.06 134.46 494.87 134.27 497.12 135.87 C 512.08 136.15 527.05 135.94 542.01 135.99 C 545.59 136.09 549.32 135.49 552.76 136.80 C 557.99 137.91 563.14 135.61 568.32 136.50 C 572.09 135.83 576.07 135.49 579.77 136.73 C 580.06 136.55 580.63 136.18 580.92 136.00 C 590.60 136.29 600.37 135.22 609.96 136.93 C 618.21 137.09 626.47 137.03 634.72 136.90 C 635.84 139.46 635.67 142.32 634.62 144.88 C 634.62 145.68 634.62 147.27 634.62 148.07 C 635.58 150.86 635.57 153.85 635.29 156.75 C 635.68 162.17 635.75 167.63 634.65 172.97 C 634.27 182.32 634.64 191.69 634.49 201.04 C 634.81 201.50 635.43 202.40 635.74 202.85 C 635.33 203.41 634.50 204.52 634.08 205.07 C 634.56 205.55 635.53 206.52 636.01 207.01 C 635.58 207.42 634.73 208.24 634.30 208.65 C 634.86 210.73 636.00 212.98 634.59 215.00 C 634.64 215.68 634.73 217.05 634.77 217.73 C 635.42 219.20 635.31 220.77 634.88 222.29 C 635.10 223.99 636.43 226.36 633.95 227.00 C 635.20 234.95 634.16 243.05 634.53 251.06 C 634.90 256.54 633.72 261.90 633.16 267.32 C 627.11 267.66 621.05 267.44 615.00 267.53 C 611.67 267.54 608.25 267.77 605.07 266.62 C 599.67 266.16 594.08 267.32 588.85 265.51 C 588.10 266.18 587.36 266.86 586.63 267.54 C 576.41 267.47 566.18 267.50 555.96 267.54 C 553.26 267.61 550.64 266.99 547.98 266.68 C 545.33 266.93 542.50 268.20 540.04 266.54 C 535.96 266.23 532.03 267.61 527.97 267.54 C 518.97 267.50 509.98 267.47 500.98 267.54 C 496.16 267.67 491.47 266.20 486.64 266.37 C 486.23 266.68 485.41 267.29 485.00 267.59 C 484.56 267.27 483.69 266.64 483.26 266.33 C 480.39 267.37 477.33 267.78 474.33 267.20 C 465.55 267.55 456.77 267.52 447.99 267.53 C 440.05 268.03 432.14 265.02 424.27 267.17 C 421.59 267.22 418.92 267.31 416.25 267.26 C 407.72 267.76 399.16 267.44 390.63 267.46 C 389.76 268.02 388.89 268.58 388.03 269.14 C 387.04 266.61 386.49 263.80 387.74 261.24 C 388.06 256.66 388.65 252.06 388.53 247.48 C 387.10 240.75 386.89 233.87 387.05 227.02 C 388.75 217.79 387.73 208.35 388.00 199.02 C 387.75 192.01 388.69 184.90 387.17 178.00 C 386.80 176.41 387.20 174.81 387.59 173.28 C 387.45 172.32 387.32 171.37 387.19 170.42 C 388.71 162.34 387.73 154.07 387.98 145.90 C 388.30 145.50 388.92 144.71 389.24 144.31 C 389.06 141.81 388.97 139.32 388.87 136.83 C 403.83 135.47 418.99 136.19 434.05 135.96 C 437.06 135.81 440.01 136.47 442.98 136.90 C 447.95 136.92 452.92 136.43 457.88 136.03 C 467.82 135.99 477.77 136.00 487.71 136.00 C 488.14 135.59 489.01 134.77 489.44 134.36 M 628.15 139.50 C 628.36 140.21 628.77 141.64 628.98 142.36 C 630.76 144.42 632.28 140.53 633.62 139.66 C 631.79 139.57 629.97 139.52 628.15 139.50 M 393.17 142.53 C 392.80 143.00 392.05 143.94 391.67 144.41 C 392.21 144.72 393.28 145.32 393.82 145.62 C 394.23 150.06 393.66 154.58 394.75 158.96 C 395.90 164.34 393.70 169.61 393.97 174.99 C 394.10 185.34 393.86 195.70 394.07 206.05 C 394.99 211.89 395.57 217.86 394.59 223.73 C 393.62 228.44 394.07 233.27 394.01 238.05 C 394.11 243.12 393.54 248.27 394.66 253.27 C 395.59 256.65 393.99 259.93 393.21 263.16 C 394.76 262.68 396.33 262.19 397.92 261.82 C 404.64 259.78 412.08 262.61 418.46 259.11 C 418.94 259.65 419.89 260.72 420.36 261.25 C 425.85 258.71 431.97 259.46 437.82 259.65 C 439.11 260.30 440.44 261.07 441.96 260.98 C 451.70 261.08 461.45 260.91 471.19 261.04 C 471.45 260.73 471.97 260.11 472.23 259.80 C 475.06 262.01 477.92 258.80 481.04 259.45 C 486.03 259.95 491.59 258.23 496.14 260.88 C 509.03 261.08 521.92 261.06 534.81 260.90 C 536.39 259.98 538.12 259.31 539.99 259.46 C 544.54 259.59 549.66 258.50 553.44 261.74 C 558.52 260.40 563.82 261.17 569.02 261.00 C 576.31 261.17 583.66 260.47 590.90 261.67 C 595.06 258.18 600.68 259.82 605.63 259.47 C 606.05 259.85 606.89 260.62 607.31 261.00 C 614.61 260.99 621.91 261.01 629.22 260.99 C 627.13 251.78 628.31 242.31 627.96 232.97 C 627.68 228.25 629.25 223.68 629.03 218.97 C 628.94 213.65 629.07 208.34 628.99 203.02 C 629.05 199.90 627.61 196.80 628.67 193.73 C 628.14 191.74 628.08 189.70 628.49 187.69 C 627.58 182.10 627.98 176.40 628.19 170.76 C 629.20 168.31 629.02 165.62 629.03 163.03 C 628.95 156.14 629.04 149.25 628.98 142.36 C 622.26 144.94 615.02 143.77 608.01 144.00 C 607.61 143.61 606.82 142.83 606.42 142.44 C 592.90 142.59 579.38 142.47 565.87 142.50 C 565.66 142.78 565.24 143.34 565.03 143.61 C 563.07 142.86 561.01 142.48 558.93 142.27 C 558.49 142.72 557.62 143.61 557.18 144.05 C 555.86 144.02 554.54 144.00 553.23 143.97 C 552.49 143.21 551.76 142.46 551.03 141.71 C 546.82 142.86 542.06 143.23 537.98 141.48 C 529.74 142.99 521.37 142.43 513.05 142.51 C 506.33 142.36 499.55 143.00 492.90 141.83 C 489.61 142.37 486.24 142.90 483.01 141.76 C 481.66 142.18 480.29 142.30 478.96 141.75 C 477.02 142.19 475.04 142.54 473.05 142.54 C 463.80 142.57 454.55 142.34 445.31 142.64 C 443.56 144.61 441.31 143.89 439.63 142.32 C 424.15 142.73 408.66 142.38 393.17 142.53 Z" />
<path fill="#010101" opacity="1.00" d=" M 235.61 161.60 C 236.51 160.46 238.07 160.74 239.32 160.51 C 237.97 163.84 235.80 166.76 232.92 168.92 C 228.13 174.00 225.50 180.66 221.28 186.19 C 219.64 188.17 218.38 190.42 217.37 192.78 C 216.17 192.59 214.97 192.44 213.80 192.15 C 213.35 186.93 212.16 181.77 212.48 176.50 C 209.94 176.26 208.49 174.57 207.88 172.24 C 210.80 172.46 214.83 170.64 216.88 173.38 C 217.71 177.23 215.65 181.96 218.31 185.17 C 222.69 180.72 224.84 174.62 228.88 169.88 C 231.30 167.27 233.17 164.20 235.61 161.60 Z" />
<path fill="#010101" opacity="1.00" d=" M 601.47 168.94 C 603.71 165.66 605.50 161.41 609.73 160.34 C 610.13 161.87 609.38 163.29 608.91 164.71 C 602.42 169.63 598.68 177.03 593.97 183.47 C 593.40 182.89 592.84 182.31 592.29 181.73 C 594.77 177.35 597.97 173.42 600.49 169.05 C 600.73 169.03 601.22 168.97 601.47 168.94 Z" />
<path fill="#010101" opacity="1.00" d=" M 54.50 174.26 C 54.87 170.48 53.03 165.58 56.81 163.06 C 57.02 166.25 57.03 169.46 57.00 172.66 C 57.51 173.07 58.53 173.89 59.04 174.30 C 62.27 173.89 65.63 173.67 68.67 175.03 C 68.11 176.03 67.55 177.02 66.99 178.02 C 63.98 178.00 60.97 178.00 57.96 178.00 C 57.95 181.35 58.01 184.70 58.01 188.06 C 56.24 187.99 54.47 187.91 52.70 187.83 C 53.88 184.76 54.64 181.57 54.67 178.26 C 50.81 177.79 46.98 177.06 43.09 176.75 C 43.06 176.17 43.01 175.01 42.98 174.43 C 43.66 174.05 45.03 173.29 45.71 172.91 C 48.65 173.33 51.54 174.00 54.50 174.26 Z" />
<path fill="#010101" opacity="1.00" d=" M 427.06 163.15 C 427.60 163.37 428.67 163.81 429.20 164.04 C 428.71 167.35 428.04 170.64 427.83 174.00 C 431.34 174.00 434.86 174.00 438.38 173.97 C 438.35 175.32 438.27 176.67 438.15 178.02 C 434.77 178.00 431.38 178.00 428.00 178.00 C 428.00 181.34 428.00 184.68 428.00 188.02 C 426.82 188.00 425.64 187.98 424.48 187.96 C 424.49 184.64 424.49 181.32 424.50 178.01 C 421.04 178.01 417.58 178.01 414.13 177.93 C 414.06 176.62 414.00 175.30 413.95 173.99 C 417.93 174.04 421.98 174.25 425.88 173.26 C 425.45 171.68 425.01 170.13 424.51 168.59 C 425.32 166.76 426.14 164.93 427.06 163.15 Z" />
<path fill="#010101" opacity="1.00" d=" M 128.78 179.07 C 127.68 177.12 127.43 174.93 127.59 172.73 C 132.05 173.84 136.65 174.40 141.23 173.80 C 144.75 172.70 148.42 174.48 152.04 174.10 C 151.99 175.38 151.94 176.65 151.89 177.93 C 144.15 177.60 136.51 179.02 128.78 179.07 Z" />
<path fill="#010101" opacity="1.00" d=" M 580.04 173.16 C 582.67 173.05 585.30 173.00 587.94 172.95 C 587.81 177.30 588.31 181.64 589.44 185.85 C 590.43 185.03 591.20 184.02 591.74 182.83 C 592.24 183.41 592.75 183.98 593.29 184.55 C 591.35 187.35 589.76 190.50 587.14 192.75 C 586.07 192.17 585.07 191.47 584.07 190.80 C 584.39 190.38 585.03 189.53 585.35 189.11 C 583.74 184.92 584.90 180.37 584.34 176.03 C 583.32 175.35 582.19 174.87 580.97 174.61 C 580.73 174.24 580.27 173.52 580.04 173.16 Z" />
<path fill="#010101" opacity="1.00" d=" M 512.03 174.82 C 514.85 174.42 517.71 174.64 520.55 174.38 C 521.17 174.61 522.42 175.07 523.05 175.30 C 523.00 175.96 522.91 177.27 522.86 177.93 C 516.73 178.18 510.54 177.54 504.48 178.69 C 503.00 178.85 501.51 179.00 500.04 179.14 C 499.46 178.09 498.90 177.04 498.35 175.99 C 502.71 174.26 507.47 175.37 512.03 174.82 Z" />
<path fill="#010101" opacity="1.00" d=" M 795.38 176.09 C 796.58 176.04 797.78 176.00 799.00 175.96 C 798.99 179.02 799.01 182.08 798.98 185.15 C 800.34 185.54 801.70 185.99 803.05 186.47 C 804.49 185.99 805.97 185.57 807.46 185.21 C 808.22 185.98 809.00 186.76 809.78 187.54 C 809.59 187.79 809.20 188.30 809.01 188.55 C 807.77 189.09 806.56 189.66 805.38 190.30 C 804.88 189.87 804.39 189.44 803.92 189.01 C 803.24 188.99 801.89 188.96 801.21 188.95 C 800.50 189.97 799.73 190.96 799.15 192.07 C 799.26 194.94 800.57 197.91 799.07 200.65 C 797.87 200.58 796.68 200.51 795.49 200.45 C 795.49 197.13 795.49 193.82 795.49 190.51 C 792.12 190.50 788.76 190.50 785.40 190.54 C 784.12 188.91 783.82 187.13 784.99 185.37 C 788.82 185.50 792.94 186.32 796.50 184.37 C 795.37 181.75 795.40 178.88 795.38 176.09 Z" />
<path fill="#010101" opacity="1.00" d=" M 955.38 177.46 C 956.48 176.98 957.58 176.49 958.70 176.00 C 960.41 179.55 963.92 181.49 966.80 183.96 C 969.16 181.62 971.31 179.02 973.98 177.02 C 975.89 176.35 977.05 177.99 978.21 179.18 C 975.08 181.92 972.10 184.84 969.15 187.78 C 972.29 190.39 975.96 192.61 978.13 196.19 C 977.87 198.19 975.45 197.45 974.08 197.42 C 971.20 195.67 969.11 192.91 966.69 190.62 C 965.31 191.82 963.92 193.01 962.54 194.20 C 961.37 195.06 960.23 195.93 959.12 196.85 C 958.02 196.42 956.79 196.14 956.10 195.10 C 958.30 191.93 961.33 189.47 964.16 186.89 C 962.11 185.04 959.92 183.37 958.00 181.40 C 957.14 180.80 956.29 180.20 955.46 179.61 C 955.44 179.07 955.40 178.00 955.38 177.46 Z" />
<path fill="#010101" opacity="1.00" d=" M 868.27 188.04 C 869.30 186.73 869.64 183.64 871.92 184.66 C 876.50 186.01 881.41 184.81 885.93 186.40 C 888.29 186.46 890.66 186.46 893.04 186.43 C 893.43 187.55 893.83 188.67 894.13 189.83 C 890.75 192.08 886.62 191.28 883.43 189.14 C 878.38 188.69 873.15 189.74 868.27 188.04 Z" />
<path fill="#010101" opacity="1.00" d=" M 229.50 221.90 C 233.28 218.31 234.85 212.10 240.33 210.60 C 239.04 214.32 236.61 217.45 234.22 220.51 C 233.29 221.83 232.22 223.02 231.01 224.09 C 228.24 227.17 226.05 230.71 223.45 233.93 C 222.97 233.70 222.00 233.24 221.52 233.01 C 224.65 229.64 225.87 224.83 229.50 221.90 Z" />
<path fill="#010101" opacity="1.00" d=" M 609.23 211.50 C 609.23 212.35 609.98 213.43 609.03 214.07 C 605.78 217.80 603.30 222.14 599.82 225.67 C 595.59 230.64 591.95 236.08 588.57 241.65 C 587.89 243.31 586.00 242.91 584.58 243.20 C 584.61 237.13 582.97 231.19 583.52 225.10 C 582.75 225.23 581.22 225.48 580.46 225.61 C 580.49 224.97 580.55 223.69 580.58 223.05 C 581.66 223.63 582.75 224.19 583.86 224.75 C 585.49 224.24 587.13 223.71 588.81 223.34 C 587.93 227.72 587.78 232.19 588.15 236.64 C 590.14 234.86 591.70 232.69 592.97 230.36 C 594.96 226.66 598.52 224.14 600.54 220.46 C 602.72 216.85 605.07 213.06 609.23 211.50 Z" />
<path fill="#010101" opacity="1.00" d=" M 139.26 215.26 C 140.53 215.44 141.81 215.63 143.08 215.82 C 143.01 217.17 142.93 218.52 142.85 219.87 C 142.12 221.60 140.02 224.60 143.09 225.16 C 145.84 225.65 148.71 224.31 151.54 224.25 C 152.07 225.09 152.60 225.92 153.14 226.75 C 152.77 227.20 152.03 228.09 151.66 228.54 C 148.77 228.51 145.89 228.50 143.00 228.50 C 143.00 231.78 143.00 235.05 143.05 238.33 C 142.09 238.97 141.12 239.63 140.08 240.15 C 137.40 239.09 138.07 236.08 138.08 233.80 C 139.34 232.17 138.72 230.23 138.34 228.45 C 134.87 229.47 130.51 230.60 127.26 228.61 C 127.43 226.77 128.63 225.35 129.68 223.93 C 130.25 224.34 131.39 225.16 131.97 225.57 C 134.02 225.52 136.07 225.51 138.12 225.31 C 138.46 221.95 138.77 218.60 139.26 215.26 Z" />
<path fill="#010101" opacity="1.00" d=" M 510.31 215.33 C 511.53 215.47 512.77 215.62 514.00 215.78 C 513.99 219.08 513.99 222.39 514.04 225.69 C 516.63 225.18 519.21 224.59 521.83 224.19 C 523.02 226.09 522.96 228.12 521.80 230.04 C 520.81 229.50 519.82 228.96 518.85 228.41 C 516.68 228.50 514.53 228.74 512.45 229.37 C 512.50 232.66 512.52 235.95 512.52 239.24 C 509.59 239.53 506.38 237.04 508.97 234.18 C 508.92 232.24 508.72 230.32 508.37 228.43 C 505.31 229.63 501.95 229.88 498.74 229.28 C 498.42 228.00 498.31 226.66 498.53 225.35 C 499.34 223.80 501.29 224.85 502.62 224.72 C 502.96 224.63 503.65 224.44 503.99 224.35 C 504.97 224.79 505.96 225.24 506.95 225.69 C 507.98 225.14 509.03 224.60 510.09 224.07 C 510.03 221.71 510.02 219.31 509.24 217.05 C 509.59 216.47 509.94 215.90 510.31 215.33 Z" />
<path fill="#010101" opacity="1.00" d=" M 209.49 222.51 C 211.51 222.49 213.54 222.47 215.57 222.45 C 216.37 223.30 217.18 224.16 218.00 225.01 C 217.99 229.09 217.93 233.17 218.16 237.25 C 218.60 238.62 218.94 240.02 219.27 241.42 C 218.29 242.32 217.32 243.23 216.36 244.14 C 215.72 243.66 215.08 243.18 214.45 242.71 C 214.21 237.45 215.49 231.83 213.15 226.90 C 212.47 225.54 210.71 225.63 209.50 225.10 C 209.49 224.23 209.49 223.37 209.49 222.51 Z" />
<path fill="#010101" opacity="1.00" d=" M 429.12 225.21 C 431.63 224.75 434.16 224.47 436.70 224.32 C 437.38 225.32 438.08 226.32 438.77 227.33 C 438.08 228.12 437.39 228.92 436.71 229.72 C 436.31 229.41 435.49 228.80 435.09 228.50 C 429.28 228.79 423.33 227.77 417.63 229.27 C 416.09 228.59 414.23 228.00 414.94 225.88 C 419.61 224.93 424.43 225.98 429.12 225.21 Z" />
<path fill="#010101" opacity="1.00" d=" M 43.82 225.92 C 45.87 225.15 47.99 225.98 50.05 226.25 C 54.09 226.83 58.20 226.54 62.25 226.10 C 64.03 226.35 65.80 226.63 67.58 226.91 C 67.25 227.64 67.64 228.94 66.62 229.20 C 63.96 230.68 60.90 230.75 58.06 229.75 C 55.73 230.33 53.34 230.06 50.99 229.76 C 48.98 229.37 46.93 229.47 44.89 229.51 C 44.49 228.32 44.10 227.13 43.82 225.92 Z" />
<path fill="#010101" opacity="1.00" d=" M 878.99 232.82 C 880.59 232.39 882.21 232.02 883.86 231.74 C 884.03 235.48 883.98 239.23 884.10 242.97 C 886.98 243.12 889.92 243.01 892.63 241.86 C 893.52 243.45 893.99 245.20 894.35 246.97 C 890.91 247.02 887.47 247.00 884.04 247.00 C 884.02 250.17 883.98 253.34 883.73 256.51 C 882.63 256.49 881.54 256.48 880.47 256.47 C 880.05 255.50 879.65 254.53 879.26 253.57 C 879.91 251.10 880.03 248.54 880.12 246.00 C 876.24 246.00 872.37 246.00 868.50 246.02 C 868.77 244.70 868.02 242.47 869.97 242.29 C 871.32 241.88 872.72 241.58 874.11 241.23 C 875.64 241.62 877.19 242.07 878.81 242.01 C 881.27 239.61 879.72 235.70 878.99 232.82 Z" />
<path fill="#010101" opacity="1.00" d=" M 956.06 234.51 C 956.88 233.93 957.71 233.35 958.55 232.77 C 960.95 235.63 963.09 238.77 966.00 241.16 C 969.45 238.98 971.08 234.93 974.55 232.76 C 975.73 233.68 976.90 234.61 978.10 235.54 C 976.08 238.04 973.82 240.35 971.21 242.22 C 969.76 242.94 969.27 244.41 969.18 245.92 C 972.32 247.09 975.05 249.06 977.38 251.46 C 976.68 252.97 975.96 254.47 975.20 255.96 C 972.21 252.80 969.22 249.65 966.09 246.64 C 963.71 248.97 961.37 251.34 959.13 253.79 C 958.14 253.43 957.17 253.09 956.24 252.65 C 957.08 248.62 961.50 246.84 964.20 244.18 C 960.76 241.65 957.48 238.66 956.06 234.51 Z" />
<path fill="#010101" opacity="1.00" d=" M 785.03 241.95 C 792.60 242.74 800.25 241.20 807.76 242.82 C 808.69 243.08 809.64 243.34 810.59 243.60 C 810.55 244.18 810.48 245.32 810.45 245.89 C 809.05 246.50 807.59 247.07 806.05 247.00 C 799.47 247.22 792.81 246.38 786.33 247.88 C 784.23 246.60 785.24 243.95 785.03 241.95 Z" />
<path fill="#010101" opacity="1.00" d=" M 595.91 297.70 C 598.89 294.81 600.75 290.77 604.70 289.00 C 605.61 290.67 606.50 292.35 607.41 294.03 C 606.76 294.18 605.47 294.49 604.83 294.65 C 602.89 296.75 600.91 298.80 599.00 300.93 C 602.80 303.37 605.92 306.77 608.12 310.71 C 607.26 311.19 606.40 311.66 605.55 312.14 C 602.53 310.00 599.81 307.48 597.34 304.73 C 593.73 304.85 591.91 308.25 589.30 310.21 C 588.15 311.84 586.55 310.19 585.26 309.78 C 585.35 309.21 585.54 308.07 585.63 307.50 C 588.76 305.81 590.97 303.06 592.78 300.07 C 590.29 297.61 587.80 295.15 585.19 292.83 C 585.56 291.97 585.95 291.12 586.41 290.30 C 589.47 290.48 591.03 293.57 592.92 295.57 C 593.92 296.27 594.91 296.98 595.91 297.70 Z" />
<path fill="#010101" opacity="1.00" d=" M 955.04 293.15 C 955.50 291.40 956.86 290.32 958.37 289.46 C 961.05 292.36 963.65 295.48 967.19 297.38 C 969.42 294.09 971.33 290.06 975.53 289.01 C 976.41 290.05 977.32 291.08 978.13 292.21 C 975.71 295.48 972.63 298.24 969.18 300.37 C 972.59 303.43 976.67 306.01 978.55 310.40 C 976.98 311.24 975.31 311.88 973.60 312.35 C 970.86 309.71 968.98 306.29 966.07 303.84 C 963.41 306.07 961.18 308.78 958.43 310.90 C 957.09 310.97 955.99 309.90 954.80 309.50 C 957.00 306.15 959.74 303.19 963.04 300.90 C 961.97 299.51 960.91 298.14 959.79 296.81 C 959.60 296.39 959.23 295.54 959.05 295.12 C 957.70 294.46 956.36 293.80 955.04 293.15 Z" />
<path fill="#010101" opacity="1.00" d=" M 214.93 290.19 C 218.06 293.26 220.88 296.74 224.75 298.93 C 226.98 296.49 228.91 293.79 230.86 291.13 C 231.84 291.52 232.82 291.92 233.77 292.41 C 232.57 296.02 229.44 298.54 227.31 301.60 C 230.43 303.90 233.35 306.46 236.04 309.24 C 236.01 309.88 235.94 311.16 235.90 311.80 C 234.75 312.16 233.61 312.58 232.44 312.86 C 230.92 311.63 229.69 310.10 228.48 308.59 C 227.28 307.52 226.21 306.33 225.31 305.02 C 224.75 305.03 223.65 305.06 223.09 305.07 C 221.09 307.79 218.56 310.06 216.06 312.32 C 215.41 311.16 214.75 310.01 214.08 308.87 C 216.48 306.41 219.15 304.23 221.62 301.85 C 218.86 299.48 216.65 296.59 214.39 293.77 C 214.56 292.57 214.73 291.38 214.93 290.19 Z" />
<path fill="#010101" opacity="1.00" d=" M 44.49 297.77 C 47.01 297.96 49.40 298.76 51.65 299.87 C 51.97 299.66 52.60 299.22 52.92 299.01 C 56.86 299.28 60.96 298.44 64.77 299.76 C 66.03 299.88 67.29 299.99 68.55 300.09 C 68.40 301.81 67.93 303.47 67.26 305.06 C 59.48 304.81 51.62 305.64 43.97 303.81 C 43.61 302.80 43.25 301.80 42.90 300.80 C 43.30 300.05 44.09 298.53 44.49 297.77 Z" />
<path fill="#010101" opacity="1.00" d=" M 414.00 298.00 C 421.99 297.99 429.99 298.03 437.99 297.97 C 438.83 299.01 439.73 300.01 440.46 301.15 C 440.33 302.18 439.66 303.03 439.25 303.96 C 436.71 302.97 433.96 302.73 431.32 303.48 C 429.76 303.27 428.16 303.15 426.62 303.52 C 422.45 304.30 418.20 303.98 414.00 303.99 C 414.00 301.99 413.99 299.99 414.00 298.00 Z" />
<path fill="#010101" opacity="1.00" d=" M 785.06 303.62 C 784.55 301.47 784.77 297.06 788.04 298.21 C 795.50 300.30 803.56 297.35 810.81 300.40 C 810.52 302.18 809.99 303.91 808.68 305.22 C 806.19 304.06 803.46 303.81 800.77 304.13 C 798.09 305.52 795.02 305.12 792.26 304.24 C 791.96 304.46 791.35 304.89 791.04 305.11 C 789.00 304.81 786.36 305.70 785.06 303.62 Z" />
<path fill="#010101" opacity="1.00" d=" M 128.60 299.98 C 135.49 299.82 142.51 300.67 149.27 298.95 C 150.02 299.34 151.50 300.13 152.24 300.52 C 151.82 301.72 151.38 302.92 150.93 304.12 C 143.75 301.90 136.14 303.16 128.87 304.24 C 128.74 302.82 128.64 301.40 128.60 299.98 Z" />
<path fill="#010101" opacity="1.00" d=" M 500.46 299.71 C 503.86 297.81 508.06 299.69 511.76 299.69 C 515.48 299.04 519.26 298.84 523.04 298.99 C 522.99 300.29 522.94 301.60 522.89 302.92 C 516.25 303.08 509.60 302.97 502.96 303.00 C 502.46 303.33 501.46 304.00 500.96 304.33 C 500.41 302.90 498.55 300.92 500.46 299.71 Z" />
<path fill="#010101" opacity="1.00" d=" M 869.85 303.04 C 869.71 301.68 869.64 300.33 869.63 298.98 C 877.34 298.46 884.92 299.84 892.60 300.18 C 894.68 300.88 893.56 302.63 893.06 304.06 C 885.28 304.29 877.65 302.26 869.85 303.04 Z" />
<path fill="#010101" opacity="1.00" d=" M 490.52 341.24 C 491.90 341.53 493.47 341.40 494.70 342.22 C 495.07 344.06 494.93 345.95 495.02 347.83 C 497.71 347.34 500.17 346.00 502.85 345.50 C 504.19 346.15 504.93 347.56 505.68 348.78 C 504.62 349.62 503.44 350.31 502.30 351.02 C 502.76 351.59 503.67 352.72 504.13 353.29 L 502.13 354.21 C 503.81 355.09 505.72 355.07 507.58 355.22 C 507.53 356.34 507.50 357.46 507.47 358.59 C 506.79 358.53 505.43 358.41 504.75 358.34 C 505.12 361.56 502.30 363.02 500.08 364.57 C 502.63 365.83 505.27 366.97 508.13 367.28 C 508.33 368.03 508.54 368.79 508.76 369.55 C 507.32 370.75 505.94 372.03 504.35 373.03 C 501.01 372.32 498.78 369.56 496.57 367.20 C 492.50 367.44 491.66 372.34 487.80 372.93 C 486.27 373.37 485.04 372.18 483.81 371.53 C 484.46 369.59 485.08 367.64 485.70 365.71 C 484.00 367.01 482.61 368.70 480.79 369.85 C 479.45 370.21 478.18 369.34 476.91 369.10 C 476.94 368.40 476.99 367.00 477.02 366.31 C 480.45 364.06 484.04 362.05 487.35 359.63 L 487.64 358.45 C 483.90 358.06 479.49 359.67 476.45 356.75 C 477.24 356.32 478.81 355.47 479.59 355.05 C 480.38 355.05 481.96 355.06 482.74 355.07 C 482.55 354.49 482.16 353.33 481.96 352.76 C 484.13 350.83 487.53 351.65 489.82 349.75 C 486.64 349.37 483.36 349.24 480.33 350.43 C 479.71 349.13 479.14 347.81 478.60 346.49 C 482.56 346.56 486.52 346.62 490.49 346.48 C 490.49 344.72 490.50 342.98 490.52 341.24 M 485.88 354.50 C 487.53 355.29 489.67 355.08 491.35 354.42 C 490.40 353.28 486.56 352.96 485.88 354.50 M 495.39 355.07 C 496.70 356.46 499.66 355.69 501.57 355.93 C 501.57 355.67 501.56 355.16 501.55 354.90 C 499.55 354.55 497.30 354.36 495.39 355.07 M 496.58 359.11 C 497.00 362.42 499.52 357.37 496.58 359.11 M 490.00 362.00 C 490.00 362.75 489.99 364.24 489.98 364.99 C 491.85 364.73 493.71 364.50 495.60 364.36 C 494.70 362.59 493.73 360.87 492.99 359.04 C 491.99 360.02 491.00 361.02 490.00 362.00 Z" />
<path fill="#010101" opacity="1.00" d=" M 525.51 342.61 C 527.52 341.93 529.61 341.16 531.78 341.49 C 533.37 344.20 532.16 347.77 532.54 350.80 C 534.54 349.92 536.48 347.97 538.85 348.57 C 542.89 350.20 545.70 354.66 545.07 359.04 C 545.41 362.80 542.46 365.56 540.08 368.03 C 537.11 368.00 534.15 368.00 531.19 367.99 C 530.03 366.79 528.87 365.60 527.73 364.40 C 528.66 362.09 527.83 359.71 527.82 357.35 C 528.68 353.60 526.98 349.84 528.17 346.10 C 527.24 345.46 526.31 344.85 525.35 344.28 C 525.39 343.86 525.47 343.03 525.51 342.61 M 532.45 354.70 C 532.48 356.85 532.50 359.01 532.52 361.18 C 532.97 362.11 533.42 363.05 533.87 364.00 C 535.08 363.99 536.30 363.99 537.52 364.00 C 538.40 363.14 539.30 362.29 540.20 361.45 C 539.95 357.90 538.83 354.39 536.21 351.87 C 534.93 352.79 533.68 353.73 532.45 354.70 Z" />
<path fill="#010101" opacity="1.00" d=" M 862.16 347.37 C 863.55 345.45 863.69 342.85 865.12 340.90 C 866.23 342.05 867.34 343.22 868.45 344.40 C 867.97 344.89 867.00 345.88 866.52 346.37 C 868.69 347.08 870.95 346.69 873.15 346.29 C 875.57 344.40 877.53 346.95 879.31 348.37 C 877.76 349.07 876.05 349.47 874.39 349.60 C 875.30 350.67 876.19 351.79 877.04 352.95 C 877.87 353.80 878.72 354.66 879.59 355.51 C 879.57 355.99 879.52 356.96 879.50 357.44 C 878.69 357.49 877.08 357.58 876.27 357.62 C 876.35 358.73 876.44 359.84 876.54 360.96 C 875.22 361.84 873.93 362.74 872.66 363.65 C 875.61 365.91 880.70 365.05 882.02 369.10 C 880.58 370.02 879.18 370.96 877.79 371.94 C 876.70 371.96 875.62 371.98 874.55 372.02 C 872.49 370.47 870.49 368.82 868.94 366.75 C 866.22 369.39 863.51 372.07 860.40 374.24 C 859.36 373.79 858.35 373.35 857.35 372.90 C 857.48 370.85 857.60 368.80 857.81 366.77 C 855.80 369.25 853.02 370.47 849.85 370.15 C 849.93 368.88 850.09 367.61 850.32 366.36 C 854.12 363.08 860.66 362.07 861.84 356.46 C 862.51 356.00 863.85 355.07 864.52 354.61 C 861.49 354.41 858.45 354.60 855.44 354.23 C 853.38 352.53 857.25 351.70 857.97 350.52 C 856.07 350.06 850.83 351.72 851.95 347.97 C 855.25 347.01 858.77 347.78 862.16 347.37 M 858.89 350.92 L 858.62 351.64 C 858.89 351.88 859.43 352.36 859.70 352.60 C 861.61 352.44 860.22 349.53 858.89 350.92 M 862.00 363.24 C 862.00 363.97 861.99 365.43 861.99 366.16 C 863.94 365.36 865.93 364.65 867.90 363.90 C 867.73 363.01 867.38 361.24 867.21 360.35 C 869.04 360.08 870.90 359.86 872.67 359.25 C 870.96 358.60 869.23 358.02 867.50 357.49 C 865.73 359.46 863.84 361.33 862.00 363.24 Z" />
<path fill="#010101" opacity="1.00" d=" M 120.74 342.89 C 121.66 342.69 122.58 342.50 123.50 342.31 C 123.88 342.76 124.64 343.65 125.02 344.10 C 124.57 345.21 124.12 346.32 123.68 347.45 C 125.51 347.47 127.33 347.49 129.16 347.52 C 129.97 346.74 130.79 345.96 131.61 345.19 C 132.92 346.33 135.30 346.85 135.57 348.80 C 136.13 351.13 132.11 350.19 131.10 350.69 C 131.86 351.26 133.39 352.39 134.16 352.95 C 133.65 353.35 132.64 354.16 132.13 354.56 C 133.99 355.10 135.85 355.69 137.71 356.27 C 137.63 356.85 137.49 358.00 137.41 358.57 C 136.14 358.50 134.88 358.43 133.62 358.36 C 133.57 359.70 133.45 361.03 133.27 362.35 C 131.97 362.98 130.65 363.58 129.32 364.16 C 131.91 366.01 135.01 366.89 138.14 367.26 C 138.36 368.10 138.59 368.93 138.81 369.78 C 136.51 371.16 134.01 372.21 131.28 372.16 C 129.54 370.28 127.74 368.45 125.94 366.63 C 123.02 369.48 120.10 372.34 117.25 375.26 C 116.11 374.23 114.91 373.25 113.99 372.02 C 114.21 370.43 114.71 368.89 115.08 367.34 C 112.93 368.40 110.80 369.52 108.77 370.81 C 108.20 370.48 107.08 369.83 106.52 369.51 C 107.16 368.24 107.65 366.76 109.03 366.10 C 112.37 364.00 115.49 361.57 118.34 358.84 C 114.62 359.55 110.84 359.58 107.08 359.55 C 107.04 358.93 106.96 357.68 106.92 357.06 C 109.27 356.44 111.69 355.77 114.11 356.86 C 111.05 355.73 110.05 353.39 112.80 351.58 C 110.98 351.00 109.15 350.42 107.34 349.82 C 110.49 345.82 116.06 348.00 120.38 347.51 C 120.49 345.96 120.61 344.43 120.74 342.89 M 118.39 355.29 C 118.58 358.69 121.40 353.97 118.39 355.29 M 124.40 355.07 C 125.68 356.35 129.82 356.34 131.07 355.09 C 129.00 354.39 126.46 354.34 124.40 355.07 M 126.10 361.20 C 126.62 362.43 128.15 361.52 128.33 360.55 L 128.45 359.87 C 128.11 357.73 125.44 359.72 126.10 361.20 M 120.07 361.83 C 119.66 363.18 119.23 364.53 118.96 365.93 C 121.02 366.90 123.02 365.04 125.00 364.68 C 124.47 363.17 123.90 361.68 123.29 360.21 C 122.22 360.75 121.15 361.29 120.07 361.83 Z" />
<path fill="#010101" opacity="1.00" d=" M 905.40 349.60 C 905.70 349.30 906.29 348.71 906.58 348.41 C 907.77 348.90 909.00 349.37 910.24 349.82 C 911.03 350.70 911.83 351.59 912.65 352.49 C 912.49 353.72 912.34 354.96 912.20 356.21 C 911.03 356.35 909.87 356.49 908.73 356.63 C 907.57 355.00 906.36 353.41 905.14 351.83 C 903.84 353.21 902.56 354.61 901.27 355.99 C 901.56 357.98 901.95 359.97 902.45 361.93 C 904.07 362.36 905.71 362.80 907.37 363.18 C 908.93 362.05 910.51 360.92 912.06 359.75 C 912.56 360.83 913.09 361.92 913.63 363.01 C 913.18 363.92 912.75 364.83 912.34 365.76 C 910.54 367.39 908.82 369.49 906.30 369.90 C 903.83 369.22 901.08 368.72 899.18 366.90 C 897.80 364.82 896.99 362.39 896.53 359.96 C 896.14 357.56 897.74 355.52 898.73 353.47 C 899.99 352.17 901.23 350.82 902.43 349.45 C 903.18 349.48 904.66 349.56 905.40 349.60 Z" />
<path fill="#010101" opacity="1.00" d=" M 158.01 349.74 C 161.40 350.15 166.01 348.02 168.37 351.40 C 169.77 354.48 171.26 358.18 169.40 361.41 C 170.44 362.42 171.49 363.43 172.54 364.44 C 172.53 365.47 172.53 366.50 172.53 367.54 C 171.63 368.44 170.73 369.34 169.84 370.25 C 166.79 369.08 163.58 368.05 160.58 369.99 C 159.02 368.76 157.26 367.78 155.80 366.45 C 155.35 364.42 155.46 362.33 155.34 360.27 C 156.98 359.19 158.69 358.22 160.24 357.02 C 161.44 356.99 162.64 356.97 163.85 356.94 C 163.90 356.08 164.00 354.37 164.05 353.51 C 163.26 353.51 161.67 353.52 160.88 353.53 C 160.68 354.69 160.47 355.85 160.24 357.02 C 158.44 356.81 156.82 355.94 155.31 354.98 C 155.35 354.32 155.42 353.00 155.46 352.34 C 156.30 351.47 157.15 350.60 158.01 349.74 M 159.74 362.00 C 160.89 362.86 161.90 364.42 163.57 364.01 C 164.72 363.19 165.23 362.09 165.11 360.69 C 163.21 360.50 161.48 361.40 159.74 362.00 Z" />
<path fill="#010101" opacity="1.00" d=" M 849.64 356.98 C 852.76 355.59 856.22 355.96 859.55 356.08 C 858.56 359.56 854.17 358.49 851.49 359.65 C 850.86 358.76 850.24 357.87 849.64 356.98 Z" />
</g>
</svg>
