<?xml version="1.0" encoding="UTF-8" ?>
<!DOCTYPE svg PUBLIC "-//W3C//DTD SVG 1.1//EN" "http://www.w3.org/Graphics/SVG/1.1/DTD/svg11.dtd">
<svg width="1108pt" height="638pt" viewBox="0 0 1108 638" version="1.1" xmlns="http://www.w3.org/2000/svg">
<g id="#010101ff">
<path fill="#010101" opacity="1.00" d=" M 463.33 66.84 C 466.96 65.19 471.09 66.28 474.95 66.00 C 478.83 66.29 483.01 65.18 486.67 66.84 C 496.41 67.21 506.17 66.90 515.91 66.98 C 517.20 66.99 518.45 67.24 519.65 67.75 C 520.88 67.92 522.12 68.07 523.36 68.24 C 525.93 69.40 528.79 68.94 531.52 69.04 C 532.49 69.66 533.47 70.28 534.45 70.89 C 536.52 70.96 538.65 70.93 540.62 71.69 C 541.09 71.81 542.03 72.05 542.50 72.18 C 543.05 72.45 544.14 73.01 544.69 73.28 C 545.00 73.84 545.63 74.97 545.95 75.53 C 546.02 78.50 546.02 81.47 545.93 84.44 C 545.60 85.11 544.95 86.45 544.62 87.11 C 542.87 87.01 541.13 86.85 539.43 86.47 C 538.43 86.05 537.44 85.62 536.46 85.21 C 535.98 85.09 535.03 84.86 534.56 84.74 C 532.86 84.22 531.13 83.81 529.43 83.34 C 528.08 82.98 526.72 82.65 525.37 82.32 C 523.66 82.05 521.92 81.89 520.33 81.16 C 515.36 80.62 510.28 81.64 505.38 80.45 C 504.03 80.00 502.67 79.60 501.34 79.16 C 492.39 78.81 483.42 79.06 474.47 79.03 C 473.49 79.68 472.51 80.32 471.54 80.97 C 466.50 80.58 461.10 82.01 456.32 80.12 C 454.77 80.07 453.22 80.07 451.68 80.12 C 450.53 80.75 449.30 81.05 447.99 81.02 C 439.52 81.06 431.05 80.88 422.58 81.08 C 421.89 81.41 420.50 82.08 419.81 82.41 C 420.04 83.83 420.27 85.26 420.73 86.64 C 420.82 87.14 421.00 88.15 421.09 88.65 C 422.27 89.06 423.46 89.46 424.66 89.84 C 427.87 90.06 431.11 90.09 434.33 89.84 C 440.74 87.85 447.71 89.69 454.33 88.84 C 456.19 87.90 458.31 87.98 460.34 87.74 C 461.82 87.10 463.44 86.94 465.06 86.96 C 480.02 87.02 494.99 87.02 509.96 86.96 C 511.56 86.96 513.22 87.02 514.67 87.83 C 517.33 88.02 520.08 87.76 522.64 88.67 C 524.32 88.96 526.03 89.19 527.66 89.74 C 529.66 89.97 531.75 89.95 533.64 90.75 C 534.58 90.89 535.53 91.02 536.49 91.15 C 538.12 92.04 539.78 92.89 541.45 93.71 C 543.77 93.69 544.91 95.70 546.01 97.40 C 545.99 100.51 545.98 103.61 546.05 106.71 C 544.65 107.73 543.20 110.02 541.36 108.25 C 540.88 108.15 539.92 107.97 539.44 107.88 C 538.46 107.28 537.49 106.69 536.53 106.09 C 536.01 106.05 534.97 105.96 534.45 105.92 C 533.47 105.30 532.50 104.68 531.53 104.07 C 530.50 104.02 529.47 103.98 528.45 103.94 C 527.47 103.31 526.50 102.68 525.53 102.05 C 523.83 102.01 522.14 101.99 520.46 101.96 C 519.47 101.31 518.49 100.67 517.52 100.03 C 509.33 99.95 501.14 100.06 492.95 99.96 C 491.05 99.97 489.05 99.87 487.34 100.85 C 480.12 101.27 472.88 100.74 465.67 101.16 C 464.51 101.76 463.28 102.05 461.98 102.02 C 449.33 102.04 436.68 101.92 424.03 102.05 C 421.25 102.38 421.65 105.91 422.85 107.66 C 423.00 110.21 423.00 112.78 423.17 115.33 C 424.41 117.81 423.91 120.66 424.17 123.32 C 425.28 125.49 424.96 127.99 425.21 130.33 C 426.49 133.15 425.86 136.33 426.16 139.32 C 427.54 142.12 426.84 145.33 427.16 148.32 C 428.43 150.79 427.90 153.65 428.17 156.32 C 429.64 159.44 428.76 163.00 429.15 166.33 C 430.43 168.80 429.91 171.66 430.17 174.33 C 431.41 176.81 430.92 179.66 431.17 182.33 C 432.41 184.81 431.91 187.66 432.17 190.33 C 434.40 195.82 431.67 202.07 433.73 207.63 C 433.82 208.11 434.00 209.07 434.09 209.55 C 434.90 210.43 435.70 211.31 436.51 212.20 C 437.91 211.95 439.34 211.74 440.66 211.16 C 444.54 210.88 448.44 211.11 452.33 210.85 C 457.40 208.93 463.04 210.60 468.33 209.84 C 470.69 208.57 473.45 209.05 476.02 208.94 C 478.24 209.02 480.64 208.69 482.67 209.84 C 489.63 210.69 496.92 208.85 503.67 210.83 C 506.34 211.08 509.19 210.58 511.68 211.83 C 514.34 212.04 517.13 211.68 519.66 212.74 C 521.67 212.96 523.74 212.98 525.66 213.73 C 527.66 213.93 529.70 214.05 531.64 214.66 C 533.31 214.95 535.02 215.18 536.64 215.74 C 537.58 215.88 538.54 216.01 539.50 216.14 C 541.37 217.14 543.36 217.99 544.99 219.39 C 545.21 220.88 544.94 222.40 544.11 223.68 C 544.06 225.22 544.06 226.77 544.11 228.32 C 544.90 229.60 545.26 231.11 544.97 232.60 C 543.28 235.06 539.95 233.68 537.47 233.99 C 536.49 233.34 535.51 232.70 534.54 232.06 C 533.51 232.02 532.48 231.98 531.45 231.94 C 530.47 231.31 529.50 230.68 528.53 230.05 C 526.83 230.01 525.14 229.99 523.46 229.95 C 522.48 229.32 521.51 228.69 520.54 228.07 C 518.12 227.97 515.55 228.35 513.33 227.17 C 510.77 227.01 508.21 227.00 505.66 226.84 C 503.12 225.53 500.19 226.08 497.47 225.97 C 496.48 225.32 495.50 224.68 494.52 224.03 C 480.69 223.94 466.85 224.06 453.01 223.96 C 451.40 223.94 449.77 224.06 448.34 224.83 C 445.67 225.11 442.80 224.56 440.34 225.85 C 434.36 226.07 428.36 226.13 422.39 225.90 C 421.49 224.86 420.76 223.71 419.99 222.59 C 420.00 218.95 420.08 215.30 419.84 211.67 C 418.58 209.20 419.08 206.34 418.83 203.68 C 416.96 198.58 418.59 192.96 417.84 187.66 C 417.39 186.31 416.98 184.96 416.56 183.62 C 415.78 180.70 416.01 177.66 415.84 174.68 C 415.11 173.08 414.96 171.34 414.67 169.64 C 413.64 166.76 414.07 163.66 413.84 160.67 C 413.11 159.08 412.96 157.34 412.67 155.64 C 411.24 151.13 412.42 146.31 411.85 141.67 C 410.43 138.89 411.17 135.66 410.85 132.67 C 409.06 128.59 410.48 123.97 409.85 119.67 C 408.87 117.81 408.99 115.68 408.75 113.66 C 407.35 110.11 408.19 106.19 407.98 102.48 C 407.32 101.50 406.67 100.52 406.02 99.54 C 405.96 95.58 406.10 91.62 405.84 87.67 C 405.15 86.07 404.95 84.34 404.66 82.65 C 403.88 80.40 403.96 78.00 403.80 75.67 C 402.74 73.79 403.03 71.61 403.02 69.56 C 403.36 68.92 404.03 67.64 404.36 67.00 C 409.57 66.99 414.78 67.02 419.99 66.96 C 421.90 66.97 423.93 66.85 425.67 67.84 C 429.21 68.08 432.78 68.08 436.33 67.84 C 438.69 66.56 441.45 67.06 444.02 66.97 C 450.46 66.95 456.90 67.17 463.33 66.84 Z" />
<path fill="#010101" opacity="1.00" d=" M 608.38 67.56 C 615.17 66.30 622.16 67.33 629.04 67.00 C 632.89 67.30 637.07 66.15 640.68 67.88 C 642.22 67.93 643.77 67.93 645.32 67.88 C 647.79 66.46 650.80 66.78 653.43 67.55 C 658.07 66.70 663.02 66.52 667.62 67.65 C 668.06 67.83 668.95 68.18 669.39 68.36 C 675.65 70.28 682.52 67.58 688.67 69.84 C 694.55 70.10 700.45 70.09 706.33 69.85 C 708.55 68.60 711.16 69.04 713.60 68.99 C 713.97 69.64 714.71 70.96 715.08 71.61 C 714.90 72.97 714.72 74.32 714.34 75.64 C 714.04 77.32 713.79 79.01 713.30 80.64 C 713.09 81.55 712.89 82.46 712.70 83.37 C 710.90 87.96 713.14 93.10 711.24 97.65 C 711.06 98.89 710.91 100.12 710.76 101.36 C 709.49 104.29 710.38 107.60 709.44 110.62 C 708.98 111.94 708.60 113.28 708.24 114.63 C 708.08 115.87 707.92 117.12 707.75 118.36 C 706.20 121.62 707.83 125.44 706.20 128.67 C 705.98 131.01 706.24 133.48 705.21 135.67 C 704.99 138.01 705.19 140.44 704.26 142.65 C 704.07 143.88 703.91 145.12 703.75 146.36 C 702.65 149.00 703.31 151.97 702.34 154.64 C 702.03 156.32 701.81 158.03 701.27 159.66 C 701.05 161.66 700.94 163.70 700.34 165.64 C 700.03 167.34 699.86 169.08 699.16 170.67 C 698.66 174.64 699.68 178.80 698.29 182.64 C 698.08 183.55 697.89 184.46 697.71 185.37 C 696.17 189.29 697.73 193.63 696.44 197.62 C 695.99 198.96 695.58 200.31 695.17 201.66 C 695.02 204.22 694.97 206.79 694.83 209.35 C 694.39 210.69 693.99 212.05 693.55 213.39 C 692.85 216.11 693.28 219.02 692.25 221.66 C 692.07 222.89 691.92 224.12 691.78 225.36 C 691.00 226.37 691.13 227.51 691.60 228.59 C 691.38 229.75 691.07 230.89 690.67 232.00 C 687.60 232.00 684.53 232.01 681.46 231.97 C 680.48 231.32 679.49 230.67 678.52 230.03 C 675.48 230.04 672.40 230.20 669.43 229.49 C 668.41 229.03 667.41 228.56 666.42 228.08 C 662.08 227.65 657.51 228.79 653.35 227.24 C 652.10 227.07 650.87 226.92 649.64 226.76 C 647.21 225.64 644.49 226.03 641.92 225.98 C 632.17 226.12 622.41 225.79 612.67 226.15 C 609.57 227.68 605.98 226.74 602.68 227.15 C 600.81 228.12 598.67 228.02 596.65 228.24 C 595.29 228.61 593.94 229.00 592.62 229.44 C 590.91 229.83 589.16 230.02 587.43 230.16 C 586.45 230.75 585.48 231.34 584.52 231.94 C 582.83 231.98 581.15 232.02 579.48 232.06 C 578.50 232.67 577.53 233.29 576.56 233.90 C 575.58 234.00 574.61 234.11 573.65 234.22 C 571.62 235.12 568.45 235.96 567.11 233.60 C 566.78 229.54 567.09 225.46 566.99 221.40 C 568.06 219.69 569.22 217.80 571.46 217.63 C 572.45 217.28 573.45 216.95 574.46 216.62 C 576.50 216.20 578.54 215.77 580.59 215.34 C 581.03 215.16 581.93 214.82 582.38 214.64 C 585.92 213.48 589.68 214.20 593.33 213.86 C 597.07 212.12 601.36 213.42 605.33 212.85 C 608.11 211.43 611.33 212.16 614.32 211.85 C 616.06 210.83 618.10 210.98 620.04 210.96 C 629.02 211.03 638.00 211.01 646.98 210.96 C 648.57 210.96 650.24 211.00 651.67 211.85 C 655.97 212.47 660.58 211.09 664.67 212.83 C 667.22 212.99 669.78 213.00 672.34 213.16 C 674.23 214.24 676.44 213.97 678.53 214.06 C 679.34 213.21 680.16 212.37 681.00 211.54 C 681.06 208.48 680.54 205.28 681.71 202.36 C 681.89 201.45 682.08 200.53 682.28 199.62 C 683.74 195.40 682.70 190.84 683.02 186.47 C 683.66 185.49 684.31 184.50 684.97 183.52 C 685.00 180.17 684.99 176.81 685.03 173.46 C 685.67 172.48 686.32 171.50 686.98 170.52 C 687.13 166.81 686.48 162.97 687.64 159.37 C 687.82 158.93 688.17 158.05 688.35 157.61 C 689.69 153.02 688.70 148.16 689.03 143.46 C 689.67 142.48 690.31 141.50 690.97 140.53 C 691.00 137.17 690.99 133.81 691.03 130.46 C 691.66 129.48 692.31 128.51 692.96 127.53 C 693.05 124.79 692.54 121.87 693.83 119.32 C 694.09 116.66 693.55 113.79 694.86 111.33 C 695.20 107.69 694.49 103.92 695.64 100.38 C 695.82 99.94 696.18 99.05 696.37 98.60 C 697.02 96.21 696.82 93.62 697.86 91.33 C 697.74 89.26 698.95 86.36 696.59 85.19 C 694.48 84.90 692.28 85.12 690.32 84.18 C 687.66 83.99 684.93 84.22 682.38 83.36 C 681.94 83.18 681.05 82.82 680.61 82.64 C 673.35 80.68 665.47 83.47 658.33 81.16 C 642.78 80.91 627.22 80.88 611.67 81.17 C 610.07 81.87 608.32 82.06 606.62 82.31 C 605.26 82.62 603.92 83.00 602.61 83.43 C 600.34 84.02 597.98 84.07 595.66 84.22 C 593.59 84.76 591.52 85.29 589.41 85.65 C 588.96 85.82 588.07 86.18 587.62 86.36 C 584.00 87.76 579.96 86.20 576.38 87.72 C 575.90 87.82 574.94 88.02 574.46 88.12 C 572.79 89.16 571.14 90.24 569.44 91.23 C 567.85 92.10 566.37 93.15 564.95 94.26 C 564.96 100.38 565.16 106.51 564.91 112.62 C 564.10 113.67 562.72 113.93 561.62 114.53 C 560.17 114.86 558.63 115.22 557.34 114.20 C 555.30 113.75 552.40 114.86 551.23 112.59 C 551.00 111.61 550.80 110.62 550.64 109.63 C 550.00 108.22 549.77 106.61 550.86 105.33 C 551.08 101.12 551.09 96.89 550.84 92.67 C 549.56 90.34 550.06 87.61 549.96 85.08 C 552.80 84.44 555.68 84.70 558.53 85.11 C 559.66 84.29 560.83 83.52 561.87 82.59 C 562.04 81.19 562.01 79.78 562.05 78.38 C 563.05 76.64 564.25 74.80 566.47 74.64 C 567.45 74.29 568.44 73.94 569.44 73.58 C 572.06 72.79 574.82 72.96 577.53 72.96 C 578.50 72.31 579.48 71.67 580.47 71.03 C 583.82 70.99 587.17 71.00 590.52 70.97 C 591.50 70.32 592.48 69.67 593.46 69.02 C 597.09 68.99 600.71 69.07 604.34 68.84 C 605.67 68.40 607.03 68.00 608.38 67.56 Z" />
<path fill="#010101" opacity="1.00" d=" M 556.40 121.63 C 558.72 120.73 561.29 120.71 563.62 121.65 C 564.06 121.82 564.96 122.18 565.40 122.36 C 566.78 122.68 568.18 122.95 569.59 123.23 C 570.55 123.77 571.52 124.33 572.49 124.89 C 572.98 124.94 573.97 125.04 574.46 125.09 C 576.11 126.78 579.85 127.57 578.99 130.57 C 577.91 131.47 576.73 132.23 575.58 133.02 C 574.54 133.00 573.50 132.98 572.48 132.96 C 571.50 132.33 570.52 131.72 569.55 131.10 C 567.46 131.05 565.34 131.04 563.36 130.34 C 561.65 130.03 559.91 129.89 558.32 129.16 C 556.71 129.06 555.10 129.02 553.50 129.00 C 552.52 129.64 551.54 130.27 550.57 130.91 C 550.07 130.98 549.07 131.13 548.57 131.20 C 547.56 131.59 546.54 131.96 545.53 132.32 C 544.90 132.57 543.63 133.05 543.00 133.29 C 543.00 133.71 543.00 134.57 543.00 135.00 C 551.44 135.08 559.89 134.83 568.34 135.13 C 569.44 136.03 570.54 136.03 571.66 135.13 C 576.91 134.88 582.18 134.98 587.44 135.07 C 588.08 135.39 589.36 136.03 590.00 136.35 C 590.00 138.77 590.14 141.20 589.91 143.62 C 588.95 145.17 587.09 145.00 585.54 145.25 C 584.84 145.53 583.45 146.10 582.75 146.38 C 582.99 147.67 583.17 149.11 584.40 149.90 C 587.45 150.16 590.52 149.98 593.59 149.99 C 594.71 150.76 595.86 151.50 596.90 152.39 C 597.19 155.03 597.01 157.70 596.84 160.35 C 595.00 164.19 596.82 168.63 595.43 172.62 C 594.99 173.94 594.60 175.28 594.24 176.62 C 594.10 177.58 593.97 178.53 593.84 179.49 C 590.04 187.34 584.54 195.05 576.49 198.92 C 575.96 198.94 574.91 198.99 574.38 199.01 C 573.94 199.51 573.06 200.51 572.62 201.00 C 571.53 201.00 570.46 201.00 569.39 201.00 C 568.95 201.50 568.07 202.50 567.63 203.01 C 566.22 203.00 564.83 203.00 563.44 203.00 C 562.62 202.18 561.81 201.37 561.00 200.56 C 560.98 199.49 560.97 198.41 560.96 197.34 C 562.66 195.77 564.45 194.30 566.39 193.02 C 566.90 192.99 567.92 192.94 568.43 192.92 C 570.44 191.26 572.64 189.83 574.91 188.54 C 574.96 188.28 575.05 187.76 575.09 187.50 C 578.02 185.98 580.41 183.55 581.73 180.51 C 582.41 179.45 583.13 178.43 583.89 177.41 C 583.94 176.93 584.04 175.95 584.10 175.46 C 584.68 174.50 585.26 173.54 585.84 172.57 C 586.31 169.24 586.91 165.93 587.04 162.57 C 586.69 162.01 586.01 160.88 585.66 160.32 C 585.11 160.00 584.01 159.36 583.46 159.04 C 581.49 159.02 579.53 159.03 577.58 159.07 C 576.91 159.40 575.56 160.06 574.89 160.39 C 575.05 161.97 574.62 163.98 576.40 164.80 C 578.27 165.23 580.71 164.44 581.90 166.39 C 582.17 169.13 582.32 172.01 581.30 174.62 C 581.19 175.10 580.96 176.04 580.85 176.52 C 579.17 180.79 575.74 183.86 572.55 187.00 C 572.02 187.00 570.94 187.00 570.40 187.00 C 569.96 187.49 569.07 188.48 568.63 188.98 C 567.60 189.02 566.59 189.07 565.58 189.12 C 564.57 189.57 563.57 190.03 562.57 190.48 C 558.63 191.42 554.55 190.95 550.55 190.92 C 548.90 189.99 547.22 189.12 545.54 188.28 C 543.37 187.22 541.34 185.95 539.32 184.65 C 537.94 181.68 536.12 178.94 534.04 176.42 C 533.97 172.72 533.99 169.01 534.00 165.31 C 534.63 165.04 535.89 164.51 536.51 164.24 C 538.12 164.02 539.97 164.13 540.99 162.58 C 541.30 161.16 540.94 159.82 539.59 159.12 C 536.53 158.82 533.47 159.04 530.41 159.00 C 528.36 160.20 526.19 161.56 527.06 164.30 C 528.69 167.09 527.82 170.45 528.03 173.52 C 528.67 174.49 529.30 175.47 529.95 176.45 C 529.97 176.98 530.01 178.05 530.03 178.58 C 531.42 180.62 532.94 182.56 534.43 184.53 C 537.23 186.44 539.32 189.25 542.39 190.79 C 543.79 191.44 545.18 192.13 546.56 192.86 C 547.06 192.90 548.07 192.99 548.58 193.04 C 549.70 194.18 550.84 195.31 551.99 196.43 C 552.01 197.00 552.05 198.14 552.06 198.71 C 550.55 199.87 549.01 201.01 547.50 202.17 C 546.09 201.95 544.67 201.74 543.34 201.22 C 542.05 201.08 540.77 200.98 539.49 200.88 C 531.46 197.45 525.96 190.54 521.03 183.63 C 520.98 183.12 520.87 182.09 520.82 181.57 C 520.42 180.56 520.03 179.55 519.66 178.53 C 519.30 177.54 518.96 176.54 518.63 175.54 C 518.27 174.23 517.95 172.91 517.62 171.61 C 516.24 166.41 517.44 160.96 516.85 155.67 C 516.07 154.39 515.75 152.89 516.04 151.42 C 517.11 150.51 518.29 149.72 519.44 148.89 C 521.21 149.00 523.05 148.95 524.67 149.84 C 527.29 150.01 529.95 150.19 532.58 149.89 C 534.59 148.98 534.59 146.02 532.58 145.12 C 530.54 144.88 528.48 144.99 526.44 144.99 C 525.62 144.18 524.81 143.37 524.00 142.56 C 523.99 140.85 523.99 139.14 524.00 137.43 C 524.81 136.62 525.62 135.81 526.44 135.00 C 531.63 135.00 536.82 135.00 542.02 135.00 L 541.96 134.36 C 539.09 133.50 536.04 131.82 536.87 128.30 C 537.51 128.06 538.81 127.56 539.46 127.31 C 540.78 126.62 542.12 125.94 543.46 125.26 C 544.83 124.96 546.22 124.66 547.60 124.33 C 548.06 124.19 548.98 123.91 549.44 123.77 C 550.44 123.37 551.44 122.99 552.45 122.61 C 553.75 122.26 555.07 121.96 556.40 121.63 M 550.68 144.13 C 548.75 145.19 546.50 144.87 544.42 145.19 C 542.98 145.82 542.72 147.20 543.00 148.61 C 543.91 149.58 545.25 149.94 546.40 150.57 C 548.60 151.16 550.94 149.03 552.80 151.07 C 553.74 150.75 554.68 150.44 555.63 150.13 C 558.20 149.99 560.77 149.94 563.35 150.12 C 564.43 151.00 565.52 151.02 566.64 150.18 C 567.59 150.09 568.55 150.01 569.53 149.94 C 570.38 149.15 571.25 148.36 572.12 147.58 C 571.26 146.74 570.41 145.89 569.57 145.04 C 568.58 144.97 567.61 144.90 566.64 144.82 C 565.53 143.96 564.43 143.99 563.35 144.89 C 561.00 144.96 558.44 145.45 556.33 144.12 C 554.44 144.03 552.55 144.03 550.68 144.13 M 553.46 158.00 C 552.60 158.84 551.74 159.67 550.87 160.51 C 551.01 162.09 550.73 163.98 552.39 164.88 C 555.77 165.14 559.19 165.13 562.58 164.89 C 564.42 163.50 565.16 161.30 563.89 159.30 C 563.27 158.99 562.05 158.38 561.44 158.07 C 558.77 158.00 556.12 157.99 553.46 158.00 M 545.41 172.11 C 543.31 173.18 543.97 175.68 544.06 177.59 C 545.27 178.92 547.02 179.49 548.60 180.27 C 549.57 180.81 550.55 181.37 551.52 181.94 C 554.80 182.04 558.09 182.03 561.37 181.87 C 562.43 181.47 563.50 181.10 564.58 180.75 C 566.77 179.48 569.02 178.24 570.95 176.58 C 571.30 174.85 571.20 172.21 568.94 172.04 C 561.10 172.00 553.24 171.86 545.41 172.11 Z" />
<path fill="#010101" opacity="1.00" d=" M 551.44 212.00 C 554.80 212.00 558.17 212.00 561.54 212.00 C 562.41 212.85 563.30 213.69 564.20 214.53 C 563.95 215.93 563.72 217.35 563.17 218.68 C 562.87 224.23 562.94 229.80 563.13 235.36 C 563.49 236.39 563.87 237.41 564.25 238.44 C 563.37 239.60 562.56 240.81 561.58 241.89 C 558.53 242.19 555.46 241.97 552.41 241.99 C 550.83 240.89 549.27 239.77 547.73 238.63 C 548.00 237.17 548.25 235.70 548.84 234.33 C 549.18 227.70 548.91 221.07 549.00 214.44 C 549.81 213.62 550.62 212.81 551.44 212.00 Z" />
<path fill="#010101" opacity="1.00" d=" M 136.35 482.75 C 137.65 482.23 139.04 482.06 140.43 481.90 C 141.40 482.53 142.39 483.16 143.39 483.78 C 146.84 485.14 150.40 486.84 152.00 490.43 C 152.41 493.20 150.78 496.96 153.40 498.89 C 159.11 498.83 165.04 499.73 170.62 498.30 C 171.08 498.19 172.01 497.98 172.47 497.87 C 174.97 496.11 177.42 494.26 179.49 492.00 C 181.15 492.00 182.81 492.02 184.47 492.06 C 185.01 492.35 186.09 492.93 186.63 493.23 C 190.13 494.75 193.72 498.96 191.95 502.90 C 190.11 503.42 188.06 504.70 186.33 503.14 C 179.81 502.86 173.27 503.04 166.74 503.02 C 166.97 503.64 167.45 504.89 167.68 505.51 C 168.04 506.56 168.41 507.62 168.81 508.68 C 168.52 509.25 167.94 510.40 167.65 510.97 C 166.63 511.00 165.62 511.04 164.61 511.08 C 163.52 511.87 162.43 512.67 161.31 513.44 C 161.02 513.95 160.43 514.99 160.14 515.51 C 160.06 516.87 160.05 518.25 159.87 519.61 C 158.85 520.50 157.71 521.23 156.60 522.01 C 155.40 522.00 154.20 522.00 153.00 522.01 C 153.00 522.43 153.00 523.29 153.00 523.71 C 153.63 523.95 154.90 524.44 155.53 524.68 C 156.55 525.04 157.56 525.42 158.58 525.81 C 159.08 525.87 160.10 526.00 160.60 526.06 C 164.77 529.06 169.44 531.77 172.00 536.42 C 172.00 536.96 172.01 538.06 172.02 538.60 C 170.93 540.39 169.59 542.08 167.49 542.69 C 165.92 543.44 164.97 544.88 164.22 546.40 C 163.87 547.48 163.52 548.56 163.15 549.64 C 162.88 554.61 163.04 559.58 163.00 564.56 C 162.18 565.36 161.37 566.18 160.56 567.00 C 158.46 567.00 156.37 567.01 154.27 567.04 C 153.02 565.40 151.91 563.67 150.56 562.12 C 147.83 561.82 144.95 561.67 142.36 562.73 C 141.89 562.82 140.95 563.00 140.47 563.09 C 138.69 564.92 136.76 566.62 134.60 568.01 C 132.88 568.00 131.16 567.99 129.45 568.00 C 128.62 567.17 127.78 566.35 126.94 565.54 C 127.03 563.45 126.74 561.22 127.85 559.33 C 128.26 555.42 127.47 551.40 128.54 547.57 C 127.92 546.22 128.48 544.90 128.91 543.62 C 128.59 542.96 127.95 541.64 127.62 540.98 C 127.10 541.01 126.05 541.06 125.53 541.09 C 123.14 542.43 120.08 543.34 119.47 546.40 C 118.96 548.67 118.89 551.01 119.14 553.33 C 120.12 555.18 120.01 557.31 120.26 559.34 C 121.54 562.51 120.81 566.00 121.15 569.32 C 121.77 570.63 121.95 572.07 122.19 573.49 C 120.95 574.61 119.75 575.76 118.56 576.93 C 118.07 577.00 117.09 577.15 116.61 577.22 C 115.59 577.56 114.57 577.88 113.55 578.20 C 112.01 577.06 110.49 575.91 109.01 574.71 C 108.95 574.20 108.82 573.17 108.76 572.65 C 107.50 568.74 107.54 564.25 108.75 560.34 C 108.99 558.31 108.89 556.19 109.84 554.32 C 110.10 544.11 110.11 533.88 109.83 523.67 C 109.38 522.32 109.01 520.94 108.64 519.58 C 108.35 518.56 108.07 517.54 107.82 516.52 C 109.11 514.41 110.60 512.23 113.43 512.96 C 116.42 514.53 119.31 516.35 121.48 518.99 C 124.00 519.00 126.52 519.00 129.05 519.00 C 129.00 517.21 128.95 515.43 128.83 513.67 C 128.20 512.31 128.03 510.82 127.82 509.37 C 126.18 506.81 124.38 504.34 122.49 501.95 C 121.96 502.18 120.88 502.64 120.34 502.87 C 114.23 503.15 108.11 502.93 102.00 503.00 C 102.00 501.33 102.00 499.66 102.00 498.00 C 109.11 498.09 116.23 497.80 123.34 498.16 C 124.56 498.80 125.93 498.91 127.28 499.02 C 128.55 497.75 130.31 497.81 131.66 498.88 C 134.14 498.93 136.95 499.60 139.01 497.79 C 138.31 496.02 137.72 494.22 137.16 492.40 C 137.09 491.39 137.03 490.39 136.96 489.40 C 135.97 488.46 134.98 487.52 134.00 486.59 C 134.00 485.42 134.00 484.25 134.00 483.09 C 134.59 483.01 135.76 482.84 136.35 482.75 M 132.72 503.37 C 135.19 505.68 137.59 508.06 140.01 510.43 C 140.11 513.77 139.52 517.24 140.63 520.47 C 140.34 521.46 140.07 522.45 139.81 523.45 C 141.64 525.16 143.45 526.89 145.28 528.61 C 143.70 529.55 142.10 530.45 140.46 531.29 C 138.11 532.31 135.88 533.59 133.94 535.28 C 133.96 536.37 133.99 537.46 134.01 538.57 C 134.82 539.35 135.62 540.13 136.43 540.93 C 136.91 541.01 137.88 541.18 138.37 541.26 C 142.26 542.71 146.52 541.74 150.58 542.00 C 151.85 540.66 153.13 539.34 154.41 538.01 C 156.08 537.98 157.75 537.95 159.43 537.92 C 157.40 532.82 152.34 530.35 148.80 526.48 C 149.07 525.09 149.33 523.72 149.61 522.35 C 149.32 521.39 149.03 520.43 148.76 519.48 C 149.32 519.02 150.43 518.11 150.99 517.65 C 151.01 517.12 151.06 516.05 151.09 515.51 C 151.38 514.99 151.97 513.95 152.26 513.43 C 152.79 512.45 153.32 511.48 153.85 510.51 C 153.94 510.02 154.12 509.05 154.21 508.56 C 154.60 507.52 154.97 506.47 155.31 505.42 C 153.79 504.25 152.24 503.15 150.61 502.14 C 146.90 503.86 142.61 502.78 138.66 502.85 C 136.76 501.47 134.39 501.84 132.72 503.37 M 121.36 521.01 C 121.04 521.65 120.40 522.93 120.07 523.57 C 119.97 526.49 119.95 529.42 120.16 532.34 C 120.61 533.70 121.06 535.06 121.50 536.43 C 125.89 533.62 128.63 529.15 132.07 525.39 C 131.98 523.82 132.24 521.98 130.60 521.11 C 127.52 520.83 124.43 521.03 121.36 521.01 M 145.68 544.17 C 143.59 545.31 140.66 544.31 139.11 546.39 C 138.87 549.78 138.86 553.20 139.11 556.60 C 140.62 558.72 143.59 557.67 145.67 558.81 C 146.96 558.90 148.25 558.97 149.54 559.05 C 150.35 558.20 151.17 557.36 152.00 556.53 C 152.02 553.57 152.03 550.61 151.84 547.66 C 151.45 546.42 151.05 545.19 150.65 543.97 C 148.99 544.00 147.33 544.06 145.68 544.17 Z" />
<path fill="#010101" opacity="1.00" d=" M 336.54 485.05 C 337.83 485.03 339.13 485.02 340.43 485.02 C 342.27 486.48 344.19 487.85 346.05 489.30 C 346.02 490.39 346.01 491.50 346.00 492.61 C 345.03 493.96 344.04 495.30 343.02 496.61 C 343.06 497.51 343.11 498.41 343.17 499.33 C 344.05 500.61 344.27 502.26 343.21 503.54 C 345.10 507.42 347.39 511.16 350.55 514.15 C 354.55 510.49 359.89 508.03 362.49 503.08 C 359.12 502.81 355.55 503.60 352.35 502.24 C 351.76 502.16 350.59 501.99 350.00 501.91 C 350.00 501.18 350.00 499.73 350.00 499.00 C 353.44 498.99 356.89 498.93 360.34 499.13 C 362.55 500.93 364.81 498.23 366.98 497.67 C 366.99 497.27 367.01 496.47 367.03 496.07 C 367.62 496.00 368.80 495.87 369.39 495.80 C 370.41 495.44 371.44 495.10 372.48 494.77 C 374.96 496.64 377.21 498.83 379.86 500.48 C 380.36 501.84 380.86 503.22 381.33 504.62 C 379.80 505.76 378.22 506.85 376.53 507.76 C 374.69 508.96 372.95 510.31 371.10 511.50 C 371.05 511.76 370.96 512.30 370.92 512.56 C 367.53 514.73 363.84 516.57 361.00 519.48 C 360.89 521.81 363.87 522.66 365.41 523.93 C 365.92 524.01 366.92 524.15 367.43 524.23 C 369.11 524.77 370.85 525.18 372.56 525.66 C 373.93 526.00 375.31 526.36 376.67 526.79 C 379.00 527.00 381.48 526.76 383.67 527.79 C 385.98 527.92 388.32 527.97 390.57 528.59 C 393.61 527.06 396.92 530.54 396.19 533.64 C 391.66 536.02 389.68 541.36 384.53 542.76 C 383.34 542.42 382.18 542.03 381.04 541.59 C 381.60 543.17 381.96 544.82 382.17 546.49 C 381.14 547.82 380.16 549.18 379.16 550.52 C 379.00 552.26 378.98 554.07 378.18 555.68 C 377.97 558.33 378.27 561.09 377.31 563.63 C 377.18 564.08 376.94 564.98 376.82 565.43 C 375.41 567.21 374.44 569.26 373.20 571.15 C 371.16 573.94 368.21 575.84 365.48 577.89 C 365.01 577.97 364.06 578.15 363.58 578.23 C 361.83 578.79 360.05 579.22 358.30 579.78 C 355.98 579.17 353.91 577.97 353.29 575.49 C 352.24 573.86 350.96 572.40 349.66 570.97 C 348.93 570.97 347.47 570.99 346.74 570.99 C 346.97 569.57 347.00 567.95 348.38 567.10 C 352.79 566.81 357.22 567.06 361.64 567.03 C 363.21 565.37 364.70 563.63 365.84 561.64 C 366.03 560.17 366.21 558.69 366.82 557.33 C 366.97 555.10 367.02 552.87 367.17 550.66 C 368.10 549.06 368.21 547.16 367.95 545.38 C 367.08 544.36 365.73 544.06 364.60 543.48 C 363.14 543.13 361.60 542.74 360.35 543.89 C 358.02 543.92 355.46 544.50 353.39 543.14 C 351.57 544.08 349.67 545.28 349.73 547.60 C 349.19 548.57 348.64 549.54 348.08 550.51 C 348.03 551.84 347.98 553.19 347.95 554.54 C 344.69 560.35 339.97 565.19 334.48 568.91 C 334.01 568.96 333.06 569.07 332.59 569.13 C 330.71 570.62 328.60 571.77 326.50 572.92 C 325.98 572.95 324.92 572.99 324.40 573.02 C 323.95 573.50 323.07 574.46 322.62 574.94 C 322.13 575.02 321.14 575.18 320.65 575.26 C 319.02 575.81 317.32 576.04 315.64 576.34 C 313.03 577.32 310.20 577.01 307.48 576.92 C 308.25 575.12 309.78 573.96 311.40 572.99 C 311.94 572.99 313.03 573.00 313.57 573.00 C 316.39 569.87 319.37 566.72 323.45 565.28 C 327.93 563.07 332.52 560.27 334.80 555.62 C 335.10 554.53 335.42 553.46 335.78 552.40 C 335.85 551.89 335.98 550.87 336.05 550.36 C 336.54 549.93 337.51 549.05 338.00 548.61 C 338.00 547.41 338.00 546.22 338.00 545.03 C 335.44 544.93 332.67 545.46 330.33 544.13 C 328.44 544.03 326.55 544.03 324.68 544.13 C 321.82 545.58 318.33 545.31 315.37 544.31 C 314.91 544.18 314.00 543.92 313.54 543.80 C 311.32 542.23 308.70 541.76 306.04 541.92 C 305.49 540.37 305.36 538.78 306.06 537.27 C 306.68 536.99 307.91 536.43 308.53 536.15 C 309.03 536.09 310.04 535.96 310.54 535.90 C 311.51 535.29 312.48 534.68 313.46 534.08 C 313.98 534.04 315.02 533.96 315.54 533.92 C 316.51 533.30 317.48 532.68 318.46 532.06 C 319.48 532.01 320.50 531.97 321.53 531.93 C 322.50 531.31 323.47 530.70 324.44 530.09 C 324.95 530.03 325.96 529.91 326.46 529.85 C 327.82 529.12 329.20 528.42 330.58 527.75 C 332.26 526.78 333.89 525.73 335.56 524.76 C 338.21 523.30 340.72 521.60 343.07 519.70 C 343.01 518.31 342.95 516.92 342.90 515.54 C 341.61 513.24 340.43 510.90 339.21 508.57 C 338.64 507.22 338.05 505.88 337.49 504.55 C 336.29 505.33 335.30 506.36 334.64 507.64 C 332.34 510.32 329.73 512.73 327.28 515.27 C 323.83 519.00 318.75 521.18 316.48 525.97 C 314.98 525.98 313.49 525.99 312.00 526.01 C 311.99 524.47 311.99 522.93 311.99 521.40 C 314.94 516.59 319.99 513.53 322.69 508.53 C 324.58 505.50 326.84 502.68 328.23 499.37 C 329.05 498.00 329.93 496.68 330.88 495.40 C 330.93 494.91 331.04 493.94 331.09 493.45 C 331.69 492.47 332.30 491.50 332.91 490.54 C 332.96 490.03 333.07 489.02 333.12 488.51 C 333.42 487.96 334.00 486.86 334.29 486.31 C 334.85 485.99 335.98 485.37 336.54 485.05 M 349.49 526.00 C 348.55 526.88 347.62 527.77 346.69 528.66 C 347.93 529.25 349.19 529.84 350.47 530.40 C 351.13 530.62 352.45 531.05 353.11 531.27 C 352.96 533.10 353.18 535.09 352.06 536.70 C 351.17 539.45 353.38 540.80 355.42 542.01 C 358.11 541.99 360.80 541.99 363.49 541.95 C 364.45 541.36 365.42 540.78 366.41 540.22 C 367.82 539.95 369.24 539.69 370.62 539.28 C 371.33 539.15 372.75 538.91 373.46 538.79 C 371.53 537.32 369.52 535.96 367.44 534.72 C 365.11 533.37 362.85 531.88 360.39 530.77 C 357.99 529.36 355.83 527.61 353.57 526.00 C 352.20 525.99 350.84 525.99 349.49 526.00 M 337.51 532.09 C 336.54 532.63 335.57 533.17 334.59 533.71 C 332.43 534.30 330.40 535.24 328.40 536.21 C 327.43 536.78 326.47 537.36 325.51 537.95 C 324.12 537.96 322.74 537.98 321.37 538.00 C 320.95 538.50 320.12 539.51 319.70 540.01 C 322.67 540.14 325.91 539.39 328.67 540.85 C 331.30 541.01 333.94 541.01 336.58 541.01 C 337.70 540.23 338.86 539.49 339.90 538.60 C 340.12 536.39 340.00 534.17 340.01 531.96 C 339.38 532.00 338.14 532.06 337.51 532.09 Z" />
<path fill="#010101" opacity="1.00" d=" M 545.35 486.76 C 545.87 486.58 546.92 486.24 547.45 486.07 C 549.81 488.35 552.25 490.55 554.94 492.46 C 555.12 494.01 555.49 496.09 553.59 496.73 C 551.86 497.06 550.11 497.25 548.40 497.63 C 547.95 497.81 547.06 498.18 546.62 498.37 C 544.96 498.77 543.29 499.06 541.62 499.31 C 540.26 499.63 538.93 500.01 537.61 500.43 C 535.92 500.83 534.20 501.01 532.48 501.18 C 531.98 501.47 530.97 502.05 530.46 502.35 C 529.85 502.58 528.62 503.05 528.00 503.28 C 528.10 508.72 527.80 514.17 528.10 519.61 C 528.89 520.67 530.27 520.93 531.40 521.52 C 533.13 522.01 535.00 522.22 536.63 521.25 C 537.12 521.17 538.10 521.01 538.59 520.93 C 540.88 518.62 543.18 516.32 545.44 513.99 C 546.44 514.00 547.44 514.02 548.45 514.04 C 550.96 516.32 553.73 518.27 556.31 520.46 C 556.27 523.19 552.79 526.14 550.34 524.13 C 546.44 523.90 542.54 524.12 538.66 523.85 C 537.44 523.16 536.06 523.09 534.72 523.00 C 532.75 524.43 530.25 523.92 528.00 524.07 C 528.00 532.05 528.00 540.04 528.00 548.02 C 530.54 548.00 533.17 548.25 535.60 547.33 C 536.06 547.19 536.98 546.90 537.44 546.75 C 538.44 546.37 539.45 546.01 540.46 545.66 C 541.46 545.32 542.46 545.00 543.48 544.70 C 544.46 544.33 545.45 543.97 546.45 543.64 C 547.76 543.27 549.07 542.95 550.39 542.62 C 552.23 542.05 554.15 541.95 556.06 541.87 C 556.01 542.51 555.93 543.81 555.88 544.46 C 555.58 545.09 554.97 546.34 554.66 546.97 C 553.60 547.00 552.55 547.03 551.51 547.08 C 550.54 547.63 549.57 548.19 548.60 548.74 C 545.43 550.11 542.52 551.95 539.59 553.74 C 537.45 554.75 535.44 555.99 533.44 557.23 C 531.07 558.60 528.77 560.09 526.51 561.64 C 525.47 562.37 524.44 563.14 523.43 563.93 C 522.38 563.97 521.33 564.02 520.29 564.08 C 519.15 562.61 518.06 561.11 517.00 559.59 C 516.98 550.40 517.04 541.21 516.96 532.03 C 516.97 530.09 516.83 528.06 517.84 526.33 C 518.10 518.11 518.09 509.88 517.85 501.66 C 516.62 499.74 516.69 497.29 517.80 495.34 C 517.85 494.73 517.95 493.50 518.00 492.89 C 518.86 493.33 519.73 493.78 520.61 494.22 C 522.55 495.38 524.38 496.73 526.41 497.75 C 529.98 496.35 532.93 493.79 536.44 492.27 C 539.24 491.23 541.47 489.25 543.44 487.08 C 543.92 487.00 544.87 486.84 545.35 486.76 Z" />
<path fill="#010101" opacity="1.00" d=" M 749.43 487.13 C 752.15 486.81 755.06 486.64 757.64 487.75 C 758.55 487.88 759.47 488.02 760.40 488.16 C 761.58 488.94 762.76 489.73 763.95 490.52 C 763.97 491.03 764.00 492.06 764.02 492.57 C 762.67 493.85 761.33 495.14 760.00 496.43 C 760.01 499.40 760.05 502.37 759.84 505.34 C 759.19 506.59 759.08 508.00 758.93 509.38 C 759.30 510.03 760.04 511.35 760.41 512.01 C 762.81 512.06 765.25 512.11 767.59 511.42 C 769.85 512.30 772.42 512.30 774.63 511.24 C 775.12 511.17 776.10 511.02 776.60 510.94 C 777.53 509.95 778.48 508.96 779.43 507.98 C 779.95 508.00 780.99 508.04 781.51 508.06 C 783.28 509.20 785.05 510.36 786.90 511.38 C 787.52 513.01 787.97 514.69 788.12 516.44 C 787.44 517.42 786.78 518.40 786.14 519.41 C 786.01 521.15 785.89 522.93 785.35 524.62 C 785.18 525.06 784.82 525.95 784.64 526.39 C 783.66 529.20 784.01 532.20 784.00 535.12 C 785.88 535.01 787.83 535.01 789.62 534.29 C 790.08 534.19 791.01 533.97 791.47 533.87 C 792.83 532.81 794.23 531.79 795.64 530.77 C 799.67 533.41 803.91 535.88 807.11 539.56 C 804.92 542.37 802.64 545.15 801.25 548.46 C 800.91 549.51 800.57 550.56 800.21 551.60 C 800.05 553.62 800.00 555.70 799.30 557.63 C 799.19 558.09 798.98 559.02 798.87 559.48 C 795.69 564.19 791.79 568.62 786.48 570.95 C 784.09 570.98 781.71 571.00 779.33 571.05 C 776.90 568.71 775.56 565.30 772.49 563.69 C 771.21 563.01 769.96 562.31 768.74 561.59 C 770.00 559.99 771.01 557.65 773.42 557.84 C 774.41 558.54 775.41 559.23 776.42 559.92 C 776.92 559.99 777.92 560.14 778.43 560.21 C 779.37 560.55 780.33 560.87 781.32 561.17 C 782.63 559.84 784.04 558.60 785.58 557.54 C 786.29 556.51 787.01 555.50 787.75 554.49 C 788.04 553.48 788.34 552.47 788.66 551.47 C 788.98 550.45 789.32 549.45 789.67 548.45 C 789.99 547.05 790.33 545.67 790.83 544.33 C 790.97 542.22 791.00 540.11 791.03 538.00 C 780.68 538.00 770.34 538.00 759.99 538.00 C 759.68 542.20 760.86 546.69 759.16 550.67 C 758.90 557.88 758.89 565.11 759.16 572.33 C 759.73 573.64 759.95 575.07 760.20 576.49 C 759.30 577.30 758.42 578.11 757.55 578.94 C 756.58 579.01 755.61 579.09 754.66 579.19 C 753.32 580.14 751.68 580.12 750.35 579.21 C 749.71 579.13 748.43 578.98 747.79 578.90 C 748.00 577.34 748.14 575.76 748.84 574.33 C 749.12 562.70 749.06 551.04 748.89 539.41 C 748.57 539.08 747.91 538.43 747.59 538.11 C 736.56 537.77 725.51 538.22 714.48 537.90 C 715.35 536.55 716.28 535.23 717.23 533.93 C 724.13 534.06 731.04 533.98 737.94 533.96 C 739.55 533.94 741.22 534.02 742.67 534.84 C 744.77 534.97 746.88 535.00 749.00 535.03 C 748.93 528.57 749.15 522.12 748.86 515.67 C 748.02 514.59 747.98 513.48 748.74 512.36 C 748.90 511.44 749.07 510.53 749.26 509.63 C 750.01 508.50 749.97 507.40 749.13 506.35 C 748.81 501.12 749.18 495.89 748.86 490.67 C 747.86 489.26 747.60 487.86 749.43 487.13 M 761.33 515.11 C 760.28 515.92 760.02 517.26 759.46 518.39 C 758.44 520.49 760.56 522.71 759.12 524.68 C 759.06 526.22 759.06 527.77 759.14 529.32 C 759.65 530.65 759.97 532.06 760.31 533.46 C 760.57 534.16 761.11 535.54 761.37 536.24 C 762.44 535.94 763.51 535.62 764.57 535.28 C 765.03 535.12 765.94 534.80 766.39 534.64 C 768.10 534.22 769.86 534.05 771.60 533.74 C 772.58 532.84 773.21 531.65 773.98 530.60 C 774.02 528.16 773.61 525.56 774.84 523.33 C 774.95 521.37 774.99 519.41 775.02 517.46 C 774.19 516.64 773.36 515.82 772.55 515.00 C 768.81 515.06 765.06 514.81 761.33 515.11 Z" />
<path fill="#010101" opacity="1.00" d=" M 930.56 492.41 C 930.95 489.74 933.14 487.81 935.65 489.77 C 936.58 489.89 937.53 490.02 938.49 490.15 C 939.04 490.43 940.14 491.00 940.69 491.29 C 941.01 491.85 941.63 492.97 941.94 493.53 C 941.93 494.51 941.94 495.49 941.95 496.48 C 940.44 499.22 938.81 501.89 937.05 504.48 C 937.04 505.11 937.00 506.37 936.98 507.00 C 939.19 506.99 941.39 506.99 943.61 507.00 C 944.06 506.50 944.94 505.50 945.38 504.99 C 947.44 504.99 949.51 505.00 951.59 504.99 C 953.28 506.02 954.93 507.22 955.60 509.19 C 957.59 508.43 959.47 507.34 960.47 505.36 C 960.96 505.01 961.95 504.31 962.44 503.96 C 963.84 504.92 965.24 505.89 966.60 506.94 C 970.43 507.03 974.26 506.99 978.10 507.01 C 977.23 504.64 976.92 502.14 976.72 499.65 C 976.23 498.24 976.02 496.77 975.83 495.31 C 975.30 494.86 974.25 493.94 973.73 493.49 C 973.67 490.15 976.75 489.48 979.46 490.00 C 979.99 490.31 981.05 490.93 981.58 491.24 C 985.36 492.97 988.51 495.67 990.08 499.61 C 989.87 500.92 989.68 502.24 989.49 503.56 C 988.97 504.73 988.44 505.89 987.92 507.06 C 990.73 507.01 993.55 506.99 996.38 506.93 C 998.22 505.46 1000.27 504.27 1002.32 503.11 C 1006.58 503.96 1008.36 508.37 1012.05 510.31 C 1012.02 511.43 1012.00 512.56 1011.99 513.69 C 1011.36 513.97 1010.10 514.52 1009.47 514.80 C 1009.01 514.93 1008.08 515.20 1007.62 515.33 C 1006.22 515.67 1004.81 515.95 1003.42 516.24 C 1002.44 516.78 1001.47 517.33 1000.52 517.90 C 999.77 517.97 998.26 518.11 997.51 518.18 C 998.90 520.62 1000.93 522.56 1003.00 524.43 C 1002.99 525.60 1002.99 526.78 1003.00 527.97 C 1002.52 527.99 1001.56 528.02 1001.08 528.03 C 1001.00 528.61 1000.86 529.78 1000.79 530.36 C 1000.02 531.44 1000.01 532.53 1000.75 533.62 C 1000.90 534.53 1001.07 535.44 1001.26 536.35 C 1001.81 537.40 1001.90 538.49 1001.54 539.62 C 1000.86 542.74 997.63 543.62 995.26 545.13 C 992.25 543.56 989.41 541.71 986.48 540.04 C 982.10 539.98 977.73 540.00 973.36 540.00 C 973.04 540.64 972.40 541.93 972.08 542.57 C 972.01 544.90 971.84 547.25 972.10 549.58 C 973.12 551.65 975.47 550.86 977.32 550.90 C 982.10 548.94 987.54 550.46 992.59 550.00 C 993.93 549.03 995.27 548.05 996.59 547.03 C 997.52 547.04 998.48 547.05 999.45 547.08 C 1000.79 547.83 1002.16 548.57 1003.54 549.32 C 1004.70 550.88 1005.93 552.40 1007.07 554.00 C 1006.50 554.85 1005.91 555.69 1005.32 556.53 C 1004.92 557.56 1004.52 558.59 1004.10 559.61 C 1003.99 562.18 1003.95 564.75 1004.13 567.33 C 1005.15 568.64 1005.16 570.34 1004.15 571.67 C 1004.04 573.32 1003.99 574.98 1003.96 576.65 C 1003.32 576.97 1002.05 577.60 1001.41 577.91 C 999.06 577.74 996.66 577.82 994.44 576.91 C 993.62 575.53 992.69 574.23 991.76 572.94 C 985.98 573.06 980.19 572.98 974.41 573.00 C 973.67 573.78 972.94 574.58 972.23 575.39 C 972.10 577.15 971.22 579.51 969.01 579.04 C 966.70 578.80 963.58 579.96 962.11 577.60 C 962.18 572.88 961.13 567.82 962.86 563.33 C 963.00 561.11 962.99 558.88 962.87 556.67 C 961.70 555.06 961.72 552.95 962.86 551.33 C 963.08 542.03 963.09 532.71 962.89 523.41 C 961.16 520.84 957.62 522.38 955.04 521.99 C 955.01 521.38 954.93 520.14 954.90 519.53 C 954.17 517.73 953.58 515.75 951.82 514.70 C 949.62 516.27 947.39 517.77 945.10 519.19 C 943.30 515.92 944.87 512.36 943.96 508.97 C 941.77 509.00 939.60 509.01 937.44 509.01 C 934.71 510.36 932.71 512.67 931.74 515.56 C 930.40 518.81 928.08 521.45 926.18 524.37 C 925.17 526.67 924.28 529.12 922.59 531.03 C 920.09 531.40 919.76 528.33 919.94 526.52 C 920.59 525.54 921.24 524.55 921.89 523.57 C 921.99 523.08 922.19 522.10 922.28 521.61 C 922.66 520.24 922.95 518.84 923.26 517.46 C 924.08 515.79 924.93 514.13 925.84 512.50 C 925.94 512.01 926.15 511.05 926.25 510.57 C 926.78 508.87 927.17 507.14 927.67 505.43 C 928.01 504.08 928.34 502.72 928.67 501.38 C 928.93 499.70 929.22 498.04 929.63 496.41 C 929.94 495.07 930.23 493.74 930.56 492.41 M 985.35 510.85 C 978.90 511.18 972.44 510.92 966.00 511.00 C 965.99 512.85 965.99 514.71 966.00 516.57 C 967.48 518.99 969.26 521.37 971.98 522.50 C 972.12 527.19 971.78 531.89 972.11 536.58 C 972.43 536.91 973.08 537.56 973.40 537.89 C 979.26 538.20 985.15 537.89 991.02 538.00 C 991.04 535.51 991.16 532.98 990.47 530.57 C 991.17 529.00 990.27 527.48 989.85 525.99 C 987.02 526.00 984.19 526.00 981.37 526.02 C 980.95 525.51 980.10 524.50 979.67 524.00 C 982.59 524.00 985.51 524.01 988.44 523.96 C 989.70 522.77 991.02 521.64 992.48 520.69 C 993.66 520.09 994.97 519.61 995.91 518.61 C 996.12 516.10 996.00 513.59 996.01 511.08 C 992.53 510.52 988.68 509.02 985.35 510.85 M 974.54 551.81 C 973.69 552.70 972.84 553.59 972.00 554.47 C 971.99 558.46 971.96 562.44 972.08 566.43 C 972.40 567.07 973.04 568.36 973.36 569.00 C 979.83 569.00 986.31 569.00 992.79 569.00 C 992.99 567.40 993.09 565.76 993.89 564.33 C 994.04 562.33 994.07 560.29 993.36 558.39 C 993.52 555.74 991.71 554.15 989.59 552.99 C 985.94 553.01 982.29 553.09 978.66 552.84 C 977.34 552.25 975.92 552.05 974.54 551.81 Z" />
<path fill="#010101" opacity="1.00" d=" M 771.56 493.08 C 774.58 493.10 777.84 492.40 780.67 493.83 C 782.95 493.99 785.23 494.01 787.53 494.05 C 788.50 494.67 789.47 495.29 790.46 495.92 C 790.97 495.97 791.98 496.06 792.49 496.11 C 796.57 497.45 798.96 500.89 800.95 504.47 C 800.97 505.52 801.00 506.57 801.04 507.63 C 799.17 509.53 797.07 511.20 794.59 512.24 C 789.66 508.80 786.02 503.79 780.54 501.07 C 780.02 501.04 778.97 500.96 778.45 500.92 C 777.47 500.30 776.50 499.69 775.54 499.08 C 775.03 499.04 774.02 498.96 773.52 498.93 C 771.73 497.62 769.91 496.33 768.53 494.59 C 769.29 494.21 770.80 493.46 771.56 493.08 Z" />
<path fill="#010101" opacity="1.00" d=" M 559.31 495.09 C 563.05 493.30 566.61 497.07 569.62 498.94 C 573.60 499.04 577.60 498.98 581.59 499.01 C 583.35 497.82 585.00 496.49 586.54 495.03 C 588.19 495.00 589.86 494.99 591.53 495.00 C 593.07 496.71 594.77 498.30 596.78 499.47 C 597.21 500.44 597.66 501.42 598.11 502.42 C 597.40 503.42 596.71 504.43 596.02 505.45 C 595.90 518.30 596.15 531.14 595.92 543.98 C 595.96 546.55 594.14 549.43 596.02 551.71 C 595.90 553.04 595.76 554.39 595.25 555.65 C 595.16 556.24 594.98 557.41 594.89 558.00 C 594.43 558.00 593.49 558.01 593.03 558.02 C 593.01 558.40 592.97 559.18 592.95 559.57 C 590.50 560.47 588.08 564.08 585.36 562.23 C 584.87 562.16 583.88 562.02 583.38 561.95 C 581.05 560.80 579.48 558.79 578.70 556.34 C 576.35 554.68 572.47 553.66 572.75 550.11 C 573.40 550.03 574.70 549.87 575.35 549.78 C 576.67 548.86 578.30 548.88 579.64 549.76 C 580.11 549.83 581.05 549.99 581.52 550.06 C 582.34 549.21 583.16 548.37 584.00 547.53 C 583.99 533.66 584.00 519.79 584.00 505.92 C 584.12 504.70 583.66 503.76 582.60 503.10 C 578.92 502.58 575.02 503.74 571.49 502.30 C 570.65 502.63 569.82 502.96 568.99 503.30 C 569.03 520.53 568.95 537.75 569.04 554.98 C 569.02 556.61 569.08 558.36 567.99 559.73 C 568.11 561.02 568.31 562.31 568.57 563.60 C 567.99 564.65 568.09 565.67 568.86 566.65 C 569.06 570.00 569.00 573.36 569.04 576.72 C 567.58 577.85 566.09 578.95 564.58 580.02 C 563.22 579.99 561.87 579.96 560.53 579.94 C 559.97 579.62 558.86 579.00 558.30 578.69 C 558.04 578.21 557.54 577.24 557.28 576.76 C 558.97 569.89 557.40 562.66 558.15 555.66 C 559.30 553.63 558.98 551.26 559.03 549.04 C 558.88 540.92 559.18 532.79 558.87 524.67 C 557.96 523.54 557.96 522.43 558.87 521.34 C 559.07 515.12 559.11 508.89 558.85 502.67 C 557.90 501.12 558.02 499.30 557.99 497.57 C 558.32 496.95 558.98 495.71 559.31 495.09 Z" />
<path fill="#010101" opacity="1.00" d=" M 721.38 511.10 C 728.90 510.81 736.44 511.10 743.98 511.00 C 743.99 511.50 744.02 512.50 744.03 513.00 C 744.78 513.00 746.26 513.00 747.00 513.00 C 747.00 513.50 747.00 514.50 747.00 515.00 C 737.91 514.99 728.82 515.02 719.74 514.99 C 719.95 513.56 720.00 511.95 721.38 511.10 Z" />
<path fill="#010101" opacity="1.00" d=" M 176.42 515.00 C 177.80 514.99 179.19 514.99 180.57 514.99 C 183.82 516.33 184.90 520.06 187.99 521.53 C 187.97 522.51 187.95 523.49 187.94 524.48 C 186.96 526.15 186.03 527.85 185.06 529.53 C 184.95 541.34 185.00 553.16 185.04 564.97 C 185.05 566.56 184.93 568.19 184.21 569.65 C 184.11 570.62 184.02 571.61 183.94 572.60 C 182.58 575.42 179.98 577.16 177.47 578.87 C 177.01 578.97 176.09 579.17 175.63 579.26 C 173.00 581.04 170.66 577.70 168.43 576.63 C 166.64 573.38 163.52 571.29 160.56 569.21 C 163.22 568.48 165.89 567.84 168.60 567.35 C 171.25 567.54 172.86 565.71 174.01 563.58 C 173.93 550.24 174.10 536.90 173.92 523.56 C 173.61 522.94 172.97 521.69 172.66 521.06 C 172.12 521.00 171.06 520.87 170.52 520.81 C 171.75 518.21 174.02 516.44 176.42 515.00 Z" />
<path fill="#010101" opacity="1.00" d=" M 933.00 523.42 C 933.77 522.65 934.57 521.89 935.38 521.14 C 936.94 522.09 938.80 521.99 940.57 522.11 C 941.46 522.92 942.36 523.74 943.27 524.56 C 942.89 525.58 942.50 526.60 942.12 527.63 C 941.93 531.53 942.09 535.44 941.86 539.34 C 940.71 541.15 941.01 543.31 941.08 545.34 C 942.03 546.43 942.05 547.53 941.14 548.66 C 940.98 551.96 940.80 555.30 941.10 558.61 C 941.81 559.72 943.14 559.96 944.35 560.21 C 946.67 557.16 950.35 555.90 953.56 554.07 C 954.86 554.05 956.17 554.04 957.50 554.06 C 951.73 563.40 942.78 570.08 935.44 578.09 C 933.92 576.98 932.42 575.86 930.97 574.71 C 930.98 571.59 930.72 568.42 931.56 565.38 C 931.98 564.03 932.38 562.67 932.84 561.34 C 933.21 548.70 932.90 536.06 933.00 523.42 Z" />
</g>
</svg>
