<?xml version="1.0" encoding="UTF-8" ?>
<!DOCTYPE svg PUBLIC "-//W3C//DTD SVG 1.1//EN" "http://www.w3.org/Graphics/SVG/1.1/DTD/svg11.dtd">
<svg width="1101pt" height="446pt" viewBox="0 0 1101 446" version="1.1" xmlns="http://www.w3.org/2000/svg">
<g id="#030303ff">
<path fill="#030303" opacity="1.00" d=" M 720.17 25.36 C 722.22 22.53 725.03 20.32 728.12 18.73 C 730.97 18.08 733.95 18.09 736.84 18.50 C 738.76 18.41 739.20 20.70 739.93 22.04 C 740.85 25.23 742.50 28.92 740.08 31.88 C 743.88 37.59 742.15 44.61 742.54 51.01 C 742.84 56.99 740.63 62.86 741.71 68.82 C 742.50 71.86 746.49 71.49 748.46 73.49 C 751.04 74.92 751.74 77.79 751.75 80.53 C 748.19 84.48 745.42 89.04 741.80 92.93 C 739.90 96.87 737.12 100.57 736.71 105.06 C 733.50 110.44 735.45 117.08 735.02 123.03 C 741.70 123.80 748.53 125.04 754.32 128.67 C 755.14 130.29 755.56 132.09 756.12 133.82 C 755.51 135.33 754.92 136.85 754.32 138.37 C 753.22 138.61 752.14 138.84 751.07 139.08 C 750.05 140.44 749.04 141.80 748.07 143.18 C 745.10 144.25 742.21 145.52 739.16 146.30 C 737.86 147.00 736.58 147.71 735.30 148.42 C 734.83 149.91 733.92 151.37 734.10 152.99 C 734.78 158.99 735.85 165.19 734.28 171.15 C 734.02 175.38 732.92 179.58 733.12 183.82 C 734.08 188.20 734.95 193.09 732.23 197.06 C 732.83 199.03 732.92 201.08 732.66 203.12 C 735.15 208.63 732.43 214.40 732.07 220.01 C 733.72 230.27 734.70 240.61 735.25 250.98 C 736.80 258.25 735.98 265.76 734.52 272.97 C 731.31 277.69 725.42 279.26 720.19 280.55 C 716.89 280.41 715.86 276.81 714.14 274.62 C 712.87 273.09 712.47 271.13 712.24 269.21 C 711.93 268.64 711.30 267.49 710.99 266.92 C 713.60 262.03 711.34 256.53 712.81 251.41 C 712.68 251.05 712.43 250.34 712.30 249.99 C 715.44 242.87 718.92 235.66 719.05 227.71 C 719.83 223.11 721.85 218.70 721.59 213.98 C 721.58 210.76 721.15 207.58 720.73 204.40 C 722.13 201.43 723.09 198.16 721.59 195.01 C 722.26 192.74 722.60 190.39 722.53 188.03 C 722.37 181.36 722.97 174.62 721.65 168.03 C 721.75 162.77 719.91 157.79 718.12 152.93 C 713.15 153.15 709.74 158.77 704.53 159.37 C 701.53 160.80 698.39 161.95 695.51 163.62 C 694.04 165.90 693.33 168.56 692.52 171.12 C 694.36 175.36 693.80 180.04 692.30 184.29 C 690.78 188.21 691.78 192.53 690.28 196.44 C 687.74 203.37 687.13 210.82 684.78 217.80 C 684.56 220.39 683.97 222.92 683.15 225.38 C 682.02 228.64 682.89 232.16 682.26 235.49 C 680.98 238.56 679.58 241.57 678.13 244.55 C 678.08 245.04 677.98 246.03 677.93 246.52 C 675.80 248.62 673.94 250.96 671.96 253.18 C 668.70 249.74 667.59 245.09 665.80 240.86 C 664.41 238.34 665.89 235.58 666.26 233.00 C 668.58 225.40 665.22 217.17 668.40 209.72 C 667.48 198.36 671.04 187.01 669.93 175.57 C 664.41 177.58 658.51 179.88 652.64 177.71 C 652.51 176.96 652.26 175.45 652.14 174.70 C 650.83 174.66 649.54 174.63 648.25 174.61 C 647.06 179.09 645.26 183.44 644.84 188.10 C 644.81 189.46 643.75 190.44 643.14 191.57 C 643.23 191.84 643.43 192.38 643.53 192.65 C 640.75 197.67 639.93 203.45 637.29 208.51 C 637.16 212.27 635.37 215.60 633.46 218.74 C 632.89 218.88 631.75 219.17 631.18 219.31 C 630.50 223.95 627.59 227.83 626.82 232.44 C 627.76 235.97 626.69 239.63 625.92 243.08 C 623.71 246.22 620.55 248.88 620.16 252.98 C 618.61 252.80 617.06 252.61 615.53 252.46 C 616.11 253.84 616.74 255.21 617.41 256.56 C 617.28 256.88 617.02 257.53 616.89 257.85 C 617.52 258.27 618.78 259.12 619.40 259.55 C 617.14 263.48 615.17 267.70 612.07 271.05 C 609.72 271.61 607.23 271.83 605.26 273.40 C 604.31 273.46 603.37 273.52 602.43 273.59 C 599.31 271.64 596.51 269.22 594.59 266.04 C 594.50 263.80 594.48 261.53 593.79 259.38 C 592.11 254.06 591.72 248.28 593.02 242.83 C 593.85 239.29 592.92 235.49 594.36 232.08 C 594.46 229.69 594.42 227.30 594.48 224.92 C 594.18 221.87 596.64 219.63 597.76 217.02 C 599.92 216.96 602.07 217.02 604.23 217.09 C 604.40 219.21 603.99 221.29 603.35 223.31 C 603.32 229.69 602.96 236.16 601.38 242.37 C 601.82 242.81 602.70 243.68 603.15 244.11 C 604.06 243.86 604.99 243.61 605.92 243.36 C 609.97 237.40 613.27 230.99 616.32 224.47 C 619.20 221.20 619.88 216.75 622.22 213.18 C 624.11 210.43 624.41 206.81 627.11 204.61 C 627.77 200.24 631.48 197.14 631.89 192.67 C 631.49 192.40 630.67 191.85 630.27 191.57 C 631.17 190.64 632.07 189.70 632.98 188.75 C 633.01 188.14 633.08 186.91 633.12 186.30 C 635.82 182.23 636.20 177.24 637.83 172.73 C 639.50 168.06 640.53 163.21 641.44 158.34 C 642.56 156.30 643.50 154.16 644.23 151.95 C 645.99 145.27 649.28 139.07 650.47 132.23 C 650.91 133.02 651.36 133.81 651.82 134.60 C 651.45 137.90 649.96 140.88 648.99 144.00 C 649.30 146.63 652.58 148.10 652.41 150.95 C 652.85 153.18 651.74 156.25 654.01 157.73 C 657.86 156.22 660.30 152.74 662.87 149.71 C 663.37 149.55 664.35 149.25 664.85 149.09 C 665.30 148.34 665.77 147.60 666.25 146.86 C 670.99 143.72 674.55 139.29 677.85 134.74 C 678.15 131.91 678.82 129.11 678.81 126.25 C 680.29 120.30 681.48 113.78 679.28 107.86 C 677.64 105.82 675.48 104.29 673.54 102.56 C 672.70 100.77 671.45 99.27 669.84 98.13 C 667.89 96.78 667.64 94.28 666.92 92.22 C 669.12 90.71 671.41 89.13 674.10 88.67 C 677.73 88.21 680.74 85.98 684.14 84.81 C 685.95 78.15 688.33 70.53 684.51 64.11 C 686.36 59.19 684.60 53.74 686.67 48.86 C 687.18 48.64 688.19 48.20 688.70 47.98 C 690.54 43.14 696.17 42.37 700.65 41.65 C 702.71 43.85 705.02 45.79 707.47 47.54 C 708.89 48.47 710.19 50.14 709.67 51.95 C 708.87 55.77 708.93 59.68 709.00 63.57 C 708.03 64.83 707.08 66.11 706.10 67.37 C 706.03 68.07 705.88 69.49 705.80 70.20 C 704.89 72.95 704.66 75.92 705.27 78.76 C 706.60 79.31 708.00 79.67 709.39 80.09 C 713.38 78.93 717.21 76.62 718.51 72.42 C 718.21 70.79 718.19 69.14 718.55 67.52 C 719.91 60.07 718.92 52.42 720.37 44.99 C 720.79 41.92 720.28 38.84 719.76 35.82 C 720.88 32.43 720.52 28.84 720.17 25.36 M 707.18 96.34 C 706.72 98.27 707.80 100.09 708.26 101.91 C 709.46 101.95 710.67 101.99 711.89 102.03 C 712.09 99.45 712.34 96.88 712.48 94.30 C 710.66 94.84 708.69 95.12 707.18 96.34 M 697.95 111.86 C 696.34 113.24 696.07 115.53 695.39 117.42 C 697.88 117.13 699.81 115.65 701.18 113.62 C 700.12 112.98 699.05 112.40 697.95 111.86 M 721.19 112.10 C 719.23 113.60 718.78 116.13 720.98 117.72 C 722.76 117.43 724.73 116.07 724.51 114.03 C 725.13 112.06 722.38 110.41 721.19 112.10 M 705.52 127.11 C 704.36 129.81 702.72 132.28 701.74 135.05 C 701.03 137.61 701.69 140.27 702.25 142.79 C 704.89 141.20 707.99 141.63 710.90 141.13 C 713.54 139.63 715.70 137.34 717.77 135.14 C 716.04 131.29 711.95 129.13 709.53 125.70 C 708.17 126.14 706.84 126.61 705.52 127.11 M 694.32 142.16 C 692.80 142.16 692.47 144.89 694.08 145.04 C 695.56 144.99 695.93 142.31 694.32 142.16 M 685.80 170.00 C 684.42 174.45 683.06 178.90 682.01 183.44 C 681.37 186.07 679.18 189.38 681.86 191.60 C 684.63 184.69 686.63 177.43 687.71 170.06 L 685.80 170.00 M 679.63 197.61 C 682.67 196.90 682.66 194.11 682.60 191.55 C 679.34 191.74 679.57 195.25 679.63 197.61 Z" />
<path fill="#030303" opacity="1.00" d=" M 173.80 27.87 C 174.97 26.89 175.98 25.13 177.75 25.51 C 182.78 25.84 189.36 26.60 190.88 32.39 C 196.22 37.56 197.02 46.12 193.42 52.48 C 195.71 55.06 199.00 54.93 201.93 53.61 C 204.30 55.77 207.53 55.90 210.43 56.85 C 213.53 58.70 216.44 61.13 218.49 64.12 C 219.55 67.09 219.89 70.47 222.49 72.62 C 223.14 78.75 222.06 85.11 218.05 89.97 C 215.84 95.96 211.14 100.34 207.41 105.37 C 202.62 109.75 196.18 111.93 192.03 117.11 C 193.56 118.80 196.07 118.24 198.09 118.67 C 202.77 119.07 205.90 122.91 209.74 125.13 C 209.56 125.44 209.22 126.06 209.04 126.36 C 209.83 127.41 210.62 128.46 211.37 129.54 C 211.69 130.02 212.34 130.96 212.66 131.43 C 212.23 132.10 211.81 132.78 211.38 133.46 C 210.77 135.33 209.60 136.92 208.08 138.16 C 205.07 140.71 203.01 144.38 199.39 146.17 C 193.91 148.99 187.72 149.59 181.77 150.81 C 178.48 151.73 175.04 151.57 171.66 151.47 C 168.82 152.87 166.16 154.62 163.94 156.90 C 164.46 157.43 165.51 158.51 166.04 159.04 C 165.37 159.64 164.71 160.24 164.05 160.83 C 162.01 160.81 159.48 160.25 158.04 162.14 C 154.28 166.66 151.83 172.05 149.74 177.50 C 151.20 177.64 152.65 177.77 154.11 177.87 C 155.48 175.93 157.16 174.26 159.35 173.28 C 161.20 169.93 165.57 170.54 168.02 167.94 C 172.12 164.02 177.73 162.53 182.44 159.54 C 190.36 156.40 199.34 156.07 207.59 158.16 C 208.80 159.24 210.02 160.31 211.24 161.38 C 210.83 162.61 210.41 163.83 209.97 165.05 C 210.69 166.01 211.40 166.98 212.12 167.95 C 212.43 173.52 209.53 178.61 209.69 184.17 C 209.70 190.67 206.51 196.52 203.74 202.20 C 202.35 205.09 199.25 206.84 198.32 209.98 C 200.69 212.66 204.64 212.58 207.84 213.59 C 208.41 214.41 208.99 215.22 209.56 216.05 C 209.11 219.41 210.52 222.42 212.20 225.21 C 212.35 227.54 212.13 229.89 212.38 232.23 C 210.58 234.83 209.41 237.77 208.66 240.83 C 207.10 242.14 205.53 243.57 203.51 244.09 C 196.67 245.96 190.37 249.81 183.18 250.30 C 178.55 250.66 173.73 251.68 169.30 249.79 C 167.01 246.61 164.35 243.25 164.46 239.11 C 164.38 233.40 164.75 227.09 168.46 222.45 C 170.75 219.47 171.92 215.86 172.31 212.15 C 173.59 211.46 174.87 210.79 176.16 210.13 C 178.97 207.62 181.55 204.86 183.78 201.83 C 183.71 198.78 185.78 196.65 187.75 194.63 C 189.19 189.73 192.38 183.83 188.38 179.31 C 185.62 179.48 182.68 179.45 180.33 181.14 C 175.81 184.24 170.79 186.49 165.84 188.80 C 162.34 190.43 160.97 194.42 160.10 197.89 C 158.98 198.47 157.82 198.97 156.63 199.39 C 155.94 202.74 156.02 206.60 153.13 208.97 C 154.30 211.33 155.58 213.81 155.09 216.54 C 154.62 216.85 153.67 217.47 153.20 217.78 C 152.82 220.39 152.24 222.96 151.81 225.57 C 149.12 227.28 147.18 229.82 145.25 232.31 C 143.62 234.52 140.03 233.49 138.79 231.40 C 136.21 226.74 134.20 221.53 134.43 216.12 C 134.54 213.03 133.59 210.06 133.46 207.00 C 133.21 203.64 135.75 200.85 135.67 197.51 C 135.62 195.37 136.35 193.33 137.23 191.41 C 139.77 187.77 139.95 183.13 142.35 179.43 C 143.53 177.79 143.24 175.73 143.14 173.85 C 146.09 169.93 148.45 165.62 150.31 161.09 C 151.93 159.49 153.57 157.89 155.14 156.24 C 148.19 156.25 141.54 158.49 134.82 159.94 C 133.12 158.70 131.88 156.98 130.44 155.49 C 130.44 152.37 130.33 149.19 131.24 146.16 C 131.45 143.82 131.67 141.48 132.15 139.18 C 132.51 137.89 132.35 136.36 133.10 135.22 C 136.52 131.80 141.52 130.87 145.26 127.88 C 145.98 128.24 146.72 128.61 147.45 128.99 C 150.42 126.80 154.06 125.36 156.40 122.41 C 157.52 121.43 156.83 119.89 156.49 118.73 C 154.74 113.76 150.80 110.02 148.63 105.27 C 147.62 103.18 145.81 101.40 145.73 98.96 C 143.27 95.20 140.16 91.93 137.48 88.33 C 138.51 85.03 138.97 81.16 141.87 78.88 C 145.97 75.52 149.47 71.53 153.43 68.01 C 153.96 67.99 155.03 67.93 155.57 67.90 C 158.69 63.41 164.56 66.05 168.73 63.54 C 169.75 62.20 170.41 60.61 171.39 59.24 C 172.49 57.85 174.31 58.89 175.72 59.02 C 176.87 56.75 178.54 54.65 179.02 52.11 C 178.34 49.90 176.16 48.46 174.79 46.64 C 172.09 45.63 168.71 45.56 166.85 43.08 C 164.57 40.68 163.86 37.38 162.94 34.32 C 164.90 32.25 166.56 29.79 168.92 28.14 C 170.54 27.95 172.17 27.94 173.80 27.87 M 194.17 65.95 C 190.94 68.86 188.46 72.64 187.36 76.87 C 186.45 80.01 186.67 83.44 185.13 86.39 C 182.41 91.83 181.80 98.02 179.00 103.44 C 179.54 103.55 180.61 103.77 181.15 103.88 C 184.79 101.19 188.63 98.80 192.39 96.27 C 195.90 94.02 197.05 89.74 199.70 86.71 C 203.75 82.30 205.32 76.34 206.93 70.73 C 205.37 64.95 198.75 66.00 194.17 65.95 M 162.03 80.99 C 160.67 82.69 158.83 83.85 156.91 84.82 C 155.84 86.53 154.59 88.13 153.06 89.46 C 153.04 90.80 153.04 92.15 153.04 93.49 C 154.56 95.51 155.86 97.67 157.21 99.79 C 159.42 100.39 161.65 100.93 163.93 101.24 C 165.50 95.54 168.93 90.66 170.97 85.15 C 172.35 81.83 173.10 78.28 172.99 74.68 C 168.81 75.60 164.80 77.67 162.03 80.99 Z" />
<path fill="#030303" opacity="1.00" d=" M 435.12 26.78 C 438.78 26.23 442.54 25.10 446.24 26.02 C 448.15 26.49 450.12 26.39 452.06 26.11 C 458.54 29.77 460.88 37.28 466.53 41.82 C 468.54 43.81 470.47 45.92 472.79 47.56 C 476.80 50.16 477.59 55.28 479.37 59.36 C 476.90 61.64 475.21 64.56 473.24 67.23 C 469.40 70.81 464.51 73.83 459.04 73.10 C 458.38 73.65 457.73 74.20 457.07 74.75 C 455.19 74.69 453.31 74.77 451.45 75.02 C 449.81 77.01 447.34 77.15 444.96 77.09 C 441.62 82.17 438.43 87.34 434.85 92.25 C 433.54 97.97 429.57 102.64 428.39 108.41 C 433.67 108.44 438.67 106.20 444.01 106.51 C 451.76 105.52 459.97 109.26 464.13 115.84 C 464.83 120.15 463.25 124.64 461.44 128.53 C 458.86 131.58 456.75 135.02 456.51 139.12 C 453.75 143.38 454.25 148.91 450.96 152.87 C 449.23 154.96 448.30 157.52 447.67 160.12 C 447.08 160.77 446.50 161.41 445.93 162.06 C 445.86 164.12 444.17 165.09 442.52 165.91 C 443.19 166.63 443.87 167.34 444.55 168.06 C 446.42 166.44 448.59 165.25 450.85 164.26 C 452.80 164.90 454.77 165.51 456.73 166.14 C 458.01 167.63 459.22 169.20 460.68 170.53 C 463.38 171.95 466.60 172.78 468.60 175.24 C 469.49 177.04 469.78 179.06 470.35 180.97 C 471.64 186.56 476.72 190.24 478.10 195.80 C 479.73 198.92 479.81 202.45 480.83 205.73 C 482.68 208.93 481.64 212.68 481.93 216.16 C 480.31 217.20 479.16 218.70 478.26 220.37 C 476.93 220.51 475.59 220.63 474.26 220.77 C 473.56 221.95 472.85 223.13 472.13 224.30 C 468.04 223.64 463.87 222.75 460.13 220.95 C 457.91 216.86 456.54 211.20 451.00 210.61 C 445.69 211.47 440.28 212.22 435.31 214.41 C 430.77 211.53 425.85 214.97 421.06 215.00 C 417.38 215.01 413.59 215.41 410.01 214.39 C 407.04 212.73 403.97 210.12 403.91 206.42 C 403.84 202.79 404.14 199.11 404.92 195.57 C 406.29 190.48 410.93 187.44 413.29 182.92 C 416.90 178.11 417.79 171.95 420.86 166.85 C 422.17 164.78 423.28 162.60 424.42 160.43 C 425.29 158.05 427.41 156.70 429.20 155.08 C 430.98 151.88 431.93 148.19 434.41 145.40 C 438.45 141.40 437.46 135.19 439.62 130.27 C 438.33 130.15 436.92 129.96 435.77 130.71 C 430.38 133.28 426.95 138.73 421.35 140.92 C 419.01 142.56 416.99 145.12 414.03 145.55 C 411.55 146.13 410.22 143.67 408.62 142.33 C 407.03 140.60 404.83 139.49 403.50 137.55 C 401.47 133.84 399.11 130.11 398.99 125.75 C 398.88 123.46 397.23 120.91 398.94 118.86 C 400.89 116.17 403.36 113.72 403.64 110.20 C 403.41 107.90 403.48 105.48 404.86 103.52 C 407.01 100.30 408.00 96.54 409.55 93.03 C 406.73 85.95 403.95 78.76 402.86 71.16 C 403.84 69.54 404.79 67.90 405.69 66.22 C 408.34 64.19 411.51 63.09 414.43 61.55 C 416.66 59.44 418.97 57.18 419.92 54.17 C 421.16 51.46 421.36 48.36 422.87 45.76 C 424.40 43.18 425.37 40.35 426.36 37.54 C 427.10 35.47 427.69 33.35 428.21 31.22 C 430.52 29.76 432.59 27.84 435.12 26.78 M 440.97 166.63 C 434.16 171.48 426.67 177.03 424.34 185.48 C 423.52 187.52 422.18 189.39 421.88 191.61 C 425.80 194.27 431.10 193.75 435.56 192.81 C 437.38 191.63 439.25 190.53 441.16 189.49 C 441.40 186.48 442.29 183.60 443.40 180.82 C 442.38 178.89 440.99 177.12 440.44 174.99 C 440.40 172.55 441.67 170.36 442.49 168.13 C 441.98 167.62 441.48 167.12 440.97 166.63 Z" />
<path fill="#030303" opacity="1.00" d=" M 97.77 33.91 C 100.89 31.61 105.23 31.78 108.62 33.51 C 111.31 34.90 115.51 34.69 116.68 38.00 C 117.17 43.43 122.03 47.46 121.15 53.17 C 121.71 53.27 122.83 53.48 123.39 53.59 C 123.75 54.06 124.48 55.00 124.84 55.47 C 128.12 54.86 131.43 54.38 134.78 54.66 C 135.64 55.63 136.49 56.61 137.36 57.59 C 138.91 57.04 140.55 56.33 142.22 56.93 C 150.64 58.90 159.03 55.68 167.51 56.50 C 167.52 56.98 167.54 57.95 167.55 58.43 C 158.07 59.64 148.49 58.74 138.97 58.64 C 134.17 57.30 129.11 57.99 124.31 56.82 C 122.26 56.70 120.59 55.67 119.49 53.95 C 118.29 54.52 117.10 55.11 115.92 55.71 C 113.33 54.66 110.80 53.46 108.11 52.67 C 105.70 52.22 104.71 49.76 103.63 47.87 C 101.92 44.46 99.91 41.19 97.39 38.31 C 97.48 36.84 97.40 35.34 97.77 33.91 Z" />
<path fill="#030303" opacity="1.00" d=" M 620.11 35.98 C 622.98 35.54 625.90 35.52 628.77 36.01 C 631.58 39.49 636.21 41.85 637.22 46.52 C 637.18 50.55 637.62 54.94 635.30 58.47 C 631.02 57.74 625.85 57.20 623.87 52.68 C 623.79 50.11 622.63 47.84 621.23 45.76 C 619.66 43.43 619.99 40.47 619.47 37.82 C 619.63 37.36 619.95 36.44 620.11 35.98 Z" />
<path fill="#030303" opacity="1.00" d=" M 348.09 56.63 C 354.53 55.49 359.72 59.78 364.61 63.22 C 365.82 66.22 369.19 67.43 370.65 70.14 C 371.53 74.92 373.19 80.76 369.69 84.89 C 365.52 88.43 359.24 84.48 355.22 88.26 C 353.02 89.95 349.65 89.59 347.97 92.00 C 344.62 96.02 340.47 99.37 335.97 102.02 C 334.96 102.81 333.71 102.19 332.61 102.12 C 333.98 100.27 335.36 98.42 336.68 96.53 C 341.67 88.23 351.69 82.38 352.39 71.93 C 350.88 68.03 348.76 64.40 346.44 60.93 C 347.00 59.50 347.55 58.07 348.09 56.63 Z" />
<path fill="#030303" opacity="1.00" d=" M 97.83 77.02 C 101.20 74.22 105.81 74.58 109.90 74.08 C 116.49 73.29 123.95 75.46 127.63 81.34 C 127.44 83.96 127.22 86.58 127.41 89.21 C 126.31 91.36 125.03 93.42 123.49 95.28 C 121.96 97.46 120.49 99.73 118.63 101.65 C 116.94 102.98 114.87 103.77 113.28 105.23 C 111.95 107.06 111.32 109.28 110.14 111.19 C 108.89 111.69 107.53 111.71 106.22 111.91 C 106.12 109.36 107.85 107.78 109.98 106.75 C 110.38 105.83 110.78 104.92 111.17 104.00 C 111.87 104.00 113.27 104.00 113.97 104.00 C 114.43 102.14 114.87 100.28 115.28 98.42 C 115.63 98.10 116.33 97.47 116.68 97.15 C 117.25 94.07 118.95 91.23 118.98 88.06 C 118.32 86.32 117.29 84.74 116.42 83.10 C 113.81 82.66 111.17 82.47 108.56 82.08 C 103.85 81.17 99.22 83.28 94.53 83.25 C 92.78 82.44 91.55 80.92 90.22 79.59 C 90.55 78.90 90.89 78.21 91.22 77.51 C 93.43 77.35 95.63 77.20 97.83 77.02 Z" />
<path fill="#030303" opacity="1.00" d=" M 81.59 80.47 C 82.45 80.96 83.33 81.45 84.20 81.94 C 83.66 83.23 83.13 84.52 82.61 85.82 C 78.87 87.43 75.83 90.16 74.15 93.91 C 72.30 94.13 70.22 93.63 68.52 94.46 C 66.23 96.64 64.18 99.09 61.64 101.00 C 61.13 101.02 60.13 101.07 59.62 101.09 C 54.78 104.01 49.54 106.88 46.08 111.44 C 43.77 112.58 41.07 113.22 39.35 115.27 C 36.85 117.59 34.92 121.45 31.07 121.51 C 28.75 121.34 26.45 120.71 24.31 119.80 C 21.31 115.47 17.79 109.67 20.78 104.45 C 22.10 102.34 24.78 102.64 26.91 102.81 C 31.13 101.18 35.41 99.70 39.37 97.50 C 41.99 94.38 46.49 95.71 49.56 93.46 C 52.87 91.14 56.80 90.00 60.40 88.23 C 65.32 86.56 70.33 85.11 75.17 83.19 C 77.34 82.36 79.47 81.43 81.59 80.47 Z" />
<path fill="#030303" opacity="1.00" d=" M 631.47 81.55 C 633.61 81.90 635.78 82.19 637.97 82.27 C 641.93 82.16 645.53 84.09 649.33 84.95 C 649.81 87.28 650.02 89.66 650.13 92.03 C 647.98 94.51 645.86 97.26 645.80 100.70 C 643.99 102.89 642.05 104.99 639.93 106.88 C 636.84 109.67 634.43 113.19 630.89 115.45 C 627.57 117.54 625.14 120.69 622.01 123.01 C 620.54 126.08 618.78 129.06 616.34 131.46 C 614.56 134.66 612.55 137.71 610.64 140.83 C 609.34 143.04 610.15 145.70 610.80 147.98 C 614.88 149.77 617.12 153.85 619.48 157.39 C 621.50 160.37 622.04 164.05 621.38 167.56 C 620.10 170.13 618.04 172.22 616.08 174.28 C 614.73 179.22 614.65 184.98 610.63 188.72 C 608.44 190.55 607.19 193.13 606.00 195.66 C 604.12 195.09 602.25 194.52 600.39 193.92 C 601.20 188.18 599.63 182.26 601.74 176.72 C 601.16 170.95 599.68 165.26 598.45 159.59 C 596.97 155.97 596.24 152.09 597.59 148.31 C 600.08 145.57 601.79 141.94 605.23 140.22 C 609.13 137.71 610.87 132.99 614.64 130.30 C 614.83 129.94 615.20 129.21 615.39 128.85 C 616.96 127.69 618.14 126.16 618.72 124.28 C 619.78 123.56 620.87 122.85 621.96 122.14 C 622.99 119.33 625.46 117.55 627.37 115.38 C 630.85 111.82 633.47 107.50 637.31 104.28 C 640.05 102.07 641.40 98.78 643.15 95.83 C 643.06 93.22 642.21 90.40 639.81 89.03 C 636.56 86.87 632.51 87.60 628.84 87.48 C 628.19 88.29 627.54 89.11 626.90 89.92 C 625.74 89.68 624.59 89.45 623.45 89.22 C 617.14 89.89 611.42 92.48 605.83 95.29 C 601.68 93.97 599.35 98.25 595.96 99.71 C 592.52 101.36 589.22 103.40 585.49 104.35 C 578.30 108.15 571.69 113.05 563.96 115.75 C 563.92 118.59 561.00 118.26 559.05 118.84 C 556.09 119.40 554.49 122.49 551.60 123.27 C 548.32 124.22 545.03 125.25 542.09 127.04 C 539.96 126.22 537.67 125.77 535.67 124.66 C 534.58 122.61 534.33 120.26 534.41 117.97 C 534.14 114.50 536.67 111.81 537.94 108.80 C 539.13 108.20 540.33 107.61 541.54 107.04 C 545.94 109.50 550.31 105.78 554.82 105.74 C 556.72 104.64 558.64 103.58 560.58 102.54 C 562.03 101.70 563.59 101.13 565.22 100.72 C 565.36 101.55 565.65 103.19 565.79 104.02 C 568.12 105.59 568.13 102.30 568.54 100.94 C 571.22 98.75 574.74 98.16 577.91 96.93 C 585.23 94.85 592.13 90.98 599.87 90.73 C 606.69 87.03 614.50 85.33 622.14 84.35 C 623.12 83.71 624.11 83.07 625.11 82.43 C 625.89 82.59 626.68 82.76 627.48 82.92 C 628.79 82.45 630.12 81.99 631.47 81.55 Z" />
<path fill="#030303" opacity="1.00" d=" M 960.29 103.16 C 962.28 101.71 964.51 99.85 967.11 100.00 C 972.13 101.97 977.49 104.73 979.65 110.02 C 981.93 115.81 985.98 120.83 986.95 127.12 C 985.04 127.10 983.13 127.05 981.24 127.02 C 980.76 127.99 980.28 128.95 979.82 129.92 C 977.43 130.72 974.94 131.20 972.48 130.43 C 967.54 132.70 966.37 138.12 965.03 142.82 C 962.36 148.01 960.56 153.57 958.62 159.06 C 957.27 162.88 957.59 167.00 956.64 170.89 C 954.82 174.33 953.89 178.14 952.11 181.60 C 952.05 182.55 952.01 183.51 951.98 184.46 C 953.33 185.68 954.58 187.01 956.02 188.14 C 958.69 189.91 962.18 189.57 964.92 191.20 C 966.64 192.20 968.40 193.13 970.17 194.09 C 972.58 195.39 974.34 197.82 977.12 198.44 C 988.41 201.15 998.79 206.51 1009.40 211.07 C 1009.71 210.91 1010.32 210.60 1010.63 210.44 C 1013.94 212.40 1017.24 214.67 1021.13 215.29 C 1025.96 216.14 1030.75 217.13 1035.53 218.26 C 1039.87 220.31 1044.73 220.94 1049.02 223.17 C 1054.04 224.98 1059.67 225.64 1063.98 229.07 C 1067.65 231.62 1071.61 233.74 1075.37 236.18 C 1076.42 238.08 1077.75 239.80 1079.13 241.48 C 1079.67 241.50 1080.75 241.55 1081.28 241.57 C 1081.11 243.01 1080.87 244.45 1080.56 245.87 C 1078.46 247.81 1075.98 249.28 1073.51 250.68 C 1072.05 249.91 1070.59 249.15 1069.14 248.39 C 1067.33 249.19 1065.55 250.28 1063.54 250.45 C 1061.87 249.69 1060.54 248.37 1058.91 247.57 C 1056.61 248.88 1054.99 251.69 1052.05 251.47 C 1048.68 251.54 1045.39 252.41 1042.04 252.40 C 1034.34 251.68 1026.58 252.38 1018.95 253.40 C 1014.44 252.91 1010.01 251.77 1005.60 250.73 C 1001.13 248.10 995.80 248.17 990.79 248.19 C 989.36 244.27 985.23 243.06 982.08 240.93 C 981.35 241.65 980.62 242.37 979.91 243.10 C 975.96 239.07 972.78 234.11 967.76 231.29 C 964.24 229.32 960.08 227.58 958.36 223.64 C 956.33 221.99 954.26 220.39 952.18 218.81 L 951.61 220.41 C 947.59 217.26 944.07 213.54 940.17 210.28 C 939.78 210.45 938.99 210.79 938.59 210.96 C 936.19 216.03 931.99 220.10 930.39 225.57 C 929.14 226.65 927.88 227.71 926.64 228.77 C 922.07 228.75 919.47 232.99 917.34 236.41 C 916.70 236.46 915.43 236.55 914.80 236.60 C 912.96 237.46 911.08 238.23 909.16 238.85 C 908.44 239.36 907.73 239.86 907.04 240.38 C 900.87 241.14 894.19 241.87 888.60 238.48 C 887.11 240.62 885.44 242.62 883.70 244.55 C 881.42 245.13 879.09 245.50 876.76 245.75 C 875.25 246.14 873.73 246.46 872.22 246.75 C 872.61 245.45 872.29 243.68 873.44 242.74 C 875.23 242.41 877.07 242.44 878.91 242.33 C 881.40 240.35 884.20 238.73 887.36 238.14 C 888.61 236.61 889.94 235.15 891.32 233.74 C 896.17 232.24 900.08 228.91 904.51 226.57 C 904.74 226.10 905.19 225.16 905.42 224.69 C 913.90 217.78 922.52 209.68 925.99 199.03 C 927.26 195.23 923.07 194.08 921.39 191.54 C 918.44 187.05 913.21 185.12 909.23 181.78 C 906.00 179.07 901.82 177.92 897.88 176.69 C 895.09 175.76 893.32 178.77 891.49 180.32 C 887.32 182.38 882.22 182.25 878.74 185.63 C 875.18 183.49 871.72 186.59 868.06 186.56 C 865.66 186.90 863.88 185.04 862.11 183.77 C 860.17 182.17 858.14 180.60 856.62 178.59 C 854.07 173.96 855.21 168.52 855.00 163.49 C 859.24 155.17 868.95 153.06 876.37 148.66 C 879.53 148.67 882.75 148.29 885.84 149.21 C 888.82 149.45 891.73 150.15 894.66 150.80 C 900.39 153.52 905.87 156.77 911.65 159.40 C 914.60 161.47 918.23 162.54 920.75 165.23 C 925.61 169.94 931.39 173.95 938.04 175.62 C 942.50 166.58 945.63 157.00 950.21 148.03 C 953.27 143.32 954.87 137.90 956.30 132.52 C 959.65 127.42 960.38 120.84 959.34 114.93 C 959.31 112.33 960.30 109.83 960.85 107.31 C 960.62 105.94 959.93 104.56 960.29 103.16 Z" />
<path fill="#030303" opacity="1.00" d=" M 911.71 119.47 C 915.76 117.00 920.32 118.90 924.01 121.13 C 925.88 122.46 928.22 121.53 930.31 121.44 C 930.56 123.29 931.00 125.12 931.19 126.98 C 930.39 130.60 928.24 133.71 926.80 137.08 C 923.52 138.90 919.59 137.33 917.32 134.65 C 914.28 130.83 912.17 126.40 910.27 121.93 C 910.74 121.11 911.22 120.29 911.71 119.47 Z" />
<path fill="#030303" opacity="1.00" d=" M 319.38 126.99 C 319.91 125.71 320.43 124.44 320.94 123.16 C 322.13 123.13 323.32 123.10 324.52 123.06 C 325.46 125.46 326.82 127.89 329.49 128.64 C 334.85 130.51 339.78 133.38 344.53 136.45 C 346.96 138.76 348.90 141.56 351.48 143.76 C 351.47 146.67 351.72 149.63 351.18 152.51 C 350.08 155.30 348.29 157.75 347.07 160.48 C 344.46 163.94 344.29 168.49 342.07 172.15 C 343.56 180.79 339.09 188.81 337.87 197.15 C 338.10 201.90 336.34 206.38 335.95 211.07 C 335.77 213.16 335.03 215.13 334.41 217.11 C 335.23 218.22 336.07 219.32 336.92 220.41 C 339.04 219.15 341.37 218.08 342.97 216.13 C 348.30 209.74 353.61 203.33 358.54 196.64 C 360.08 193.41 361.67 190.13 362.33 186.59 C 363.56 184.30 364.55 181.89 365.70 179.56 C 366.12 174.12 370.59 170.21 371.33 164.94 C 371.82 164.61 372.80 163.94 373.29 163.61 C 374.29 158.87 374.95 153.66 378.20 149.85 C 378.29 150.93 378.45 153.07 378.54 154.15 C 375.85 158.13 374.04 162.83 374.51 167.70 C 373.47 169.11 372.40 170.51 371.24 171.83 C 371.03 174.92 370.45 177.96 369.84 180.99 C 369.28 181.76 368.73 182.54 368.18 183.32 C 368.37 187.72 365.58 191.28 364.24 195.26 C 363.50 198.63 364.09 202.15 363.39 205.54 C 361.41 208.29 358.04 210.31 357.70 213.98 C 357.31 216.70 356.15 219.22 354.50 221.39 C 352.07 224.31 352.39 228.47 350.21 231.51 C 349.00 233.22 347.48 234.66 346.04 236.16 C 345.47 237.92 344.97 239.72 344.10 241.35 C 343.05 243.00 340.95 243.38 339.32 244.21 C 338.38 243.48 337.44 242.76 336.49 242.06 C 332.57 239.08 332.39 233.77 330.75 229.52 C 330.05 227.82 329.46 226.10 328.91 224.36 C 330.27 220.94 331.43 217.44 332.75 214.01 C 332.75 208.54 333.87 203.08 335.79 197.97 C 336.26 194.27 335.54 190.39 337.05 186.86 C 337.93 182.86 339.64 178.80 338.73 174.67 C 338.36 173.14 339.09 171.70 339.64 170.33 C 339.06 167.60 338.95 164.80 338.80 162.02 C 338.48 157.92 335.33 154.97 333.65 151.41 C 331.93 150.57 329.92 149.89 328.91 148.13 C 326.33 144.35 323.60 140.53 322.13 136.15 C 321.52 133.01 320.74 129.90 319.38 126.99 Z" />
<path fill="#030303" opacity="1.00" d=" M 81.31 142.27 C 81.79 142.47 82.77 142.86 83.25 143.06 C 83.53 142.94 84.09 142.70 84.36 142.58 C 87.30 144.40 90.39 146.14 93.84 146.71 C 97.55 149.43 100.56 153.75 99.43 158.57 C 97.99 161.74 95.12 163.95 92.99 166.63 C 90.43 166.32 89.31 168.36 88.55 170.43 C 85.21 176.35 84.60 183.27 82.26 189.56 C 82.10 190.03 81.79 190.96 81.64 191.43 C 80.87 195.85 79.44 200.38 80.66 204.86 C 81.49 207.91 80.43 210.96 80.17 214.01 C 80.21 216.89 80.89 219.72 81.13 222.58 C 82.18 224.48 82.71 227.03 85.02 227.80 C 88.40 225.65 90.05 221.60 93.44 219.36 C 94.75 215.71 97.43 212.92 100.29 210.42 C 103.30 205.44 106.04 200.29 109.45 195.55 C 111.93 197.36 109.73 199.94 109.13 202.14 C 108.40 204.93 106.56 207.15 104.70 209.25 C 105.71 210.86 106.76 212.43 107.87 213.97 C 106.60 217.20 102.66 217.82 100.52 220.34 C 100.48 220.90 100.42 222.00 100.39 222.56 C 99.63 223.14 98.87 223.74 98.10 224.33 C 97.60 228.06 97.61 232.18 95.01 235.19 C 92.04 241.80 87.80 247.80 85.66 254.79 C 82.44 255.22 79.18 254.97 75.94 255.00 C 74.28 253.12 72.59 251.26 70.82 249.48 C 67.84 243.18 70.62 236.22 68.73 229.70 C 68.06 227.80 69.75 226.34 70.52 224.80 C 70.19 223.55 69.85 222.31 69.52 221.07 C 71.06 216.25 70.36 211.08 71.60 206.20 C 73.24 200.96 71.48 195.31 73.58 190.13 C 74.95 189.63 76.31 189.13 77.68 188.65 C 75.71 184.12 77.56 179.00 75.54 174.56 C 76.26 173.41 76.99 172.27 77.73 171.13 C 77.34 170.21 76.96 169.29 76.58 168.38 C 76.94 168.03 77.65 167.32 78.00 166.97 C 78.00 160.21 78.10 153.45 77.62 146.71 C 77.43 144.51 80.01 143.61 81.31 142.27 Z" />
<path fill="#030303" opacity="1.00" d=" M 117.62 169.95 C 118.49 165.40 120.32 161.08 123.06 157.35 C 123.37 161.54 121.35 165.31 120.65 169.33 C 119.91 173.96 117.95 178.27 117.20 182.90 C 116.90 186.27 114.98 189.10 113.43 192.00 C 112.17 191.99 110.90 191.99 109.64 191.99 C 111.49 184.36 115.77 177.59 117.62 169.95 Z" />
<path fill="#030303" opacity="1.00" d=" M 597.03 205.02 C 597.76 203.21 598.61 201.45 599.57 199.74 C 601.23 200.37 602.30 201.50 602.80 203.13 C 601.82 204.35 600.66 205.41 599.55 206.50 C 598.92 206.13 597.66 205.39 597.03 205.02 Z" />
<path fill="#030303" opacity="1.00" d=" M 488.88 385.87 C 490.21 385.93 491.53 386.09 492.84 386.35 C 493.34 389.21 493.50 392.13 494.19 394.96 C 493.24 397.76 493.36 400.73 493.41 403.65 C 496.56 404.05 499.74 404.07 502.92 404.15 C 503.98 403.21 505.01 402.22 506.20 401.43 C 508.27 401.61 509.49 403.56 510.90 404.86 C 505.50 405.52 499.78 403.80 494.65 406.03 C 497.35 409.11 499.92 412.39 503.32 414.76 C 506.27 416.68 509.75 417.49 513.03 418.72 C 511.27 420.12 509.45 421.44 507.68 422.81 C 500.65 419.93 496.62 413.20 493.68 406.57 C 491.94 413.60 493.81 420.85 493.08 427.96 C 491.53 427.31 488.40 427.61 489.09 425.06 C 489.55 419.92 489.73 414.73 488.92 409.62 C 484.52 414.34 479.78 418.69 474.57 422.50 C 474.00 422.54 472.87 422.64 472.30 422.69 C 476.16 418.11 480.70 414.09 483.99 409.04 C 484.97 407.76 485.28 406.17 485.28 404.59 C 481.21 404.68 477.13 404.99 473.07 404.76 C 472.66 404.50 471.85 403.97 471.44 403.71 C 472.19 403.84 473.69 404.09 474.44 404.22 C 475.29 403.89 476.15 403.57 477.01 403.25 C 476.97 397.97 479.27 393.11 479.82 387.91 C 481.53 388.31 483.26 388.71 484.99 389.12 C 484.34 390.44 483.70 391.76 483.05 393.07 C 483.12 394.04 483.21 395.01 483.29 395.99 C 482.80 396.16 481.81 396.49 481.31 396.66 C 479.75 399.18 478.06 401.62 476.69 404.25 C 480.91 404.19 485.14 404.03 489.37 403.94 C 489.51 401.22 489.45 398.50 489.24 395.79 C 490.59 392.55 489.52 389.12 488.88 385.87 Z" />
<path fill="#030303" opacity="1.00" d=" M 572.04 386.09 C 573.60 386.81 575.18 387.52 576.75 388.26 C 573.75 392.78 569.01 395.73 565.54 399.87 C 565.00 399.82 563.91 399.74 563.36 399.69 C 566.88 395.56 569.78 391.01 572.04 386.09 Z" />
<path fill="#030303" opacity="1.00" d=" M 585.91 392.26 C 586.23 390.17 585.26 387.48 587.17 385.98 C 588.54 386.16 589.90 386.53 591.26 386.85 C 590.80 388.70 590.40 390.57 590.06 392.46 C 593.00 392.46 596.35 393.07 598.64 390.74 C 599.89 389.23 601.27 391.06 602.56 391.58 C 602.55 392.08 602.54 393.08 602.54 393.58 C 598.49 393.55 594.44 392.93 590.40 393.41 C 590.21 394.68 590.02 395.94 589.85 397.21 C 593.51 399.23 597.38 397.09 601.17 397.87 C 600.82 401.33 600.37 404.79 600.40 408.29 C 594.32 406.32 587.74 406.36 581.48 407.10 C 581.24 407.58 580.75 408.52 580.50 409.00 C 579.86 409.00 578.59 409.01 577.96 409.01 C 577.96 406.07 577.98 403.13 578.29 400.20 C 577.81 400.02 576.83 399.65 576.34 399.47 C 574.88 401.10 572.76 402.61 572.62 405.00 C 572.24 411.91 571.77 418.82 572.23 425.75 C 572.49 427.36 570.44 427.34 569.46 427.97 C 569.24 422.76 569.02 417.55 568.88 412.35 C 568.89 411.01 568.48 409.75 567.85 408.60 C 566.93 410.14 565.69 411.23 563.81 410.92 C 564.86 409.46 565.98 408.04 567.16 406.67 C 568.81 403.35 570.34 399.96 572.09 396.69 C 573.56 397.22 575.01 397.71 576.51 398.25 L 575.11 399.05 C 576.35 399.07 577.59 399.10 578.85 399.14 L 577.32 397.47 C 578.99 396.80 580.58 397.66 582.11 398.21 C 582.89 398.28 584.46 398.44 585.24 398.52 C 585.63 397.02 585.94 395.50 586.23 393.99 C 584.64 393.65 583.06 393.36 581.49 392.99 C 582.95 392.69 584.42 392.47 585.91 392.26 M 580.91 399.52 C 580.94 402.35 580.30 405.87 583.85 406.71 C 584.19 404.33 584.39 401.93 584.36 399.52 C 583.50 399.52 581.77 399.52 580.91 399.52 M 587.57 398.86 C 587.70 401.13 587.04 403.67 588.18 405.79 C 588.79 405.74 590.02 405.65 590.64 405.61 C 590.36 402.95 591.39 399.11 587.57 398.86 M 593.61 399.82 C 593.72 402.12 592.29 406.85 596.00 406.50 C 596.88 404.17 598.10 397.71 593.61 399.82 Z" />
<path fill="#030303" opacity="1.00" d=" M 671.99 390.06 C 673.15 389.12 674.33 388.19 675.51 387.27 C 676.48 387.98 677.47 388.70 678.47 389.41 C 680.58 387.83 682.62 389.15 684.57 390.19 C 683.25 393.55 683.31 397.19 683.97 400.70 C 685.80 400.35 688.14 400.92 689.38 399.15 C 689.96 395.94 689.16 392.76 688.59 389.62 C 690.64 387.88 693.04 388.70 694.94 390.19 C 694.44 391.00 693.95 391.81 693.47 392.63 C 693.49 396.05 693.69 399.49 693.39 402.92 C 692.47 403.64 691.18 403.37 690.11 403.60 C 688.75 401.52 686.35 400.97 684.09 401.84 C 683.36 404.80 683.27 407.91 683.65 410.93 C 684.82 412.60 687.28 411.82 689.03 412.07 C 693.54 413.12 693.76 407.37 696.67 405.32 C 696.45 405.91 696.02 407.10 695.80 407.70 C 696.00 409.65 696.25 411.61 696.57 413.56 C 693.70 415.20 690.36 415.48 687.17 416.00 C 684.73 415.22 682.28 414.50 679.96 413.44 C 679.54 405.73 681.04 397.89 679.46 390.29 C 676.99 390.84 674.52 391.35 672.03 391.74 C 671.94 393.37 671.87 395.01 671.81 396.65 C 672.58 396.48 674.12 396.16 674.89 396.00 C 675.70 396.65 676.52 397.30 677.35 397.96 C 677.00 398.47 676.29 399.48 675.94 399.98 C 676.14 402.65 676.46 405.34 676.25 408.03 C 674.83 408.01 673.41 408.00 672.00 407.99 C 671.93 409.99 671.88 412.00 671.92 414.01 C 670.59 414.00 669.27 414.00 667.95 414.00 C 668.05 411.69 668.20 409.40 668.28 407.10 C 666.40 407.92 664.52 408.15 663.23 406.19 C 661.25 408.54 662.25 411.44 663.20 413.97 C 662.43 414.55 661.68 415.13 660.94 415.72 C 659.66 415.12 658.40 414.53 657.15 413.93 C 657.49 413.48 658.15 412.57 658.48 412.11 C 658.45 408.92 658.36 405.72 658.83 402.56 C 659.66 397.80 658.63 393.02 658.56 388.25 C 662.44 388.67 666.17 390.78 670.16 389.56 C 670.62 389.69 671.53 389.94 671.99 390.06 M 662.53 391.59 C 662.97 396.02 661.48 400.95 663.18 405.03 L 663.70 405.05 C 664.07 402.17 664.03 399.26 664.05 396.36 C 665.41 396.48 666.78 396.60 668.16 396.73 C 668.10 394.93 668.04 393.13 667.99 391.34 C 666.16 391.43 664.34 391.51 662.53 391.59 M 667.19 398.71 C 667.02 400.90 667.10 403.11 667.53 405.28 C 669.31 405.11 671.11 404.96 672.92 404.81 C 672.96 402.76 672.98 400.72 673.02 398.68 C 672.41 398.55 671.18 398.30 670.56 398.17 C 669.43 398.35 668.31 398.53 667.19 398.71 Z" />
<path fill="#030303" opacity="1.00" d=" M 499.91 394.09 C 500.99 393.40 502.10 392.75 503.23 392.12 C 503.79 392.54 504.91 393.39 505.47 393.81 C 505.50 394.23 505.56 395.06 505.59 395.48 C 502.70 395.65 499.80 395.73 496.93 395.36 C 497.92 394.93 498.91 394.51 499.91 394.09 Z" />
<path fill="#030303" opacity="1.00" d=" M 576.30 392.22 C 577.24 390.68 579.79 392.30 578.70 393.79 C 577.74 395.31 575.20 393.70 576.30 392.22 Z" />
<path fill="#030303" opacity="1.00" d=" M 580.09 392.28 C 583.43 392.46 578.49 395.21 580.09 392.28 Z" />
<path fill="#030303" opacity="1.00" d=" M 598.48 411.84 C 599.62 410.86 600.32 408.85 602.08 408.88 C 603.52 409.42 604.46 410.77 605.59 411.77 C 603.21 411.93 600.84 411.95 598.48 411.84 Z" />
<path fill="#030303" opacity="1.00" d=" M 576.82 411.13 C 578.01 410.23 578.68 410.48 578.83 411.88 C 577.63 412.76 576.96 412.51 576.82 411.13 Z" />
<path fill="#030303" opacity="1.00" d=" M 581.26 411.10 C 584.29 409.56 581.44 414.37 581.26 411.10 Z" />
<path fill="#030303" opacity="1.00" d=" M 586.64 411.08 C 589.62 409.55 586.77 414.40 586.64 411.08 Z" />
<path fill="#030303" opacity="1.00" d=" M 591.67 411.31 C 593.04 410.47 595.14 410.46 596.53 411.31 C 596.03 412.74 592.14 412.75 591.67 411.31 Z" />
<path fill="#030303" opacity="1.00" d=" M 673.52 413.97 C 674.46 413.05 674.71 410.18 676.52 411.14 C 677.61 411.97 678.58 412.96 679.56 413.93 C 677.54 413.98 675.52 413.99 673.52 413.97 Z" />
<path fill="#030303" opacity="1.00" d=" M 582.00 414.04 C 582.92 414.00 584.77 413.93 585.70 413.89 C 585.70 417.42 584.67 420.94 585.54 424.45 C 588.30 424.29 591.34 425.07 593.94 423.89 C 595.21 422.36 596.18 420.61 597.28 418.95 C 597.30 421.31 598.41 423.90 597.42 426.14 C 595.00 428.02 591.78 427.46 588.94 427.63 C 586.51 427.74 584.09 427.38 581.94 426.22 C 582.02 422.16 581.99 418.10 582.00 414.04 Z" />
<path fill="#030303" opacity="1.00" d=" M 588.06 413.49 C 590.86 414.37 592.95 416.42 593.91 419.20 C 593.29 419.55 592.05 420.26 591.43 420.62 C 590.73 420.35 590.03 420.10 589.35 419.85 C 588.96 417.72 588.51 415.60 588.06 413.49 Z" />
<path fill="#030303" opacity="1.00" d=" M 598.27 414.65 C 600.72 415.75 602.75 417.51 604.55 419.48 C 604.53 421.09 604.52 422.70 604.52 424.33 C 603.35 424.12 601.63 424.51 601.29 422.96 C 600.15 420.24 599.32 417.40 598.27 414.65 Z" />
<path fill="#030303" opacity="1.00" d=" M 577.57 417.03 C 577.93 417.01 578.64 416.98 579.00 416.96 C 578.99 418.98 578.99 420.99 579.00 423.02 C 578.30 423.70 577.61 424.39 576.93 425.08 C 576.26 424.95 574.94 424.67 574.28 424.53 C 573.89 423.79 573.50 423.06 573.12 422.33 C 574.83 420.77 576.53 419.14 577.57 417.03 Z" />
<path fill="#030303" opacity="1.00" d=" M 662.36 417.71 C 664.29 421.45 661.66 426.16 657.65 426.95 C 657.48 425.67 657.33 424.39 657.18 423.11 C 659.18 421.60 661.09 419.91 662.36 417.71 Z" />
<path fill="#030303" opacity="1.00" d=" M 668.66 418.09 C 669.08 418.15 669.91 418.27 670.33 418.33 C 672.25 420.73 675.34 423.34 673.10 426.61 C 672.36 426.60 670.89 426.57 670.15 426.55 C 669.61 423.74 669.13 420.91 668.66 418.09 Z" />
<path fill="#030303" opacity="1.00" d=" M 677.63 418.05 C 679.96 419.24 682.21 420.60 684.41 422.04 C 684.08 423.25 683.76 424.47 683.46 425.69 C 682.11 425.52 680.77 425.35 679.43 425.16 C 679.42 424.39 679.40 422.87 679.39 422.10 C 678.76 420.76 678.17 419.41 677.63 418.05 Z" />
<path fill="#030303" opacity="1.00" d=" M 688.02 418.08 C 690.23 419.05 692.64 419.81 694.47 421.48 C 695.66 422.82 695.31 424.76 695.48 426.42 C 694.18 426.39 692.88 426.46 691.60 426.29 C 689.73 423.91 689.05 420.87 688.02 418.08 Z" />
</g>
</svg>
