<?xml version="1.0" encoding="UTF-8" ?>
<!DOCTYPE svg PUBLIC "-//W3C//DTD SVG 1.1//EN" "http://www.w3.org/Graphics/SVG/1.1/DTD/svg11.dtd">
<svg width="1030pt" height="818pt" viewBox="0 0 1030 818" version="1.1" xmlns="http://www.w3.org/2000/svg">
<g id="#000000ff">
<path fill="#000000" opacity="1.00" d=" M 518.29 52.83 C 519.65 51.90 521.32 51.92 522.70 52.81 C 523.99 52.90 525.29 52.98 526.60 53.04 C 528.88 54.27 530.72 56.10 531.94 58.40 C 532.03 58.89 532.22 59.86 532.31 60.35 C 532.67 62.01 533.02 63.67 533.41 65.33 C 534.39 71.67 534.39 78.32 533.40 84.66 C 533.02 86.32 532.68 87.99 532.31 89.65 C 532.22 90.14 532.04 91.13 531.95 91.62 C 530.69 93.53 529.25 95.30 527.70 96.97 C 527.19 97.05 526.18 97.21 525.67 97.28 C 521.72 98.60 517.50 97.83 513.43 98.00 C 510.76 96.48 508.52 94.32 507.07 91.60 C 506.97 91.11 506.78 90.14 506.68 89.66 C 505.27 86.00 506.82 81.89 505.18 78.30 C 504.99 75.31 504.51 72.12 505.82 69.29 C 505.98 67.03 506.02 64.76 506.05 62.49 C 506.68 61.49 507.32 60.50 507.96 59.51 C 507.96 58.96 507.96 57.87 507.97 57.32 C 509.67 55.77 511.46 54.31 513.39 53.02 C 515.02 52.98 516.65 52.93 518.29 52.83 M 516.33 56.73 C 515.82 56.81 514.81 56.95 514.31 57.02 C 512.74 58.71 511.28 60.50 509.99 62.40 C 510.02 65.03 510.02 67.66 509.82 70.29 C 508.43 73.44 509.01 76.97 509.20 80.30 C 510.27 82.98 509.78 85.96 510.71 88.69 C 510.79 89.21 510.94 90.24 511.02 90.76 C 512.46 91.87 513.93 92.95 515.42 94.01 C 518.13 94.00 520.86 93.99 523.58 94.02 C 525.84 92.73 527.71 90.91 528.95 88.60 C 529.03 87.63 529.13 86.65 529.25 85.68 C 530.54 82.27 529.86 78.56 530.01 75.00 C 529.92 71.77 530.46 68.40 529.25 65.32 C 529.13 64.34 529.04 63.36 528.96 62.38 C 527.70 60.47 526.25 58.70 524.70 57.03 C 524.19 56.95 523.18 56.80 522.67 56.73 C 520.63 55.77 518.36 55.76 516.33 56.73 Z" />
<path fill="#000000" opacity="1.00" d=" M 606.74 52.07 C 608.41 52.04 610.14 52.04 611.70 52.79 C 612.99 52.89 614.29 52.98 615.60 53.05 C 617.88 54.28 619.72 56.11 620.94 58.40 C 621.03 58.88 621.22 59.86 621.31 60.35 C 621.67 62.01 622.01 63.68 622.40 65.33 C 623.45 71.66 623.27 78.27 622.49 84.62 C 621.99 85.94 621.53 87.28 621.22 88.65 C 621.12 89.63 621.03 90.61 620.95 91.60 C 619.50 94.79 616.46 96.49 613.45 97.94 C 610.08 97.98 606.61 98.41 603.35 97.33 C 602.89 97.22 601.97 96.99 601.51 96.88 C 598.56 95.17 596.35 92.64 595.10 89.48 C 595.01 87.88 594.92 86.29 594.78 84.70 C 593.51 81.64 594.09 78.26 593.98 75.05 C 594.09 71.80 593.51 68.40 594.77 65.30 C 594.89 64.03 594.99 62.75 595.10 61.47 C 595.71 60.48 596.33 59.48 596.96 58.49 C 596.96 57.93 596.95 56.80 596.94 56.24 C 598.39 55.17 599.86 54.12 601.37 53.12 C 603.18 52.97 605.09 53.01 606.74 52.07 M 604.39 55.99 C 602.41 57.96 600.53 60.05 599.00 62.40 C 599.01 64.70 598.99 67.00 598.82 69.29 C 597.45 72.91 597.65 77.02 598.70 80.69 C 598.94 82.71 599.08 84.76 599.76 86.69 C 599.85 87.69 599.94 88.70 600.03 89.70 C 601.73 91.27 603.53 92.73 605.42 94.06 C 607.85 94.04 610.34 94.14 612.67 93.30 C 613.15 93.21 614.11 93.02 614.59 92.92 C 615.36 92.14 616.14 91.37 616.94 90.59 C 617.01 90.10 617.17 89.12 617.25 88.62 C 617.59 87.27 618.00 85.94 618.46 84.62 C 619.48 79.38 618.98 74.00 618.81 68.71 C 618.07 66.29 617.86 63.77 617.29 61.32 C 617.22 60.80 617.06 59.76 616.98 59.24 C 615.53 58.12 614.06 57.05 612.58 55.99 C 609.85 56.00 607.12 56.01 604.39 55.99 Z" />
<path fill="#000000" opacity="1.00" d=" M 687.58 52.04 C 691.60 52.13 695.77 51.42 699.68 52.71 C 700.18 52.79 701.19 52.95 701.70 53.03 C 703.25 54.70 704.70 56.47 705.95 58.38 C 706.04 58.87 706.22 59.86 706.31 60.35 C 706.66 62.01 707.01 63.68 707.40 65.34 C 708.56 70.56 707.94 75.99 707.81 81.29 C 707.08 83.69 706.82 86.19 706.36 88.64 C 706.23 89.10 705.97 90.04 705.84 90.50 C 704.66 93.10 703.27 95.68 700.61 97.02 C 695.87 96.98 691.14 96.99 686.41 97.02 C 684.49 95.72 682.71 94.25 681.02 92.70 C 680.95 92.18 680.83 91.15 680.76 90.63 C 680.41 89.27 679.98 87.94 679.52 86.62 C 678.46 82.90 679.76 78.84 678.15 75.27 C 678.11 74.09 678.11 72.91 678.15 71.73 C 679.57 68.77 678.49 65.33 679.75 62.31 C 679.85 61.34 679.95 60.37 680.06 59.40 C 681.70 56.17 684.68 54.07 687.58 52.04 M 688.33 56.69 C 687.84 56.79 686.86 57.00 686.37 57.11 C 685.64 58.58 684.92 60.06 684.22 61.55 C 684.07 62.00 683.78 62.91 683.63 63.36 C 682.45 67.48 683.16 71.79 683.00 76.01 C 683.08 79.56 682.52 83.23 683.70 86.66 C 683.79 87.15 683.97 88.12 684.06 88.61 C 685.08 90.09 686.13 91.55 687.22 92.99 C 687.75 93.06 688.79 93.20 689.32 93.27 C 691.67 94.29 694.31 94.29 696.68 93.27 C 697.20 93.20 698.25 93.06 698.78 92.98 C 699.86 91.55 700.91 90.09 701.95 88.61 C 702.03 87.63 702.13 86.66 702.25 85.69 C 703.92 78.49 702.61 70.90 702.95 63.55 C 702.37 62.57 701.82 61.58 701.29 60.58 C 701.26 58.27 699.31 57.10 697.61 55.98 C 694.50 56.01 691.31 55.66 688.33 56.69 Z" />
<path fill="#000000" opacity="1.00" d=" M 731.42 52.00 C 735.49 52.17 739.72 51.39 743.67 52.71 C 744.18 52.79 745.19 52.95 745.70 53.03 C 747.25 54.70 748.69 56.47 749.95 58.38 C 750.04 58.87 750.22 59.86 750.31 60.35 C 750.67 62.01 751.02 63.68 751.40 65.34 C 752.23 69.70 752.65 74.45 751.18 78.72 C 750.98 81.70 751.23 84.75 750.34 87.64 C 750.22 88.11 749.96 89.03 749.84 89.50 C 748.51 92.57 746.70 95.50 743.58 97.00 C 739.17 96.76 734.60 97.68 730.33 96.28 C 729.82 96.20 728.81 96.05 728.31 95.97 C 726.74 94.30 725.29 92.53 724.04 90.62 C 723.94 89.64 723.85 88.66 723.75 87.68 C 722.32 83.61 723.21 79.20 723.01 74.98 C 723.22 70.44 722.34 65.76 723.69 61.34 C 723.79 60.85 723.97 59.88 724.06 59.40 C 725.81 56.31 728.38 53.81 731.42 52.00 M 735.31 55.79 C 734.33 55.88 733.35 55.96 732.38 56.03 C 730.64 57.05 728.94 58.30 728.54 60.41 C 728.23 61.74 727.92 63.07 727.61 64.39 C 726.55 68.20 727.10 72.17 726.98 76.06 C 727.03 78.94 726.61 81.97 727.79 84.70 C 727.88 86.00 727.96 87.30 728.05 88.61 C 729.08 90.09 730.13 91.55 731.23 92.99 C 732.24 93.05 733.26 93.12 734.29 93.21 C 736.02 94.19 737.97 94.19 739.71 93.21 C 740.72 93.12 741.74 93.05 742.78 92.99 C 743.85 91.55 744.90 90.09 745.94 88.61 C 746.03 88.12 746.22 87.15 746.31 86.66 C 747.61 82.55 746.80 78.19 747.00 73.96 C 746.87 70.42 747.54 66.71 746.24 63.31 C 746.13 62.33 746.04 61.35 745.97 60.37 C 744.90 58.56 743.43 57.09 741.63 56.02 C 740.64 55.95 739.66 55.87 738.69 55.79 C 737.56 55.08 736.43 55.09 735.31 55.79 Z" />
<path fill="#000000" opacity="1.00" d=" M 778.45 52.00 C 779.50 52.00 780.56 52.00 781.63 52.00 C 781.95 52.64 782.61 53.94 782.93 54.58 C 783.09 68.39 782.96 82.20 783.00 96.00 C 782.25 96.00 780.74 96.00 779.99 96.00 C 779.80 92.11 780.70 88.00 779.18 84.29 C 778.67 76.67 779.31 69.01 778.88 61.39 C 778.03 59.78 776.25 60.02 774.73 59.96 C 773.45 60.91 772.14 61.80 770.77 62.59 C 770.60 57.63 775.82 55.47 778.45 52.00 Z" />
<path fill="#000000" opacity="1.00" d=" M 856.34 52.71 C 859.01 51.67 861.98 51.68 864.66 52.70 C 865.14 52.79 866.11 52.97 866.60 53.06 C 868.91 54.28 870.73 56.15 872.01 58.43 C 871.98 60.82 871.99 63.21 872.02 65.60 C 870.80 67.34 869.47 69.01 868.04 70.57 C 868.02 71.54 868.01 72.51 868.01 73.48 C 870.25 75.63 872.15 78.08 873.98 80.57 C 873.98 83.20 873.98 85.82 873.96 88.45 C 872.56 91.42 870.86 94.42 867.43 95.28 C 866.42 95.83 865.43 96.38 864.46 96.95 C 861.41 97.01 858.27 97.34 855.34 96.31 C 854.85 96.22 853.88 96.03 853.40 95.93 C 850.28 94.19 847.82 91.57 845.95 88.57 C 845.95 86.14 845.85 83.66 846.69 81.34 C 846.78 80.85 846.96 79.87 847.05 79.39 C 848.41 77.19 850.12 75.25 852.00 73.49 C 851.97 72.19 851.95 70.90 851.95 69.61 C 850.95 68.30 849.99 66.96 849.06 65.61 C 848.98 65.12 848.81 64.16 848.72 63.67 C 848.08 62.54 848.10 61.41 848.80 60.30 C 848.87 59.30 848.94 58.30 849.02 57.30 C 850.69 55.75 852.46 54.30 854.38 53.05 C 854.87 52.96 855.85 52.79 856.34 52.71 M 856.28 55.97 C 855.10 57.47 853.97 59.00 852.86 60.55 C 853.07 61.56 853.29 62.58 853.53 63.59 C 854.06 66.68 857.18 67.58 859.55 68.94 C 860.02 68.93 860.96 68.92 861.42 68.92 C 862.78 68.16 864.16 67.42 865.55 66.69 C 866.32 65.58 867.11 64.48 867.93 63.39 C 867.95 62.40 867.98 61.42 868.02 60.43 C 866.94 58.93 865.85 57.44 864.75 55.97 C 861.92 56.00 859.09 56.00 856.28 55.97 M 860.37 75.36 C 859.36 75.64 858.35 75.91 857.35 76.15 C 854.97 77.55 852.93 79.40 851.04 81.37 C 850.98 81.88 850.86 82.89 850.80 83.40 C 850.43 84.40 850.09 85.41 849.77 86.42 C 851.17 88.36 852.69 90.21 854.30 91.97 C 855.29 92.05 856.29 92.13 857.30 92.22 C 859.02 93.18 860.96 93.18 862.69 92.22 C 863.66 92.13 864.64 92.05 865.63 91.98 C 867.44 90.90 868.91 89.40 870.03 87.62 C 869.99 85.54 869.99 83.47 870.01 81.40 C 868.08 79.41 866.01 77.57 863.65 76.14 C 862.54 75.90 861.45 75.64 860.37 75.36 Z" />
<path fill="#000000" opacity="1.00" d=" M 148.00 56.62 C 147.49 54.63 150.18 54.22 151.33 53.18 C 152.85 54.01 154.59 53.98 156.27 53.95 C 157.60 52.80 159.30 52.94 160.71 53.82 C 162.57 53.95 164.44 54.02 166.31 54.09 C 166.62 58.38 161.06 57.76 159.98 61.41 C 160.06 71.42 159.91 81.43 160.06 91.44 C 160.37 92.01 160.99 93.15 161.31 93.72 C 161.86 93.98 162.96 94.50 163.51 94.76 C 164.76 95.07 166.29 94.76 167.28 95.74 C 169.12 96.61 167.39 99.04 165.91 98.95 C 160.28 99.07 154.63 99.07 149.00 98.95 C 147.55 98.97 145.90 96.58 147.73 95.74 C 148.72 94.77 150.23 95.06 151.48 94.74 C 152.08 94.48 153.30 93.96 153.90 93.70 C 154.01 93.19 154.21 92.18 154.31 91.67 C 154.92 89.83 155.09 87.90 155.04 85.99 C 154.97 78.13 155.00 70.26 155.01 62.40 C 153.98 60.98 152.93 59.57 151.83 58.20 C 150.43 58.00 148.93 57.84 148.00 56.62 Z" />
<path fill="#000000" opacity="1.00" d=" M 343.31 53.79 C 344.44 53.06 345.57 53.07 346.70 53.84 C 350.02 53.97 353.55 54.57 356.71 53.18 C 359.65 52.96 362.60 52.97 365.55 53.00 C 366.37 53.82 367.19 54.64 368.02 55.45 C 367.98 56.45 367.95 57.45 367.92 58.45 C 367.37 59.44 366.83 60.44 366.31 61.44 C 364.07 66.02 360.43 69.73 357.07 73.50 C 357.02 73.97 356.92 74.92 356.87 75.39 C 355.96 76.70 355.08 78.03 354.20 79.36 C 353.55 80.76 352.88 82.16 352.22 83.55 C 352.08 84.00 351.79 84.90 351.64 85.35 C 350.52 88.70 351.52 92.35 350.28 95.67 C 350.18 96.26 349.98 97.42 349.88 98.00 C 349.16 98.00 347.73 98.00 347.01 98.00 C 347.23 93.46 346.31 88.74 347.72 84.33 C 347.86 83.38 347.99 82.44 348.13 81.49 C 349.44 79.10 350.82 76.75 352.20 74.40 C 355.39 69.57 358.83 64.91 362.27 60.26 C 361.43 59.16 360.57 58.07 359.72 56.97 C 354.00 57.00 348.29 57.06 342.58 56.93 C 341.94 56.61 340.65 55.95 340.00 55.62 C 340.00 55.24 339.99 54.47 339.98 54.09 C 341.09 54.00 342.19 53.90 343.31 53.79 Z" />
<path fill="#000000" opacity="1.00" d=" M 440.56 52.71 C 442.20 53.04 444.54 53.81 444.01 55.96 C 444.01 69.64 443.99 83.31 444.00 96.99 C 443.26 97.00 441.78 97.01 441.04 97.02 C 440.51 94.46 441.17 91.74 440.17 89.28 C 439.81 80.62 440.04 71.94 440.05 63.27 C 438.48 61.48 436.46 60.34 434.40 62.20 C 433.81 62.48 432.64 63.04 432.05 63.32 C 432.04 62.61 432.01 61.17 431.99 60.46 C 434.68 57.70 437.43 54.98 440.56 52.71 Z" />
<path fill="#000000" opacity="1.00" d=" M 470.56 53.05 C 474.52 52.98 478.49 52.99 482.46 53.01 C 484.98 54.75 487.21 56.85 488.83 59.47 C 488.98 61.21 489.21 62.96 489.65 64.66 C 489.87 65.55 490.11 66.44 490.35 67.34 C 491.32 71.35 491.55 75.76 490.22 79.71 C 490.09 82.33 489.94 84.96 489.52 87.55 C 489.06 88.56 488.59 89.57 488.11 90.57 C 488.05 91.57 488.01 92.58 487.97 93.58 C 486.83 94.69 485.70 95.80 484.58 96.91 C 484.10 97.01 483.14 97.21 482.67 97.31 C 478.34 98.41 473.63 98.46 469.32 97.29 C 468.82 97.21 467.81 97.05 467.30 96.97 C 465.74 95.30 464.30 93.53 463.05 91.62 C 462.96 91.13 462.78 90.15 462.69 89.66 C 462.14 87.71 461.92 85.69 461.69 83.69 C 460.42 77.41 460.81 70.78 461.49 64.44 C 461.93 63.44 462.39 62.44 462.86 61.45 C 462.90 60.94 462.99 59.91 463.03 59.40 C 464.51 56.23 467.53 54.50 470.56 53.05 M 473.30 56.77 C 472.33 56.87 471.37 56.97 470.41 57.06 C 469.63 57.84 468.85 58.63 468.07 59.41 C 467.99 59.90 467.82 60.89 467.74 61.38 C 467.40 62.73 466.98 64.06 466.52 65.38 C 465.61 69.52 466.09 73.77 465.99 77.97 C 466.04 81.20 465.60 84.54 466.69 87.66 C 466.78 88.16 466.95 89.14 467.04 89.64 C 468.10 91.45 469.59 92.92 471.38 94.03 C 474.48 93.98 477.57 93.99 480.67 94.04 C 482.22 92.33 483.68 90.54 484.95 88.62 C 485.04 87.64 485.13 86.66 485.25 85.68 C 486.45 82.59 485.92 79.23 486.03 76.00 C 485.93 73.09 486.41 70.04 485.20 67.29 C 485.04 65.40 484.96 63.50 484.91 61.60 C 484.11 60.51 483.32 59.42 482.56 58.30 C 482.04 58.02 481.01 57.45 480.50 57.16 C 480.03 57.04 479.11 56.80 478.65 56.68 C 476.89 55.88 475.01 55.82 473.30 56.77 Z" />
<path fill="#000000" opacity="1.00" d=" M 644.32 53.73 C 647.96 52.56 651.99 52.61 655.66 53.69 C 656.15 53.79 657.12 53.98 657.60 54.08 C 659.97 56.32 662.24 58.68 664.03 61.41 C 663.99 63.43 663.97 65.44 663.95 67.45 C 661.96 72.68 657.41 76.16 652.38 78.23 C 648.38 80.33 645.46 83.89 642.85 87.47 C 642.33 90.24 644.22 91.82 646.41 93.02 C 650.74 92.97 655.08 92.98 659.41 93.07 C 660.18 93.46 661.71 94.24 662.47 94.63 C 660.56 98.49 655.86 96.42 652.45 97.43 C 650.88 97.20 649.30 97.05 647.73 97.04 C 646.15 98.31 644.18 97.94 642.38 97.59 C 641.27 96.96 639.97 96.60 639.10 95.64 C 638.83 92.56 639.01 89.47 638.99 86.39 C 640.75 84.00 642.62 81.71 644.48 79.40 C 647.20 77.58 649.81 75.61 652.51 73.75 C 655.42 72.61 657.45 70.20 659.01 67.57 C 658.99 65.49 659.00 63.41 659.03 61.32 C 657.30 59.77 655.50 58.30 653.59 56.98 C 650.63 56.98 647.66 56.97 644.71 57.18 C 643.03 57.92 641.18 58.00 639.40 58.13 C 640.28 56.72 641.23 55.35 642.18 53.98 C 642.72 53.92 643.78 53.79 644.32 53.73 Z" />
<path fill="#000000" opacity="1.00" d=" M 191.34 54.68 C 194.29 53.67 197.44 53.99 200.51 54.02 C 203.48 55.86 206.55 57.71 208.45 60.76 C 207.42 61.94 206.32 63.12 204.66 63.26 C 202.87 61.23 200.84 59.43 198.58 57.96 C 197.25 58.00 195.92 58.05 194.60 58.10 C 193.17 58.84 191.74 59.58 190.32 60.33 C 190.00 60.88 189.37 62.00 189.06 62.55 C 189.02 64.21 189.00 65.88 188.99 67.54 C 190.48 69.00 191.97 70.48 193.44 71.97 C 193.95 72.00 194.96 72.07 195.47 72.10 C 196.45 72.64 197.45 73.17 198.45 73.69 C 202.81 75.88 207.15 78.79 208.96 83.55 C 208.98 86.22 209.00 88.89 209.01 91.56 C 206.73 93.89 204.39 96.22 201.61 97.97 C 200.30 98.03 199.00 98.09 197.70 98.19 C 196.61 98.84 195.48 98.90 194.33 98.39 C 192.66 98.02 190.99 97.69 189.34 97.30 C 188.85 97.21 187.87 97.02 187.38 96.93 C 186.34 95.82 185.28 94.74 184.21 93.66 C 183.92 92.52 183.54 91.40 183.27 90.26 C 183.54 89.70 184.08 88.57 184.36 88.01 C 184.94 87.99 186.10 87.95 186.68 87.93 C 188.00 89.46 189.29 91.01 190.48 92.65 C 190.99 92.98 192.02 93.64 192.53 93.97 C 194.54 93.98 196.56 94.00 198.58 94.03 C 200.92 92.67 202.81 90.72 204.23 88.42 C 203.91 87.41 203.58 86.41 203.24 85.42 C 203.14 84.94 202.94 83.99 202.85 83.51 C 202.56 82.97 201.99 81.88 201.71 81.33 C 198.77 79.45 195.72 77.74 192.54 76.30 C 189.33 74.63 185.81 72.97 184.03 69.63 C 183.95 69.14 183.80 68.16 183.72 67.66 C 182.85 65.93 182.86 64.07 183.71 62.34 C 183.80 61.85 183.97 60.88 184.06 60.40 C 185.28 58.11 187.10 56.27 189.40 55.07 C 189.88 54.97 190.86 54.78 191.34 54.68 Z" />
<path fill="#000000" opacity="1.00" d=" M 225.39 54.12 C 232.44 53.78 239.51 54.13 246.58 53.99 C 250.17 56.00 252.65 59.32 255.01 62.59 C 255.05 64.96 255.09 67.36 254.36 69.64 C 254.22 70.10 253.93 71.02 253.79 71.48 C 253.26 72.76 252.77 74.05 252.25 75.34 C 252.60 76.39 252.93 77.45 253.26 78.52 C 254.18 79.80 255.06 81.11 255.93 82.43 C 256.00 83.72 256.08 85.01 256.19 86.30 C 256.88 87.41 256.91 88.53 256.28 89.67 C 256.19 90.15 256.03 91.11 255.94 91.60 C 254.61 94.33 252.27 96.28 249.42 97.28 C 248.42 97.83 247.43 98.38 246.45 98.95 C 239.43 98.65 232.21 99.86 225.32 98.29 C 224.74 98.19 223.58 97.98 223.00 97.88 C 223.09 89.49 222.81 81.10 223.16 72.71 C 224.10 71.34 224.10 69.66 223.16 68.29 C 222.92 64.67 223.00 61.04 222.99 57.41 C 223.76 56.30 224.50 55.15 225.39 54.12 M 232.55 58.06 C 231.99 58.38 230.87 59.00 230.31 59.31 C 230.00 59.87 229.37 60.99 229.05 61.55 C 229.01 64.23 229.00 66.91 228.98 69.59 C 229.76 70.70 230.50 71.85 231.40 72.88 C 235.46 73.22 239.54 72.90 243.61 73.02 C 246.35 71.62 247.74 68.87 249.11 66.27 C 248.83 65.31 248.53 64.35 248.22 63.39 C 248.15 62.90 248.01 61.91 247.94 61.41 C 247.16 60.64 246.37 59.86 245.59 59.08 C 245.11 58.98 244.15 58.78 243.67 58.69 C 240.08 57.51 236.25 58.06 232.55 58.06 M 232.44 78.00 C 231.63 78.82 230.81 79.63 230.00 80.45 C 229.98 84.11 229.98 87.77 230.07 91.42 C 230.39 92.06 231.04 93.32 231.36 93.95 C 233.00 94.00 234.65 94.06 236.29 94.17 C 237.43 94.96 238.57 94.95 239.70 94.15 C 241.67 94.03 243.65 94.00 245.63 94.00 C 247.42 92.90 248.92 91.41 250.03 89.62 C 250.00 87.54 250.00 85.46 250.02 83.38 C 248.92 81.59 247.44 80.11 245.64 79.04 C 245.14 78.95 244.15 78.78 243.66 78.70 C 240.04 77.50 236.18 78.09 232.44 78.00 Z" />
<path fill="#000000" opacity="1.00" d=" M 273.37 54.01 C 274.82 53.99 276.27 53.97 277.73 53.95 C 279.88 56.61 281.79 59.47 283.32 62.53 C 284.26 64.56 285.29 66.55 286.26 68.57 C 286.75 69.52 287.24 70.48 287.72 71.45 C 289.04 74.25 290.59 76.93 292.19 79.57 C 293.12 80.92 294.38 84.69 296.28 82.28 C 298.39 77.76 295.56 71.96 297.89 67.28 C 298.08 65.33 297.86 63.38 297.55 61.45 C 297.97 58.80 298.14 56.11 298.16 53.43 C 299.42 54.40 300.72 55.33 302.07 56.20 C 301.82 69.66 302.22 83.15 301.88 96.60 C 300.52 98.92 297.55 97.73 295.38 98.04 C 294.69 96.53 294.00 95.03 293.30 93.54 C 292.62 92.21 291.96 90.87 291.26 89.56 C 291.02 89.06 290.53 88.06 290.28 87.56 C 289.61 86.22 288.94 84.89 288.27 83.55 C 287.60 82.21 286.97 80.87 286.31 79.53 C 285.20 77.45 283.98 75.45 282.80 73.41 C 281.81 71.83 280.78 70.28 279.74 68.74 C 278.83 69.64 277.91 70.54 277.00 71.44 C 276.93 79.61 277.12 87.78 276.95 95.94 C 276.87 98.77 272.16 98.79 272.05 95.97 C 271.95 82.85 271.96 69.71 272.07 56.58 C 272.39 55.94 273.04 54.65 273.37 54.01 Z" />
<path fill="#000000" opacity="1.00" d=" M 550.83 71.99 C 559.95 71.93 569.05 71.80 578.17 71.98 C 577.98 73.74 578.37 76.74 575.94 76.96 C 568.31 77.05 560.67 77.05 553.04 76.96 C 550.62 76.72 551.00 73.75 550.83 71.99 Z" />
<path fill="#000000" opacity="1.00" d=" M 804.05 75.95 C 801.23 75.87 801.20 71.20 804.00 71.05 C 812.66 70.88 821.33 71.06 830.00 71.00 C 829.99 72.67 829.99 74.33 830.00 76.00 C 821.35 75.94 812.70 76.11 804.05 75.95 Z" />
<path fill="#000000" opacity="1.00" d=" M 386.59 72.08 C 394.36 71.97 402.14 71.94 409.91 72.03 C 411.60 71.98 411.86 74.15 412.29 75.37 C 411.31 76.32 410.33 77.27 409.37 78.24 C 408.36 77.88 407.36 77.50 406.37 77.11 C 402.15 76.97 397.92 76.87 393.70 77.16 C 392.58 77.92 391.45 77.94 390.30 77.23 C 387.47 77.26 383.67 77.28 383.70 73.47 C 384.42 73.12 385.87 72.43 386.59 72.08 Z" />
<path fill="#000000" opacity="1.00" d=" M 834.44 135.00 C 839.77 135.01 845.10 134.95 850.43 135.06 C 851.03 135.38 852.24 136.02 852.84 136.33 C 852.99 138.15 853.06 140.01 853.82 141.71 C 854.24 187.13 853.88 232.57 854.00 278.00 C 854.00 367.35 854.01 456.71 854.00 546.06 C 854.01 547.33 854.30 548.55 854.86 549.71 C 854.94 551.56 854.94 553.42 854.86 555.28 C 853.77 557.38 853.97 559.78 853.96 562.06 C 854.02 567.71 854.02 573.36 853.96 579.02 C 853.97 581.27 853.77 583.65 854.86 585.73 C 854.90 587.23 854.90 588.75 854.86 590.28 C 853.11 595.04 854.22 600.31 854.17 605.29 C 855.29 607.29 855.28 609.69 854.18 611.70 C 854.11 615.68 853.27 619.93 854.85 623.72 C 854.90 625.23 854.91 626.75 854.89 628.28 C 854.01 629.41 854.01 630.56 854.88 631.71 C 854.94 633.56 854.94 635.42 854.88 637.29 C 854.03 638.42 854.02 639.56 854.85 640.71 C 855.13 645.46 854.94 650.22 855.04 654.98 C 855.00 657.24 855.22 659.63 854.14 661.72 C 854.04 663.56 854.04 665.42 854.14 667.28 C 856.03 673.41 854.57 680.07 854.93 686.42 C 854.61 687.07 853.95 688.36 853.63 689.01 C 849.65 688.99 845.67 688.91 841.71 689.15 C 840.57 689.94 839.43 689.95 838.30 689.17 C 836.52 689.04 834.76 688.99 833.00 688.94 C 833.00 683.96 832.97 678.97 833.04 673.99 C 833.02 671.73 833.17 669.38 832.18 667.29 C 832.25 660.99 831.09 654.41 832.82 648.29 C 833.25 638.87 832.85 629.43 833.03 620.01 C 832.98 617.41 833.33 614.67 832.15 612.27 C 832.11 611.08 832.11 609.90 832.15 608.73 C 833.52 605.91 832.99 602.70 832.82 599.70 C 831.14 594.58 832.21 589.01 832.18 583.71 C 833.32 581.28 832.98 578.55 833.03 575.96 C 832.87 569.54 833.21 563.12 832.82 556.71 C 831.67 554.28 832.00 551.55 831.97 548.97 C 832.15 535.55 831.75 522.12 832.18 508.71 C 833.53 505.68 832.88 502.28 833.03 499.08 C 832.92 496.14 833.44 493.04 832.17 490.29 C 831.77 440.52 832.12 390.73 832.00 340.95 C 832.00 273.11 832.00 205.28 832.00 137.45 C 832.81 136.63 833.62 135.82 834.44 135.00 Z" />
<path fill="#000000" opacity="1.00" d=" M 462.39 136.76 C 463.29 136.48 464.20 136.22 465.12 135.99 C 467.50 137.75 471.09 135.30 472.89 138.38 C 473.58 143.13 471.99 148.18 473.86 152.73 C 473.90 154.24 473.91 155.76 473.87 157.28 C 472.66 159.27 472.72 161.69 473.82 163.71 C 473.93 167.36 474.65 171.24 473.17 174.71 C 472.88 187.90 472.88 201.11 473.18 214.29 C 474.31 216.70 473.99 219.41 474.03 221.99 C 473.88 229.76 474.19 237.53 473.86 245.30 C 472.94 246.49 473.01 247.65 474.04 248.78 C 473.85 250.10 473.65 251.44 473.19 252.71 C 472.89 256.56 472.90 260.44 473.18 264.29 C 474.87 268.96 473.66 274.07 473.99 278.93 C 473.70 283.17 474.85 287.70 473.11 291.72 C 472.99 293.73 472.83 295.85 473.83 297.71 C 474.23 349.47 473.88 401.25 474.00 453.02 C 474.00 512.01 474.00 571.00 474.00 629.99 C 474.08 637.09 473.81 644.19 474.16 651.29 C 475.08 652.66 475.15 654.37 474.09 655.72 C 474.00 657.73 473.83 659.85 474.83 661.71 C 475.17 669.94 474.98 678.18 474.93 686.42 C 474.61 687.06 473.95 688.36 473.63 689.00 C 469.54 688.99 465.45 688.99 461.37 689.00 C 461.05 688.36 460.39 687.07 460.07 686.42 C 459.91 578.27 460.05 470.11 460.00 361.95 C 459.88 329.54 460.24 297.11 459.82 264.71 C 458.29 261.00 459.21 256.89 459.00 253.00 C 459.25 246.15 458.45 239.24 459.46 232.45 C 458.93 230.72 458.82 228.89 459.83 227.29 C 460.09 223.10 460.11 218.90 459.81 214.71 C 459.32 213.44 459.13 212.10 458.96 210.77 C 460.00 209.64 460.05 208.48 459.11 207.29 C 459.07 205.76 459.07 204.24 459.12 202.72 C 459.96 201.58 459.97 200.44 459.15 199.29 C 458.81 192.85 459.11 186.40 458.97 179.95 C 459.00 177.39 458.67 174.68 459.85 172.29 C 459.99 170.10 459.99 167.90 459.88 165.71 C 459.02 164.56 459.02 163.42 459.89 162.29 C 459.95 160.43 459.95 158.57 459.87 156.72 C 458.69 154.72 458.62 152.22 459.94 150.26 C 459.95 148.57 460.00 146.81 459.15 145.28 C 459.05 143.38 459.02 141.48 459.03 139.58 C 459.36 138.96 460.03 137.71 460.36 137.09 C 460.87 137.01 461.88 136.84 462.39 136.76 Z" />
<path fill="#000000" opacity="1.00" d=" M 534.41 135.99 C 539.09 136.01 543.77 135.96 548.45 136.05 C 549.01 136.37 550.13 137.00 550.68 137.32 C 551.00 137.88 551.63 138.99 551.95 139.55 C 552.07 194.70 551.97 249.85 552.00 305.00 C 552.10 313.09 551.78 321.20 552.18 329.29 C 552.70 330.47 552.97 331.71 553.01 333.01 C 552.99 435.69 553.01 538.38 553.00 641.06 C 553.02 642.32 553.30 643.54 553.83 644.71 C 554.21 651.14 553.88 657.58 554.03 664.02 C 553.99 666.59 554.31 669.30 553.18 671.71 C 552.71 676.99 553.30 682.31 552.88 687.59 C 551.85 688.51 550.68 689.25 549.55 690.04 C 546.81 689.53 543.92 690.19 541.27 689.18 C 538.65 688.98 536.01 689.12 533.39 688.88 C 532.50 687.84 531.76 686.69 530.98 685.58 C 531.03 526.72 530.98 367.86 531.00 209.00 C 531.01 205.57 531.06 202.13 530.84 198.71 C 529.89 197.33 529.89 195.66 530.84 194.29 C 531.29 175.66 530.73 157.01 531.12 138.39 C 532.14 137.50 533.29 136.77 534.41 135.99 Z" />
<path fill="#000000" opacity="1.00" d=" M 588.58 136.06 C 591.53 135.99 594.49 135.99 597.45 136.04 C 598.01 136.36 599.13 137.00 599.69 137.32 C 600.00 137.88 600.63 138.99 600.95 139.55 C 600.96 149.80 601.18 160.05 600.84 170.29 C 599.69 172.29 599.70 174.70 600.83 176.71 C 601.22 227.47 600.89 278.24 601.00 329.01 C 601.00 410.34 601.00 491.67 601.00 573.00 C 601.01 574.28 601.29 575.52 601.83 576.70 C 602.02 579.37 602.39 582.20 601.17 584.71 C 601.27 590.67 600.05 596.94 601.85 602.71 C 602.00 605.05 602.33 607.56 601.14 609.72 C 601.04 611.56 601.04 613.42 601.14 615.28 C 602.43 617.76 602.00 620.62 601.85 623.30 C 600.76 624.99 600.79 627.00 601.83 628.71 C 602.11 633.90 602.09 639.10 601.84 644.29 C 600.88 645.66 600.89 647.33 601.84 648.71 C 602.17 661.28 601.98 673.85 601.93 686.42 C 601.61 687.05 600.96 688.32 600.64 688.95 C 598.99 688.99 597.34 689.05 595.71 689.17 C 594.60 689.88 593.47 689.92 592.32 689.30 C 590.20 689.13 586.46 689.13 586.99 686.01 C 587.01 632.99 586.99 579.97 587.00 526.96 C 586.99 523.20 587.10 519.45 586.82 515.71 C 586.29 514.51 586.02 513.27 585.99 511.98 C 586.00 387.11 586.00 262.24 586.00 137.38 C 586.64 137.05 587.93 136.39 588.58 136.06 Z" />
<path fill="#000000" opacity="1.00" d=" M 612.45 136.00 C 615.48 136.00 618.51 136.00 621.55 136.00 C 622.36 136.82 623.17 137.63 624.00 138.44 C 624.11 184.39 623.77 230.35 624.17 276.29 C 625.32 278.70 624.98 281.42 625.03 284.00 C 624.86 300.43 625.22 316.87 624.85 333.29 C 624.03 334.43 624.04 335.57 624.86 336.71 C 625.02 339.23 625.02 341.76 624.85 344.29 C 623.76 345.98 623.78 348.01 624.84 349.71 C 625.21 400.81 624.89 451.92 625.00 503.02 C 625.00 564.02 624.99 625.03 625.01 686.03 C 625.51 689.13 621.79 689.13 619.68 689.31 C 617.98 690.08 616.14 690.01 614.37 689.59 C 613.27 688.95 611.97 688.59 611.10 687.63 C 610.70 680.33 611.32 673.01 610.82 665.71 C 609.38 662.33 610.15 658.58 610.00 655.03 C 610.00 482.83 610.00 310.64 610.00 138.44 C 610.81 137.63 611.63 136.82 612.45 136.00 Z" />
<path fill="#000000" opacity="1.00" d=" M 644.44 136.00 C 649.81 136.00 655.18 136.00 660.55 136.00 C 661.36 136.81 662.17 137.63 663.00 138.44 C 662.99 168.96 663.03 199.48 662.98 230.00 C 663.07 232.90 662.52 236.01 663.87 238.72 C 663.90 240.24 663.90 241.75 663.86 243.27 C 662.64 245.67 663.01 248.42 662.97 251.01 C 663.15 261.10 662.75 271.21 663.18 281.29 C 663.70 282.48 663.98 283.72 664.00 285.02 C 664.00 418.71 664.00 552.40 664.00 686.10 C 664.39 689.66 660.00 688.98 657.70 689.24 C 656.28 690.03 654.63 690.13 653.29 689.15 C 649.99 688.37 645.54 690.43 643.11 687.61 C 642.59 683.86 643.75 679.86 642.18 676.29 C 641.76 630.86 642.12 585.40 642.00 539.96 C 642.00 406.12 642.00 272.28 642.00 138.44 C 642.81 137.63 643.62 136.82 644.44 136.00 Z" />
<path fill="#000000" opacity="1.00" d=" M 680.95 138.27 C 681.96 137.49 682.89 136.58 683.98 135.90 C 685.07 136.58 686.03 137.47 687.05 138.27 C 686.93 197.17 687.03 256.07 687.00 314.96 C 687.05 320.07 686.83 325.19 687.18 330.29 C 688.83 334.65 687.69 339.44 688.00 343.99 C 687.72 353.47 688.58 363.02 687.56 372.45 C 688.23 376.26 688.01 380.12 688.00 383.97 C 688.00 484.65 687.99 585.34 688.00 686.02 C 688.79 690.19 681.13 690.14 681.99 685.96 C 682.01 632.66 682.00 579.36 682.00 526.06 C 681.79 522.15 682.69 518.03 681.19 514.30 C 680.87 510.72 680.77 507.10 681.43 503.56 C 680.67 499.07 681.06 494.52 681.00 490.00 C 680.97 468.33 681.05 446.66 680.96 424.99 C 680.95 423.49 681.25 422.02 681.45 420.54 C 680.63 416.06 681.08 411.50 681.00 406.98 C 680.96 317.41 681.07 227.84 680.95 138.27 Z" />
<path fill="#000000" opacity="1.00" d=" M 698.38 135.99 C 704.45 136.13 710.54 135.76 716.61 136.12 C 716.93 136.44 717.56 137.07 717.88 137.39 C 718.19 150.93 717.89 164.50 718.00 178.05 C 718.02 179.32 718.29 180.54 718.82 181.71 C 719.21 187.79 718.88 193.89 719.03 199.98 C 718.99 202.56 719.31 205.28 718.18 207.70 C 718.00 210.70 717.46 213.91 718.86 216.72 C 718.94 218.57 718.94 220.43 718.87 222.28 C 717.66 224.44 717.98 226.94 718.15 229.30 C 718.69 230.46 718.98 231.68 719.00 232.97 C 718.99 342.31 719.00 451.65 719.00 560.98 C 719.07 567.08 718.83 573.19 719.15 579.29 C 719.95 580.42 719.95 581.56 719.15 582.71 C 718.78 592.76 719.13 602.83 718.97 612.90 C 719.01 615.50 718.65 618.26 719.83 620.70 C 720.07 623.89 720.08 627.10 719.82 630.29 C 718.30 634.10 719.09 638.31 719.19 642.29 C 720.75 646.35 719.74 650.81 719.99 655.05 C 719.74 659.25 720.76 663.69 719.18 667.71 C 718.79 674.67 719.09 681.65 719.00 688.62 C 718.36 688.95 717.07 689.60 716.42 689.93 C 712.85 690.02 709.27 690.10 705.71 689.81 C 703.32 688.46 699.90 689.97 698.11 687.62 C 697.69 680.99 698.32 674.33 697.82 667.71 C 696.57 664.98 697.04 661.91 696.98 659.02 C 697.07 485.54 696.89 312.06 697.07 138.58 C 697.40 137.93 698.05 136.64 698.38 135.99 Z" />
<path fill="#000000" opacity="1.00" d=" M 737.00 138.95 C 736.61 136.88 738.68 135.35 740.60 136.02 C 742.69 137.33 741.85 139.96 742.03 142.01 C 742.15 145.57 741.36 149.33 742.82 152.71 C 743.25 168.81 742.84 184.93 743.03 201.03 C 742.98 203.60 743.34 206.33 742.14 208.72 C 742.04 210.57 742.04 212.43 742.14 214.29 C 743.34 216.69 742.98 219.43 743.03 222.02 C 742.86 232.77 743.22 243.54 742.85 254.29 C 742.04 255.43 742.04 256.57 742.85 257.70 C 743.20 313.46 742.90 369.23 743.00 424.99 C 743.12 464.42 742.76 503.87 743.18 543.29 C 744.47 546.90 744.50 551.10 743.18 554.71 C 743.19 559.68 742.17 564.91 743.82 569.71 C 744.12 586.56 744.12 603.44 743.82 620.29 C 742.43 623.44 743.03 626.97 743.16 630.31 C 744.03 631.52 743.99 632.71 743.02 633.90 C 743.25 634.31 743.72 635.13 743.95 635.54 C 743.96 648.12 744.17 660.71 743.84 673.29 C 743.04 674.42 743.04 675.56 743.84 676.70 C 744.02 680.02 744.44 683.47 743.29 686.67 C 743.19 687.26 742.98 688.42 742.88 689.00 C 741.28 688.99 739.69 688.99 738.10 689.00 C 738.02 688.42 737.84 687.26 737.75 686.68 C 737.05 685.53 737.08 684.40 737.85 683.29 C 737.71 677.33 738.93 671.06 737.16 665.29 C 736.96 662.76 736.96 660.23 737.14 657.71 C 738.11 656.34 738.09 654.65 737.16 653.29 C 736.79 607.86 737.10 562.41 737.00 516.98 C 737.00 390.97 737.00 264.96 737.00 138.95 Z" />
<path fill="#000000" opacity="1.00" d=" M 754.39 136.13 C 757.78 135.84 761.22 135.84 764.62 136.13 C 765.49 137.16 766.23 138.30 767.02 139.42 C 766.98 257.94 767.02 376.46 767.00 494.98 C 767.01 496.27 767.29 497.51 767.82 498.71 C 768.12 504.23 768.10 509.77 767.83 515.29 C 766.69 517.29 766.70 519.70 767.83 521.71 C 768.04 526.65 768.33 531.64 767.57 536.56 C 768.05 539.36 768.11 542.20 768.02 545.05 C 767.94 592.18 768.08 639.32 767.95 686.45 C 767.63 687.00 766.99 688.10 766.67 688.65 C 766.08 689.03 764.90 689.78 764.30 690.16 C 763.30 689.82 762.32 689.47 761.34 689.12 C 760.46 689.12 759.58 689.14 758.73 689.17 C 757.28 690.37 755.75 689.35 754.30 688.91 C 753.99 688.29 753.38 687.04 753.07 686.42 C 752.90 503.94 753.06 321.45 752.99 138.96 C 752.85 137.73 753.31 136.79 754.39 136.13 Z" />
<path fill="#000000" opacity="1.00" d=" M 786.39 136.13 C 789.78 135.83 793.22 135.84 796.62 136.12 C 798.99 137.90 797.45 141.33 798.81 143.71 C 799.25 188.48 798.87 233.26 799.00 278.04 C 798.99 360.36 799.01 442.69 798.99 525.02 C 799.10 528.24 798.46 531.65 799.82 534.71 C 799.98 541.23 800.40 547.83 799.60 554.32 C 800.48 562.42 799.78 570.79 800.00 579.01 C 799.89 593.10 800.21 607.20 799.84 621.29 C 798.77 622.99 798.78 625.00 799.84 626.71 C 800.18 646.62 799.96 666.53 799.95 686.44 C 799.63 687.00 799.00 688.12 798.68 688.68 C 798.12 689.00 797.00 689.64 796.45 689.96 C 793.81 689.99 791.17 689.99 788.55 689.96 C 787.99 689.64 786.87 689.00 786.31 688.68 C 786.00 688.12 785.37 687.01 785.05 686.45 C 784.93 535.30 785.03 384.15 785.00 233.01 C 784.90 219.24 785.20 205.47 784.84 191.71 C 783.88 190.33 783.89 188.67 784.84 187.29 C 785.09 183.44 785.09 179.56 784.84 175.71 C 783.89 174.33 783.88 172.66 784.84 171.29 C 785.30 160.00 784.71 148.68 785.12 137.39 C 785.44 137.08 786.07 136.45 786.39 136.13 Z" />
<path fill="#000000" opacity="1.00" d=" M 807.99 138.94 C 807.47 136.81 809.79 136.08 811.39 135.69 C 812.25 136.63 813.12 137.56 814.00 138.49 C 814.00 191.65 814.00 244.80 814.00 297.96 C 814.02 302.16 813.71 306.39 814.43 310.56 C 813.67 314.68 814.05 318.88 814.00 323.04 C 813.98 333.37 814.05 343.69 813.96 354.01 C 813.93 355.93 813.96 357.93 814.82 359.71 C 815.12 376.23 815.12 392.77 814.82 409.29 C 813.20 413.75 814.16 418.65 814.18 423.29 C 815.29 425.70 814.99 428.40 815.03 430.97 C 814.87 440.08 815.21 449.19 814.85 458.29 C 814.03 459.43 814.04 460.57 814.85 461.71 C 815.20 536.46 814.89 611.22 815.01 685.98 C 815.82 689.58 809.51 690.38 809.05 687.01 C 808.88 675.99 809.08 664.95 809.00 653.92 C 808.98 652.64 808.69 651.43 808.14 650.28 C 808.04 648.42 808.04 646.56 808.13 644.71 C 809.02 643.19 808.93 641.42 808.93 639.73 C 807.22 636.32 808.11 632.35 808.19 628.71 C 809.00 626.92 809.05 624.94 809.04 623.03 C 808.96 612.70 808.99 602.37 809.03 592.03 C 809.04 590.41 808.88 588.76 808.15 587.30 C 807.97 584.95 807.69 582.47 808.83 580.29 C 809.20 574.55 808.89 568.79 809.03 563.05 C 808.99 560.45 809.30 557.73 808.19 555.30 C 808.01 551.97 807.43 548.44 808.82 545.29 C 809.20 539.52 808.89 533.74 809.03 527.97 C 808.98 525.40 809.31 522.69 808.18 520.29 C 807.77 470.21 808.12 420.11 808.00 370.02 C 807.99 292.99 808.01 215.96 807.99 138.94 Z" />
<path fill="#000000" opacity="1.00" d=" M 864.00 138.92 C 863.23 135.62 868.77 134.68 868.95 138.10 C 869.06 183.42 868.97 228.75 869.00 274.06 C 869.03 275.33 869.30 276.54 869.82 277.71 C 870.11 282.90 870.11 288.11 869.82 293.29 C 868.55 296.25 868.56 299.75 869.82 302.71 C 870.12 309.95 870.13 317.20 869.79 324.44 C 870.25 343.62 869.88 362.82 870.00 382.00 C 870.00 430.02 870.00 478.03 870.00 526.05 C 870.10 564.13 869.79 602.22 870.15 640.29 C 870.95 641.43 870.95 642.56 870.15 643.71 C 869.80 671.66 870.10 699.62 870.00 727.58 C 869.16 728.36 868.33 729.16 867.53 729.97 C 866.90 729.63 865.63 728.95 865.00 728.60 C 864.92 720.64 865.18 712.67 864.85 704.71 C 863.98 703.53 864.02 702.39 864.96 701.27 C 864.94 699.57 864.98 697.83 864.17 696.29 C 863.77 666.22 864.11 636.13 864.00 606.05 C 864.00 450.34 864.00 294.63 864.00 138.92 Z" />
<path fill="#000000" opacity="1.00" d=" M 880.00 138.96 C 879.19 135.65 884.73 134.65 884.95 138.08 C 885.17 190.15 884.76 242.23 885.16 294.29 C 886.10 295.65 886.09 297.34 885.16 298.71 C 884.77 311.45 885.14 324.21 884.97 336.95 C 885.02 339.55 884.63 342.31 885.86 344.72 C 885.94 346.57 885.94 348.43 885.86 350.28 C 883.80 355.70 885.95 361.63 885.07 367.27 C 886.89 371.24 885.67 375.78 885.99 380.00 C 885.67 384.55 886.87 389.37 885.14 393.71 C 885.04 395.57 885.04 397.43 885.14 399.29 C 886.51 402.55 886.45 406.42 885.18 409.71 C 884.75 421.13 885.15 432.58 884.97 444.02 C 884.99 446.59 884.68 449.30 885.82 451.71 C 886.24 487.79 885.88 523.89 886.00 559.98 C 886.02 616.31 885.96 672.64 886.03 728.97 C 884.45 729.43 882.84 729.55 881.29 728.98 C 880.99 728.34 880.38 727.06 880.08 726.42 C 879.87 711.93 880.10 697.44 879.96 682.96 C 879.97 680.63 879.74 678.17 880.94 676.06 C 880.72 675.66 880.27 674.86 880.05 674.46 C 879.93 495.96 880.04 317.46 880.00 138.96 Z" />
<path fill="#000000" opacity="1.00" d=" M 170.57 137.06 C 175.96 136.94 181.35 137.04 186.74 136.96 C 187.85 138.43 188.93 139.92 190.00 141.42 C 189.99 234.95 190.01 328.49 190.00 422.02 C 190.03 423.29 190.30 424.52 190.81 425.70 C 191.02 430.67 191.28 435.84 190.18 440.71 C 189.87 445.23 189.92 449.77 190.15 454.30 C 190.96 455.43 190.96 456.56 190.15 457.70 C 189.85 462.80 190.08 467.90 189.97 473.00 C 190.00 475.58 189.69 478.29 190.82 480.71 C 191.24 526.14 190.88 571.58 191.00 617.02 C 190.91 640.54 191.17 664.09 190.88 687.60 C 190.57 687.92 189.93 688.56 189.61 688.88 C 183.24 689.22 176.83 688.88 170.45 689.00 C 169.63 688.17 168.82 687.36 168.00 686.55 C 168.00 620.38 167.99 554.20 168.00 488.02 C 167.98 486.72 167.70 485.48 167.18 484.29 C 166.88 479.10 166.89 473.89 167.18 468.71 C 168.31 466.29 168.00 463.57 168.03 460.99 C 167.86 448.56 168.23 436.13 167.84 423.71 C 166.90 422.33 166.87 420.65 167.87 419.29 C 168.02 416.94 168.29 414.47 167.17 412.29 C 167.28 406.33 166.06 400.05 167.85 394.29 C 168.00 392.09 167.99 389.90 167.85 387.71 C 166.68 385.55 166.98 383.05 167.15 380.70 C 168.34 378.30 167.98 375.57 168.03 373.00 C 167.86 364.57 168.24 356.13 167.82 347.71 C 166.69 345.31 167.00 342.61 166.97 340.05 C 167.14 329.27 166.78 318.48 167.15 307.71 C 167.96 306.57 167.96 305.43 167.15 304.30 C 166.94 301.44 166.94 298.56 167.17 295.71 C 168.36 293.39 168.36 290.61 167.17 288.29 C 166.74 241.21 167.17 194.10 166.96 147.01 C 166.91 144.77 166.95 142.48 167.69 140.33 C 167.79 139.84 168.00 138.85 168.11 138.36 C 168.72 138.03 169.96 137.39 170.57 137.06 Z" />
<path fill="#000000" opacity="1.00" d=" M 201.45 137.00 C 204.48 137.00 207.52 137.00 210.56 137.00 C 211.37 137.82 212.18 138.63 213.00 139.45 C 213.00 182.30 213.00 225.16 213.00 268.01 C 213.01 269.43 213.08 270.86 213.18 272.29 C 213.69 273.45 213.97 274.67 214.00 275.94 C 214.00 351.29 214.00 426.63 214.00 501.97 C 214.11 527.74 213.79 553.52 214.16 579.29 C 215.10 580.66 215.11 582.33 214.16 583.71 C 213.90 596.23 213.88 608.77 214.17 621.29 C 214.99 622.82 214.95 624.57 214.94 626.27 C 213.54 628.52 213.67 631.38 214.83 633.71 C 215.11 640.56 215.12 647.44 214.82 654.29 C 213.46 657.36 214.10 660.79 213.99 664.04 C 213.91 671.89 214.20 679.77 213.88 687.62 C 212.54 689.73 209.77 688.79 207.70 689.24 C 206.60 689.81 205.49 689.86 204.35 689.41 C 202.83 688.97 200.14 688.99 200.04 686.91 C 199.92 676.59 200.02 666.26 200.03 655.94 C 200.06 654.34 199.85 652.74 199.18 651.29 C 198.88 640.10 198.89 628.89 199.17 617.71 C 200.31 615.53 200.02 613.04 199.85 610.70 C 199.30 609.54 199.01 608.32 199.00 607.04 C 199.01 482.04 198.99 357.04 199.00 232.03 C 199.04 228.53 199.20 225.02 198.57 221.56 C 199.08 218.39 199.10 215.18 199.01 211.98 C 198.98 187.80 199.01 163.62 199.00 139.44 C 199.82 138.63 200.63 137.82 201.45 137.00 Z" />
<path fill="#000000" opacity="1.00" d=" M 343.37 137.10 C 346.06 136.83 348.76 137.01 351.46 137.05 C 352.01 137.37 353.10 138.01 353.64 138.33 C 354.02 138.90 354.77 140.05 355.15 140.62 C 354.89 142.00 354.64 143.38 354.18 144.71 C 353.88 150.23 353.88 155.77 354.18 161.29 C 354.69 162.47 354.97 163.70 355.00 164.99 C 354.99 238.99 355.00 313.00 355.00 387.00 C 355.12 435.43 354.76 483.87 355.18 532.29 C 356.60 535.47 356.06 539.00 355.62 542.33 L 355.07 542.82 C 355.26 542.99 355.65 543.33 355.84 543.51 L 355.02 544.28 C 356.61 544.77 355.46 546.77 355.99 547.95 C 356.01 594.15 355.99 640.35 356.00 686.55 C 355.18 687.36 354.36 688.17 353.56 689.00 C 350.50 688.98 347.44 689.18 344.39 688.88 C 342.04 687.29 343.31 684.08 342.78 681.71 C 342.34 680.43 342.15 679.11 341.99 677.79 C 343.68 675.78 341.15 673.31 342.84 671.29 C 343.10 664.10 343.12 656.89 342.82 649.71 C 341.36 646.23 342.05 642.35 342.18 638.71 C 343.35 636.37 343.36 633.61 342.17 631.29 C 341.77 579.86 342.11 528.41 342.00 476.97 C 342.00 368.29 342.00 259.62 342.00 150.94 C 341.98 149.53 341.92 148.12 341.84 146.71 C 340.75 145.04 340.95 143.13 341.59 141.35 C 341.96 139.85 341.98 138.09 343.37 137.10 Z" />
<path fill="#000000" opacity="1.00" d=" M 390.45 136.91 C 391.94 137.11 392.87 138.46 394.05 139.26 C 393.92 200.18 394.06 261.09 393.98 322.01 C 393.89 324.83 393.93 327.66 394.45 330.45 C 393.58 336.35 394.01 342.35 394.17 348.29 C 395.41 350.78 395.00 353.62 394.85 356.30 C 393.77 358.00 393.78 360.01 394.83 361.72 C 394.84 362.57 394.84 363.42 394.85 364.27 C 393.88 365.65 393.89 367.33 394.84 368.71 C 395.21 419.47 394.90 470.25 395.00 521.02 C 395.10 572.11 394.79 623.21 395.16 674.29 C 396.10 675.66 396.11 677.34 395.15 678.71 C 394.95 681.68 395.14 684.66 394.89 687.63 C 394.10 688.69 392.77 688.93 391.60 689.30 C 390.74 688.36 389.87 687.43 389.00 686.52 C 389.00 631.02 389.00 575.53 389.00 520.03 C 388.88 485.59 389.24 451.14 388.82 416.71 C 387.70 414.31 388.00 411.62 387.97 409.07 C 388.10 403.62 387.81 398.15 388.17 392.71 C 388.87 391.23 389.05 389.59 389.03 387.98 C 388.98 375.63 388.98 363.29 389.03 350.95 C 389.05 349.35 388.84 347.75 388.18 346.29 C 387.88 341.43 387.89 336.56 388.18 331.71 C 389.42 328.98 388.95 325.93 389.02 323.04 C 388.99 307.70 388.98 292.36 389.03 277.03 C 389.05 275.40 388.87 273.77 388.18 272.29 C 387.91 264.52 387.59 256.67 388.88 248.97 C 388.84 244.11 389.79 238.98 388.18 234.29 C 387.86 217.44 387.91 200.56 388.15 183.71 C 388.95 182.57 388.95 181.43 388.15 180.29 C 387.79 167.01 388.11 153.72 387.99 140.44 C 388.79 139.25 389.56 138.04 390.45 136.91 Z" />
<path fill="#000000" opacity="1.00" d=" M 413.08 137.00 C 419.72 137.00 426.36 137.00 433.00 137.00 C 432.98 144.35 433.04 151.70 432.96 159.06 C 432.96 161.29 432.83 163.63 433.82 165.71 C 434.13 174.89 434.09 184.10 433.84 193.29 C 432.89 194.66 432.89 196.34 433.84 197.71 C 434.21 250.47 433.89 303.25 434.00 356.02 C 434.10 411.44 433.79 466.87 434.15 522.29 C 434.94 523.43 434.95 524.56 434.17 525.70 C 434.06 529.35 433.36 533.23 434.82 536.71 C 435.12 546.56 435.11 556.44 434.83 566.29 C 434.00 567.82 434.05 569.57 434.06 571.26 C 435.13 572.99 435.01 575.05 435.04 577.01 C 434.86 613.87 435.19 650.75 434.88 687.60 C 434.57 687.92 433.93 688.56 433.62 688.88 C 427.55 689.11 421.45 689.11 415.39 688.88 C 414.50 687.84 413.76 686.69 412.98 685.59 C 413.02 629.74 412.99 573.89 413.00 518.05 C 412.88 477.60 413.23 437.15 412.82 396.71 C 411.68 394.31 412.00 391.60 411.97 389.04 C 412.15 378.93 411.75 368.81 412.18 358.71 C 413.02 356.94 413.05 354.97 413.04 353.06 C 412.96 343.72 412.99 334.38 413.03 325.04 C 413.05 323.41 412.86 321.78 412.18 320.29 C 411.88 310.11 411.88 299.89 412.18 289.71 C 413.57 286.56 412.97 283.03 412.83 279.71 C 411.91 278.33 411.88 276.65 412.84 275.29 C 413.09 269.43 413.12 263.56 412.82 257.71 C 411.82 255.61 411.96 253.26 411.96 251.01 C 412.16 216.58 411.76 182.14 412.16 147.71 C 413.07 146.24 413.27 144.48 411.96 143.12 C 412.23 142.20 412.52 141.28 412.82 140.36 C 412.90 139.24 412.99 138.12 413.08 137.00 Z" />
<path fill="#000000" opacity="1.00" d=" M 482.99 140.01 C 482.44 137.85 484.74 137.06 486.39 136.69 C 487.25 137.62 488.12 138.56 489.00 139.48 C 489.00 218.67 489.00 297.85 489.00 377.03 C 489.01 378.31 489.30 379.53 489.85 380.70 C 490.02 383.05 490.29 385.53 489.17 387.71 C 488.78 394.47 489.13 401.24 488.97 408.01 C 489.00 410.58 488.68 413.30 489.82 415.71 C 489.76 421.67 490.89 427.92 489.18 433.71 C 488.89 437.56 488.89 441.44 489.18 445.29 C 490.53 450.20 490.54 455.79 489.18 460.71 C 488.91 463.89 488.92 467.10 489.17 470.29 C 489.86 471.76 490.04 473.39 490.03 475.00 C 489.96 488.33 490.02 501.65 490.00 514.98 C 489.94 519.09 490.32 523.23 489.59 527.31 C 490.48 535.09 489.78 543.13 490.00 551.01 C 490.00 596.02 489.99 641.03 490.01 686.05 C 490.51 688.76 487.41 689.26 485.41 689.15 C 485.08 688.47 484.41 687.10 484.07 686.41 C 483.90 627.61 484.04 568.80 484.00 509.99 C 483.84 506.43 484.62 502.67 483.18 499.29 C 482.77 485.54 483.11 471.78 483.00 458.02 C 483.14 453.20 482.56 448.33 483.44 443.56 C 482.58 438.42 483.14 433.21 483.00 428.04 C 483.10 407.93 482.80 387.81 483.15 367.70 C 483.95 366.56 483.95 365.43 483.15 364.30 C 482.90 349.11 482.89 333.90 483.16 318.71 C 484.11 317.34 484.09 315.66 483.16 314.29 C 482.89 300.43 482.90 286.56 483.16 272.71 C 484.11 271.33 484.09 269.66 483.16 268.29 C 482.78 225.53 483.12 182.77 482.99 140.01 Z" />
<path fill="#000000" opacity="1.00" d=" M 498.99 140.01 C 498.47 137.04 501.89 136.75 504.01 136.83 C 504.25 141.11 503.23 145.61 504.82 149.71 C 505.24 194.45 504.88 239.21 505.00 283.97 C 505.00 340.96 505.00 397.96 505.00 454.95 C 505.12 485.40 504.75 515.85 505.18 546.29 C 506.42 548.36 504.25 550.71 505.84 552.71 C 506.06 555.56 506.05 558.43 505.83 561.29 C 504.47 565.22 504.51 569.77 505.82 573.71 C 506.12 579.56 506.10 585.43 505.84 591.29 C 504.78 592.99 504.78 595.00 505.84 596.71 C 506.17 639.94 505.99 683.18 505.93 726.41 C 505.59 727.09 504.92 728.47 504.59 729.15 C 502.93 729.02 500.23 729.20 500.04 726.98 C 499.83 696.56 500.24 666.13 499.84 635.71 C 498.89 634.33 498.89 632.66 499.84 631.29 C 500.09 617.77 500.13 604.22 499.82 590.71 C 499.29 589.51 499.02 588.26 498.99 586.96 C 499.00 437.98 499.01 289.00 498.99 140.01 Z" />
<path fill="#000000" opacity="1.00" d=" M 515.00 139.95 C 514.35 137.05 518.73 135.64 519.88 138.41 C 520.20 142.03 519.87 145.67 520.14 149.29 C 520.96 150.43 520.96 151.57 520.13 152.71 C 519.99 154.90 520.00 157.10 520.15 159.29 C 521.34 161.69 520.97 164.43 521.03 167.02 C 520.85 178.11 521.25 189.21 520.82 200.29 C 519.50 203.12 519.99 206.30 520.18 209.30 C 521.53 212.35 520.89 215.77 521.01 219.00 C 520.98 321.69 521.01 424.38 521.00 527.07 C 521.03 528.33 521.30 529.54 521.82 530.71 C 522.26 594.79 521.83 658.89 522.04 722.97 C 522.02 724.51 522.07 726.07 521.89 727.61 C 520.95 729.27 519.00 728.95 517.41 729.15 C 517.08 728.47 516.41 727.10 516.07 726.41 C 515.78 702.85 516.28 679.27 515.83 655.71 C 514.22 651.66 515.26 647.20 515.01 642.97 C 515.27 638.76 514.21 634.31 515.84 630.30 C 516.03 627.77 516.03 625.23 515.85 622.71 C 514.78 621.00 514.76 618.96 515.86 617.27 C 515.87 616.08 515.88 614.90 515.86 613.73 C 514.75 612.03 514.79 609.99 515.84 608.29 C 516.10 599.10 516.13 589.89 515.82 580.71 C 514.69 578.30 515.00 575.60 514.97 573.04 C 515.14 557.93 514.78 542.81 515.15 527.70 C 515.95 526.57 515.95 525.43 515.15 524.29 C 514.80 473.54 515.10 422.77 515.00 372.01 C 515.00 294.66 515.00 217.30 515.00 139.95 Z" />
<path fill="#000000" opacity="1.00" d=" M 570.00 139.92 C 569.26 135.84 576.76 135.86 576.00 139.94 C 576.00 186.95 576.00 233.96 576.00 280.96 C 576.00 284.74 575.90 288.52 576.18 292.29 C 577.44 295.04 576.94 298.13 577.02 301.06 C 576.83 306.22 577.43 311.42 576.55 316.54 C 576.93 317.96 577.07 319.43 576.16 320.71 C 575.90 332.23 575.87 343.77 576.18 355.29 C 577.77 359.32 576.74 363.78 576.99 368.00 C 576.69 372.55 577.82 377.34 576.18 381.71 C 575.78 388.12 576.12 394.55 575.97 400.97 C 576.00 403.55 575.68 406.28 576.82 408.71 C 577.25 424.78 576.84 440.86 577.03 456.94 C 577.00 459.54 577.30 462.27 576.18 464.71 C 576.24 470.67 575.10 476.92 576.82 482.71 C 577.12 495.56 577.11 508.44 576.82 521.29 C 575.50 524.90 575.52 529.09 576.82 532.71 C 577.24 583.80 576.88 634.92 577.00 686.02 C 577.79 689.65 571.36 690.36 571.05 686.91 C 570.81 666.52 571.28 646.10 570.82 625.71 C 569.68 623.28 570.00 620.55 569.97 617.96 C 570.07 613.21 569.84 608.45 570.18 603.71 C 571.31 601.28 570.99 598.54 571.03 595.95 C 570.92 590.87 571.15 585.78 570.85 580.71 C 569.98 579.53 570.02 578.38 570.95 577.26 C 570.99 574.98 570.53 572.74 570.46 570.48 C 571.21 566.49 571.63 562.16 570.18 558.29 C 569.79 552.20 570.12 546.10 569.97 540.01 C 570.00 537.42 569.68 534.70 570.82 532.29 C 571.11 525.77 571.11 519.22 570.83 512.71 C 570.29 511.52 570.01 510.29 570.00 509.01 C 570.00 451.35 570.00 393.69 570.00 336.02 C 570.10 326.59 569.78 317.14 570.17 307.71 C 571.30 305.70 571.29 303.30 570.17 301.29 C 569.89 284.44 569.89 267.56 570.16 250.71 C 571.21 249.00 571.21 247.00 570.16 245.29 C 569.78 210.17 570.11 175.04 570.00 139.92 Z" />
<path fill="#000000" opacity="1.00" d=" M 137.05 140.08 C 137.03 138.05 140.16 137.04 141.29 138.72 C 142.51 139.77 141.80 141.60 142.04 143.00 C 142.06 151.76 141.82 160.54 142.15 169.29 C 142.96 170.43 142.96 171.56 142.15 172.70 C 141.90 181.23 141.89 189.77 142.16 198.29 C 143.22 199.99 143.21 202.00 142.17 203.71 C 141.90 211.56 141.88 219.44 142.18 227.29 C 143.89 232.74 142.74 238.66 142.85 244.29 C 142.04 245.44 142.04 246.57 142.86 247.70 C 142.99 250.37 143.44 253.24 142.14 255.72 C 142.05 257.57 142.05 259.43 142.14 261.28 C 143.68 264.74 142.91 268.65 142.83 272.30 C 142.04 273.44 142.05 274.57 142.85 275.71 C 143.20 345.45 142.90 415.22 143.00 484.97 C 143.11 513.41 142.78 541.86 143.16 570.29 C 144.21 571.99 144.22 574.00 143.16 575.70 C 142.78 578.68 143.01 581.78 143.41 584.68 C 142.94 589.96 142.25 595.58 143.82 600.71 C 144.19 642.60 143.98 684.51 143.93 726.41 C 143.59 727.10 142.92 728.47 142.59 729.15 C 140.93 729.03 138.22 729.20 138.04 726.96 C 137.92 716.33 138.02 705.70 138.03 695.07 C 138.05 693.43 137.87 691.78 137.18 690.29 C 136.79 684.20 137.11 678.11 136.98 672.02 C 137.04 669.10 136.58 666.03 137.82 663.29 C 138.11 659.10 138.10 654.89 137.82 650.71 C 136.56 647.95 137.05 644.86 136.98 641.94 C 137.13 634.53 136.77 627.11 137.18 619.71 C 138.83 614.92 137.80 609.68 137.83 604.71 C 137.18 603.69 137.20 602.56 137.44 601.45 C 136.72 597.67 137.02 593.83 137.00 590.02 C 137.00 460.36 137.00 330.70 137.00 201.05 C 137.13 199.88 137.27 198.72 137.43 197.56 C 137.25 195.70 136.88 193.85 136.96 191.98 C 137.10 174.68 136.89 157.37 137.05 140.08 Z" />
<path fill="#000000" opacity="1.00" d=" M 151.99 141.42 C 153.19 140.18 153.71 137.41 155.92 137.97 C 157.37 137.95 158.22 139.72 158.00 141.02 C 158.12 157.11 157.76 173.21 158.18 189.29 C 159.02 191.07 159.06 193.06 159.04 194.99 C 158.98 202.34 158.98 209.68 159.04 217.03 C 159.04 218.95 159.05 220.94 158.15 222.70 C 157.97 225.05 157.70 227.53 158.83 229.71 C 159.23 257.78 158.88 285.87 159.00 313.95 C 159.00 390.65 159.00 467.34 159.00 544.03 C 159.10 568.12 158.79 592.21 159.15 616.29 C 159.96 617.43 159.96 618.56 159.15 619.71 C 158.92 626.89 158.87 634.10 159.18 641.29 C 160.40 643.79 160.02 646.62 159.84 649.30 C 158.63 651.61 158.65 654.38 159.83 656.71 C 160.12 671.89 160.11 687.10 159.83 702.29 C 158.79 703.99 158.77 706.00 159.85 707.70 C 159.99 710.37 160.44 713.23 159.14 715.72 C 159.05 717.56 159.04 719.42 159.12 721.28 C 160.27 722.95 160.12 724.92 159.26 726.68 C 159.17 727.30 158.97 728.55 158.87 729.17 C 157.24 728.89 155.09 729.44 154.22 727.61 C 153.96 726.30 153.84 724.97 153.67 723.68 C 153.39 722.37 153.16 721.08 152.95 719.78 C 153.99 718.65 154.05 717.49 153.15 716.29 C 152.80 664.54 153.10 612.78 153.00 561.02 C 153.00 454.69 152.99 348.36 153.01 242.03 C 152.98 240.73 152.70 239.48 152.18 238.29 C 151.87 228.44 151.91 218.56 152.15 208.71 C 152.95 207.57 152.96 206.43 152.16 205.29 C 151.99 200.71 151.61 196.08 152.46 191.55 C 152.04 189.29 151.86 186.99 152.13 184.70 C 153.32 182.72 153.29 180.30 152.17 178.30 C 151.77 166.01 152.12 153.71 151.99 141.42 Z" />
<path fill="#000000" opacity="1.00" d=" M 240.20 137.69 C 241.53 137.99 243.04 138.13 243.89 139.37 C 244.30 147.00 243.68 154.66 244.18 162.29 C 244.98 163.83 244.95 165.58 244.95 167.27 C 243.72 168.93 243.67 171.16 245.03 172.78 C 244.86 174.11 244.68 175.45 244.18 176.71 C 244.21 182.01 243.14 187.59 244.83 192.71 C 245.12 198.56 245.10 204.43 244.84 210.29 C 243.78 211.99 243.79 213.99 244.82 215.70 C 244.95 219.03 245.62 222.60 244.14 225.73 C 244.09 227.24 244.08 228.76 244.13 230.27 C 244.70 231.45 244.99 232.69 245.00 233.99 C 244.99 313.01 245.00 392.02 245.00 471.03 C 245.12 498.78 244.76 526.55 245.18 554.29 C 246.33 556.72 245.99 559.46 246.03 562.07 C 245.86 574.81 246.21 587.56 245.85 600.30 C 245.02 601.44 245.03 602.58 245.88 603.72 C 245.92 605.23 245.92 606.75 245.88 608.28 C 245.04 609.41 245.03 610.55 245.85 611.70 C 246.04 635.44 246.01 659.22 246.00 682.98 C 245.93 684.23 245.70 685.47 245.29 686.67 C 245.17 687.33 244.94 688.65 244.83 689.31 C 243.48 689.00 241.96 688.86 241.10 687.63 C 240.55 683.54 241.83 679.20 240.18 675.29 C 239.87 657.77 239.91 640.23 240.15 622.71 C 240.95 621.57 240.95 620.43 240.16 619.29 C 239.79 569.85 240.10 520.40 240.00 470.95 C 240.01 394.63 239.99 318.31 240.01 241.98 C 239.90 238.75 240.53 235.34 239.18 232.29 C 238.76 209.53 239.12 186.75 239.00 163.98 C 239.09 157.22 238.79 150.46 239.18 143.71 C 240.02 141.81 240.02 139.71 240.20 137.69 Z" />
<path fill="#000000" opacity="1.00" d=" M 264.37 137.99 C 264.93 137.99 266.06 137.99 266.62 137.99 C 266.95 138.64 267.60 139.94 267.93 140.58 C 268.19 194.82 267.75 249.06 268.16 303.29 C 269.11 304.66 269.09 306.34 268.16 307.71 C 267.90 314.57 267.88 321.44 268.17 328.29 C 269.35 330.61 269.39 333.42 268.13 335.73 C 268.08 337.24 268.08 338.75 268.14 340.27 C 269.75 343.96 268.76 348.11 269.00 352.00 C 268.75 358.81 269.55 365.69 268.55 372.46 C 269.38 377.69 269.02 383.02 268.82 388.29 C 267.59 390.79 267.98 393.62 268.17 396.30 C 269.42 399.02 268.94 402.07 269.05 404.97 C 268.93 407.56 269.42 410.37 268.07 412.74 C 268.04 414.42 268.00 416.17 268.83 417.71 C 269.12 437.23 269.11 456.77 268.83 476.29 C 267.70 478.30 267.70 480.70 268.83 482.71 C 269.22 546.79 268.90 610.90 268.99 674.99 C 268.99 676.29 269.29 677.53 269.89 678.72 C 270.06 680.70 269.96 682.71 269.43 684.64 C 269.06 686.23 268.84 687.95 267.60 689.15 C 266.10 688.87 265.13 687.56 263.95 686.74 C 264.07 629.80 263.97 572.86 264.00 515.93 C 263.88 493.52 264.24 471.10 263.82 448.71 C 262.58 445.98 263.04 442.92 262.98 440.03 C 263.07 340.21 262.89 240.40 263.07 140.58 C 263.39 139.93 264.05 138.64 264.37 137.99 Z" />
<path fill="#000000" opacity="1.00" d=" M 286.99 140.98 C 286.45 138.58 289.16 137.87 290.97 137.69 C 291.13 150.89 290.79 164.10 291.15 177.30 C 291.97 178.43 291.96 179.57 291.12 180.71 C 290.86 183.00 291.05 185.29 291.45 187.56 C 290.92 189.61 290.69 191.79 291.82 193.71 C 291.87 198.02 292.75 202.57 291.18 206.71 C 290.88 211.56 290.91 216.43 291.16 221.29 C 292.07 222.55 291.93 224.03 291.56 225.44 C 291.84 227.62 292.15 229.81 292.04 232.02 C 291.84 246.78 292.24 261.54 291.84 276.29 C 290.89 277.66 290.89 279.33 291.84 280.71 C 292.21 338.12 291.89 395.54 292.00 452.95 C 292.11 481.39 291.78 509.85 292.16 538.29 C 293.21 539.99 293.22 542.00 292.16 543.71 C 291.79 550.78 292.12 557.87 291.97 564.96 C 292.01 567.54 291.68 570.28 292.82 572.71 C 293.19 610.60 292.98 648.51 292.93 686.41 C 292.59 687.10 291.92 688.46 291.58 689.15 C 290.38 688.66 289.19 688.18 288.00 687.72 C 288.02 684.71 288.05 681.70 287.82 678.71 C 287.29 677.51 287.01 676.26 287.00 674.96 C 287.00 496.97 287.01 318.97 286.99 140.98 Z" />
<path fill="#000000" opacity="1.00" d=" M 318.00 140.99 C 317.37 138.61 320.78 136.70 322.28 138.71 C 323.52 139.76 322.80 141.61 323.04 143.01 C 323.05 182.44 322.82 221.87 323.15 261.29 C 323.95 262.42 323.95 263.56 323.15 264.71 C 322.78 275.13 323.13 285.57 322.97 296.00 C 323.02 298.57 322.65 301.31 323.86 303.70 C 324.00 306.05 324.34 308.56 323.14 310.73 C 323.08 312.24 323.08 313.76 323.13 315.28 C 323.70 316.45 323.99 317.69 324.01 318.99 C 323.99 378.32 324.00 437.65 324.00 496.98 C 324.10 522.42 323.79 547.86 324.15 573.30 C 324.95 574.43 324.95 575.57 324.15 576.71 C 323.91 586.89 323.87 597.10 324.17 607.29 C 325.42 610.02 324.95 613.08 325.02 615.99 C 324.88 623.08 325.21 630.19 324.83 637.29 C 323.87 638.54 324.45 639.93 324.78 641.27 C 324.03 642.42 324.05 643.56 324.84 644.71 C 324.86 648.68 325.77 652.94 324.12 656.71 C 323.99 658.73 323.82 660.85 324.83 662.71 C 325.17 667.78 324.92 672.87 325.02 677.96 C 324.99 680.86 325.32 683.88 324.28 686.68 C 324.18 687.30 323.97 688.54 323.87 689.17 C 321.81 689.24 318.49 688.91 318.99 686.05 C 319.01 633.37 319.00 580.69 319.00 528.01 C 318.88 510.24 319.23 492.47 318.82 474.71 C 317.47 470.12 317.47 464.87 318.82 460.29 C 319.09 456.77 319.09 453.23 318.82 449.71 C 317.59 447.20 317.98 444.37 318.17 441.70 C 319.43 438.97 318.93 435.90 319.04 433.01 C 318.93 430.09 319.43 427.03 318.18 424.29 C 317.88 417.10 317.88 409.89 318.18 402.71 C 318.85 401.23 319.05 399.62 319.03 398.02 C 318.98 386.02 318.98 374.02 319.03 362.02 C 319.06 360.40 318.85 358.77 318.18 357.29 C 317.88 346.77 317.89 336.23 318.17 325.71 C 319.36 323.39 319.35 320.62 318.18 318.29 C 317.94 314.04 317.66 309.75 318.45 305.54 C 317.93 301.18 317.27 296.51 318.83 292.29 C 319.04 289.77 319.03 287.23 318.84 284.71 C 317.21 280.69 318.27 276.23 318.01 272.01 C 318.28 267.79 317.18 263.31 318.85 259.29 C 318.99 257.10 318.99 254.90 318.85 252.71 C 318.13 251.24 317.94 249.60 317.97 247.98 C 318.04 212.32 317.98 176.65 318.00 140.99 Z" />
<path fill="#000000" opacity="1.00" d=" M 373.70 138.70 C 374.88 137.09 377.92 138.02 377.95 140.05 C 378.19 164.12 377.74 188.21 378.16 212.29 C 379.21 213.99 379.22 216.00 378.16 217.71 C 377.78 233.47 378.11 249.25 378.00 265.03 C 378.11 273.11 377.76 281.21 378.19 289.29 C 379.07 291.03 377.93 292.97 378.81 294.72 C 379.26 338.82 378.87 382.94 379.00 427.05 C 379.00 513.36 379.00 599.68 379.00 685.99 C 379.28 687.45 378.08 689.42 376.43 688.99 C 375.53 687.91 374.78 686.72 373.99 685.58 C 374.02 605.72 373.99 525.87 374.01 446.02 C 373.97 444.72 373.70 443.48 373.19 442.30 C 373.02 438.97 372.42 435.44 373.82 432.29 C 374.25 416.19 373.84 400.07 374.03 383.96 C 374.00 381.39 374.30 378.69 373.18 376.29 C 372.89 372.10 372.89 367.89 373.18 363.71 C 374.30 361.31 374.00 358.61 374.03 356.05 C 373.85 343.60 374.23 331.15 373.84 318.71 C 372.81 317.12 372.94 315.29 373.46 313.57 C 372.50 307.76 373.22 301.86 372.99 296.01 C 373.09 292.77 372.47 289.35 373.82 286.29 C 374.12 274.44 374.12 262.56 373.82 250.71 C 373.15 249.23 372.94 247.62 372.97 246.02 C 373.08 212.19 372.91 178.37 373.05 144.54 C 373.28 144.14 373.73 143.32 373.96 142.92 C 373.48 141.76 372.08 139.67 373.70 138.70 Z" />
<path fill="#000000" opacity="1.00" d=" M 185.28 699.83 C 189.98 698.14 195.12 699.31 200.00 698.99 C 203.88 699.51 207.94 698.60 211.69 699.76 C 212.64 699.86 213.60 699.96 214.55 700.07 C 215.44 700.89 216.33 701.72 217.22 702.56 C 216.92 703.56 216.60 704.57 216.28 705.58 C 216.12 706.03 215.80 706.94 215.64 707.39 C 215.39 708.76 215.08 710.13 214.72 711.49 C 211.10 717.50 206.12 722.52 202.37 728.44 C 200.40 731.52 198.16 734.42 196.05 737.40 C 195.98 737.90 195.85 738.91 195.79 739.41 C 195.42 740.45 195.08 741.50 194.74 742.56 C 194.20 743.54 193.67 744.52 193.13 745.52 C 193.01 746.77 192.90 748.04 192.76 749.31 C 191.27 753.61 192.23 758.25 192.04 762.71 C 190.93 763.57 189.83 764.44 188.72 765.31 C 187.50 764.41 186.24 763.59 185.12 762.57 C 185.02 756.86 184.51 751.04 185.55 745.39 C 185.97 744.06 186.36 742.73 186.73 741.40 C 186.83 740.93 187.05 739.98 187.15 739.50 C 187.68 738.52 188.19 737.53 188.70 736.55 C 189.96 734.16 191.36 731.86 192.73 729.54 C 194.90 726.14 197.06 722.74 199.39 719.45 C 201.53 716.75 204.19 714.50 206.06 711.58 C 206.01 711.08 205.92 710.07 205.87 709.56 C 205.56 708.92 204.95 707.64 204.64 706.99 C 198.42 707.02 192.19 706.96 185.97 707.03 C 183.41 707.03 180.77 707.20 178.32 706.28 C 177.72 706.18 176.51 705.98 175.90 705.88 C 176.18 703.91 175.28 701.30 177.40 700.13 C 180.02 699.87 182.66 700.00 185.28 699.83 Z" />
<path fill="#000000" opacity="1.00" d=" M 78.36 700.65 C 82.35 699.62 86.67 699.58 90.66 700.68 C 91.14 700.78 92.11 700.99 92.59 701.09 C 96.84 703.65 100.72 706.87 102.90 711.45 C 102.99 711.93 103.18 712.90 103.27 713.39 C 103.61 714.73 104.01 716.06 104.45 717.39 C 105.20 720.10 105.29 722.96 104.38 725.66 C 104.02 727.26 103.71 728.90 103.47 730.54 C 103.05 731.55 102.62 732.55 102.16 733.55 C 102.10 734.04 101.96 735.02 101.89 735.51 C 100.57 737.89 99.18 740.24 97.78 742.58 C 92.73 750.21 87.78 758.32 80.47 764.00 C 77.84 763.99 75.21 763.99 72.59 763.95 C 75.62 756.83 81.83 751.86 85.95 745.43 C 85.97 744.39 85.99 743.36 86.01 742.35 C 85.37 742.06 84.09 741.47 83.44 741.18 C 81.40 741.06 79.34 740.89 77.36 740.35 C 76.89 740.22 75.96 739.97 75.50 739.84 C 69.95 738.07 67.24 732.88 64.15 728.43 C 64.01 727.50 63.87 726.58 63.72 725.68 C 62.57 722.36 62.68 718.70 63.66 715.36 C 63.78 714.89 64.02 713.96 64.15 713.49 C 66.56 708.03 71.02 703.55 76.49 701.15 C 76.96 701.02 77.89 700.77 78.36 700.65 M 80.33 706.70 C 79.85 706.80 78.89 706.99 78.41 707.09 C 75.73 709.66 73.01 712.25 70.99 715.40 C 71.06 718.82 70.57 722.35 71.69 725.67 C 71.79 726.15 71.98 727.12 72.08 727.60 C 74.31 729.96 76.67 732.23 79.41 734.02 C 82.46 733.99 85.51 733.98 88.57 734.01 C 92.05 732.20 94.36 729.03 95.87 725.49 C 95.99 724.54 96.12 723.60 96.26 722.67 C 97.15 720.93 97.19 719.03 96.23 717.31 C 96.13 716.33 96.03 715.35 95.95 714.39 C 94.18 711.34 91.66 708.80 88.60 707.05 C 87.63 706.95 86.66 706.86 85.69 706.77 C 83.97 705.81 82.07 705.86 80.33 706.70 Z" />
<path fill="#000000" opacity="1.00" d=" M 290.39 700.12 C 301.56 699.79 312.74 700.14 323.92 699.96 C 325.67 700.06 327.89 699.48 328.90 701.39 C 329.30 703.81 329.08 706.31 328.33 708.64 C 328.22 709.11 327.98 710.05 327.87 710.52 C 325.05 716.79 319.60 721.21 315.98 726.93 C 314.93 728.48 313.78 729.96 312.72 731.51 C 311.19 734.17 309.61 736.81 308.11 739.49 C 308.04 739.98 307.90 740.97 307.83 741.46 C 307.27 742.80 306.76 744.16 306.22 745.52 C 306.07 745.98 305.78 746.90 305.64 747.36 C 304.67 750.58 305.07 753.97 304.83 757.28 C 303.80 759.40 304.00 761.80 303.91 764.10 C 301.93 763.80 299.31 764.71 298.12 762.61 C 297.81 757.98 297.94 753.33 298.19 748.71 C 298.92 746.30 299.15 743.79 299.67 741.34 C 299.77 740.86 299.98 739.88 300.08 739.40 C 300.99 738.05 301.92 736.72 302.89 735.42 C 302.94 734.93 303.04 733.97 303.09 733.48 C 304.14 731.80 305.22 730.14 306.22 728.44 C 309.70 722.76 314.35 717.92 318.01 712.35 C 317.85 710.52 318.61 708.17 316.61 707.12 C 308.22 706.34 299.59 708.04 291.32 706.28 C 290.72 706.18 289.51 705.98 288.90 705.88 C 289.18 703.91 288.28 701.30 290.39 700.12 Z" />
<path fill="#000000" opacity="1.00" d=" M 361.43 699.94 C 363.62 700.22 367.43 699.00 367.96 702.05 C 368.07 721.71 367.97 741.38 368.00 761.05 C 368.63 764.36 363.42 765.27 362.12 762.60 C 361.74 755.73 362.17 748.84 362.01 741.97 C 362.01 740.65 361.70 739.41 361.06 738.26 C 361.05 736.57 361.01 734.83 361.82 733.29 C 362.10 729.10 362.11 724.89 361.82 720.71 C 360.76 718.39 361.13 715.81 360.85 713.36 C 360.12 712.28 358.80 712.06 357.67 711.72 C 355.41 714.46 352.50 716.51 349.49 718.34 C 349.21 717.69 348.65 716.39 348.37 715.73 C 348.61 714.26 348.89 712.79 349.23 711.34 C 353.20 707.45 356.78 703.07 361.43 699.94 Z" />
<path fill="#000000" opacity="1.00" d=" M 400.32 700.75 C 405.18 699.23 410.38 700.23 415.39 700.09 C 416.78 700.81 418.19 701.53 419.62 702.22 C 422.51 703.41 424.18 706.07 425.88 708.54 C 426.00 709.47 426.12 710.41 426.24 711.36 C 426.57 712.72 427.01 714.05 427.49 715.38 C 428.37 718.77 427.43 722.44 428.82 725.71 C 429.11 730.23 429.11 734.77 428.82 739.29 C 427.89 741.51 427.95 743.95 427.76 746.31 C 427.40 748.42 426.58 750.44 426.36 752.60 C 426.20 753.05 425.86 753.96 425.69 754.42 C 425.38 755.47 425.10 756.53 424.84 757.61 C 423.55 760.84 420.50 762.48 417.50 763.84 C 417.04 763.97 416.11 764.22 415.64 764.34 C 410.72 765.67 405.57 764.77 400.54 764.96 C 396.19 762.97 392.47 759.76 390.06 755.61 C 389.97 755.12 389.78 754.14 389.69 753.65 C 389.33 751.98 388.96 750.31 388.59 748.66 C 388.23 746.18 387.89 743.69 387.19 741.29 C 386.87 734.44 386.87 727.56 387.19 720.71 C 387.93 718.30 388.11 715.77 388.72 713.33 C 388.85 712.38 388.99 711.43 389.14 710.50 C 390.82 706.54 393.59 703.12 397.40 701.05 C 398.36 700.95 399.34 700.85 400.32 700.75 M 406.29 706.84 C 404.65 706.93 403.01 706.98 401.37 707.02 C 399.39 708.96 397.54 711.03 396.05 713.38 C 395.95 714.35 395.85 715.33 395.75 716.31 C 394.78 718.85 395.00 721.61 394.79 724.29 C 393.21 729.10 394.16 734.31 394.18 739.29 C 395.65 742.56 394.44 746.29 395.66 749.65 C 395.78 750.10 396.02 751.02 396.14 751.47 C 397.81 754.03 399.68 756.52 402.41 758.02 C 406.13 757.98 409.85 757.98 413.57 758.02 C 415.84 756.73 417.71 754.90 418.95 752.60 C 419.03 752.11 419.17 751.11 419.25 750.61 C 419.61 749.26 420.01 747.93 420.46 746.62 C 421.56 738.72 420.92 730.66 420.81 722.71 C 420.04 720.29 419.91 717.75 419.26 715.32 C 419.14 714.33 419.04 713.36 418.94 712.39 C 417.71 710.10 415.88 708.26 413.60 707.03 C 412.29 706.97 410.99 706.89 409.70 706.82 C 408.56 706.05 407.42 706.05 406.29 706.84 Z" />
<path fill="#000000" opacity="1.00" d=" M 457.36 700.66 C 462.60 699.29 468.10 700.25 473.45 700.04 C 477.37 701.83 480.87 704.54 482.95 708.39 C 483.02 708.89 483.17 709.89 483.24 710.39 C 483.60 711.72 484.02 713.06 484.47 714.39 C 484.72 716.85 485.13 719.31 485.81 721.71 C 486.13 728.90 486.11 736.12 485.82 743.31 C 485.29 745.39 484.69 747.45 484.35 749.58 C 484.05 750.90 483.74 752.23 483.39 753.55 C 482.98 754.55 482.57 755.56 482.16 756.58 C 482.11 757.09 482.02 758.11 481.98 758.62 C 480.03 760.59 477.97 762.47 475.62 763.96 C 474.63 764.03 473.65 764.13 472.68 764.25 C 467.74 765.53 462.32 765.39 457.34 764.33 C 456.87 764.22 455.93 764.00 455.45 763.88 C 453.75 762.83 452.10 761.72 450.43 760.64 C 449.67 759.55 448.89 758.47 448.10 757.43 C 448.05 756.94 447.95 755.98 447.90 755.50 C 447.32 754.51 446.74 753.52 446.18 752.54 C 446.00 750.76 445.87 748.95 445.19 747.29 C 444.96 744.10 445.03 740.90 444.82 737.71 C 443.11 732.25 444.24 726.33 444.18 720.69 C 444.59 718.55 445.44 716.52 445.71 714.35 C 445.85 713.40 446.01 712.46 446.18 711.54 C 447.50 709.09 448.47 706.41 450.22 704.23 C 451.78 702.90 453.71 702.12 455.50 701.16 C 455.97 701.04 456.89 700.78 457.36 700.66 M 458.32 706.97 C 456.77 708.66 455.32 710.46 454.04 712.38 C 453.97 712.88 453.83 713.89 453.76 714.39 C 453.38 715.72 452.98 717.05 452.53 718.38 C 451.44 723.83 452.22 729.43 452.00 734.95 C 452.20 739.18 451.35 743.57 452.72 747.67 C 452.86 748.60 453.00 749.54 453.14 750.49 C 454.48 753.57 456.30 756.49 459.43 758.01 C 463.14 757.98 466.86 757.99 470.57 758.01 C 473.23 756.47 475.47 754.31 476.94 751.60 C 477.03 750.61 477.13 749.64 477.25 748.68 C 478.20 746.13 478.01 743.37 478.21 740.72 C 479.45 737.08 479.52 732.90 478.17 729.29 C 477.64 724.66 478.66 719.89 477.35 715.35 C 477.22 714.89 476.97 713.96 476.85 713.50 C 475.66 710.90 474.27 708.30 471.61 706.97 C 467.17 707.02 462.75 707.01 458.32 706.97 Z" />
<path fill="#000000" opacity="1.00" d=" M 548.34 700.70 C 553.62 699.51 559.34 699.59 564.64 700.66 C 565.10 700.78 566.03 701.03 566.50 701.16 C 570.49 702.55 573.42 705.53 574.85 709.50 C 574.96 709.97 575.17 710.93 575.27 711.40 C 575.62 712.73 576.01 714.06 576.46 715.38 C 577.62 720.61 576.61 726.00 577.17 731.29 C 577.99 732.82 577.94 734.57 577.93 736.27 C 576.24 739.48 577.54 743.28 576.41 746.67 C 576.03 748.33 575.68 750.02 575.24 751.69 C 575.10 752.94 574.98 754.20 574.87 755.48 C 573.49 759.14 570.82 761.94 567.46 763.88 C 566.52 763.99 565.59 764.12 564.68 764.27 C 560.05 765.46 554.95 765.45 550.33 764.28 C 549.38 764.12 548.44 763.98 547.51 763.86 C 542.99 762.37 540.24 758.55 538.11 754.54 C 537.98 753.57 537.86 752.62 537.74 751.68 C 536.52 748.66 537.53 745.25 536.18 742.29 C 535.83 737.50 536.06 732.70 536.00 727.91 C 536.02 724.38 535.65 720.78 536.60 717.34 C 536.97 715.67 537.32 714.02 537.65 712.36 C 537.78 711.90 538.03 710.96 538.15 710.49 C 539.81 706.53 542.59 703.12 546.40 701.06 C 546.88 700.97 547.85 700.79 548.34 700.70 M 550.39 706.98 C 547.72 708.31 546.33 710.91 545.14 713.51 C 544.99 714.44 544.85 715.38 544.71 716.33 C 544.31 717.99 543.96 719.66 543.60 721.33 C 542.38 727.55 543.11 733.99 543.18 740.29 C 544.47 743.25 543.63 746.60 544.64 749.65 C 544.77 750.11 545.03 751.04 545.16 751.50 C 546.33 754.09 547.73 756.68 550.39 758.02 C 554.77 757.98 559.16 758.00 563.55 758.00 C 565.00 756.51 566.46 755.04 567.94 753.58 C 568.01 752.27 568.10 750.98 568.23 749.70 C 568.94 747.27 569.05 744.71 569.81 742.29 C 569.80 735.65 570.81 728.78 569.25 722.29 C 569.08 719.97 568.92 717.64 568.40 715.38 C 568.21 714.93 567.85 714.04 567.66 713.59 C 567.37 712.45 567.10 711.31 566.84 710.17 C 565.43 709.09 564.01 708.03 562.60 706.98 C 558.53 707.01 554.46 707.01 550.39 706.98 Z" />
<path fill="#000000" opacity="1.00" d=" M 609.39 700.57 C 611.75 699.79 614.24 699.83 616.62 700.54 C 617.93 700.98 619.26 701.38 620.62 701.75 C 621.12 701.82 622.12 701.97 622.62 702.05 C 626.70 704.48 629.99 708.11 631.87 712.50 C 631.99 713.43 632.12 714.37 632.26 715.33 C 633.25 717.34 633.18 719.59 632.33 721.65 C 632.21 722.11 631.97 723.04 631.85 723.51 C 630.23 727.10 627.87 730.39 624.56 732.60 C 621.12 734.76 618.13 737.62 614.39 739.26 C 609.97 741.57 606.29 745.03 604.02 749.50 C 604.01 751.17 604.00 752.86 604.00 754.56 C 604.81 755.36 605.63 756.17 606.45 757.00 C 613.48 757.00 620.52 757.00 627.56 757.00 C 628.36 757.81 629.18 758.62 630.00 759.44 C 629.99 760.83 629.99 762.22 630.00 763.63 C 629.36 763.95 628.07 764.61 627.42 764.93 C 620.95 765.08 614.49 764.94 608.02 765.02 C 605.11 765.01 602.13 765.27 599.33 764.32 C 598.84 764.21 597.85 764.00 597.35 763.89 C 597.03 763.28 596.39 762.05 596.07 761.43 C 596.05 758.05 595.49 754.53 596.76 751.31 C 596.89 750.03 597.00 748.77 597.12 747.51 C 598.55 744.34 600.45 741.36 603.53 739.57 C 607.27 736.19 611.08 732.89 615.46 730.34 C 618.78 728.37 622.15 726.16 623.94 722.60 C 624.03 722.11 624.22 721.14 624.31 720.66 C 624.82 718.96 625.00 717.21 625.16 715.46 C 623.50 713.17 621.66 711.02 619.64 709.05 C 619.15 708.97 618.16 708.79 617.67 708.70 C 613.39 707.44 608.79 707.81 604.44 708.50 C 603.44 708.92 602.44 709.35 601.46 709.80 C 601.00 709.93 600.09 710.18 599.63 710.31 C 597.27 712.18 596.08 709.59 595.67 707.55 C 596.94 705.78 598.43 704.19 600.35 703.14 C 601.42 702.88 602.50 702.60 603.58 702.30 C 604.04 702.15 604.96 701.85 605.42 701.70 C 606.74 701.33 608.06 700.96 609.39 700.57 Z" />
<path fill="#000000" opacity="1.00" d=" M 663.61 700.09 C 668.61 700.22 673.80 699.25 678.68 700.72 C 679.59 700.85 680.52 700.99 681.46 701.13 C 684.33 703.08 687.33 705.11 688.84 708.38 C 689.09 709.44 689.38 710.51 689.69 711.58 C 689.86 712.03 690.22 712.93 690.40 713.38 C 690.93 715.64 691.08 717.97 691.25 720.29 C 692.61 724.05 691.83 728.11 692.00 732.01 C 691.82 736.23 692.59 740.58 691.31 744.69 C 691.06 746.69 690.86 748.73 690.27 750.68 C 690.13 751.62 690.00 752.57 689.88 753.53 C 689.28 754.51 688.68 755.49 688.08 756.49 C 688.04 756.98 687.95 757.95 687.91 758.44 C 687.10 759.46 686.33 760.51 685.58 761.58 C 684.52 762.31 683.48 763.06 682.46 763.85 C 682.01 763.97 681.10 764.22 680.65 764.35 C 677.38 765.39 673.90 764.65 670.60 765.52 C 668.02 765.07 665.01 765.03 662.34 764.33 C 661.86 764.23 660.89 764.03 660.40 763.93 C 656.88 762.22 654.66 758.99 653.13 755.50 C 652.99 754.53 652.87 753.58 652.76 752.63 C 652.43 751.26 651.98 749.93 651.52 748.62 C 650.39 742.16 651.26 735.56 651.00 729.04 C 651.23 724.80 650.27 720.37 651.79 716.30 C 651.92 714.70 652.01 713.11 652.11 711.53 C 652.65 710.54 653.18 709.55 653.71 708.57 C 654.74 705.77 656.54 703.33 659.39 702.22 C 660.80 701.53 662.20 700.81 663.61 700.09 M 669.30 706.81 C 667.99 706.89 666.69 706.97 665.40 707.04 C 663.11 708.27 661.28 710.11 660.05 712.40 C 659.97 712.90 659.82 713.89 659.74 714.39 C 659.41 715.73 658.98 717.05 658.52 718.38 C 657.57 722.62 658.19 726.98 657.85 731.29 C 656.87 732.65 656.89 734.33 657.85 735.72 C 658.13 739.03 657.50 742.52 658.79 745.70 C 658.92 747.28 659.01 748.88 659.10 750.49 C 660.43 753.24 662.10 755.82 664.31 757.98 C 665.63 758.02 666.96 758.09 668.29 758.19 C 670.61 759.36 673.29 759.25 675.66 758.30 C 676.15 758.21 677.13 758.03 677.62 757.94 C 679.05 756.94 680.46 755.90 681.84 754.83 C 682.09 753.33 682.32 751.85 682.57 750.37 C 682.79 749.94 683.21 749.07 683.42 748.63 C 684.72 744.61 683.11 740.20 684.83 736.29 C 685.06 733.43 685.06 730.56 684.83 727.71 C 683.54 724.74 684.29 721.40 683.41 718.33 C 683.02 716.66 682.68 715.00 682.31 713.34 C 682.22 712.85 682.05 711.86 681.96 711.37 C 680.90 709.56 679.43 708.08 677.63 707.03 C 676.64 706.94 675.66 706.86 674.69 706.78 C 672.96 705.82 671.01 705.79 669.30 706.81 Z" />
<path fill="#000000" opacity="1.00" d=" M 722.34 700.69 C 727.30 699.60 732.76 699.45 737.69 700.77 C 738.93 700.88 740.19 700.99 741.46 701.11 C 744.80 703.05 747.49 705.83 748.87 709.50 C 748.98 710.45 749.11 711.40 749.24 712.37 C 749.55 713.73 749.99 715.05 750.48 716.38 C 751.83 721.07 749.94 726.17 751.86 730.72 C 751.90 732.23 751.90 733.75 751.87 735.27 C 750.19 738.53 751.75 742.40 750.21 745.71 C 750.08 748.33 749.95 750.96 749.51 753.56 C 749.05 754.55 748.59 755.56 748.13 756.56 C 748.09 757.08 748.02 758.11 747.99 758.62 C 746.03 760.59 743.96 762.46 741.62 763.95 C 740.63 764.03 739.65 764.13 738.69 764.25 C 733.80 765.79 728.57 764.72 723.55 764.94 C 722.55 764.37 721.56 763.81 720.57 763.28 C 716.75 762.20 714.60 758.94 713.12 755.50 C 713.05 755.01 712.91 754.03 712.84 753.55 C 712.37 752.55 711.92 751.55 711.50 750.56 C 710.67 746.65 711.12 742.65 710.84 738.71 C 709.54 735.99 710.07 732.91 709.97 730.01 C 710.07 726.77 709.56 723.40 710.74 720.29 C 710.92 718.00 711.13 715.71 711.49 713.44 C 711.93 712.43 712.38 711.43 712.86 710.45 C 712.90 709.94 712.98 708.91 713.02 708.40 C 714.82 705.37 717.31 702.79 720.40 701.06 C 720.88 700.97 721.85 700.78 722.34 700.69 M 733.45 706.56 C 730.53 707.05 727.57 707.13 724.62 707.05 C 723.51 707.84 722.41 708.66 721.29 709.44 C 720.59 710.79 719.90 712.15 719.21 713.52 C 719.01 715.26 718.84 717.04 718.19 718.71 C 717.76 725.79 718.13 732.89 717.98 739.98 C 718.02 742.88 717.63 745.91 718.76 748.68 C 718.85 749.65 718.95 750.63 719.05 751.62 C 720.53 753.95 722.38 756.02 724.37 757.94 C 724.86 758.03 725.84 758.20 726.33 758.29 C 728.69 759.27 731.35 759.32 733.69 758.24 C 734.94 758.09 736.20 757.97 737.48 757.87 C 738.02 757.58 739.09 756.99 739.63 756.70 C 740.69 754.98 741.80 753.29 742.83 751.55 C 742.98 749.76 743.11 747.95 743.82 746.29 C 744.10 742.43 743.90 738.56 744.16 734.71 C 745.29 732.70 745.30 730.28 744.15 728.29 C 743.86 724.32 744.35 720.29 743.48 716.38 C 742.99 715.05 742.55 713.71 742.24 712.36 C 742.18 711.82 742.06 710.75 742.01 710.21 C 740.58 709.14 739.13 708.14 737.66 707.19 C 736.26 706.87 734.87 706.59 733.45 706.56 Z" />
<path fill="#000000" opacity="1.00" d=" M 787.36 699.90 C 789.49 700.29 792.51 699.05 793.77 701.39 C 794.09 703.49 793.99 705.69 794.81 707.71 C 795.08 710.89 795.07 714.10 794.85 717.30 C 794.04 718.42 794.04 719.56 794.84 720.71 C 795.07 723.89 795.08 727.10 794.82 730.29 C 793.69 732.68 793.99 735.37 793.97 737.94 C 794.10 743.72 793.81 749.51 794.16 755.29 C 795.10 756.65 795.08 758.32 794.18 759.71 C 794.07 761.16 793.98 762.62 793.93 764.10 C 791.91 763.86 788.45 764.77 788.05 761.97 C 787.93 747.97 788.01 733.95 788.03 719.95 C 788.05 718.35 787.81 716.77 787.23 715.30 C 787.10 714.19 786.99 713.09 786.90 711.99 C 785.76 711.99 784.63 712.00 783.50 712.02 C 781.94 713.67 780.25 715.21 778.31 716.42 C 777.81 716.90 776.81 717.85 776.32 718.32 C 775.05 716.61 774.90 714.52 774.87 712.48 C 777.31 710.40 779.47 708.03 781.52 705.57 C 783.40 703.62 785.18 701.54 787.36 699.90 Z" />
<path fill="#000000" opacity="1.00" d=" M 819.45 700.00 C 827.95 700.06 836.46 699.88 844.96 700.05 C 847.57 700.24 848.01 704.84 845.59 705.67 C 843.82 706.07 842.02 706.28 840.30 706.81 C 835.66 707.26 831.00 706.74 826.37 707.10 C 825.40 707.98 825.03 709.27 824.40 710.39 C 824.04 713.09 823.86 715.82 823.98 718.56 C 824.79 719.34 825.60 720.14 826.43 720.95 C 827.40 721.01 828.39 721.09 829.38 721.18 C 831.09 721.74 832.84 722.21 834.57 722.77 C 835.05 722.86 836.01 723.05 836.49 723.14 C 837.46 723.67 838.45 724.19 839.45 724.70 C 843.48 726.30 846.73 729.51 848.29 733.57 C 848.82 734.56 849.37 735.55 849.94 736.55 C 849.99 739.91 850.38 743.37 849.34 746.64 C 849.22 747.11 848.98 748.05 848.87 748.52 C 847.16 751.80 845.13 754.92 842.68 757.70 C 840.30 759.90 837.31 761.27 834.51 762.86 C 834.03 762.96 833.08 763.17 832.60 763.28 C 831.25 763.61 829.92 764.01 828.62 764.47 C 825.60 765.15 822.51 765.07 819.45 765.00 C 818.62 764.18 817.81 763.36 817.00 762.55 C 816.99 761.03 816.99 759.51 817.00 758.00 C 820.83 758.00 824.66 758.01 828.50 757.97 C 829.48 757.33 830.47 756.69 831.47 756.07 C 831.96 756.03 832.95 755.95 833.45 755.92 C 836.87 753.76 839.77 750.95 841.85 747.47 C 841.98 747.01 842.23 746.10 842.35 745.65 C 843.10 743.36 843.05 740.94 842.98 738.57 C 842.69 738.03 842.11 736.95 841.81 736.41 C 840.59 733.51 837.93 731.83 835.47 730.13 C 835.00 730.03 834.07 729.82 833.60 729.72 C 832.25 729.37 830.92 728.96 829.62 728.54 C 827.35 727.96 825.01 727.89 822.70 728.13 C 820.69 729.07 817.46 730.00 816.13 727.61 C 815.88 724.18 815.49 720.54 816.82 717.29 C 817.16 712.34 816.94 707.39 817.00 702.44 C 817.81 701.62 818.63 700.81 819.45 700.00 Z" />
<path fill="#000000" opacity="1.00" d=" M 245.55 701.05 C 249.83 700.96 254.10 700.97 258.38 701.05 C 259.40 701.79 260.43 702.54 261.50 703.24 C 264.04 704.40 266.03 706.38 267.94 708.38 C 268.03 708.87 268.21 709.84 268.30 710.33 C 269.29 712.91 269.02 715.69 268.94 718.39 C 268.09 719.87 267.36 721.40 266.60 722.94 C 266.33 722.98 265.77 723.04 265.49 723.07 C 264.31 724.99 263.07 726.86 261.84 728.75 C 264.06 733.53 268.66 736.63 270.88 741.45 C 271.00 741.93 271.22 742.87 271.33 743.34 C 272.12 745.64 272.05 748.08 272.01 750.48 C 271.35 751.47 270.70 752.46 270.06 753.47 C 270.03 753.97 269.96 754.96 269.92 755.45 C 267.75 759.22 264.33 761.88 260.53 763.89 C 258.43 763.98 256.25 763.90 254.30 764.83 C 251.66 765.12 248.97 765.11 246.39 764.46 C 245.06 764.01 243.73 763.62 242.40 763.27 C 241.93 763.17 241.00 762.97 240.53 762.87 C 236.84 760.64 233.68 757.62 232.15 753.50 C 232.03 753.04 231.79 752.11 231.66 751.64 C 230.65 748.99 230.85 746.14 231.50 743.45 C 231.94 742.43 232.39 741.43 232.85 740.44 C 232.91 739.95 233.01 738.96 233.07 738.47 C 234.78 736.87 236.33 735.09 237.56 733.09 C 237.83 733.06 238.37 732.98 238.64 732.94 C 238.96 732.31 239.60 731.05 239.92 730.42 C 239.94 729.45 239.95 728.49 239.97 727.54 C 238.78 725.43 237.58 723.32 236.13 721.39 C 236.08 720.91 235.97 719.95 235.92 719.47 C 235.28 718.46 234.65 717.47 234.01 716.48 C 234.01 714.83 234.03 713.18 234.04 711.55 C 235.80 707.71 238.35 704.04 242.57 702.71 C 243.57 702.16 244.56 701.61 245.55 701.05 M 249.33 707.72 C 248.84 707.80 247.87 707.96 247.39 708.04 C 245.46 709.32 243.66 710.77 241.95 712.33 C 241.98 714.03 242.01 715.74 242.03 717.45 C 243.82 720.38 246.35 722.63 249.54 723.94 C 250.88 723.96 252.22 723.98 253.57 724.02 C 256.62 722.18 259.18 719.64 261.01 716.58 C 261.01 715.51 261.01 714.45 261.01 713.40 C 259.71 711.50 258.26 709.71 256.70 708.02 C 255.70 707.94 254.70 707.87 253.70 707.79 C 252.34 706.89 250.72 706.98 249.33 707.72 M 248.52 734.99 C 244.76 737.15 241.24 739.76 239.03 743.58 C 239.02 745.90 239.00 748.23 238.98 750.57 C 240.53 753.23 242.69 755.47 245.40 756.95 C 246.37 757.02 247.34 757.11 248.31 757.22 C 249.69 758.05 251.31 758.06 252.69 757.22 C 253.95 757.08 255.21 756.97 256.48 756.88 C 259.54 755.51 262.49 753.70 264.02 750.58 C 263.99 748.21 263.99 745.85 263.98 743.50 C 262.87 741.80 261.73 740.12 260.63 738.42 C 259.56 737.68 258.49 736.92 257.44 736.16 C 256.99 736.03 256.10 735.78 255.65 735.66 C 253.34 734.88 250.91 734.94 248.52 734.99 Z" />
<path fill="#000000" opacity="1.00" d=" M 908.38 701.82 C 909.84 702.45 911.17 703.37 912.56 704.20 C 916.31 706.41 919.83 708.99 923.55 711.28 C 925.53 712.39 927.46 713.61 929.47 714.71 C 932.56 716.55 935.32 718.88 938.38 720.76 C 944.26 723.71 949.55 727.73 954.97 731.43 C 955.75 733.49 954.00 734.43 952.47 735.28 C 950.08 736.66 947.88 738.30 945.57 739.78 C 943.15 741.20 940.84 742.79 938.43 744.22 C 935.34 746.09 932.56 748.43 929.47 750.29 C 927.75 751.22 926.09 752.23 924.40 753.20 C 922.11 754.70 919.88 756.29 917.61 757.81 C 914.57 759.57 911.52 761.32 908.41 762.94 C 908.06 762.60 907.35 761.92 907.00 761.59 C 906.99 761.02 906.97 759.90 906.96 759.33 C 909.91 756.71 913.01 754.24 916.42 752.23 C 921.10 749.82 924.84 745.97 929.59 743.72 C 934.47 740.97 938.91 737.52 943.69 734.62 C 944.11 733.82 944.55 733.04 945.00 732.28 C 943.66 730.11 941.93 728.16 939.50 727.24 C 935.56 724.51 931.77 721.54 927.54 719.26 C 925.49 718.02 923.50 716.70 921.54 715.34 C 919.18 713.79 916.86 712.19 914.45 710.75 C 911.69 709.24 909.10 707.45 906.61 705.55 C 907.00 704.22 907.46 702.89 908.38 701.82 Z" />
</g>
</svg>
